<?xml version="1.0" encoding="utf-8"?>
<!-- Generator: Adobe Illustrator 25.0.1, SVG Export Plug-In . SVG Version: 6.00 Build 0)  -->
<svg version="1.1" id="Layer_1" xmlns="http://www.w3.org/2000/svg" xmlns:xlink="http://www.w3.org/1999/xlink" x="0px" y="0px"
	 viewBox="0 0 256 256" style="enable-background:new 0 0 256 256;" xml:space="preserve">
<style type="text/css">
	.st0{fill-rule:evenodd;clip-rule:evenodd;fill:#C8102E;}
	.st1{fill:#FFFFFF;}
</style>
<g>
	<g id="形状_1_拷贝_25_9_">
		<g>
			<path class="st0" d="M157.74,60H98.26C70.25,60,60,70.25,60,98.26v59.47C60,185.75,70.25,196,98.26,196h59.45
				c28.02,0,38.28-10.25,38.28-38.26l0-59.47C196,70.25,185.75,60,157.74,60z"/>
		</g>
	</g>
	<g>
		<path class="st1" d="M86.93,128.01h3.61v17.78h-3.61v-7.22h-8.15v7.22h-3.61v-17.78h3.61v7.17h8.15V128.01z M107.25,138.19
			c0,2.89-1.43,4.44-4.04,4.44c-2.62,0-4.06-1.59-4.06-4.56v-10.04h-3.61v10.17c0,5,2.78,7.87,7.62,7.87c4.89,0,7.7-2.92,7.7-8.02
			v-10.03h-3.61V138.19z M148.95,140.24l-4.04-12.23h-2.94l-4.04,12.23L134,128.02h-3.84l6.2,17.77h2.99l4.04-11.67l4.04,11.67h3.01
			l6.18-17.77h-3.74L148.95,140.24z M163.09,138.14h6.56v-3.24h-6.56v-3.64h9.53v-3.24h-13.08v17.76h13.43v-3.24h-9.87V138.14z
			 M177.26,145.77h3.56v-17.76h-3.56V145.77z M117.99,142.08l-1.62,3.7h-3.68l7.83-17.77h3.18l7.8,17.77h-3.78l-1.6-3.7H117.99z
			 M119.33,138.87h5.45l-2.74-6.36L119.33,138.87z"/>
		<path class="st1" d="M128,105.37c-12.48,0-22.64-10.16-22.64-22.64h3.2c0,10.72,8.72,19.44,19.44,19.44
			c10.72,0,19.44-8.72,19.44-19.44h3.2C150.64,95.22,140.48,105.37,128,105.37z"/>
	</g>
</g>
</svg>
