<?xml version="1.0" encoding="UTF-8"?>
<svg width="256px" height="256px" viewBox="0 0 256 256" xmlns="http://www.w3.org/2000/svg" xmlns:xlink="http://www.w3.org/1999/xlink" version="1.1">
 <!-- Generated by Pixelmator Pro 1.5.4 -->
 <g id="group">
  <g id="group-1">
   <g id="group-2">
    <path id="Rectangle" d="M-36 298 L330 298 330 -11 -36 -11 Z" fill="#c8102e" fill-opacity="1" stroke="none"/>
   </g>
  </g>
  <g id="group-3">
   <path id="Path-1" d="M50.693 128.016 L57.488 128.016 57.488 161.485 50.693 161.485 50.693 147.895 35.351 147.895 35.351 161.485 28.556 161.485 28.556 128.016 35.351 128.016 35.351 141.513 50.693 141.513 Z M88.943 147.179 C88.943 152.619 86.251 155.537 81.338 155.537 76.406 155.537 73.695 152.544 73.695 146.953 L73.695 128.054 66.9 128.054 66.9 147.198 C66.9 156.61 72.133 162.012 81.244 162.012 90.448 162.012 95.738 156.516 95.738 146.916 L95.738 128.035 88.943 128.035 Z M167.438 151.038 L159.833 128.016 154.299 128.016 146.694 151.038 139.297 128.035 132.068 128.035 143.739 161.485 149.367 161.485 156.972 139.518 164.577 161.485 170.243 161.485 181.876 128.035 174.836 128.035 Z M194.055 147.085 L206.403 147.085 206.403 140.986 194.055 140.986 194.055 134.134 211.994 134.134 211.994 128.035 187.372 128.035 187.372 161.467 212.653 161.467 212.653 155.368 194.074 155.368 194.074 147.085 Z M220.728 161.448 L227.43 161.448 227.43 128.016 220.728 128.016 Z M109.159 154.502 L106.11 161.467 99.183 161.467 113.922 128.016 119.908 128.016 134.59 161.467 127.475 161.467 124.463 154.502 Z M111.682 148.459 L121.941 148.459 116.783 136.487 Z" fill="#ffffff" fill-opacity="1" stroke="none"/>
   <path id="Path-2" d="M128.002 85.399 C104.51 85.399 85.385 66.274 85.385 42.782 L91.408 42.782 C91.408 62.961 107.823 79.376 128.002 79.376 148.181 79.376 164.596 62.961 164.596 42.782 L170.619 42.782 C170.619 66.293 151.494 85.399 128.002 85.399 Z" fill="#ffffff" fill-opacity="1" stroke="none"/>
  </g>
 </g>
</svg>