<?xml version="1.0" encoding="UTF-8" standalone="no"?><!DOCTYPE svg PUBLIC "-//W3C//DTD SVG 1.1//EN" "http://www.w3.org/Graphics/SVG/1.1/DTD/svg11.dtd"><svg width="100%" height="100%" viewBox="0 0 1067 1067" version="1.1" xmlns="http://www.w3.org/2000/svg" xmlns:xlink="http://www.w3.org/1999/xlink" xml:space="preserve" xmlns:serif="http://www.serif.com/" style="fill-rule:evenodd;clip-rule:evenodd;stroke-linejoin:round;stroke-miterlimit:2;"><rect id="Art-7" serif:id="Art 7" x="0" y="0" width="1066.67" height="1066.67" style="fill:none;"/><g id="AppCenter-Android-Deploy"><g id="start-android-emulator"><rect id="Rectangle" x="0" y="0" width="1066.67" height="1066.67" style="fill:url(#_Linear1);"/></g></g><path d="M222.945,827.014l310.388,-155.194l310.389,155.194l-310.389,155.194l-310.388,-155.194" style="fill:#e2f9f8;"/><g><path d="M81.955,481.585l310.388,-155.194l140.99,137.466l-310.388,155.195l-140.99,-137.467Z" style="fill:url(#_Linear2);"/><path d="M222.945,619.052l310.388,-155.194l0,207.962l-310.388,155.194l0,-207.962Z" style="fill:#c1d4e3;"/></g><g><path d="M984.712,481.586l-310.388,-155.195l-140.991,137.466l310.389,155.195l140.99,-137.466Z" style="fill:url(#_Linear3);"/><path d="M843.722,619.052l-310.389,-155.194l0,207.962l310.389,155.194l0,-207.962Z" style="fill:#eceded;"/></g><path id="path-3" d="M515.837,583.101l-50.546,50.546l-27.217,-27.217l95.259,-95.259l95.26,95.259l-27.217,27.217l-46.658,-48.602l0,167.721l-38.881,0l0,-169.665Z" style="fill:#0b68bf;"/><g><path d="M533.333,774.247l-310.388,-155.195l0,207.962l310.388,155.194l0,-207.961Z" style="fill:url(#_Linear4);"/><path d="M533.333,774.247l310.389,-155.195l0,207.962l-310.389,155.194l0,-207.961Z" style="fill:#c1d4e3;"/></g><path d="M483.965,109.828c15.708,-6.729 31.416,-8.972 49.368,-8.972c15.709,0 29.173,2.243 42.637,6.729l35.904,-35.884c8.976,-8.971 22.441,-8.971 31.417,0c8.976,8.971 8.976,22.427 0,31.398l-26.929,26.913c31.417,24.67 51.613,62.797 51.613,105.41l-269.283,0c0,-40.37 17.952,-76.254 47.124,-100.924l-31.416,-31.399c-8.976,-8.971 -8.976,-22.427 0,-31.398c8.976,-8.971 22.44,-8.971 31.416,0l38.149,38.127Zm-40.393,260.159l-22.44,0c-13.464,0 -22.44,-8.971 -22.44,-22.428l0,-89.71l269.283,0l0,89.71c0,13.457 -8.976,22.428 -22.44,22.428l-22.441,0l0,67.283c0,11.213 -8.976,22.427 -22.44,22.427c-13.464,0 -22.44,-8.971 -22.44,-22.427l0,-67.283l-89.761,0l0,67.283c0,11.213 -8.976,22.427 -22.441,22.427c-13.464,0 -22.44,-8.971 -22.44,-22.427l0,-67.283Zm291.724,-112.138l0,91.953c0,11.214 -8.976,22.428 -22.44,22.428c-13.465,0 -22.441,-8.971 -22.441,-22.428l0,-91.953c0,-11.213 8.976,-22.427 22.441,-22.427c13.464,0 22.44,8.971 22.44,22.427Zm-381.485,-22.427c13.464,0 22.44,8.971 22.44,22.427l0,89.71c0,11.214 -8.976,22.428 -22.44,22.428c-13.464,0 -22.44,-8.971 -22.44,-22.428l0,-89.71c0,-13.456 8.976,-22.427 22.44,-22.427Zm246.843,-22.428c13.464,0 22.44,-8.971 22.44,-22.427c0,-11.214 -8.976,-22.428 -22.44,-22.428c-13.464,0 -22.44,11.214 -22.44,22.428c0,13.456 8.976,22.427 22.44,22.427Zm-134.642,0c13.465,0 22.441,-8.971 22.441,-22.427c0,-11.214 -8.976,-22.428 -22.441,-22.428c-13.464,0 -22.44,11.214 -22.44,22.428c0,13.456 8.976,22.427 22.44,22.427Z" style="fill:#fff;"/><defs><linearGradient id="_Linear1" x1="0" y1="0" x2="1" y2="0" gradientUnits="userSpaceOnUse" gradientTransform="matrix(6.53145e-14,1066.67,-1066.67,6.53145e-14,533.333,0)"><stop offset="0" style="stop-color:#53a906;stop-opacity:1"/><stop offset="1" style="stop-color:#a4c639;stop-opacity:1"/></linearGradient><linearGradient id="_Linear2" x1="0" y1="0" x2="1" y2="0" gradientUnits="userSpaceOnUse" gradientTransform="matrix(-190.687,170.03,-170.03,-190.687,404.973,424.127)"><stop offset="0" style="stop-color:#86c1e6;stop-opacity:1"/><stop offset="0.56" style="stop-color:#daecf7;stop-opacity:1"/><stop offset="1" style="stop-color:#fff;stop-opacity:1"/></linearGradient><linearGradient id="_Linear3" x1="0" y1="0" x2="1" y2="0" gradientUnits="userSpaceOnUse" gradientTransform="matrix(156.564,96.8578,-96.8578,156.564,677.742,436.476)"><stop offset="0" style="stop-color:#86c1e6;stop-opacity:1"/><stop offset="1" style="stop-color:#fff;stop-opacity:1"/></linearGradient><linearGradient id="_Linear4" x1="0" y1="0" x2="1" y2="0" gradientUnits="userSpaceOnUse" gradientTransform="matrix(153.324,457.202,-457.202,153.324,181.071,338.116)"><stop offset="0" style="stop-color:#fff;stop-opacity:0.4"/><stop offset="1" style="stop-color:#fff;stop-opacity:1"/></linearGradient></defs></svg>