<svg xmlns="http://www.w3.org/2000/svg" width="256" height="256" viewBox="0 0 256 256">
  <defs>
    <linearGradient id="run-tslint-stepicon-a" x1="52.222%" x2="50%" y1="50.706%" y2="49.294%">
      <stop offset="0%" stop-color="#652EC3"/>
      <stop offset="37.307%" stop-color="#760FC3"/>
      <stop offset="100%" stop-color="#990FC3"/>
    </linearGradient>
  </defs>
  <g fill="none">
    <rect width="256" height="256" fill="#007ACC"/>
    <path fill="#FFF" d="M38.081269,87.794483 L38.203174,77.351308 L82.942222,77.229403 C107.526349,77.188769 127.803174,77.270038 127.925079,77.432578 C128.087619,77.554483 128.209523,82.308769 128.209523,87.997657 L128.209523,98.278292 L111.549206,98.278292 L94.8888884,98.278292 L94.8888884,145.617975 L94.8888884,192.957657 L83.104761,192.957657 L71.320634,192.957657 L71.320634,145.617975 L71.320634,98.278292 L54.660317,98.278292 L38,98.278292 L38.081269,87.794483 Z M188.036752,77.053695 C194.53834,78.679092 199.4958,81.564172 204.046911,86.277822 C206.403737,88.797187 209.89834,93.388933 210.182784,94.486076 C210.264054,94.811156 199.130086,102.287981 192.384689,106.473378 C192.140879,106.635918 191.165641,105.57941 190.068498,103.954013 C186.77707,99.159092 183.323102,97.086711 178.040562,96.720997 C170.279292,96.192743 165.281197,100.256235 165.321832,107.042267 C165.321832,109.033378 165.606276,110.211791 166.418975,111.837187 C168.125641,115.372426 171.295165,117.485441 181.250721,121.792743 C199.57707,129.675918 207.41961,134.877187 212.2958,142.272743 C217.740879,150.521632 218.959927,163.687346 215.262149,173.480362 C211.198657,184.126711 201.121197,191.359727 186.93961,193.757187 C182.551038,194.529251 172.148498,194.407346 167.434848,193.554013 C157.154213,191.725441 147.401832,186.646076 141.387864,179.981949 C139.031038,177.381314 134.439292,170.595283 134.723737,170.107664 C134.845641,169.945124 135.902149,169.294965 137.080562,168.604172 C138.21834,167.954013 142.525641,165.475283 146.589133,163.118457 L153.944054,158.851791 L155.488181,161.127346 C157.641832,164.418775 162.355483,168.929251 165.199927,170.432743 C173.367546,174.740045 184.582784,174.130521 190.109133,169.17306 C192.465959,167.01941 193.441197,164.784489 193.441197,161.49306 C193.441197,158.526711 193.075483,157.226394 191.531356,154.991473 C189.540244,152.147029 185.476752,149.749568 173.936435,144.751473 C160.730086,139.062584 155.041197,135.527346 149.839927,129.919727 C146.832943,126.668933 143.988498,121.467664 142.810086,117.119727 C141.834848,113.503219 141.591038,104.441632 142.363102,100.784489 C145.085641,88.025124 154.716117,79.126076 168.61326,76.484806 C173.123737,75.631473 183.607546,75.956553 188.036752,77.053695 Z"/>
    <path fill="url(#run-tslint-stepicon-a)" d="M0,198 L0,178 C5.9594235,178 11.1020997,179.216649 15.7652943,181.58068 C19.1413019,183.292164 21.2618735,184.873097 25.3905398,188.361511 C30.8543047,192.977984 32.8702948,194 37.8731769,194 C42.8764585,194 44.8926305,192.977931 50.3566882,188.361389 C54.4854904,184.872994 56.6061291,183.292072 59.9822235,181.580609 C64.6455103,179.216623 69.7882749,178 75.7478123,178 C81.7073521,178 86.85012,179.216625 91.5134022,181.580613 C94.8895073,183.292084 97.0101994,184.873054 101.138927,188.361419 C106.602923,192.977954 108.619035,194 113.622083,194 C118.625365,194 120.641537,192.977931 126.105594,188.361389 C130.234397,184.872994 132.355035,183.292072 135.73113,181.580609 C140.394416,179.216623 145.537181,178 151.496718,178 C157.456261,178 162.599032,179.216626 167.26231,181.580616 C170.638425,183.292096 172.759171,184.873114 176.887824,188.36145 C182.351759,192.977977 184.367811,194 189.370625,194 C194.374305,194 196.390707,192.977849 201.854846,188.361327 C205.983821,184.872854 208.104563,183.291894 211.480648,181.580478 C216.14388,179.216578 221.286564,178 227.245989,178 C233.205759,178 238.348707,179.216574 243.012169,181.580476 C246.388459,183.291912 248.509338,184.872908 252.638263,188.361205 C258.102784,192.977872 260.119199,194 265.122812,194 C270.126893,194 272.143453,192.977811 277.60799,188.361174 C281.737083,184.87277 283.857874,183.291845 287.234093,181.580439 C291.897491,179.216562 297.040348,178 303,178 L303,198 C297.996153,198 295.979678,199.022152 290.515232,203.63871 C286.386096,207.127152 284.26527,208.7081 280.888991,210.419527 C276.225524,212.783427 271.08258,214 265.122812,214 C259.163273,214 254.020501,212.783448 249.357176,210.419592 C245.981005,208.708198 243.860196,207.127249 239.731359,203.639026 C234.266653,199.022204 232.250069,198 227.245989,198 C222.242776,198 220.226542,199.022076 214.762588,203.638442 C210.633525,207.126989 208.512713,208.707996 205.13651,210.419454 C200.47314,212.7834 195.330281,214 189.370625,214 C183.411313,214 178.268717,212.783396 173.605578,210.419451 C170.22958,208.708014 168.108905,207.127043 163.98034,203.638781 C158.51622,199.022098 156.5,198 151.496718,198 C146.493437,198 144.477265,199.022069 139.013207,203.638611 C134.884405,207.127006 132.763766,208.707928 129.387672,210.419391 C124.724385,212.783377 119.58162,214 113.622083,214 C107.662659,214 102.519978,212.783386 97.8567651,210.419421 C94.4807191,208.707971 92.3600624,207.127024 88.2313785,203.638696 C82.7672898,199.022084 80.7510935,198 75.7478123,198 C70.7445306,198 68.7283587,199.022069 63.264301,203.638611 C59.1354988,207.127006 57.0148601,208.707928 53.6387656,210.419391 C48.9754788,212.783377 43.8327143,214 37.8731769,214 C31.9137534,214 26.7710771,212.783351 22.1078826,210.41932 C18.731875,208.707836 16.6113034,207.126903 12.4826371,203.638489 C7.01887221,199.022016 5.00288214,198 0,198 Z" style="mix-blend-mode:multiply"/>
    <path fill="url(#run-tslint-stepicon-a)" d="M0,232 L0,212 C5.9594235,212 11.1020997,213.216649 15.7652943,215.58068 C19.1413019,217.292164 21.2618735,218.873097 25.3905398,222.361511 C30.8543047,226.977984 32.8702948,228 37.8731769,228 C42.8764585,228 44.8926305,226.977931 50.3566882,222.361389 C54.4854904,218.872994 56.6061291,217.292072 59.9822235,215.580609 C64.6455103,213.216623 69.7882749,212 75.7478123,212 C81.7073521,212 86.85012,213.216625 91.5134022,215.580613 C94.8895073,217.292084 97.0101994,218.873054 101.138927,222.361419 C106.602923,226.977954 108.619035,228 113.622083,228 C118.625365,228 120.641537,226.977931 126.105594,222.361389 C130.234397,218.872994 132.355035,217.292072 135.73113,215.580609 C140.394416,213.216623 145.537181,212 151.496718,212 C157.456261,212 162.599032,213.216626 167.26231,215.580616 C170.638425,217.292096 172.759171,218.873114 176.887824,222.36145 C182.351759,226.977977 184.367811,228 189.370625,228 C194.374305,228 196.390707,226.977849 201.854846,222.361327 C205.983821,218.872854 208.104563,217.291894 211.480648,215.580478 C216.14388,213.216578 221.286564,212 227.245989,212 C233.205759,212 238.348707,213.216574 243.012169,215.580476 C246.388459,217.291912 248.509338,218.872908 252.638263,222.361205 C258.102784,226.977872 260.119199,228 265.122812,228 C270.126893,228 272.143453,226.977811 277.60799,222.361174 C281.737083,218.87277 283.857874,217.291845 287.234093,215.580439 C291.897491,213.216562 297.040348,212 303,212 L303,232 C297.996153,232 295.979678,233.022152 290.515232,237.63871 C286.386096,241.127152 284.26527,242.7081 280.888991,244.419527 C276.225524,246.783427 271.08258,248 265.122812,248 C259.163273,248 254.020501,246.783448 249.357176,244.419592 C245.981005,242.708198 243.860196,241.127249 239.731359,237.639026 C234.266653,233.022204 232.250069,232 227.245989,232 C222.242776,232 220.226542,233.022076 214.762588,237.638442 C210.633525,241.126989 208.512713,242.707996 205.13651,244.419454 C200.47314,246.7834 195.330281,248 189.370625,248 C183.411313,248 178.268717,246.783396 173.605578,244.419451 C170.22958,242.708014 168.108905,241.127043 163.98034,237.638781 C158.51622,233.022098 156.5,232 151.496718,232 C146.493437,232 144.477265,233.022069 139.013207,237.638611 C134.884405,241.127006 132.763766,242.707928 129.387672,244.419391 C124.724385,246.783377 119.58162,248 113.622083,248 C107.662659,248 102.519978,246.783386 97.8567651,244.419421 C94.4807191,242.707971 92.3600624,241.127024 88.2313785,237.638696 C82.7672898,233.022084 80.7510935,232 75.7478123,232 C70.7445306,232 68.7283587,233.022069 63.264301,237.638611 C59.1354988,241.127006 57.0148601,242.707928 53.6387656,244.419391 C48.9754788,246.783377 43.8327143,248 37.8731769,248 C31.9137534,248 26.7710771,246.783351 22.1078826,244.41932 C18.731875,242.707836 16.6113034,241.126903 12.4826371,237.638489 C7.01887221,233.022016 5.00288214,232 0,232 Z" style="mix-blend-mode:multiply"/>
  </g>
</svg>
