<svg width="256" height="256" viewBox="0 0 256 256" fill="none" xmlns="http://www.w3.org/2000/svg">
<rect width="256" height="256" fill="#041D9E"/>
<path fill-rule="evenodd" clip-rule="evenodd" d="M158 151.267C155.791 151.267 154 153.058 154 155.267V214.917C154 217.126 155.791 218.917 158 218.917H194.522C196.731 218.917 198.522 217.126 198.522 214.917V155.267C198.522 153.058 196.731 151.267 194.522 151.267H158ZM176.839 189.429C181.15 189.429 184.645 185.934 184.645 181.623C184.645 177.312 181.15 173.817 176.839 173.817C172.528 173.817 169.033 177.312 169.033 181.623C169.033 185.934 172.528 189.429 176.839 189.429ZM163.829 204.751C163.829 197.566 169.654 191.742 176.839 191.742C184.024 191.742 189.848 197.566 189.848 204.751V209.088H163.829V204.751ZM172.768 155.315C171.663 155.315 170.768 156.21 170.768 157.315V157.94C170.768 159.045 171.663 159.94 172.768 159.94H179.754C180.858 159.94 181.754 159.045 181.754 157.94V157.315C181.754 156.21 180.858 155.315 179.754 155.315H172.768Z" fill="white"/>
<path fill-rule="evenodd" clip-rule="evenodd" d="M134.775 57.775L198.675 121.675C202.275 125.375 202.275 131.275 198.575 134.975L187.55 146H153C150.791 146 149 147.791 149 150V184.55L134.975 198.575C131.275 202.275 125.375 202.275 121.675 198.575L57.775 134.675C54.075 131.075 54.075 125.075 57.775 121.375L101.575 77.575L118.175 94.175C116.475 98.275 117.275 103.175 120.575 106.475C121.675 107.475 122.975 108.375 124.275 108.875V149.075C122.875 149.575 121.675 150.375 120.575 151.475C116.175 155.875 116.175 162.975 120.575 167.375C124.975 171.775 132.075 171.775 136.475 167.375C140.875 162.975 140.875 155.875 136.475 151.475C135.575 150.575 134.575 149.875 133.475 149.375V109.575L148.675 124.775C146.975 128.875 147.775 133.675 151.075 136.975C155.475 141.375 162.575 141.375 166.975 136.975C171.375 132.575 171.375 125.475 166.975 121.075C163.875 117.875 159.275 116.975 155.375 118.375L139.175 102.175C140.475 98.275 139.575 93.675 136.475 90.575C133.375 87.475 128.875 86.575 124.975 87.875L108.175 71.075L121.475 57.775C125.075 54.075 131.075 54.075 134.775 57.775Z" fill="white"/>
</svg>
