<?xml version="1.0" encoding="UTF-8" standalone="no"?>
<!DOCTYPE svg PUBLIC "-//W3C//DTD SVG 1.1//EN" "http://www.w3.org/Graphics/SVG/1.1/DTD/svg11.dtd">
<svg width="100%" height="100%" viewBox="0 0 256 256" version="1.1" xmlns="http://www.w3.org/2000/svg" xmlns:xlink="http://www.w3.org/1999/xlink" xml:space="preserve" style="fill-rule:evenodd;clip-rule:evenodd;stroke-linejoin:round;stroke-miterlimit:1.41421;">
    <g transform="matrix(0.426667,0,0,0.426667,0,0)">
        <rect x="0" y="0" width="600" height="600" style="fill:rgb(207,216,220);"/>
    </g>
    <g transform="matrix(0.208749,0,0,0.208749,8,29.8924)">
        <g transform="matrix(1,0,0,1,-590.632,-161.616)">
            <path d="M1372.77,721.142C1369.5,698.251 1365.58,674.952 1355.88,653.848C1352.87,647.309 1349.75,640.037 1345.2,634.386C1335.91,622.833 1322.59,614.313 1310.27,606.361C1300.59,600.106 1290.89,593.016 1279.27,590.974C1276.52,590.492 1273.22,589.247 1270.44,589.966C1266.32,591.03 1263.57,596.064 1260.95,599.08C1253.81,607.325 1247.74,616.104 1240.97,624.635C1228.54,640.3 1214.77,656.712 1206.45,675.145C1201.13,686.942 1199.12,700.44 1197.06,713.051C1194.18,730.619 1191.82,747.139 1194.45,765.049C1197.53,786.07 1207,801.591 1220.94,817.348C1224.6,821.484 1228.22,826.854 1232.74,830.085C1240.08,835.343 1251.34,839.205 1260.13,841.246C1269.43,843.402 1281.62,844.355 1291.13,842.774C1295.25,842.091 1299.03,840.159 1303.14,839.428C1314.13,837.47 1322.8,834.462 1333.14,830.266C1338.53,828.078 1343.42,826.649 1347.89,822.745C1357.16,814.657 1361.18,805.508 1365,794.142C1367.5,786.722 1370.49,779.741 1371.91,771.972C1373.46,763.547 1373.95,729.416 1372.77,721.142ZM1349.23,653.13C1346.58,647.82 1340.47,633.624 1338.24,639.124C1335.67,645.456 1337.76,674.501 1333.84,691.122C1329.23,710.63 1321.7,730.17 1313.47,748.397C1310.29,755.427 1307.91,762.751 1304.64,769.821C1303.11,773.127 1300.89,775.281 1299.17,778.104C1296.78,782.012 1293.47,788.361 1290.31,793.269C1285.32,801.013 1281.31,809.954 1277.04,818.092C1275.21,821.579 1269.6,827.637 1270.88,831.81C1271.85,835.003 1276.48,835.007 1279.14,835.079C1287.05,835.294 1293.48,833.372 1301.14,832.029C1313.5,829.859 1323.67,826.719 1335.14,821.503C1338.67,819.902 1342.74,818.939 1345.68,816.289C1354.25,808.57 1358.47,794.744 1361.63,784.048C1364.75,773.468 1364.54,763.969 1365.27,753.138C1365.87,744.24 1366.15,724.807 1366.11,724.139C1365.59,716.49 1363.1,709.563 1361.67,702.137C1360.15,694.194 1359.51,686.039 1357.72,678.135C1355.74,669.336 1352.48,659.632 1349.23,653.13ZM1212.22,680.059C1211.48,677.543 1208.98,689.67 1207.96,694.967C1206.92,700.292 1205.47,705.699 1204.32,711.054C1198.79,736.828 1196.86,768.195 1210.27,792.055C1213.88,798.489 1219.7,803.63 1224.41,809.235C1233.29,819.794 1256.37,830.79 1260.14,831.084C1263.91,831.377 1251.59,817.72 1247.01,810.997C1244.05,806.653 1242.36,801.581 1239.69,797.073C1236.58,791.795 1232.69,786.636 1230.12,781.068C1226.07,772.293 1223.94,762.327 1221.47,753.063C1217.73,739.062 1213.81,724.535 1212.38,710.059C1211.4,700.222 1212.96,682.574 1212.22,680.059ZM1335.14,634.386C1336.83,632.988 1328.53,628.093 1325,625.882C1310.37,616.724 1294.76,599.77 1276.26,599.222C1262.9,598.825 1256.91,613.98 1249.63,622.882C1243.53,630.329 1238.41,638.388 1232.57,645.976C1228,651.911 1221.6,658.822 1219.71,666.348C1218.99,669.218 1219.99,672.156 1219.85,675.063C1219.13,689.427 1222.31,712.397 1222.2,717.064C1222.09,721.73 1226.2,748.027 1228.52,756.067C1230.59,763.299 1231.9,770.977 1234.89,777.9C1236.97,782.708 1241.3,786.584 1243.91,791.114C1246.87,796.234 1248.52,802.039 1251.75,807.04C1255.62,813.042 1262.58,821.245 1265.14,824.086C1265.59,824.581 1266.77,824.638 1267.14,824.087C1269.11,821.207 1273.73,812.586 1276.92,806.806C1279.9,801.406 1281.85,795.423 1285,790.151C1288.8,783.795 1293.98,778.315 1297.46,771.679C1304.83,757.592 1309.31,742.96 1314.64,728.073C1320.64,711.329 1327.29,687.279 1329.22,678.12C1329.62,676.218 1332.29,663.511 1332.19,657.121C1332.07,649.237 1334.88,634.603 1335.14,634.386Z" style="fill:rgb(96,125,139);"/>
        </g>
        <g transform="matrix(0.00021786,1,-1,0.00021786,1333.98,-161.117)">
            <path d="M1034,966C1040.11,969.138 1037,950.636 1032,956C1031.52,946.533 1028.29,937.299 1026.62,928C1024.05,913.771 1022.53,899.327 1020.57,885C1019.75,878.952 1017.82,873.038 1017.17,867C1013.59,833.545 1009.85,800.365 1005.21,767C1003.51,754.772 1005.34,742.264 1003.87,730.089C1003.53,727.29 1002.18,724.747 1001.63,721.985C999.806,712.847 1003.37,702.434 1002.96,693C1002.27,677.195 1002.99,661.775 1003,646C1003,637.712 1002.04,629.215 1002.26,621C1002.73,603.299 1004.03,585.651 1002.91,568C1002.39,559.709 1002.66,551.272 1001.9,543C1001.52,538.924 999.888,535.115 999.583,531C998.37,514.63 998.305,498.208 995.586,482C994.088,473.066 991.644,457.681 982.931,452.614C975.983,448.573 967.656,450.296 960,449.961C939.641,449.069 919.41,451.077 899,451.077C892.919,451.077 886.469,451.062 881.019,454.055C879.104,455.107 875.923,457.031 876.752,459.719C877.495,462.134 881.053,461.885 883.001,461.728C889.799,461.178 896.034,459.082 903,458.996C922.65,458.755 942.278,456 962,456C971.641,456 981.84,456 985.657,467C992.746,487.429 991.633,510.746 993.089,532C993.844,543.002 996.049,553.944 996.296,565C996.651,580.981 995.611,596.895 995.258,613C994.838,632.217 996.318,651.787 995.946,671C995.868,675.031 994.936,678.941 995.015,683C995.101,687.369 996.189,691.611 995.91,696C995.532,701.927 993.904,708.059 994.209,714C994.523,720.102 994.259,726.888 995.143,732.911C995.567,735.797 997.449,738.109 997.857,741.015C998.916,748.572 997.277,756.415 998.129,764C999.739,778.346 1003.12,792.556 1004.84,807C1005.8,814.996 1005.23,823.061 1006.18,831C1009.73,860.596 1014.13,890.362 1018.43,920C1021.51,941.294 1025.4,962.812 1029.29,983.985C1030.98,993.209 1033.83,1002.51 1034.51,1012C1035.3,1023.13 1033.29,1033.94 1033.01,1045C1032.37,1071.12 1034.66,1097.37 1010,1113.58C1005.53,1116.52 1000.94,1118.93 995.83,1120.59C985.751,1123.88 975.467,1123.02 965,1123L965,1130C989.869,1131.95 1019.26,1124.91 1034.03,1102.68C1037.51,1097.43 1037.59,1090.98 1038.17,1085C1038.96,1076.89 1039.81,1069.17 1040.01,1061C1040.38,1045.96 1042.62,1031.07 1041.96,1016C1041.52,1005.84 1039.01,996.01 1037.44,986C1036.37,979.212 1036.38,972.525 1034,966Z" style="fill:rgb(96,125,139);fill-rule:nonzero;"/>
        </g>
        <g transform="matrix(-0.000522194,1,-1,-0.000522194,1334.94,-161.185)">
            <path d="M788,319C786.485,318.233 784.844,317.127 783.054,317.733C780.09,318.736 779.49,322.969 781.739,324.991C789.16,331.658 801.438,333.485 808,341C793.293,341.303 777.688,345.77 763.039,343.867C759.863,343.455 757.143,341.624 754,341C753.475,343.816 750.677,351.084 752.157,353.544C754.197,356.937 760.672,358.562 764,360.346C772.16,364.721 780.746,368.14 788.911,372.566C794.448,375.567 797.403,379.157 804,378C804.212,382.619 805.969,386.523 806.83,391C809.208,403.357 811.94,415.672 814.487,428C818.069,445.337 822.178,462.614 825.629,480C828.025,492.072 829.621,504.11 832.857,516.001C834.414,521.722 837.04,528.207 837.812,534.004C838.525,539.362 837.501,544.696 838.862,550C839.713,553.318 841.435,561.04 846.682,557.928C850.209,555.837 848.312,550.077 847.522,547C844.767,536.282 842.126,525.962 840.41,515C838.746,504.373 835.156,494.324 832.823,483.996C830.667,474.458 829.727,464.539 827.702,455C824.946,442.017 820.954,429.052 818.12,416C815.872,405.65 813.917,395.34 811.754,385C811.042,381.597 811.736,375.237 809.934,372.438C807.761,369.062 801.388,370.589 798,369.312C794.49,367.988 791.516,365.544 788,364.185C779.851,361.037 769.611,358.144 764,351C778.496,351 792.604,348.001 807,348C811.384,348 820.955,349.44 824.396,346.222C826.468,344.284 825.985,340.944 823.682,339.498C817.721,335.756 811.279,332.934 805,329.737C801.128,327.766 798.307,325.023 794,324C796.049,319.773 794.233,317.317 793.325,313C792.01,306.749 792.007,300.31 791.13,294C787.495,267.837 783.46,241.985 779.246,216C777.889,207.628 777.418,199.326 775.685,191.001C775.213,188.734 773.669,183.477 770.274,185.176C767.284,186.672 768.015,191.419 768.594,194C770.357,201.854 771.471,209.997 772.576,218C773.325,223.418 774.992,228.601 775.711,234C777.472,247.237 777.897,260.851 780.375,274C783.129,288.615 787.693,304.112 788,319Z" style="fill:rgb(96,125,139);"/>
        </g>
        <g transform="matrix(-0.000522194,1,-1,-0.000522194,1334.94,-161.185)">
            <path d="M877,354C871.414,354.116 866.452,356.575 861,356.856C858.679,356.976 854.782,355.536 853.032,357.643C849.833,361.493 854.369,367.987 857.043,370.575C866.151,379.388 878.6,392.525 882,405L869,408.008L850,409C851.251,423.346 853.81,437.742 855.791,452C857.437,463.845 857.016,476.087 858.17,488C859.564,502.4 863.414,518.659 860,533C863.148,537.226 857.132,546.996 865.05,547.808C867.366,548.046 870.031,547.294 870.593,544.772C871.32,541.506 869.807,537.28 869.44,534C868.845,528.693 868.747,523.354 868.174,518C867.641,513.023 868.304,507.983 867.83,503C866.089,484.702 863.795,466.362 862.961,448C862.554,439.062 858.865,429.005 861.318,420.059C863.208,413.164 878.266,413.388 883.996,413.035C887.596,412.813 891.98,412.391 892.589,407.921C893.427,401.76 885.457,394.559 881.513,390.83C878.275,387.769 875.894,383.597 873.205,380.054C868.62,374.012 864.89,370.561 863,363C872.58,362.509 881.25,360.582 891,361C890.973,357.935 891.253,354.033 888.991,351.603C887.486,349.986 885.185,350.09 883.321,349.147C881.202,348.076 879.726,346.095 877.816,344.724C873.768,341.818 868.413,339.968 866.564,334.83C865.573,332.075 866.104,328.871 865.83,326C865.034,317.639 865,309.41 865,301C865,279.028 864.364,256.918 864.958,235C865.076,230.634 864.054,226.365 864.004,222C863.954,217.656 864.937,213.333 864.852,209.044C864.804,206.634 863.758,204.467 861.05,204.376C856.596,204.228 857.003,209.986 857.002,213C856.997,223.299 857.983,233.64 858,244C858.036,266.259 859,288.661 859,311L859,331C859,334.083 858.462,337.916 859.742,340.811C862.192,346.351 872.575,349.699 877,354Z" style="fill:rgb(96,125,139);"/>
        </g>
        <g transform="matrix(-0.000522194,1,-1,-0.000522194,1334.94,-161.185)">
            <path d="M691,687C692.24,694.499 699.223,692.455 705,692L705,690C697.299,689.999 693.102,689.668 693,681C691.106,681.465 688.904,684.551 688,683C686.969,681.231 682.901,672.296 686.813,670.387C693.647,667.054 713.673,660.154 729,663C727.442,658.568 723.196,658.683 719,659.514C711.016,661.096 702.938,662.292 695,664.12C691.458,664.936 687.113,665.701 684.603,668.613C679.955,674.007 684.657,685.632 691,687Z" style="fill:rgb(96,125,139);"/>
        </g>
        <g transform="matrix(1,0,0,1,-590.632,-161.616)">
            <path d="M1165.76,942.766C1168.92,942.006 1171.45,939.441 1173.67,936.854C1180.16,929.295 1188.48,920.626 1191.76,911.048C1196.52,897.172 1203.86,880.458 1192.33,867.312C1188.32,862.735 1181.73,862.571 1176.12,861.769C1168.67,860.703 1161.56,862.07 1154.12,862.862C1144.3,863.909 1132.38,864.17 1122.97,867.312C1117.7,869.07 1113.66,869.131 1109.26,873.138C1104.86,877.154 1103.11,886.353 1103.11,892.002C1103.1,911.52 1118.93,928.498 1136.12,935.876C1140.63,937.809 1144.5,941.129 1149.08,942.766C1154.71,944.776 1161.66,943.751 1165.76,942.766ZM1186.12,871.045C1177.81,867.994 1155.35,868.314 1140.21,870.744C1132.52,871.978 1122.28,872.465 1117.12,876.009C1112.21,879.373 1108.93,885.092 1109.22,892.005C1109.63,901.728 1117.15,914.289 1124.47,920.349C1128.79,923.923 1134.18,926.018 1138.92,928.966C1144.62,932.51 1151.73,937.951 1158.91,936.714C1166.27,935.448 1180,917.866 1181.8,915.297C1186.39,908.753 1190.31,897.023 1190.07,889.047C1189.87,882.556 1191.89,873.162 1186.12,871.045Z" style="fill:rgb(96,125,139);"/>
        </g>
        <g transform="matrix(1,0,0,1,-590.632,-161.616)">
            <path d="M958.49,1035.36C957.538,1035.4 957.422,1035.23 958.838,1034.71C958.724,1034.93 958.608,1035.15 958.49,1035.36Z" style="fill:rgb(96,125,139);"/>
        </g>
        <g transform="matrix(1,0,0,1,-590.632,-161.616)">
            <path d="M1049.13,845.973C1053.35,843.431 1054.84,843.579 1058.19,839.971C1062.56,835.259 1070.85,824.324 1075.36,817.701C1079.56,811.54 1082.52,803.836 1085.29,796.992C1088.34,789.456 1089.64,781.71 1092.06,773.996C1095.35,763.507 1099.09,752.856 1100.93,742C1102.09,735.113 1100.92,724.052 1100.93,717.15C1100.94,704.852 1101.85,698.185 1099.64,686C1098.32,678.736 1097.56,670.938 1094.96,663.997C1090.74,652.704 1085.1,644.462 1077.84,634.988C1072.81,628.423 1068.13,620.873 1062.2,615.084C1055.26,608.307 1044.97,602.345 1036.25,598.196C1031.06,595.727 1025.34,588.959 1019.25,589.28C1015.57,589.474 1012.39,592.078 1009.28,593.786C999.413,599.201 991.251,609.016 984.622,617.851C981.284,622.298 976.792,625.314 973.354,629.553C970,633.687 967.551,638.647 964.288,642.914C959.5,649.177 953.398,654.626 948.774,661.102C943.784,668.09 941.149,676.145 937.668,683.826C934.75,690.268 930.738,696.896 929.416,703.911C925.577,724.271 925.056,744.621 929.924,764.911C932.005,773.586 935.923,781.598 939.008,789.916C946.482,810.068 955.414,827.925 971.173,843.018C979.9,851.375 990.406,860.297 1002.12,863.812C1004.93,864.654 1008.13,866.397 1011.12,866.123C1016.94,865.588 1022.72,861.102 1028.29,859.404C1034.78,857.426 1043.49,849.377 1049.13,845.973ZM1045.14,835.971C1043.81,834.471 1039.66,832.855 1037.14,830.967C1033.72,828.399 1028.4,824.84 1024.6,820.561C1016.37,811.3 1009.69,801.256 1003.85,790.236C992.158,768.22 980.207,745.789 972.662,721.933C971.514,718.305 971.549,714.606 970.749,710.932C966.969,693.583 961.984,667.261 959.23,658.926C958.667,657.222 955.154,659.385 954.229,660.924C951.727,665.089 947.38,676.514 944.217,683.919C938.615,697.034 934.729,710.678 933.366,724.913C929.839,761.74 945.789,798.426 967.37,827.101C975.742,838.222 991.501,854.285 1006.13,855.78C1017.12,856.905 1029.41,853.663 1038.16,846.825C1040.93,844.659 1043.97,841.78 1045.14,839.971C1045.86,838.85 1046.02,836.968 1045.14,835.971ZM1091.22,673.995C1091.05,673.351 1089.24,673.328 1089.22,673.994C1089.12,678.328 1090.93,691.323 1090.62,699.995C1089.47,731.302 1081.77,762.157 1072.5,791.947C1069.5,801.571 1064.81,811.214 1060.72,820.403C1058.81,824.704 1054.59,832.713 1055.14,832.977C1055.68,833.24 1061.49,826.156 1063.99,821.985C1068.96,813.7 1073.88,805.806 1077.71,796.987C1081.43,788.44 1083.05,780.001 1085.89,771.279C1089.55,760.065 1093.76,748.099 1094.92,736.209C1094.99,735.471 1095.05,734.734 1095.1,733.997C1095.41,729.281 1095.22,721.824 1095.1,717.15C1094.92,710.15 1095.29,701.253 1094,691.997C1093.16,685.907 1092.02,676.996 1091.22,673.995ZM1076.24,649.988C1075.65,649.177 1066.59,638.816 1062.69,633.98C1056.77,626.621 1051.54,618.523 1044.15,612.539C1040.94,609.943 1036.75,608.504 1033.26,606.3C1028.54,603.323 1022.29,596.516 1016.26,597.571C1008.99,598.843 1004.23,605.286 999.476,610.191C996.224,613.548 992.153,616.226 989.121,619.781C985.146,624.443 981.79,629.7 977.756,634.36C974.314,638.338 969.909,642.845 967.464,647.521C964.153,653.855 966.952,665.312 968.479,671.931C970.629,681.249 971.253,690.665 974.012,699.845C976.003,706.469 985.499,742.188 994.177,760.945C1002.65,779.256 1022.92,808.336 1026.08,812.385C1031.91,819.862 1043.63,832.881 1050.14,829.974C1056.65,827.067 1060.74,806.669 1065.13,794.943C1073.51,772.556 1078.62,748.689 1081.48,724.99C1082.52,716.343 1084.82,707.717 1085.08,698.992C1085.44,687.073 1085.24,673.573 1081.93,662.03C1080.57,657.314 1077.68,651.995 1076.24,649.988ZM1057.2,724.978C1056.53,725.144 1054.02,735.143 1054.19,736.976C1054.31,738.345 1057.86,737.311 1058.19,735.978C1058.69,733.978 1057.86,724.811 1057.2,724.978ZM1050.22,682.974C1049.52,681.793 1046.01,682.614 1046.22,683.972C1046.71,687.139 1050.99,695.59 1053.15,701.975C1055.56,709.077 1056.87,724.477 1057.2,723.978C1057.53,723.478 1057.72,705.498 1055.14,698.977C1052.86,693.222 1051.7,685.475 1050.22,682.974ZM1070.21,689.984C1069.88,689.984 1069.04,698.317 1069.21,699.984C1069.28,700.647 1071.14,700.648 1071.21,699.985C1071.38,698.318 1070.55,689.985 1070.21,689.984Z" style="fill:rgb(96,125,139);"/>
        </g>
        <g transform="matrix(-0.000522194,1,-1,-0.000522194,1334.94,-161.185)">
            <path d="M957,1053C953.127,1057.21 946.903,1059.12 942,1062.09C932.318,1067.95 922.493,1074.7 912,1079.03C908.591,1080.44 893.58,1082.27 900.743,1089.38C903.098,1091.72 907.108,1089.96 910,1090.25C914.561,1090.71 921.357,1092.31 925.576,1094.11C931.432,1096.6 936.548,1100.2 943,1101C940.66,1105.26 933.469,1105.87 932.333,1110.15C931.342,1113.87 933.277,1118.45 934.27,1122C937.56,1133.75 944.455,1143.44 950.276,1154C959.248,1170.27 965.447,1187.93 972.71,1205C978.441,1218.47 986.319,1230.96 991,1245C999.469,1243.65 995.779,1236.41 992.996,1231C985.754,1216.94 980.164,1201.96 972.678,1187.99C969.229,1181.55 967.132,1174.6 964.12,1168C958.561,1155.82 952.49,1143.86 948.464,1131.09C946.853,1125.97 941.527,1122.5 940.996,1117.02C940.383,1110.69 950.729,1107.5 954.981,1104.66C957.285,1103.12 959.619,1100.19 957.928,1097.32C955.88,1093.84 950.246,1095.91 947,1095.18C936.354,1092.76 925.955,1087.47 915,1087C919.322,1081.69 925.169,1079.41 931,1076.16C938.75,1071.84 946.361,1067.23 954.17,1063.04C958.454,1060.74 965.416,1060.53 967.917,1055.68C970.676,1050.32 962.625,1047.3 959,1046.01C950.614,1043.03 942.297,1040.37 934.286,1036.44C927.674,1033.2 920.26,1028.16 913,1027C912.642,1019.16 908.781,1012.45 907.245,1004.91C903.618,987.112 900.392,968.943 897.59,951C896.874,946.421 896.572,938.827 893.486,935.228C891.755,933.21 888.114,931.267 885.618,933.194C883.246,935.026 884.726,940.35 885.48,942.714C888.226,951.321 890.494,960.95 891.936,970C893.073,977.142 895.297,983.919 896.78,991C898.522,999.317 899.038,1007.8 901.293,1016C902.533,1020.51 902.221,1026.6 905.148,1030.37C908.335,1034.47 913.332,1034.02 917.576,1036.25C926.058,1040.7 935.167,1042.93 943.985,1046.62C948.531,1048.53 952.189,1051.79 957,1053Z" style="fill:rgb(96,125,139);fill-rule:nonzero;"/>
        </g>
        <g transform="matrix(-0.000522194,1,-1,-0.000522194,1334.94,-161.185)">
            <path d="M811,1215C814.303,1214.58 817.651,1213.74 820.961,1214.56C825.575,1215.7 829.404,1219.06 834,1220.36C840.515,1222.22 847.398,1222.64 853.911,1224.84C864.872,1228.54 875.405,1234.52 887,1236C882.845,1240.97 871.933,1242.02 869.693,1248.26C868.726,1250.95 870.225,1254.26 870.391,1257C870.651,1261.28 870.25,1265.68 870.406,1270C870.94,1284.81 871.259,1301.24 869.83,1316C869.364,1320.82 867.06,1326.09 867.322,1330.89C867.459,1333.41 869.415,1335.04 871.961,1334.29C878.148,1332.46 875.764,1321.75 876.089,1317C877.298,1299.35 877.376,1281.69 878.018,1264C878.252,1257.56 879.799,1250.46 885.005,1246.3C888.661,1243.39 897.701,1241.97 897.704,1236.02C897.706,1230.78 885.033,1227.31 881,1226.09C873.436,1223.81 852.641,1217.42 849.7,1216.46C841.389,1213.75 832.518,1211.97 824,1210L824,1207C828.531,1205.8 832.732,1203.82 837.17,1202.49C842.136,1201 849.873,1200.62 852.972,1195.66C854.937,1192.51 853.866,1187.55 854.286,1184C855.506,1173.66 856.863,1163.37 858.128,1153.04C859.163,1144.59 862.51,1119.34 863.259,1115.09C866.77,1095.15 869.27,1075.05 872.41,1055C874.758,1040 875.601,1024.5 880.041,1010C880.944,1007.05 884.141,998.299 879.682,996.778C876.041,995.536 872.688,998.696 872.148,1002.02C871.509,1005.95 872.341,1010.04 871.791,1014C870.631,1022.34 868.604,1030.52 868.025,1039C867.517,1046.42 865.617,1053.66 864.438,1061C861.607,1078.63 858.673,1096.3 856.289,1114C853.9,1131.73 851.201,1149.31 848.439,1167C847.412,1173.58 847.499,1180.54 845.697,1187C843.19,1195.98 827.695,1199.28 820,1201.93C812.888,1204.38 808.189,1207.03 811,1215Z" style="fill:rgb(96,125,139);fill-rule:nonzero;"/>
        </g>
        <g transform="matrix(1,0,0,1,-590.632,-161.616)">
            <path d="M1406.44,259.16C1405.86,253.721 1404.5,243.555 1405.59,235.198C1406.13,230.999 1406.71,227.818 1407.46,224.16C1409.35,214.85 1423.52,192.506 1416.93,179.335C1407.9,161.274 1386.03,156.423 1369.5,167.551C1361.34,173.047 1354.66,184.41 1353.9,194.302C1353.51,199.475 1355.49,204.295 1356.83,209.133C1357.77,212.512 1357.82,215.321 1360.01,218.248C1363.89,223.432 1370.78,224.754 1374.96,229.418C1379.94,234.987 1379.46,244.216 1379.44,251.146C1379.44,253.725 1379.7,256.617 1378.42,258.961C1374.44,266.184 1363.91,272.858 1357.51,277.829C1351.16,282.752 1345.4,288.417 1339.34,293.674C1334,298.304 1327.74,302.352 1322.88,307.49C1312.25,318.76 1302.44,331.103 1292.19,342.79C1287.84,347.748 1282.45,352.243 1278.46,357.357C1274.92,361.892 1272.7,367.117 1269.63,371.918C1260.02,386.99 1251.34,402.161 1242.8,417.789C1234.43,433.108 1226.23,447.824 1219.79,464.066C1218.41,467.562 1218.96,474.393 1215.33,474.06C1204.57,473.075 1175.79,460.759 1155.25,458.157C1142.37,456.526 1129.27,457.426 1116.34,458.048C1108.99,458.402 1101.77,460.683 1094.33,460.957C1090.6,461.095 1067.95,467.394 1062.67,464.782C1060.13,463.524 1059.43,460.384 1058.08,458.148C1056.02,454.76 1053.37,451.545 1051.15,448.233C1043.31,436.543 1033.4,424.38 1023.25,414.679C1018.15,409.804 1012.12,406.111 1006.79,401.513C982.703,380.736 956.247,362.468 928.393,346.928C920.625,342.592 912.077,340.266 904.399,336.127C897.591,332.456 891.773,327.429 885.236,323.348C879.337,319.667 872.899,317.181 866.7,314.118C861.162,311.386 854.342,311.329 850.414,306.87C846.267,302.161 844.611,292.836 841.815,285.865C839.498,280.079 834.134,277.947 834.431,273.861C834.729,269.776 841.425,266.029 843.598,261.352C845.3,257.692 845.843,251.888 846.275,247.867C847.099,240.22 846.513,232.96 843.566,225.866C841.549,221.015 838.462,214.622 834.754,210.839C831.016,207.02 824.597,206.061 819.467,205.864C808.717,205.451 801.017,206.513 792.752,214.334C790.611,216.37 789.49,219.331 787.929,221.798C776.809,239.274 775.308,260.913 793.721,273.932C798.679,277.444 805.923,277.028 809.428,279.848C812.603,282.402 812.894,287.04 814.752,290.851C817.3,296.094 819.137,302.277 820.844,307.854C823.04,314.97 818.294,318.65 816.405,323.852C813.379,332.184 808.063,346.588 802.688,357.845C800.395,362.641 789.264,383.985 786.071,389.926C781.126,399.109 777.571,409.147 773.796,418.83C771.813,423.913 751.088,491.601 748.571,504.986C746.726,514.79 740.841,582.354 742.518,607.015C743.878,627.068 746.476,647.88 749.666,667.817C750.961,675.904 756.769,700.567 757.986,704.821C764.524,727.634 774.012,751.023 786.792,771.006C792.097,779.304 802.658,784.04 806.161,791.847C809.663,799.653 807.706,809.847 807.807,817.847C807.9,825.188 807.1,832.535 806.766,839.847C806.634,842.813 809.251,849.487 813.232,846.227C817.694,842.577 815.318,836.417 814.88,831.851C814.144,824.03 813.298,796.883 812.841,790.85C812.136,781.806 809.295,752.911 809.408,747.202C809.583,738.241 808.144,728.881 809.408,719.848C810.603,711.309 814.447,703.923 817.121,695.852C820.997,684.127 824.143,672.231 829.069,660.858C832.834,652.18 836.562,643.501 841.242,635.865C845.807,628.418 867.841,600.183 873.235,592.636C880.02,583.135 885.565,572.94 893.23,564.048C898.933,557.432 909.302,548.083 913.29,543.902C914.734,542.389 918.435,540.235 920.096,538.963C923.853,536.083 929.897,530.747 935.835,526.625C949.519,517.125 985.676,498.111 990.139,499.962C993.397,501.311 995.977,505.087 998.334,507.585C1003.33,512.884 1008.27,519.725 1013.3,524.955C1018.08,529.922 1044.64,558.239 1052.72,567.9C1066.83,584.773 1082.8,599.945 1096.56,617.127C1100.82,622.449 1104.28,628.607 1108.48,634.084C1111.9,638.535 1124.81,657.007 1128.13,661.726C1132.57,668.05 1137.75,674.733 1142.71,680.598C1146.25,684.77 1149.71,693.455 1152.21,693.027C1154.72,692.599 1159.99,684.769 1157.75,678.03C1153.36,664.773 1142.44,653.638 1138.95,640.02C1136.19,629.261 1133.83,617.394 1129.47,607.015C1126.5,599.959 1090.64,526.057 1077.61,495.003C1074.6,487.832 1067.68,478.073 1067.33,473.983C1067.07,471.028 1072.67,471.242 1075.5,470.461C1078.92,469.517 1082.79,469.815 1086.31,469.26C1098.08,467.404 1109.34,466.51 1121.33,465.972C1125.07,465.804 1139.66,465.484 1143.33,465.852C1149.68,466.49 1156.01,466.325 1162.33,467.496C1170.44,469 1179.49,470.383 1187.33,472.933C1195.16,475.48 1210.38,472.666 1211.32,481.058C1212.39,490.626 1198.63,513.763 1193.74,530.338C1184.32,562.294 1176.91,594.757 1169,627.036C1166.56,636.965 1165.6,647 1163.9,657.033C1163.34,660.405 1161.63,663.591 1161.46,667.032C1161.27,671.268 1165.03,676.034 1167.22,675.035C1169.41,674.036 1172.56,665.917 1174.61,661.039C1178.86,650.958 1181.98,640.757 1187.55,631.135C1191.83,623.752 1205.4,603.456 1207.34,600.042C1210.77,593.983 1224.9,573.442 1227.44,568.807C1233.75,557.28 1238.45,544.45 1245.34,533.335C1251.27,523.771 1256.79,505.442 1264.31,504.086C1271.84,502.73 1281.71,517.955 1290.5,525.199C1307.76,539.424 1325.99,555.329 1339.81,573.14C1350.27,586.624 1359.12,601.671 1368.88,615.68C1375.65,625.402 1383.71,634.336 1390.13,644.321C1400.42,660.343 1410.16,677.833 1418.84,694.742C1421.27,699.477 1424.92,703.422 1427.25,708.135C1429.48,712.632 1430.36,717.629 1432.81,722.004C1443.58,741.202 1457.12,759.158 1461.81,781.189C1463.28,788.124 1464.22,795.162 1465.1,802.19C1465.44,804.902 1464.81,808.871 1468.26,809.7C1476.1,811.583 1474.07,800.951 1472.83,797.195C1470.1,788.956 1466.41,776.918 1467.05,768.192C1467.63,760.244 1471.66,752.091 1474.5,744.772C1480.1,730.339 1486.77,716.155 1490.81,701.204C1492.75,694.028 1497.28,688.112 1499.76,681.224C1508.39,657.326 1517.8,633.054 1522.97,608.221C1526.98,588.96 1529.03,569.809 1530.38,550.225C1530.79,544.19 1530.09,526.568 1529.56,524.135C1528,516.961 1524.81,500.19 1522.43,488.221C1519.74,474.734 1517.28,458.007 1513.42,443.216C1510.56,432.262 1505.51,422.229 1501.41,411.786C1495.28,396.148 1488.39,380.549 1480.05,365.913C1475.27,357.522 1457.96,323.031 1453.4,316.184C1449.43,310.23 1429.93,289.423 1425.14,283.594C1420.46,277.905 1414.19,273.155 1409.06,267.832C1406.51,265.191 1406.76,262.162 1406.44,259.16ZM960.378,376.645C954.231,373.329 943.193,364.506 942.384,363.918C939.504,361.824 930.767,357.443 925.099,354.354C915.062,348.876 904.244,344.76 894.397,338.939C889.859,336.258 863.807,320.837 855.409,316.891C851.57,315.089 847.271,311.969 842.851,313.699C835.879,316.423 834.372,319.448 829.069,323.852C822.807,329.041 821.103,340.691 817.393,346.852C813.495,353.327 808.936,361.589 805.692,367.561C799.266,379.4 793.36,391.637 787.294,403.667C781.878,414.413 758.612,483.799 757.579,488.991C751.613,518.826 747.927,550.326 747.321,580.816C747.044,595.053 749.196,609.615 750.159,623.817C750.972,635.834 756.674,670.43 757.921,675.821C759.438,682.378 762.859,700.395 763.667,702.824C767.501,714.442 770.795,726.684 776.089,737.831C779.655,745.349 784.782,752.313 788.518,759.837C792.084,767.04 802.018,783.2 804.166,781.845C808.945,778.834 801.445,746.57 802.234,728.844C802.699,718.376 808.157,706.347 807.209,698.847C806.44,692.76 800.034,690.021 796.547,683.842C789.853,671.973 786.78,659.126 783.737,645.835C782.69,641.256 774.698,586.638 775.27,563.83C775.525,553.565 774.471,543.054 775.466,532.83C779.186,494.56 789.766,456.232 806.914,421.847C809.527,416.61 811.26,410.883 814.542,405.98C816.274,403.4 828.065,386.264 831.878,379.863C834.821,374.927 841.423,365.955 847.424,364.61C852.105,363.562 859.332,368.897 863.671,370.591C872.719,374.127 879.916,380.787 887.582,386.664C897.578,394.324 907.905,401.674 917.16,410.203C927.557,419.778 938.313,429.545 947.542,440.256C955.326,449.289 962.334,459.348 970.656,467.931C984.133,481.832 996.727,496.551 1010.18,510.537C1021.45,522.251 1033.39,533.022 1044.16,545.271C1054.8,557.373 1087.64,594.672 1092.26,599.996C1096.34,604.69 1099.82,609.762 1103.33,615.002C1105.22,617.821 1122.48,641.597 1128.89,651.015C1132.27,655.977 1141.56,668.188 1142.23,667.022C1142.89,665.856 1135.43,651.978 1132.89,644.017C1128.52,630.296 1125.51,615.661 1119.54,602.474C1113.64,589.45 1105.32,577.196 1099.91,564C1081.99,520.253 1063.94,474.053 1033.35,437.544C1029.14,432.526 1025.33,426.495 1020.65,421.977C1018,419.424 1014.73,417.688 1011.97,415.265C995.932,401.144 979.239,386.82 960.378,376.645ZM1294.39,351.101C1290.62,355.751 1285.6,360.646 1281.87,365.785C1271.41,380.208 1261.79,396.299 1253.34,412.065C1249.7,418.871 1245.23,425.24 1241.66,432.099C1227.65,459.017 1202.84,528.88 1200.83,535.014C1195.85,550.242 1190.57,564.288 1187.47,580.046C1185.88,588.089 1183.67,596.168 1181.48,604.042C1179.16,612.347 1175.92,628.163 1177.25,630.04C1178.57,631.917 1186.02,620.615 1189.42,615.305C1191.18,612.555 1193.71,610.39 1195.48,607.621C1200.32,600.04 1217.69,572.143 1221.41,565.777C1224.91,559.787 1227.03,553.108 1230.65,547.107C1245.39,522.664 1261.09,499.224 1277.17,475.641C1283.53,466.316 1290.29,457.458 1297.24,448.648C1300.2,444.884 1302.67,441.639 1305.35,438.107C1308.98,433.317 1314.61,425.35 1319.03,419.909C1331.99,403.94 1346.5,389.363 1359.43,373.599C1364.25,367.719 1369.9,358.662 1376.39,353.144C1382.82,347.672 1390.59,338.719 1398.34,340.493C1401.52,341.22 1402.18,344.09 1403.6,346.579C1405.86,350.526 1408.96,353.738 1411.18,357.741C1414.62,363.944 1419.69,369.147 1423.4,375.165C1429.37,384.823 1433.79,394.725 1437.97,405.176C1443.75,419.652 1447.38,434.284 1451.86,449.184C1453.21,453.674 1459.61,478.24 1461.61,486.019C1469.57,517.083 1474.99,547.918 1477.18,580.197C1477.61,586.549 1476.98,621.692 1476.79,633.197C1476.41,656.757 1469.19,681.556 1459.85,703.173C1456.69,710.482 1447.19,714.666 1446.79,722.004C1446.38,729.342 1452.7,739.271 1457.42,747.202C1459.39,750.508 1461.52,756.524 1463.18,756.19C1464.84,755.855 1465.72,749.029 1467.4,745.193C1471.02,736.938 1474.49,728.592 1477.57,720.158C1479.47,714.953 1480.18,709.332 1482.18,704.2C1491.81,679.468 1502.05,655.159 1510.78,630.125C1512.77,624.42 1513.44,618.085 1514.92,612.217C1521.97,584.294 1524.82,555.081 1522.92,526.221C1522.07,513.28 1518.16,500.943 1515.93,488.217C1512.62,469.215 1508.95,448.386 1501.92,430.3C1498.74,422.103 1494.66,414.151 1491.12,406.118C1488.98,401.272 1478.21,378.682 1474.93,372.211C1465.02,352.661 1455.8,331.75 1442.18,314.373C1436.35,306.926 1429.12,299.732 1422.58,292.913C1415.62,285.665 1407.36,279.01 1401.16,271.068C1398.39,267.531 1394.69,260.823 1389.44,260.693C1384.22,260.562 1378.09,268.53 1374.34,271.628C1360.61,282.984 1347.31,294.891 1334.01,306.722C1323.52,316.049 1313.35,326.948 1304.52,337.887C1300.91,342.358 1297.89,346.792 1294.39,351.101ZM1394.39,348.154C1388,349.747 1376.42,364.203 1367.97,372.719C1364.56,376.167 1362.1,380.464 1358.78,384.007C1351.27,392.015 1342.97,399.446 1335.64,407.641C1327.68,416.533 1320.53,426.538 1312.92,435.789C1310.65,438.554 1298.87,454.018 1295.29,459.102C1286.53,471.536 1272.13,487.838 1269.63,495.003C1268.35,498.688 1275.43,501.638 1278.46,504.086C1284.27,508.762 1296.7,520.3 1304.13,526.146C1310.13,530.871 1315.22,537.565 1320.56,543.061C1328.13,550.845 1335.93,558.401 1343.19,566.513C1356.31,581.186 1365.87,599.669 1376.89,615.845C1381.9,623.205 1388.61,629.633 1393.4,637.149C1409.83,662.889 1430.06,706.171 1440.2,716.178C1445.8,721.707 1450.82,704.273 1454.23,697.186C1460.25,684.692 1462.73,671.634 1465.85,658.206C1466.64,654.78 1468.99,635.488 1469.82,629.193C1472.43,609.391 1470.32,587.941 1468.45,568.192C1466.81,550.855 1466.12,533.242 1462.64,516.189C1458.59,496.352 1451.66,477.592 1446.79,458.012C1444.84,450.176 1443.28,441.899 1440.79,434.178C1439.47,430.072 1437.23,426.401 1436.06,422.175C1430.41,401.617 1419.73,379.998 1406.36,363.16C1402.65,358.486 1400.6,346.608 1394.39,348.154ZM982.319,489.938C982.154,486.115 971.516,478.917 966.497,472.944C950.031,453.35 934.372,433.305 914.897,416.736C904.691,408.044 893.475,400.39 883.18,391.773C879.182,388.432 873.774,382.478 868.634,380.978C861.833,378.994 854.815,373.769 849.315,373.599C847.983,373.558 839.164,378.788 838.376,379.863C834.815,384.724 827.005,400.017 821.011,409.028C819.209,411.733 818.498,414.956 817.066,417.852C812.161,427.808 807.386,437.57 803.131,447.845C792.147,474.341 785.016,515.351 782.626,532.834C781.732,539.375 781.75,578.583 782.626,592.636C783.341,604.102 784.803,616.707 787.507,627.837C791.458,644.094 793.87,660.396 800.501,675.844C803.058,681.806 806.724,695.894 811.213,691.849C815.702,687.804 821.028,664.202 827.434,651.572C830.718,645.087 833.281,638.397 837.494,632.328C839.826,628.967 871.151,580.83 887.001,562.149C891.173,557.23 895.696,552.812 900.268,548.284C910.173,538.464 920.248,528.801 931.267,520.086C942.705,511.042 953.928,505.311 966.497,498.088C971.498,495.215 982.483,493.762 982.319,489.938ZM829.412,310.859C831.496,309.511 839.588,299.183 836.383,289.772C835.335,286.72 834.697,282.048 831.878,280.039C826.98,276.549 818.718,280.554 820.155,286.768C821.023,290.544 822.971,294.008 823.879,297.856C825.026,302.669 827.328,312.206 829.412,310.859ZM837.813,232.863C836.336,227.642 833.05,219.891 828.701,216.421C825.673,214.001 820.627,213.704 816.463,213.867C809.445,214.141 803.828,216.371 798.048,221.613C789.285,229.561 784.794,244.149 787.831,254.798C792.543,271.325 814.439,278.924 828.264,268.36C837.678,261.165 840.977,244.023 837.813,232.863ZM1397.45,233.155C1395.79,230.321 1387.83,231.482 1386.45,234.149C1385.07,236.817 1386.22,246.538 1389.19,249.163C1391.01,250.776 1395.29,253.383 1396.44,251.155C1397.82,248.487 1399.12,235.989 1397.45,233.155ZM1411.59,191.587C1410.74,183.359 1405.43,175.239 1396.2,171.481C1373.98,162.434 1355.37,189.513 1363.02,209.133C1365.46,215.364 1370.53,220.626 1377.46,221.665C1380.1,222.06 1382.79,221.377 1385.46,221.613C1390.39,222.049 1396.73,223.306 1401.33,220.843C1410.11,216.144 1412.45,199.814 1411.59,191.587Z" style="fill:rgb(96,125,139);"/>
        </g>
    </g>
</svg>
