<svg id="Layer_1" data-name="Layer 1" xmlns="http://www.w3.org/2000/svg" viewBox="0 0 256 256"><defs><style>.cls-1{fill:#fff;}.cls-2{fill:#cb3837;}</style></defs><title>npm</title><rect class="cls-1" y="0.27" width="256" height="256"/><path class="cls-2" d="M30.64,90.14H225.36V155H128v10.82H84.73V155H30.64V90.14Zm10.82,54.09H63.09V111.77H73.91v32.45H84.73V101H41.46v43.27ZM95.55,101V155h21.64V144.23h21.64V101H95.55Zm21.64,10.82H128v21.64H117.18V111.77ZM149.64,101v43.27h21.64V111.77h10.82v32.45h10.82V111.77h10.82v32.45h10.82V101H149.64Z"/><polygon class="cls-1" points="41.46 144.23 63.09 144.23 63.09 111.77 73.91 111.77 73.91 144.23 84.73 144.23 84.73 100.96 41.46 100.96 41.46 144.23"/><path class="cls-1" d="M95.55,101V155h21.64V144.23h21.64V101H95.55ZM128,133.41H117.18V111.77H128v21.64Z"/><polygon class="cls-1" points="149.63 100.96 149.63 144.23 171.27 144.23 171.27 111.77 182.09 111.77 182.09 144.23 192.91 144.23 192.91 111.77 203.72 111.77 203.72 144.23 214.54 144.23 214.54 100.96 149.63 100.96"/></svg>