<svg id="Layer_1" data-name="Layer 1" xmlns="http://www.w3.org/2000/svg" viewBox="0 0 256 256"><defs><style>.cls-1{fill:#f2f2f2;}.cls-2{fill:#7a3f66;}.cls-3{fill:#c07b9e;}</style></defs><title>Artboard 106</title><rect class="cls-1" width="256" height="256"/><path class="cls-2" d="M200.71,117.08c-11.64.52-23.27,1.12-34.91,1.53-13.41.48-26.81,1.66-40.23,1.28-19.23-.54-38.45-1.47-57.68-2.23-4.68-.19-9.35-.42-14-.55-2.14-.06-3-.78-3-3.17.13-12.8.1-25.6,0-38.4a3.65,3.65,0,0,1,2.35-3.83q36.2-18,72.33-36.12c.82-.41,1.6-1,2.63-.76q0,34.92.06,69.85c0,.94,0,1.87,0,2.8.11,1.43.74,2.28,2.36,2.25,7.7-.16,15.29,1.14,22.92,1.86q23.67,2.23,47.34,4.52c.26,0,.9-.34.77.33C201.66,116.71,201.06,116.87,200.71,117.08Z"/><path class="cls-3" d="M169.45,172.91c-.91,1.21-.49,2.61-.5,3.91q-.1,11.05-.06,22.1c0,1.33-.13,2.34-1.53,3q-19.28,9.45-38.51,19a2.14,2.14,0,0,1-.61.1c0-.52-.07-1-.07-1.56q0-34.82,0-69.65c0-2.09-.31-3.21-2.74-3.38-5.59-.39-11.17-1-16.72-1.68-2.87-.36-3.72.51-3.7,3.46.13,15.93,0,31.85,0,47.78-5.14,1.55-10.27,3.13-15.42,4.64-1.09.32-2.31,1.25-3.39-.12A2.07,2.07,0,0,0,87,198.6q0-26.86,0-53.71c0-2-.91-2.47-2.65-2.56a64.52,64.52,0,0,1-9-.79c-2.6-.5-2.85.47-2.84,2.67.07,13.74,0,27.48,0,41.22-2.92-.08-5.63,1-8.43,1.54-1.1.21-2.23.24-3.35.35,0-14.54-.1-29.08,0-43.61,0-2.85-.52-4.34-3.67-3.95a2.72,2.72,0,0,1-2.62-.57c5-1.06,10-.85,15-1.06,7.32-.31,14.65-.83,22-.94,6.87-.11,13.72-.78,20.62-.63,3.71.08,7.43-.24,11.17,0,1.85.11,3.67-.4,5.16,1.24.31.34,1.19.29,1.79.23q11.31-1.06,22.67-1.17c4.16,0,8.33.17,12.48,0,2.24-.07,3.93,0,3.61,2.93,0,.32.4.68.61,1Z"/><path class="cls-3" d="M200.71,117.08c.35-.21.95-.37,1-.63.13-.67-.5-.31-.77-.33q-23.67-2.28-47.34-4.52c-7.63-.72-15.22-2-22.92-1.86-1.62,0-2.25-.82-2.36-2.25-.07-.93,0-1.87,0-2.8q0-34.93-.06-69.85c2.74.41,5,2,7.39,3.17,22.55,11.17,45,22.5,67.6,33.6,2.5,1.23,2,2.81,2,4.73-.05,12.28,0,24.55,0,36.83C205.17,117.47,205.15,117.48,200.71,117.08Z"/><path class="cls-2" d="M105.08,196c0-15.93.1-31.85,0-47.78,0-3,.83-3.82,3.7-3.46,5.56.7,11.14,1.29,16.72,1.68,2.43.17,2.74,1.29,2.74,3.38q-.1,34.82,0,69.65c0,.52,0,1,.07,1.56-1,.52-1.78-.26-2.57-.65-6.13-3-12.2-6.14-18.36-9.09a3.5,3.5,0,0,1-2.31-3.81C105.16,203.69,105.07,199.86,105.08,196Z"/><path class="cls-3" d="M171.38,140.56c2.53-1.1,5.28-.73,7.9-1a166.9,166.9,0,0,1,23-.82c2.34,0,3,.73,2.95,3-.11,12-.42,24.11.12,36.14.2,4.35-1.41,5.9-4.8,7.4-5,2.22-9.88,4.86-14.83,7.26-.78.38-1.46,1.27-2.53.74,0-8.32,0-16.65.12-25s-.52-16.63.38-24.93c.16-1.45-.73-1.54-1.85-1.85C178.39,140.59,174.78,141.76,171.38,140.56Z"/><path class="cls-2" d="M72.56,185.43c0-13.74.06-27.48,0-41.22,0-2.2.24-3.18,2.84-2.67a64.52,64.52,0,0,0,9,.79c1.74.09,2.66.59,2.65,2.56Q87,171.75,87,198.6a2.07,2.07,0,0,1-.73,1.95c-3.68-1.83-7.29-3.84-11.06-5.44-2.32-1-3-2.4-2.76-4.75C72.63,188.74,72.53,187.08,72.56,185.43Z"/><path class="cls-2" d="M171.38,140.56c3.4,1.2,7,0,10.45,1,1.13.31,2,.4,1.85,1.85-.9,8.3-.24,16.62-.38,24.93s-.09,16.65-.12,25c-3.89-1-7.77-2-11.68-2.93-1.64-.38-2.07-1.33-2.05-2.89.06-4.85,0-9.7,0-14.54l.16-32.06Z"/><path class="cls-2" d="M54.51,139.19a2.72,2.72,0,0,0,2.62.57c3.15-.39,3.69,1.1,3.67,3.95-.13,14.54,0,29.08,0,43.61-3.32-.63-6-2.72-9-4-1.38-.6-1.09-1.85-1.09-3,0-12.65.16-25.31.06-38C50.71,139.37,51.68,138.39,54.51,139.19Z"/></svg>