<svg id="Layer_1" data-name="Layer 1" xmlns="http://www.w3.org/2000/svg" viewBox="0 0 256 256"><defs><style>.cls-1{fill:#0e70e8;}.cls-2{fill:#fff;}.cls-3{fill:blue;}</style></defs><title>Artboard 108</title><rect class="cls-1" width="256" height="256"/><path class="cls-2" d="M175.8,198.31h-12v-5h12a18.46,18.46,0,0,0,2.47-.17l.67,5A23.57,23.57,0,0,1,175.8,198.31Zm-24,0h-12v-5h12Zm-24,0h-12v-5h12Zm-24,0h-12v-5h12Zm-24.21-.08a23.05,23.05,0,0,1-12.33-4.87l3.09-3.93A18.07,18.07,0,0,0,80,193.25ZM191,192.62l-3.29-3.77a18.12,18.12,0,0,0,5.57-8.78l4.81,1.35A23.12,23.12,0,0,1,191,192.62ZM59.61,182.52a23.17,23.17,0,0,1-1.2-7.38v-5.3h5v5.3a18.15,18.15,0,0,0,.94,5.79ZM199,168.81h-5v-12h5Zm-135.56-11h-5v-12h5Zm135.56-13h-5v-12h5Zm-135.56-11h-5v-12h5Zm135.56-13h-5v-12h5Zm-135.56-11h-5v-12h5ZM199,96.81h-5v-12h5Zm-135.56-11h-5V80.92a23.09,23.09,0,0,1,1.34-7.78l4.71,1.68a18.12,18.12,0,0,0-1,6.1ZM192.6,74A18.18,18.18,0,0,0,186,65.91l2.82-4.13a23.16,23.16,0,0,1,8.36,10.29Zm-122-7.54-3-4A23,23,0,0,1,80,57.8l.33,5A18.06,18.06,0,0,0,70.61,66.43Zm105.53-3.68h-12v-5h12Zm-24,0h-12v-5h12Zm-24,0h-12v-5h12Zm-24,0h-12v-5h12Z"/><path class="cls-2" d="M190.62,192.62l-7.71-7.71,3.54-3.54,7.71,7.71Zm-16.2-16.2-8.49-8.49,3.54-3.54,8.49,8.49Zm-17-17L149,151l3.54-3.54,8.49,8.49Zm-17-17L132,134l3.54-3.54,8.49,8.49Zm-17-17L115,117l3.54-3.54L127,122Zm-17-17-8.49-8.48,3.54-3.54,8.49,8.48Zm-17-17-8.49-8.49,3.54-3.54L93.1,88Zm-17-17-8.49-8.49,3.54-3.54,8.49,8.49Z"/><path class="cls-2" d="M67.65,192.62l-3.54-3.54,7.71-7.71,3.54,3.54Zm16.2-16.2-3.54-3.54,8.49-8.49,3.54,3.54Zm17-17-3.54-3.54,8.49-8.49L109.3,151Zm17-17-3.54-3.54,8.49-8.49,3.54,3.54Zm17-17L131.22,122l8.49-8.49,3.54,3.54Zm17-17L148.19,105l8.49-8.48,3.54,3.54Zm17-17L165.16,88l8.49-8.49,3.54,3.54Zm17-17-3.54-3.54,8.49-8.49,3.54,3.54Z"/><circle class="cls-3" cx="128.69" cy="128.03" r="21.1"/><path class="cls-2" d="M128.69,151.63a23.6,23.6,0,1,1,23.6-23.6A23.62,23.62,0,0,1,128.69,151.63Zm0-42.2a18.6,18.6,0,1,0,18.6,18.6A18.62,18.62,0,0,0,128.69,109.43Z"/><path class="cls-2" d="M128.69,180.39A52.36,52.36,0,1,1,181.05,128,52.42,52.42,0,0,1,128.69,180.39Zm0-99.71A47.36,47.36,0,1,0,176.05,128,47.41,47.41,0,0,0,128.69,80.68Z"/></svg>