<?xml version="1.0" encoding="utf-8"?>
<!-- Generator: Adobe Illustrator 19.1.0, SVG Export Plug-In . SVG Version: 6.00 Build 0)  -->
<svg version="1.1" id="Layer_1" xmlns="http://www.w3.org/2000/svg" xmlns:xlink="http://www.w3.org/1999/xlink" x="0px" y="0px"
	 viewBox="-511 273 256 256" enable-background="new -511 273 256 256" xml:space="preserve">
<rect x="-511" y="273" fill="#3CC1A7" width="256" height="256"/>
<g>
	<g>
		<path fill="#FFFFFF" d="M-366.8,467.9c-0.8,0-1.7-0.2-2.4-0.5c-2.2-1-3.5-3.1-3.4-5.5c0.1-2.2,0.4-4.5,0.8-6.6
			c1.2-7.3,2.3-14.2-6.7-23.3c-2.4,1.1-4.6,2-6.6,2.8c-7,2.6-16-3-21.5-8.6c-5.6-5.6-11.2-14.6-8.6-21.5c0.7-1.7,1.4-3.5,2.2-5.3
			l0.5-1.4c-9.2-9.1-16.1-8-23.5-6.8c-2.1,0.3-4.3,0.7-6.5,0.8c-2.5,0.1-4.6-1.3-5.5-3.5c-1-2.2-0.5-4.8,1.3-6.6
			c12.9-12.9,24.5-19.3,34.3-19c9.2,0.3,14.5,6.4,17,9.3c0.1,0.1,0.2,0.2,0.3,0.3c1.6-1.7,3.1-3.4,4.8-5.1
			c10.6-10.6,59.7-44.3,77.7-44.3c0,0,0.1,0,0.1,0c2.6,0,4.6,0.7,5.9,2.1c11.2,11.3-30,72.8-41.6,84.4c-1.9,1.9-3.5,3.4-5.1,4.8
			c0.1,0.1,0.2,0.2,0.4,0.3c2.9,2.5,9,7.8,9.3,17c0.3,9.8-6,21.3-19,34.2C-363.7,467.3-365.2,467.9-366.8,467.9z M-378.2,428.7
			c0.4,0,0.8,0.2,1.1,0.4l0.6,0.6c10.2,10.2,8.9,18.6,7.7,26c-0.3,2.2-0.7,4.2-0.7,6.3c-0.1,1.2,0.5,2.2,1.6,2.6
			c0.9,0.4,2.3,0.5,3.3-0.6c12.3-12.3,18.4-23.1,18.1-32c-0.3-7.9-5.5-12.4-8.2-14.9c-1-0.9-1.6-1.4-1.9-1.9
			c-0.3-0.6-0.2-1.4,0.3-1.9c1.9-1.6,3.8-3.4,6.1-5.7c13.7-13.7,49.9-71.8,41.6-80.2c-0.8-0.8-2-1.2-3.8-1.2c0,0-0.1,0-0.1,0
			c-17,0-65.5,33.3-75.6,43.4c-2,2-3.9,4.1-5.7,6.1c-0.5,0.5-1.3,0.7-1.9,0.3c-0.5-0.3-1-0.9-1.8-1.8c-2.4-2.8-6.9-8-14.9-8.3
			c-9-0.3-19.8,5.8-32.1,18.1c-1.1,1.1-1,2.4-0.6,3.3c0.5,1.1,1.5,1.7,2.7,1.7c2-0.1,4-0.4,6.1-0.8c7.4-1.2,15.9-2.6,26.2,7.7
			l0.6,0.6c0.4,0.4,0.5,1,0.3,1.6l-0.9,2.4c-0.8,1.9-1.5,3.6-2.2,5.2c-1.7,4.5,1.5,11.9,7.9,18.3c6.4,6.4,13.8,9.6,18.4,7.9
			c2.2-0.8,4.6-1.9,7.3-3.1C-378.6,428.7-378.4,428.7-378.2,428.7z"/>
	</g>
	<g>
		<path fill="#FFFFFF" d="M-319.4,363.6c-0.4,0-0.8-0.1-1.1-0.4l-24.7-24.8c-0.6-0.6-0.6-1.5,0-2.1c0.6-0.6,1.5-0.6,2.1,0l24.7,24.8
			c0.6,0.6,0.6,1.5,0,2.1C-318.6,363.5-319,363.6-319.4,363.6z"/>
	</g>
	<g>
		<circle fill="#FFFFFF" cx="-351.1" cy="370.7" r="8.8"/>
	</g>
	<g>
		<path fill="#FFFFFF" d="M-454.7,478.8c-1.8,0-3.5-0.7-4.8-2c-1.7-1.7-2.4-4.1-1.8-6.4c3-12.4,10.1-34.1,23.9-41.1
			c5.7-2.9,12-2.9,18.6,0c3.3,1.5,5.9,4.4,6.8,7.8c1.3,4.6,1.9,11.6-2.4,18.9c-5.8,9.9-18.7,17.6-38.6,22.7
			C-453.5,478.7-454.1,478.8-454.7,478.8z M-428.3,430.1c-2.7,0-5.2,0.6-7.7,1.8c-13.2,6.6-20,29.6-22.3,39.1c-0.3,1.3,0,2.6,1,3.6
			c1,1,2.4,1.4,3.7,1c19.1-4.9,31.4-12,36.8-21.3c3.7-6.4,3.2-12.6,2.1-16.6c0,0,0,0,0,0c-0.7-2.5-2.6-4.7-5.1-5.8
			C-422.8,430.7-425.6,430.1-428.3,430.1z"/>
	</g>
	<g>
		<path fill="#FFFFFF" d="M-441.3,461.8c-2.1,0.9-4.2-1.2-3.4-3.3c3.9-9.6,8.5-16.3,13.1-18.3c0.8-0.3,2.4-1.1,5.4-0.4
			c1.6,0.4,2.7,1.7,2.8,3.3c0.1,1.7-0.2,3.8-1.2,5.8C-426,452-430.1,457-441.3,461.8z"/>
	</g>
	<g>
		<g>
			<path fill="#FFFFFF" d="M-374.6,396.5c0,0-0.4,0.6-1.2,1.7c-0.8,1.1-1.9,2.5-3.3,4.3c-2.8,3.5-6.7,7.8-10.9,11.9
				c-2.1,2.1-4.2,4.1-6.3,5.9c-1,0.9-2,1.8-3,2.6c-0.9,0.8-1.9,1.6-2.7,2.3c-0.8,0.7-1.7,1.3-2.4,1.9c-0.7,0.6-1.3,1-1.9,1.4
				c-1,0.8-1.7,1.2-1.7,1.2c-0.7,0.5-1.6,0.3-2.1-0.4c-0.4-0.5-0.3-1.2,0-1.7c0,0,0.4-0.6,1.2-1.7c0.4-0.5,0.9-1.2,1.4-1.9
				c0.6-0.7,1.2-1.5,1.9-2.4c0.7-0.8,1.5-1.8,2.3-2.7c0.8-0.9,1.7-1.9,2.6-3c1.8-2,3.9-4.2,5.9-6.3c4.1-4.2,8.5-8.2,11.9-10.9
				c1.7-1.4,3.2-2.5,4.3-3.3c1.1-0.8,1.7-1.2,1.7-1.2c0.7-0.5,1.7-0.2,2.1,0.5C-374.3,395.4-374.3,396-374.6,396.5z"/>
		</g>
	</g>
</g>
</svg>
