<?xml version="1.0" encoding="UTF-8"?>
<svg width="256px" height="256px" viewBox="0 0 256 256" version="1.1" xmlns="http://www.w3.org/2000/svg" xmlns:xlink="http://www.w3.org/1999/xlink">
    <!-- Generator: Sketch 56.2 (81672) - https://sketch.com -->
    <title>go-lint-stepicon</title>
    <desc>Created with Sketch.</desc>
    <defs>
        <linearGradient x1="50%" y1="0%" x2="50%" y2="100%" id="linearGradient-1">
            <stop stop-color="#F7FEFF" offset="0%"></stop>
            <stop stop-color="#D9F6FA" offset="100%"></stop>
        </linearGradient>
        <linearGradient x1="50%" y1="97.3990416%" x2="50%" y2="14.9880106%" id="linearGradient-2">
            <stop stop-color="#45DBED" stop-opacity="0.428243886" offset="0%"></stop>
            <stop stop-color="#45DBED" offset="100%"></stop>
        </linearGradient>
    </defs>
    <g id="New-Icons" stroke="none" stroke-width="1" fill="none" fill-rule="evenodd">
        <g id="Go-Lint">
            <g id="go-lint-stepicon" transform="translate(-24.000000, 0.000000)">
                <rect id="Rectangle" fill="#FFFFFF" x="24" y="0" width="256" height="256"></rect>
                <rect id="Rectangle-2" fill="url(#linearGradient-1)" x="24" y="0" width="256" height="256"></rect>
                <g id="gopher" transform="translate(93.000000, 49.000000)">
                    <path d="M32.1428571,27.6190476 C31.3539683,27.6190476 30.7142857,26.9793651 30.7142857,26.1904762 C30.7142857,25.4015873 31.3539683,24.7619048 32.1428571,24.7619048 C32.931746,24.7619048 33.5714286,25.4015873 33.5714286,26.1904762 C33.5714286,26.9793651 32.931746,27.6190476 32.1428571,27.6190476 M30,20 C27.2383598,20 25,22.2386243 25,25 C25,27.7613757 27.2383598,30 30,30 C32.7613757,30 35,27.7613757 35,25 C35,22.2386243 32.7613757,20 30,20" id="Fill-1" fill="#45DBED"></path>
                    <path d="M70.1428571,25.6190476 C69.3539683,25.6190476 68.7142857,24.9793651 68.7142857,24.1904762 C68.7142857,23.4015873 69.3539683,22.7619048 70.1428571,22.7619048 C70.931746,22.7619048 71.571164,23.4015873 71.571164,24.1904762 C71.571164,24.9793651 70.931746,25.6190476 70.1428571,25.6190476 M67.9997354,18 C65.2386243,18 63,20.2386243 63,23 C63,25.7616402 65.2386243,28 67.9997354,28 C70.7613757,28 73,25.7616402 73,23 C73,20.2386243 70.7613757,18 67.9997354,18" id="Fill-3" fill="#45DBED"></path>
                    <path d="M98.272013,15.0045217 C98.8991565,14.1596783 99.9007834,13.6099159 101.032974,13.6099159 C102.933798,13.6099159 104.474616,15.1521987 104.474616,17.0542566 C104.474616,18.7218329 103.290527,20.1120712 101.717752,20.4298088 C100.73224,18.5220185 99.5872116,16.736519 98.272013,15.0045217 L98.272013,15.0045217 Z M76.1586476,36.9587135 C67.8768566,36.9587135 61.1631976,30.4691148 61.1631976,22.4639843 C61.1631976,14.4585809 67.8768566,7.96925516 76.1586476,7.96925516 C84.4404386,7.96925516 91.1543708,14.4585809 91.1543708,22.4639843 C91.1543708,30.4691148 84.4404386,36.9587135 76.1586476,36.9587135 L76.1586476,36.9587135 Z M67.0355665,49.4692207 C66.1437443,49.5625765 65.402972,49.5841412 64.7714581,49.5554793 C61.5783797,49.4099861 61.1888733,47.9687023 58.3768338,47.8687951 C58.2238719,47.8633357 58.0662666,47.860606 57.8982817,47.8633357 C54.9526737,47.9146541 54.5109964,49.2279148 51.9751076,49.6804998 C51.1780672,49.8227174 50.1764403,49.8808601 48.822728,49.7869582 C45.6561448,49.56749 44.5116625,45.4914957 46.8680942,42.7729834 C48.0693909,41.3876585 49.5340006,40.6318034 51.5525506,40.2452773 C52.6238297,41.6215941 55.0368027,42.5819041 57.8441988,42.5819041 C60.7635847,42.5819041 63.2565896,41.5437976 64.257397,40.0790383 C66.1429249,40.4156108 67.5545441,41.1127773 68.7438224,42.3913707 C71.1939433,45.0260812 70.1925896,49.1394724 67.0355665,49.4692207 L67.0355665,49.4692207 Z M59.1962722,59.9155256 L59.1962722,50.8714697 C62.0083117,50.9713769 62.3978181,52.4126607 65.5908965,52.5581539 C65.681581,54.1312824 65.7984876,56.3172295 65.9156673,58.9328321 C66.1614988,64.4195374 59.1962722,63.1911706 59.1962722,59.9155256 L59.1962722,59.9155256 Z M56.4648108,59.9155256 C56.4648108,63.1911706 49.4995841,64.4195374 49.7454157,58.9328321 C49.8595908,56.386291 49.9734927,54.246203 50.0630846,52.6831744 C52.5989734,52.2305894 53.0406507,50.9173287 55.9862587,50.8660103 C56.1542436,50.8632806 56.3118489,50.8660103 56.4648108,50.8714697 L56.4648108,59.9155256 Z M23.5507007,24.1836979 C23.5507007,16.1782945 30.2646328,9.68896879 38.5464239,9.68896879 C46.828488,9.68896879 53.542147,16.1782945 53.542147,24.1836979 C53.542147,32.1888284 46.828488,38.6784271 38.5464239,38.6784271 C30.2646328,38.6784271 23.5507007,32.1888284 23.5507007,24.1836979 L23.5507007,24.1836979 Z M64.7274816,36.4673667 C64.7274816,36.9712701 64.5597698,37.452517 64.257397,37.895275 C63.2565896,39.3600342 60.7635847,40.3981407 57.8441988,40.3981407 C55.0368027,40.3981407 52.6238297,39.4378308 51.5525506,38.061514 C51.1734237,37.5739888 50.960916,37.0351452 50.960916,36.4673667 C50.960916,34.296433 54.0428239,32.5365927 57.8441988,32.5365927 C61.6461199,32.5365927 64.7274816,34.296433 64.7274816,36.4673667 L64.7274816,36.4673667 Z M15.9913812,18.4103736 C15.1935213,19.8404656 14.4524758,21.350811 13.7753465,22.9520554 C11.9051149,22.9168422 10.3987139,21.3912106 10.3987139,19.5109903 C10.3987139,17.6089325 11.9398045,16.0666496 13.8406285,16.0666496 C14.9550647,16.0666496 15.9430343,16.5992149 16.5720899,17.4216748 C16.3737858,17.7459636 16.1787594,18.074347 15.9913812,18.4103736 L15.9913812,18.4103736 Z M116.555869,80.3066887 C114.507273,79.0619436 110.71382,78.0634178 107.264257,77.5150202 C106.790622,67.321486 107.281738,62.6883591 107.13342,51.0540869 C107.006953,41.1534499 106.260718,33.8132754 104.591795,27.8387718 C110.535728,26.0505426 113.172681,20.4985973 112.257095,15.3118864 C111.266941,9.69961463 106.932931,5.5125214 98.4520163,6.65189993 C95.5118712,7.04688812 93.7631896,7.91029355 92.7735811,9.09362031 C84.6346455,2.07063741 74.0406724,-0.402747537 58.7048823,0.0522941485 C45.4073087,0.447009372 31.2607968,2.7563391 22.0109759,10.9443597 C20.9784834,9.94610692 19.3008198,9.21672997 16.6674179,8.86296031 C8.18623019,7.72358178 3.85222035,11.910948 2.86206559,17.5229468 C1.90660038,22.9381339 4.82106972,28.7534957 11.3309617,30.2657518 C10.0288741,35.3894065 9.29219891,41.3300617 9.29247206,48.3519527 C9.2932915,60.6716536 11.7141858,66.7850991 11.5683257,78.6183667 C7.91417663,79.1307321 3.65855974,80.1893114 1.44389082,81.5350556 C-0.560182424,82.7530496 -0.297142689,86.339062 1.12868017,88.1130967 C2.63344227,89.9862197 4.39905893,89.8860396 6.53096457,88.9060758 C7.93029225,88.2626845 9.61587709,86.8290439 11.3566375,85.2231589 C10.9051269,99.7200718 11.0665563,114.120626 10.9474645,123.994785 C10.8379329,133.058495 14.9479629,141.111122 22.3772648,147.042496 C18.7944069,148.442562 15.893868,150.446437 14.2500745,153.366675 C11.5584925,158.149117 18.5930982,162.088353 22.2395992,158.771762 C25.2190773,156.061712 27.5708656,153.763301 32.689078,153.012632 C39.5485971,155.834328 47.8262909,157.430931 57.22962,157.430931 C70.9593108,157.430931 81.117889,154.795948 88.5551121,150.787923 C92.0180589,152.427384 93.7151159,154.759643 95.8046839,157.461777 C98.8193978,161.360614 106.309884,157.819914 104.120072,152.788251 C102.681684,149.482306 99.9633339,146.740318 96.5602061,145.09185 C102.121462,139.903228 105.074171,133.784869 106.395926,128.1958 C109.528912,114.950456 109.1181,105.244447 107.715495,84.9652018 C109.070026,86.1605393 110.359549,87.1675272 111.468523,87.6774359 C113.600974,88.6576727 115.366318,88.7578528 116.871353,86.8847298 C118.297176,85.1106951 118.560216,81.5241368 116.555869,80.3066887 L116.555869,80.3066887 Z" id="Fill-5" fill="url(#linearGradient-2)"></path>
                </g>
                <path d="M0,198 L0,178 C5.9594235,178 11.1020997,179.216649 15.7652943,181.58068 C19.1413019,183.292164 21.2618735,184.873097 25.3905398,188.361511 C30.8543047,192.977984 32.8702948,194 37.8731769,194 C42.8764585,194 44.8926305,192.977931 50.3566882,188.361389 C54.4854904,184.872994 56.6061291,183.292072 59.9822235,181.580609 C64.6455103,179.216623 69.7882749,178 75.7478123,178 C81.7073521,178 86.85012,179.216625 91.5134022,181.580613 C94.8895073,183.292084 97.0101994,184.873054 101.138927,188.361419 C106.602923,192.977954 108.619035,194 113.622083,194 C118.625365,194 120.641537,192.977931 126.105594,188.361389 C130.234397,184.872994 132.355035,183.292072 135.73113,181.580609 C140.394416,179.216623 145.537181,178 151.496718,178 C157.456261,178 162.599032,179.216626 167.26231,181.580616 C170.638425,183.292096 172.759171,184.873114 176.887824,188.36145 C182.351759,192.977977 184.367811,194 189.370625,194 C194.374305,194 196.390707,192.977849 201.854846,188.361327 C205.983821,184.872854 208.104563,183.291894 211.480648,181.580478 C216.14388,179.216578 221.286564,178 227.245989,178 C233.205759,178 238.348707,179.216574 243.012169,181.580476 C246.388459,183.291912 248.509338,184.872908 252.638263,188.361205 C258.102784,192.977872 260.119199,194 265.122812,194 C270.126893,194 272.143453,192.977811 277.60799,188.361174 C281.737083,184.87277 283.857874,183.291845 287.234093,181.580439 C291.897491,179.216562 297.040348,178 303,178 L303,198 C297.996153,198 295.979678,199.022152 290.515232,203.63871 C286.386096,207.127152 284.26527,208.7081 280.888991,210.419527 C276.225524,212.783427 271.08258,214 265.122812,214 C259.163273,214 254.020501,212.783448 249.357176,210.419592 C245.981005,208.708198 243.860196,207.127249 239.731359,203.639026 C234.266653,199.022204 232.250069,198 227.245989,198 C222.242776,198 220.226542,199.022076 214.762588,203.638442 C210.633525,207.126989 208.512713,208.707996 205.13651,210.419454 C200.47314,212.7834 195.330281,214 189.370625,214 C183.411313,214 178.268717,212.783396 173.605578,210.419451 C170.22958,208.708014 168.108905,207.127043 163.98034,203.638781 C158.51622,199.022098 156.5,198 151.496718,198 C146.493437,198 144.477265,199.022069 139.013207,203.638611 C134.884405,207.127006 132.763766,208.707928 129.387672,210.419391 C124.724385,212.783377 119.58162,214 113.622083,214 C107.662659,214 102.519978,212.783386 97.8567651,210.419421 C94.4807191,208.707971 92.3600624,207.127024 88.2313785,203.638696 C82.7672898,199.022084 80.7510935,198 75.7478123,198 C70.7445306,198 68.7283587,199.022069 63.264301,203.638611 C59.1354988,207.127006 57.0148601,208.707928 53.6387656,210.419391 C48.9754788,212.783377 43.8327143,214 37.8731769,214 C31.9137534,214 26.7710771,212.783351 22.1078826,210.41932 C18.731875,208.707836 16.6113034,207.126903 12.4826371,203.638489 C7.01887221,199.022016 5.00288214,198 0,198 Z" id="Page-1" fill="#0C5BD0" fill-rule="nonzero" style="mix-blend-mode: multiply;"></path>
                <path d="M1,232 L1,212 C6.9594235,212 12.1020997,213.216649 16.7652943,215.58068 C20.1413019,217.292164 22.2618735,218.873097 26.3905398,222.361511 C31.8543047,226.977984 33.8702948,228 38.8731769,228 C43.8764585,228 45.8926305,226.977931 51.3566882,222.361389 C55.4854904,218.872994 57.6061291,217.292072 60.9822235,215.580609 C65.6455103,213.216623 70.7882749,212 76.7478123,212 C82.7073521,212 87.85012,213.216625 92.5134022,215.580613 C95.8895073,217.292084 98.0101994,218.873054 102.138927,222.361419 C107.602923,226.977954 109.619035,228 114.622083,228 C119.625365,228 121.641537,226.977931 127.105594,222.361389 C131.234397,218.872994 133.355035,217.292072 136.73113,215.580609 C141.394416,213.216623 146.537181,212 152.496718,212 C158.456261,212 163.599032,213.216626 168.26231,215.580616 C171.638425,217.292096 173.759171,218.873114 177.887824,222.36145 C183.351759,226.977977 185.367811,228 190.370625,228 C195.374305,228 197.390707,226.977849 202.854846,222.361327 C206.983821,218.872854 209.104563,217.291894 212.480648,215.580478 C217.14388,213.216578 222.286564,212 228.245989,212 C234.205759,212 239.348707,213.216574 244.012169,215.580476 C247.388459,217.291912 249.509338,218.872908 253.638263,222.361205 C259.102784,226.977872 261.119199,228 266.122812,228 C271.126893,228 273.143453,226.977811 278.60799,222.361174 C282.737083,218.87277 284.857874,217.291845 288.234093,215.580439 C292.897491,213.216562 298.040348,212 304,212 L304,232 C298.996153,232 296.979678,233.022152 291.515232,237.63871 C287.386096,241.127152 285.26527,242.7081 281.888991,244.419527 C277.225524,246.783427 272.08258,248 266.122812,248 C260.163273,248 255.020501,246.783448 250.357176,244.419592 C246.981005,242.708198 244.860196,241.127249 240.731359,237.639026 C235.266653,233.022204 233.250069,232 228.245989,232 C223.242776,232 221.226542,233.022076 215.762588,237.638442 C211.633525,241.126989 209.512713,242.707996 206.13651,244.419454 C201.47314,246.7834 196.330281,248 190.370625,248 C184.411313,248 179.268717,246.783396 174.605578,244.419451 C171.22958,242.708014 169.108905,241.127043 164.98034,237.638781 C159.51622,233.022098 157.5,232 152.496718,232 C147.493437,232 145.477265,233.022069 140.013207,237.638611 C135.884405,241.127006 133.763766,242.707928 130.387672,244.419391 C125.724385,246.783377 120.58162,248 114.622083,248 C108.662659,248 103.519978,246.783386 98.8567651,244.419421 C95.4807191,242.707971 93.3600624,241.127024 89.2313785,237.638696 C83.7672898,233.022084 81.7510935,232 76.7478123,232 C71.7445306,232 69.7283587,233.022069 64.264301,237.638611 C60.1354988,241.127006 58.0148601,242.707928 54.6387656,244.419391 C49.9754788,246.783377 44.8327143,248 38.8731769,248 C32.9137534,248 27.7710771,246.783351 23.1078826,244.41932 C19.731875,242.707836 17.6113034,241.126903 13.4826371,237.638489 C8.01887221,233.022016 6.00288214,232 1,232 Z" id="Page-1-Copy" fill="#0C5BD0" fill-rule="nonzero" style="mix-blend-mode: multiply;"></path>
            </g>
        </g>
    </g>
</svg>