<svg xmlns="http://www.w3.org/2000/svg" width="256" height="256" viewBox="0 0 256 256">
  <g fill="none">
    <rect width="256" height="256" fill="#FFF"/>
    <path fill="#8A4182" d="M119.650119,145 L134.348747,145 L138,149.754465 L138,187 L116,187 L116,149.751555 L119.650119,145 Z M112.638904,127.797612 L117,140.891895 L113.49249,145.601371 L77.5288117,157 L71,137.399995 L106.968967,126 L112.638904,127.797612 Z M125,114.858944 L113.674926,123 L108.045866,121.188249 L86,91.1792403 L102.95182,79 L125,109.010687 L125,114.858944 Z M142.327318,123 L131,114.861995 L131.001697,109.009619 L153.04651,79 L170,91.1792403 L147.950868,121.191148 L142.327318,123 Z M138,140.89396 L142.363377,127.795967 L148.037712,126 L184,137.398076 L177.472431,157 L141.507966,145.598434 L138,140.89396 Z M128.005013,217 C78.9283288,217 39,177.081518 39,128.014811 C39,78.9304823 78.9283288,39 128.005013,39 C177.077444,39 217,78.9304823 217,128.014811 C217,177.081518 177.077444,217 128.005013,217 Z M128.005013,198.982148 C167.195628,198.982148 198.979476,167.213551 198.979476,128.014811 C198.979476,88.8028553 167.195628,57.0207381 128.005013,57.0207381 C88.798903,57.0207381 57.0206762,88.8028553 57.0206762,128.014811 C57.0206762,167.213551 88.798903,198.982148 128.005013,198.982148 Z M181.263737,108 L183,113.39457 L156.737608,122 L155,116.60543 L181.263737,108 Z M146.817552,152 L164,173.778441 L159.181183,177 L142,155.222288 L146.817552,152 Z M108.180802,152 L113,155.221724 L95.8191983,177 L91,173.776965 L108.180802,152 Z M72.7372704,108 L99,116.604278 L97.2634769,122 L71,113.395722 L72.7372704,108 Z M124,72 L130,72 L130,100 L124,100 L124,72 Z" style="mix-blend-mode:multiply"/>
  </g>
</svg>
