<svg xmlns="http://www.w3.org/2000/svg" xmlns:xlink="http://www.w3.org/1999/xlink" width="256" height="256" viewBox="0 0 256 256">
  <defs>
    <linearGradient id="git-commit-changelog-stepicon-a" x1="50%" x2="50%" y1=".689%" y2="97.648%">
      <stop offset="0%" stop-color="#FFB2C5"/>
      <stop offset="100%" stop-color="#F95F84"/>
    </linearGradient>
    <linearGradient id="git-commit-changelog-stepicon-b" x1="50%" x2="50%" y1="0%" y2="100%">
      <stop offset="0%" stop-color="#FFF"/>
      <stop offset="100%" stop-color="#FFF" stop-opacity=".5"/>
    </linearGradient>
    <path id="git-commit-changelog-stepicon-c" d="M111.75,63.7500001 L111.75,141.6875 L132.175,129.8625 C133.7875,128.7875 135.9375,128.25 137.55,128.25 L197.75,128.25 L197.75,63.7500001 L111.75,63.7500001 Z M111.75,53 L197.75,53 C203.662501,53 208.500001,57.8375 208.500001,63.7500001 L208.500001,128.25 C208.500001,134.1625 203.662501,139 197.75,139 L137.55,139 L117.125,150.825 C111.75,154.050001 105.3,151.9 102.6125,147.0625 C101.5375,145.45 101,143.3 101,141.6875 L101,63.7500001 C101,57.8375 105.8375,53 111.75,53 Z M122.5,74.5000001 L187,74.5000001 L187,85.2500002 L122.5,85.2500002 L122.5,74.5000001 Z M122.5,90.6250002 L170.875,90.6250002 L170.875,101.375 L122.5,101.375 L122.5,90.6250002 Z M122.5,106.75 L187,106.75 L187,117.5 L122.5,117.5 L122.5,106.75 Z"/>
  </defs>
  <g fill="none" fill-rule="evenodd">
    <rect width="256" height="256" fill="url(#git-commit-changelog-stepicon-a)" fill-rule="nonzero"/>
    <path fill="url(#git-commit-changelog-stepicon-b)" d="M146.325003,163.356322 C142.871553,181.933979 126.578424,196 107,196 C87.4215761,196 71.1284474,181.933979 67.6749972,163.356322 L27,163.356322 L27,147.724138 L67.8571596,147.724138 C71.6691881,129.603832 87.7459214,116 107,116 C126.254079,116 142.330812,129.603832 146.14284,147.724138 L207.183908,147.724138 L207.183908,163.356322 L146.325003,163.356322 Z M83,156 C83,169.254834 93.745166,180 107,180 C120.254834,180 131,169.254834 131,156 C131,142.745166 120.254834,132 107,132 C93.745166,132 83,142.745166 83,156 Z"/>
    <use fill="#4B315D" xlink:href="#git-commit-changelog-stepicon-c" style="mix-blend-mode:multiply"/>
  </g>
</svg>
