<svg width="257" height="256" viewBox="0 0 257 256" fill="none" xmlns="http://www.w3.org/2000/svg">
<path d="M256.669 0H0.669434V256H256.669V0Z" fill="#040814"/>
<rect width="156" height="115" transform="translate(50.6694 70.5)" fill="#040814"/>
<path d="M107.428 96.3456V73.1831H79.0487V73.2077L50.6694 101.269V157.415H50.6943L79.0487 185.5V185.475H107.428V162.338H74.083V96.3456H107.428Z" fill="#EEFF04"/>
<path d="M149.96 96.3456V73.1831H178.314V73.2077L206.693 101.269V157.415L178.314 185.5V185.475H149.96V162.338H183.305V96.3456H149.96Z" fill="#EEFF04"/>
<path d="M151.449 146.363C160.925 146.363 168.606 138.748 168.606 129.354C168.606 119.96 160.925 112.345 151.449 112.345C141.974 112.345 134.293 119.96 134.293 129.354C134.293 138.748 141.974 146.363 151.449 146.363Z" fill="#EEFF04"/>
<path d="M105.938 146.338C115.414 146.338 123.095 138.723 123.095 129.329C123.095 119.936 115.414 112.321 105.938 112.321C96.4629 112.321 88.7816 119.936 88.7816 129.329C88.7816 138.723 96.4629 146.338 105.938 146.338Z" fill="#EEFF04"/>
</svg>
