<?xml version="1.0" encoding="UTF-8"?><svg xmlns="http://www.w3.org/2000/svg" xmlns:xlink="http://www.w3.org/1999/xlink" viewBox="0 0 400 400"><defs><style>.cls-1{fill:url(#linear-gradient);}.cls-2{fill:#fff;}.cls-3{fill:#683d87;mix-blend-mode:multiply;}.cls-4{isolation:isolate;}</style><linearGradient id="linear-gradient" x1="200" y1="-56.65" x2="200" y2="359.19" gradientUnits="userSpaceOnUse"><stop offset="0" stop-color="#990fc3"/><stop offset=".07" stop-color="#9e13b3"/><stop offset=".28" stop-color="#ae2087"/><stop offset=".49" stop-color="#ba2a64"/><stop offset=".68" stop-color="#c3324b"/><stop offset=".86" stop-color="#c9363c"/><stop offset="1" stop-color="#cb3837"/></linearGradient></defs><g class="cls-4"><g id="Layer_1"><rect class="cls-1" x="-9.05" y="-9.96" width="418.11" height="415.84"/><g><polygon class="cls-2" points="58.46 223.42 92.41 223.42 92.41 172.49 109.39 172.49 109.39 223.42 126.37 223.42 126.37 155.52 58.46 155.52 58.46 223.42"/><path class="cls-2" d="M143.34,155.52v84.88h33.95v-16.98h33.95v-67.9h-67.9Zm50.93,50.93h-16.98v-33.95h16.98v33.95Z"/><polygon class="cls-2" points="228.22 155.52 228.22 223.42 262.17 223.42 262.17 172.49 279.15 172.49 279.15 223.42 296.12 223.42 296.12 172.49 313.1 172.49 313.1 223.42 330.07 223.42 330.07 155.52 228.22 155.52"/></g><path class="cls-3" d="M297.84,198.42l13.28-11.18c1.09-.92,1.23-2.54,.31-3.63l-11.16-13.25c-.92-1.09-2.54-1.23-3.63-.31l-26.4,22.23c-.12,.07-.23,.14-.34,.23l-13.25,11.16c-.55,.47-.86,1.11-.91,1.78-.06,.67,.13,1.36,.59,1.91l11.16,13.25c.09,.11,.19,.2,.29,.29l22.23,26.4c.92,1.09,2.54,1.23,3.63,.31l13.25-11.16c1.09-.92,1.23-2.54,.31-3.63l-13.29-15.78c26.18,3.8,46.36,26.39,46.36,53.61,0,29.86-24.28,54.15-54.13,54.18-28.34,.03-52.2-22.15-54.1-50.42-1.02-15.11,4.12-29.57,14.25-40.52,.64-.69,.63-1.76-.04-2.43l-11.08-10.9c-.69-.68-1.81-.67-2.47,.04-13.4,14.28-20.46,33.06-19.74,52.81,1.42,38.65,33.29,69.8,71.96,70.41,40.89,.64,74.35-32.43,74.35-73.17,0-36.36-26.65-66.59-61.44-72.23Z"/></g></g></svg>