<svg width="256" height="256" viewBox="0 0 256 256" fill="none" xmlns="http://www.w3.org/2000/svg">
<rect width="256" height="256" fill="url(#paint0_linear_5830_28)"/>
<path d="M155.814 66.9392H162.006L179.651 49.2936L180.518 41.8019C170.409 32.8798 158.193 26.6819 145.023 23.7937C131.853 20.9055 118.165 21.4224 105.25 25.2955C92.3356 29.1687 80.6216 36.2702 71.2147 45.9292C61.8078 55.5883 55.0185 67.486 51.4883 80.4985C53.4541 79.6927 55.6317 79.5621 57.6797 80.127L92.971 74.307C92.971 74.307 94.7665 71.3351 95.6952 71.5209C103.257 63.2161 113.707 58.1158 124.907 57.264C136.106 56.4123 147.207 59.8735 155.938 66.9392H155.814Z" fill="#EA4335"/>
<path d="M204.787 80.4979C200.731 65.5619 192.404 52.1345 180.826 41.8633L156.061 66.6291C161.222 70.8464 165.358 76.1808 168.158 82.2299C170.957 88.2789 172.346 94.8846 172.22 101.549V105.945C175.115 105.945 177.981 106.515 180.655 107.623C183.329 108.73 185.759 110.354 187.806 112.401C189.853 114.447 191.476 116.877 192.584 119.551C193.692 122.226 194.262 125.092 194.262 127.986C194.262 130.881 193.692 133.747 192.584 136.421C191.476 139.095 189.853 141.525 187.806 143.572C185.759 145.619 183.329 147.242 180.655 148.35C177.981 149.458 175.115 150.028 172.22 150.028H128.137L123.741 154.486V180.923L128.137 185.319H172.22C184.53 185.415 196.544 181.546 206.485 174.284C216.426 167.023 223.765 156.755 227.418 144.999C231.07 133.243 230.842 120.623 226.766 109.007C222.691 97.3907 214.984 87.3948 204.787 80.4979Z" fill="#4285F4"/>
<path d="M83.994 185.073H128.077V149.782H83.994C80.8532 149.781 77.7494 149.106 74.8925 147.801L68.7011 149.72L50.9317 167.366L49.3838 173.557C59.3485 181.082 71.5075 185.127 83.994 185.073Z" fill="#34A853"/>
<path d="M83.9903 70.5926C72.0459 70.664 60.422 74.4642 50.7422 81.4624C41.0624 88.4606 33.81 98.3073 29.998 109.627C26.1861 120.947 26.0048 133.175 29.4797 144.603C32.9545 156.031 39.9119 166.089 49.3801 173.371L74.9508 147.8C71.7013 146.332 68.8565 144.097 66.6605 141.288C64.4644 138.479 62.9827 135.179 62.3425 131.671C61.7023 128.163 61.9227 124.552 62.9847 121.148C64.0468 117.744 65.9188 114.649 68.4401 112.128C70.9615 109.606 74.0569 107.734 77.4609 106.672C80.8648 105.61 84.4755 105.39 87.9833 106.03C91.4912 106.67 94.7913 108.152 97.6005 110.348C100.41 112.544 102.644 115.389 104.112 118.638L129.683 93.0676C124.316 86.0512 117.399 80.3714 109.472 76.4725C101.545 72.5736 92.824 70.5612 83.9903 70.5926Z" fill="#FBBC05"/>
<g style="mix-blend-mode:multiply">
<path d="M165.5 172.4V191.75H178.5V172.4H165.5Z" fill="#11258E"/>
<path fill-rule="evenodd" clip-rule="evenodd" d="M139.5 127.25V140.15H129.75C124.365 140.15 120 144.482 120 149.825V214.325C120 219.668 124.365 224 129.75 224H214.25C219.635 224 224 219.668 224 214.325V149.825C224 144.482 219.635 140.15 214.25 140.15H204.5V127.25C204.5 109.439 189.949 95 172 95C154.051 95 139.5 109.439 139.5 127.25ZM172 107.9C161.23 107.9 152.5 116.563 152.5 127.25V140.15H191.5V127.25C191.5 116.563 182.77 107.9 172 107.9ZM211 211.1V153.05H133V211.1H211Z" fill="#11258E"/>
</g>
<defs>
<linearGradient id="paint0_linear_5830_28" x1="261" y1="-18" x2="-11.5" y2="279" gradientUnits="userSpaceOnUse">
<stop stop-color="white"/>
<stop offset="1" stop-color="white"/>
</linearGradient>
</defs>
</svg>
