<svg id="Layer_1" data-name="Layer 1" xmlns="http://www.w3.org/2000/svg" viewBox="0 0 256 256"><defs><style>.cls-1{fill:#3b5768;}.cls-2{fill:#202f38;}.cls-3{fill:#fff;}</style></defs><title>icon</title><rect class="cls-1" width="256" height="256"/><path class="cls-2" d="M141,202c-30.81,0-50.77-19.78-50.77-54.3,0-52.17,31.25-87.47,73.56-87.47a74.29,74.29,0,0,1,19.75,2.52l-3.69,26.57A81.34,81.34,0,0,0,167.24,88c-25.6,0-43,25.21-43,55.47,0,20,10.85,31.42,28.42,31.42a35.2,35.2,0,0,0,12.37-2.52L161,199.14A72.19,72.19,0,0,1,141,202Z"/><path class="cls-3" d="M133.92,195.72c-30.81,0-50.77-19.78-50.77-54.3C83.14,89.25,114.39,54,156.7,54a74.29,74.29,0,0,1,19.75,2.52L172.76,83a81.34,81.34,0,0,0-12.59-1.36c-25.6,0-43,25.21-43,55.47,0,20,10.85,31.42,28.42,31.42A35.2,35.2,0,0,0,158,166.05l-4.12,26.76A72.19,72.19,0,0,1,133.92,195.72Z"/></svg>