<?xml version="1.0" encoding="utf-8"?>
<!-- Generator: Adobe Illustrator 24.0.0, SVG Export Plug-In . SVG Version: 6.00 Build 0)  -->
<svg version="1.1" id="Layer_1" xmlns="http://www.w3.org/2000/svg" xmlns:xlink="http://www.w3.org/1999/xlink" x="0px" y="0px"
	 viewBox="0 0 256 256" style="enable-background:new 0 0 256 256;" xml:space="preserve">
<style type="text/css">
	.st0{fill:#FFFFFF;}
	.st1{fill:#D8262C;}
</style>
<rect class="st0" width="256" height="256"/>
<g>
	<path class="st1" d="M222.8,33.69c-6.12-6.12-15.92-9.8-24.5-9.8h-80.84c-9.8,0-18.37,3.67-24.5,9.8
		c-7.35,7.35-11.02,15.92-11.02,24.5v23.27H58.68c-9.8,0-18.37,3.67-24.5,9.8c-6.12,7.35-9.8,15.92-9.8,25.72v80.84
		c0,9.8,3.67,18.37,9.8,24.5c6.12,6.12,15.92,9.8,24.5,9.8h80.84c9.8,0,18.37-3.67,24.5-9.8c6.12-6.12,9.8-15.92,9.8-24.5v-23.27
		h23.27c9.8,0,18.37-3.67,24.5-9.8c6.12-6.12,9.8-15.92,9.8-24.5V58.19C232.6,49.61,228.93,41.04,222.8,33.69z M209.33,139.02
		c0,3.67-1.22,6.12-3.67,8.57c-2.45,2.45-4.9,3.67-8.57,3.67h-23.27v-34.29c0-9.8-3.67-18.37-9.8-24.5
		c-6.12-6.12-15.92-9.8-24.5-9.8h-34.29v-24.5l0,0c0-6.12,4.9-11.02,11.02-11.02h80.84c3.67,0,6.12,1.22,8.57,3.67
		c2.45,2.45,3.67,4.9,3.67,8.57V139.02z M140.74,208.84H58.68c-6.12,0-11.02-4.9-11.02-11.02v-80.84c0-3.67,1.22-6.12,3.67-8.57
		c2.45-2.45,4.9-3.67,8.57-3.67h23.27v34.29c0,9.8,3.67,18.37,9.8,24.5c6.12,6.12,15.92,9.8,24.5,9.8h34.29v23.27
		C151.77,203.94,146.87,208.84,140.74,208.84z M151.77,151.27h-34.29c-7.35,0-12.25-4.9-12.25-12.25v-34.29h34.29
		c6.12,0,11.02,4.9,11.02,11.02v35.52H151.77z"/>
</g>
</svg>
