<svg xmlns="http://www.w3.org/2000/svg" width="256" height="256" viewBox="0 0 256 256">
  <defs>
    <linearGradient id="manipulate-cordova-config-stepicon-a" x1="50%" x2="50%" y1="6.581%" y2="96.979%">
      <stop offset="0%" stop-color="#9FAEBD"/>
      <stop offset="100%" stop-color="#5F7992"/>
    </linearGradient>
    <linearGradient id="manipulate-cordova-config-stepicon-b" x1="53.194%" x2="53.194%" y1="31.856%" y2="116.331%">
      <stop offset="0%" stop-color="#FFF"/>
      <stop offset="100%" stop-color="#FFF" stop-opacity=".261"/>
    </linearGradient>
    <linearGradient id="manipulate-cordova-config-stepicon-c" x1="53.194%" x2="53.194%" y1="-209.256%" y2="116.331%">
      <stop offset="0%" stop-color="#FFF"/>
      <stop offset="100%" stop-color="#FFF" stop-opacity=".867"/>
    </linearGradient>
    <linearGradient id="manipulate-cordova-config-stepicon-d" x1="53.194%" x2="53.194%" y1="-209.256%" y2="116.331%">
      <stop offset="0%" stop-color="#FFF"/>
      <stop offset="100%" stop-color="#FFF" stop-opacity=".867"/>
    </linearGradient>
  </defs>
  <g fill="none" fill-rule="evenodd">
    <rect width="256" height="256" fill="url(#manipulate-cordova-config-stepicon-a)"/>
    <path fill="url(#manipulate-cordova-config-stepicon-b)" d="M49,133.573416 L171,133.573416 L143.272255,89 L76.7277453,89 L49,133.573416 Z M49,133.573416 L60.091618,206 L159.908382,206 L171,133.565591 L49,133.565591 L49,133.573416 Z M79.8470192,206 L78.4615417,189.284969 L88.1650829,189.284969 L89.5505604,206 L79.8470192,206 Z M140.152981,206 L141.538458,189.284969 L131.834917,189.284969 L130.44944,206 L140.152981,206 Z M71.183236,133.573416 L82.2748541,111.286708 L137.730345,111.286708 L148.819363,133.573416 L71.183236,133.573416 Z M71.183236,133.573416 L76.7277453,178.146832 L143.272255,178.146832 L148.816764,133.573416 L71.183236,133.573416 Z"/>
    <polygon fill="#FFF" points="100.296 109.894 98.911 119.644 121.092 119.644 119.706 109.894 100.296 109.894"/>
    <path fill="url(#manipulate-cordova-config-stepicon-c)" d="M128.021605,142.614349 C129.552648,142.614349 130.795159,147.254804 130.795159,152.977772 C130.795159,158.70074 129.552648,163.341196 128.021605,163.341196 C126.490561,163.341196 125.25065,158.70074 125.25065,152.977772 C125.25065,147.254804 126.490561,142.614349 128.021605,142.614349 Z"/>
    <path fill="url(#manipulate-cordova-config-stepicon-d)" d="M93.0181532,143.47775 C94.5491967,143.47775 95.7917075,148.118206 95.7917075,153.841174 C95.7917075,159.564141 94.5517961,164.204597 93.0181532,164.204597 C91.4845102,164.204597 90.2445988,159.569358 90.2445988,153.854216 C90.2445988,148.139073 91.4871096,143.490792 93.0181532,143.490792 L93.0181532,143.47775 Z"/>
    <path fill="#0058FF" fill-rule="nonzero" d="M159,115.666667 C168.757031,115.666667 176.666667,107.757031 176.666667,98 C176.666667,88.2429694 168.757031,80.3333333 159,80.3333333 C149.242969,80.3333333 141.333333,88.2429694 141.333333,98 C141.333333,107.757031 149.242969,115.666667 159,115.666667 Z M198.515159,109.777778 C197.699247,112.519283 196.605814,115.141265 195.267439,117.611145 L204.804806,127.148513 L188.148513,143.804806 L178.611145,134.267439 C176.141265,135.605814 173.519283,136.699247 170.777778,137.515159 L170.777778,151 L147.222222,151 L147.222222,137.515159 C144.480717,136.699247 141.858735,135.605814 139.388855,134.267439 L129.851487,143.804806 L113.195194,127.148513 L122.732561,117.611145 C121.394186,115.141265 120.300753,112.519283 119.484841,109.777778 L106,109.777778 L106,86.2222222 L119.484841,86.2222222 C120.300753,83.4807174 121.394186,80.8587355 122.732561,78.3888546 L113.195194,68.8514871 L129.851487,52.1951941 L139.388855,61.7325615 C141.858735,60.3941857 144.480717,59.3007528 147.222222,58.4848411 L147.222222,45 L170.777778,45 L170.777778,58.4848411 C173.519283,59.3007528 176.141265,60.3941857 178.611145,61.7325615 L188.148513,52.1951941 L204.804806,68.8514871 L195.267439,78.3888546 C196.605814,80.8587355 197.699247,83.4807174 198.515159,86.2222222 L212,86.2222222 L212,109.777778 L198.515159,109.777778 Z" style="mix-blend-mode:multiply"/>
  </g>
</svg>
