<?xml version="1.0" encoding="UTF-8"?>
<svg width="256px" height="256px" viewBox="0 0 256 256" version="1.1" xmlns="http://www.w3.org/2000/svg" xmlns:xlink="http://www.w3.org/1999/xlink">
    <!-- Generator: Sketch 50.2 (55047) - http://www.bohemiancoding.com/sketch -->
    <title>gradle-runner-stepicon</title>
    <desc>Created with Sketch.</desc>
    <defs>
        <linearGradient x1="50%" y1="0.688674133%" x2="50%" y2="97.6477244%" id="linearGradient-1">
            <stop stop-color="#22DA27" offset="0%"></stop>
            <stop stop-color="#0BC010" offset="100%"></stop>
        </linearGradient>
        <linearGradient x1="50%" y1="0%" x2="41.6636044%" y2="168.636397%" id="linearGradient-2">
            <stop stop-color="#FFFFFF" offset="0%"></stop>
            <stop stop-color="#FFFFFF" stop-opacity="0.339928668" offset="100%"></stop>
        </linearGradient>
        <linearGradient x1="368.907281%" y1="-611.979166%" x2="208.54166%" y2="352.290783%" id="linearGradient-3">
            <stop stop-color="#008DA0" offset="0%"></stop>
            <stop stop-color="#005466" offset="100%"></stop>
        </linearGradient>
    </defs>
    <g id="New-Icons" stroke="none" stroke-width="1" fill="none" fill-rule="evenodd">
        <g id="Gradle-Runner">
            <g id="gradle-runner-stepicon">
                <rect id="Rectangle-path" fill="url(#linearGradient-1)" fill-rule="nonzero" x="0" y="0" width="256" height="256"></rect>
                <path d="M202.275919,80.7907005 C202.248098,80.8134936 202.22033,80.8364364 202.192617,80.8595303 C201.259589,80.2375114 200.326561,79.6154924 199.600872,78.9934734 C199.020329,78.4774357 198.439787,78.0015337 198.533514,77.1662004 C198.530055,76.6430286 198.785207,75.9754253 199.497202,75.05402 C199.608975,74.9016024 199.780504,74.7720915 199.999491,74.6618756 C201.274362,73.1901705 203.490146,71.4650566 203.955005,70.9072268 C205.985529,68.4705975 212.589693,71.303596 216.85415,75.1218955 C221.566046,78.5220791 226.616515,84.7927422 228.421084,90.0861451 C230.90916,97.5503727 231.01283,106.984327 226.866037,116.521951 C220.023828,132.590775 209.449505,143.165097 186.849483,146.171522 C173.579745,148.037579 176.27516,157.782543 176.27516,183.7 L158.23661,183.7 C158.23661,183.7 127.757681,135.078851 113.554914,183.7 L97.4860909,183.7 C94.2723262,159.75227 74.9897381,158.819241 69.5989071,183.7 L48.4502621,183.7 C48.4502621,183.7 36.9429111,116.107272 79.4475407,100.764137 C79.4475407,100.764137 83.2833244,109.887082 88.2594761,117.869659 C93.753977,126.681594 108.164083,132.798114 124.958595,107.502676 C124.958595,107.502676 102.358573,132.487105 92.0952598,115.381583 C85.5640606,104.599921 87.741127,108.643044 81.106258,95.580646 C76.2337761,86.0430218 81.9356166,81.8962286 94.375996,77.7494355 C106.816375,73.6026424 144.344853,63.0283199 172.335707,89.0494468 C198.667843,113.515526 205.095373,112.271488 210.797213,107.087997 C215.877035,102.422855 212.97428,94.7512873 211.730242,91.4338528 C209.502034,85.6712457 205.337662,82.8128839 202.275919,80.7907005 Z M161.026765,108.240506 C156.328164,106.683601 153.467798,105.740289 153.467798,105.740289 C153.467798,105.740289 149.424675,117.0403 160.621016,120.668744 C169.018272,123.5715 175.549472,116.832961 176.27516,113.308187 C174.183039,112.610813 172.176017,111.942692 170.280504,111.312343 C170.353981,111.586854 170.407071,111.870285 170.437992,112.16125 C170.770764,115.292658 168.409712,118.11074 165.164435,118.455612 C161.919158,118.800484 159.018576,116.541551 158.685805,113.410144 C158.466184,111.343495 159.419901,109.413321 161.026765,108.240506 Z" id="Combined-Shape" fill="url(#linearGradient-2)" fill-rule="nonzero"></path>
                <path d="M148.970563,149 L128.284271,128.313708 L139.59798,117 L179.195959,156.59798 L139.59798,196.195959 L128.284271,184.882251 L148.166522,165 L84,165 L84,149 L148.970563,149 Z M44,165 L44,149 L76,149 L76,165 L44,165 Z M20,165 L20,149 L36,149 L36,165 L20,165 Z" id="Combined-Shape" fill="url(#linearGradient-3)" style="mix-blend-mode: multiply;"></path>
            </g>
        </g>
    </g>
</svg>