<?xml version="1.0" encoding="utf-8"?>
<!-- Generator: Adobe Illustrator 19.1.0, SVG Export Plug-In . SVG Version: 6.00 Build 0)  -->
<svg version="1.1" id="Layer_1" xmlns="http://www.w3.org/2000/svg" xmlns:xlink="http://www.w3.org/1999/xlink" x="0px" y="0px"
	 viewBox="0 0 256 256" enable-background="new 0 0 256 256" xml:space="preserve">
<rect y="-0.6" fill="#006533" width="256" height="256"/>
<g>
	<path fill="#FFFFFF" d="M113.7,76.1H159l22.9,39.6h26.1c-5.9-38.6-39.3-68.1-79.5-68.1c-10.2,0-19.9,1.9-28.9,5.4L113.7,76.1"/>
	<path fill="#FFFFFF" d="M183.1,139.5L159,181.2H98.3L68,128.6l24.2-42l-13.4-22C60,79.4,47.9,102.3,47.9,128
		c0,44.4,36,80.5,80.5,80.5c40.5,0,74.1-30,79.6-69H183.1"/>
	<path fill="#FFFFFF" d="M156.9,127.8c0,15.9-12.9,28.7-28.7,28.7c-15.9,0-28.7-12.9-28.7-28.7c0-15.9,12.9-28.7,28.7-28.7
		C144.1,99,156.9,111.9,156.9,127.8"/>
</g>
</svg>
