<?xml version="1.0" encoding="UTF-8"?>
<svg width="256px" height="256px" viewBox="0 0 256 256" version="1.1" xmlns="http://www.w3.org/2000/svg" xmlns:xlink="http://www.w3.org/1999/xlink">
    <!-- Generator: Sketch 51.3 (57544) - http://www.bohemiancoding.com/sketch -->
    <title>react-native-expo</title>
    <desc>Created with Sketch.</desc>
    <defs></defs>
    <g id="New-Icons" stroke="none" stroke-width="1" fill="none" fill-rule="evenodd">
        <g id="React-Native-Expo">
            <g id="react-native-expo">
                <rect id="Rectangle" fill="#FFFFFF" x="0" y="0" width="256" height="256"></rect>
                <path d="M46.0015837,178.500828 C46.2929846,182.115586 47.5626596,185.737282 50.8860167,190.6009 C54.826866,196.366474 61.6054043,199.537192 66.5522803,194.451554 C69.8895136,191.024125 105.97465,127.942784 123.361566,104.040978 C125.449938,101.092279 129.765446,101.092279 131.853819,104.040978 C149.247673,127.942784 185.325871,191.024125 188.663104,194.451554 C193.603042,199.537192 200.388518,196.366474 204.329368,190.6009 C208.207774,184.918584 209.283182,180.936106 209.283182,176.676103 C209.283182,173.775971 153.091389,69.1908261 147.429887,60.4904299 C141.983466,52.1161251 140.325257,50.2914008 131.118378,50 L124.097006,50 C114.890127,50.2914008 113.231918,52.1161251 107.785498,60.4904299 C102.241944,69.0104351 48.2425949,169.47434 46.0015837,176.363888 L46.0015837,178.500828 Z" id="Fill-1" fill="#000000"></path>
            </g>
        </g>
    </g>
</svg>