<svg width="256" height="256" viewBox="0 0 256 256" fill="none" xmlns="http://www.w3.org/2000/svg">
<title>dependency-installer-step-icon</title>
<rect width="256" height="256" fill="url(#paint0_linear_7462_28)"/>
<path fill-rule="evenodd" clip-rule="evenodd" d="M133.429 67C129.879 78.8872 118.83 87.5556 105.75 87.5556C92.6695 87.5556 81.6205 78.8872 78.0708 67H48V50.5556H78.0708C81.6205 38.6683 92.6695 30 105.75 30C118.83 30 129.879 38.6683 133.429 50.5556H165.562C191.762 50.5556 213 71.7225 213 97.8333C213 122.237 194.448 142.322 170.633 144.844C167.169 156.868 156.053 165.667 142.875 165.667C129.795 165.667 118.746 156.998 115.196 145.111H81C71.8873 145.111 64.5 152.474 64.5 161.556V178H48V161.556C48 143.392 62.7746 128.667 81 128.667H115.196C118.746 116.779 129.795 108.111 142.875 108.111C155.815 108.111 166.768 116.595 170.438 128.286C185.208 125.956 196.5 113.209 196.5 97.8333C196.5 80.8046 182.649 67 165.562 67H133.429ZM105.75 71.1111C112.585 71.1111 118.125 65.5893 118.125 58.7778C118.125 51.9663 112.585 46.4444 105.75 46.4444C98.9155 46.4444 93.375 51.9663 93.375 58.7778C93.375 65.5893 98.9155 71.1111 105.75 71.1111ZM142.875 149.222C149.71 149.222 155.25 143.7 155.25 136.889C155.25 130.077 149.71 124.556 142.875 124.556C136.04 124.556 130.5 130.077 130.5 136.889C130.5 143.7 136.04 149.222 142.875 149.222Z" fill="url(#paint1_linear_7462_28)"/>
<path d="M200.514 152.389L177.875 175.027V116H164.125V175.027L141.486 152.389L131.764 162.111L171 201.348L210.236 162.111L200.514 152.389Z" fill="#106375" style="mix-blend-mode:multiply"/>
<path d="M116 191.625V212.25C116 219.844 122.156 226 129.75 226H212.25C219.844 226 226 219.844 226 212.25V191.625H212.25V212.25H129.75V191.625H116Z" fill="#106375" style="mix-blend-mode:multiply"/>
<defs>
<linearGradient id="paint0_linear_7462_28" x1="256" y1="0" x2="0.0365041" y2="256.036" gradientUnits="userSpaceOnUse">
<stop stop-color="#6A3C98"/>
<stop offset="1" stop-color="#DEB4FF"/>
</linearGradient>
<linearGradient id="paint1_linear_7462_28" x1="234.189" y1="1.12195" x2="35.6573" y2="193.617" gradientUnits="userSpaceOnUse">
<stop stop-color="#DEB4FF"/>
<stop offset="1" stop-color="#F6EAFF"/>
</linearGradient>
</defs>
</svg>
