<?xml version="1.0" encoding="utf-8"?>
<!-- Generator: Adobe Illustrator 19.1.0, SVG Export Plug-In . SVG Version: 6.00 Build 0)  -->
<svg version="1.1" id="Layer_1" xmlns="http://www.w3.org/2000/svg" xmlns:xlink="http://www.w3.org/1999/xlink" x="0px" y="0px"
	 viewBox="0 0 256 256" enable-background="new 0 0 256 256" xml:space="preserve">
<rect x="0.7" y="1" fill="#F05131" width="256" height="256"/>
<g>
	<path fill="#FFFFFF" d="M199.2,122.5l-63.9-63.9c-3.7-3.7-9.7-3.7-13.3,0l-13.3,13.3l16.8,16.8c3.9-1.3,8.4-0.4,11.5,2.7
		c3.1,3.1,4,7.7,2.7,11.6l16.2,16.2c3.9-1.4,8.5-0.5,11.6,2.7c4.4,4.4,4.4,11.5,0,15.9c-4.4,4.4-11.5,4.4-15.9,0
		c-3.3-3.3-4.1-8.1-2.4-12.2L134,110.4v39.8c1.1,0.5,2.1,1.2,3,2.1c4.4,4.4,4.4,11.5,0,15.9c-4.4,4.4-11.5,4.4-15.9,0
		c-4.4-4.4-4.4-11.5,0-15.9c1.1-1.1,2.3-1.9,3.7-2.4v-40.2c-1.3-0.5-2.6-1.4-3.7-2.4c-3.3-3.3-4.1-8.2-2.4-12.3l-16.6-16.6
		l-43.8,43.8c-3.7,3.7-3.7,9.7,0,13.3l63.9,63.9c3.7,3.7,9.6,3.7,13.3,0l63.6-63.6C202.8,132.1,202.8,126.2,199.2,122.5z"/>
</g>
</svg>
