<svg xmlns="http://www.w3.org/2000/svg" version="1.1" viewBox="0 0 368.8 376" width="368.8" height="376">
  
  <rect x="0" y="0" width="368.8" height="376" fill="white"/>
  
  <g transform="translate(60, 60)">

    <g stroke-width="2.00" fill="none" stroke-linecap="butt"><path stroke="#7e916f" vector-effect="non-scaling-stroke" d="m61.096 0.408 0.008 61.176" stroke-width="0.8"/><path stroke="#1375eb" vector-effect="non-scaling-stroke" d="M61.104 61.584 0 61.568" stroke-width="0.8"/><path stroke="#f3801d" vector-effect="non-scaling-stroke" d="M188.064 0.872q-0.128 0.048 -0.216 0.104 -0.136 0.072 -0.136 0.224l-0.016 60.408" stroke-width="0.8"/><path stroke="#7eb426" vector-effect="non-scaling-stroke" d="M187.696 61.608h-0.04" stroke-width="0.8"/><path stroke="#91a080" vector-effect="non-scaling-stroke" d="m61.128 61.608 -0.024 -0.024" stroke-width="0.8"/><path stroke="#75783e" vector-effect="non-scaling-stroke" d="m248.424 61.416 -60.728 0.192" stroke-width="0.8"/><path stroke="#138495" vector-effect="non-scaling-stroke" d="M61.144 146.152 0 146.136" stroke-width="0.8"/><path stroke="#00983a" vector-effect="non-scaling-stroke" d="m61.152 207.304 -0.008 -30.624" stroke-width="0.8"/></g><path fill="#0066da" d="m61.096 0.408 0.008 61.176L0 61.568V16.616q0.68 -4.768 2.824 -8.008Q8.112 0.592 18.2 0.536 39.528 0.424 61.096 0.408"/><path fill="#fbbc04" d="m61.096 0.408 125.936 0.016a1.288 1.256 -26.7 0 1 0.736 0.232l0.296 0.216q-0.128 0.048 -0.216 0.104 -0.136 0.072 -0.136 0.224l-0.016 60.408H61.128l-0.024 -0.024z"/><path fill="#ea4335" d="m188.064 0.872 60.36 60.544 -60.728 0.192 0.016 -60.408q0 -0.152 0.136 -0.224 0.088 -0.056 0.216 -0.104"/><path fill="#2684fc" d="m0 61.568 61.104 0.016 0.024 0.024 0.016 84.544L0 146.136z"/><path fill="#00ac47" d="m248.424 61.416 0.376 0.272v129.52q-2.128 11.624 -12.048 15.016 -3.536 1.216 -10.424 1.2 -44.712 -0.072 -90.336 -0.136 -6.624 -0.008 -13.44 0.096 -0.376 0.008 -0.64 0.272 -22.32 22.216 -44.8 44.816c-2.296 2.312 -4.896 3.6 -8.192 3.112q-4.608 -0.68 -6.792 -4.752 -0.92 -1.728 -0.936 -6.304 -0.056 -18.552 -0.04 -37.224l-0.008 -30.624 30.224 -30.224a1.432 1.416 22.3 0 1 1.008 -0.416l94.64 0.032a0.664 0.664 0 0 0 0.664 -0.664l-0.024 -83.8h0.04z"/><path fill="#00832d" d="M61.144 146.152v30.528l0.008 30.624q-19.176 0.112 -38.024 0.072 -7.856 -0.016 -11.32 -1.232Q2.096 202.752 0 191.104v-44.968z"/>
    </g>
</svg>