<svg viewBox="0 0 128 128" xmlns="http://www.w3.org/2000/svg"><path d="m0 0h128v148h-128z" fill="#fff"/><path d="m110 74.55a2 2 0 0 0 -2.82.06l-1.35 1.39-3.83-3.78a34 34 0 0 0 -28-53.22h-.06a34 34 0 0 0 .06 68h.06a33.81 33.81 0 0 0 17.94-5.16l4.19 4.16-1.63 1.7a2 2 0 0 0 0 2.8l14 13.91a2 2 0 1 0 2.82-2.83l-12.57-12.52 9.87-10.24 15.94 15.18a2 2 0 0 0 2.76-2.9zm-36 8.45a30 30 0 0 1 0-60 30 30 0 0 1 0 60z" fill="#009b77"/><path d="m0 21v78a6 6 0 0 0 6 6h50v4h-11a2 2 0 0 0 0 4h38a2 2 0 0 0 0-4h-11v-4h31.47l-4-4h-93.47a2 2 0 0 1 -2-2v-3h90.44l-2.67-2.66a6 6 0 0 1 -1.47-6 37.71 37.71 0 0 1 -16.23 3.66h-.07a37.74 37.74 0 0 1 -20.45-6h-19.46a2 2 0 0 1 0-4h14.26a38.38 38.38 0 0 1 -3.78-4h-23.46a2 2 0 0 1 0-4h20.61a38 38 0 0 1 -2.18-4h-8.47a2 2 0 0 1 0-4h6.93a37.64 37.64 0 0 1 -1.1-4h-13.82a2 2 0 1 1 0-4h13.13a38.21 38.21 0 0 1 -.21-3.93s0 0 0-.07h-1.91a2 2 0 0 1 0-4h2.12a37.8 37.8 0 0 1 .64-4h-2.76a2 2 0 0 1 0-4h3.91a37.77 37.77 0 0 1 1.59-4h-15.49a2 2 0 0 1 0-4h17.61a38.2 38.2 0 0 1 2.86-4h-30.46a2 2 0 0 1 0-4h34.23a37.85 37.85 0 0 1 25.6-10h-67.94a6 6 0 0 0 -6 6zm60 84h8v4h-8z"/><path d="m122 15h-48.07a38.11 38.11 0 0 1 36.07 26h5a2 2 0 0 1 0 4h-3.9a37.64 37.64 0 0 1 .64 12h2.26a2 2 0 1 1 0 4h-2.87a37.66 37.66 0 0 1 -1.1 4h8a2 2 0 0 1 0 4h-9.55c-.17.36-.35.71-.53 1.07a6 6 0 0 1 4.83 1.59l15.22 14.5v-65.16a6 6 0 0 0 -6-6z"/><path d="m75 30a2 2 0 0 0 0 4 18 18 0 0 1 18 18 2 2 0 0 0 2 2 2 2 0 0 0 2-2 22 22 0 0 0 -22-22z" fill="#009b77"/></svg>