<?xml version="1.0" encoding="UTF-8"?>
<svg width="256px" height="256px" viewBox="0 0 256 256" version="1.1" xmlns="http://www.w3.org/2000/svg" xmlns:xlink="http://www.w3.org/1999/xlink">
    <!-- Generator: Sketch 50.2 (55047) - http://www.bohemiancoding.com/sketch -->
    <title>xcode-analyze</title>
    <desc>Created with Sketch.</desc>
    <defs>
        <linearGradient x1="50%" y1="0%" x2="50%" y2="100%" id="linearGradient-1">
            <stop stop-color="#54C3FA" offset="0%"></stop>
            <stop stop-color="#1586F5" offset="100%"></stop>
        </linearGradient>
        <rect id="path-2" x="0" y="0" width="256" height="256"></rect>
        <linearGradient x1="62.6389714%" y1="39.9557359%" x2="155.019247%" y2="142.071588%" id="linearGradient-4">
            <stop stop-color="#FFFFFF" offset="0%"></stop>
            <stop stop-color="#FFFFFF" stop-opacity="0" offset="100%"></stop>
        </linearGradient>
        <linearGradient x1="50%" y1="0%" x2="70.7817359%" y2="100%" id="linearGradient-5">
            <stop stop-color="#135EA7" stop-opacity="0.855383832" offset="0%"></stop>
            <stop stop-color="#1E568F" offset="100%"></stop>
        </linearGradient>
    </defs>
    <g id="New-Icons" stroke="none" stroke-width="1" fill="none" fill-rule="evenodd">
        <g id="Xcode-Analyze">
            <g id="xcode-analyze">
                <mask id="mask-3" fill="white">
                    <use xlink:href="#path-2"></use>
                </mask>
                <use id="Rectangle" fill="url(#linearGradient-1)" xlink:href="#path-2"></use>
                <g id="hammer" mask="url(#mask-3)" fill="url(#linearGradient-4)">
                    <g transform="translate(120.742663, 126.367897) rotate(15.000000) translate(-120.742663, -126.367897) translate(67.742663, 16.867897)" id="Oval">
                        <path d="M83.8777813,24.0167206 C89.7658802,24.1928677 93.0817914,28.9403593 93.1294731,28.9403593 C98.8056887,28.9403593 102.802098,28.9403593 105.162854,28.9403593 C105.162854,20.4696992 105.162854,4.08988294 105.162854,1.58831011 C101.411008,1.58831011 99.9703677,1.58831011 93.1294731,1.58831011 C90.091692,4.02731666 88.9376482,5.54015866 84.6718137,5.74588046 C78.1610914,6.059863 77.7129304,1.42108547e-14 55.1003005,1.42108547e-14 C32.4876705,1.42108547e-14 11.100063,10.4987911 0.251475674,22.7374871 C2.89677857,21.9380581 4.41304652,21.4837596 6.40013686,20.4696992 C19.1395031,13.9684912 31.431747,12.7227067 40.8602111,20.4696992 C51.75933,29.4250699 54.5895882,50.2735105 52.9514825,80.9289994 C51.5202473,107.713114 48.7928513,136.699167 45.8522086,208.440252 C45.644426,213.509399 49.6265709,219 59.9925409,219 C67.6075987,219 72.8268225,213.349173 72.8268225,208.440252 C72.8268225,178.917063 69.9173327,126.677237 68.3552696,80.9289994 C67.2650712,49.0002934 63.7230459,23.4137761 83.8777813,24.0167206 Z"></path>
                    </g>
                </g>
                <path d="M87,60 C85.8954305,60 85,60.8954305 85,62 L85,194 C85,195.104569 85.8954305,196 87,196 L170,196 C171.104569,196 172,195.104569 172,194 L172,62 C172,60.8954305 171.104569,60 170,60 L87,60 Z M87,40 L170,40 C182.150264,40 192,49.8497355 192,62 L192,194 C192,206.150264 182.150264,216 170,216 L87,216 C74.8497355,216 65,206.150264 65,194 L65,62 C65,49.8497355 74.8497355,40 87,40 Z" id="Rectangle-10" fill="url(#linearGradient-5)" fill-rule="nonzero" style="mix-blend-mode: multiply;" mask="url(#mask-3)"></path>
                <path d="M163,107 L163,112 L93,112 L93,107 C93,87.6700338 108.670034,72 128,72 C147.329966,72 163,87.6700338 163,107 Z M128,82 C115.90521,82 105.816442,90.5887984 103.500091,102 L152.499909,102 C150.183558,90.5887984 140.09479,82 128,82 Z" id="Oval-5" fill="url(#linearGradient-5)" fill-rule="nonzero" style="mix-blend-mode: multiply;" mask="url(#mask-3)"></path>
                <path d="M128,174 C137.941125,174 146,165.941125 146,156 C146,146.058875 137.941125,138 128,138 C118.058875,138 110,146.058875 110,156 C110,165.941125 118.058875,174 128,174 Z M128,184 C112.536027,184 100,171.463973 100,156 C100,140.536027 112.536027,128 128,128 C143.463973,128 156,140.536027 156,156 C156,171.463973 143.463973,184 128,184 Z" id="Oval-8" fill="url(#linearGradient-5)" fill-rule="nonzero" style="mix-blend-mode: multiply;" mask="url(#mask-3)"></path>
                <polygon id="Line-2" fill="url(#linearGradient-5)" fill-rule="nonzero" style="mix-blend-mode: multiply;" mask="url(#mask-3)" points="125.5 110.449747 120.550253 105.5 138.009996 88.0402565 142.959743 92.990004"></polygon>
                <polygon id="Line-2-Copy" fill="url(#linearGradient-5)" fill-rule="nonzero" style="mix-blend-mode: multiply;" mask="url(#mask-3)" points="105.96105 141.032118 113.032118 133.96105 150.535534 171.464466 143.464466 178.535534"></polygon>
            </g>
        </g>
    </g>
</svg>