<svg xmlns="http://www.w3.org/2000/svg" width="256" height="256" viewBox="0 0 256 256">
  <defs>
    <linearGradient id="xcode-analyze-stepicon-2-a" x1="50%" x2="50%" y1="0%" y2="100%">
      <stop offset="0%" stop-color="#54C3FA"/>
      <stop offset="100%" stop-color="#1586F5"/>
    </linearGradient>
    <linearGradient id="xcode-analyze-stepicon-2-b" x1="62.639%" x2="155.019%" y1="39.956%" y2="142.072%">
      <stop offset="0%" stop-color="#FFF"/>
      <stop offset="100%" stop-color="#FFF" stop-opacity="0"/>
    </linearGradient>
    <linearGradient id="xcode-analyze-stepicon-2-c" x1="50%" x2="70.782%" y1="0%" y2="100%">
      <stop offset="0%" stop-color="#135EA7" stop-opacity=".855"/>
      <stop offset="100%" stop-color="#1E568F"/>
    </linearGradient>
  </defs>
  <g fill="none" fill-rule="evenodd">
    <rect width="256" height="256" fill="url(#xcode-analyze-stepicon-2-a)"/>
    <path fill="url(#xcode-analyze-stepicon-2-b)" d="M83.8777813,24.0167206 C89.7658802,24.1928677 93.0817914,28.9403593 93.1294731,28.9403593 C98.8056887,28.9403593 102.802098,28.9403593 105.162854,28.9403593 C105.162854,20.4696992 105.162854,4.08988294 105.162854,1.58831011 C101.411008,1.58831011 99.9703677,1.58831011 93.1294731,1.58831011 C90.091692,4.02731666 88.9376482,5.54015866 84.6718137,5.74588046 C78.1610914,6.059863 77.7129304,1.42108547e-14 55.1003005,1.42108547e-14 C32.4876705,1.42108547e-14 11.100063,10.4987911 0.251475674,22.7374871 C2.89677857,21.9380581 4.41304652,21.4837596 6.40013686,20.4696992 C19.1395031,13.9684912 31.431747,12.7227067 40.8602111,20.4696992 C51.75933,29.4250699 54.5895882,50.2735105 52.9514825,80.9289994 C51.5202473,107.713114 48.7928513,136.699167 45.8522086,208.440252 C45.644426,213.509399 49.6265709,219 59.9925409,219 C67.6075987,219 72.8268225,213.349173 72.8268225,208.440252 C72.8268225,178.917063 69.9173327,126.677237 68.3552696,80.9289994 C67.2650712,49.0002934 63.7230459,23.4137761 83.8777813,24.0167206 Z" transform="rotate(15 22.81 375.212)"/>
    <path fill="url(#xcode-analyze-stepicon-2-c)" fill-rule="nonzero" d="M87,60 C85.8954305,60 85,60.8954305 85,62 L85,194 C85,195.104569 85.8954305,196 87,196 L170,196 C171.104569,196 172,195.104569 172,194 L172,62 C172,60.8954305 171.104569,60 170,60 L87,60 Z M87,40 L170,40 C182.150264,40 192,49.8497355 192,62 L192,194 C192,206.150264 182.150264,216 170,216 L87,216 C74.8497355,216 65,206.150264 65,194 L65,62 C65,49.8497355 74.8497355,40 87,40 Z" style="mix-blend-mode:multiply"/>
    <path fill="url(#xcode-analyze-stepicon-2-c)" fill-rule="nonzero" d="M133.949747 102L152.499909 102C150.183558 90.5887984 140.09479 82 128 82 115.90521 82 105.816442 90.5887984 103.500091 102L124.050253 102 138.009996 88.0402565 142.959743 92.990004 133.949747 102zM163 107L163 112 93 112 93 107C93 87.6700338 108.670034 72 128 72 147.329966 72 163 87.6700338 163 107zM136.693931 171.764999L112.235001 147.306069C110.810691 149.883318 110 152.846986 110 156 110 165.941125 118.058875 174 128 174 131.153014 174 134.116682 173.189309 136.693931 171.764999zM143.764999 164.693931C145.189309 162.116682 146 159.153014 146 156 146 146.058875 137.941125 138 128 138 124.846986 138 121.883318 138.810691 119.306069 140.235001L143.764999 164.693931zM128 184C112.536027 184 100 171.463973 100 156 100 140.536027 112.536027 128 128 128 143.463973 128 156 140.536027 156 156 156 171.463973 143.463973 184 128 184z" style="mix-blend-mode:multiply"/>
    <text fill="#FF2158" font-family="TTNorms-Bold, TT Norms" font-size="25" font-weight="bold" letter-spacing=".104">
      <tspan x="-729" y="-740">Type something</tspan>
    </text>
  </g>
</svg>
