<?xml version="1.0" encoding="utf-8"?>
<!-- Generator: Adobe Illustrator 19.1.0, SVG Export Plug-In . SVG Version: 6.00 Build 0)  -->
<svg version="1.1" id="Layer_1" xmlns="http://www.w3.org/2000/svg" xmlns:xlink="http://www.w3.org/1999/xlink" x="0px" y="0px"
	 viewBox="-351 153 256 256" style="enable-background:new -351 153 256 256;" xml:space="preserve">
<style type="text/css">
	.st0{fill:#2EA9E0;}
	.st1{fill:#FBB919;}
	.st2{fill:#FFFFFF;}
</style>
<g>
	<g>
		<rect x="-350" y="153" class="st0" width="256" height="256"/>
	</g>
	<g>
		<g>
			<g>
				<path class="st1" d="M-163.7,324.1c1.5,7.7-3.6,14.9-11.4,16.1l-95.2,14.6c-7.7,1.2-14.8-4.2-15.8-12l-8.4-68.8
					c-1-7.8,4.6-14.9,12.4-15.9l89.1-11.3c7.8-1,15.3,4.5,16.8,12.2L-163.7,324.1z"/>
			</g>
			<g>
				<path class="st2" d="M-272.5,357.3c-3.5,0-6.8-1.1-9.6-3.2c-3.5-2.7-5.8-6.6-6.4-11l-8.4-68.8c-0.6-4.4,0.6-8.7,3.4-12.2
					c2.7-3.5,6.7-5.7,11.1-6.3l89.1-11.3c9-1.1,17.7,5.2,19.4,14.1l12.5,65.1c0.8,4.3-0.1,8.7-2.6,12.3c-2.5,3.6-6.4,5.9-10.8,6.6
					l-95.2,14.6C-270.8,357.3-271.6,357.3-272.5,357.3z M-191.2,249.1c-0.5,0-1,0-1.5,0.1l-89.1,11.3c-6.5,0.8-11.2,6.8-10.3,13.2
					l8.4,68.8c0.4,3.1,2,5.9,4.5,7.8c2.5,1.9,5.5,2.6,8.6,2.1l95.2-14.6c3.1-0.5,5.9-2.1,7.6-4.7c1.8-2.5,2.4-5.6,1.8-8.6l0,0
					l-12.5-65.1C-179.7,253.4-185.2,249.1-191.2,249.1z"/>
			</g>
		</g>
		<g>
			<g>
				<path class="st0" d="M-237.5,237.8c8-39.4,37.3-32.2,37.3-32.2l27.6,5.6c6.5,9.8,14.6,3,14.6,3l10.3,2.1l-4.7,23.3l-10.8-2.2
					c-6-9.1-14-2.9-14-2.9l-27.6-5.6c0,0,1.9-8.7-1.8-9.4C-227.5,215.2-237.5,237.8-237.5,237.8z"/>
				<path class="st2" d="M-152.4,242c-0.2,0-0.3,0-0.5,0l-10.8-2.2c-0.6-0.1-1.2-0.5-1.5-1c-1.5-2.2-3.2-3.5-5-3.8
					c-2.9-0.5-5.5,1.5-5.6,1.5c-0.5,0.4-1.2,0.6-1.9,0.4l-27.6-5.6c-0.6-0.1-1.2-0.5-1.5-1c-0.3-0.5-0.5-1.2-0.3-1.8
					c0.6-2.7,0.6-5.9,0-6.6c-7.8-1.6-14.9,0.7-21,6.8c-4.8,4.7-7.2,10.1-7.2,10.1c-0.5,1.1-1.7,1.7-2.9,1.3
					c-1.2-0.4-1.8-1.5-1.6-2.7c2.9-14.2,8.8-24.3,17.6-29.9c10.9-6.9,22.1-4.3,22.6-4.1l27.5,5.6c0.6,0.1,1.2,0.5,1.5,1
					c1.6,2.5,3.5,3.9,5.5,4.2c3,0.4,5.6-1.7,5.6-1.7c0.6-0.5,1.3-0.6,2-0.5l10.3,2.1c1.3,0.3,2.1,1.5,1.8,2.8l-4.7,23.3
					c-0.1,0.6-0.5,1.2-1,1.5C-151.5,241.8-151.9,242-152.4,242z M-161.8,235.3l7.5,1.5l3.8-18.7l-7-1.4c-1.5,1-4.7,2.6-8.3,2
					c-3.1-0.5-5.9-2.3-8.2-5.4l-26.7-5.4c-0.2,0-9.9-2.3-19,3.6c-4.6,2.9-8.3,7.4-11.1,13.2c5.6-5.3,13.8-9.8,24.7-7.6
					c1.2,0.2,2.2,0.9,3,2c1.4,2.1,1.3,5.5,1.1,7.8l24.4,5c1.5-0.9,4.7-2.4,8.3-1.8C-166.5,230.7-163.9,232.4-161.8,235.3z"/>
			</g>
			<g>
				<path class="st0" d="M-197.1,230.4L-223.6,352c0,0,4.7,4,8.2,4.7c4.4,0.9,10.7-0.8,10.7-0.8l21.6-122.6L-197.1,230.4z"/>
				<path class="st2" d="M-212.5,359.3c-1.2,0-2.3-0.1-3.4-0.3c-4-0.8-8.7-4.8-9.3-5.2c-0.7-0.6-1-1.5-0.8-2.3l26.5-121.6
					c0.3-1.3,1.5-2.1,2.8-1.8l14,2.9c1.3,0.3,2.1,1.5,1.9,2.7l-21.6,122.6c-0.2,0.9-0.8,1.6-1.7,1.9
					C-204.3,358.2-208.4,359.3-212.5,359.3z M-221,351.1c1.8,1.3,4.3,3,6,3.3c2.5,0.5,6,0,8.2-0.4l20.9-118.8l-9.5-2L-221,351.1z"/>
			</g>
		</g>
		<g>
			<path class="st2" d="M-277.7,278c-1.2,0-2.2-0.9-2.3-2c-0.2-1.3,0.7-2.5,2-2.7l54.1-7.6c1.3-0.2,2.5,0.7,2.7,2
				c0.2,1.3-0.7,2.5-2,2.7l-54.1,7.6C-277.5,278-277.6,278-277.7,278z"/>
		</g>
		<g>
			<path class="st2" d="M-275.5,293.1c-1.2,0-2.2-0.9-2.3-2c-0.2-1.3,0.7-2.5,2-2.7l54.2-7.6c1.3-0.2,2.5,0.7,2.7,2
				c0.2,1.3-0.7,2.5-2,2.7l-54.2,7.6C-275.3,293.1-275.4,293.1-275.5,293.1z"/>
		</g>
		<g>
			<path class="st2" d="M-273.5,308.7c-1.2,0-2.2-0.9-2.3-2c-0.2-1.3,0.7-2.5,2-2.7l31.9-4.4c1.3-0.2,2.5,0.7,2.7,2
				c0.2,1.3-0.7,2.5-2,2.7l-31.9,4.4C-273.3,308.7-273.4,308.7-273.5,308.7z"/>
		</g>
	</g>
</g>
</svg>
