<?xml version="1.0" encoding="utf-8"?>
<!-- Generator: Adobe Illustrator 19.1.0, SVG Export Plug-In . SVG Version: 6.00 Build 0)  -->
<svg version="1.1" id="Layer_1" xmlns="http://www.w3.org/2000/svg" xmlns:xlink="http://www.w3.org/1999/xlink" x="0px" y="0px"
	 viewBox="0 0 256 256" enable-background="new 0 0 256 256" xml:space="preserve">
<rect y="0" fill="#8151A8" width="256" height="256"/>
<g>
	<g>
		<g>
			<path fill="#FFFFFF" d="M142.9,116.4H84.3c-3.4,0-6.1-2.7-6.1-6.1V67.2c0-3.4,2.7-6.1,6.1-6.1h42.5c0.6-1.2,1.8-3.5,2.5-4.4
				c1.1-1.5,3.1-2.3,5.4-2.3h8.2c3.4,0,6.1,2.7,6.1,6.1v49.8C149,113.7,146.3,116.4,142.9,116.4z M84.3,64.1c-1.7,0-3.1,1.4-3.1,3.1
				v43.1c0,1.7,1.4,3.1,3.1,3.1h58.6c1.7,0,3.1-1.4,3.1-3.1V60.5c0-1.7-1.4-3.1-3.1-3.1h-8.2c-1.3,0-2.4,0.4-3,1.1
				c-0.6,0.8-1.9,3.3-2.7,4.7c-0.3,0.5-0.8,0.8-1.3,0.8H84.3z"/>
		</g>
		<g>
			<path fill="#FFFFFF" d="M146.6,76.2H80.8c-0.8,0-1.5-0.7-1.5-1.5s0.7-1.5,1.5-1.5h65.8c0.8,0,1.5,0.7,1.5,1.5
				S147.4,76.2,146.6,76.2z"/>
		</g>
	</g>
	<g>
		<path fill="#FFFFFF" d="M172.9,190.1h-47.5c-6.9,0-12.5-5.6-12.5-12.5v-44.5c0-0.8,0.7-1.5,1.5-1.5s1.5,0.7,1.5,1.5v44.5
			c0,5.2,4.2,9.5,9.5,9.5h47.5c0.8,0,1.5,0.7,1.5,1.5S173.7,190.1,172.9,190.1z"/>
	</g>
	<g>
		<path fill="#FFFFFF" d="M164.7,201.6c-0.4,0-0.8-0.1-1.1-0.4c-0.6-0.6-0.6-1.5,0-2.1l10.6-10.6L164,178.2c-0.6-0.6-0.6-1.5,0-2.1
			s1.5-0.6,2.1,0l11.3,11.3c0.3,0.3,0.4,0.7,0.4,1.1s-0.2,0.8-0.4,1.1l-11.7,11.7C165.4,201.4,165,201.6,164.7,201.6z"/>
	</g>
</g>
</svg>
