<svg width="256" height="256" viewBox="0 0 256 256" fill="none" xmlns="http://www.w3.org/2000/svg">
<rect width="256" height="256" fill="white"/>
<path d="M98.1948 196.192L98.0786 215.667C98.054 219.793 93.5329 222.31 89.9583 220.123L80.9354 214.252L78.776 213.016C78.6219 212.928 66.1412 205.611 39.0223 189.71L36.8682 188.457C34.7446 187.214 33.0069 185.444 31.8114 183.312C30.6292 181.196 30.0217 178.8 30.0592 176.423L30.3382 127.921L30.6281 79.341C30.6434 76.7621 31.3866 74.2484 32.7552 72.092C34.1091 69.9284 36.0615 68.1556 38.0855 67.1919L77.5681 44.6824L79.7241 43.4373C80.4412 43.032 80.4412 43.032 81.8994 42.2127L119.716 20.6751L121.923 19.3855C124.225 18.0774 126.823 17.4642 129.453 17.6024C132.006 17.7417 134.52 18.5941 136.277 19.8613L175.358 42.7622L177.524 44.0014C177.68 44.0934 190.714 51.7353 217.25 67.2931L219.417 68.5498C221.54 69.7957 223.273 71.5641 224.468 73.6958C225.647 75.8057 226.255 78.2017 226.221 80.586L225.965 124.752C225.942 128.833 221.507 131.358 217.985 129.293L201.124 119.41C199.491 118.453 198.492 116.698 198.504 114.806L198.662 88.2687L164.331 68.1381C164.034 67.9888 163.365 67.6019 161.508 66.511L128.622 47.2103L94.1702 66.8391C93.8398 67.0538 93.8398 67.0538 93.642 67.1778C93.5623 67.2262 92.7494 67.6929 91.2033 68.5778L58.103 87.4321L57.6179 168.737L91.9657 188.875C92.1854 188.987 92.6579 189.261 94.8479 190.543L95.5543 191.178L96.1381 191.968C97.4366 192.972 98.2047 194.531 98.1948 196.192ZM198.313 146.731C198.337 142.653 202.765 140.129 206.286 142.185L223.148 152.034C224.785 152.989 225.786 154.747 225.775 156.642L225.679 172.779C225.671 174.162 225.122 175.487 224.148 176.474L216.123 184.559C213.109 188.366 208.708 189.861 204.803 187.58L142.147 150.751L141.721 219.533C141.927 222.115 140.846 224.633 138.81 226.254C136.818 227.845 136.818 227.845 127.159 235.553C125.711 236.88 123.82 237.613 121.847 237.601C117.545 237.576 114.079 234.065 114.104 229.762L114.682 134.649L104.123 128.461L98.7483 131.51C98.4918 131.687 98.5827 131.635 93.1574 134.724C89.3334 136.931 84.5423 135.723 82.3729 131.929C81.8573 131.025 81.8573 131.025 79.4187 126.753L76.4906 121.632C74.297 117.795 75.5089 113.012 79.3051 110.847C80.2334 110.321 80.2334 110.321 84.5258 107.89L97.4715 100.54L99.8053 99.2407C102.294 97.4917 105.58 97.3506 108.233 98.903L111.161 100.632L198.284 151.682L198.313 146.731Z" fill="#13B7C1"/>
</svg>
