<?xml version="1.0" encoding="UTF-8"?>
<svg width="256px" height="256px" viewBox="0 0 256 256" version="1.1" xmlns="http://www.w3.org/2000/svg" xmlns:xlink="http://www.w3.org/1999/xlink">
    <!-- Generator: Sketch 49.3 (51167) - http://www.bohemiancoding.com/sketch -->
    <title>cordova-prepare-stepicon</title>
    <desc>Created with Sketch.</desc>
    <defs>
        <linearGradient x1="50%" y1="6.58063097%" x2="50%" y2="96.9793954%" id="linearGradient-1">
            <stop stop-color="#9FAEBD" offset="0%"></stop>
            <stop stop-color="#5F7992" offset="100%"></stop>
        </linearGradient>
        <linearGradient x1="53.194499%" y1="31.8559696%" x2="53.194499%" y2="116.33113%" id="linearGradient-2">
            <stop stop-color="#FFFFFF" offset="0%"></stop>
            <stop stop-color="#FFFFFF" stop-opacity="0.261407382" offset="100%"></stop>
        </linearGradient>
        <linearGradient x1="53.194499%" y1="-209.255952%" x2="53.194499%" y2="116.33113%" id="linearGradient-3">
            <stop stop-color="#FFFFFF" offset="0%"></stop>
            <stop stop-color="#FFFFFF" stop-opacity="0.261407382" offset="100%"></stop>
        </linearGradient>
        <linearGradient x1="50%" y1="0%" x2="50%" y2="97.094021%" id="linearGradient-4">
            <stop stop-color="#00AEFF" offset="0%"></stop>
            <stop stop-color="#0007E5" offset="100%"></stop>
        </linearGradient>
        <linearGradient x1="50%" y1="-230.295139%" x2="50%" y2="242.144097%" id="linearGradient-5">
            <stop stop-color="#00AEFF" offset="0%"></stop>
            <stop stop-color="#0007E5" offset="100%"></stop>
        </linearGradient>
    </defs>
    <g id="New-Icons" stroke="none" stroke-width="1" fill="none" fill-rule="evenodd">
        <g id="Cordova-Prepare">
            <g id="cordova-prepare-stepicon">
                <rect id="Rectangle" fill="url(#linearGradient-1)" x="0" y="0" width="256" height="256"></rect>
                <g id="cordova-logo" transform="translate(47.000000, 50.000000)">
                    <g id="Group">
                        <path d="M0,59.4312213 L163,59.4312213 L125.953914,0 L37.046086,0 L0,59.4312213 Z M0,59.4312213 L14.819129,156 L148.180871,156 L163,59.4207874 L0,59.4207874 L0,59.4312213 Z M41.2136404,156 L39.3625517,133.713292 L52.3271189,133.713292 L54.1782077,156 L41.2136404,156 Z M121.78636,156 L123.637448,133.713292 L110.672881,133.713292 L108.821792,156 L121.78636,156 Z M29.638258,59.4312213 L44.457387,29.7156106 L118.549559,29.7156106 L133.365215,59.4312213 L29.638258,59.4312213 Z M29.638258,59.4312213 L37.046086,118.862443 L125.953914,118.862443 L133.361742,59.4312213 L29.638258,59.4312213 Z" id="logo" fill="url(#linearGradient-2)"></path>
                        <polygon id="logo-path" fill="#FFFFFF" points="68.5354327 27.858385 66.684344 40.8589646 96.319129 40.8589646 94.4680402 27.858385 68.5354327 27.858385"></polygon>
                        <path d="M105.578046,71.4857984 C107.62362,71.4857984 109.283696,77.6730726 109.283696,85.3036964 C109.283696,92.9343202 107.62362,99.1215945 105.578046,99.1215945 C103.532471,99.1215945 101.875868,92.9343202 101.875868,85.3036964 C101.875868,77.6730726 103.532471,71.4857984 105.578046,71.4857984 Z" id="logo-path" fill="url(#linearGradient-3)"></path>
                        <path d="M58.811139,72.637 C60.8567137,72.637 62.5167895,78.8242743 62.5167895,86.4548981 C62.5167895,94.0855219 60.8601866,100.272796 58.811139,100.272796 C56.7620914,100.272796 55.1054886,94.0924778 55.1054886,86.4722879 C55.1054886,78.8520979 56.7655644,72.6543898 58.811139,72.6543898 L58.811139,72.637 Z" id="logo-path" fill="url(#linearGradient-3)"></path>
                    </g>
                </g>
                <g id="icon-/-minus-remove" style="mix-blend-mode: multiply;" transform="translate(38.000000, 128.000000)">
                    <path d="M45,81 C64.882251,81 81,64.882251 81,45 C81,25.117749 64.882251,9 45,9 C25.117749,9 9,25.117749 9,45 C9,64.882251 25.117749,81 45,81 Z M45,90 C20.1471863,90 0,69.8528137 0,45 C0,20.1471863 20.1471863,0 45,0 C69.8528137,0 90,20.1471863 90,45 C90,69.8528137 69.8528137,90 45,90 Z" id="Oval-6" fill="url(#linearGradient-4)" fill-rule="nonzero"></path>
                    <rect id="Combined-Shape" fill="url(#linearGradient-5)" x="22.5" y="40.5" width="45" height="9"></rect>
                </g>
                <g id="icon-/-plus-add" style="mix-blend-mode: multiply;" transform="translate(128.000000, 38.000000)" fill="url(#linearGradient-4)">
                    <path d="M45,81 C64.882251,81 81,64.882251 81,45 C81,25.117749 64.882251,9 45,9 C25.117749,9 9,25.117749 9,45 C9,64.882251 25.117749,81 45,81 Z M45,90 C20.1471863,90 0,69.8528137 0,45 C0,20.1471863 20.1471863,0 45,0 C69.8528137,0 90,20.1471863 90,45 C90,69.8528137 69.8528137,90 45,90 Z" id="Oval-6" fill-rule="nonzero"></path>
                    <path d="M49.5,40.5 L67.5,40.5 L67.5,49.5 L49.5,49.5 L49.5,67.5 L40.5,67.5 L40.5,49.5 L22.5,49.5 L22.5,40.5 L40.5,40.5 L40.5,22.5 L49.5,22.5 L49.5,40.5 Z" id="Combined-Shape"></path>
                </g>
            </g>
        </g>
    </g>
</svg>