<?xml version="1.0" encoding="UTF-8"?>
<svg width="256px" height="256px" viewBox="0 0 256 256" version="1.1" xmlns="http://www.w3.org/2000/svg" xmlns:xlink="http://www.w3.org/1999/xlink">
    <!-- Generator: Sketch 50.2 (55047) - http://www.bohemiancoding.com/sketch -->
    <title>cordova-prepare-stepicon</title>
    <desc>Created with Sketch.</desc>
    <defs>
        <linearGradient x1="50%" y1="6.58063097%" x2="50%" y2="96.9793954%" id="linearGradient-1">
            <stop stop-color="#9FAEBD" offset="0%"></stop>
            <stop stop-color="#5F7992" offset="100%"></stop>
        </linearGradient>
        <linearGradient x1="53.194499%" y1="31.8559696%" x2="53.194499%" y2="116.33113%" id="linearGradient-2">
            <stop stop-color="#FFFFFF" offset="0%"></stop>
            <stop stop-color="#FFFFFF" stop-opacity="0.261407382" offset="100%"></stop>
        </linearGradient>
        <linearGradient x1="53.194499%" y1="-209.255952%" x2="53.194499%" y2="116.33113%" id="linearGradient-3">
            <stop stop-color="#FFFFFF" offset="0%"></stop>
            <stop stop-color="#FFFFFF" stop-opacity="0.261407382" offset="100%"></stop>
        </linearGradient>
    </defs>
    <g id="New-Icons" stroke="none" stroke-width="1" fill="none" fill-rule="evenodd">
        <g id="Cordova-Prepare">
            <g id="cordova-prepare-stepicon">
                <rect id="Rectangle" fill="url(#linearGradient-1)" x="0" y="0" width="256" height="256"></rect>
                <g id="cordova-logo" transform="translate(47.000000, 50.000000)">
                    <g id="Group">
                        <path d="M0,59.4312213 L163,59.4312213 L125.953914,0 L37.046086,0 L0,59.4312213 Z M0,59.4312213 L14.819129,156 L148.180871,156 L163,59.4207874 L0,59.4207874 L0,59.4312213 Z M41.2136404,156 L39.3625517,133.713292 L52.3271189,133.713292 L54.1782077,156 L41.2136404,156 Z M121.78636,156 L123.637448,133.713292 L110.672881,133.713292 L108.821792,156 L121.78636,156 Z M29.638258,59.4312213 L44.457387,29.7156106 L118.549559,29.7156106 L133.365215,59.4312213 L29.638258,59.4312213 Z M29.638258,59.4312213 L37.046086,118.862443 L125.953914,118.862443 L133.361742,59.4312213 L29.638258,59.4312213 Z" id="logo" fill="url(#linearGradient-2)"></path>
                        <polygon id="logo-path" fill="#FFFFFF" points="68.5354327 27.858385 66.684344 40.8589646 96.319129 40.8589646 94.4680402 27.858385 68.5354327 27.858385"></polygon>
                        <path d="M105.578046,71.4857984 C107.62362,71.4857984 109.283696,77.6730726 109.283696,85.3036964 C109.283696,92.9343202 107.62362,99.1215945 105.578046,99.1215945 C103.532471,99.1215945 101.875868,92.9343202 101.875868,85.3036964 C101.875868,77.6730726 103.532471,71.4857984 105.578046,71.4857984 Z" id="logo-path" fill="url(#linearGradient-3)"></path>
                        <path d="M58.811139,72.637 C60.8567137,72.637 62.5167895,78.8242743 62.5167895,86.4548981 C62.5167895,94.0855219 60.8601866,100.272796 58.811139,100.272796 C56.7620914,100.272796 55.1054886,94.0924778 55.1054886,86.4722879 C55.1054886,78.8520979 56.7655644,72.6543898 58.811139,72.6543898 L58.811139,72.637 Z" id="logo-path" fill="url(#linearGradient-3)"></path>
                    </g>
                </g>
                <path d="M167,200 C185.777681,200 201,184.777681 201,166 C201,147.222319 185.777681,132 167,132 C148.222319,132 133,147.222319 133,166 C133,184.777681 148.222319,200 167,200 Z M167,220 C137.176624,220 113,195.823376 113,166 C113,136.176624 137.176624,112 167,112 C196.823376,112 221,136.176624 221,166 C221,195.823376 196.823376,220 167,220 Z" id="Oval-6" fill="#0058FF" fill-rule="nonzero" style="mix-blend-mode: multiply;"></path>
                <polygon id="Line-2-Copy" fill="#0058FF" fill-rule="nonzero" style="mix-blend-mode: multiply;" points="186.538487 161.115724 186.538487 171.115724 147.6 171.115724 147.6 161.115724"></polygon>
                <path d="M87,123 C105.777681,123 121,107.777681 121,89 C121,70.2223185 105.777681,55 87,55 C68.2223185,55 53,70.2223185 53,89 C53,107.777681 68.2223185,123 87,123 Z M87,143 C57.1766235,143 33,118.823376 33,89 C33,59.1766235 57.1766235,35 87,35 C116.823376,35 141,59.1766235 141,89 C141,118.823376 116.823376,143 87,143 Z" id="Oval-6" fill="#0058FF" fill-rule="nonzero" style="mix-blend-mode: multiply;"></path>
                <path d="M92,84.1157237 L106.538487,84.1157237 L106.538487,94.1157237 L92,94.1157237 L92,107.517925 L82,107.517925 L82,94.1157237 L67.6,94.1157237 L67.6,84.1157237 L82,84.1157237 L82,70.5833333 L92,70.5833333 L92,84.1157237 Z" id="Combined-Shape" fill="#0058FF" fill-rule="nonzero" style="mix-blend-mode: multiply;"></path>
            </g>
        </g>
    </g>
</svg>