<?xml version="1.0" encoding="utf-8"?>
<!-- Generator: Adobe Illustrator 22.1.0, SVG Export Plug-In . SVG Version: 6.00 Build 0)  -->
<svg version="1.1" id="Layer_1" xmlns="http://www.w3.org/2000/svg" xmlns:xlink="http://www.w3.org/1999/xlink" x="0px" y="0px"
	 viewBox="0 0 357 423" style="enable-background:new 0 0 357 423;" xml:space="preserve">
<style type="text/css">
	.st0{fill:#FFFFFF;}
	.st1{fill:#00C2FF;}
	.st2{fill:#263764;}
</style>
<rect y="27.7" class="st0" width="357" height="357"/>
<path class="st1" d="M126.3,222.3h-0.1V134l-26.4,7.8v92.2l51.2,46l19.7-17.8L126.3,222.3z M230,222.1L230,222.1v-0.2v-50.2
	l26.4,7.8v54.4l-78,70.6l-19.8-17.8l19.7-17.8l0.1,0.1l51.7-46.7V222.1z M256.4,169.1v-27.3l-78-23.3L136.2,131v27.5l42-12.5l0-0.1
	L256.4,169.1z"/>
<path class="st2" d="M172.4,198.9h12.1l5.8,23h-23.7L172.4,198.9z"/>
<ellipse class="st2" cx="178.1" cy="188.5" rx="12.9" ry="13.3"/>
</svg>
