<?xml version="1.0" encoding="UTF-8"?>
<svg width="256px" height="256px" viewBox="0 0 256 256" version="1.1" xmlns="http://www.w3.org/2000/svg" xmlns:xlink="http://www.w3.org/1999/xlink">
    <!-- Generator: Sketch 60.1 (88133) - https://sketch.com -->
    <title>AppCenter Android Deploy</title>
    <desc>Created with Sketch.</desc>
    <defs>
        <linearGradient x1="50%" y1="0%" x2="50%" y2="100%" id="linearGradient-1">
            <stop stop-color="#53A906" offset="0%"></stop>
            <stop stop-color="#A4C639" offset="100%"></stop>
        </linearGradient>
        <linearGradient x1="40.8333729%" y1="69.4072064%" x2="93.5899302%" y2="30.8396523%" id="linearGradient-2">
            <stop stop-color="#FFFFFF" offset="0%"></stop>
            <stop stop-color="#FFFFFF" stop-opacity="0" offset="100%"></stop>
        </linearGradient>
        <linearGradient x1="0%" y1="-29.0153837%" x2="100%" y2="133.43369%" id="linearGradient-3">
            <stop stop-color="#0DD3C5" offset="0%"></stop>
            <stop stop-color="#0D83CD" offset="100%"></stop>
        </linearGradient>
    </defs>
    <g id="AppCenter-Android-Deploy" stroke="none" stroke-width="1" fill="none" fill-rule="evenodd">
        <g id="start-android-emulator" fill="url(#linearGradient-1)">
            <rect id="Rectangle" x="0" y="0" width="256" height="256"></rect>
        </g>
        <path d="M40,106.751385 L40,124.148474 L73.4674704,146.431519 L40,169.047464 L40,185.946562 L102.461171,227.863582 L118.201369,218.585859 L118.201369,174.18323 L163.762898,206.988704 L180,198.372977 L180,94.1593353 L163.762898,86.0410557 L118.201369,119.177256 L118.201369,74.1120886 L102.461171,65 L40,106.751385 Z M64.5204736,115.698382 L97.3254046,94.1593353 L97.3254046,137.567612 L64.5204736,115.698382 Z M115.550125,146.531987 L149.127838,122.933094 L149.127838,170.759205 L115.550125,146.531987 Z M64.5204736,177.763658 L97.3254046,156.225155 L97.3254046,199.633431 L64.5204736,177.763658 Z" id="Fill-1" fill="url(#linearGradient-2)"></path>
        <path d="M218.669987,29.3158109 C221.310897,31.9567209 221.173922,65.5437309 207.28394,79.4337131 C203.631655,83.0859973 185.772148,99.2794095 171.906586,107.457004 L179.723421,115.272738 C180.113719,115.663383 180.113719,116.296443 179.723421,116.687087 L170.824298,125.587917 L156.415055,139.999923 L146.732044,130.315055 L153.877,108.643 L139.348,94.114 L117.683011,101.260451 L108,91.5755825 L127.212324,72.3595744 L131.308365,68.262747 C131.698717,67.8720497 132.331882,67.871989 132.722443,68.2624758 L141.835055,77.3784474 C149.995128,63.4951543 164.8741,44.3276657 168.55185,40.701624 C182.561646,26.8904469 216.029077,26.674901 218.669987,29.3158109 Z M136.972184,101.337315 L146.655195,111.022183 C139.271891,118.406904 134.46881,123.210906 132.245953,125.434189 C130.023096,127.657473 126.800652,127.652244 122.578623,125.418505 C120.345312,121.195665 120.340084,117.972604 122.562941,115.749321 C124.785798,113.526037 129.588879,108.722035 136.972184,101.337315 Z M208.583169,39.4189904 C205.792951,39.4614064 202.628902,39.7010162 199.441178,40.1434703 C189.234537,41.5601457 180.709517,44.7410079 176.563386,48.8281436 C174.043053,51.3131825 164.984088,63.0258895 158.274231,72.8599893 C154.892747,77.815959 152.119455,82.2361421 150.203473,85.7486683 L155.901,91.446 L163.520556,99.0686003 C166.855898,97.3392911 171.082392,94.590223 175.867604,91.0536443 C184.454992,84.7070122 194.959443,75.6198578 199.214764,71.3645371 C203.290112,67.2891889 206.465619,58.8040527 207.870048,48.6020755 C208.310511,45.4024901 208.546103,42.2232462 208.583169,39.4189904 Z M188,49.9999228 C192.970563,49.9999228 197,54.0293601 197,58.9999228 C197,63.9704856 192.970563,67.9999228 188,67.9999228 C183.029437,67.9999228 179,63.9704856 179,58.9999228 C179,54.0293601 183.029437,49.9999228 188,49.9999228 Z" id="Combined-Shape" fill="url(#linearGradient-3)" style="mix-blend-mode: multiply;"></path>
    </g>
</svg>