<?xml version="1.0" encoding="UTF-8" standalone="no"?>
<!DOCTYPE svg PUBLIC "-//W3C//DTD SVG 1.1//EN" "http://www.w3.org/Graphics/SVG/1.1/DTD/svg11.dtd">
<svg width="100%" height="100%" viewBox="0 0 256 256" version="1.1" xmlns="http://www.w3.org/2000/svg" xmlns:xlink="http://www.w3.org/1999/xlink" xml:space="preserve" xmlns:serif="http://www.serif.com/" style="fill-rule:evenodd;clip-rule:evenodd;stroke-linejoin:round;stroke-miterlimit:2;">
    <g transform="matrix(1,0,0,1,-4420.39,-4502.9)">
        <g transform="matrix(1.12445,0,0,1.12445,-331.655,415.133)">
            <rect x="4226.09" y="3635.34" width="227.666" height="227.666" style="fill:white;"/>
        </g>
        <g transform="matrix(2.44454,0,0,2.67395,472.134,3647)">
            <g transform="matrix(1.09385,0,0,1,1662.93,377.971)">
                <path d="M0,1.771L2.626,1.771L1.309,-1.292L0,1.771ZM-0.646,3.315L-1.425,5.097L-3.198,5.097L0.573,-3.458L2.105,-3.458L5.861,5.097L4.04,5.097L3.271,3.315L-0.646,3.315ZM27.89,5.091L29.603,5.091L29.603,-3.459L27.89,-3.459L27.89,5.091ZM21.068,1.417L24.227,1.417L24.227,-0.141L21.068,-0.141L21.068,-1.893L25.654,-1.893L25.654,-3.453L19.354,-3.453L19.354,5.096L25.819,5.096L25.819,3.538L21.068,3.538L21.068,1.417ZM14.258,2.428L12.314,-3.459L10.897,-3.459L8.954,2.428L7.062,-3.455L5.213,-3.455L8.197,5.102L9.635,5.102L11.582,-0.519L13.528,5.102L14.978,5.102L17.954,-3.455L16.153,-3.455L14.258,2.428ZM-5.815,1.442C-5.815,2.833 -6.506,3.577 -7.761,3.577C-9.023,3.577 -9.718,2.812 -9.718,1.382L-9.718,-3.454L-11.455,-3.454L-11.455,1.442C-11.455,3.849 -10.117,5.23 -7.785,5.23C-5.43,5.23 -4.079,3.824 -4.079,1.371L-4.079,-3.458L-5.815,-3.458L-5.815,1.442ZM-15.599,-3.458L-13.863,-3.458L-13.863,5.102L-15.599,5.102L-15.599,1.625L-19.521,1.625L-19.521,5.102L-21.258,5.102L-21.258,-3.458L-19.521,-3.458L-19.521,-0.005L-15.599,-0.005L-15.599,-3.458Z" style="fill:rgb(0,125,255);fill-rule:nonzero;"/>
            </g>
            <g transform="matrix(1.09385,0,0,1,1667.49,352.715)">
                <path d="M0,10.898C-6.009,10.898 -10.898,6.009 -10.898,0L-9.359,0C-9.359,5.16 -5.16,9.358 0,9.358C5.161,9.358 9.359,5.16 9.359,0L10.899,0C10.899,6.009 6.01,10.898 0,10.898" style="fill:rgb(0,125,255);fill-rule:nonzero;"/>
            </g>
        </g>
    </g>
</svg>
