<?xml version="1.0" encoding="utf-8"?>
<!-- Generator: Adobe Illustrator 19.1.0, SVG Export Plug-In . SVG Version: 6.00 Build 0)  -->
<svg version="1.1" id="Layer_1" xmlns="http://www.w3.org/2000/svg" xmlns:xlink="http://www.w3.org/1999/xlink" x="0px" y="0px"
	 viewBox="0 0 256 256" enable-background="new 0 0 256 256" xml:space="preserve">
<g>
	<rect x="0" y="0" fill="#205081" width="256" height="256"/>
	<g>
		<path fill="#FFFFFF" d="M165,136.2c0-1.4-1.2-2.7-2.7-2.7c-0.6,0-1.3,0.2-1.8,0.7c-6.8,6.1-18.5,11.6-32.5,11.6H128
			c-14,0-25.3-5.7-32.5-11.6c-0.5-0.4-1.3-0.6-1.8-0.6c-1.7,0-2.6,1.4-2.6,3c0,1.2,0.8,2.2,1.5,3.3c4,6,16.5,16.3,35.3,16.3h0.3
			c18.8,0,31.3-10.3,35.3-16.3C164.2,138.8,165,137.4,165,136.2z"/>
		<path fill="#FFFFFF" d="M183.7,183.4c-4.8-2.7-9.3-7.3-11.4-13.7c-0.4-1.2,0-2.2,0.9-3c13.9-10.7,22.6-26.3,22.6-43.6
			c0-32.3-30.3-58.5-67.8-58.5c-37.4,0-67.8,26.2-67.8,58.5c0,32.3,30.3,58.5,67.8,58.5c4.9,0,9.7-0.4,14.3-1.3
			c1.1-0.2,2,0.1,2.8,0.5c9.3,5.7,23.1,10.5,35.2,10.5c3.9,0,5.4-2.5,5.4-4.7C185.7,185.1,184.9,184,183.7,183.4z M165.6,177.7
			c0.2,0.3,0.3,0.5,0.3,0.8c0,0.4-0.4,0.7-0.8,0.7c-3.4,0-13.9-5.6-19.4-10.3c-0.8-0.6-1.8-0.9-3.3-0.5c-4.6,1-9.4,1.5-14.4,1.5
			c-31.2,0-56.4-20.9-56.4-46.6c0-25.7,25.3-46.6,56.4-46.6c31.2,0,56.4,20.9,56.4,46.6c0,15.4-9,29-22.9,37.5
			c-0.9,0.6-1.9,1.6-1.9,3C159.6,166.4,162.2,173.2,165.6,177.7z"/>
	</g>
</g>
</svg>
