<?xml version="1.0" encoding="UTF-8"?>
<svg width="256px" height="256px" viewBox="0 0 256 256" version="1.1" xmlns="http://www.w3.org/2000/svg" xmlns:xlink="http://www.w3.org/1999/xlink">
    <!-- Generator: Sketch 56.2 (81672) - https://sketch.com -->
    <title>avd-manager-stepicon</title>
    <desc>Created with Sketch.</desc>
    <defs>
        <linearGradient x1="50%" y1="0%" x2="50%" y2="100%" id="linearGradient-1">
            <stop stop-color="#53A906" offset="0%"></stop>
            <stop stop-color="#A4C639" offset="100%"></stop>
        </linearGradient>
        <linearGradient x1="50%" y1="100%" x2="50%" y2="0%" id="linearGradient-2">
            <stop stop-color="#FFFFFF" stop-opacity="0.7" offset="0%"></stop>
            <stop stop-color="#FFFFFF" offset="100%"></stop>
        </linearGradient>
        <linearGradient x1="6.79765556%" y1="-146.465871%" x2="90.9225025%" y2="149.69957%" id="linearGradient-3">
            <stop stop-color="#0DD3C5" offset="0%"></stop>
            <stop stop-color="#0DC0C7" offset="8.75127635%"></stop>
            <stop stop-color="#0D83CD" offset="100%"></stop>
        </linearGradient>
        <linearGradient x1="50%" y1="-75.0914229%" x2="50%" y2="100%" id="linearGradient-4">
            <stop stop-color="#0DD3C5" offset="0%"></stop>
            <stop stop-color="#0D83CD" offset="100%"></stop>
        </linearGradient>
    </defs>
    <g id="New-Icons" stroke="none" stroke-width="1" fill="none" fill-rule="evenodd">
        <g id="AVD-Manager">
            <g id="avd-manager-stepicon">
                <rect id="Rectangle" fill="url(#linearGradient-1)" x="0" y="0" width="256" height="256"></rect>
                <path d="M139.003279,63.9611734 C144.270492,61.7169974 149.537705,60.9689387 155.557377,60.9689387 C160.82459,60.9689387 165.339344,61.7169974 169.854098,63.2131148 L181.893443,51.244176 C184.903279,48.2519413 189.418033,48.2519413 192.427869,51.244176 C195.437705,54.2364107 195.437705,58.7247627 192.427869,61.7169974 L183.398361,70.6937015 C193.932787,78.9223469 200.704918,91.6393443 200.704918,105.852459 L110.409836,105.852459 C110.409836,92.3874029 116.429508,80.4184642 126.211475,72.1898188 L115.677049,61.7169974 C112.667213,58.7247627 112.667213,54.2364107 115.677049,51.244176 C118.686885,48.2519413 123.201639,48.2519413 126.211475,51.244176 L139.003279,63.9611734 Z M125.459016,151.433515 L117.934426,151.433515 C113.419672,151.433515 110.409836,148.411293 110.409836,143.87796 L110.409836,113.655738 L200.704918,113.655738 L200.704918,143.87796 C200.704918,143.87796 200.704918,143.87796 200.704918,143.87796 C200.704918,148.411293 197.695082,151.433515 193.180328,151.433515 L185.655738,151.433515 L185.655738,174.100182 C185.655738,177.87796 182.645902,181.655738 178.131148,181.655738 C173.616393,181.655738 170.606557,178.633515 170.606557,174.100182 L170.606557,151.433515 L140.508197,151.433515 L140.508197,174.100182 C140.508197,177.87796 137.498361,181.655738 132.983607,181.655738 C128.468852,181.655738 125.459016,178.633515 125.459016,174.100182 L125.459016,151.433515 Z M223,114.459823 L223,145.179522 C223,148.925826 219.878689,152.672131 215.196721,152.672131 C210.514754,152.672131 207.393443,149.675087 207.393443,145.179522 L207.393443,114.459823 C207.393443,110.713518 210.514754,106.967213 215.196721,106.967213 C219.878689,106.967213 223,109.964257 223,114.459823 Z M94.8032787,105.852459 C99.4852459,105.852459 102.606557,108.899454 102.606557,113.469945 L102.606557,143.939891 C102.606557,147.748634 99.4852459,151.557377 94.8032787,151.557377 C90.1213115,151.557377 87,148.510383 87,143.939891 L87,113.469945 C87,108.899454 90.1213115,105.852459 94.8032787,105.852459 Z M177.295082,99.1639344 C181.977049,99.1639344 185.098361,96.042623 185.098361,91.3606557 C185.098361,87.4590164 181.977049,83.557377 177.295082,83.557377 C172.613115,83.557377 169.491803,87.4590164 169.491803,91.3606557 C169.491803,96.042623 172.613115,99.1639344 177.295082,99.1639344 Z M132.704918,99.1639344 C137.386885,99.1639344 140.508197,96.042623 140.508197,91.3606557 C140.508197,87.4590164 137.386885,83.557377 132.704918,83.557377 C128.022951,83.557377 124.901639,87.4590164 124.901639,91.3606557 C124.901639,96.042623 128.022951,99.1639344 132.704918,99.1639344 Z" id="icons-/-platforms-/-android" fill="url(#linearGradient-2)"></path>
                <path d="M80.0157791,89.6638655 C78.9112096,89.6638655 78.0157791,90.5442468 78.0157791,91.6302521 L78.0157791,165.369748 C78.0157791,166.455753 78.9112096,167.336134 80.0157791,167.336134 L123.919625,167.336134 C125.024195,167.336134 125.919625,166.455753 125.919625,165.369748 L125.919625,91.6302521 C125.919625,90.5442468 125.024195,89.6638655 123.919625,89.6638655 L80.0157791,89.6638655 Z M80.0157791,70 L123.919625,70 C136.06989,70 145.919625,79.6841937 145.919625,91.6302521 L145.919625,165.369748 C145.919625,177.315806 136.06989,187 123.919625,187 L80.0157791,187 C67.8655146,187 58.0157791,177.315806 58.0157791,165.369748 L58.0157791,91.6302521 C58.0157791,79.6841937 67.8655146,70 80.0157791,70 Z" id="Rectangle-10-Copy" fill="url(#linearGradient-3)" fill-rule="nonzero" style="mix-blend-mode: multiply;"></path>
                <path d="M75.5128205,58 L83.5128205,58 L83.5128205,42 L75.5128205,42 L75.5128205,58 Z M93.5128205,58 L101.512821,58 L101.512821,42 L93.5128205,42 L93.5128205,58 Z M111.512821,58 L119.512821,58 L119.512821,42 L111.512821,42 L111.512821,58 Z M137.370815,59.5219912 L142.689385,44.4318347 C138.677649,43.017887 134.457556,42.2055809 130.14811,42.0342557 L129.51252,58.0216265 C132.260323,58.1308674 134.900398,58.6512854 137.370815,59.5219912 Z M151.178054,70.6823665 L164.838553,62.3522549 C162.593964,58.6713656 159.792931,55.3538654 156.541411,52.5152954 L146.019011,64.5684732 C148.038298,66.3313069 149.781852,68.3927426 151.178054,70.6823665 Z M154.935404,84.0672269 L154.935404,87.9210831 L170.935404,87.9210831 L170.935404,84.0672269 C170.935404,81.887775 170.76653,79.7232949 170.432122,77.589066 L154.624987,80.0658502 C154.829372,81.3702589 154.935404,82.7065683 154.935404,84.0672269 Z M154.935404,105.921083 L170.935404,105.921083 L170.935404,97.9210831 L154.935404,97.9210831 L154.935404,105.921083 Z M154.935404,123.921083 L170.935404,123.921083 L170.935404,115.921083 L154.935404,115.921083 L154.935404,123.921083 Z M154.935404,141.921083 L170.935404,141.921083 L170.935404,133.921083 L154.935404,133.921083 L154.935404,141.921083 Z M154.935404,159.921083 L170.935404,159.921083 L170.935404,151.921083 L154.935404,151.921083 L154.935404,159.921083 Z M154.935404,172.932773 C154.935404,174.63085 154.770263,176.291005 154.454908,177.898559 L170.155655,180.978581 C170.673109,178.340806 170.935404,175.648965 170.935404,172.932773 L170.935404,169.921083 L154.935404,169.921083 L154.935404,172.932773 Z M145.28193,193.051787 L155.360027,205.478853 C158.710204,202.761928 161.628034,199.551343 164.004684,195.959932 L150.661737,187.13011 C149.183375,189.364095 147.366234,191.36146 145.28193,193.051787 Z M128.569776,198.999607 L128.655291,214.999378 C132.965338,214.976342 137.204529,214.313392 141.255879,213.045016 L136.475482,197.775837 C133.980276,198.557024 131.324765,198.984882 128.569776,198.999607 Z M110.670654,199 L110.670654,215 L118.670654,215 L118.670654,199 L110.670654,199 Z M92.6706543,199 L92.6706543,215 L100.670654,215 L100.670654,199 L92.6706543,199 Z M75.5128205,199 C75.2308534,199 74.9499144,198.995672 74.6700684,198.987081 L74.1790869,214.979546 C74.6230485,214.993176 75.0676675,215 75.5128205,215 L82.6706543,215 L82.6706543,199 L75.5128205,199 Z M58.1459486,192.629628 L47.7619761,204.802266 C51.0218524,207.583131 54.6922364,209.863346 58.650257,211.556704 L64.9437441,196.846434 C62.4562329,195.782204 60.1670839,194.353775 58.1459486,192.629628 Z M51.9170924,184.831739 C50.6923223,182.488684 49.8179754,179.939485 49.3621119,177.251061 L33.5872868,179.925924 C34.3191938,184.242296 35.7239476,188.391793 37.7374629,192.243764 L51.9170924,184.831739 Z M49,167.326987 L49,159.326987 L33,159.326987 L33,167.326987 L49,167.326987 Z M49,149.326987 L49,141.326987 L33,141.326987 L33,149.326987 L49,149.326987 Z M49,131.326987 L49,123.326987 L33,123.326987 L33,131.326987 L49,131.326987 Z M49,113.326987 L49,105.326987 L33,105.326987 L33,113.326987 L49,113.326987 Z M49,95.3269874 L49,87.3269874 L33,87.3269874 L33,95.3269874 L49,95.3269874 Z M49.8789816,77.3856892 C50.5835474,74.7658026 51.6925788,72.3075708 53.1364065,70.079492 L39.7091408,61.3784268 C37.3468684,65.0238263 35.5609099,69.0176519 34.427963,73.2304484 L49.8789816,77.3856892 Z M62.2266742,44.0995381 C58.1294258,45.4326336 54.271595,47.3749296 50.7776832,49.8506654 L60.028154,62.9055032 C62.189772,61.3738117 64.5955263,60.1543916 67.1770547,59.3144562 L62.2266742,44.0995381 Z" id="Path-Copy" fill="url(#linearGradient-4)" fill-rule="nonzero" style="mix-blend-mode: multiply;"></path>
            </g>
        </g>
    </g>
</svg>