<svg id="Layer_1" data-name="Layer 1" xmlns="http://www.w3.org/2000/svg" viewBox="0 0 256 256"><defs><style>.cls-1{fill:#8151a8;}.cls-2{fill:#fff;}</style></defs><title>icon</title><rect class="cls-1" x="-0.5" width="256" height="256"/><path class="cls-2" d="M157.28,165h-62C84.53,165,76,155.73,76,144.95V62.69C76,51.91,84.53,42,95.31,42H138c6.09,0,11.91,3.46,15.59,8.32l20.37,25.76c2.56,3.38,5.05,7.86,5.05,12.09v56.78C179,155.73,168.06,165,157.28,165Zm-62-117C88.07,48,83,55.46,83,62.69v82.25C83,152.18,88.07,158,95.31,158h62c7.24,0,15.72-5.82,15.72-13.05V88.17c0-2.84-2.25-5.66-4-7.93L149.1,54c-2.47-3.25-7-6-11.11-6Z"/><path class="cls-2" d="M170.17,87H143.8c-4.48,0-9.8-2.34-9.8-6.82V49a3.51,3.51,0,0,1,7,0v31.2c0,.93,1.87.82,2.8.82h26.38a3,3,0,1,1,0,6Z"/><path class="cls-2" d="M129.45,217.72h0a3,3,0,0,1-2.17-.92l-14.89-15.52a3,3,0,0,1,4.33-4.15l12.72,13.26,12.72-13.26a3,3,0,1,1,4.33,4.15L131.61,216.8A3,3,0,0,1,129.45,217.72Z"/><path class="cls-2" d="M129.95,217.72a3,3,0,0,1-3-3v-95a3,3,0,0,1,6,0v95A3,3,0,0,1,129.95,217.72Z"/></svg>