<svg xmlns="http://www.w3.org/2000/svg" xmlns:xlink="http://www.w3.org/1999/xlink" width="256" height="256" viewBox="0 0 256 256">
  <defs>
    <polygon id="danger-stepicon-a" points="0 .728 133.925 .728 133.925 165.216 0 165.216"/>
  </defs>
  <g fill="none" fill-rule="evenodd">
    <rect width="256" height="256" fill="#69FC9F"/>
    <g transform="translate(62 45)">
      <g transform="translate(0 .034)">
        <mask id="danger-stepicon-b" fill="#fff">
          <use xlink:href="#danger-stepicon-a"/>
        </mask>
        <path fill="#010100" d="M74.6704341,31.228167 C74.0841841,31.661383 73.4164682,32.0169398 72.9238659,32.5384739 C58.295025,48.034508 43.6814114,63.5442466 29.0784568,79.0646443 C28.5873773,79.5869398 27.8260136,80.0193943 28.0886841,81.1302239 C42.4061273,84.987292 56.77915,88.9349625 71.2062295,92.6770648 C73.7773545,93.3440193 74.6057182,94.0041216 73.3768773,96.653667 C71.8922182,99.8574852 70.8483886,103.26611 69.6142182,106.586417 C66.0510364,116.176553 62.4870932,125.76669 58.8987864,135.423826 C60.3507068,135.631678 60.7892523,134.771338 61.326775,134.09144 C74.8447864,116.979031 88.3338659,99.844542 101.902889,82.7724852 C103.663161,80.556917 102.603343,80.280542 100.584968,79.7521557 C88.2196614,76.5209284 75.8840477,73.1777807 63.5392977,69.868133 C58.7967636,68.597417 58.7998091,68.5943716 60.7329114,64.1952125 C65.0072068,54.4657466 69.3051045,44.745417 73.5192523,34.9900648 C74.040025,33.7840648 75.1782636,32.6732352 74.6041955,31.1322352 C74.7793091,31.1497466 74.9544227,31.1687807 75.1295364,31.1870534 L74.9787864,30.7043489 C74.8760023,30.8787011 74.7732182,31.0538148 74.6704341,31.228167 M68.9190932,165.210656 C46.8555364,164.078508 24.8506045,162.631156 2.86394545,160.750588 C-0.375656818,160.473451 -0.0109636364,158.783985 0.0347181818,156.764849 C0.723752273,126.726008 1.49729773,96.6886898 2.06984318,66.6475648 C2.383525,50.155667 3.087025,33.7025989 5.37263864,17.3538375 C6.00380909,12.842758 6.91059318,8.36974659 7.66510455,3.87465568 C8.03741136,1.65680341 9.16499091,0.625917045 11.5495818,0.735553409 C43.8329227,2.22325795 76.2160023,1.40936023 108.409502,5.05400795 C111.515105,5.40575795 113.942332,6.86453068 116.250786,8.48775795 C123.931423,13.8865875 130.051264,20.357417 129.710173,30.6891216 C129.694945,31.1543148 129.961423,31.6766102 130.221809,32.0945989 C133.517752,37.3875989 134.027105,43.2866443 133.910616,49.293042 C133.480445,71.4799398 133.221582,93.6729284 132.475445,115.849928 C132.010252,129.654213 128.659491,142.680383 119.143968,153.379826 C114.682377,158.396451 109.21198,161.960394 103.027423,164.517815 C101.558752,165.124622 100.10607,165.217508 98.5825818,165.215985 C88.6947523,165.205326 78.8069227,165.210656 68.9190932,165.210656" mask="url(#danger-stepicon-b)"/>
      </g>
      <path fill="#FAE800" d="M74.6042716,31.1642886 C75.1783398,32.7068114 74.0401011,33.8176409 73.5193284,35.0236409 C69.3051807,44.7789932 65.007283,54.4985614 60.7329875,64.2287886 C58.7998852,68.6279477 58.7968398,68.6302318 63.5393739,69.9017091 C75.8841239,73.2113568 88.2197375,76.5545045 100.585044,79.7857318 C102.603419,80.3141182 103.663237,80.5904932 101.902203,82.8060614 C88.333942,99.8781182 74.8448625,117.012607 61.3268511,134.124255 C60.7893284,134.804914 60.350783,135.665255 58.8988625,135.457402 C62.4871693,125.800266 66.0511125,116.21013 69.6142943,106.619993 C70.8484648,103.299686 71.891533,99.8910614 73.3769534,96.6872432 C74.605033,94.0376977 73.7774307,93.3775955 71.2063057,92.7106409 C56.7792261,88.9685386 42.405442,85.0208682 28.0887602,81.1638 C27.8260898,80.0529705 28.5874534,79.6205159 29.078533,79.0982205 C43.6814875,63.5778227 58.2951011,48.0680841 72.9231807,32.57205 C73.415783,32.0505159 74.0842602,31.6949591 74.6705102,31.2617432 L74.6042716,31.1642886 Z"/>
    </g>
  </g>
</svg>
