<svg xmlns="http://www.w3.org/2000/svg" width="256" height="256" viewBox="0 0 256 256">
  <defs>
    <linearGradient id="features-and-epics-list-for-release-notes-a" x1="67.752%" x2="40.783%" y1="40.328%" y2="81.66%">
      <stop offset="18%" stop-color="#0052CC"/>
      <stop offset="100%" stop-color="#2684FF"/>
    </linearGradient>
    <linearGradient id="features-and-epics-list-for-release-notes-b" x1="32.492%" x2="59.431%" y1="59.166%" y2="17.99%">
      <stop offset="18%" stop-color="#0052CC"/>
      <stop offset="100%" stop-color="#2684FF"/>
    </linearGradient>
  </defs>
  <g fill="none" fill-rule="evenodd" transform="rotate(-180 128.001 128)">
    <rect width="256" height="256" fill="#FFF"/>
    <g fill-rule="nonzero" transform="translate(59.002 56)">
      <path fill="#2684FF" d="M164.012387,81.186906 L90.1588127,7.17423442 L83,0 L83,0 L27.405929,55.7138332 L27.405929,55.7138332 L1.98761294,81.186906 C-0.662537647,83.8460728 -0.662537647,88.1539272 1.98761294,90.813094 L52.7789361,141.713833 L83,172 L138.594071,116.286167 L139.454941,115.423442 L164.012387,90.813094 C166.662538,88.1539272 166.662538,83.8460728 164.012387,81.186906 Z M83,111.427666 L57.6269929,86 L83,60.5723337 L108.373007,86 L83,111.427666 Z"/>
      <path fill="url(#features-and-epics-list-for-release-notes-a)" d="M83,60.4318182 C66.3003816,43.7641181 66.2189936,16.7676801 82.8178121,0 L27,55.6818182 L57.3798292,86 L83,60.4318182 Z"/>
      <path fill="url(#features-and-epics-list-for-release-notes-b)" d="M108.595442,86 L83,111.4756 C91.0669241,119.499979 95.5992784,130.386238 95.5992784,141.7378 C95.5992784,153.089362 91.0669241,163.975621 83,172 L83,172 L139,116.2622 L108.595442,86 Z"/>
    </g>
    <path fill="#492F5C" d="M56.25,14.1 L56.25,16.8 C56.25,17.9045695 55.3545695,18.8 54.25,18.8 L20.75,18.8 C19.6454305,18.8 18.75,17.9045695 18.75,16.8 L18.75,14.1 L9.375,14.1 L9.375,84.6 L65.625,84.6 L65.625,14.1 L56.25,14.1 Z M18.75,4.7 L18.75,2 C18.75,0.8954305 19.6454305,2.02906125e-16 20.75,0 L54.25,0 C55.3545695,-2.02906125e-16 56.25,0.8954305 56.25,2 L56.25,4.7 L65.625,4.7 C70.8026695,4.7 75,8.90852335 75,14.1 L75,84.6 C75,89.7914766 70.8026695,94 65.625,94 L9.375,94 C4.19733047,94 0,89.7914766 0,84.6 L0,14.1 C0,8.90852335 4.19733047,4.7 9.375,4.7 L18.75,4.7 Z M18.75,28.2 L28.125,28.2 L28.125,37.6 L18.75,37.6 L18.75,28.2 Z M18.75,42.3 L28.125,42.3 L28.125,51.7 L18.75,51.7 L18.75,42.3 Z M18.75,56.4 L28.125,56.4 L28.125,65.8 L18.75,65.8 L18.75,56.4 Z M32.8125,28.2 L56.25,28.2 L56.25,37.6 L32.8125,37.6 L32.8125,28.2 Z M32.8125,42.3 L56.25,42.3 L56.25,51.7 L32.8125,51.7 L32.8125,42.3 Z M32.8125,56.4 L56.25,56.4 L56.25,65.8 L32.8125,65.8 L32.8125,56.4 Z" transform="matrix(1 0 0 -1 49.002 143)" style="mix-blend-mode:multiply"/>
  </g>
</svg>
