<?xml version="1.0" encoding="UTF-8"?>
<svg width="256px" height="256px" viewBox="0 0 256 256" version="1.1" xmlns="http://www.w3.org/2000/svg" xmlns:xlink="http://www.w3.org/1999/xlink">
    <!-- Generator: Sketch 50.2 (55047) - http://www.bohemiancoding.com/sketch -->
    <title>generate-cordova-build-configuration</title>
    <desc>Created with Sketch.</desc>
    <defs>
        <linearGradient x1="50%" y1="6.58063097%" x2="50%" y2="96.9793954%" id="linearGradient-1">
            <stop stop-color="#9FAEBD" offset="0%"></stop>
            <stop stop-color="#5F7992" offset="100%"></stop>
        </linearGradient>
        <linearGradient x1="132.409355%" y1="-11.0977103%" x2="-18.5997596%" y2="109.263393%" id="linearGradient-2">
            <stop stop-color="#FFFFFF" stop-opacity="0.399060236" offset="0%"></stop>
            <stop stop-color="#FFFFFF" offset="100%"></stop>
        </linearGradient>
        <linearGradient x1="-24.4959615%" y1="123.982136%" x2="96.7950856%" y2="6.14922306%" id="linearGradient-3">
            <stop stop-color="#FFFFFF" stop-opacity="0.399060236" offset="0%"></stop>
            <stop stop-color="#FFFFFF" offset="100%"></stop>
        </linearGradient>
    </defs>
    <g id="New-Icons" stroke="none" stroke-width="1" fill="none" fill-rule="evenodd">
        <g id="Generate-Cordova-Build-Configuration">
            <g id="generate-cordova-build-configuration">
                <rect id="Rectangle" fill="url(#linearGradient-1)" x="0" y="0" width="256" height="256"></rect>
                <path d="M69,37 L159.738281,37 L193,71.9585974 L193,211 C193,214.313708 190.313708,217 187,217 L69,217 C65.6862915,217 63,214.313708 63,211 L63,43 C63,39.6862915 65.6862915,37 69,37 Z" id="Rectangle-6" fill="url(#linearGradient-2)"></path>
                <path d="M158.731207,37.3828125 L192.784706,72.2668851 L164.731207,72.2668851 C161.417498,72.2668851 158.731207,69.5805936 158.731207,66.2668851 L158.731207,37.3828125 Z" id="Rectangle-6-Copy-2" fill="url(#linearGradient-3)"></path>
                <path d="M85.5945946,176.648649 L92.8918919,176.648649 L92.8918919,191.081081 C92.8918919,196.432432 89.3243243,200 83.972973,200 C79.5945946,200 77,197.081081 77,197.081081 L81.2162162,192.702703 C81.2162162,192.702703 82.027027,193.513514 83.1621622,193.513514 C84.6216216,193.513514 85.5945946,192.540541 85.5945946,191.081081 L85.5945946,176.648649 Z M109.792793,192.216216 C109.792793,189.945946 99.9009009,190.918919 99.9009009,183.232432 C99.9009009,179.567568 103.306306,176 108.981982,176 C114.81982,176 117.414414,179.243243 117.414414,179.243243 L113.198198,183.621622 C113.198198,183.621622 111.900901,182 109.954955,182 C108.657658,182 108.009009,182.648649 108.009009,183.459459 C108.009009,185.72973 117.900901,184.594595 117.900901,192.378378 C117.900901,196.367568 114.495495,200 108.495495,200 C102.333333,200 98.9279279,196.108108 98.9279279,196.108108 L103.144144,191.891892 C103.144144,191.891892 105.09009,194 107.522523,194 C108.981982,194 109.792793,193.189189 109.792793,192.216216 Z M129.708709,188 C129.708709,191.081081 132.141141,193.513514 135.222222,193.513514 C138.303303,193.513514 140.735736,191.081081 140.735736,188 C140.735736,184.918919 138.303303,182.486486 135.222222,182.486486 C132.141141,182.486486 129.708709,184.918919 129.708709,188 Z M148.033033,188 C148.033033,194.486486 142.51952,200 135.222222,200 C127.924925,200 122.411411,194.486486 122.411411,188 C122.411411,181.513514 127.924925,176 135.222222,176 C142.51952,176 148.033033,181.513514 148.033033,188 Z M168.75976,176.648649 L176.057057,176.648649 L176.057057,199.351351 L169.894895,199.351351 L161.3003,188.324324 L161.3003,199.351351 L154.003003,199.351351 L154.003003,176.648649 L160.165165,176.648649 L168.75976,187.675676 L168.75976,176.648649 Z" id="JSON" fill="#0058FF"></path>
                <path d="M128,128 C136.284271,128 143,121.284271 143,113 C143,104.715729 136.284271,98 128,98 C119.715729,98 113,104.715729 113,113 C113,121.284271 119.715729,128 128,128 Z M161.550607,123 C160.857851,125.327693 159.929465,127.553904 158.793108,129.650973 L166.890873,137.748737 L152.748737,151.890873 L144.650973,143.793108 C142.553904,144.929465 140.327693,145.857851 138,146.550607 L138,158 L118,158 L118,146.550607 C115.672307,145.857851 113.446096,144.929465 111.349027,143.793108 L103.251263,151.890873 L89.109127,137.748737 L97.2068918,129.650973 C96.070535,127.553904 95.1421486,125.327693 94.4493934,123 L83,123 L83,103 L94.4493934,103 C95.1421486,100.672307 96.070535,98.4460961 97.2068918,96.3490275 L89.109127,88.2512627 L103.251263,74.109127 L111.349027,82.2068918 C113.446096,81.070535 115.672307,80.1421486 118,79.4493934 L118,68 L138,68 L138,79.4493934 C140.327693,80.1421486 142.553904,81.070535 144.650973,82.2068918 L152.748737,74.109127 L166.890873,88.2512627 L158.793108,96.3490275 C159.929465,98.4460961 160.857851,100.672307 161.550607,103 L173,103 L173,123 L161.550607,123 Z" id="Combined-Shape" fill="#0058FF" fill-rule="nonzero"></path>
            </g>
        </g>
    </g>
</svg>