<svg xmlns="http://www.w3.org/2000/svg" width="256" height="256" viewBox="0 0 256 256">
  <defs>
    <linearGradient id="cordova-archive-a" x1="50%" x2="50%" y1="6.581%" y2="96.979%">
      <stop offset="0%" stop-color="#9FAEBD"/>
      <stop offset="100%" stop-color="#5F7992"/>
    </linearGradient>
    <linearGradient id="cordova-archive-b" x1="53.194%" x2="53.194%" y1="31.856%" y2="116.331%">
      <stop offset="0%" stop-color="#FFF"/>
      <stop offset="100%" stop-color="#FFF" stop-opacity=".261"/>
    </linearGradient>
    <linearGradient id="cordova-archive-c" x1="53.194%" x2="53.194%" y1="-209.256%" y2="116.331%">
      <stop offset="0%" stop-color="#FFF"/>
      <stop offset="100%" stop-color="#FFF" stop-opacity=".867"/>
    </linearGradient>
    <linearGradient id="cordova-archive-d" x1="53.194%" x2="53.194%" y1="-209.256%" y2="116.331%">
      <stop offset="0%" stop-color="#FFF"/>
      <stop offset="100%" stop-color="#FFF" stop-opacity=".867"/>
    </linearGradient>
  </defs>
  <g fill="none" fill-rule="evenodd">
    <rect width="256" height="256" fill="url(#cordova-archive-a)"/>
    <path fill="url(#cordova-archive-b)" d="M33,93.573416 L155,93.573416 L127.272255,49 L60.7277453,49 L33,93.573416 Z M33,93.573416 L44.091618,166 L143.908382,166 L155,93.5655906 L33,93.5655906 L33,93.573416 Z M63.8470192,166 L62.4615417,149.284969 L72.1650829,149.284969 L73.5505604,166 L63.8470192,166 Z M124.152981,166 L125.538458,149.284969 L115.834917,149.284969 L114.44944,166 L124.152981,166 Z M55.183236,93.573416 L66.2748541,71.286708 L121.730345,71.286708 L132.819363,93.573416 L55.183236,93.573416 Z M55.183236,93.573416 L60.7277453,138.146832 L127.272255,138.146832 L132.816764,93.573416 L55.183236,93.573416 Z"/>
    <polygon fill="#FFF" points="84.296 69.894 82.911 79.644 105.092 79.644 103.706 69.894 84.296 69.894"/>
    <path fill="url(#cordova-archive-c)" d="M112.021605,102.614349 C113.552648,102.614349 114.795159,107.254804 114.795159,112.977772 C114.795159,118.70074 113.552648,123.341196 112.021605,123.341196 C110.490561,123.341196 109.25065,118.70074 109.25065,112.977772 C109.25065,107.254804 110.490561,102.614349 112.021605,102.614349 Z"/>
    <path fill="url(#cordova-archive-d)" d="M77.0181532,103.47775 C78.5491967,103.47775 79.7917075,108.118206 79.7917075,113.841174 C79.7917075,119.564141 78.5517961,124.204597 77.0181532,124.204597 C75.4845102,124.204597 74.2445988,119.569358 74.2445988,113.854216 C74.2445988,108.139073 75.4871096,103.490792 77.0181532,103.490792 L77.0181532,103.47775 Z"/>
    <path fill="#0058FF" fill-rule="nonzero" d="M196.391386,120.661914 L181.665224,135.388077 C185.951298,140.955884 188.5,147.930301 188.5,155.5 C188.5,163.261591 185.820441,170.397337 181.335931,176.03263 L196.101823,190.798522 C197.935035,187.978895 199,184.613815 199,181 L199,130 C199,126.580883 198.046697,123.384423 196.391386,120.661914 Z M191.247168,115.199531 C188.338914,113.182188 184.807515,112 181,112 L130,112 C126.386185,112 123.021105,113.064965 120.201478,114.898177 L134.96737,129.664069 C140.602663,125.179559 147.738409,122.5 155.5,122.5 C163.453198,122.5 170.74927,125.31349 176.447222,129.999477 L191.247168,115.199531 Z M176.303506,140.749795 L161.178301,155.875 L175.987981,170.68468 C179.137072,166.442741 181,161.188926 181,155.5 C181,150.003755 179.261127,144.913645 176.303506,140.749795 Z M171.111128,135.335571 C166.797239,131.990931 161.381123,130 155.5,130 C149.811074,130 144.557259,131.862928 140.31532,135.012019 L155.875,150.571699 L171.111128,135.335571 Z M135.388077,181.665224 L120.661914,196.391386 C123.384423,198.046697 126.580883,199 130,199 L181,199 C184.613815,199 187.978895,197.935035 190.798522,196.101823 L176.03263,181.335931 C170.397337,185.820441 163.261591,188.5 155.5,188.5 C147.930301,188.5 140.955884,185.951298 135.388077,181.665224 Z M129.999477,176.447222 C125.31349,170.74927 122.5,163.453198 122.5,155.5 C122.5,147.738409 125.179559,140.602663 129.664069,134.96737 L114.898177,120.201478 C113.064965,123.021105 112,126.386185 112,130 L112,181 C112,184.807515 113.182188,188.338914 115.199531,191.247168 L129.999477,176.447222 Z M155.875,161.178301 L140.749795,176.303506 C144.913645,179.261127 150.003755,181 155.5,181 C161.188926,181 166.442741,179.137072 170.68468,175.987981 L155.875,161.178301 Z M150.571699,155.875 L135.012019,140.31532 C131.862928,144.557259 130,149.811074 130,155.5 C130,161.381123 131.990931,166.797239 135.335571,171.111128 L150.571699,155.875 Z M206.835931,201.53263 L206.90165,201.59835 L206.240394,202.259606 C205.028759,203.696638 203.696638,205.028759 202.259606,206.240394 L201.59835,206.90165 L201.53263,206.835931 C195.897337,211.320441 188.761591,214 181,214 L130,214 C111.774603,214 97,199.225397 97,181 L97,130 C97,111.774603 111.774603,97 130,97 L181,97 C199.225397,97 214,111.774603 214,130 L214,181 C214,188.761591 211.320441,195.897337 206.835931,201.53263 Z" style="mix-blend-mode:multiply"/>
  </g>
</svg>
