<svg width="256" height="256" viewBox="0 0 256 256" fill="none" xmlns="http://www.w3.org/2000/svg">
<rect width="256" height="256" fill="#38383C"/>
<path fill-rule="evenodd" clip-rule="evenodd" d="M152.994 91.4724C152.918 91.3955 152.851 91.3155 152.775 91.2432C139.824 77.9186 115.291 67.2366 108.005 62.1656C107.677 69.3332 105.124 111.655 90.1911 141.427C100.32 135.665 122.659 121.865 143.258 101.722C146.867 98.192 150.093 94.7606 152.994 91.4724Z" fill="white"/>
<path fill-rule="evenodd" clip-rule="evenodd" d="M175.516 60H111.847C121.27 64.0583 142.335 75.2407 155.43 89.0191C167.046 75.4823 172.957 64.5903 175.516 60Z" fill="white"/>
<path fill-rule="evenodd" clip-rule="evenodd" d="M158.191 91.4406C168.875 103.384 175.01 117.321 177.682 124.968V61.2994C174.703 70.2358 167.442 80.8049 158.191 91.4406Z" fill="white"/>
<path fill-rule="evenodd" clip-rule="evenodd" d="M91.162 146.488C89.8679 147.105 88.7146 147.641 87.6748 148.113C87.6657 148.128 87.6566 148.144 87.6476 148.159C86.4942 148.708 85.4136 149.229 84.6719 149.571C82.5605 150.556 80.2145 151.767 77.7595 153.538C76.5366 154.44 75.2773 155.445 74.0559 156.918C73.7547 157.29 73.452 157.694 73.1644 158.162C72.8723 158.627 72.5999 159.152 72.3789 159.785C72.1579 160.411 71.9899 161.162 72.0005 162.023C72.0035 162.874 72.2336 163.814 72.6437 164.589C73.0448 165.37 73.5897 165.978 74.121 166.434C74.6522 166.897 75.1926 167.234 75.7072 167.51C76.2263 167.784 76.7318 167.997 77.2253 168.18C77.7172 168.361 78.2 168.512 78.6783 168.633C79.6363 168.884 80.5687 169.049 81.495 169.179C81.7266 169.213 81.9566 169.241 82.1837 169.266C82.4061 169.294 82.6286 169.319 82.8481 169.346C83.2674 169.393 83.6911 169.431 84.1089 169.476C85.7935 169.659 87.4902 169.8 89.2065 169.96C90.9123 170.107 92.6423 170.259 94.3798 170.413C96.1128 170.575 97.8534 170.737 99.5834 170.947C101.316 171.173 103.046 171.427 104.739 171.778C105.588 171.952 106.428 172.148 107.259 172.358C108.085 172.585 108.904 172.818 109.7 173.091C110.501 173.372 111.289 173.652 112.049 173.984C112.828 174.309 113.623 174.672 114.403 175.029C115.955 175.745 117.461 176.514 118.848 177.357C119.541 177.783 120.207 178.22 120.811 178.686C121.421 179.16 121.982 179.647 122.443 180.156C122.898 180.668 123.26 181.194 123.445 181.667C123.543 181.895 123.594 182.116 123.62 182.311C123.643 182.507 123.632 182.681 123.594 182.858C123.55 183.038 123.463 183.328 123.416 183.4C125.675 183.015 127.938 181.149 127.057 182.784C126.298 184.206 121.497 185.735 119.282 186.123C118.887 186.21 118.494 186.281 118.099 186.325C116.864 186.474 115.622 186.489 114.428 186.465C112.026 186.403 109.773 186.018 107.816 185.566C105.851 185.111 104.168 184.582 102.83 184.088C101.487 183.598 100.495 183.157 99.8604 182.844C99.541 182.69 99.314 182.566 99.1596 182.482C99.0128 182.401 98.978 182.392 98.9129 182.352C97.5764 181.838 104.191 188.868 104.28 190.716C104.371 192.555 94.2224 194.06 94.9792 194.647C95.064 194.698 95.1396 194.718 95.4015 194.789C95.6618 194.848 98.4346 195.661 100.195 195.85C101.954 196.03 102.947 196.014 105.388 195.974C106.612 195.958 107.912 195.893 109.287 195.756C110.661 195.617 112.116 195.407 113.637 195.074C115.152 194.742 116.735 194.249 118.321 193.501C119.117 193.124 119.91 192.699 120.696 192.197C121.481 191.7 122.232 191.111 123.003 190.491C124.077 189.616 125.238 188.363 125.8 187.727C126.316 187.156 127.163 185.971 127.428 185.422C127.682 184.871 127.893 184.262 128.006 183.615C128.114 182.965 128.135 182.293 128.053 181.654C127.97 181.014 127.799 180.407 127.577 179.855C127.135 178.757 126.509 177.864 125.862 177.082C124.546 175.515 123.065 174.324 121.548 173.218C120.024 172.122 118.439 171.149 116.817 170.24C116.004 169.791 115.191 169.36 114.341 168.943C113.473 168.515 112.588 168.127 111.699 167.767C109.918 167.051 108.117 166.422 106.302 165.872C102.671 164.766 99.0052 163.915 95.3939 163.308C93.5792 163.016 91.7796 162.78 90.0072 162.604C88.2318 162.43 86.4821 162.306 84.7718 162.226C84.3435 162.209 83.9182 162.182 83.4959 162.17C83.2961 162.161 83.0978 162.156 82.898 162.147C82.7149 162.141 82.5287 162.126 82.3456 162.114C81.6085 162.073 80.9017 161.993 80.263 161.881C79.9209 161.828 79.5955 161.757 79.3049 161.68C78.094 161.41 76.3641 160.566 75.8056 160.054C75.2849 159.567 75.1351 158.951 75.2455 158.683C75.3348 158.416 76.1007 158.804 76.9543 159.374C77.4886 159.738 78.1183 159.998 78.7464 160.269C78.7645 160.246 79.323 159.483 79.7226 159.013C80.0405 158.64 80.3931 158.288 80.7428 157.933C110.407 131.485 176.815 128.526 176.815 128.526V127.648C173.962 120.981 167.587 106.195 155.859 93.3503C135.312 116.405 105.931 139.419 91.162 146.488Z" fill="white"/>
</svg>
