<svg id="Layer_1" data-name="Layer 1" xmlns="http://www.w3.org/2000/svg" viewBox="0 0 256 256"><defs><style>.cls-1{fill:#8151a8;}.cls-2{fill:#fff;}</style></defs><title>icon</title><rect class="cls-1" width="256" height="256"/><path class="cls-2" d="M136.28,132.3H36a2.5,2.5,0,0,1,0-5H136.28A2.5,2.5,0,0,1,136.28,132.3Z"/><path class="cls-2" d="M144.84,123.61a2.5,2.5,0,0,1-2.5-2.5V90.8a2.5,2.5,0,0,1,5,0v30.32A2.5,2.5,0,0,1,144.84,123.61Z"/><path class="cls-2" d="M144.84,80.36a2.5,2.5,0,0,1-2.5-2.5V65.45a2.5,2.5,0,0,1,5,0V77.86A2.5,2.5,0,0,1,144.84,80.36Z"/><path class="cls-2" d="M144.84,167.7a2.5,2.5,0,0,1-2.5-2.5V134.89a2.5,2.5,0,0,1,5,0V165.2A2.5,2.5,0,0,1,144.84,167.7Z"/><path class="cls-2" d="M144.84,193.05a2.5,2.5,0,0,1-2.5-2.5V178.14a2.5,2.5,0,0,1,5,0v12.41A2.5,2.5,0,0,1,144.84,193.05Z"/><path class="cls-2" d="M149,125.54a2.5,2.5,0,0,1-2.17-3.74l26.09-45.63a2.5,2.5,0,0,1,4.34,2.48l-26.09,45.63A2.5,2.5,0,0,1,149,125.54Z"/><path class="cls-2" d="M175.1,185a2.5,2.5,0,0,1-2.17-1.26l-26.09-45.63a2.5,2.5,0,0,1,4.34-2.48l26.09,45.63A2.5,2.5,0,0,1,175.1,185Z"/><path class="cls-2" d="M197.24,132.3H152.85a2.5,2.5,0,1,1,0-5h44.39A2.5,2.5,0,0,1,197.24,132.3Z"/><path class="cls-2" d="M218,132.3H206.82a2.5,2.5,0,1,1,0-5H218A2.5,2.5,0,0,1,218,132.3Z"/><path class="cls-2" d="M197.24,162.71a2.49,2.49,0,0,1-1.23-.33l-44.39-25.26a2.5,2.5,0,0,1,2.47-4.35L198.48,158A2.5,2.5,0,0,1,197.24,162.71Z"/><path class="cls-2" d="M212.39,171.91a2.49,2.49,0,0,1-1.23-.33l-7.39-4.21a2.5,2.5,0,0,1,2.47-4.35l7.39,4.21A2.5,2.5,0,0,1,212.39,171.91Z"/><path class="cls-2" d="M152.85,127.75a2.5,2.5,0,0,1-1.24-4.67L196,97.82a2.5,2.5,0,0,1,2.47,4.35l-44.39,25.26A2.49,2.49,0,0,1,152.85,127.75Z"/><path class="cls-2" d="M205,97.5a2.5,2.5,0,0,1-1.24-4.67l7.39-4.21A2.5,2.5,0,0,1,213.63,93l-7.39,4.21A2.49,2.49,0,0,1,205,97.5Z"/><path class="cls-2" d="M139,123.61a2.5,2.5,0,0,1-2.15-1.22l-26-43.71a2.5,2.5,0,1,1,4.3-2.56l26,43.71A2.5,2.5,0,0,1,139,123.61Z"/><path class="cls-2" d="M113,184.7a2.5,2.5,0,0,1-2.16-3.75l26-44.94a2.5,2.5,0,1,1,4.33,2.5l-26,44.94A2.5,2.5,0,0,1,113,184.7Z"/><path class="cls-1" d="M160,129.8a15.2,15.2,0,1,1-15.2-15.2A15.2,15.2,0,0,1,160,129.8"/><path class="cls-2" d="M144.84,147.5a17.7,17.7,0,1,1,17.7-17.7A17.72,17.72,0,0,1,144.84,147.5Zm0-30.4a12.7,12.7,0,1,0,12.7,12.7A12.71,12.71,0,0,0,144.84,117.11Z"/></svg>