<?xml version="1.0" encoding="utf-8"?>
<!-- Generator: Adobe Illustrator 20.1.0, SVG Export Plug-In . SVG Version: 6.00 Build 0)  -->
<svg version="1.1" id="Capa_1" xmlns="http://www.w3.org/2000/svg" xmlns:xlink="http://www.w3.org/1999/xlink" x="0px" y="0px"
	 viewBox="0 0 551 551" enable-background="new 0 0 551 551" xml:space="preserve">
<rect fill="#1C1C1C" width="551" height="551"/>
<g>
	<path fill="#00CBFD" d="M433.8,428.2c0,16.2-0.1,37.3-0.1,37.3l-316.6,0.9v-38.2H433.8z"/>
	<rect x="117.1" y="121.8" fill="#00FD98" width="38.6" height="306.4"/>
	<path fill="#FE6566" d="M359.1,85.8l0,36.1l38.1-0.1l0.1,35.6c0,0,12.9,0.3,18.6,0.4c5.9,0.1,11.8,0,17.7,0c0,9.3,0,18.6,0,27.8
		c0,2.3,0,4.6,0,6.9c0,0.9,0.2,2,0,2.9c-0.2,1.1,0.3,0.6-0.8,1.5c-0.4,0.4-113.1-1.9-113.1-1.9s-0.4-12.6-0.4-16.8
		c0-4.8,0-9.6,0-14.3c0-9.6,0-19.1,0-28.7c0-10.6,0-21.2,0.1-31.8c0-6.4-0.8-12-2.7-18.1C330.9,85.6,345,85.8,359.1,85.8
		C359.1,97.3,359.1,85.8,359.1,85.8z"/>
	<polygon fill="#FDFE98" points="117.1,121.8 117.1,120.8 117.1,87.8 117.2,84.6 320.8,85.4 320.9,122.1 155.8,121.8 	"/>
	<path fill="#9833FD" d="M433.8,428.2h-38.6V239.7h38.6C433.8,239.7,433.8,393.3,433.8,428.2C421.8,428.2,433.8,428.2,433.8,428.2z"
		/>
	<path d="M395.2,196.5v231.7H155.8V121.8l165.2,0.2l-0.1,73.6C320.8,195.7,383.7,196.5,395.2,196.5
		C395.2,273.7,395.2,196.5,395.2,196.5z"/>
	<rect x="395.2" y="196.5" fill="#4C1880" width="38.6" height="43.1"/>
</g>
</svg>
