<?xml version="1.0" encoding="utf-8"?>
<!-- Generator: Adobe Illustrator 19.1.0, SVG Export Plug-In . SVG Version: 6.00 Build 0)  -->
<svg version="1.1" id="Layer_1" xmlns="http://www.w3.org/2000/svg" xmlns:xlink="http://www.w3.org/1999/xlink" x="0px" y="0px"
	 viewBox="-71 73 256 256" enable-background="new -71 73 256 256" xml:space="preserve">
<g>
	<rect x="-71" y="73" fill="#43C2CC" width="256" height="256"/>
	<g>
		<g>
			<path fill="#FFFFFF" d="M100.4,261.9H13.7c-2,0-3.6-1.6-3.6-3.6v-78.1c0-2,1.6-3.6,3.6-3.6h86.7c2,0,3.6,1.6,3.6,3.6v78.1
				C104,260.3,102.4,261.9,100.4,261.9z M17.3,254.7h79.6v-71H17.3V254.7z"/>
		</g>
		<g>
			<path fill="#FFFFFF" d="M87.7,182.6c-2,0-3.6-1.6-3.6-3.6v-23.5c0-15-12.2-27.1-27.1-27.1s-27.1,12.2-27.1,27.1V179
				c0,2-1.6,3.6-3.6,3.6s-3.6-1.6-3.6-3.6v-23.5c0-18.9,15.4-34.3,34.3-34.3s34.3,15.4,34.3,34.3V179
				C91.3,181,89.7,182.6,87.7,182.6z"/>
		</g>
		<g>
			<path fill="#FFFFFF" d="M51.8,238.7c-0.8,0-1.6-0.3-2.3-0.8l-14.8-12.4c-1.5-1.3-1.7-3.5-0.4-5c1.3-1.5,3.5-1.7,5-0.4l11.9,10
				l23-31.3c1.2-1.6,3.4-1.9,5-0.8c1.6,1.2,1.9,3.4,0.8,5l-25.2,34.4c-0.6,0.8-1.5,1.3-2.4,1.4C52.1,238.6,51.9,238.7,51.8,238.7z"
				/>
		</g>
	</g>
</g>
</svg>
