<?xml version="1.0" encoding="UTF-8"?>
<svg width="256px" height="256px" viewBox="0 0 256 256" version="1.1" xmlns="http://www.w3.org/2000/svg" xmlns:xlink="http://www.w3.org/1999/xlink">
    <!-- Generator: Sketch 52.4 (67378) - http://www.bohemiancoding.com/sketch -->
    <title>encrypt-decrypt-file-stepicon</title>
    <desc>Created with Sketch.</desc>
    <defs>
        <linearGradient x1="0%" y1="100%" x2="100%" y2="0%" id="linearGradient-1">
            <stop stop-color="#0DD3C5" offset="0%"></stop>
            <stop stop-color="#0D83CD" offset="100%"></stop>
        </linearGradient>
        <linearGradient x1="132.409355%" y1="-11.0977103%" x2="-18.5997596%" y2="109.263393%" id="linearGradient-2">
            <stop stop-color="#FFFFFF" stop-opacity="0.399060236" offset="0%"></stop>
            <stop stop-color="#FFFFFF" offset="100%"></stop>
        </linearGradient>
    </defs>
    <g id="New-Icons" stroke="none" stroke-width="1" fill="none" fill-rule="evenodd">
        <g id="Encrypt/Decrypt-File">
            <g id="encrypt-decrypt-file-stepicon">
                <rect id="Rectangle-path" fill="url(#linearGradient-1)" fill-rule="nonzero" x="0" y="0" width="256" height="256"></rect>
                <path d="M176.25,47.5833333 L76.75,47.5833333 C67.6291667,47.5833333 60.1666667,55.0458333 60.1666667,64.1666667 L60.1666667,159.520833 C60.1666667,164.495833 62.6541667,169.470833 66.8,172.7875 L116.55,210.1 C122.354167,214.245833 130.645833,214.245833 136.45,210.1 L186.2,172.7875 C190.345833,169.470833 192.833333,164.495833 192.833333,159.520833 L192.833333,64.1666667 C192.833333,55.0458333 185.370833,47.5833333 176.25,47.5833333 Z M176.25,159.520833 L126.5,196.833333 L76.75,159.520833 L76.75,64.1666667 L176.25,64.1666667 L176.25,159.520833 Z M118.208333,128.0125 L118.208333,155.375 L134.791667,155.375 L134.791667,128.0125 C139.766667,125.525 143.083333,119.720833 143.083333,113.916667 C143.083333,104.795833 135.620833,97.3333333 126.5,97.3333333 C117.379167,97.3333333 109.916667,104.795833 109.916667,113.916667 C109.916667,119.720833 113.233333,125.525 118.208333,128.0125 Z" id="icons-/-security-shield" fill="url(#linearGradient-2)"></path>
                <path d="M178.434618,168.644276 C178.252687,169.328085 177.706895,169.873877 177.016814,170.062081 L158.560264,175.005576 C157.863908,175.181233 157.136186,174.993029 156.628035,174.484878 L143.114979,160.971822 C142.613102,160.469944 142.418624,159.729675 142.600555,159.045867 L147.719707,139.918055 C147.907911,139.234247 148.447429,138.694728 149.137511,138.506524 L167.594061,133.556756 C167.769718,133.512842 167.939102,133.487748 168.108486,133.487748 C168.635457,133.487748 169.149882,133.701046 169.52629,134.077454 L183.039345,147.596783 C183.541223,148.098661 183.741974,148.832657 183.55377,149.522738 L178.434618,168.644276 Z M178.396977,125.206767 C174.73327,121.530513 169.331812,120.093888 164.350677,121.442685 L145.9004,126.386179 C145.787478,126.417547 145.687102,126.486555 145.57418,126.524196 L85.0853772,66.0416667 L76.2146899,74.9123539 L85.1920262,83.8834167 L67.8333333,101.24211 L76.7040206,110.112797 L88.5420594,98.2684846 L97.1178936,106.844319 L85.7726301,118.592663 L94.6495908,127.46335 L111.502961,110.206899 L136.30199,134.999654 C136.069872,135.557993 135.762472,136.078691 135.605635,136.668397 L130.48021,155.796209 C129.14396,160.796165 130.580585,166.178803 134.244292,169.842509 L147.751074,183.349291 C150.511401,186.109618 154.250389,187.615251 158.058386,187.615251 C159.306807,187.615251 160.567774,187.452141 161.809921,187.119647 L180.266471,182.176152 C185.272701,180.83363 189.21244,176.89389 190.554963,171.893934 L195.674115,152.772396 C197.016638,147.759893 195.567466,142.370982 191.903759,138.713549 L178.396977,125.206767 Z" id="icons-/-key" fill="#760FC3" style="mix-blend-mode: multiply;"></path>
            </g>
        </g>
    </g>
</svg>