<?xml version="1.0" encoding="UTF-8"?>
<svg viewBox="0 0 256 256" version="1.1" xmlns="http://www.w3.org/2000/svg" xmlns:xlink="http://www.w3.org/1999/xlink">
    <!-- Generator: Sketch 43.2 (39069) - http://www.bohemiancoding.com/sketch -->
    <title>icon</title>
    <desc>Created with Sketch.</desc>
    <defs></defs>
    <g id="Page-1" stroke="none" stroke-width="1" fill="none" fill-rule="evenodd">
        <g id="icon" fill-rule="nonzero">
            <g id="items" transform="translate(2.000000, 39.000000)">
                <path d="M243.380282,157.930878 C243.380282,164.385269 238.107042,169.629462 231.616901,169.629462 L15.8197183,169.629462 C9.32957746,169.629462 4.05633803,164.385269 4.05633803,157.930878 L4.05633803,15.9342776 C4.05633803,9.47988669 9.32957746,4.23569405 15.8197183,4.23569405 L232.022535,4.23569405 C238.512676,4.23569405 243.785915,9.47988669 243.785915,15.9342776 L243.785915,157.930878 L243.380282,157.930878 L243.380282,157.930878 Z" id="Shape" fill="#FFFFFF"></path>
                <path d="M6.08450704,16.3376771 C6.08450704,9.88328612 11.3577465,4.23569405 17.8478873,4.23569405 L234.050704,4.23569405 C240.540845,4.23569405 243.785915,10.690085 243.785915,17.1444759 L243.785915,160.754674 C243.785915,167.209065 239.729577,172.049858 233.239437,172.049858" id="Shape" fill="#E9F2F1"></path>
                <path d="M233.64507,12.3036827 C236.890141,12.3036827 239.323944,13.9172805 239.323944,17.1444759 L239.323944,160.754674 C239.323944,163.98187 236.890141,165.595467 233.64507,165.595467 L17.8478873,165.595467 C14.6028169,165.595467 12.1690141,163.98187 12.1690141,160.754674 L12.1690141,17.1444759 C12.1690141,13.9172805 14.6028169,12.3036827 17.8478873,12.3036827 L235.267606,12.3036827 L233.64507,12.3036827 Z M233.64507,0.201699717 L17.8478873,0.201699717 C8.11267606,0.201699717 0,7.46288952 0,17.1444759 L0,160.754674 C0,170.436261 8.11267606,177.69745 17.8478873,177.69745 L234.050704,177.69745 C243.785915,177.69745 251.898592,170.436261 251.898592,160.754674 L251.898592,17.1444759 C251.492958,7.46288952 243.380282,0.201699717 233.64507,0.201699717 L233.64507,0.201699717 Z" id="Shape" fill="#B8BFBE"></path>
                <path d="M233.64507,0.201699717 L133.859155,0.201699717 L133.859155,177.69745 L233.64507,177.69745 C243.380282,177.69745 251.492958,170.436261 251.492958,160.754674 L251.492958,17.1444759 C251.492958,7.46288952 243.380282,0.201699717 233.64507,0.201699717 Z" id="Shape" fill="#1BCEB8"></path>
                <path d="M233.64507,4.23569405 L133.859155,4.23569405 L133.859155,107.10255 L232.428169,172.049858 C238.91831,172.049858 243.380282,166.805666 243.380282,160.351275 L243.380282,17.1444759 C243.380282,10.690085 240.135211,4.23569405 233.64507,4.23569405 Z" id="Shape" fill="#0DBFBA"></path>
                <g id="Group" transform="translate(163.267606, 32.271955)" fill="#FFFFFF">
                    <path d="M26.9746479,113.153541 L2.63661972,88.9495751 C-0.608450704,85.7223796 -0.608450704,80.8815864 2.63661972,77.6543909 C5.88169014,74.4271955 10.7492958,74.4271955 13.9943662,77.6543909 L26.9746479,90.5631728 L39.9549296,77.6543909 C43.2,74.4271955 48.0676056,74.4271955 51.3126761,77.6543909 C54.5577465,80.8815864 54.5577465,85.7223796 51.3126761,88.9495751 L26.9746479,113.153541 Z" id="Shape"></path>
                    <path d="M26.9746479,0.201699717 L51.3126761,24.4056657 C54.5577465,27.6328612 54.5577465,32.4736544 51.3126761,35.7008499 C48.0676056,38.9280453 43.2,38.9280453 39.9549296,35.7008499 L26.9746479,22.792068 L13.9943662,35.7008499 C10.7492958,38.9280453 5.88169014,38.9280453 2.63661972,35.7008499 C-0.608450704,32.4736544 -0.608450704,27.6328612 2.63661972,24.4056657 L26.9746479,0.201699717 Z" id="Shape"></path>
                </g>
                <path d="M85.5887324,80.0747875 C81.1267606,77.6543909 75.4478873,76.0407932 69.7690141,76.0407932 L70.9859155,68.376204 L90.8619718,68.376204 C92.8901408,68.376204 92.8901408,66.7626062 92.8901408,64.3422096 L92.8901408,57.4844193 C92.8901408,55.4674221 92.8901408,52.2402266 90.8619718,52.2402266 L61.656338,52.2402266 C59.628169,52.2402266 58.0056338,54.2572238 57.6,56.274221 L53.543662,86.125779 C53.543662,87.3359773 53.9492958,88.5461756 54.7605634,89.3529745 C55.571831,90.1597734 57.1943662,90.5631728 58.4112676,90.5631728 C60.4394366,90.1597734 62.8732394,90.1597734 66.1183099,90.1597734 C75.0422535,90.1597734 79.9098592,93.3869688 79.9098592,99.8413598 C79.9098592,106.295751 74.2309859,109.119547 69.3633803,109.119547 C64.4957746,109.119547 60.0338028,107.505949 58.4112676,106.295751 C57.1943662,105.488952 55.9774648,105.488952 55.1661972,105.892351 C54.3549296,106.295751 53.1380282,107.10255 52.7323944,108.312748 L50.7042254,114.767139 C50.2985915,116.380737 50.7042254,118.397734 52.3267606,119.204533 C55.571831,121.22153 62.0619718,123.641926 69.7690141,123.641926 C85.1830986,123.641926 96.5408451,113.153541 96.5408451,99.0345609 C96.1352113,90.9665722 92.484507,84.1087819 85.5887324,80.0747875 Z" id="Shape" fill="#9FAAA9"></path>
            </g>
        </g>
    </g>
</svg>