<svg id="Layer_1" data-name="Layer 1" xmlns="http://www.w3.org/2000/svg" viewBox="0 0 256 256"><defs><style>.cls-1{fill:#2c8ebb;}.cls-2{fill:#fff;}</style></defs><title>Artboard 100</title><rect class="cls-1" width="256" height="256"/><path class="cls-2" d="M204.13,163.73c-.86-6.78-6.59-11.45-13.93-11.36-11,.14-20.19,5.82-26.29,9.59a57.2,57.2,0,0,1-6.2,3.39,50.67,50.67,0,0,0-2.82-20.76,51.3,51.3,0,0,0-11.5-18.8c3.87-5.63,9.16-13.84,11.64-26.53,2.15-10.83,1.48-27.68-3.44-37.13a7.59,7.59,0,0,0-4.77-3.87,9.34,9.34,0,0,0-5.68.19c-4.82-10-6.49-11-7.78-11.88a9.73,9.73,0,0,0-8.78-1c-4,1.43-7.35,5.25-10.55,12-.48,1-.91,2-1.29,2.91A35.18,35.18,0,0,0,89.08,71.87c-1,1.1-3,1.91-5,2.67h0C79.92,76,78,79.46,75.67,85.66c-3.24,8.69.1,17.23,3.39,22.76-4.49,4-10.45,10.4-13.6,17.9a56.93,56.93,0,0,0-4.2,23.24c-3.34,3.53-8.49,10.16-9.07,17.61a32.66,32.66,0,0,0,4.68,20,13.27,13.27,0,0,0,1.57,2,11.89,11.89,0,0,0,0,4.1,11.06,11.06,0,0,0,5.92,7.78c6.3,3.34,15.08,4.77,21.86,1.38,2.43,2.58,6.87,5.06,14.94,5.06h.48c2.05,0,28.11-1.38,35.69-3.24a17.36,17.36,0,0,0,7.25-3.53,133.59,133.59,0,0,0,31-14.32c9-5.82,12.07-7.06,18.75-8.69a12.67,12.67,0,0,0,9.73-14Zm-11.36,7c-7.64,1.81-11.5,3.48-20.95,9.64a125.64,125.64,0,0,1-30.88,14s-1.34,2-5.2,2.91c-6.68,1.62-31.83,3-34.12,3.05-6.16,0-9.93-1.57-11-4.1-3.2-7.64,4.58-11,4.58-11a19.89,19.89,0,0,1-2.72-2c-.91-.91-1.86-2.72-2.15-2.05-1.19,2.91-1.81,10-5,13.22-4.39,4.44-12.69,3-17.61.38-5.39-2.86.38-9.59.38-9.59s-2.91,1.72-5.25-1.81a25.65,25.65,0,0,1-3.53-15.6c.57-7.78,9.26-15.32,9.26-15.32a49.39,49.39,0,0,1,3.48-23.29c4.53-10.74,16.75-19.37,16.75-19.37S78.58,98.45,82.4,88.24c2.48-6.68,3.48-6.63,4.29-6.92,2.86-1.1,5.63-2.29,7.68-4.53a27.86,27.86,0,0,1,23.34-9s6.2-18.85,11.93-15.18c1.77,1.15,8.11,15.27,8.11,15.27s6.78-4,7.54-2.48c4.1,8,4.58,23.19,2.77,32.45-3.05,15.27-10.69,23.48-13.74,28.63-.72,1.19,8.21,5,13.84,20.57,5.2,14.27.57,26.25,1.38,27.58.14.24.19.33.19.33s6,.48,17.94-6.92c6.39-4,14-8.4,22.62-8.49,8.35-.14,8.78,9.64,2.48,11.17Z"/></svg>