<?xml version="1.0" encoding="UTF-8"?>
<svg width="256px" height="256px" viewBox="0 0 256 256" version="1.1" xmlns="http://www.w3.org/2000/svg" xmlns:xlink="http://www.w3.org/1999/xlink">
    <!-- Generator: Sketch 52.1 (67048) - http://www.bohemiancoding.com/sketch -->
    <title>generate-xctestrun-file</title>
    <desc>Created with Sketch.</desc>
    <defs>
        <linearGradient x1="50%" y1="0%" x2="50%" y2="100%" id="linearGradient-1">
            <stop stop-color="#54C3FA" offset="0%"></stop>
            <stop stop-color="#1586F5" offset="100%"></stop>
        </linearGradient>
        <rect id="path-2" x="0" y="0" width="256" height="256"></rect>
        <linearGradient x1="132.409355%" y1="-11.0977103%" x2="-18.5997596%" y2="109.263393%" id="linearGradient-4">
            <stop stop-color="#FFFFFF" stop-opacity="0.399060236" offset="0%"></stop>
            <stop stop-color="#FFFFFF" offset="100%"></stop>
        </linearGradient>
        <linearGradient x1="50%" y1="0%" x2="70.7817359%" y2="100%" id="linearGradient-5">
            <stop stop-color="#135EA7" stop-opacity="0.855383832" offset="0%"></stop>
            <stop stop-color="#1E568F" offset="100%"></stop>
        </linearGradient>
        <linearGradient x1="-24.4959615%" y1="123.982136%" x2="96.7950856%" y2="6.14922306%" id="linearGradient-6">
            <stop stop-color="#FFFFFF" stop-opacity="0.399060236" offset="0%"></stop>
            <stop stop-color="#FFFFFF" offset="100%"></stop>
        </linearGradient>
    </defs>
    <g id="New-Icons" stroke="none" stroke-width="1" fill="none" fill-rule="evenodd">
        <g id="Generate-Xctestrun-File">
            <g id="generate-xctestrun-file">
                <mask id="mask-3" fill="white">
                    <use xlink:href="#path-2"></use>
                </mask>
                <use id="Rectangle" fill="url(#linearGradient-1)" xlink:href="#path-2"></use>
                <path d="M69,37 L159.738281,37 L193,71.9585974 L193,211 C193,214.313708 190.313708,217 187,217 L69,217 C65.6862915,217 63,214.313708 63,211 L63,43 C63,39.6862915 65.6862915,37 69,37 Z" id="Rectangle-6" fill="url(#linearGradient-4)" mask="url(#mask-3)"></path>
                <path d="M78.05,192.155 L74.83,197.56 L70,197.56 L75.29,189.165 L70.46,181.46 L75.29,181.46 L78.05,186.175 L80.81,181.46 L85.64,181.46 L80.81,189.165 L86.1,197.56 L81.27,197.56 L78.05,192.155 Z M89.575,189.51 C89.575,192.155 91.53,194.11 94.175,194.11 C96.935,194.11 98.545,192.04 98.545,192.04 L101.075,194.8 C101.075,194.8 98.89,198.02 94.175,198.02 C89.115,198.02 85.205,194.11 85.205,189.51 C85.205,184.91 89.115,181 94.175,181 C98.775,181 100.96,184.22 100.96,184.22 L98.315,186.98 C98.315,186.98 96.82,184.91 94.175,184.91 C91.53,184.91 89.575,186.865 89.575,189.51 Z M102.365,197.56 L102.365,181.46 L109.955,181.46 C113.405,181.46 115.82,183.875 115.82,186.98 C115.82,190.43 113.06,191.695 113.06,191.695 L116.395,197.56 L111.795,197.56 L109.035,192.5 L106.735,192.5 L106.735,197.56 L102.365,197.56 Z M111.45,186.98 C111.45,186.06 110.76,185.37 109.725,185.37 L106.735,185.37 L106.735,188.59 L109.725,188.59 C110.76,188.59 111.45,187.9 111.45,186.98 Z M122.285,193.88 L130.565,193.88 L130.565,197.56 L117.915,197.56 L117.915,181.46 L130.335,181.46 L130.335,185.14 L122.285,185.14 L122.285,187.67 L128.495,187.67 L128.495,191.12 L122.285,191.12 L122.285,193.88 Z M138.985,192.615 C138.985,190.43 131.51,191.58 131.51,185.945 C131.51,183.415 133.925,181 137.605,181 C141.515,181 143.24,183.3 143.24,183.3 L140.71,185.945 C140.71,185.945 139.652,184.68 138.065,184.68 C137.03,184.68 136.34,185.37 136.34,186.06 C136.34,188.245 143.815,187.095 143.815,192.73 C143.815,195.605 141.4,198.02 137.375,198.02 C133.12,198.02 130.935,195.26 130.935,195.26 L133.465,192.615 C133.465,192.615 134.845,194.34 136.915,194.34 C138.18,194.34 138.985,193.535 138.985,192.615 Z M152.58,194.11 C154.19,194.11 155.57,192.73 155.57,190.89 L155.57,181.46 L159.94,181.46 L159.94,190.89 C159.94,194.915 156.835,198.02 152.58,198.02 C148.325,198.02 145.22,194.915 145.22,190.89 L145.22,181.46 L149.59,181.46 L149.59,190.89 C149.59,192.73 150.97,194.11 152.58,194.11 Z M173.995,197.56 L162.495,197.56 L162.495,181.46 L166.865,181.46 L166.865,193.65 L173.995,193.65 L173.995,197.56 Z M172.525,181.46 L185.865,181.46 L185.865,185.37 L181.38,185.37 L181.38,197.56 L177.01,197.56 L177.01,185.37 L172.525,185.37 L172.525,181.46 Z" id="xcresult" fill="url(#linearGradient-5)" style="mix-blend-mode: multiply;" mask="url(#mask-3)"></path>
                <path d="M158.731207,37.3828125 L192.784706,72.2668851 L164.731207,72.2668851 C161.417498,72.2668851 158.731207,69.5805936 158.731207,66.2668851 L158.731207,37.3828125 Z" id="Rectangle-6-Copy-3" fill="url(#linearGradient-6)" mask="url(#mask-3)"></path>
                <path d="M142.147197,79.0557246 C144.780074,79.133744 146.262792,81.2365143 146.284113,81.2365143 C148.822247,81.2365143 150.609251,81.2365143 151.664869,81.2365143 C151.664869,77.4846694 151.664869,70.2296823 151.664869,69.1216797 C149.987222,69.1216797 149.343036,69.1216797 146.284113,69.1216797 C144.925762,70.2019703 144.409728,70.8720419 142.50225,70.9631607 C139.590965,71.1022305 139.390569,68.4181816 129.279276,68.4181816 C119.167983,68.4181816 109.604463,73.0683311 104.75349,78.4891234 C105.936344,78.1350384 106.614347,77.9338194 107.502879,77.4846694 C113.199318,74.6051389 118.695825,74.0533531 122.911785,77.4846694 C127.785353,81.4512035 129.05091,90.6854443 128.318427,104.263446 C127.678447,116.12673 126.458885,128.965301 125.143969,160.741033 C125.051059,162.986272 126.831685,165.418182 131.466853,165.418182 C134.871945,165.418182 137.205733,162.915304 137.205733,160.741033 C137.205733,147.664552 135.904748,124.526364 135.206268,104.263446 C134.718783,90.1215079 133.134958,78.7886669 142.147197,79.0557246 Z" id="Oval" fill="url(#linearGradient-5)" style="mix-blend-mode: multiply;" mask="url(#mask-3)" transform="translate(128.209180, 116.918182) rotate(15.000000) translate(-128.209180, -116.918182) "></path>
            </g>
        </g>
    </g>
</svg>