<?xml version="1.0" encoding="UTF-8"?>
<svg width="256px" height="256px" viewBox="0 0 256 256" version="1.1" xmlns="http://www.w3.org/2000/svg" xmlns:xlink="http://www.w3.org/1999/xlink" style="background: #FFFFFF;">
    <title>icon</title>
    <g id="Page-1" stroke="none" stroke-width="1" fill="none" fill-rule="evenodd">
        <g id="icon_256x256_Normal2x" transform="translate(59.000000, 59.000000)" fill-rule="nonzero">
            <g id="Group" fill="#41C000">
                <path d="M60.277628,135.95936 C56.6513627,134.750875 53.7973576,133.105992 50.0032097,130.084778 C46.9477454,127.60067 18.2398119,99.2684021 11.6252354,92.1853352 C6.52160281,86.6800131 4.37270487,83.860214 2.69387834,80.3690341 C-0.764504288,73.2188292 -0.898810409,64.7594318 2.32453651,57.6092268 C4.90992935,51.9360595 7.99897015,48.5120177 30.9317404,25.6850724 C48.626572,8.09489683 52.1185311,5.0065454 56.8863984,2.72385086 C66.0192147,-1.67369302 76.3272095,-0.700190941 84.7884952,5.30866673 C86.0979799,6.24859978 89.2541738,8.9676918 91.8395666,11.3510934 C98.957791,17.9977628 126.792735,46.095047 129.680316,49.6197959 C132.970816,53.5809423 134.716796,56.5350176 135.959128,60.3283188 C136.932847,63.215256 137,63.7187916 137,68.5191639 C137,74.1587622 136.563505,76.3407496 134.58249,80.5368793 C132.534321,84.8337161 129.814622,87.8884985 110.508118,107.257833 C87.373888,130.487607 85.5943319,132.098921 80.2556636,134.683736 C76.293633,136.597172 74.2790412,137 68.5374545,137 C63.6017045,137 63.1316331,136.932862 60.277628,135.95936 Z M60.4790872,97.8585025 C60.9491586,97.6235193 70.8878116,87.7877913 82.6060207,76.0050593 C104.800107,53.6816495 105.438061,52.9431306 104.934413,50.7275742 C104.598648,49.1498294 102.852669,47.0349801 101.308148,46.3300303 C99.4278625,45.4908044 98.5548727,45.5243734 96.9096227,46.4978755 C96.1373625,46.934273 87.4074646,55.5615155 77.4688116,65.6322267 C61.2513474,82.081055 59.2703321,83.9609211 58.3301892,83.9609211 C57.4236229,83.9609211 56.2484444,82.9202809 48.693725,75.4343856 C41.4411944,68.2506116 39.9302506,66.8742811 38.7886485,66.6057288 C35.2631128,65.7329338 31.4018118,69.492666 32.0733425,73.118122 C32.2748016,74.2259003 33.752169,75.8707831 43.9258577,86.0757704 C57.2557403,99.4362473 57.3228933,99.4698163 60.4790872,97.8585025 Z" id="Shape"></path>
            </g>
            <g id="Group" transform="translate(31.000000, 44.000000)" fill="#FFFFFF">
                <path d="M25.0998731,54.5498618 C24.0651654,54.181231 21.1946858,51.4667679 12.2160926,42.4185575 C0.734174128,30.8569554 0.634041118,30.7564197 0.233509079,28.9132658 C-0.133645289,27.2711831 -0.10026762,26.8690404 0.567285778,25.159934 C1.8690149,21.6746975 4.87300519,20.0661267 8.51117121,20.8704121 C10.3803207,21.2725548 10.5138314,21.3730904 18.9583819,29.8180868 L27.5030654,38.3301069 L45.4936294,20.0326148 C55.3734197,9.94553585 64.1183692,1.33298005 64.8860557,0.897325475 C70.3266158,-2.31981599 77.0021498,3.71232426 74.4320692,9.50988128 C73.5308722,11.5205947 32.1091838,53.5109932 30.1065236,54.4158143 C28.5043955,55.1530758 26.9022673,55.1865877 25.0998731,54.5498618 L25.0998731,54.5498618 Z" id="Path"></path>
            </g>
        </g>
    </g>
</svg>