<?xml version="1.0" encoding="utf-8"?>
<!-- Generator: Adobe Illustrator 19.1.0, SVG Export Plug-In . SVG Version: 6.00 Build 0)  -->
<svg version="1.1" id="Layer_1" xmlns="http://www.w3.org/2000/svg" xmlns:xlink="http://www.w3.org/1999/xlink" x="0px" y="0px"
	 viewBox="0 0 256 256" enable-background="new 0 0 256 256" xml:space="preserve">
<g>
	<rect x="0.7" y="0" fill="#F6A81C" width="256" height="256"/>
	<g>
		<g>
			<path id="polygon287_1_" fill="#FFFFFF" d="M92.1,130.3l-15.9,6.8l14.8,6.3l17.1-6.3L92.1,130.3z M68.1,138.9l-0.5,30.8L90.9,180
				v-32L68.1,138.9z M116,138.9l-21.1,8v30.2l21.1-8.6V138.9z"/>
			<path id="polygon311_1_" fill="#FFFFFF" d="M141.2,43l-16,6.8l14.9,6.3l17.1-6.3L141.2,43z M118.9,52.1V83l19.9,5.8l0.6-28
				L118.9,52.1z M163.4,53.9l-18.8,8v30.3l18.8-8.6V53.9z"/>
			<path id="use3387_1_" fill="#FFFFFF" d="M65.8,86.4l-15.9,6.8l14.8,6.3l17.1-6.3L65.8,86.4z M41.8,95l-0.5,30.8l23.3,10.3v-32
				L41.8,95z M89.7,95l-21.1,8v30.2l21.1-8.6V95z"/>
			<path id="use3389_1_" fill="#FFFFFF" d="M117.1,85.3l-15.9,6.8l14.8,6.3l17.1-6.3L117.1,85.3z M93.2,93.8l-0.5,30.8l23.3,10.3
				v-32L93.2,93.8z M141.1,93.8l-21.1,8V132l21.1-8.6V93.8z"/>
			<path id="use3391_1_" fill="#FFFFFF" d="M191.3,43l-15.9,6.8l14.8,6.3l17.1-6.3L191.3,43z M167.4,51.6l-0.5,30.8l23.3,10.3v-32
				L167.4,51.6z M215.3,51.6l-21.1,8v30.2l21.1-8.6V51.6z"/>
		</g>
		<text transform="matrix(1 0 0 1 127.8726 197.261)"><tspan x="0" y="0" fill="#231F20" font-family="'HelveticaNeue-Bold'" font-size="72.0517px" letter-spacing="1">S</tspan><tspan x="48.2" y="0" fill="#231F20" font-family="'HelveticaNeue-Bold'" font-size="72.0517px">3</tspan></text>
	</g>
</g>
</svg>
