<svg width="256" height="256" viewBox="0 0 256 256" fill="none" xmlns="http://www.w3.org/2000/svg">
<rect width="256" height="256" fill="url(#paint0_linear)"/>
<path d="M162.911 63.8517L162.049 65.9501L155.295 82.0181C155.956 80.1785 154.576 78.1952 152.593 78.1952H97.3811C95.3117 78.1952 93.9321 80.2935 94.7369 82.1906L107.987 113.809C108.446 114.873 109.481 115.563 110.631 115.563H136.9C138.941 115.563 140.321 117.632 139.573 119.501L138.74 121.513L131.986 137.61C132.647 135.741 131.267 133.758 129.284 133.758H120.661C118.621 133.758 117.213 135.856 118.017 137.753L140.378 191.189C141.326 193.46 139.659 195.961 137.188 195.961H123.421C122.041 195.961 120.776 195.127 120.23 193.834L67.6052 67.9622C66.0244 64.1679 68.7835 60 72.8935 60H160.209C162.221 60 163.601 61.9834 162.911 63.8517Z" fill="white"/>
<path d="M189.353 77.9077L163.946 138.415C162.595 141.605 159.462 143.703 155.984 143.703H133.71C131.669 143.703 130.261 141.605 131.066 139.708L131.899 137.753C131.928 137.696 131.928 137.667 131.957 137.61L138.711 121.513C137.906 123.41 139.314 125.508 141.355 125.508H147.362C148.512 125.508 149.575 124.818 150.006 123.755L163.285 92.1362C164.089 90.239 162.681 88.1407 160.64 88.1407H157.048C155.007 88.1407 153.599 86.0424 154.404 84.1452L155.237 82.1906C155.266 82.1331 155.295 82.0756 155.295 82.0181L162.049 65.9501C161.244 67.8472 162.652 69.9455 164.693 69.9455H184.065C188.175 69.9168 190.962 74.1135 189.353 77.9077Z" fill="#A1CBFD"/>
<defs>
<linearGradient id="paint0_linear" x1="0" y1="0" x2="256" y2="256" gradientUnits="userSpaceOnUse">
<stop offset="0.0889272" stop-color="#066FEF"/>
<stop offset="1" stop-color="#0558BD"/>
</linearGradient>
</defs>
</svg>
