<svg version="1.0" id="Layer_1" xmlns="http://www.w3.org/2000/svg" xmlns:xlink="http://www.w3.org/1999/xlink" x="0px" y="0px"
	 width="256px" height="256px" viewBox="0 0 754 750" enable-background="new 0 0 754 750" margin="60px" xml:space="preserve">
<path fill="#132322" opacity="1.000000" stroke="none" 
	d="
M476.000000,751.000000 
	C317.333344,751.000000 159.166672,751.000000 1.000000,751.000000 
	C1.000000,501.000000 1.000000,251.000000 1.000000,1.000000 
	C252.333328,1.000000 503.666656,1.000000 755.000000,1.000000 
	C755.000000,251.000000 755.000000,501.000000 755.000000,751.000000 
	C662.166687,751.000000 569.333313,751.000000 476.000000,751.000000 
M610.063416,438.218140 
	C623.838013,397.730988 637.770813,357.296661 651.308350,316.730408 
	C656.640137,300.753021 659.147156,284.479401 653.567993,267.786102
	C643.862915,238.748215 615.967163,218.337067 584.241089,218.190842 
	C530.419617,217.942764 476.596313,218.093506 422.773865,218.013794 
	C420.719360,218.010757 418.665802,217.354156 416.921509,216.298859 
	C431.965118,172.055313 447.008728,127.811760 462.195160,83.148193 
	C460.296356,82.685852 458.735352,82.110283 457.132416,81.947380 
	C447.196075,80.937592 437.269531,79.568329 427.304626,79.146172 
	C363.689789,76.451248 300.055634,75.735237 236.444000,79.020340 
	C214.294067,80.164230 197.633087,91.531288 186.674088,110.365768 
	C181.030701,120.064659 176.751846,130.726120 173.074768,141.373398 
	C147.545135,215.296616 122.256966,289.303619 97.072128,363.345245 
	C89.698059,385.024475 81.980431,406.412445 79.237663,429.636078 
	C75.464073,461.587982 102.284706,492.548828 128.463333,497.638397 
	C139.374588,499.759705 150.548752,501.567596 161.618546,501.657959 
	C214.100616,502.086426 266.587921,501.872833 319.103302,502.683472 
	C309.583130,530.354370 300.072083,558.028381 290.539429,585.695007 
	C284.704163,602.630798 278.835846,619.555115 272.849457,636.869019 
	C274.829987,637.335388 276.400635,637.944214 278.003632,638.046692 
	C300.582916,639.491089 323.155487,641.791931 345.751556,642.063110 
	C390.526520,642.600403 435.315033,642.008057 480.684143,642.203491 
	C512.662842,676.184326 551.799316,689.878662 597.686340,681.642456 
	C647.552612,672.692139 687.015991,633.991455 696.376526,583.250305 
	C705.980896,531.187500 688.222046,488.752563 645.893066,456.814941 
	C635.042908,448.628357 622.605835,443.500549 610.063416,438.218140 
z"/>
<path fill="#71D997" opacity="1.000000" stroke="none" 
	d="
M319.073364,501.887970 
	C266.587921,501.872833 214.100616,502.086426 161.618546,501.657959 
	C150.548752,501.567596 139.374588,499.759705 128.463333,497.638397 
	C102.284706,492.548828 75.464073,461.587982 79.237663,429.636078 
	C81.980431,406.412445 89.698059,385.024475 97.072128,363.345245 
	C122.256966,289.303619 147.545135,215.296616 173.074768,141.373398 
	C176.751846,130.726120 181.030701,120.064659 186.674088,110.365768 
	C197.633087,91.531288 214.294067,80.164230 236.444000,79.020340 
	C300.055634,75.735237 363.689789,76.451248 427.304626,79.146172 
	C437.269531,79.568329 447.196075,80.937592 457.132416,81.947380 
	C458.735352,82.110283 460.296356,82.685852 462.195160,83.148193 
	C447.008728,127.811760 431.965118,172.055313 416.548706,216.748398 
	C415.783234,217.467453 415.390564,217.736969 414.529663,218.023773 
	C377.587494,218.044876 341.113159,218.124176 304.640106,217.947449 
	C300.542389,217.927582 298.974304,219.273911 297.713074,223.044296 
	C283.043976,266.896393 268.176422,310.682098 253.377670,354.490875 
	C252.829742,356.112885 252.447632,357.790894 251.837021,359.986603 
	C290.431213,359.986603 328.218964,359.986603 366.007019,360.378601 
	C365.591675,362.369843 365.273163,364.001862 364.745789,365.563385 
	C356.293243,390.590881 347.769928,415.594543 339.354797,440.634552 
	C332.478607,461.095337 325.724335,481.597046 318.956085,502.033081 
	C318.996155,501.985504 319.073364,501.887970 319.073364,501.887970 
z"/>
<path fill="#71D897" opacity="1.000000" stroke="none" 
	d="
M414.997925,218.006470 
	C415.390564,217.736969 415.783234,217.467453 416.393860,217.100021 
	C418.665802,217.354156 420.719360,218.010757 422.773865,218.013794 
	C476.596313,218.093506 530.419617,217.942764 584.241089,218.190842 
	C615.967163,218.337067 643.862915,238.748215 653.567993,267.786102 
	C659.147156,284.479401 656.640137,300.753021 651.308350,316.730408 
	C637.770813,357.296661 623.838013,397.730988 609.601807,438.597900 
	C593.094421,434.576385 576.866272,433.040039 560.230713,434.792664 
	C485.702759,442.644287 434.511597,515.826233 452.577728,588.760254 
	C457.519897,608.711914 467.091003,626.161438 480.097961,641.882629 
	C435.315033,642.008057 390.526520,642.600403 345.751556,642.063110 
	C323.155487,641.791931 300.582916,639.491089 278.003632,638.046692 
	C276.400635,637.944214 274.829987,637.335388 272.849457,636.869019 
	C278.835846,619.555115 284.704163,602.630798 290.539429,585.695007 
	C300.072083,558.028381 309.583130,530.354370 319.088318,502.285706 
	C319.073364,501.887970 318.996155,501.985504 319.430420,502.033356 
	C356.651611,502.037262 393.438660,501.930359 430.225098,502.040619 
	C434.174683,502.052429 435.954193,501.000458 437.280365,497.096832 
	C452.201569,453.177765 467.354919,409.337616 482.433594,365.472015 
	C482.993958,363.841797 483.428772,362.168457 484.078461,359.991211 
	C481.319550,359.991211 479.334747,359.991211 477.349945,359.991180 
	C442.891785,359.991119 408.433624,360.008118 373.975555,359.948639 
	C371.914032,359.945099 369.853516,359.330566 367.918732,358.641785 
	C379.377106,324.770325 390.748962,291.270752 402.021698,257.737854 
	C406.461029,244.532349 410.679108,231.252487 414.997925,218.006470 
z"/>
<path fill="#FEFFFE" opacity="1.000000" stroke="none" 
	d="
M480.391052,642.043091 
	C467.091003,626.161438 457.519897,608.711914 452.577728,588.760254 
	C434.511597,515.826233 485.702759,442.644287 560.230713,434.792664 
	C576.866272,433.040039 593.094421,434.576385 609.526855,438.965637 
	C622.605835,443.500549 635.042908,448.628357 645.893066,456.814941 
	C688.222046,488.752563 705.980896,531.187500 696.376526,583.250305 
	C687.015991,633.991455 647.552612,672.692139 597.686340,681.642456 
	C551.799316,689.878662 512.662842,676.184326 480.391052,642.043091 
M582.221680,624.015991 
	C588.909668,620.355469 589.998474,613.970154 590.048767,607.295837 
	C590.185547,589.134460 590.133118,570.971680 590.177185,552.809448 
	C590.181641,550.958191 590.331604,549.107361 590.471802,545.960144 
	C593.947021,549.286621 596.304382,551.591553 598.714050,553.840515 
	C605.709534,560.369385 614.393188,560.636353 620.593140,554.540955 
	C626.932434,548.308594 627.306580,539.517334 620.840149,532.658936 
	C609.298340,520.417542 597.546997,508.365387 585.618652,496.500122 
	C579.176941,490.092529 569.237183,489.965149 563.049683,496.194336 
	C551.192688,508.131012 539.510315,520.249634 528.031921,532.550659 
	C521.442139,539.612671 521.680786,548.255005 527.963013,554.444275 
	C534.296387,560.683899 543.171265,560.473083 550.219055,553.591003 
	C552.546387,551.318359 554.213623,548.369812 556.182678,545.730286 
	C556.889526,546.230042 557.596313,546.729797 558.303101,547.229553 
	C558.416443,548.972595 558.625244,550.715515 558.628296,552.458740 
	C558.661011,571.120911 558.529419,589.784302 558.713318,608.444763 
	C558.851929,622.515015 568.275513,628.952026 582.221680,624.015991 
z"/>
<path fill="#142423" opacity="1.000000" stroke="none" 
	d="
M367.792542,359.000336 
	C369.853516,359.330566 371.914032,359.945099 373.975555,359.948639 
	C408.433624,360.008118 442.891785,359.991119 477.349945,359.991180 
	C479.334747,359.991211 481.319550,359.991211 484.078461,359.991211 
	C483.428772,362.168457 482.993958,363.841797 482.433594,365.472015 
	C467.354919,409.337616 452.201569,453.177765 437.280365,497.096832 
	C435.954193,501.000458 434.174683,502.052429 430.225098,502.040619 
	C393.438660,501.930359 356.651611,502.037262 319.390381,502.080933 
	C325.724335,481.597046 332.478607,461.095337 339.354797,440.634552 
	C347.769928,415.594543 356.293243,390.590881 364.745789,365.563385 
	C365.273163,364.001862 365.591675,362.369843 366.212585,360.225342 
	C366.876068,359.453461 367.334320,359.226898 367.792542,359.000336 
z"/>
<path fill="#132422" opacity="1.000000" stroke="none" 
	d="
M367.918732,358.641785 
	C367.334320,359.226898 366.876068,359.453461 366.212280,359.833313 
	C328.218964,359.986603 290.431213,359.986603 251.837021,359.986603 
	C252.447632,357.790894 252.829742,356.112885 253.377670,354.490875 
	C268.176422,310.682098 283.043976,266.896393 297.713074,223.044296 
	C298.974304,219.273911 300.542389,217.927582 304.640106,217.947449 
	C341.113159,218.124176 377.587494,218.044876 414.529663,218.023758 
	C410.679108,231.252487 406.461029,244.532349 402.021698,257.737854 
	C390.748962,291.270752 379.377106,324.770325 367.918732,358.641785 
z"/>
<path fill="#71D997" opacity="1.000000" stroke="none" 
	d="
M581.876587,624.188232 
	C568.275513,628.952026 558.851929,622.515015 558.713318,608.444763 
	C558.529419,589.784302 558.661011,571.120911 558.628296,552.458740 
	C558.625244,550.715515 558.416443,548.972595 558.303101,547.229553 
	C557.596313,546.729797 556.889526,546.230042 556.182678,545.730286 
	C554.213623,548.369812 552.546387,551.318359 550.219055,553.591003 
	C543.171265,560.473083 534.296387,560.683899 527.963013,554.444275 
	C521.680786,548.255005 521.442139,539.612671 528.031921,532.550659 
	C539.510315,520.249634 551.192688,508.131012 563.049683,496.194336 
	C569.237183,489.965149 579.176941,490.092529 585.618652,496.500122 
	C597.546997,508.365387 609.298340,520.417542 620.840149,532.658936 
	C627.306580,539.517334 626.932434,548.308594 620.593140,554.540955 
	C614.393188,560.636353 605.709534,560.369385 598.714050,553.840515 
	C596.304382,551.591553 593.947021,549.286621 590.471802,545.960144 
	C590.331604,549.107361 590.181641,550.958191 590.177185,552.809448 
	C590.133118,570.971680 590.185547,589.134460 590.048767,607.295837 
	C589.998474,613.970154 588.909668,620.355469 581.876587,624.188232 
z"/>
</svg>