<svg id="Layer_1" data-name="Layer 1" xmlns="http://www.w3.org/2000/svg" viewBox="0 0 256 256"><defs><style>.cls-1{fill:#430098;}.cls-2{fill:#fff;}</style></defs><title>heroku</title><rect class="cls-1" width="256" height="256"/><path class="cls-2" d="M176,60.63H79A12.13,12.13,0,0,0,66.9,72.76V183.24A12.13,12.13,0,0,0,79,195.37h97a12.13,12.13,0,0,0,12.13-12.13V72.76A12.13,12.13,0,0,0,176,60.63m5.39,122.61a5.4,5.4,0,0,1-5.39,5.39H79a5.4,5.4,0,0,1-5.39-5.39V72.76A5.4,5.4,0,0,1,79,67.37h97a5.4,5.4,0,0,1,5.39,5.39Z"/><polygon class="cls-2" points="97.22 175.16 112.38 161.69 97.22 148.21 97.22 175.16"/><path class="cls-2" d="M152,120.55c-2.72-2.75-7.7-6-16-6-9.14,0-18.54,2.38-25.26,4.57V80.84H97.22v58.43l9.52-4.31c.15-.07,15.52-7,29.22-7,6.84,0,8.36,3.78,8.42,6.92v40.24h13.48V134.74A21,21,0,0,0,152,120.55"/><path class="cls-2" d="M134.27,102.74h13.47a39.46,39.46,0,0,0,10.1-21.9H144.37a52.38,52.38,0,0,1-10.1,21.9"/></svg>