<svg fill="#000000" style="background-color: #ffffff" xmlns="http://www.w3.org/2000/svg"  viewBox="0 0 64 64" width="256px" height="256px"><path d="M 50.945313 0.890625 C 50.71875 0.898438 50.496094 0.988281 50.320313 1.160156 L 45.371094 5.800781 C 38.738281 2.019531 31.039063 1.007813 23.652344 2.949219 C 16.152344 4.910156 9.871094 9.679688 5.960938 16.359375 C 2.050781 23.050781 0.980469 30.859375 2.949219 38.347656 C 4.859375 45.667969 9.460938 51.828125 15.890625 55.75 L 12.71875 61.550781 C 12.492188 61.980469 12.601563 62.519531 12.988281 62.820313 C 13.171875 62.960938 13.378906 63.03125 13.597656 63.03125 C 13.847656 63.03125 14.089844 62.941406 14.28125 62.769531 L 19.738281 57.738281 C 23.308594 59.238281 27.109375 60.011719 30.949219 60.011719 C 33.417969 60.011719 35.898438 59.691406 38.347656 59.050781 C 45.847656 57.089844 52.128906 52.320313 56.039063 45.640625 C 59.949219 38.949219 61.019531 31.140625 59.050781 23.652344 C 57.421875 17.429688 53.859375 12.039063 48.878906 8.171875 L 51.890625 2.339844 C 52.109375 1.910156 51.988281 1.378906 51.597656 1.089844 C 51.40625 0.945313 51.171875 0.878906 50.945313 0.890625 Z M 31.050781 3.992188 C 35.480469 3.992188 39.859375 5.089844 43.839844 7.242188 L 21.402344 28.269531 C 21.101563 28.550781 21 28.988281 21.152344 29.371094 C 21.300781 29.75 21.671875 30 22.078125 30 L 25.828125 30 L 16.28125 42.390625 C 16.050781 42.691406 16.011719 43.097656 16.171875 43.4375 C 16.339844 43.78125 16.691406 44 17.070313 44 L 22.320313 44 L 19.75 48.707031 C 15.257813 45.855469 12.042969 41.492188 10.6875 36.328125 C 9.265625 30.898438 10.039063 25.246094 12.871094 20.402344 C 15.703125 15.558594 20.25 12.109375 25.675781 10.6875 C 27.253906 10.273438 28.875 10.042969 30.488281 10 C 31.039063 9.988281 31.476563 9.527344 31.464844 8.976563 C 31.449219 8.425781 30.984375 7.964844 30.4375 8 C 28.667969 8.046875 26.894531 8.300781 25.167969 8.75 C 19.226563 10.308594 14.246094 14.089844 11.144531 19.390625 C 8.042969 24.695313 7.195313 30.890625 8.75 36.832031 C 10.246094 42.53125 13.808594 47.347656 18.785156 50.46875 L 16.859375 53.988281 C 13.96875 52.230469 11.480469 49.96875 9.480469 47.328125 C 7.359375 44.539063 5.800781 41.339844 4.882813 37.847656 C 3.050781 30.871094 4.050781 23.597656 7.6875 17.371094 C 11.328125 11.148438 17.179688 6.710938 24.152344 4.882813 C 26.441406 4.28125 28.75 3.992188 31.050781 3.992188 Z M 47.460938 6.578125 L 47.25 6.992188 L 46.328125 8.78125 L 44.238281 12.828125 L 43.660156 13.949219 L 39.230469 22.539063 C 39.070313 22.847656 39.078125 23.21875 39.261719 23.519531 C 39.441406 23.820313 39.769531 24 40.121094 24 L 44.910156 24.011719 L 35.597656 34.378906 C 35.339844 34.671875 35.269531 35.089844 35.4375 35.449219 C 35.597656 35.808594 35.949219 36.039063 36.347656 36.039063 L 40.339844 36.039063 L 19.371094 55.371094 L 17.789063 56.820313 L 17.402344 57.179688 L 17.640625 56.738281 L 18.597656 54.988281 L 24.890625 43.480469 C 25.0625 43.171875 25.050781 42.789063 24.871094 42.488281 C 24.6875 42.191406 24.359375 42 24.011719 42 L 19.097656 42 L 28.660156 29.609375 C 28.890625 29.308594 28.929688 28.902344 28.761719 28.5625 C 28.601563 28.21875 28.25 28 27.871094 28 L 24.609375 28 L 45.621094 8.3125 L 47.121094 6.898438 Z M 34.96875 8.339844 C 34.421875 8.246094 33.910156 8.609375 33.8125 9.152344 C 33.714844 9.695313 34.082031 10.214844 34.625 10.3125 C 35.359375 10.441406 36.097656 10.609375 36.816406 10.816406 C 36.910156 10.84375 37.003906 10.859375 37.09375 10.859375 C 37.53125 10.859375 37.925781 10.574219 38.054688 10.136719 C 38.207031 9.605469 37.902344 9.050781 37.371094 8.898438 C 36.582031 8.667969 35.777344 8.480469 34.96875 8.339844 Z M 47.949219 9.980469 C 52.429688 13.582031 55.640625 18.5 57.121094 24.152344 C 58.949219 31.128906 57.949219 38.402344 54.3125 44.628906 C 50.671875 50.851563 44.820313 55.289063 37.847656 57.121094 C 32.320313 58.558594 26.609375 58.242188 21.378906 56.230469 L 43.578125 35.78125 C 43.878906 35.5 43.980469 35.058594 43.828125 34.679688 C 43.691406 34.300781 43.320313 34.039063 42.902344 34.039063 L 38.589844 34.039063 L 47.890625 23.679688 C 48.152344 23.378906 48.21875 22.960938 48.0625 22.597656 C 47.902344 22.238281 47.539063 22.011719 47.152344 22.011719 L 41.761719 22 L 45.128906 15.46875 C 52.378906 22.0625 54.140625 33.019531 49.140625 41.578125 C 48.859375 42.058594 49.019531 42.667969 49.5 42.949219 C 49.660156 43.039063 49.828125 43.078125 50 43.078125 C 50.351563 43.078125 50.679688 42.910156 50.871094 42.589844 C 56.4375 33.050781 54.351563 20.789063 46.070313 13.628906 Z M 44.847656 45.347656 C 44.589844 45.347656 44.335938 45.441406 44.140625 45.636719 C 43.746094 46.023438 43.742188 46.65625 44.128906 47.050781 L 45.535156 48.472656 C 45.730469 48.671875 45.988281 48.769531 46.246094 48.769531 C 46.5 48.769531 46.753906 48.671875 46.949219 48.480469 C 47.34375 48.09375 47.34375 47.460938 46.957031 47.066406 L 45.550781 45.644531 C 45.359375 45.449219 45.105469 45.347656 44.847656 45.347656 Z M 40.667969 48.429688 C 40.539063 48.445313 40.410156 48.484375 40.289063 48.554688 C 39.808594 48.828125 39.644531 49.4375 39.917969 49.917969 L 40.90625 51.65625 C 41.089844 51.980469 41.425781 52.160156 41.777344 52.160156 C 41.945313 52.160156 42.113281 52.117188 42.269531 52.03125 C 42.75 51.757813 42.917969 51.144531 42.644531 50.667969 L 41.65625 48.925781 C 41.449219 48.566406 41.054688 48.382813 40.667969 48.429688 Z M 36.214844 50.355469 C 36.085938 50.335938 35.953125 50.34375 35.816406 50.378906 C 35.285156 50.519531 34.964844 51.066406 35.105469 51.597656 L 35.609375 53.535156 C 35.730469 53.984375 36.132813 54.28125 36.578125 54.28125 C 36.664063 54.28125 36.746094 54.269531 36.832031 54.25 C 37.367188 54.109375 37.6875 53.5625 37.546875 53.027344 L 37.039063 51.09375 C 36.933594 50.691406 36.601563 50.410156 36.214844 50.355469 Z M 31.019531 50.984375 C 30.472656 50.984375 30.023438 51.425781 30.019531 51.980469 L 30.011719 53.980469 C 30.007813 54.53125 30.453125 54.980469 31.003906 54.984375 L 31.011719 54.984375 C 31.5625 54.984375 32.007813 54.539063 32.011719 53.988281 L 32.019531 51.988281 C 32.023438 51.4375 31.578125 50.984375 31.027344 50.984375 Z"/></svg>