<svg id="Layer_2" data-name="Layer 2" xmlns="http://www.w3.org/2000/svg" width="1000" height="1000" viewBox="0 0 1000 1000">
  <defs>
    <style>
      .cls-1 {
        fill: #7f57a4;
      }

      .cls-2 {
        fill: #fff;
      }
    </style>
  </defs>
  <title>chuck</title>
  <rect class="cls-1" x="-69" y="-44.5" width="1138" height="1089"/>
  <g id="_0aDvUJ" data-name="0aDvUJ">
    <path class="cls-2" d="M387.84053,714.55234c-6.665,3.49789-12.61342,7.04851-18.90407,9.82326-10.11919,4.46354-20.11892,3.91174-30.37086-.70162-29.12008-13.10389-46.58127-36.06451-55.75717-65.7362-3.93474-12.72374-6.2843-25.96026-8.9047-39.05376-.77991-3.8969-2.10207-5.906-5.96836-7.45951-46.70125-18.76494-91.23288-41.4162-129.99546-74.11716-16.882-14.24206-31.87422-30.21235-42.90637-49.48727C72.66,448.73007,75.56244,410.199,99.48489,373.14c8.50849-13.18082,18.94242-25.29127,29.616-36.8581,13.28936-14.40152,31.24815-20.02678,50.13117-22.70428,32.49345-4.60739,64.30864.37165,95.9571,7.24725,4.24745.92276,8.47114,1.955,13.49756,3.12007.226-3.16895.45223-6.13639.6468-9.10589,1.0225-15.60586,2.11093-31.20789,3.0276-46.82.58646-9.98766,4.70055-18.818,9.583-27.10269,8.73995-14.83014,18.36953-29.13278,27.41676-43.78588,9.57019-15.50007,23.67645-26.2422,38.05481-36.66265,13.0483-9.45659,26.59672-18.234,39.48051-27.90272,8.49207-6.37289,17.96869-8.25916,28.06312-8.83916,54.52488-3.13286,109.02713-1.46578,163.52257.8468,12.40582.52646,24.79225,1.51613,37.19889,2.01082,7.16849.28584,13.00508,2.8629,16.56621,9.09413,5.82187,10.18714,12.0756,20.24507,16.69511,30.98225,24.92193,57.92663,42.04678,118.466,59.11626,179.00853.33223,1.17807.7719,2.32584,1.19491,3.5878C742.381,338.10894,755.079,326.93335,768.194,316.27074c28.28938-22.99953,57.10034-45.30986,89.78912-61.92511,11.51624-5.85353,23.3348-11.23147,36.56618-11.6,15.31859-.42665,23.59622,7.20487,25.22347,22.57647,1.60846,15.19189-1.48374,29.86458-4.84073,44.50492-7.27,31.70523-17.22847,62.401-33.4991,90.81324-26.39639,46.09422-66.6574,71.98539-118.2457,81.2232-44.44244,7.95821-89.38218,8.44316-134.119,5.06734-87.38689-6.59432-174.77136-11.92636-262.45416-10.63254-1.27963.01888-2.55977.00236-3.63939.00236,2.94143,22.52549,5.34061,44.88694,8.89146,67.06395,4.27606,26.70639,9.2197,53.31827,14.53321,79.83913,1.81993,9.08388,5.49,17.81768,8.58173,26.61768,1.64971,4.69563,5.06893,7.94931,10.1413,8.71506,10.79334,1.62932,21.58621,3.46025,32.44959,4.32925,4.36737.34937,7.35851,1.41868,10.35544,4.59357,22.81332,24.16781,45.8107,48.162,68.73236,72.22777,1.21216,1.27275,2.25807,2.70389,3.65357,4.39013,4.93407-6.47543,9.26574-12.43052,13.87763-18.16018,11.77145-14.62447,24.5985-28.18748,40.01307-39.10441,13.41561-9.50132,27.86323-16.37648,44.64345-16.51124,15.774-.12672,31.61516-.48512,47.29788.8144,6.31834.52354,10.302-.3486,14.26334-4.93087a55.26871,55.26871,0,0,1,10.07564-9.00007c1.5662-1.09638,4.92378-1.6026,6.32242-.66646,14.87742,9.95844,26.88393,22.54582,33.9562,39.28917,3.33406,7.89328.686,15.57745-1.31879,23.17338-4.30921,16.327-9.0133,32.5519-13.14851,48.92147-1.24456,4.92661-.85884,10.2419-1.72738,15.29186-1.41176,8.20784-2.369,16.64665-5.07686,24.44685-5.639,16.24409-12.21479,32.16772-18.65447,48.12267a8.82444,8.82444,0,0,1-4.66129,4.21613c-10.19232,3.96836-20.64262,7.29527-30.73823,11.48391-7.40012,3.07028-15.0509,3.34582-22.7427,3.628q-44.97645,1.6498-89.96614,2.90077a13.66586,13.66586,0,0,1-8.18307-2.71459Q471.21149,825.16714,408.2089,774.63908a18.34026,18.34026,0,0,1-5.42386-8.63255C397.58927,748.93185,392.78736,731.73731,387.84053,714.55234Zm-94.6053-217.92658c-6.17808,4.92895-12.588,13.83273-16.253,22.74095-6.66738,16.206-7.99418,33.14367-6.43274,50.33975a25.42341,25.42341,0,0,0,4.19515,11.43858c11.56163,17.07663,23.24127,34.08736,35.39137,50.748,13.30006,18.23743,27.0817,36.0846,43.26568,52.00663,8.18346,8.051,17.55011,8.76176,28.20757,7.69174-2.39926-9.92912-4.63771-19.642-7.09865-29.2981-9.863-38.70025-19.6737-77.44164-35.11539-114.40027-3.36949-8.06469-7.42929-16.51417-13.35819-22.68534C316.06351,514.82651,304.33766,506.12888,293.23523,496.62576Z"/>
  </g>
</svg>
