<svg xmlns="http://www.w3.org/2000/svg" width="256" height="256" viewBox="0 0 256 256">
  <defs>
    <linearGradient id="fastlane-match-stepicon-a" x1="50%" x2="50%" y1=".689%" y2="97.648%">
      <stop offset="0%" stop-color="#FFF"/>
      <stop offset="100%" stop-color="#E7E7E7"/>
    </linearGradient>
    <linearGradient id="fastlane-match-stepicon-b" x1="-26.536%" x2="122.497%" y1="-129.063%" y2="140.868%">
      <stop offset="0%" stop-color="#0DD3C5"/>
      <stop offset="8.751%" stop-color="#0DC0C7"/>
      <stop offset="100%" stop-color="#0D83CD"/>
    </linearGradient>
    <linearGradient id="fastlane-match-stepicon-c" x1="-26.536%" x2="122.497%" y1="-143.708%" y2="148.3%">
      <stop offset="0%" stop-color="#0DD3C5"/>
      <stop offset="8.751%" stop-color="#0DC0C7"/>
      <stop offset="100%" stop-color="#0D83CD"/>
    </linearGradient>
    <linearGradient id="fastlane-match-stepicon-d" x1="-26.536%" x2="122.497%" y1="-146.466%" y2="149.7%">
      <stop offset="0%" stop-color="#0DD3C5"/>
      <stop offset="8.751%" stop-color="#0DC0C7"/>
      <stop offset="100%" stop-color="#0D83CD"/>
    </linearGradient>
    <linearGradient id="fastlane-match-stepicon-e" x1="-26.536%" x2="122.497%" y1="19.425%" y2="65.516%">
      <stop offset="0%" stop-color="#0DD3C5"/>
      <stop offset="8.751%" stop-color="#0DC0C7"/>
      <stop offset="100%" stop-color="#0D83CD"/>
    </linearGradient>
  </defs>
  <g fill="none" fill-rule="evenodd">
    <rect width="256" height="256" fill="url(#fastlane-match-stepicon-a)" fill-rule="nonzero"/>
    <g fill="#351D48" fill-rule="nonzero" transform="translate(35 37.875)">
      <path d="M64.9748847,20.1617063 C62.6269096,27.5650883 63.4371826,35.2130176 66.6412132,41.657861 L34.3901643,65.796729 C33.6358473,65.3425695 32.8248475,64.9590085 31.9491712,64.6802536 C25.9102749,62.7588096 19.4593384,66.1045967 17.541571,72.1527784 C15.6230769,78.20096 18.9637274,84.6618155 25.001897,86.5825316 C31.0407933,88.5039756 37.4917298,85.1589163 39.4102239,79.1107347 C40.0816968,76.9927794 40.0962309,74.8282436 39.5882659,72.8223725 L79.5147447,43.4133621 C74.2497864,38.4554544 71.4999449,30.339537 73.833386,22.980552 C77.0752051,12.7605079 87.9757398,7.10680449 98.1800938,10.3536082 C106.334421,12.9475575 111.576851,20.4404613 111.70039,28.5614734 L121,28.7558013 C120.959305,16.6121297 113.171236,5.35494249 100.993885,1.48075826 C85.8973712,-3.3221239 69.7703933,5.0412522 64.9748847,20.1617063"/>
      <path d="M11.7781784 97.6411879C18.0133639 102.213924 25.4608259 103.887853 32.521576 102.923525L45.2005108 141.004674C44.5386107 141.570171 43.9259549 142.212086 43.3907862 142.947887 39.7047125 148.024985 40.8460194 155.169022 45.9398981 158.904066 51.0337767 162.639838 58.1510129 161.551785 61.8370865 156.474686 65.5238844 151.397588 64.3825775 144.254279 59.2886988 140.518507 57.5050447 139.210659 55.472997 138.506881 53.4279141 138.346039L38.177418 91.354494C31.8748838 94.7343744 23.3838791 94.7380133 17.1856267 90.1929331 8.57875331 83.8807664 6.65026329 71.8095573 12.8789312 63.2303089 17.8569411 56.3744793 26.5369566 53.8235576 34.2154319 56.2958774L37.2917464 47.5965429C25.8533312 43.7632462 12.8391013 47.5128465 5.40612291 57.750012-3.80906127 70.4427581-.956518211 88.3028493 11.7781784 97.6411879M145.79652 94.7295808L153.252424 100.348007 148.764905 114.125 139.3124 114.125 145.79652 94.7295808z"/>
      <path d="M93,145.602702 L93,154.442228 L80.8261237,154.565154 C79.6160211,161.5668 75.7695974,168.128906 69.523343,172.654721 C56.7659651,181.897297 38.8574647,179.149095 29.5237386,166.515581 C21.9960706,156.326193 22.3453486,142.818644 29.456066,133.125 L36.8316525,138.705709 C32.1542383,145.244037 31.9686844,154.269005 37.0099298,161.092674 C43.3187631,169.631266 55.4234279,171.48886 64.0462278,165.241637 C70.2553714,160.743204 72.8145602,152.676576 71.4909422,145.656916 L93,145.602702 Z"/>
    </g>
    <g transform="rotate(-7 1351.764 -967.815)">
      <path fill="url(#fastlane-match-stepicon-b)" d="M36.4481579,11.8448752 L36.4481579,19.6251891 L32.5395983,19.6251891 L32.5395983,11.8448752 L36.4481579,11.8448752 Z M56.6713574,29.439056 L49.2718391,31.8433052 L48.0640278,28.1260441 L55.463546,25.7217949 L56.6713574,29.439056 Z M46.2460343,54.1897775 L41.6728805,47.8953713 L44.8349717,45.5979776 L49.4081254,51.8923838 L46.2460343,54.1897775 Z M19.5796308,51.8923838 L24.1527845,45.5979776 L27.3148757,47.8953713 L22.7417219,54.1897775 L19.5796308,51.8923838 Z M13.5242102,25.7217949 L20.9237284,28.1260441 L19.7159171,31.8433052 L12.3163988,29.439056 L13.5242102,25.7217949 Z" style="mix-blend-mode:multiply"/>
      <path fill="url(#fastlane-match-stepicon-c)" d="M34.9866478,62.0366897 L30.7694734,69.4805259 L28.4558226,61.2435052 L22.5802115,67.4615481 L22.3045452,58.9100485 L15.1119666,63.5409281 L16.8903055,55.1719318 L8.79876588,57.9465182 L12.5277594,50.2464007 L4.00750969,51.003445 L9.4704423,44.4197093 L1.0166484,43.1152149 L7.89603432,38.0304836 L0,34.7402629 L7.89603432,31.4500423 L1.0166484,26.365311 L9.4704423,25.0608166 L4.00750969,18.4770808 L12.5277594,19.2341252 L8.79876588,11.5340077 L16.8903055,14.3085941 L15.1119666,5.93959777 L22.3045452,10.5704774 L22.5802115,2.01897781 L28.4558226,8.23702072 L30.7694734,0 L34.9866478,7.44383616 L39.2038222,0 L41.517473,8.23702072 L47.3930841,2.01897781 L47.6687504,10.5704774 L54.861329,5.93959777 L53.0829901,14.3085941 L61.1745297,11.5340077 L57.4455362,19.2341252 L65.9657859,18.4770808 L60.5028533,25.0608166 L68.9566472,26.365311 L62.0772613,31.4500423 L69.9732956,34.7402629 L62.0772613,38.0304836 L68.9566472,43.1152149 L60.5028533,44.4197093 L65.9657859,51.003445 L57.4455362,50.2464007 L61.1745297,57.9465182 L53.0829901,55.1719318 L54.861329,63.5409281 L47.6687504,58.9100485 L47.3930841,67.4615481 L41.517473,61.2435052 L39.2038222,69.4805259 L34.9866478,62.0366897 Z M34.7315557,58.6643299 C48.0820249,58.6643299 58.9047185,47.8389231 58.9047185,34.4851069 C58.9047185,21.1312908 48.0820249,10.3058839 34.7315557,10.3058839 C21.3810866,10.3058839 10.5583929,21.1312908 10.5583929,34.4851069 C10.5583929,47.8389231 21.3810866,58.6643299 34.7315557,58.6643299 Z" style="mix-blend-mode:multiply"/>
      <path fill="url(#fastlane-match-stepicon-d)" d="M34.7402629,47.7986597 C27.2561604,47.7986597 21.1890965,41.7315958 21.1890965,34.2474933 C21.1890965,26.7633907 27.2561604,20.6963269 34.7402629,20.6963269 C42.2243655,20.6963269 48.2914293,26.7633907 48.2914293,34.2474933 C48.2914293,41.7315958 42.2243655,47.7986597 34.7402629,47.7986597 Z M35.0168174,38.9489183 C37.4606059,38.9489183 39.441688,36.9678363 39.441688,34.5240477 C39.441688,32.0802591 37.4606059,30.099177 35.0168174,30.099177 C32.5730288,30.099177 30.5919467,32.0802591 30.5919467,34.5240477 C30.5919467,36.9678363 32.5730288,38.9489183 35.0168174,38.9489183 Z" style="mix-blend-mode:multiply"/>
    </g>
    <path fill="url(#fastlane-match-stepicon-e)" d="M80.4333333,17.2532468 L80.4333333,9.99350649 C80.4333333,6.29248142 83.4364695,3.29220779 87.1410256,3.29220779 L102.792308,3.29220779 C106.496864,3.29220779 109.5,6.29248142 109.5,9.99350649 L109.5,36.7987013 C109.5,40.4997264 106.496864,43.5 102.792308,43.5 L87.1410256,43.5 C83.4364695,43.5 80.4333333,40.4997264 80.4333333,36.7987013 L80.4333333,28.4220779 L0.5,28.4220779 L0.5,17.2532468 L10.5615385,17.2532468 L10.5615385,0.5 L21.7410256,0.5 L21.7410256,17.2532468 L27.3307692,17.2532468 L27.3307692,0.5 L38.5102564,0.5 L38.5102564,17.2532468 L80.4333333,17.2532468 Z M91.6128205,14.461039 L91.6128205,32.3311688 L98.3205128,32.3311688 L98.3205128,14.461039 L91.6128205,14.461039 Z" transform="scale(1 -1) rotate(-37 -65.332 -204.366)" style="mix-blend-mode:multiply"/>
  </g>
</svg>
