<?xml version="1.0" encoding="UTF-8"?><svg xmlns="http://www.w3.org/2000/svg" xmlns:xlink="http://www.w3.org/1999/xlink" viewBox="0 0 400 400"><defs><style>.cls-1{fill:url(#linear-gradient);}.cls-2{fill:#0d83cd;}.cls-3,.cls-4{fill:#17579b;}.cls-5{mix-blend-mode:multiply;}.cls-6{fill:url(#linear-gradient-2);}.cls-4{fill-rule:evenodd;}.cls-7{isolation:isolate;}</style><linearGradient id="linear-gradient" x1="-9.06" y1="-6.34" x2="401.32" y2="404.05" gradientTransform="matrix(1, 0, 0, 1, 0, 0)" gradientUnits="userSpaceOnUse"><stop offset="0" stop-color="#cde0ff"/><stop offset=".36" stop-color="#a7d0ff"/><stop offset=".92" stop-color="#65b5ff"/></linearGradient><linearGradient id="linear-gradient-2" x1="312.65" y1="232.96" x2="95.48" y2="107.58" gradientTransform="matrix(1, 0, 0, 1, 0, 0)" gradientUnits="userSpaceOnUse"><stop offset="0" stop-color="#fff" stop-opacity="0"/><stop offset=".16" stop-color="#fff" stop-opacity=".18"/><stop offset=".47" stop-color="#fff" stop-opacity=".53"/><stop offset=".72" stop-color="#fff" stop-opacity=".78"/><stop offset=".91" stop-color="#fff" stop-opacity=".94"/><stop offset="1" stop-color="#fff"/></linearGradient></defs><g class="cls-7"><g id="Layer_1"><rect class="cls-1" x="-9.06" y="-6.34" width="416.19" height="416.19"/><path class="cls-6" d="M298.6,143.99c.12-1.73,.21-3.48,.21-5.24,0-40.62-32.93-73.54-73.54-73.54-27.77,0-51.93,15.39-64.45,38.11-7.32-5.78-16.56-9.24-26.62-9.24-23.75,0-43.01,19.26-43.01,43.01,0,5.5,1.05,10.76,2.93,15.6h-2.93c-20.79,0-37.64,16.85-37.64,37.64s16.85,37.64,37.64,37.64h199.9c23.38,0,42.33-18.95,42.33-42.33,0-20.81-15.02-38.1-34.82-41.65Z"/><g class="cls-5"><polygon class="cls-4" points="295.85 149.52 295.85 253.79 322.35 227.24 337.24 242.15 285.14 294.37 233.05 242.15 247.93 227.24 274.81 254.17 274.81 149.52 295.85 149.52"/><rect class="cls-3" x="221.61" y="319.78" width="127.06" height="21.6"/></g><rect class="cls-2" x="147.1" y="183.86" width="94.68" height="17.43" rx="2.02" ry="2.02"/><rect class="cls-2" x="147.1" y="156.91" width="94.68" height="17.43" rx="2.02" ry="2.02"/><rect class="cls-2" x="147.1" y="129.97" width="94.68" height="17.43" rx="2.02" ry="2.02"/></g></g></svg>