<?xml version="1.0" encoding="utf-8"?>
<!-- Generator: Adobe Illustrator 19.1.0, SVG Export Plug-In . SVG Version: 6.00 Build 0)  -->
<svg version="1.1" id="Layer_1" xmlns="http://www.w3.org/2000/svg" xmlns:xlink="http://www.w3.org/1999/xlink" x="0px" y="0px"
	 viewBox="0 0 256 256" enable-background="new 0 0 256 256" xml:space="preserve">
<rect x="0" y="0" fill="#3CC1A7" width="256" height="256"/>
<g>
	<g>
		<path fill="#FFFFFF" d="M166.9,197.5H90.1c-10,0-18.1-8.1-18.1-18.1V74c0-8.5,6.9-15.5,15.5-15.5h51.8c6.1,0,11.2,1.9,14.8,5.6
			l24.7,25.7c3.5,3.5,5.2,8.2,5.2,14.2v76.4C184,189.8,176.3,197.5,166.9,197.5z M87.5,61.5C80.6,61.5,75,67.1,75,74v105.4
			c0,8.3,6.8,15.1,15.1,15.1h76.8c7.8,0,14.1-6.3,14.1-14.1v-76.4c0-5.2-1.4-9.1-4.3-12.1L152,66.2c-3.8-3.9-9-4.7-12.6-4.7H87.5z"
			/>
	</g>
	<g>
		<path fill="#FFFFFF" d="M158,124H97c-0.8,0-1.5-0.7-1.5-1.5s0.7-1.5,1.5-1.5h61c0.8,0,1.5,0.7,1.5,1.5S158.8,124,158,124z"/>
	</g>
	<g>
		<path fill="#FFFFFF" d="M158,145H97c-0.8,0-1.5-0.7-1.5-1.5s0.7-1.5,1.5-1.5h61c0.8,0,1.5,0.7,1.5,1.5S158.8,145,158,145z"/>
	</g>
	<g>
		<path fill="#FFFFFF" d="M158,166H97c-0.8,0-1.5-0.7-1.5-1.5s0.7-1.5,1.5-1.5h61c0.8,0,1.5,0.7,1.5,1.5S158.8,166,158,166z"/>
	</g>
	<g>
		<path fill="#FFFFFF" d="M182,100.5h-29.7c-4,0-7.3-3.3-7.3-7.3V62.5c0-0.8,0.7-1.5,1.5-1.5s1.5,0.7,1.5,1.5v30.7
			c0,2.4,1.9,4.3,4.3,4.3H182c0.8,0,1.5,0.7,1.5,1.5S182.8,100.5,182,100.5z"/>
	</g>
</g>
</svg>
