<?xml version="1.0" encoding="UTF-8"?>
<svg width="261px" height="261px" viewBox="0 0 261 261" version="1.1" xmlns="http://www.w3.org/2000/svg" xmlns:xlink="http://www.w3.org/1999/xlink">
    <!-- Generator: Sketch 51.3 (57544) - http://www.bohemiancoding.com/sketch -->
    <title>browserstack</title>
    <desc>Created with Sketch.</desc>
    <defs>
        <radialGradient cx="50.1407407%" cy="50.0030864%" fx="50.1407407%" fy="50.0030864%" r="50.1188272%" id="radialGradient-1">
            <stop stop-color="#797979" offset="0%"></stop>
            <stop stop-color="#4C4C4C" offset="100%"></stop>
        </radialGradient>
    </defs>
    <g id="Page-1" stroke="none" stroke-width="1" fill="none" fill-rule="evenodd">
        <g id="browserstack" fill-rule="nonzero">
            <circle id="Oval" fill="#F5BB60" cx="128" cy="128" r="128"></circle>
            <circle id="Oval" fill="#E86F32" cx="115.756522" cy="115.756522" r="115.756522"></circle>
            <circle id="Oval" fill="#E53D42" cx="131.33913" cy="100.173913" r="100.173913"></circle>
            <circle id="Oval" fill="#BFD141" cx="138.017391" cy="105.73913" r="91.2695652"></circle>
            <circle id="Oval" fill="#6DB64C" cx="131.895652" cy="114.086957" r="85.1478261"></circle>
            <circle id="Oval" fill="#AFDBE7" cx="117.982609" cy="100.173913" r="71.2347826"></circle>
            <circle id="Oval" fill="#57BADF" cx="130.226087" cy="89.0434783" r="60.1043478"></circle>
            <circle id="Oval" fill="#02B2D6" cx="136.904348" cy="97.9478261" r="53.426087"></circle>
            <circle id="Oval" fill="url(#radialGradient-1)" cx="128" cy="104.626087" r="44.5217391"></circle>
            <circle id="Oval" fill="#231F20" cx="128" cy="104.626087" r="44.5217391"></circle>
            <path d="M143.397642,98.5604518 C147.927267,100.511176 154.173698,96.5858405 157.349437,89.7929687 C160.525175,83.000097 159.427634,75.9120118 154.89801,73.9612873 C150.368386,72.0105627 144.121954,75.9358986 140.946215,82.7287703 C137.770477,89.521642 138.868018,96.6097273 143.397642,98.5604518 Z" id="Shape" fill="#FFFFFF"></path>
            <path d="M256,202.551229 C256,205.173535 255.048412,207.487335 253.145236,209.492628 L247.358553,215.277127 C245.40394,217.231002 243.063549,218.20794 240.337378,218.20794 C237.55977,218.20794 235.245097,217.231002 233.393358,215.277127 L210.709561,192.679017 L210.709561,246.976181 C210.709561,249.649905 209.745114,251.822306 207.816219,253.493384 C205.887325,255.164461 203.559792,256 200.833622,256 L190.957683,256 C188.231512,256 185.903979,255.164461 183.975085,253.493384 C182.046191,251.822306 181.081744,249.649905 181.081744,246.976181 L181.081744,192.679017 L158.397946,215.277127 C156.546208,217.231002 154.231534,218.20794 151.453926,218.20794 C148.676319,218.20794 146.361645,217.231002 144.509907,215.277127 L138.723224,209.492628 C136.768611,207.538752 135.791304,205.224953 135.791304,202.551229 C135.791304,199.826087 136.768611,197.486578 138.723224,195.532703 L188.951633,145.323251 C190.751934,143.420794 193.066607,142.469565 195.895652,142.469565 C198.67326,142.469565 201.013652,143.420794 202.916828,145.323251 L253.145236,195.532703 C255.048412,197.537996 256,199.877505 256,202.551229 Z" id="Shape" stroke="#231F20" stroke-width="10" fill="#FFFFFF"></path>
        </g>
    </g>
</svg>