<?xml version="1.0" encoding="UTF-8"?>
<svg width="256px" height="256px" viewBox="0 0 256 256" version="1.1" xmlns="http://www.w3.org/2000/svg" xmlns:xlink="http://www.w3.org/1999/xlink">
    <!-- Generator: Sketch 60.1 (88133) - https://sketch.com -->
    <title>AppCenter iOS Deploy</title>
    <desc>Created with Sketch.</desc>
    <defs>
        <linearGradient x1="50%" y1="0%" x2="50%" y2="100%" id="linearGradient-1">
            <stop stop-color="#54C3FA" offset="0%"></stop>
            <stop stop-color="#1586F5" offset="100%"></stop>
        </linearGradient>
        <linearGradient x1="40.8333729%" y1="69.4072064%" x2="93.5899302%" y2="30.8396523%" id="linearGradient-2">
            <stop stop-color="#FFFFFF" offset="0%"></stop>
            <stop stop-color="#FFFFFF" stop-opacity="0" offset="100%"></stop>
        </linearGradient>
        <linearGradient x1="0%" y1="0%" x2="50%" y2="100%" id="linearGradient-3">
            <stop stop-color="#135EA7" offset="0%"></stop>
            <stop stop-color="#1E568F" offset="100%"></stop>
        </linearGradient>
    </defs>
    <g id="AppCenter-iOS-Deploy" stroke="none" stroke-width="1" fill="none" fill-rule="evenodd">
        <g id="virtual-device-testing-for-ios-stepicon" fill="url(#linearGradient-1)">
            <rect id="Rectangle" x="0" y="0" width="256" height="256"></rect>
        </g>
        <g id="Group" transform="translate(40.000000, 28.000000)">
            <path d="M0,78.7513848 L0,96.148474 L33.4674704,118.431519 L0,141.047464 L0,157.946562 L62.4611708,199.863582 L78.2013685,190.585859 L78.2013685,146.18323 L123.762898,178.988704 L140,170.372977 L140,66.1593353 L123.762898,58.0410557 L78.2013685,91.1772564 L78.2013685,46.1120886 L62.4611708,37 L0,78.7513848 Z M24.5204736,87.6983817 L57.3254046,66.1593353 L57.3254046,109.567612 L24.5204736,87.6983817 Z M75.5501249,118.531987 L109.127838,94.9330944 L109.127838,142.759205 L75.5501249,118.531987 Z M24.5204736,149.763658 L57.3254046,128.225155 L57.3254046,171.633431 L24.5204736,149.763658 Z" id="Fill-1" fill="url(#linearGradient-2)"></path>
            <path d="M178.669987,1.31581095 C181.310897,3.95672094 181.173922,37.5437309 167.28394,51.4337131 C163.631655,55.0859973 145.772148,71.2794095 131.906586,79.4570039 L139.723421,87.2727382 C140.113719,87.6633826 140.113719,88.296443 139.723421,88.6870873 L130.824298,97.5879168 L116.415055,111.999923 L106.732044,102.315055 L113.877,80.643 L99.348,66.114 L77.6830111,73.2604506 L68,63.5755825 L87.2123235,44.3595744 L91.3083654,40.262747 C91.6987167,39.8720497 92.3318817,39.871989 92.7224434,40.2624758 L101.835055,49.3784474 C109.995128,35.4951543 124.8741,16.3276657 128.55185,12.701624 C142.561646,-1.1095531 176.029077,-1.32509905 178.669987,1.31581095 Z M96.972184,73.3373147 L106.655195,83.0221831 C99.2718905,90.4069037 94.4688096,95.2109057 92.2459527,97.4341892 C90.0230958,99.6574726 86.8006525,99.6522445 82.5786227,97.4185047 C80.3453115,93.1956655 80.3400844,89.9726042 82.5629413,87.7493207 C84.7857982,85.5260373 89.5888791,80.7220353 96.972184,73.3373147 Z M168.583169,11.4189904 C165.792951,11.4614064 162.628902,11.7010162 159.441178,12.1434703 C149.234537,13.5601457 140.709517,16.7410079 136.563386,20.8281436 C134.043053,23.3131825 124.984088,35.0258895 118.274231,44.8599893 C114.892747,49.815959 112.119455,54.2361421 110.203473,57.7486683 L115.901,63.446 L123.520556,71.0686003 C126.855898,69.3392911 131.082392,66.590223 135.867604,63.0536443 C144.454992,56.7070122 154.959443,47.6198578 159.214764,43.3645371 C163.290112,39.2891889 166.465619,30.8040527 167.870048,20.6020755 C168.310511,17.4024901 168.546103,14.2232462 168.583169,11.4189904 Z M148,21.9999228 C152.970563,21.9999228 157,26.0293601 157,30.9999228 C157,35.9704856 152.970563,39.9999228 148,39.9999228 C143.029437,39.9999228 139,35.9704856 139,30.9999228 C139,26.0293601 143.029437,21.9999228 148,21.9999228 Z" id="Combined-Shape" fill="url(#linearGradient-3)"></path>
        </g>
    </g>
</svg>