<svg xmlns="http://www.w3.org/2000/svg" width="256" height="256" viewBox="0 0 256 256">
  <defs>
    <linearGradient id="authenticate-host-with-netrc-stepicon-a" x1="0%" x2="100%" y1="100%" y2="0%">
      <stop offset="0%" stop-color="#0DD3C5"/>
      <stop offset="100%" stop-color="#0D83CD"/>
    </linearGradient>
    <linearGradient id="authenticate-host-with-netrc-stepicon-b" x1="92.985%" x2="14.218%" y1="-11.098%" y2="109.263%">
      <stop offset="0%" stop-color="#FFF" stop-opacity=".399"/>
      <stop offset="100%" stop-color="#FFF"/>
    </linearGradient>
    <linearGradient id="authenticate-host-with-netrc-stepicon-c" x1="-22.246%" x2="95.381%" y1="123.982%" y2="6.149%">
      <stop offset="0%" stop-color="#FFF" stop-opacity=".399"/>
      <stop offset="100%" stop-color="#FFF"/>
    </linearGradient>
  </defs>
  <g fill="none" fill-rule="evenodd">
    <rect width="256" height="256" fill="url(#authenticate-host-with-netrc-stepicon-a)" fill-rule="nonzero"/>
    <path fill="url(#authenticate-host-with-netrc-stepicon-b)" d="M69,37 L159.738281,37 L193,71.9585974 L193,211 C193,214.313708 190.313708,217 187,217 L69,217 C65.6862915,217 63,214.313708 63,211 L63,43 C63,39.6862915 65.6862915,37 69,37 Z"/>
    <path fill="url(#authenticate-host-with-netrc-stepicon-c)" d="M158.731207,37.3828125 L192.784706,72.2668851 L164.731207,72.2668851 C161.417498,72.2668851 158.731207,69.5805936 158.731207,66.2668851 L158.731207,37.3828125 Z"/>
    <path fill="#760FC3" d="M92.31,180.1 L98.385,180.1 L98.385,199 L93.255,199 L86.1,189.82 L86.1,199 L80.025,199 L80.025,180.1 L85.155,180.1 L92.31,189.28 L92.31,180.1 Z M109.040357,194.005 L118.220357,194.005 L118.220357,199 L102.965357,199 L102.965357,180.1 L117.950357,180.1 L117.950357,185.095 L109.040357,185.095 L109.040357,187.12 L115.790357,187.12 L115.790357,191.71 L109.040357,191.71 L109.040357,194.005 Z M120.370714,180.1 L136.435714,180.1 L136.435714,185.635 L131.440714,185.635 L131.440714,199 L125.365714,199 L125.365714,185.635 L120.370714,185.635 L120.370714,180.1 Z M139.531072,199 L139.531072,180.1 L148.846072,180.1 C153.166072,180.1 156.001072,183.07 156.001072,186.85 C156.001072,190.9 153.031072,192.385 153.031072,192.385 L156.676072,199 L150.331072,199 L147.496072,193.6 L145.606072,193.6 L145.606072,199 L139.531072,199 Z M149.926072,186.85 C149.926072,186.04 149.386072,185.5 148.441072,185.5 L145.606072,185.5 L145.606072,188.2 L148.441072,188.2 C149.386072,188.2 149.926072,187.66 149.926072,186.85 Z M164.766429,189.55 C164.766429,192.115 166.791429,194.14 169.491429,194.14 C172.326429,194.14 174.081429,191.98 174.081429,191.98 L177.645429,195.76 C177.645429,195.76 174.891429,199.54 169.356429,199.54 C163.281429,199.54 158.691429,194.95 158.691429,189.55 C158.691429,184.15 163.281429,179.56 169.356429,179.56 C174.891429,179.56 177.591429,183.34 177.591429,183.34 L173.946429,187.12 C173.946429,187.12 172.191429,184.96 169.491429,184.96 C166.791429,184.96 164.766429,186.985 164.766429,189.55 Z" style="mix-blend-mode:multiply"/>
    <path fill="#760FC3" fill-rule="nonzero" d="M28,38 L48,38 L48,30 C48,24.4771525 43.5228475,20 38,20 C32.4771525,20 28,24.4771525 28,30 L28,38 Z M68,38.6828228 C72.6607695,40.3301685 76,44.7751247 76,50 L76,96 C76,102.627417 70.627417,108 64,108 L12,108 C5.372583,108 1.50224792e-14,102.627417 1.42108547e-14,96 L1.42108547e-14,50 C1.3570992e-14,44.7751247 3.33923051,40.3301685 8,38.6828228 L8,30 C8,13.4314575 21.4314575,1.10134124e-13 38,1.10134124e-13 C54.5685425,1.10134124e-13 68,13.4314575 68,30 L68,38.6828228 Z M20,88 L56,88 L56,58 L20,58 L20,88 Z" transform="translate(90 53)" style="mix-blend-mode:multiply"/>
  </g>
</svg>
