<svg id="Layer_1" data-name="Layer 1" xmlns="http://www.w3.org/2000/svg" viewBox="0 0 256 256"><defs><style>.cls-1{fill:#3498db;}.cls-2{fill:#fff;}</style></defs><title>icon</title><rect class="cls-1" width="256" height="256"/><path class="cls-2" d="M196.61,105.27h-30a106.76,106.76,0,0,0,31.82,25.63,41,41,0,0,0-6.77,7.34c-10.94-6.48-24.19-18.86-32.83-30.67v27.22h-9.07V107.86c-8.64,13-22,25.63-33.7,32.4a37.93,37.93,0,0,0-5-5.9l-3.31,1.44a39.55,39.55,0,0,0-2-5.76l-11.23.58v61.63H85.88V131c-7.63.29-14.54.58-20,.86a2.87,2.87,0,0,1-2.16,1.87L61.11,123H70.9c3.17-4,6.62-8.64,10.08-13.54-4.32-6.77-11.81-15.26-18.43-21.6a35.76,35.76,0,0,0,5-6.19c1.58,1.44,3.17,2.88,4.75,4.46A214.11,214.11,0,0,0,85.16,58.47l10.37,4.18q-.65,1.29-3,1.3A224.39,224.39,0,0,1,77.67,91.59c3.17,3.6,6,7.06,8.35,10.22a304.19,304.19,0,0,0,15.41-26.93l10.22,4.75a3.82,3.82,0,0,1-3.17,1.15,394,394,0,0,1-28.51,42l22.46-.43a128.68,128.68,0,0,0-8.06-13.82l7.06-3c5.33,7.63,10.66,17.42,13.25,24.62a103.44,103.44,0,0,0,27.07-24.91H113.38V97.06h17.86a78,78,0,0,0-7.63-18.14l8.06-2.45a80.13,80.13,0,0,1,8.06,18l-8.06,2.59h18.14V73c-10.94,1.15-22.32,2.16-32.69,2.74a28.42,28.42,0,0,0-2.45-7.2c23.76-1.73,52.85-5.18,68.83-9.36l5.76,7.92a1.55,1.55,0,0,1-1.15.29,5.38,5.38,0,0,1-1.44-.14,258.43,258.43,0,0,1-27.79,4.61v25.2h13.39l-5.62-2.59a129.18,129.18,0,0,0,11.09-20.59l10.51,4.32c-.43.86-1.44,1.15-3,1.15A158.19,158.19,0,0,1,174,97.06h22.61ZM80.55,144c-.29,1.3-1.44,1.58-2.74,1.44-1.87,12.1-5,26.06-9.22,34.56a64.28,64.28,0,0,0-7.06-3.6c4-8.06,6.91-21.89,8.64-35Zm28.51,28.08c-1.3-7.78-5.18-19.73-9.22-28.66l7.34-2.3a136.65,136.65,0,0,1,9.5,28.37Zm13.39,20.3V137.81h64.66v54h-8.64v-4H130.8v4.61Zm27.65-46.8H130.8v13.54H150.1ZM130.8,180H150.1V166.46H130.8Zm47.66-20.88V145.58h-20v13.54Zm-20,20.88h20V166.46h-20Z"/></svg>