<svg id="Layer_1" data-name="Layer 1" xmlns="http://www.w3.org/2000/svg" viewBox="0 0 256 256"><defs><style>.cls-1{fill:#dad8e5;}.cls-2{fill:#8080a7;}</style></defs><title>nunit</title><rect class="cls-1" x="-0.07" width="256" height="256"/><path class="cls-2" d="M178.65,160.2c0,5.54,0,27.49.55,32.29-0.37,1.11-1.48,2-3.51,2-2.21-3.14-7.57-9.59-23.62-27.86l-42.81-48.71c-5-5.72-17.53-20.85-21.4-24.91H87.49c-0.74,2.21-.92,6.46-0.92,12v40.23c0,8.67.18,32.66,3.32,38.2,1.11,2,4.8,3.14,9.41,3.51L105,187.5a3.38,3.38,0,0,1-.37,4.61c-8.3-.37-14.76-0.55-21.59-0.55-7.75,0-12.73.18-19.19,0.55a3.42,3.42,0,0,1-.37-4.61l5-.55c4.24-.55,7.2-1.66,8.12-3.69,2.58-6.64,2.4-29.15,2.4-38V91.92c0-5.17-.18-9-4.06-13.29-2.58-2.58-7-3.87-11.44-4.43l-3.14-.37c-1.11-1.11-1.11-3.87.37-4.61,7.75,0.55,17.53.55,20.85,0.55a59.58,59.58,0,0,0,8.49-.55c3.69,9.41,25.46,33.77,31.55,40.6l17.9,20.11c12.73,14.21,21.77,24.54,30.45,33.4h0.37c0.74-.92.74-3.87,0.74-7.75V116.09c0-8.67-.18-32.66-3.69-38.2-1.11-1.66-4.06-2.77-11.44-3.69l-3.14-.37c-1.29-1.11-1.11-4.06.37-4.61,8.49,0.37,14.76.55,21.77,0.55,7.93,0,12.73-.18,19-0.55,1.48,0.92,1.48,3.51.37,4.61l-2.58.37c-5.9.92-9.59,2.4-10.33,3.88-3.14,6.64-2.77,29.52-2.77,38v44.1Z"/></svg>