<svg id="Layer_1" data-name="Layer 1" xmlns="http://www.w3.org/2000/svg" viewBox="0 0 256 256"><defs><style>.cls-1{fill:#232322;}.cls-2{fill:#de6e61;}.cls-3{fill:#e5ba37;}.cls-4{fill:#55cb88;}</style></defs><title>icon</title><rect class="cls-1" width="255.92" height="255.92"/><path class="cls-2" d="M129.75,121.52a16.62,16.62,0,0,1-9.42-2.14Q87.72,102.24,55.09,85.14c-2.65-1.4-6.05-2.45-5.93-6.27s3.91-4.38,6.53-5.58C77,63.51,98.41,54,119.68,44.13a18.15,18.15,0,0,1,16.09-.1q33.15,15.06,66.34,30.05c2.23,1,5,1.71,4.85,5-.1,2.66-2.26,3.73-4.21,4.77q-34,18.05-68.1,36A26.24,26.24,0,0,1,129.75,121.52Z"/><path class="cls-3" d="M214,134.15c0,10.34-.33,20.69.12,31,.3,6.75-2.23,11.23-8,14.26-20.76,10.88-41.48,21.86-62.29,32.64-6.87,3.56-9.67,1.78-9.73-6.24-.15-21.79,0-43.59-.1-65.38,0-6.09,2.75-9.85,8-12.53,20.61-10.56,41.12-21.33,61.76-31.85,7.52-3.83,10.17-2.14,10.26,6.24C214.13,112.91,214,123.53,214,134.15Z"/><path class="cls-4" d="M121.88,173.41c0,10.64.1,21.27,0,31.9-.11,8.58-2.74,10.36-10.11,6.55-20.61-10.67-41.1-21.58-61.67-32.33-5.8-3-8.35-7.46-8.25-14.2.29-20.71,0-41.42.13-62.13,0-9.5,2.69-11.12,11.12-6.78,20.38,10.5,40.64,21.27,61.07,31.67,5.77,2.94,8,7.1,7.82,13.42C121.68,152.14,121.88,162.78,121.88,173.41Z"/></svg>