<?xml version="1.0" encoding="UTF-8"?>
<svg width="256px" height="256px" viewBox="0 0 256 256" version="1.1" xmlns="http://www.w3.org/2000/svg" xmlns:xlink="http://www.w3.org/1999/xlink">
    <!-- Generator: Sketch 52.5 (67469) - http://www.bohemiancoding.com/sketch -->
    <title>ascii-art-stepicon</title>
    <desc>Created with Sketch.</desc>
    <defs>
        <linearGradient x1="0%" y1="100%" x2="100%" y2="0%" id="linearGradient-1">
            <stop stop-color="#0DD3C5" offset="0%"></stop>
            <stop stop-color="#0D83CD" offset="100%"></stop>
        </linearGradient>
        <linearGradient x1="132.409355%" y1="-11.0977103%" x2="-18.5997596%" y2="109.263393%" id="linearGradient-2">
            <stop stop-color="#FFFFFF" stop-opacity="0.399060236" offset="0%"></stop>
            <stop stop-color="#FFFFFF" offset="100%"></stop>
        </linearGradient>
    </defs>
    <g id="New-Icons" stroke="none" stroke-width="1" fill="none" fill-rule="evenodd">
        <g id="ASCII-Art">
            <g id="ascii-art-stepicon">
                <rect id="Rectangle-path" fill="url(#linearGradient-1)" fill-rule="nonzero" x="0" y="0" width="256" height="256"></rect>
                <path d="M91.0187092,51 L164.981291,51 C168.756591,45.5589738 175.022539,42 182.113924,42 C193.648985,42 203,51.4167801 203,63.032967 C203,71.0474654 198.548727,78.0150013 192.000003,81.565198 L192,176.4348 C198.548725,179.984996 203,186.952533 203,194.967033 C203,206.58322 193.648985,216 182.113924,216 C174.186556,216 167.290713,211.552452 163.752682,205 L92.2473183,205 C88.7092866,211.552452 81.8134442,216 73.8860759,216 C62.3510147,216 53,206.58322 53,194.967033 C53,186.550916 57.9085706,179.289321 65,175.927128 L65,82.0728771 C57.9085701,78.7106783 53,71.4490832 53,63.032967 C53,51.4167801 62.3510147,42 73.8860759,42 C80.9774613,42 87.243409,45.5589738 91.0187092,51 Z M83.9552239,70.1304348 L83.9552239,185.869565 L173.044776,185.869565 L173.044776,70.1304348 L83.9552239,70.1304348 Z" id="Combined-Shape" fill="url(#linearGradient-2)"></path>
                <path d="M122.823529,117.109794 L106.492715,117.109794 L101.96816,127.777293 L92,127.777293 L113.77442,77.9956332 L131.024285,77.9956332 L132.22612,127.777293 L122.964922,127.777293 L122.823529,117.109794 Z M110.239611,108.149095 L122.682137,108.149095 L122.328656,82.6893325 L121.056125,82.6893325 L110.239611,108.149095 Z M170.96762,93.9968808 C171.109013,93.2857107 171.179709,92.6456672 171.179709,92.0767311 C171.179709,90.2276888 170.519884,88.7224013 169.200216,87.5608235 C167.880547,86.3992456 165.853944,85.8184654 163.120345,85.8184654 C162.036332,85.8184654 160.9759,85.936992 159.939018,86.1740487 C158.902135,86.4111054 157.983094,86.7785377 157.181867,87.2763568 C156.38064,87.7741759 155.744381,88.4023668 155.273071,89.1609482 C154.801761,89.9195297 154.566109,90.7966263 154.566109,91.7922645 C154.566109,93.4516614 155.261281,94.7554538 156.651646,95.7036806 C158.042011,96.6519074 160.292483,97.3867722 163.40313,97.9082969 C167.786314,98.6194671 171.238609,100.029933 173.760119,102.139738 C176.281628,104.249543 177.542364,107.319381 177.542364,111.349345 C177.542364,114.051791 177.059278,116.469734 176.093092,118.603244 C175.126906,120.736754 173.760128,122.562064 171.992715,124.079226 C170.225301,125.596389 168.092655,126.75795 165.594711,127.563943 C163.096768,128.369935 160.292514,128.772926 157.181867,128.772926 C154.212613,128.772926 151.620446,128.381788 149.405289,127.599501 C147.190131,126.817214 145.363832,125.750475 143.926336,124.399251 C142.48884,123.048028 141.416625,121.471625 140.70966,119.669994 C140.002695,117.868363 139.649217,115.924527 139.649217,113.838428 C139.649217,113.222081 139.672783,112.605742 139.719914,111.989395 C139.767045,111.373047 139.861305,110.733004 140.002698,110.069245 L140.356179,108.433562 L149.688073,108.433562 L149.405289,109.642545 C149.216765,110.543361 149.122504,111.562689 149.122504,112.700561 C149.122504,114.976306 149.841241,116.754204 151.278737,118.034311 C152.716233,119.314417 154.872445,119.95446 157.747437,119.95446 C160.858084,119.95446 163.285294,119.302564 165.029142,117.998752 C166.772989,116.69494 167.6449,114.905189 167.6449,112.629445 C167.6449,110.827814 166.902598,109.4292 165.417971,108.433562 C163.933344,107.437924 161.44722,106.679354 157.959525,106.157829 C156.30994,105.920772 154.695727,105.494077 153.116838,104.877729 C151.537949,104.261382 150.135822,103.40799 148.910416,102.31753 C147.685009,101.227069 146.695273,99.8877185 145.941176,98.2994386 C145.18708,96.7111586 144.810038,94.8265861 144.810038,92.6456644 C144.810038,90.4173313 145.222428,88.3431163 146.047221,86.422957 C146.872013,84.5027976 148.097401,82.8434256 149.723421,81.444791 C151.349441,80.0461565 153.35248,78.955712 155.732596,78.1734248 C158.112712,77.3911377 160.858052,77 163.968699,77 C166.608036,77 168.964552,77.3318744 171.038316,77.9956332 C173.112081,78.659392 174.867685,79.5838993 176.305181,80.7691828 C177.742677,81.9544663 178.838456,83.3649326 179.592553,85.0006238 C180.346649,86.6363151 180.723691,88.4023611 180.723691,90.2988147 C180.723691,90.8203395 180.700126,91.3418564 180.652995,91.8633812 C180.605864,92.3849059 180.511604,92.9775388 180.37021,93.6412976 L180.087426,94.9213974 L170.755532,94.9213974 L170.96762,93.9968808 Z M113.420939,182.466001 C115.164787,182.466001 116.661174,182.181537 117.910146,181.612601 C119.159118,181.043665 120.207767,180.296948 121.056125,179.372427 C121.904483,178.447906 122.57609,177.381166 123.070966,176.172177 C123.565842,174.963188 123.954667,173.742364 124.237453,172.509669 L124.520237,171.22957 L133.852132,171.22957 L133.569347,172.509669 C132.909513,175.591407 132.014037,178.28196 130.882893,180.58141 C129.751748,182.88086 128.314274,184.80099 126.570426,186.341859 C124.826579,187.882728 122.752845,189.044288 120.349164,189.826575 C117.945482,190.608862 115.117663,191 111.865623,191 C109.650466,191 107.623862,190.668126 105.785753,190.004367 C103.947643,189.340608 102.368778,188.36869 101.04911,187.088584 C99.7294411,185.808478 98.704357,184.25578 97.9738262,182.430443 C97.2432955,180.605106 96.8780356,178.507186 96.8780356,176.136619 C96.8780356,175.283215 96.9251659,174.429823 97.019428,173.576419 C97.11369,172.723015 97.2786461,171.751097 97.5143011,170.660636 L99.8472747,159.566438 C101.308336,152.691793 103.900503,147.583298 107.623853,144.240799 C111.347203,140.898299 116.201625,139.227074 122.187264,139.227074 C124.543815,139.227074 126.652896,139.606359 128.514571,140.364941 C130.376246,141.123522 131.955111,142.154703 133.251214,143.458515 C134.547317,144.762327 135.537054,146.29132 136.220453,148.04554 C136.903853,149.799759 137.245548,151.672479 137.245548,153.663755 C137.245548,154.327514 137.198417,154.991263 137.104155,155.655022 C137.009893,156.318781 136.892068,157.006235 136.750675,157.717405 L136.46789,158.997505 L127.135996,158.997505 L127.41878,157.717405 C127.701566,156.579533 127.842957,155.489088 127.842957,154.446039 C127.842957,152.596996 127.312741,151.020593 126.252294,149.716781 C125.191846,148.412969 123.341981,147.761073 120.702644,147.761073 C119.147321,147.761073 117.733412,148.057389 116.460874,148.650031 C115.188337,149.242673 114.080775,150.048654 113.138154,151.067998 C112.195534,152.087341 111.406101,153.272607 110.769833,154.62383 C110.133564,155.975054 109.650478,157.38552 109.320561,158.855271 L106.704803,171.371803 C106.56341,172.082973 106.445584,172.78228 106.351322,173.469744 C106.25706,174.157209 106.20993,174.809105 106.20993,175.425452 C106.20993,177.558963 106.763711,179.265745 107.87129,180.545852 C108.978869,181.825958 110.828733,182.466001 113.420939,182.466001 Z M147.496492,140.222707 L179.733945,140.222707 L179.733945,149.183406 L168.281166,149.183406 L161.56503,181.043668 L173.017809,181.043668 L173.017809,190.004367 L140.780356,190.004367 L140.780356,181.043668 L152.233135,181.043668 L158.949271,149.183406 L147.496492,149.183406 L147.496492,140.222707 Z M190.762547,140.222707 L223,140.222707 L223,149.183406 L211.547221,149.183406 L204.831085,181.043668 L216.283864,181.043668 L216.283864,190.004367 L184.046411,190.004367 L184.046411,181.043668 L195.499191,181.043668 L202.215326,149.183406 L190.762547,149.183406 L190.762547,140.222707 Z" id="AS-CII" fill="#760FC3" style="mix-blend-mode: multiply;"></path>
            </g>
        </g>
    </g>
</svg>