<?xml version="1.0" encoding="utf-8"?>
<!-- Generator: Adobe Illustrator 19.1.0, SVG Export Plug-In . SVG Version: 6.00 Build 0)  -->
<svg version="1.1" id="Layer_1" xmlns="http://www.w3.org/2000/svg" xmlns:xlink="http://www.w3.org/1999/xlink" x="0px" y="0px"
	 viewBox="-351 153 256 256" style="enable-background:new -351 153 256 256;" xml:space="preserve">
<style type="text/css">
	.st0{fill:#414042;}
	.st1{enable-background:new    ;}
	.st2{fill:#FCEE21;}
	.st3{fill:#FFFFFF;}
</style>
<rect x="-351" y="153" class="st0" width="256" height="256"/>
<g>
	<g>
		<g class="st1">
			<path class="st2" d="M-281,254.1c0-0.6,0-1.2,0.1-1.7s0.1-1,0.1-1.5c0-0.5,0.1-0.9,0.1-1.4c0-0.5,0.1-1,0.1-1.6
				c0-0.3-0.1-0.6-0.2-0.9c-0.1-0.3-0.4-0.6-0.8-0.8c-0.4-0.3-0.9-0.5-1.5-0.6c-0.6-0.2-1.4-0.2-2.4-0.3v-3.1c1,0,1.8-0.1,2.4-0.3
				c0.6-0.2,1.1-0.4,1.5-0.6c0.4-0.3,0.6-0.5,0.8-0.8c0.1-0.3,0.2-0.6,0.2-0.9c0-0.6,0-1.1-0.1-1.5c0-0.5-0.1-1-0.1-1.4
				c0-0.5-0.1-1-0.1-1.5c0-0.5-0.1-1.1-0.1-1.7c0-1.9,0.5-3.3,1.6-4c1.1-0.7,2.8-1.1,5.1-1.1h2.8v2.8h-1.5c-0.7,0-1.4,0-1.8,0.1
				c-0.5,0.1-0.9,0.2-1.1,0.4c-0.3,0.2-0.5,0.5-0.6,0.8c-0.1,0.3-0.2,0.7-0.2,1.2c0,1,0,1.9,0.1,2.8c0.1,0.9,0.1,1.9,0.1,3
				c0,1.4-0.3,2.4-0.8,3c-0.6,0.6-1.5,1-2.8,1.2v0.1c1.3,0.2,2.2,0.6,2.8,1.2c0.6,0.6,0.8,1.6,0.8,3c0,1.1,0,2.1-0.1,3
				c-0.1,0.9-0.1,1.9-0.1,2.8c0,0.5,0.1,0.9,0.2,1.2s0.3,0.6,0.6,0.8c0.3,0.2,0.6,0.3,1.1,0.4c0.5,0.1,1.1,0.1,1.8,0.1h1.5v2.8h-2.8
				c-2.3,0-4-0.4-5.1-1.1C-280.4,257.3-281,256-281,254.1z"/>
		</g>
		<g class="st1">
			<path class="st3" d="M-257,251.1c0-0.9,0.3-1.7,0.8-2.2c0.6-0.6,1.3-0.8,2.1-0.8s1.5,0.3,2.1,0.8c0.6,0.6,0.8,1.3,0.8,2.2
				s-0.3,1.6-0.8,2.2c-0.6,0.6-1.3,0.8-2.1,0.8s-1.5-0.3-2.1-0.8C-256.7,252.8-257,252-257,251.1z"/>
			<path class="st3" d="M-235.4,251.1c0-0.9,0.3-1.7,0.8-2.2c0.6-0.6,1.3-0.8,2.1-0.8s1.5,0.3,2.1,0.8c0.6,0.6,0.8,1.3,0.8,2.2
				s-0.3,1.6-0.8,2.2c-0.6,0.6-1.3,0.8-2.1,0.8s-1.5-0.3-2.1-0.8C-235.1,252.8-235.4,252-235.4,251.1z"/>
			<path class="st3" d="M-213.8,251.1c0-0.9,0.3-1.7,0.8-2.2s1.3-0.8,2.1-0.8c0.8,0,1.5,0.3,2.1,0.8c0.6,0.6,0.8,1.3,0.8,2.2
				s-0.3,1.6-0.8,2.2c-0.6,0.6-1.3,0.8-2.1,0.8c-0.8,0-1.5-0.3-2.1-0.8C-213.5,252.8-213.8,252-213.8,251.1z"/>
			<path class="st3" d="M-192.2,251.1c0-0.9,0.3-1.7,0.8-2.2s1.3-0.8,2.1-0.8c0.8,0,1.5,0.3,2.1,0.8c0.6,0.6,0.8,1.3,0.8,2.2
				s-0.3,1.6-0.8,2.2c-0.6,0.6-1.3,0.8-2.1,0.8c-0.8,0-1.5-0.3-2.1-0.8C-191.9,252.8-192.2,252-192.2,251.1z"/>
			<path class="st3" d="M-170.6,251.1c0-0.9,0.3-1.7,0.8-2.2s1.3-0.8,2.1-0.8c0.8,0,1.5,0.3,2.1,0.8c0.6,0.6,0.8,1.3,0.8,2.2
				s-0.3,1.6-0.8,2.2c-0.6,0.6-1.3,0.8-2.1,0.8c-0.8,0-1.5-0.3-2.1-0.8C-170.3,252.8-170.6,252-170.6,251.1z"/>
		</g>
		<g class="st1">
			<path class="st3" d="M-281.5,333.3c0-0.9,0.3-1.7,0.8-2.2c0.6-0.6,1.3-0.8,2.1-0.8s1.5,0.3,2.1,0.8c0.6,0.6,0.8,1.3,0.8,2.2
				s-0.3,1.6-0.8,2.2c-0.6,0.6-1.3,0.8-2.1,0.8s-1.5-0.3-2.1-0.8C-281.2,335-281.5,334.3-281.5,333.3z"/>
			<path class="st3" d="M-259.9,333.3c0-0.9,0.3-1.7,0.8-2.2c0.6-0.6,1.3-0.8,2.1-0.8s1.5,0.3,2.1,0.8c0.6,0.6,0.8,1.3,0.8,2.2
				s-0.3,1.6-0.8,2.2c-0.6,0.6-1.3,0.8-2.1,0.8s-1.5-0.3-2.1-0.8C-259.6,335-259.9,334.3-259.9,333.3z"/>
			<path class="st3" d="M-238.3,333.3c0-0.9,0.3-1.7,0.8-2.2c0.6-0.6,1.3-0.8,2.1-0.8s1.5,0.3,2.1,0.8c0.6,0.6,0.8,1.3,0.8,2.2
				s-0.3,1.6-0.8,2.2c-0.6,0.6-1.3,0.8-2.1,0.8s-1.5-0.3-2.1-0.8C-238,335-238.3,334.3-238.3,333.3z"/>
			<path class="st3" d="M-216.7,333.3c0-0.9,0.3-1.7,0.8-2.2s1.3-0.8,2.1-0.8c0.8,0,1.5,0.3,2.1,0.8c0.6,0.6,0.8,1.3,0.8,2.2
				s-0.3,1.6-0.8,2.2c-0.6,0.6-1.3,0.8-2.1,0.8c-0.8,0-1.5-0.3-2.1-0.8C-216.4,335-216.7,334.3-216.7,333.3z"/>
		</g>
		<g class="st1">
			<path class="st3" d="M-195.1,333.3c0-0.9,0.3-1.7,0.8-2.2s1.3-0.8,2.1-0.8c0.8,0,1.5,0.3,2.1,0.8s0.8,1.3,0.8,2.2
				s-0.3,1.6-0.8,2.2c-0.6,0.6-1.3,0.8-2.1,0.8c-0.8,0-1.5-0.3-2.1-0.8C-194.8,335-195.1,334.3-195.1,333.3z"/>
		</g>
		<g class="st1">
			<path class="st2" d="M-173.9,338.6c0.7,0,1.3,0,1.8-0.1c0.5-0.1,0.8-0.2,1.1-0.4c0.3-0.2,0.5-0.5,0.6-0.8
				c0.1-0.3,0.2-0.7,0.2-1.2c0-1,0-1.9-0.1-2.8c0-0.9-0.1-1.9-0.1-3c0-1.4,0.3-2.4,0.8-3c0.6-0.6,1.5-1,2.8-1.2v-0.1
				c-1.3-0.2-2.2-0.6-2.8-1.2c-0.6-0.6-0.8-1.6-0.8-3c0-1.1,0-2.1,0.1-3c0-0.9,0.1-1.9,0.1-2.8c0-0.5-0.1-0.9-0.2-1.2
				c-0.1-0.3-0.3-0.6-0.6-0.8c-0.3-0.2-0.6-0.3-1.1-0.4c-0.5-0.1-1.1-0.1-1.8-0.1h-1.5v-2.8h2.8c2.3,0,4,0.4,5.1,1.1s1.6,2.1,1.6,4
				c0,0.6,0,1.2-0.1,1.7c0,0.5-0.1,1-0.1,1.5c-0.1,0.5-0.1,0.9-0.1,1.4c0,0.5-0.1,1-0.1,1.5c0,0.3,0.1,0.6,0.2,0.9
				c0.1,0.3,0.4,0.6,0.8,0.8c0.4,0.3,0.9,0.5,1.5,0.6c0.6,0.2,1.4,0.2,2.4,0.3v3.1c-1,0-1.8,0.1-2.4,0.3c-0.6,0.2-1.1,0.4-1.5,0.6
				s-0.6,0.5-0.8,0.8c-0.1,0.3-0.2,0.6-0.2,0.9c0,0.6,0,1.1,0.1,1.6c0,0.5,0.1,0.9,0.1,1.4c0.1,0.5,0.1,1,0.1,1.5
				c0,0.5,0.1,1.1,0.1,1.7c0,1.9-0.5,3.3-1.6,4c-1.1,0.7-2.8,1.1-5.1,1.1h-2.8v-2.8H-173.9z"/>
		</g>
		<g class="st1">
			<path class="st2" d="M-285.1,290.2c1,0.6,2.1,1.2,3.1,1.5c1,0.4,2.2,0.6,3.4,0.6c1.2,0,2.1-0.1,2.6-0.4c0.5-0.3,0.8-0.6,0.8-1.1
				c0-0.6-0.4-1-1.3-1.3c-0.9-0.3-2-0.7-3.5-1.1c-0.8-0.2-1.6-0.5-2.3-0.8c-0.8-0.3-1.4-0.7-2-1.1c-0.6-0.4-1.1-0.9-1.5-1.5
				c-0.4-0.6-0.6-1.2-0.6-1.9c0-0.8,0.2-1.6,0.6-2.3c0.4-0.7,0.9-1.3,1.6-1.8c0.7-0.5,1.6-0.9,2.6-1.1c1-0.3,2.2-0.4,3.4-0.4
				c1.6,0,3,0.3,4.3,0.8c1.3,0.5,2.4,1.1,3.4,1.7l-2.4,3.2c-0.8-0.5-1.7-0.9-2.5-1.2c-0.9-0.3-1.8-0.5-2.7-0.5
				c-1.1,0-1.9,0.1-2.4,0.4c-0.5,0.2-0.7,0.6-0.7,1c0,0.3,0.1,0.5,0.4,0.7c0.2,0.2,0.6,0.4,1,0.6s0.9,0.3,1.5,0.5s1.2,0.3,1.8,0.5
				c0.9,0.2,1.7,0.5,2.5,0.8s1.5,0.7,2.1,1.1c0.6,0.4,1.1,0.9,1.4,1.5s0.5,1.2,0.5,2c0,0.8-0.2,1.6-0.6,2.3s-0.9,1.3-1.7,1.8
				c-0.7,0.5-1.6,0.9-2.7,1.2c-1.1,0.3-2.4,0.4-3.8,0.4c-1.6,0-3.2-0.3-4.7-0.8c-1.5-0.5-2.9-1.2-4-1.9L-285.1,290.2z"/>
			<path class="st2" d="M-265.4,286.9c0-1.5,0.3-2.8,0.8-4c0.6-1.2,1.3-2.1,2.3-2.9c0.9-0.8,2-1.4,3.3-1.8c1.2-0.4,2.6-0.6,3.9-0.6
				c1.4,0,2.7,0.2,3.8,0.7c1.1,0.5,2.1,1,2.9,1.7l-2.4,3.3c-1.3-0.9-2.6-1.4-4-1.4c-1.5,0-2.8,0.5-3.7,1.4c-1,0.9-1.4,2.1-1.4,3.7
				s0.5,2.8,1.4,3.7c0.9,0.9,2.1,1.4,3.6,1.4c0.9,0,1.8-0.2,2.6-0.5c0.8-0.3,1.5-0.7,2.1-1.2l2.2,3.3c-1.1,0.9-2.3,1.6-3.6,2
				c-1.3,0.4-2.6,0.6-3.8,0.6c-1.4,0-2.7-0.2-3.9-0.6c-1.2-0.4-2.2-1-3.1-1.8s-1.6-1.8-2.1-2.9
				C-265.1,289.7-265.4,288.4-265.4,286.9z"/>
			<path class="st2" d="M-242,278h4.3l0.4,3.9h0.1c0.9-1.5,2-2.5,3.2-3.3c1.2-0.7,2.6-1.1,4-1.1c0.8,0,1.4,0.1,1.9,0.2
				c0.5,0.1,1,0.3,1.5,0.5l-1.1,4.4c-0.6-0.2-1.1-0.3-1.5-0.4c-0.4-0.1-1-0.1-1.7-0.1c-1.1,0-2.2,0.3-3.3,1c-1.1,0.6-2,1.8-2.8,3.4
				v9.3h-5.3V278z"/>
			<path class="st2" d="M-221.7,278h12.5v17.9h-5.3v-13.7h-7.2V278z M-212.1,275.3c-1,0-1.9-0.3-2.5-0.9c-0.7-0.6-1-1.4-1-2.3
				c0-1,0.3-1.8,1-2.4s1.5-0.9,2.5-0.9s1.9,0.3,2.5,0.9s1,1.4,1,2.4c0,1-0.3,1.8-1,2.3C-210.3,275-211.1,275.3-212.1,275.3z"/>
			<path class="st2" d="M-195.1,297.2v5.2h-5.3V278h4.3l0.4,1.8h0.1c0.7-0.6,1.5-1.2,2.5-1.6c0.9-0.4,1.9-0.6,2.8-0.6
				c1.1,0,2.1,0.2,3,0.6c0.9,0.4,1.6,1,2.3,1.8s1.1,1.7,1.4,2.9c0.3,1.1,0.5,2.4,0.5,3.7c0,1.5-0.2,2.9-0.6,4.1
				c-0.4,1.2-1,2.2-1.7,3c-0.7,0.8-1.5,1.5-2.5,1.9c-0.9,0.4-1.9,0.6-2.9,0.6c-1.6,0-3.1-0.6-4.5-1.9L-195.1,297.2z M-195.1,290.7
				c0.5,0.4,1,0.7,1.6,0.9c0.5,0.2,1,0.3,1.5,0.3c1,0,1.8-0.4,2.5-1.2s1-2.2,1-4c0-3.2-1.1-4.8-3.3-4.8c-1.1,0-2.2,0.6-3.3,1.7
				V290.7z"/>
			<path class="st2" d="M-175.1,282.1h-4.5v-3.9l4.8-0.2l0.7-4.8h4.4v4.8h7.6v4.1h-7.6v6.3c0,1.4,0.3,2.3,0.9,2.9
				c0.6,0.6,1.5,0.8,2.8,0.8c0.7,0,1.3-0.1,1.9-0.2s1.1-0.3,1.7-0.5l0.9,3.8c-0.8,0.2-1.7,0.5-2.6,0.7c-1,0.2-2,0.3-3.2,0.3
				c-1.4,0-2.6-0.2-3.6-0.6c-1-0.4-1.8-0.9-2.4-1.6c-0.6-0.7-1-1.5-1.3-2.5c-0.3-1-0.4-2-0.4-3.2V282.1z"/>
		</g>
	</g>
	<g>
		<path class="st3" d="M-135,358.9h-176V207c0-5.5,4.4-9.9,9.9-9.9h156.2c5.5,0,9.9,4.4,9.9,9.9V358.9z M-305.6,353.5h165.2V207
			c0-2.5-2-4.5-4.5-4.5h-156.2c-2.5,0-4.5,2-4.5,4.5V353.5z"/>
	</g>
	<g>
		<rect x="-308.3" y="211" class="st3" width="170.6" height="4.7"/>
	</g>
</g>
</svg>
