<svg viewBox="0 0 256 256" fill="none" xmlns="http://www.w3.org/2000/svg">
<rect width="256" height="256" rx="20" fill="#6C75F1"/>
<path fill-rule="evenodd" clip-rule="evenodd" d="M153.261 64.0949C157.466 63.6202 161.68 63.6558 165.904 64.2021C171.716 65.5011 177.947 67.8963 183.27 71.1639C184.261 71.7724 185.746 72.4175 187.314 73.0986L187.314 73.0986L187.315 73.0986C190.016 74.2722 192.965 75.5526 194.056 76.9371C198.322 82.3484 193.201 90.5651 186.986 90.5651C185.502 90.5651 184.378 90.4305 182.208 90.065C181.721 89.9829 181.5 89.946 181.243 89.9046C177.556 89.3121 175.237 89.4978 171.797 91.0983C170.773 91.5746 171.922 100.713 173.416 112.604C175.081 125.848 177.175 142.509 177.175 154.42C177.175 172.882 171.273 215.575 166.643 215.575C163.226 215.575 160.304 194.538 158.784 183.595C158.462 181.275 158.202 179.409 158.015 178.293L158.038 178.293L158.034 178.291C158.03 178.291 158.027 178.29 158.023 178.289C158.02 178.289 158.017 178.289 158.014 178.288C157.888 177.54 157.795 177.13 157.736 177.149C157.689 177.224 157.482 178.603 157.149 180.817C155.615 191.025 151.41 219 147.964 219C144.461 219 141.32 190.085 140.26 180.321C140.052 178.402 139.924 177.223 139.889 177.149C139.775 177.15 139.326 177.224 138.602 177.344C132.396 178.369 106.009 182.727 98.1059 172.882C98.0431 172.993 97.6759 174.663 97.0943 177.308C94.5546 188.86 87.928 219 84.7266 219C79.6107 219 74.0698 175.639 75.7184 156.823C75.7667 156.293 75.8189 155.785 75.8743 155.299C75.9573 154.598 76.0524 153.939 76.1601 153.328L76.1283 153.355C76.695 149.535 77.4399 147.371 77.8581 146.157C78.1665 145.261 78.2972 144.882 78.0474 144.734C77.5066 144.415 74.4651 149.55 71.9841 156.61C71.108 157.208 70.2687 157.706 69.4486 158.105C67.3995 159.101 65.5548 159.423 63.9327 158.871C60.8538 157.823 59.7864 155.27 60.6753 152.025C61.4128 149.334 63.4788 146.185 66.3408 143.253C72.0948 137.359 78.4668 133.715 89.2765 132.031C100.945 130.214 118.084 130.834 140.726 133.88L146.189 70.5526C144.856 62.1789 142.291 44.4163 143.561 38.9779C145.178 32.0497 152.691 42.4413 153.261 64.0949ZM158.014 178.288L158.015 178.293L158.013 178.293C157.996 178.288 157.981 178.286 157.967 178.286C157.985 178.286 158.001 178.287 158.014 178.288ZM165.903 41.8531C166.212 45.3029 164.065 53.9579 162.038 61.149C159.612 61.0207 157.189 61.053 154.768 61.246C157.947 43.4585 165.364 35.8412 165.903 41.8531ZM99.016 178.336C99.016 178.336 103.288 215.451 106.108 215.451C108.249 215.451 110.179 196.319 111.125 186.945C111.356 184.661 111.528 182.956 111.63 182.248C103.596 182.248 99.016 178.336 99.016 178.336Z" fill="white"/>
</svg>
