<svg width="256" height="256" viewBox="0 0 256 256" fill="none" xmlns="http://www.w3.org/2000/svg">
<rect width="256" height="256" fill="url(#paint0_linear_1523_6015)"/>
<path d="M63 43C63 39.6863 65.6863 37 69 37H159L193 72V211C193 214.314 190.314 217 187 217H69C65.6863 217 63 214.314 63 211V43Z" fill="url(#paint1_linear_1523_6015)"/>
<path d="M159 66V37L193 72H165C161.686 72 159 69.3137 159 66Z" fill="white"/>
<path d="M122.59 82.6569C125.714 79.5327 130.779 79.5327 133.903 82.6569L162.836 111.59C165.961 114.714 165.961 119.779 162.836 122.904L133.903 151.837C130.779 154.961 125.714 154.961 122.59 151.837L93.6566 122.904C90.5324 119.779 90.5324 114.714 93.6566 111.59L122.59 82.6569Z" fill="#005499"/>
<path fill-rule="evenodd" clip-rule="evenodd" d="M144.388 108.143L124.298 130.06L110.712 118.415L113.986 114.595L123.877 123.074L140.68 104.744L144.388 108.143Z" fill="white"/>
<path d="M103.664 201.48C102.32 201.48 101.072 201.248 99.9197 200.784C98.7837 200.32 97.7997 199.688 96.9677 198.888C96.1357 198.088 95.4797 197.152 94.9997 196.08C94.5357 194.992 94.3037 193.832 94.3037 192.6C94.3037 191.368 94.5357 190.216 94.9997 189.144C95.4797 188.056 96.1357 187.112 96.9677 186.312C97.7997 185.512 98.7837 184.88 99.9197 184.416C101.072 183.952 102.32 183.72 103.664 183.72C104.864 183.72 105.912 183.888 106.808 184.224C107.704 184.56 108.456 184.936 109.064 185.352C109.768 185.832 110.368 186.368 110.864 186.96L108.104 190.08C107.736 189.68 107.328 189.32 106.88 189C106.48 188.728 106.008 188.48 105.464 188.256C104.936 188.032 104.336 187.92 103.664 187.92C103.008 187.92 102.392 188.04 101.816 188.28C101.24 188.52 100.744 188.856 100.328 189.288C99.9117 189.704 99.5837 190.2 99.3437 190.776C99.1037 191.336 98.9837 191.944 98.9837 192.6C98.9837 193.256 99.1037 193.872 99.3437 194.448C99.5837 195.024 99.9117 195.52 100.328 195.936C100.744 196.352 101.24 196.68 101.816 196.92C102.392 197.16 103.008 197.28 103.664 197.28C104.336 197.28 104.944 197.168 105.488 196.944C106.032 196.72 106.512 196.472 106.928 196.2C107.408 195.896 107.84 195.536 108.224 195.12L110.984 198.24C110.456 198.848 109.832 199.392 109.112 199.872C108.504 200.288 107.744 200.664 106.832 201C105.92 201.32 104.864 201.48 103.664 201.48Z" fill="#004F97"/>
<path d="M116.441 184.2H111.881V201H116.441V194.64H122.561V201H127.121V184.2H122.561V190.32H116.441V184.2Z" fill="#004F97"/>
<path d="M132.7 188.28H128.02V184.2H141.94V188.28H137.26V201H132.7V188.28Z" fill="#004F97"/>
<path d="M146.922 184.2H142.842V201H147.402V191.04L152.082 196.92L156.762 191.04V201H161.322V184.2H157.242L152.082 190.68L146.922 184.2Z" fill="#004F97"/>
<path d="M168.214 184.2H163.654V201H175.534V196.68H168.214V184.2Z" fill="#004F97"/>
<path d="M79.2398 184.2L84.1598 192.24L78.7598 201H83.7998L87.1118 195.24H87.2078L90.5198 201H95.5598L90.1598 192.24L95.0798 184.2H90.0398L87.2078 189.24H87.1118L84.2798 184.2H79.2398Z" fill="#004F97"/>
<defs>
<linearGradient id="paint0_linear_1523_6015" x1="128" y1="0" x2="128" y2="256" gradientUnits="userSpaceOnUse">
<stop stop-color="#52C2FA"/>
<stop offset="1" stop-color="#1486F5"/>
</linearGradient>
<linearGradient id="paint1_linear_1523_6015" x1="70.5" y1="238" x2="155.5" y2="-59.5" gradientUnits="userSpaceOnUse">
<stop stop-color="white"/>
<stop offset="1" stop-color="white" stop-opacity="0"/>
</linearGradient>
</defs>
</svg>
