<?xml version="1.0" encoding="utf-8"?>
<!-- Generator: Adobe Illustrator 19.1.0, SVG Export Plug-In . SVG Version: 6.00 Build 0)  -->
<svg version="1.1" id="Layer_1" xmlns="http://www.w3.org/2000/svg" xmlns:xlink="http://www.w3.org/1999/xlink" x="0px" y="0px"
	 viewBox="0 0 256 256" enable-background="new 0 0 256 256" xml:space="preserve">
<rect fill="#8151A8" width="256" height="256"/>
<g>
	<g>
		<path fill="#FFFFFF" d="M92.8,184.5V65.6c0-4.5,3.6-8.1,8.1-8.1h59.6c4.5,0,8.1,3.6,8.1,8.1l12.5,118.8c0,2.9-2.4,5.3-5.3,5.3
			h-9.8c-2.2,0-4.2-1.4-4.9-3.5l-6.2-17.2c-0.8-2.1-2.7-3.5-4.9-3.5h-25.7c-2.3,0-4.3,1.5-5,3.7l-5.5,17.1c-0.7,2.2-2.8,3.7-5.1,3.7
			L98,189.8C95.1,189.8,92.8,187.4,92.8,184.5z"/>
		<path fill="#FFFFFF" d="M108.7,191.5c0,0-0.1,0-0.1,0L98,191.3c-3.7-0.1-6.7-3.1-6.7-6.8V65.6c0-5.3,4.3-9.6,9.6-9.6h59.6
			c5.3,0,9.6,4.3,9.6,9.5l12.5,118.9c0,3.7-3,6.8-6.8,6.8h-9.8c-2.8,0-5.4-1.8-6.4-4.5l-6.2-17.2c-0.5-1.5-2-2.5-3.5-2.5h-25.7
			c-1.6,0-3.1,1.1-3.6,2.6l-5.5,17.1C114.3,189.6,111.7,191.5,108.7,191.5z M100.9,59c-3.6,0-6.6,3-6.6,6.6v118.9
			c0,2,1.7,3.7,3.7,3.8l10.6,0.2c0,0,0,0,0.1,0c1.6,0,3.1-1,3.6-2.6l5.5-17.1c0.9-2.8,3.5-4.7,6.4-4.7h25.7c2.8,0,5.4,1.8,6.4,4.5
			l6.2,17.2c0.5,1.5,2,2.5,3.5,2.5h9.8c2.1,0,3.7-1.7,3.8-3.7L167.2,65.6c0-3.6-3-6.6-6.6-6.6H100.9z"/>
	</g>
	<g>
		<path fill="#8151A8" d="M74.8,192.7V66.2c0-4.8,3.9-8.6,8.6-8.6h76.8c4.8,0,8.6,3.9,8.6,8.6v126.4c0,3.1-2.5,5.6-5.6,5.6h-10.5
			c-2.4,0-4.5-1.5-5.3-3.7l-6.7-18.3c-0.8-2.2-2.9-3.7-5.3-3.7h-27.3c-2.4,0-4.6,1.6-5.3,3.9l-5.8,18.1c-0.8,2.4-3,3.9-5.4,3.9
			l-11.3-0.2C77.3,198.2,74.8,195.7,74.8,192.7z"/>
		<path fill="#FFFFFF" d="M91.8,200c0,0-0.1,0-0.1,0l-11.3-0.2c-3.9-0.1-7-3.2-7-7.1V66.2c0-5.6,4.5-10.1,10.1-10.1h76.8
			c5.6,0,10.1,4.5,10.1,10.1v126.4c0,3.9-3.2,7.1-7.1,7.1h-10.5c-3,0-5.7-1.9-6.7-4.7l-6.7-18.3c-0.6-1.6-2.1-2.7-3.9-2.7h-27.3
			c-1.8,0-3.4,1.1-3.9,2.9L98.5,195C97.6,198,94.9,200,91.8,200z M83.5,59c-3.9,0-7.1,3.2-7.1,7.1v126.5c0,2.2,1.8,4.1,4,4.1
			l11.3,0.2c0,0,0,0,0.1,0c1.8,0,3.4-1.1,3.9-2.9l5.8-18.1c0.9-3,3.7-4.9,6.8-4.9h27.3c3,0,5.7,1.9,6.7,4.7l6.7,18.3
			c0.6,1.6,2.1,2.7,3.9,2.7h10.5c2.3,0,4.1-1.8,4.1-4.1V66.2c0-3.9-3.2-7.1-7.1-7.1H83.5z"/>
	</g>
	<g>
		<g>
			<circle fill="#FFFFFF" cx="112.6" cy="87.4" r="6.5"/>
		</g>
		<g>
			<path fill="#FFFFFF" d="M118.4,124c-1.2,0-2.2-0.9-2.5-2.1l-3.8-21.4c-0.2-1.4,0.7-2.7,2-2.9c1.4-0.2,2.7,0.7,2.9,2l3.8,21.4
				c0.2,1.4-0.7,2.7-2,2.9C118.7,124,118.6,124,118.4,124z"/>
		</g>
		<g>
			<path fill="#FFFFFF" d="M114.7,102.6c-1.2,0-2.2-0.9-2.5-2.1c-0.2-1.4,0.7-2.7,2-2.9l9.6-1.7c0.7-0.1,1.4-0.5,1.8-1.1l7.2-9.1
				c0.9-1.1,2.4-1.3,3.5-0.4c1.1,0.9,1.3,2.4,0.4,3.5l-7.2,9.1c-1.2,1.5-2.9,2.6-4.9,2.9l-9.6,1.7
				C115,102.5,114.8,102.6,114.7,102.6z"/>
		</g>
		<g>
			<path fill="#FFFFFF" d="M94.7,115.3c-0.5,0-1.1-0.2-1.6-0.5c-1.1-0.9-1.3-2.4-0.4-3.5l7.3-9.1c1.2-1.5,2.9-2.5,4.8-2.9l9.4-1.6
				c1.4-0.2,2.7,0.7,2.9,2c0.2,1.4-0.7,2.7-2,2.9l-9.3,1.6c-0.7,0.1-1.3,0.5-1.8,1.1l-7.3,9.1C96.2,114.9,95.5,115.3,94.7,115.3z"/>
		</g>
		<g>
			<path fill="#FFFFFF" d="M149.7,130.2c-0.4,0-0.8-0.1-1.1-0.3l-15.4-8c-0.5-0.3-1.1-0.4-1.7-0.3l-12.6,2.2c-1.4,0.2-2.7-0.7-2.9-2
				s0.7-2.7,2-2.9l12.6-2.2c1.6-0.3,3.4,0,4.8,0.7l15.4,8c1.2,0.6,1.7,2.1,1.1,3.4C151.4,129.7,150.6,130.2,149.7,130.2z"/>
		</g>
		<g>
			<path fill="#FFFFFF" d="M136.4,143.1c-0.9,0-1.8-0.5-2.3-1.4l-5.8-12.1c-0.3-0.5-0.7-1-1.2-1.2l-9-4.3c-1.2-0.6-1.8-2.1-1.2-3.3
				c0.6-1.2,2.1-1.8,3.3-1.2l9,4.3c1.6,0.7,2.9,2,3.6,3.6l5.8,12.1c0.6,1.2,0.1,2.7-1.2,3.3C137.1,143.1,136.7,143.1,136.4,143.1z"
				/>
		</g>
	</g>
	<g>
		<path fill="#FFFFFF" d="M133,154h-33c-0.8,0-1.5-0.7-1.5-1.5s0.7-1.5,1.5-1.5h33c0.8,0,1.5,0.7,1.5,1.5S133.8,154,133,154z"/>
	</g>
	<g>
		<path fill="#FFFFFF" d="M143,154h-3c-0.8,0-1.5-0.7-1.5-1.5s0.7-1.5,1.5-1.5h3c0.8,0,1.5,0.7,1.5,1.5S143.8,154,143,154z"/>
	</g>
</g>
</svg>
