<svg xmlns="http://www.w3.org/2000/svg" viewBox="0 0 256 256" width="256" height="256"><path fill="#13202f" d="M167.05 68.05a27.55 27.55 0 0 0-38.93 0 27.23 27.23 0 0 0-8 18.38v26.13a2.46 2.46 0 0 0 2.46 2.46h23.84a27 27 0 0 0 20.67-8 27.55 27.55 0 0 0-.04-38.97z"/><path fill="#f03748" d="M68.06 89.07a27.53 27.53 0 0 0 0 38.93 27.21 27.21 0 0 0 18.37 8h26.13a2.47 2.47 0 0 0 2.47-2.46v-23.8a26.94 26.94 0 0 0-8-20.67 27.53 27.53 0 0 0-38.97 0zm21 98.88a27.53 27.53 0 0 0 47-18.38v-26.13a2.47 2.47 0 0 0-2.47-2.46h-23.85a26.94 26.94 0 0 0-20.66 8 27.53 27.53 0 0 0 0 39.02zM188 167a27.53 27.53 0 0 0-18.38-47h-26.17a2.46 2.46 0 0 0-2.47 2.46v23.84A27.15 27.15 0 0 0 149 167a27.66 27.66 0 0 0 39 0z"/></svg>
