<?xml version="1.0" encoding="utf-8"?>
<!-- Generator: Adobe Illustrator 19.1.0, SVG Export Plug-In . SVG Version: 6.00 Build 0)  -->
<svg version="1.1" id="Layer_1" xmlns="http://www.w3.org/2000/svg" xmlns:xlink="http://www.w3.org/1999/xlink" x="0px" y="0px"
	 viewBox="-351 153 256 256" style="enable-background:new -351 153 256 256;" xml:space="preserve">
<style type="text/css">
	.st0{fill:#2EA9E0;}
	.st1{fill:#FFFFFF;}
	.st2{enable-background:new    ;}
</style>
<rect x="-351" y="153" class="st0" width="256" height="256"/>
<g>
	<g>
		<g>
			<path class="st1" d="M-203.4,242.8l-40.2,6.2c-2.1,0.3-4-1.1-4.2-3.2l-3.7-30.2c-0.2-2,1.2-3.9,3.2-4.1l38.3-4.9
				c1.9-0.2,3.7,1,4.1,3l5.6,28.9C-199.9,240.5-201.3,242.5-203.4,242.8z"/>
		</g>
	</g>
	<g>
		<g>
			<path class="st1" d="M-229.2,203.4c3.1-15.3,14.5-12.5,14.5-12.5l10.7,2.2c2.5,3.8,5.6,1.1,5.6,1.1l4,0.8l-1.8,9l-4.2-0.9
				c-2.3-3.5-5.4-1.1-5.4-1.1l-10.8-2c0,0,0.7-3.4-0.7-3.6C-225.4,194.7-229.2,203.4-229.2,203.4z"/>
			<path class="st0" d="M-196.2,205c-0.1,0-0.1,0-0.2,0l-4.2-0.9c-0.3-0.1-0.5-0.2-0.6-0.4c-0.5-0.8-1.2-1.3-1.8-1.4
				c-1.1-0.2-2.1,0.6-2.1,0.6c-0.2,0.2-0.5,0.2-0.8,0.2l-10.8-2c-0.3,0-0.5-0.2-0.6-0.4c-0.1-0.2-0.2-0.5-0.2-0.8
				c0.2-1,0.2-2.1,0-2.4c-7.2-1.4-10.7,6.4-10.7,6.4c-0.2,0.5-0.7,0.7-1.2,0.6c-0.5-0.2-0.8-0.7-0.7-1.2c1.1-5.5,3.4-9.5,6.9-11.6
				c4.3-2.7,8.7-1.7,8.8-1.6l10.7,2.2c0.3,0.1,0.5,0.2,0.6,0.4c0.6,0.9,1.3,1.5,2,1.6c1.1,0.2,2.1-0.7,2.1-0.7
				c0.2-0.2,0.5-0.3,0.8-0.2l4,0.8c0.3,0.1,0.5,0.2,0.6,0.4s0.2,0.5,0.1,0.8l-1.8,9c-0.1,0.3-0.2,0.5-0.4,0.6
				C-195.8,204.9-196,205-196.2,205z M-199.8,202.2l2.8,0.6l1.4-7l-2.6-0.5c-0.6,0.4-1.8,1-3.2,0.8c-1.2-0.2-2.3-0.9-3.2-2.1
				l-10.3-2.1c-0.1,0-3.8-0.9-7.4,1.4c-1.7,1.1-3,2.6-4.1,4.7c2.1-1.9,5.2-3.4,9.3-2.6c0.4,0.1,0.9,0.3,1.2,0.7
				c0.6,0.8,0.6,2.1,0.5,3l9.5,1.8c0.6-0.4,1.8-0.9,3.2-0.7C-201.6,200.4-200.6,201.1-199.8,202.2z"/>
		</g>
		<g>
			<path class="st1" d="M-213.6,200.6l-10.3,47.1c0,0,1.8,1.5,3.2,1.8c1.7,0.3,4.1-0.3,4.1-0.3l8.4-47.5L-213.6,200.6z"/>
			<path class="st0" d="M-219.6,250.6c-0.4,0-0.9,0-1.2-0.1c-1.6-0.3-3.5-1.8-3.7-2c-0.3-0.2-0.4-0.6-0.3-1l10.3-47.1
				c0.1-0.5,0.6-0.9,1.2-0.8l5.4,1.1c0.5,0.1,0.9,0.6,0.8,1.2l-8.4,47.5c-0.1,0.4-0.4,0.7-0.7,0.8
				C-216.4,250.2-218,250.6-219.6,250.6z M-222.8,247.3c0.6,0.5,1.6,1.1,2.3,1.2c0.9,0.2,2.2,0,3-0.2l8.1-45.9l-3.5-0.7
				L-222.8,247.3z"/>
		</g>
	</g>
	<g>
		<path class="st0" d="M-244.8,219.1c-0.5,0-0.9-0.4-1-0.9c-0.1-0.5,0.3-1.1,0.8-1.1l21-3c0.5-0.1,1.1,0.3,1.1,0.8
			c0.1,0.5-0.3,1.1-0.8,1.1l-21,3C-244.7,219.1-244.8,219.1-244.8,219.1z"/>
	</g>
	<g>
		<path class="st0" d="M-243.9,224.9c-0.5,0-0.9-0.4-1-0.9c-0.1-0.5,0.3-1.1,0.9-1.1l21-2.9c0.5-0.1,1.1,0.3,1.1,0.9
			c0.1,0.5-0.3,1.1-0.9,1.1l-21,2.9C-243.8,224.9-243.9,224.9-243.9,224.9z"/>
	</g>
	<g>
		<path class="st0" d="M-243.1,231c-0.5,0-0.9-0.4-1-0.9c-0.1-0.5,0.3-1.1,0.8-1.1l12.3-1.8c0.5-0.1,1.1,0.3,1.1,0.8
			c0.1,0.5-0.3,1.1-0.8,1.1L-243,231C-243,231-243.1,231-243.1,231z"/>
	</g>
</g>
<g class="st2">
	<path class="st1" d="M-270.8,317l-26.7-31.1h3.2l25,29.5l25.2-29.5h3l-26.7,31.1l27.7,32.1h-3.2l-26-30.5l-26.2,30.5h-3L-270.8,317
		z"/>
	<path class="st1" d="M-227.7,342.6h4.6v6.6h-4.6V342.6z"/>
	<path class="st1" d="M-217.1,366.3l1.3-2.2c2.8,1.6,7.1,3.2,10.6,3.2c7.3,0,11.4-3,18.3-18.2l-30.5-63.2h2.9l28.8,60.4l27.2-60.4
		h2.8l-29.3,64.5c-7.3,16.2-12,19.3-20.2,19.3C-209.7,369.7-214.2,368.1-217.1,366.3z"/>
</g>
</svg>
