<?xml version="1.0" encoding="utf-8"?>
<!-- Generator: Adobe Illustrator 23.0.3, SVG Export Plug-In . SVG Version: 6.00 Build 0)  -->
<svg version="1.1" id="Calque_1" xmlns="http://www.w3.org/2000/svg" xmlns:xlink="http://www.w3.org/1999/xlink" x="0px" y="0px"
	 viewBox="0 0 256 256" style="enable-background:new 0 0 256 256;" xml:space="preserve">
<style type="text/css">
	.st0{fill:#FFFFFF;}
	.st1{fill:#E51A5F;}
</style>
<path id="XMLID_303_" class="st1" d="M174.7,118.8c-2.8,0-5.5,0.5-7.9,1.4c-1.9-5.7-7.7-9.9-14.6-9.9c-4.3,0-8.3,1.7-11,4.4
	c-2.2-13.3-14.5-23.4-29.5-23.4c-16.5,0-29.8,12.3-29.8,27.5c0,1.1,0.1,2.2,0.2,3.2c-0.6-0.1-1.2-0.1-1.8-0.1
	c-10.8,0-19.5,8.1-19.5,18c0,10,8.8,18,19.5,18h94.5c0,0,0,0,0,0c0,0,0,0,0.1,0h1.2v0c11.1-0.6,20-9.1,20-19.6
	C196,127.6,186.5,118.8,174.7,118.8z"/>
<g id="New-Icons">
	<g id="Slack" transform="translate(0.000000, 0.000000)">
		<g id="slack-stepicon">
			<rect id="Rectangle-path" class="st0" width="256" height="256"/>
		</g>
	</g>
</g>
<path id="XMLID_3_" class="st1" d="M194.2,111.5c-4,0-7.9,0.7-11.5,2c-2.8-8.3-11.2-14.3-21.1-14.3c-6.3,0-12,2.4-16,6.3
	c-3.1-19.2-21.1-33.9-42.7-33.9c-23.9,0-43.2,17.9-43.2,39.9c0,1.6,0.1,3.2,0.3,4.7c-0.9-0.1-1.8-0.1-2.7-0.1
	c-15.6,0-28.3,11.7-28.3,26.1c0,14.4,12.7,26.1,28.3,26.1h136.8c0,0,0,0,0,0c0,0,0.1,0,0.1,0h1.8v-0.1c16.1-0.9,28.9-13.2,28.9-28.4
	C225,124.2,211.2,111.5,194.2,111.5z"/>
</svg>
