<svg xmlns="http://www.w3.org/2000/svg" width="256" height="256" viewBox="0 0 256 256">
  <defs>
    <linearGradient id="apk-info-stepicon-a" x1="50%" x2="50%" y1="0%" y2="100%">
      <stop offset="0%" stop-color="#53A906"/>
      <stop offset="100%" stop-color="#A4C639"/>
    </linearGradient>
    <linearGradient id="apk-info-stepicon-b" x1="50%" x2="50%" y1="100%" y2="0%">
      <stop offset="0%" stop-color="#FFF" stop-opacity=".7"/>
      <stop offset="100%" stop-color="#FFF"/>
    </linearGradient>
    <linearGradient id="apk-info-stepicon-c" x1="-26.536%" x2="122.497%" y1="-146.466%" y2="149.7%">
      <stop offset="0%" stop-color="#0DD3C5"/>
      <stop offset="8.751%" stop-color="#0DC0C7"/>
      <stop offset="100%" stop-color="#0D83CD"/>
    </linearGradient>
  </defs>
  <g fill="none" fill-rule="evenodd">
    <rect width="256" height="256" fill="url(#apk-info-stepicon-a)"/>
    <path fill="url(#apk-info-stepicon-b)" d="M140.003279,93.9611734 C145.270492,91.7169974 150.537705,90.9689387 156.557377,90.9689387 C161.82459,90.9689387 166.339344,91.7169974 170.854098,93.2131148 L182.893443,81.244176 C185.903279,78.2519413 190.418033,78.2519413 193.427869,81.244176 C196.437705,84.2364107 196.437705,88.7247627 193.427869,91.7169974 L184.398361,100.693701 C194.932787,108.922347 201.704918,121.639344 201.704918,135.852459 L111.409836,135.852459 C111.409836,122.387403 117.429508,110.418464 127.211475,102.189819 L116.677049,91.7169974 C113.667213,88.7247627 113.667213,84.2364107 116.677049,81.244176 C119.686885,78.2519413 124.201639,78.2519413 127.211475,81.244176 L140.003279,93.9611734 Z M126.459016,181.433515 L118.934426,181.433515 C114.419672,181.433515 111.409836,178.411293 111.409836,173.87796 L111.409836,143.655738 L201.704918,143.655738 L201.704918,173.87796 C201.704918,173.87796 201.704918,173.87796 201.704918,173.87796 C201.704918,178.411293 198.695082,181.433515 194.180328,181.433515 L186.655738,181.433515 L186.655738,204.100182 C186.655738,207.87796 183.645902,211.655738 179.131148,211.655738 C174.616393,211.655738 171.606557,208.633515 171.606557,204.100182 L171.606557,181.433515 L141.508197,181.433515 L141.508197,204.100182 C141.508197,207.87796 138.498361,211.655738 133.983607,211.655738 C129.468852,211.655738 126.459016,208.633515 126.459016,204.100182 L126.459016,181.433515 Z M224,144.459823 L224,175.179522 C224,178.925826 220.878689,182.672131 216.196721,182.672131 C211.514754,182.672131 208.393443,179.675087 208.393443,175.179522 L208.393443,144.459823 C208.393443,140.713518 211.514754,136.967213 216.196721,136.967213 C220.878689,136.967213 224,139.964257 224,144.459823 Z M95.8032787,135.852459 C100.485246,135.852459 103.606557,138.899454 103.606557,143.469945 L103.606557,173.939891 C103.606557,177.748634 100.485246,181.557377 95.8032787,181.557377 C91.1213115,181.557377 88,178.510383 88,173.939891 L88,143.469945 C88,138.899454 91.1213115,135.852459 95.8032787,135.852459 Z M178.295082,129.163934 C182.977049,129.163934 186.098361,126.042623 186.098361,121.360656 C186.098361,117.459016 182.977049,113.557377 178.295082,113.557377 C173.613115,113.557377 170.491803,117.459016 170.491803,121.360656 C170.491803,126.042623 173.613115,129.163934 178.295082,129.163934 Z M133.704918,129.163934 C138.386885,129.163934 141.508197,126.042623 141.508197,121.360656 C141.508197,117.459016 138.386885,113.557377 133.704918,113.557377 C129.022951,113.557377 125.901639,117.459016 125.901639,121.360656 C125.901639,126.042623 129.022951,129.163934 133.704918,129.163934 Z"/>
    <path fill="url(#apk-info-stepicon-c)" fill-rule="nonzero" d="M94,137.615385 C118.640397,137.615385 138.615385,117.640397 138.615385,93 C138.615385,68.3596035 118.640397,48.3846154 94,48.3846154 C69.3596035,48.3846154 49.3846154,68.3596035 49.3846154,93 C49.3846154,117.640397 69.3596035,137.615385 94,137.615385 Z M94,153 C60.862915,153 34,126.137085 34,93 C34,59.862915 60.862915,33 94,33 C127.137085,33 154,59.862915 154,93 C154,126.137085 127.137085,153 94,153 Z M94.3846154,69.9230769 C89.9238539,69.9230769 86.3076923,66.3069153 86.3076923,61.8461538 C86.3076923,57.3853924 89.9238539,53.7692308 94.3846154,53.7692308 C98.8453768,53.7692308 102.461538,57.3853924 102.461538,61.8461538 C102.461538,66.3069153 98.8453768,69.9230769 94.3846154,69.9230769 Z M79.9248577,94.2130457 L75.2055134,79.5701574 L91.6403278,74.2732824 C97.0468284,72.5307888 102.412213,77.0479904 101.616452,82.6723392 L97.4703626,111.976466 L103.979479,109.815841 L108.826185,124.417069 L90.5387093,130.487381 C85.1198593,132.286105 79.6990505,127.762435 80.4989039,122.109155 L84.6617846,92.6863532 L79.9248577,94.2130457 Z" style="mix-blend-mode:multiply"/>
  </g>
</svg>
