<?xml version="1.0" encoding="UTF-8"?>
<svg width="256px" height="256px" viewBox="0 0 256 256" version="1.1" xmlns="http://www.w3.org/2000/svg" xmlns:xlink="http://www.w3.org/1999/xlink">
    <!-- Generator: Sketch 50.2 (55047) - http://www.bohemiancoding.com/sketch -->
    <title>apk-info-stepicon</title>
    <desc>Created with Sketch.</desc>
    <defs>
        <linearGradient x1="50%" y1="0%" x2="50%" y2="100%" id="linearGradient-1">
            <stop stop-color="#53A906" offset="0%"></stop>
            <stop stop-color="#A4C639" offset="100%"></stop>
        </linearGradient>
        <linearGradient x1="50%" y1="33.1830019%" x2="50%" y2="132.410038%" id="linearGradient-2">
            <stop stop-color="#FFFFFF" offset="0%"></stop>
            <stop stop-color="#92C02E" offset="100%"></stop>
        </linearGradient>
        <linearGradient x1="-26.5355634%" y1="-146.465871%" x2="122.496686%" y2="149.69957%" id="linearGradient-3">
            <stop stop-color="#0DD3C5" offset="0%"></stop>
            <stop stop-color="#0DC0C7" offset="8.75127635%"></stop>
            <stop stop-color="#0D83CD" offset="100%"></stop>
        </linearGradient>
    </defs>
    <g id="New-Icons" stroke="none" stroke-width="1" fill="none" fill-rule="evenodd">
        <g id="APK-Info">
            <g id="apk-info-stepicon">
                <rect id="Rectangle" fill="url(#linearGradient-1)" x="0" y="0" width="256" height="256"></rect>
                <path d="M197.992525,102.178714 C197.991645,96.5558169 193.516028,91.9986599 187.994723,92.0000033 C182.473858,91.9955254 177.998681,96.5607425 178,102.184087 L178.007036,144.820394 C178.006596,150.449112 182.480014,154.998209 188.004837,155 C193.525703,154.999104 197.998681,150.449112 198,144.815916 L197.992525,102.178714 Z M82,94.0152671 L82.0158385,160.272023 C82.0108607,166.298916 86.9235128,171.163268 92.994186,171.164615 L100.469508,171.167758 L100.478106,193.789486 C100.476749,199.420783 105.090732,204 110.75956,204 C116.445131,204 121.050969,199.417191 121.052326,193.782302 L121.046896,171.165064 L134.937718,171.16237 L134.943601,193.7832 C134.942244,199.411802 139.558942,203.998204 145.228675,203.989223 C150.913793,203.992816 155.522346,199.410006 155.521441,193.774219 L155.515106,171.159675 L163.016675,171.153838 C169.072414,171.156083 173.998642,166.284547 174,160.257654 L173.988687,94 L82,94.0152671 Z M149.003724,73.9999977 C146.796268,74.0023248 144.999534,72.2156012 145,70.0044203 C145.007459,67.8146484 146.793937,66.0074466 149.005589,66 C151.200924,66.0060504 153.001854,67.8127867 152.999989,70.0067474 C153.005117,72.2132742 151.210248,74.0004631 149.003724,73.9999977 Z M106.989512,74 C104.791295,73.9948769 103.000466,72.2092336 103,70.0034938 C103.000932,67.8061372 104.787566,65.9995357 106.993241,66.0000014 C109.20684,65.9981385 110.997203,67.8061372 111,70.0025623 C111.000932,72.2064392 109.206374,73.9986028 106.989512,74 Z M150.560576,54.1472365 L157.688845,41.1043483 C158.069313,40.4229732 157.82001,39.5548275 157.130047,39.170035 C156.435143,38.8009944 155.575834,39.051672 155.208393,39.7379977 L148.008252,52.9168008 C141.948168,50.216053 135.169372,48.6998358 127.995285,48.7079367 C120.840064,48.7020861 114.063065,50.2115525 108.029484,52.8969986 L100.821707,39.7528493 C100.44618,39.0593228 99.5841759,38.8086452 98.9036461,39.1862368 C98.2096404,39.5602281 97.9562947,40.4297239 98.3408053,41.1097489 L105.472668,54.142736 C91.4600424,61.3835844 81.992817,75.1708546 82,91 L173.999999,90.990549 C174.002695,75.1636538 164.552539,61.4051868 150.560576,54.1472365 Z M67.9960429,92.0000021 C62.4754661,91.9973154 58.001319,96.5633958 58,102.180879 L58.0074745,144.815988 C58.0087935,150.452727 62.4846993,155.000896 68.0057158,155 C73.5298101,155.000448 78.0048364,150.449592 77.9991206,144.816436 L78,102.175058 C77.9978016,96.5589179 73.5170594,91.9964198 67.9960429,92.0000021 Z" id="Fill-10" fill="url(#linearGradient-2)"></path>
                <g id="icon-/-info" transform="translate(50.000000, 50.000000)" fill="url(#linearGradient-3)">
                    <path d="M78,136 C110.032515,136 136,110.032515 136,78 C136,45.9674845 110.032515,20 78,20 C45.9674845,20 20,45.9674845 20,78 C20,110.032515 45.9674845,136 78,136 Z M78,156 C34.9217895,156 0,121.07821 0,78 C0,34.9217895 34.9217895,0 78,0 C121.07821,0 156,34.9217895 156,78 C156,121.07821 121.07821,156 78,156 Z" id="Oval-6" fill-rule="nonzero" style="mix-blend-mode: multiply;"></path>
                    <circle id="Oval-7" style="mix-blend-mode: multiply;" cx="78.5" cy="37.5" r="10.5"></circle>
                    <path d="M59.7023151,79.5769595 L53.5671674,60.5412046 L74.9324262,53.6552671 C81.960877,51.3900255 88.9358764,57.2623876 87.9013882,64.5740409 L82.5114713,102.669406 L90.973323,99.8605939 L97.2740403,118.842189 L73.5003221,126.733596 C66.455817,129.071936 59.4087656,123.191166 60.4485751,115.841901 L65.8603199,77.5922591 L59.7023151,79.5769595 Z" id="Path-2" fill-rule="nonzero" style="mix-blend-mode: multiply;"></path>
                </g>
            </g>
        </g>
    </g>
</svg>