<?xml version="1.0" encoding="utf-8"?>
<!-- Generator: Adobe Illustrator 21.0.2, SVG Export Plug-In . SVG Version: 6.00 Build 0)  -->
<svg version="1.1" id="Layer_1" xmlns:sketch="http://www.bohemiancoding.com/sketch/ns"
	 xmlns="http://www.w3.org/2000/svg" xmlns:xlink="http://www.w3.org/1999/xlink" x="0px" y="0px" viewBox="0 0 256 256"
	 style="enable-background:new 0 0 256 256;" xml:space="preserve">
<style type="text/css">
	.st0{fill:#A3C82B;}
	.st1{enable-background:new    ;}
	.st2{fill:#FFFFFF;}
</style>
<title>Rectangle 1 + #</title>
<desc>Created with Sketch.</desc>
<rect id="Rectangle-1" x="0" sketch:type="MSShapeGroup" class="st0" width="256" height="256">
</rect>
<g class="st1">
	<path class="st2" d="M81.2,168h-4.6c-7,0-12.8-5.8-12.8-12.8c0-7,5.8-12.8,12.8-12.8h9l5-29.6h-7c-7,0-12.8-5.8-12.8-12.8
		c0-7,5.8-12.8,12.8-12.8H95l3.4-19.8c1-6.4,6.4-10.6,12.8-10.6c7.8,0,14,7.4,12.8,15l-2.6,15.4h27l3.4-19.8
		c1-6.4,6.4-10.6,12.8-10.6c7.8,0,14,7.4,12.8,15l-2.6,15.4h4.6c7,0,12.8,5.8,12.8,12.8c0,7-5.8,12.8-12.8,12.8h-9l-5,29.6h7
		c7,0,12.8,5.8,12.8,12.8c0,7-5.8,12.8-12.8,12.8H161l-3.6,20.6c-1,6.2-6.4,10.6-12.8,10.6c-7.8,0-14.2-7.4-12.8-15l2.8-16.2h-27
		l-3.6,20.6c-1,5.4-5.6,10.6-12.8,10.6c-7.8,0-14.2-6.6-12.8-15L81.2,168z M139,142.4l5-29.6h-27l-5,29.6H139z"/>
</g>
</svg>
