<svg id="Layer_1" data-name="Layer 1" xmlns="http://www.w3.org/2000/svg" viewBox="0 0 256 256"><defs><style>.cls-1{fill:#8151a8;}.cls-2{fill:#fff;}</style></defs><title>cache</title><rect class="cls-1" width="256" height="256"/><path class="cls-2" d="M128.29,223.79a95.79,95.79,0,0,1,0-191.57,3,3,0,0,1,0,6,89.75,89.75,0,1,0,76.47,42.71,3,3,0,1,1,5.11-3.15A95.81,95.81,0,0,1,128.29,223.79Z"/><path class="cls-2" d="M128.29,198.88a3,3,0,0,1,0-6A64.86,64.86,0,1,0,73,162a3,3,0,1,1-5.11,3.15A70.89,70.89,0,1,1,128.29,198.88Z"/><path class="cls-2" d="M113.63,120.08a3,3,0,0,1-2.17-5.08l14.89-15.52a3.09,3.09,0,0,1,4.33,0L145.57,115a3,3,0,0,1-4.33,4.15l-12.72-13.26L115.8,119.15A3,3,0,0,1,113.63,120.08Z"/><path class="cls-2" d="M128.52,158.85a3,3,0,0,1-3-3V101.56a3,3,0,0,1,6,0v54.29A3,3,0,0,1,128.52,158.85Z"/></svg>