<?xml version="1.0" encoding="utf-8"?>
<!-- Generator: Adobe Illustrator 19.1.0, SVG Export Plug-In . SVG Version: 6.00 Build 0)  -->
<svg version="1.1" id="Layer_1" xmlns="http://www.w3.org/2000/svg" xmlns:xlink="http://www.w3.org/1999/xlink" x="0px" y="0px"
	 viewBox="0 0 256 256" enable-background="new 0 0 256 256" xml:space="preserve">
<rect x="0" y="0" fill-rule="evenodd" clip-rule="evenodd" fill="#AA3E35" width="256" height="256"/>
<g>
	
		<polyline fill-rule="evenodd" clip-rule="evenodd" fill="none" stroke="#FFFFFF" stroke-width="4.7407" stroke-linecap="round" stroke-linejoin="round" stroke-miterlimit="10" points="
		96.2,181.6 175.6,176.2 181.8,96.1 	"/>
	
		<polygon fill-rule="evenodd" clip-rule="evenodd" fill="none" stroke="#FFFFFF" stroke-width="4.7407" stroke-linecap="round" stroke-linejoin="round" stroke-miterlimit="10" points="
		150.3,153.6 175.8,176.2 168.9,129 	"/>
	
		<polygon fill-rule="evenodd" clip-rule="evenodd" fill="none" stroke="#FFFFFF" stroke-width="4.7407" stroke-linecap="round" stroke-linejoin="round" stroke-miterlimit="10" points="
		96.4,181.5 175.9,176.2 125.8,172.2 	"/>
	
		<polygon fill-rule="evenodd" clip-rule="evenodd" fill="none" stroke="#FFFFFF" stroke-width="4.7407" stroke-linecap="round" stroke-linejoin="round" stroke-miterlimit="10" points="
		81.5,146.4 96.5,181.5 109,140.6 	"/>
	
		<polygon fill-rule="evenodd" clip-rule="evenodd" fill="none" stroke="#FFFFFF" stroke-width="4.7407" stroke-linecap="round" stroke-linejoin="round" stroke-miterlimit="10" points="
		108.4,140.1 150.3,153.7 139.5,110.6 	"/>
	
		<polygon fill-rule="evenodd" clip-rule="evenodd" fill="none" stroke="#FFFFFF" stroke-width="4.7407" stroke-linecap="round" stroke-linejoin="round" stroke-miterlimit="10" points="
		139.4,111.9 179.1,109.3 148,83.9 	"/>
	
		<polygon fill-rule="evenodd" clip-rule="evenodd" fill="none" stroke="#FFFFFF" stroke-width="4.7407" stroke-linecap="round" stroke-linejoin="round" stroke-miterlimit="10" points="
		134.7,74.7 164.6,74.8 146.3,84.9 	"/>
	
		<polyline fill-rule="evenodd" clip-rule="evenodd" fill="none" stroke="#FFFFFF" stroke-width="4.7407" stroke-linecap="round" stroke-linejoin="round" stroke-miterlimit="10" points="
		81.9,146.2 75.7,129.5 74.2,160.2 	"/>
	
		<path fill-rule="evenodd" clip-rule="evenodd" fill="none" stroke="#FFFFFF" stroke-width="4.7407" stroke-linecap="round" stroke-linejoin="round" stroke-miterlimit="10" d="
		M75.3,129l6.2,17.7l27.1-6.1l31-28.8l8.7-27.7l-13.8-9.7l-23.4,8.8c-7.4,6.9-21.7,20.4-22.2,20.7C88.5,104.1,79.6,121,75.3,129z"/>
	
		<path fill-rule="evenodd" clip-rule="evenodd" fill="none" stroke="#FFFFFF" stroke-width="4.7407" stroke-linecap="round" stroke-linejoin="round" stroke-miterlimit="10" d="
		M96.5,181.5l12.4-41.1l41.2,13.2C135.2,167.6,118.6,179.4,96.5,181.5z"/>
	
		<path fill-rule="evenodd" clip-rule="evenodd" fill="none" stroke="#FFFFFF" stroke-width="4.7407" stroke-linecap="round" stroke-linejoin="round" stroke-miterlimit="10" d="
		M139.7,111.8l10.6,41.9c12.4-13.1,23.6-27.1,29.1-44.5L139.7,111.8z"/>
	
		<path fill-rule="evenodd" clip-rule="evenodd" fill="none" stroke="#FFFFFF" stroke-width="4.7407" stroke-linecap="round" stroke-linejoin="round" stroke-miterlimit="10" d="
		M179.2,109.3c4.2-12.8,5.2-31.1-14.7-34.5l-16.4,9L179.2,109.3z"/>
	
		<path fill-rule="evenodd" clip-rule="evenodd" fill="none" stroke="#FFFFFF" stroke-width="4.7407" stroke-linecap="round" stroke-linejoin="round" stroke-miterlimit="10" d="
		M74.2,160c0.6,21.1,15.8,21.4,22.3,21.6l-15-34.9"/>
	
		<path fill-rule="evenodd" clip-rule="evenodd" fill="none" stroke="#FFFFFF" stroke-width="4.7407" stroke-linecap="round" stroke-linejoin="round" stroke-miterlimit="10" d="
		M139.7,111.8c9.6,5.9,28.8,17.7,29.2,17.9c0.6,0.3,8.3-13,10.1-20.5L139.7,111.8z"/>
	
		<path fill-rule="evenodd" clip-rule="evenodd" fill="none" stroke="#FFFFFF" stroke-width="4.7407" stroke-linecap="round" stroke-linejoin="round" stroke-miterlimit="10" d="
		M108.9,140.4l16.6,32c9.8-5.3,17.5-11.8,24.5-18.7L108.9,140.4z"/>
	
		<path fill-rule="evenodd" clip-rule="evenodd" fill="none" stroke="#FFFFFF" stroke-width="4.7407" stroke-linecap="round" stroke-linejoin="round" stroke-miterlimit="10" d="
		M81.5,146.7l-2.3,28c4.4,6.1,10.5,6.6,16.9,6.1C91.4,169.2,82.2,146.2,81.5,146.7z"/>
	
		<path fill-rule="evenodd" clip-rule="evenodd" fill="none" stroke="#FFFFFF" stroke-width="4.7407" stroke-linecap="round" stroke-linejoin="round" stroke-miterlimit="10" d="
		M148,84l32.9,4.6c-1.8-7.4-7.2-12.3-16.4-13.8L148,84z"/>
</g>
</svg>
