<svg width="256" height="256" viewBox="0 0 256 256" fill="none" xmlns="http://www.w3.org/2000/svg">
<rect width="255.998" height="256" rx="80" fill="#8D67FB"/>
<path d="M167.683 196C166.437 195.724 165.322 195.221 164.486 194.206C163.504 193.012 163.153 191.643 163.348 190.13C163.952 185.45 164.573 180.772 165.18 176.093C165.297 175.194 165.356 174.287 165.48 173.389C165.548 172.898 165.274 172.657 164.957 172.372C162.289 169.979 159.545 167.663 156.993 165.152C152.52 160.752 148.526 155.924 144.804 150.875C144.379 150.298 143.971 150.078 143.226 150.154C141.83 150.3 140.419 150.322 139.014 150.332C132.208 150.388 125.402 150.452 118.596 150.454C115.899 150.454 113.201 150.322 110.504 150.213C107.755 150.101 105.667 147.982 105.627 145.074C105.495 135.359 105.423 125.641 105.362 115.925C105.351 114.179 105.495 112.433 105.58 110.688C105.694 108.316 107.615 106.27 109.98 106.067C111.537 105.933 113.103 105.87 114.666 105.821C117.205 105.742 119.745 105.682 122.284 105.651C126.412 105.599 130.541 105.539 134.669 105.554C137.708 105.565 140.745 105.673 143.783 105.782C144.465 105.806 144.898 105.616 145.314 105.057C149.569 99.3505 154.218 93.986 159.397 89.0971C161.029 87.5561 162.745 86.1022 164.463 84.6565C164.969 84.23 165.18 83.8226 165.097 83.155C164.606 79.2389 164.165 75.3161 163.68 71.3987C163.443 69.4856 163.133 67.5808 162.889 65.6677C162.565 63.1252 164.402 60.6276 166.919 60.1725C167.408 60.0839 167.91 60.0403 168.407 60.0403C175.736 60.0321 183.064 60.0308 190.394 60.0376C193.227 60.0403 195.331 61.6372 195.803 64.1512C195.898 64.6594 195.892 65.1908 195.893 65.7113C195.898 72.9329 195.804 80.1559 195.936 87.3748C195.998 90.7254 193.361 93.4628 189.517 92.8592C184.37 92.0512 179.181 91.4966 174.012 90.829C173.42 90.7527 172.935 90.8821 172.441 91.265C166.841 95.5884 161.943 100.626 157.484 106.091C155.219 108.868 153.115 111.777 150.925 114.615C150.53 115.126 150.373 115.659 150.384 116.31C150.488 122.439 150.58 128.568 150.642 134.697C150.661 136.603 150.595 138.511 150.53 140.416C150.507 141.108 150.685 141.668 151.092 142.239C155.703 148.704 160.75 154.796 166.525 160.259C168.173 161.816 169.928 163.261 171.668 164.714C171.945 164.946 172.419 165.084 172.783 165.05C175.512 164.788 178.241 164.505 180.962 164.167C184.089 163.78 187.206 163.306 190.331 162.914C193.173 162.56 195.866 164.863 195.878 167.727C195.913 175.516 195.907 183.305 195.882 191.094C195.875 193.477 194.182 195.415 191.826 195.891C191.717 195.913 191.613 195.962 191.506 195.999C183.566 196 175.624 196 167.683 196Z" fill="url(#paint0_linear_17986_3543)"/>
<path d="M114.18 195.992C111.823 195.359 110.372 193.891 110 191.439C109.696 189.444 109.379 187.451 109.122 185.451C108.618 181.539 108.165 177.62 107.666 173.707C107.446 171.976 107.586 170.353 108.796 168.975C109.917 167.698 111.318 167.156 113.02 167.18C118.574 167.263 124.129 167.348 129.684 167.331C134.194 167.318 138.704 167.149 143.215 167.066C146.139 167.011 148.324 168.912 148.569 171.828C148.654 172.829 148.477 173.863 148.341 174.872C147.6 180.353 146.825 185.83 146.083 191.311C145.746 193.806 144.312 195.298 141.954 195.992C132.695 195.992 123.437 195.992 114.18 195.992Z" fill="url(#paint1_linear_17986_3543)"/>
<path d="M60 114.65C60.516 112.82 61.5071 111.345 63.3981 110.801C64.7841 110.403 66.2354 110.207 67.669 110.012C72.4503 109.361 77.2385 108.756 82.0225 108.119C83.546 107.916 85.0109 107.965 86.3274 108.887C87.8794 109.971 88.6255 111.471 88.6078 113.354C88.5588 118.598 88.4526 123.839 88.4689 129.083C88.4825 133.643 88.6296 138.204 88.7222 142.764C88.7834 145.767 86.8202 148.033 83.8482 148.258C82.9796 148.323 82.0865 148.163 81.2125 148.043C75.6252 147.267 70.0365 146.495 64.4546 145.679C62.2532 145.357 60.8087 144.071 60.1293 141.941C60.0953 141.835 60.0436 141.733 60 141.629C60 132.636 60 123.643 60 114.65Z" fill="url(#paint2_linear_17986_3543)"/>
<path d="M60.0013 64.1001C60.3266 63.4297 60.5676 62.6994 60.9951 62.1025C62.0012 60.7032 63.4416 60.0219 65.1529 60.0178C72.6857 60.0015 80.2185 59.9865 87.7513 60.0205C91.1222 60.0355 93.2679 62.8942 92.7982 66.3361C91.9228 72.7633 91.1304 79.2015 90.3843 85.6451C90.0304 88.7068 88.3476 90.4876 85.2763 90.8555C78.7958 91.6336 72.3195 92.4429 65.8445 93.255C63.3177 93.5725 61.0305 92.1691 60.2055 89.7464C60.1401 89.5543 60.0693 89.3622 60.0013 89.1714C60.0013 80.8147 60.0013 72.4567 60.0013 64.1001Z" fill="url(#paint3_linear_17986_3543)"/>
<path d="M60 167.11C60.5704 165.055 61.7617 163.522 63.9128 163.111C64.9679 162.909 66.1169 163.07 67.2061 163.204C71.613 163.745 76.0132 164.352 80.4188 164.907C82.1941 165.13 83.9803 165.273 85.7583 165.471C88.281 165.75 90.1135 167.652 90.4035 170.147C91.1809 176.836 91.9814 183.522 92.8051 190.206C93.1223 192.782 91.5022 195.244 88.9781 195.879C88.8474 195.912 88.7194 195.956 88.5901 195.995C80.4664 195.995 72.3441 195.995 64.2204 195.995C63.7753 195.843 63.3124 195.728 62.8876 195.533C61.3233 194.814 60.4711 193.51 60 191.909C60 183.642 60 175.377 60 167.11Z" fill="url(#paint4_linear_17986_3543)"/>
<path d="M60 191.906C60.4711 193.507 61.3233 194.811 62.8876 195.532C63.3124 195.728 63.7753 195.843 64.2204 195.994C62.8141 195.994 61.4064 195.994 60 195.994C60 194.631 60 193.269 60 191.906Z" fill="url(#paint5_linear_17986_3543)"/>
<path d="M128.921 88.6574C124.203 88.7501 119.486 88.8455 114.769 88.934C113.775 88.9531 112.759 89.0744 111.79 88.9204C109.09 88.4939 107.183 86.1081 107.53 83.4102C108.35 77.0224 109.251 70.6429 110.211 64.2742C110.599 61.699 112.671 60.023 115.278 60.0162C123.672 59.9944 132.067 59.9944 140.462 60.0175C143.161 60.0257 145.24 61.8257 145.623 64.5195C146.476 70.538 147.297 76.5605 148.072 82.5899C148.466 85.6462 146.968 87.9802 144.285 88.6697C143.809 88.7923 143.298 88.8128 142.803 88.8141C138.176 88.825 133.548 88.821 128.919 88.821C128.921 88.7665 128.921 88.7119 128.921 88.6574Z" fill="url(#paint6_linear_17986_3543)"/>
<path d="M195.993 127.967C195.993 131.964 195.995 135.959 195.993 139.955C195.992 143.323 194.274 145.287 190.925 145.739C185.603 146.457 180.281 147.175 174.956 147.878C174.126 147.987 173.286 148.071 172.45 148.075C169.626 148.087 167.379 145.856 167.388 143.028C167.398 140.144 167.508 137.263 167.502 134.379C167.492 129.499 167.443 124.618 167.372 119.737C167.34 117.537 167.191 115.337 167.146 113.138C167.074 109.641 169.807 107.268 173.275 107.732C177.721 108.326 182.176 108.865 186.624 109.459C188.375 109.694 190.124 109.968 191.86 110.3C194.406 110.786 195.981 112.89 195.992 115.778C196.005 119.839 195.993 123.903 195.993 127.967Z" fill="url(#paint7_linear_17986_3543)"/>
<path fill-rule="evenodd" clip-rule="evenodd" d="M191.917 96.873H171.083C168.219 96.873 165.875 94.5292 165.875 91.6646V65.623H157.594C152.958 65.623 150.667 59.998 153.948 56.7167L177.854 32.8105C178.827 31.8352 180.148 31.2871 181.526 31.2871C182.904 31.2871 184.225 31.8352 185.198 32.8105L209.104 56.7167C212.385 59.998 210.042 65.623 205.406 65.623H197.125V91.6646C197.125 94.5292 194.781 96.873 191.917 96.873ZM212.75 107.287H150.25C147.385 107.287 145.042 109.63 145.042 112.495C145.042 115.36 147.385 117.703 150.25 117.703H212.75C215.615 117.703 217.958 115.36 217.958 112.495C217.958 109.63 215.615 107.287 212.75 107.287Z" fill="white"/>
<defs>
<linearGradient id="paint0_linear_17986_3543" x1="60" y1="196" x2="269.5" y2="-28.5" gradientUnits="userSpaceOnUse">
<stop stop-color="white"/>
<stop offset="1" stop-color="white" stop-opacity="0"/>
</linearGradient>
<linearGradient id="paint1_linear_17986_3543" x1="60" y1="196" x2="269.5" y2="-28.5" gradientUnits="userSpaceOnUse">
<stop stop-color="white"/>
<stop offset="1" stop-color="white" stop-opacity="0"/>
</linearGradient>
<linearGradient id="paint2_linear_17986_3543" x1="60" y1="196" x2="269.5" y2="-28.5" gradientUnits="userSpaceOnUse">
<stop stop-color="white"/>
<stop offset="1" stop-color="white" stop-opacity="0"/>
</linearGradient>
<linearGradient id="paint3_linear_17986_3543" x1="60" y1="196" x2="269.5" y2="-28.5" gradientUnits="userSpaceOnUse">
<stop stop-color="white"/>
<stop offset="1" stop-color="white" stop-opacity="0"/>
</linearGradient>
<linearGradient id="paint4_linear_17986_3543" x1="60" y1="196" x2="269.5" y2="-28.5" gradientUnits="userSpaceOnUse">
<stop stop-color="white"/>
<stop offset="1" stop-color="white" stop-opacity="0"/>
</linearGradient>
<linearGradient id="paint5_linear_17986_3543" x1="60" y1="196" x2="269.5" y2="-28.5" gradientUnits="userSpaceOnUse">
<stop stop-color="white"/>
<stop offset="1" stop-color="white" stop-opacity="0"/>
</linearGradient>
<linearGradient id="paint6_linear_17986_3543" x1="60" y1="196" x2="269.5" y2="-28.5" gradientUnits="userSpaceOnUse">
<stop stop-color="white"/>
<stop offset="1" stop-color="white" stop-opacity="0"/>
</linearGradient>
<linearGradient id="paint7_linear_17986_3543" x1="60" y1="196" x2="269.5" y2="-28.5" gradientUnits="userSpaceOnUse">
<stop stop-color="white"/>
<stop offset="1" stop-color="white" stop-opacity="0"/>
</linearGradient>
</defs>
</svg>
