<svg xmlns="http://www.w3.org/2000/svg" width="256" height="256" viewBox="0 0 256 256">
  <defs>
    <linearGradient id="appcenter-test-stepicon-a" x1="50%" x2="50%" y1="0%" y2="100%">
      <stop offset="0%" stop-color="#E03579"/>
      <stop offset="96.701%" stop-color="#9F2455"/>
    </linearGradient>
    <linearGradient id="appcenter-test-stepicon-b" x1="50%" x2="75.133%" y1="43.748%" y2="88.321%">
      <stop offset="0%" stop-color="#FFF"/>
      <stop offset="100%" stop-color="#FFF" stop-opacity="0"/>
    </linearGradient>
  </defs>
  <g fill="none" fill-rule="evenodd">
    <rect width="256" height="256" fill="#FFF"/>
    <rect width="256" height="256" fill="url(#appcenter-test-stepicon-a)"/>
    <path fill="url(#appcenter-test-stepicon-b)" d="M43,79.7513848 L43,97.148474 L76.4674704,119.431519 L43,142.047464 L43,158.946562 L105.461171,200.863582 L121.201369,191.585859 L121.201369,147.18323 L166.762898,179.988704 L183,171.372977 L183,67.1593353 L166.762898,59.0410557 L121.201369,92.1772564 L121.201369,47.1120886 L105.461171,38 L43,79.7513848 Z M67.5204736,88.6983817 L100.325405,67.1593353 L100.325405,110.567612 L67.5204736,88.6983817 Z M118.550125,119.531987 L152.127838,95.9330944 L152.127838,143.759205 L118.550125,119.531987 Z M67.5204736,150.763658 L100.325405,129.225155 L100.325405,172.633431 L67.5204736,150.763658 Z"/>
    <path fill="#0378D7" d="M178.754667,153 L148.578667,153 C150.781333,146.792 156.712,142.333333 163.666667,142.333333 C170.621333,142.333333 176.552,146.792 178.754667,153 L178.754667,153 Z M169,163.666667 L179.666667,163.666667 L179.666667,186.125333 L169,196.792 L169,163.666667 Z M147.666667,163.666667 L158.333333,163.666667 L158.333333,196.792 L147.666667,186.125333 L147.666667,163.666667 Z M201.192,162.450667 C204.365333,160.530667 206.333333,157.032 206.333333,153.325333 L206.333333,142.333333 L195.666667,142.333333 L195.666667,153.325333 L190.162667,156.653333 C189.794667,150.872 187.597333,145.629333 184.114667,141.426667 L187.208,138.333333 C189.224,136.317333 190.333333,133.64 190.333333,130.792 L190.333333,121 L179.666667,121 L179.666667,130.792 L175.757333,134.701333 C172.109333,132.824 168.04,131.666667 163.666667,131.666667 C159.293333,131.666667 155.224,132.824 151.576,134.701333 L147.666667,130.792 L147.666667,121 L137,121 L137,130.792 C137,133.64 138.109333,136.317333 140.125333,138.333333 L143.218667,141.426667 C139.736,145.629333 137.533333,150.872 137.170667,156.653333 L131.666667,153.325333 L131.666667,142.333333 L121,142.333333 L121,153.325333 C121,157.032 122.968,160.530667 126.146667,162.450667 L137,169.010667 L137,174.333333 L121,174.333333 L121,185 L137,185 L137,188.333333 C137,188.866667 137.149333,189.368 137.309333,189.864 L126.082667,196.728 C122.898667,198.685333 121,202.168 121,206.04 L121,217 L131.666667,217 L131.661333,205.816 L144.450667,197.997333 L159.896,213.437333 C160.936,214.477333 162.301333,215 163.666667,215 C165.032,215 166.397333,214.477333 167.437333,213.437333 L182.877333,197.997333 L195.666667,205.821333 L195.666667,217 L206.333333,217 L206.333333,205.821333 C206.333333,202.088 204.429333,198.685333 201.234667,196.722667 L190.024,189.869333 C190.184,189.368 190.333333,188.866667 190.333333,188.333333 L190.333333,185 L206.333333,185 L206.333333,174.333333 L190.333333,174.333333 L190.333333,169.010667 L201.192,162.450667 Z" style="mix-blend-mode:multiply"/>
  </g>
</svg>
