<svg xmlns="http://www.w3.org/2000/svg" width="256" height="256" viewBox="0 0 256 256">
  <defs>
    <linearGradient id="authenticate-with-bitbucket-oauth-a" x1="108.633%" x2="46.927%" y1="30.209%" y2="65.74%">
      <stop offset="18%" stop-color="#0052CC"/>
      <stop offset="100%" stop-color="#2684FF"/>
    </linearGradient>
  </defs>
  <g fill="none" fill-rule="evenodd" transform="rotate(-180 128.001 128)">
    <rect width="256" height="256" fill="#FFF"/>
    <g transform="rotate(180 94.001 91)">
      <polygon points="47.704 72 72.915 72 79 36 41 36"/>
      <path fill="#2684FF" fill-rule="nonzero" d="M3.89443625,0.000320670162 C2.75860769,-0.0143415458 1.67443436,0.474441399 0.932745207,1.33555373 C0.191056054,2.19666606 -0.132227813,3.34196222 0.049614338,4.46421709 L16.3708834,103.631985 C16.790642,106.136953 18.9468495,107.978635 21.4844965,107.999677 L99.7842947,107.999677 C101.688992,108.024213 103.324498,106.649186 103.629117,104.7672 L119.950386,4.48345803 C120.132228,3.36120315 119.808944,2.21590699 119.067255,1.35479466 C118.325566,0.493682332 117.241392,0.00489938702 116.105564,0.019561603 L3.89443625,0.000320670162 Z M72.6206279,71.6727956 L47.6292855,71.6727956 L40.8623989,36.28872 L78.6762224,36.28872 L72.6206279,71.6727956 Z"/>
      <path fill="url(#authenticate-with-bitbucket-oauth-a)" fill-rule="nonzero" d="M114,36 L78.1551621,36 L72.1396459,71.0331128 L47.313706,71.0331128 L18,105.742374 C18.929115,106.543816 20.1136951,106.989478 21.3419535,106.99968 L99.1426298,106.99968 C101.034721,107.023973 102.659402,105.662584 102.962005,103.799265 L114,36 Z"/>
    </g>
    <path fill="#492F5C" d="M103.419383,95.9401027 C103.249266,96.5795078 102.738915,97.0898587 102.093644,97.2658418 L84.8355711,101.88833 C84.1844337,102.052581 83.5039659,101.876598 83.0288116,101.401444 L70.3932273,88.7658596 C69.9239391,88.2965714 69.7420899,87.6043714 69.9122069,86.9649662 L74.6989464,69.0792204 C74.8749294,68.4398152 75.3794142,67.9353304 76.0246855,67.7593474 L93.2827584,63.1309927 C93.4470092,63.08993 93.605394,63.0664656 93.7637788,63.0664656 C94.2565313,63.0664656 94.7375517,63.265913 95.0895179,63.6178792 L107.725102,76.2593296 C108.19439,76.7286177 108.382106,77.4149517 108.206123,78.060223 L103.419383,95.9401027 Z M103.384186,55.3232105 C99.9583828,51.8856746 94.9076687,50.5423372 90.2499835,51.8035492 L72.9977767,56.4260378 C72.8921869,56.4553683 72.7983292,56.5198954 72.6927394,56.555092 L16.1317813,2.13162821e-14 L7.83711264,8.29466862 L16.231505,16.6831949 L0,32.9146999 L8.29466862,41.2093685 L19.3640036,30.1341674 L27.3829654,38.1531292 L16.7744073,49.1385936 L25.074942,57.4332622 L40.8339379,41.29736 L64.0226402,64.4801962 C63.8055944,65.0022793 63.5181554,65.4891658 63.3715029,66.0405794 L58.5788973,83.9263252 C57.3294175,88.6016088 58.6727549,93.6347245 62.0985587,97.0605282 L74.7282769,109.690246 C77.3093619,112.271331 80.8055588,113.679196 84.3662829,113.679196 C85.5336373,113.679196 86.7127238,113.526677 87.8742121,113.215774 L105.132285,108.593285 C109.813435,107.337939 113.497347,103.654027 114.752693,98.9787437 L119.539432,81.0988639 C120.794778,76.4118482 119.439708,71.3728664 116.013905,67.9529287 L103.384186,55.3232105 Z" transform="rotate(105 62.107 83.243)"/>
  </g>
</svg>
