<svg id="Layer_1" data-name="Layer 1" xmlns="http://www.w3.org/2000/svg" xmlns:xlink="http://www.w3.org/1999/xlink" viewBox="0 0 256 256"><defs><style>.cls-1{fill:#333;}.cls-2,.cls-3,.cls-4,.cls-5{fill-rule:evenodd;}.cls-2{fill:url(#Linear_Gradient_1);}.cls-3{fill:url(#Linear_Gradient_2);}.cls-4{fill:url(#Linear_Gradient_3);}.cls-5{fill:url(#Linear_Gradient_4);}</style><linearGradient id="Linear_Gradient_1" x1="102.16" y1="52.5" x2="134.6" y2="185.74" gradientUnits="userSpaceOnUse"><stop offset="0" stop-color="#0f6e8a"/><stop offset="1" stop-color="#7df0e3"/></linearGradient><linearGradient id="Linear_Gradient_2" x1="62.6" y1="71.46" x2="151.01" y2="119.25" gradientUnits="userSpaceOnUse"><stop offset="0" stop-color="#30c4bd"/><stop offset="1" stop-color="#dbff99"/></linearGradient><linearGradient id="Linear_Gradient_3" x1="164.33" y1="151.29" x2="164.33" y2="105.23" gradientUnits="userSpaceOnUse"><stop offset="0" stop-color="#ffc478"/><stop offset="1" stop-color="#ff8f61"/></linearGradient><linearGradient id="Linear_Gradient_4" x1="79.72" y1="207.21" x2="149.56" y2="136.13" gradientUnits="userSpaceOnUse"><stop offset="0" stop-color="#78339c"/><stop offset="1" stop-color="#eb2e38"/></linearGradient></defs><title>icon</title><rect class="cls-1" width="256" height="256"/><path class="cls-2" d="M64.53,128V67c0-3.31,2.89-6.44,6-6.44A10.27,10.27,0,0,1,76,62.1l111.85,61.14c2.4,1.31,3.6,3,3.59,4.76s-1.19,3.44-3.59,4.76L76,193.9a10.28,10.28,0,0,1-5.51,1.53c-3.11,0-6-3.13-6-6.44V128Z"/><path class="cls-3" d="M137.19,128.4L69.47,60.68a4.71,4.71,0,0,1,1.06-.12A10.27,10.27,0,0,1,76,62.1l82.4,45Z"/><path class="cls-4" d="M157.93,149.14L137.19,128.4l21.25-21.25,29.44,16.1c2.4,1.31,3.6,3,3.59,4.76s-1.19,3.44-3.59,4.76Z"/><path class="cls-5" d="M70.16,195.42l0.06-.06,67-67,20.74,20.74L76,193.9a10.28,10.28,0,0,1-5.51,1.53H70.16Z"/></svg>