<?xml version="1.0" encoding="utf-8"?>
<!-- Generator: Adobe Illustrator 19.1.0, SVG Export Plug-In . SVG Version: 6.00 Build 0)  -->
<svg version="1.1" id="Layer_1" xmlns="http://www.w3.org/2000/svg" xmlns:xlink="http://www.w3.org/1999/xlink" x="0px" y="0px"
	 viewBox="0 0 256 256" enable-background="new 0 0 256 256" xml:space="preserve">
<g>
	<rect x="-0.1" fill="#77D065" width="256" height="256"/>
</g>
<g>
	<g>
		<path fill="#FFFFFF" d="M164.1,215H91.9c-6.7,0-12.2-5.5-12.2-12.2V53.2c0-6.7,5.5-12.2,12.2-12.2h72.2c6.7,0,12.2,5.5,12.2,12.2
			v149.6C176.3,209.5,170.8,215,164.1,215z M91.9,44c-5.1,0-9.2,4.1-9.2,9.2v149.6c0,5.1,4.1,9.2,9.2,9.2h72.2
			c5.1,0,9.2-4.1,9.2-9.2V53.2c0-5.1-4.1-9.2-9.2-9.2H91.9z"/>
	</g>
	<g>
		<path fill="#FFFFFF" d="M128,201.2c-3.3,0-5.9-2.7-5.9-5.9s2.7-5.9,5.9-5.9s5.9,2.7,5.9,5.9S131.3,201.2,128,201.2z M128,191.3
			c-2.2,0-3.9,1.8-3.9,3.9c0,2.2,1.8,3.9,3.9,3.9s3.9-1.8,3.9-3.9C131.9,193.1,130.2,191.3,128,191.3z"/>
	</g>
	<g>
		<path fill="#FFFFFF" d="M137,55h-18c-0.8,0-1.5-0.7-1.5-1.5s0.7-1.5,1.5-1.5h18c0.8,0,1.5,0.7,1.5,1.5S137.8,55,137,55z"/>
	</g>
	<g>
		<path fill="#528C42" d="M139,98.1c-4.4,0-8.4,1.2-11.9,3.5c-3.5,2.4-6.2,5.8-8.3,10.3c-2,4.5-3.1,9.5-3.1,14.9
			c0,5.1,1.2,9,3.7,11.7c2.5,2.7,6.1,4.1,10.7,4.1c3.2,0,6.6-0.6,10.3-1.7v3.2c-3.5,1.1-7.1,1.7-10.7,1.7c-5.7,0-10-1.6-13-4.9
			s-4.5-7.9-4.5-13.9c0-6,1.2-11.5,3.5-16.5c2.4-5,5.6-8.8,9.6-11.5c4.1-2.7,8.6-4,13.6-4c4,0,7.4,0.8,10.4,2.3l-1.5,3
			c-1.2-0.7-2.6-1.2-4.2-1.6C142.1,98.3,140.6,98.1,139,98.1z"/>
	</g>
	<g>
		<path fill="#FFFFFF" d="M105,201.2c-0.2,0-0.3,0-0.5-0.1l-8.3-4.8c-0.3-0.2-0.5-0.5-0.5-0.9s0.2-0.7,0.5-0.9l8.3-4.8
			c0.3-0.2,0.7-0.2,1,0c0.3,0.2,0.5,0.5,0.5,0.9v9.6c0,0.4-0.2,0.7-0.5,0.9C105.3,201.1,105.2,201.2,105,201.2z M98.7,195.4l5.3,3.1
			v-6.1L98.7,195.4z"/>
	</g>
	<g>
		<path fill="#FFFFFF" d="M158.5,201.2h-5.8c-1.6,0-2.9-1.3-2.9-2.9v-5.8c0-1.6,1.3-2.9,2.9-2.9h5.8c1.6,0,2.9,1.3,2.9,2.9v5.8
			C161.5,199.9,160.2,201.2,158.5,201.2z M152.8,191.5c-0.5,0-0.9,0.4-0.9,0.9v5.8c0,0.5,0.4,0.9,0.9,0.9h5.8c0.5,0,0.9-0.4,0.9-0.9
			v-5.8c0-0.5-0.4-0.9-0.9-0.9H152.8z"/>
	</g>
</g>
</svg>
