<?xml version="1.0" encoding="utf-8"?>
<!-- Generator: Adobe Illustrator 19.1.0, SVG Export Plug-In . SVG Version: 6.00 Build 0)  -->
<svg version="1.1" id="Layer_1" xmlns="http://www.w3.org/2000/svg" xmlns:xlink="http://www.w3.org/1999/xlink" x="0px" y="0px"
	 viewBox="-351 153 256 256" style="enable-background:new -351 153 256 256;" xml:space="preserve">
<style type="text/css">
	.st0{fill:#414042;}
	.st1{enable-background:new    ;}
	.st2{fill:#FFFFFF;}
	.st3{fill:#4CD964;}
</style>
<g>
	<g>
		<rect x="-351" y="153" class="st0" width="256" height="256"/>
	</g>
	<g>
		<g>
			<g class="st1">
				<g>
					<path class="st2" d="M-266.4,341.2l-21.7,14.7v-4.6l17.5-11.8v-0.2l-17.5-11.8v-4.6l21.7,14.7V341.2z"/>
				</g>
			</g>
			<g class="st1">
				<g>
					<path class="st2" d="M-264.9,295.2l-21.7,14.7v-4.6l17.5-11.8v-0.2l-17.5-11.8v-4.6l21.7,14.7V295.2z"/>
				</g>
				<g>
					<path class="st2" d="M-230,295.2l-21.7,14.7v-4.6l17.5-11.8v-0.2l-17.5-11.8v-4.6l21.7,14.7V295.2z"/>
				</g>
				<g>
					<path class="st2" d="M-195,295.2l-21.7,14.7v-4.6l17.5-11.8v-0.2l-17.5-11.8v-4.6l21.7,14.7V295.2z"/>
				</g>
				<g>
					<path class="st2" d="M-160.1,295.2l-21.7,14.7v-4.6l17.5-11.8v-0.2l-17.5-11.8v-4.6l21.7,14.7V295.2z"/>
				</g>
			</g>
			<g class="st1">
				<g>
					<path class="st3" d="M-248.9,326.5h5.5l0.6,6.5h0.2c1.5-2.3,3.3-4.1,5.3-5.3c2.1-1.2,4.4-1.8,6.8-1.8c1.2,0,2.2,0.1,3,0.3
						c0.8,0.2,1.7,0.5,2.5,0.9l-1.4,5.6c-0.9-0.3-1.8-0.5-2.5-0.7c-0.7-0.1-1.6-0.2-2.7-0.2c-2,0-3.9,0.6-5.7,1.7
						c-1.8,1.1-3.5,3.1-4.9,5.9v15.8h-6.8V326.5z"/>
				</g>
				<g>
					<path class="st3" d="M-191.5,355.1h-5.5l-0.5-4.5h-0.2c-1.4,1.6-2.9,2.9-4.5,3.8c-1.6,1-3.5,1.4-5.6,1.4c-3.3,0-5.8-1-7.3-3
						c-1.5-2-2.3-4.9-2.3-8.6v-17.7h6.7v16.8c0,2.3,0.4,4,1.2,5.1c0.8,1.1,2.2,1.6,4.2,1.6c1.4,0,2.6-0.3,3.6-0.9
						c1.1-0.6,2.2-1.7,3.5-3.3v-19.3h6.7V355.1z"/>
				</g>
				<g>
					<path class="st3" d="M-181.8,326.5h5.5l0.5,4.3h0.2c1.4-1.4,2.9-2.5,4.5-3.5c1.6-1,3.6-1.5,5.8-1.5c3.3,0,5.7,1,7.3,3
						c1.6,2,2.3,4.9,2.3,8.6v17.7h-6.8v-16.8c0-2.3-0.4-4-1.2-5.1c-0.8-1.1-2.2-1.6-4.2-1.6c-1.4,0-2.6,0.3-3.7,1
						c-1.1,0.7-2.3,1.7-3.6,3v19.5h-6.8V326.5z"/>
				</g>
			</g>
		</g>
		<g>
			<path class="st2" d="M-135.3,373.8h-175.3V258.1c0-4.8,3.9-8.7,8.7-8.7h158c4.8,0,8.7,3.9,8.7,8.7V373.8z M-305.9,369h165.9
				V258.1c0-2.2-1.7-3.9-3.9-3.9h-158c-2.2,0-3.9,1.7-3.9,3.9V369z"/>
		</g>
		<g>
			<rect x="-308.3" y="263" class="st2" width="170.6" height="4.7"/>
		</g>
	</g>
	<g>
		<g>
			<path class="st2" d="M-229.3,209.6c-10,0-19.5-3.1-27.6-8.8c-1.1-0.8-1.3-2.2-0.5-3.3c0.8-1.1,2.2-1.3,3.3-0.5
				c7.3,5.2,15.9,8,24.8,8c9,0,17.6-2.8,24.8-8c1.1-0.8,2.5-0.5,3.3,0.5c0.8,1.1,0.5,2.5-0.5,3.3
				C-209.8,206.5-219.3,209.6-229.3,209.6z"/>
		</g>
		<g>
			<path class="st2" d="M-229.2,225c-13.2,0-25.9-4.1-36.6-11.7c-1.1-0.8-1.3-2.2-0.5-3.3c0.8-1.1,2.2-1.3,3.3-0.5
				c9.9,7.1,21.6,10.9,33.8,10.9c12.2,0,23.9-3.8,33.8-10.9c1.1-0.8,2.5-0.5,3.3,0.5c0.8,1.1,0.5,2.5-0.5,3.3
				C-203.3,220.9-216,225-229.2,225z"/>
		</g>
		<g>
			<path class="st2" d="M-229.2,195.7c-6.9,0-13.8-2.2-19.4-6.2c-1.1-0.8-1.3-2.2-0.5-3.3c0.8-1.1,2.2-1.3,3.3-0.5
				c4.8,3.5,10.7,5.4,16.6,5.4c6,0,11.8-1.8,16.6-5.3c1.1-0.8,2.5-0.5,3.3,0.5s0.5,2.5-0.5,3.3
				C-215.4,193.5-222.2,195.7-229.2,195.7z"/>
		</g>
	</g>
</g>
</svg>
