<svg id="Layer_1" data-name="Layer 1" xmlns="http://www.w3.org/2000/svg" viewBox="0 0 256 256"><defs><style>.cls-1{fill:#77d065;}.cls-2{fill:#fff;}</style></defs><title>cache</title><rect class="cls-1" x="0.86" width="256" height="256"/><path class="cls-2" d="M129.15,223.79a95.75,95.75,0,1,1,81.58-45.56,3,3,0,1,1-5.11-3.15,89.8,89.8,0,1,0-76.47,42.71A3,3,0,0,1,129.15,223.79Z"/><path class="cls-2" d="M129.15,198.88a70.9,70.9,0,0,1-60.37-108A3,3,0,1,1,73.88,94a64.89,64.89,0,1,0,55.26-30.87,3,3,0,0,1,0-6A70.88,70.88,0,0,1,129.15,198.88Z"/><path class="cls-2" d="M129.38,157.44h0a3,3,0,0,1-2.17-.92L112.33,141a3,3,0,1,1,4.33-4.15l12.72,13.26,12.72-13.26a3,3,0,1,1,4.33,4.15l-14.89,15.52A3,3,0,0,1,129.38,157.44Z"/><path class="cls-2" d="M129.38,157.44a3,3,0,0,1-3-3V100.15a3,3,0,1,1,6,0v54.29A3,3,0,0,1,129.38,157.44Z"/></svg>