<svg xmlns="http://www.w3.org/2000/svg" width="256" height="256" viewBox="0 0 256 256">
  <g fill="none">
    <rect width="256" height="256" fill="#FFF"/>
    <g transform="translate(45 45)">
      <path fill="#429F87" d="M77.4364911,68.9348006 L97.0281098,98 L128,98 L92.9012202,46.4280986 L77.4364911,68.9348006 M15,84.519113 L29.3450226,71.0804236 L52.2792872,98 L37.5568691,44 L25.1267792,64.3352639 L15,84.519113"/>
      <path fill="#56C5A8" d="M14.7496579,84.460218 L37.3482624,43.7635872 L22.9806992,57.2679678 L0,30.2292898 L14.7496579,84.460218 M125,-7.10542736e-15 L93.9708048,-7.10542736e-15 L74.9665917,27.9940167 L74.9665917,-7.10542736e-15 L46.504033,-7.10542736e-15 L46.504033,29.0336206 L61.6797966,84.7952846 L65.2161736,98 L74.9665917,98 L74.9665917,73.4992521 L125,-7.10542736e-15"/>
    </g>
    <path fill="#8A4182" d="M155.990974,166 L164.008408,166 L166,168.603636 L166,189 L154,189 L154,168.602042 L155.990974,166 Z M151.629839,156.985787 L154,164.166523 L152.093745,166.749139 L132.548267,173 L129,162.25161 L148.548352,156 L151.629839,156.985787 Z M159,149.559424 L152.611497,154 L149.43613,153.011772 L137,136.643222 L146.562565,130 L159,146.369466 L159,149.559424 Z M167.389769,154 L161,149.561088 L161.000957,146.368883 L173.436493,130 L183,136.643222 L170.562028,153.013353 L167.389769,154 Z M166,164.167655 L168.371401,156.984885 L171.455279,156 L191,162.250558 L187.452408,173 L167.906503,166.747528 L166,164.167655 Z M160.00276,206 C132.983012,206 111,184.022409 111,157.008154 C111,129.984198 132.983012,108 160.00276,108 C187.020166,108 209,129.984198 209,157.008154 C209,184.022409 187.020166,206 160.00276,206 Z M160.00276,196.080059 C181.579615,196.080059 199.078588,178.589483 199.078588,157.008154 C199.078588,135.41955 181.579615,117.92153 160.00276,117.92153 C138.417374,117.92153 120.921496,135.41955 120.921496,157.008154 C120.921496,178.589483 138.417374,196.080059 160.00276,196.080059 Z M189.069859,146 L190,149.082611 L175.930861,154 L175,150.917389 L189.069859,146 Z M170.627755,170 L180,182.195927 L177.371554,184 L168,171.804481 L170.627755,170 Z M149.371346,170 L152,171.804165 L142.628654,184 L140,182.195101 L149.371346,170 Z M129.930681,146 L144,150.91673 L143.06972,154 L129,149.08327 L129.930681,146 Z M158,126 L162,126 L162,141 L158,141 L158,126 Z" style="mix-blend-mode:multiply"/>
  </g>
</svg>
