<?xml version="1.0" encoding="UTF-8"?>
<svg width="256px" height="256px" viewBox="0 0 256 256" version="1.1" xmlns="http://www.w3.org/2000/svg" xmlns:xlink="http://www.w3.org/1999/xlink">
    <!-- Generator: Sketch 49.1 (51147) - http://www.bohemiancoding.com/sketch -->
    <title>android-build-stepicon</title>
    <desc>Created with Sketch.</desc>
    <defs>
        <linearGradient x1="50%" y1="0%" x2="50%" y2="100%" id="linearGradient-1">
            <stop stop-color="#53A906" offset="0%"></stop>
            <stop stop-color="#A4C639" offset="100%"></stop>
        </linearGradient>
        <linearGradient x1="50%" y1="33.1830019%" x2="50%" y2="132.410038%" id="linearGradient-2">
            <stop stop-color="#FFFFFF" offset="0%"></stop>
            <stop stop-color="#92C02E" offset="100%"></stop>
        </linearGradient>
        <linearGradient x1="-26.5355634%" y1="-146.465871%" x2="122.496686%" y2="149.69957%" id="linearGradient-3">
            <stop stop-color="#0DD3C5" offset="0%"></stop>
            <stop stop-color="#0DC0C7" offset="8.75127635%"></stop>
            <stop stop-color="#0D83CD" offset="100%"></stop>
        </linearGradient>
    </defs>
    <g id="New-Icons" stroke="none" stroke-width="1" fill="none" fill-rule="evenodd">
        <g id="Android-Build">
            <g id="android-build-stepicon">
                <rect id="Rectangle" fill="url(#linearGradient-1)" x="0" y="0" width="256" height="256"></rect>
                <path d="M198.992525,102.178714 C198.991645,96.5558169 194.516028,91.9986599 188.994723,92.0000033 C183.473858,91.9955254 178.998681,96.5607425 179,102.184087 L179.007036,144.820394 C179.006596,150.449112 183.480014,154.998209 189.004837,155 C194.525703,154.999104 198.998681,150.449112 199,144.815916 L198.992525,102.178714 Z M83,94.0152671 L83.0156663,160.272023 C83.0107426,166.298916 87.8699964,171.163268 93.874684,171.164615 L101.268753,171.167758 L101.277257,193.789486 C101.275915,199.420783 105.839746,204 111.446956,204 C117.070727,204 121.626501,199.417191 121.627844,193.782302 L121.622473,171.165064 L135.362308,171.16237 L135.368127,193.7832 C135.366784,199.411802 139.933301,203.998204 145.541406,203.989223 C151.16473,203.992816 155.72319,199.410006 155.722295,193.774219 L155.716028,171.159675 L163.136059,171.153838 C169.125975,171.156083 173.998657,166.284547 174,160.257654 L173.98881,94 L83,94.0152671 Z M150.003724,73.9999977 C147.796268,74.0023248 145.999534,72.2156012 146,70.0044203 C146.007459,67.8146484 147.793937,66.0074466 150.005589,66 C152.200924,66.0060504 154.001854,67.8127867 153.999989,70.0067474 C154.005117,72.2132742 152.210248,74.0004631 150.003724,73.9999977 Z M107.989512,74 C105.791295,73.9948769 104.000466,72.2092336 104,70.0034938 C104.000932,67.8061372 105.787566,65.9995357 107.993241,66.0000014 C110.20684,65.9981385 111.997203,67.8061372 112,70.0025623 C112.000932,72.2064392 110.206374,73.9986028 107.989512,74 Z M151.560576,54.1472365 L158.688845,41.1043483 C159.069313,40.4229732 158.82001,39.5548275 158.130047,39.170035 C157.435143,38.8009944 156.575834,39.051672 156.208393,39.7379977 L149.008252,52.9168008 C142.948168,50.216053 136.169372,48.6998358 128.995285,48.7079367 C121.840064,48.7020861 115.063065,50.2115525 109.029484,52.8969986 L101.821707,39.7528493 C101.44618,39.0593228 100.584176,38.8086452 99.9036461,39.1862368 C99.2096404,39.5602281 98.9562947,40.4297239 99.3408053,41.1097489 L106.472668,54.142736 C92.4600424,61.3835844 82.992817,75.1708546 83,91 L174.999999,90.990549 C175.002695,75.1636538 165.552539,61.4051868 151.560576,54.1472365 Z M68.9960429,92.0000021 C63.4754661,91.9973154 59.001319,96.5633958 59,102.180879 L59.0074745,144.815988 C59.0087935,150.452727 63.4846993,155.000896 69.0057158,155 C74.5298101,155.000448 79.0048364,150.449592 78.9991206,144.816436 L79,102.175058 C78.9978016,96.5589179 74.5170594,91.9964198 68.9960429,92.0000021 Z" id="Fill-10" fill="url(#linearGradient-2)"></path>
                <path d="M211.535567,73.5350528 C209.755815,83.2993449 202.538096,91.6574038 192.314444,94.3968232 C186.902155,95.8470417 181.432104,95.5123724 176.529256,93.7536385 L94.6285959,175.654297 C94.8283689,176.161345 95.0139058,176.677684 95.1845906,177.202998 C99.707223,191.122229 92.0897746,206.072313 78.1705433,210.594946 C68.6183256,213.698649 58.5806242,211.084941 51.7607251,204.640739 L71.2026894,198.323662 L72.4579294,184.764774 L63.7862815,175.498305 L43.6896821,182.028086 C44.9559711,172.184031 51.7263714,163.45968 61.7926426,160.18895 C68.0817825,158.145485 74.5813723,158.580432 80.2344768,160.955256 L161.357041,79.832692 C160.751948,78.5068097 160.248459,77.1130754 159.858705,75.6584935 C156.070747,61.5216418 164.460183,46.9907124 178.597034,43.2027544 C188.298596,40.6032287 198.185751,43.7386879 204.65904,50.5309844 L184.91311,55.8218904 L182.949973,69.2965021 L191.124767,79.0041102 L211.535567,73.5350528 Z" id="Combined-Shape" fill="url(#linearGradient-3)" style="mix-blend-mode: multiply;"></path>
            </g>
        </g>
    </g>
</svg>