<svg xmlns="http://www.w3.org/2000/svg" xmlns:xlink="http://www.w3.org/1999/xlink" width="256" height="256" viewBox="0 0 256 256">
  <defs>
    <linearGradient id="diawi-stepicon-a" x1="50%" x2="50%" y1="0%" y2="100%">
      <stop offset="0%" stop-color="#444"/>
      <stop offset="100%" stop-color="#232B2E"/>
    </linearGradient>
    <polygon id="diawi-stepicon-b" points="0 .035 36.449 .035 36.449 52.1 0 52.1"/>
  </defs>
  <g fill="none" fill-rule="evenodd">
    <rect width="256" height="256" fill="url(#diawi-stepicon-a)"/>
    <g transform="translate(42 101)">
      <mask id="diawi-stepicon-c" fill="#fff">
        <use xlink:href="#diawi-stepicon-b"/>
      </mask>
      <path fill="#FF7F00" d="M24.641,40.69176 C26.0818571,38.61496 26.8022857,35.93046 26.8022857,32.63826 C26.8022857,28.03036 25.6484286,24.73226 23.3348571,22.74986 C21.9174286,21.55216 20.2715714,20.95036 18.3972857,20.95036 C15.5331429,20.95036 13.4362857,22.04186 12.095,24.21896 C10.7595714,26.39606 10.0918571,29.09826 10.0918571,32.32556 C10.0918571,35.80656 10.7712857,38.59136 12.1301429,40.67406 C13.4948571,42.76266 15.5565714,43.80106 18.327,43.80106 C21.0974286,43.80106 23.2001429,42.76856 24.641,40.69176 M22.2395714,13.84676 C24.0025714,14.84976 25.4317143,16.23626 26.527,18.01216 L26.527,0.03486 L36.449,0.03486 L36.449,50.92236 L26.9428571,50.92236 L26.9428571,45.70676 C25.543,47.94286 23.9557143,49.56536 22.1692857,50.58016 C20.3828571,51.59496 18.1688571,52.10236 15.5097143,52.10236 C11.1402857,52.10236 7.462,50.32056 4.48071429,46.75696 C1.49357143,43.19926 0,38.62676 0,33.05126 C0,26.62026 1.47014286,21.56396 4.41042857,17.87646 C7.35071429,14.18896 11.2808571,12.34226 16.2008571,12.34226 C18.4617143,12.34226 20.4765714,12.84376 22.2395714,13.84676" mask="url(#diawi-stepicon-c)"/>
      <path fill="#FF7F00" d="M46 51L56 51 56 13.5158803 46 13.5158803 46 51zM46 9.0438435L56 9.0438435 56 0 46 0 46 9.0438435zM86.2206495 33.3828461C85.602831 33.7745956 84.9675271 34.095118 84.3380516 34.3384775 83.6969192 34.5818371 82.8284763 34.8073898 81.7210658 35.0151358L79.5062448 35.4365633C77.4254788 35.8045704 75.9333888 36.2556759 75.029975 36.7898798 73.4970858 37.6980264 72.7335554 39.0988277 72.7335554 40.9982193 72.7335554 42.689865 73.1998335 43.9125983 74.1382182 44.6664194 75.0707744 45.4202404 76.2073272 45.8001187 77.5537052 45.8001187 79.6810991 45.8001187 81.6394671 45.1709452 83.4288093 43.9185339 85.22398 42.6661226 86.1448793 40.3868526 86.2206495 37.0688529L86.2206495 33.3828461zM80.2697752 28.7590147C82.0824313 28.5275263 83.376353 28.236682 84.1573689 27.8864817 85.5562032 27.2869862 86.2556203 26.343226 86.2556203 25.0730079 86.2556203 23.517881 85.713572 22.4435376 84.6411324 21.8559133 83.5745212 21.2623535 81.9950042 20.9655735 79.9200666 20.9655735 77.5886761 20.9655735 75.9333888 21.5472622 74.9658618 22.704704 74.2722731 23.5653658 73.817652 24.7228075 73.5845129 26.1829648L64.1948376 26.1829648C64.3988343 22.8709007 65.3139051 20.1464609 66.9342215 18.0096453 69.5220649 14.6738388 73.9575354 13 80.2464613 13 84.3380516 13 87.9750208 13.8250482 91.1573689 15.4692091 94.3338884 17.1193055 95.919234 20.2236237 95.919234 24.7940347L95.919234 42.1794035C95.919234 43.3902656 95.9425479 44.8504229 95.9891757 46.565811 96.0532889 47.8597715 96.2514571 48.7441757 96.5661948 49.2071524 96.886761 49.6701291 97.3646961 50.055943 98 50.352723L98 51.8128802 87.4154871 51.8128802C87.1182348 51.0531236 86.9142381 50.3289806 86.8034971 49.6582579 86.6869276 48.9875352 86.5936719 48.221843 86.5295587 47.3611812 85.1773522 48.8450809 83.621149 50.1093634 81.8551207 51.1540288 79.7510408 52.3826977 77.367194 53 74.7094088 53 71.3230641 53 68.5253955 52.0206262 66.316403 50.0618786 64.101582 48.0971954 63 45.3252708 63 41.728298 63 37.0688529 64.7776853 33.6974329 68.3330558 31.6081021 70.2797669 30.4744027 73.1473772 29.6612257 76.9300583 29.1745066L80.2697752 28.7590147z"/>
      <polygon fill="#1BBD00" points="121.983 13 132.017 13 137.784 40.368 143.687 13 154 13 143.029 51 132.853 51 126.914 23.317 120.904 51 110.627 51 100 13 110.627 13 116.53 40.261"/>
      <path fill="#1BBD00" d="M160,51 L169.994097,51 L169.994097,13.5158803 L160,13.5158803 L160,51 Z M160.005903,9.0438435 L170,9.0438435 L170,0 L160.005903,0 L160.005903,9.0438435 Z"/>
    </g>
  </g>
</svg>
