<?xml version="1.0" encoding="utf-8"?>
<!-- Generator: Adobe Illustrator 21.1.0, SVG Export Plug-In . SVG Version: 6.00 Build 0)  -->
<svg version="1.1" id="Layer_1" xmlns="http://www.w3.org/2000/svg" xmlns:xlink="http://www.w3.org/1999/xlink" x="0px" y="0px"
	 viewBox="0 0 1000 1000" style="enable-background:new 0 0 1000 1000;" xml:space="preserve">
<style type="text/css">
	.st0{fill:#8DC63F;}
	.st1{fill:#FFFFFF;}
	.st2{fill:none;}
</style>
<path class="st0" d="M1008.8,1020.9H2.4c-6.6,0-12-5.4-12-12V-4.8c0-6.6,5.4-12,12-12h1006.4c6.6,0,12,5.4,12,12v1013.6
	C1020.8,1015.5,1015.4,1020.9,1008.8,1020.9z"/>
<g>
	<path class="st1" d="M547.7,840H570l24,64.6l24-64.6h21.7l-37.1,92.4h-17.8L547.7,840z"/>
	<path class="st1" d="M655.1,840h37.5c21.9,0,35.1,13,35.1,31.7v0.3c0,21.2-16.5,32.2-37.1,32.2h-15.3v27.5h-20.2V840z M691.3,886.3
		c10.1,0,16-6,16-13.9v-0.3c0-9-6.3-13.9-16.4-13.9h-15.6v28h16V886.3z"/>
	<path class="st1" d="M743.9,840h18.6l43,56.5V840h19.9v91.7h-17.2l-44.4-58.3v58.3h-19.9L743.9,840L743.9,840z"/>
	<path class="st1" d="M844.7,886.1v-0.3c0-26.1,19.7-47.4,47.8-47.4c17.3,0,27.6,5.8,36.2,14.1l-12.8,14.8
		c-7.1-6.4-14.3-10.3-23.4-10.3c-15.5,0-26.6,12.8-26.6,28.6v0.3c0,15.7,10.9,28.8,26.6,28.8c10.5,0,16.9-4.2,24.1-10.7l12.8,13
		c-9.4,10.1-19.9,16.4-37.6,16.4C864.7,933.3,844.7,912.5,844.7,886.1z"/>
</g>
<g>
	<path class="st2" d="M281,675.4c-11.3,11.6-11.1,30.2,0.5,41.5c11.6,11.3,30.2,11.1,41.5-0.5c11.3-11.6,11-30.2-0.5-41.5
		C310.9,663.6,292.3,663.8,281,675.4z"/>
	<path class="st2" d="M699,331c11.3-11.6,11.1-30.2-0.5-41.5s-30.2-11.1-41.5,0.5c-11.3,11.6-11,30.2,0.5,41.5
		C669.1,342.8,687.7,342.6,699,331z"/>
	<path class="st1" d="M331.8,642.4c-23.6-13.1-54-9.6-73.7,10.7c-23.6,24.2-23.1,63.1,1.1,86.7c24.2,23.6,63.1,23.1,86.7-1.1
		c19.7-20.2,22.6-50.7,8.8-74L457,560c27.6,16.8,64,13,87.5-11.1s26.3-60.6,8.9-87.7l94.8-97.2c23.6,13.1,54,9.6,73.7-10.7
		c23.6-24.2,23.1-63.1-1.1-86.7c-24.2-23.6-63.1-23.1-86.7,1.1c-19.7,20.2-22.6,50.7-8.8,74l-94.8,97.2c-27.6-16.8-64-13-87.5,11.1
		c-23.5,24.1-26.3,60.6-8.9,87.7L331.8,642.4z M323,716.4c-11.3,11.6-29.9,11.8-41.5,0.5c-11.6-11.3-11.8-29.9-0.5-41.5
		s29.9-11.8,41.5-0.5C334,686.2,334.3,704.8,323,716.4z M657,290c11.3-11.6,29.9-11.8,41.5-0.5s11.8,29.9,0.5,41.5
		c-11.3,11.6-29.9,11.8-41.5,0.5C646,320.2,645.7,301.6,657,290z"/>
	<path class="st1" d="M394.2,661.9c15.1,34.4,8,75-18.5,102c-24.7,25.4-62.3,34.4-95.8,23.1l-11.1,30c45.5,15.6,96.4,3.6,129.8-30.8
		c35.2-36.1,45-90,25.4-136l-19,7.4L394.2,661.9z"/>
	<path class="st1" d="M471.1,631.8c27.1,64.9,12.9,139.3-36.3,189.7c-47.5,48.6-119.5,65.5-183.6,42.9l-11.1,30
		c75.9,26.9,161.4,7.1,217.6-50.6c58-59.4,74.8-147.1,43.2-223.7l-19,7.4L471.1,631.8z"/>
	<path class="st1" d="M327.1,596.2l10.1-27.4l0.9-2.6c-45.5-15.9-96.7-3.9-130.4,30.6c-35.1,36-45,89.7-25.6,135.5l29.6-12.2
		c-14.6-34.1-7.3-74.2,18.9-101C255.6,593.5,293.4,584.6,327.1,596.2z"/>
	<path class="st1" d="M355.8,518.8l2.8-7.6l8-22.4c-76-27.1-161.6-7.3-217.9,50.5c-58.2,59.6-75,147.8-42.8,224.7l29.6-12.2
		c-27.3-65-13.1-139.7,36.1-190.1C219.3,512.6,291.5,495.9,355.8,518.8z"/>
	<path class="st1" d="M772.1,281.9c15.1,34.4,8,75-18.5,102c-24.7,25.4-62.3,34.4-95.8,23.1l-11.1,30c45.5,15.6,96.4,3.6,129.8-30.8
		c35.2-36.1,45-90,25.4-136l-19,7.4L772.1,281.9z"/>
	<path class="st1" d="M849.1,251.8c27.1,64.9,12.9,139.3-36.3,189.7c-47.5,48.6-119.5,65.5-183.6,42.9l-11.1,30
		c75.9,26.9,161.4,7.1,217.6-50.6c58-59.4,74.8-147.1,43.2-223.7l-19,7.4L849.1,251.8z"/>
	<path class="st1" d="M705.1,216.3l10.1-27.4l0.9-2.6c-45.5-15.9-96.7-3.9-130.4,30.6c-35.1,36-45,89.7-25.6,135.5l29.6-12.2
		c-14.6-34.1-7.3-74.2,18.9-101C633.6,213.5,671.4,204.6,705.1,216.3z"/>
	<path class="st1" d="M733.8,138.8l2.8-7.6l8-22.4c-76-27.1-161.6-7.3-217.9,50.5c-58.2,59.6-75,147.8-42.8,224.7l29.6-12.2
		c-27.3-65-13.1-139.7,36.1-190.1C597.3,132.6,669.5,115.9,733.8,138.8z"/>
</g>
</svg>
