<svg width="256" height="256" viewBox="0 0 256 256" fill="none" xmlns="http://www.w3.org/2000/svg">
<rect width="256" height="256" fill="#CF579F"/>
<path d="M140 109.5L123 92L42 171.5C38.5586 175.428 39 180.5 40.5 183C42 185.5 49.5 193 51.5 194.5C53.5 196 59.5 199 63.5 194.5C67.5 190 140 109.5 140 109.5Z" fill="white"/>
<path d="M182.367 182.531L193.695 141.125H209.008L189.867 198H174.867L155.883 141.125H171.078L182.367 182.531Z" fill="white"/>
<path d="M152.5 57.5001C136.11 46.6517 124.158 44.1496 94.5001 50.5001V56.0001C121.5 58.5 138.479 72.0372 132.5 82.0001L127 87.5001L144.5 105L149 100.5C154.806 93.2638 171.273 105.823 169 110L167.5 114.5C167.5 114.5 167 116.5 168.5 118.5C170 120.5 171 121.5 173 123C175 124.5 178.55 125.884 181.5 123.5C184.45 121.116 194.016 111.611 196 109C197.984 106.389 197.488 104.403 196 102C194.513 99.5971 191.5 97.0001 191.5 97.0001C188.478 95.1899 186.926 95.069 184.5 97.0001C184.5 97.0001 183 98.5001 178 94.5001C173 90.5 176 81 173 77.5001C170 74.0001 152.5 57.5001 152.5 57.5001Z" fill="white"/>
</svg>
