<svg id="Layer_1" data-name="Layer 1" xmlns="http://www.w3.org/2000/svg" viewBox="0 0 256 256"><defs><style>.cls-1{fill:#232322;}.cls-2{fill:#fff;}.cls-3{fill:#00b0ef;}</style></defs><title>icon</title><rect class="cls-1" y="0.04" width="255.92" height="255.92"/><path class="cls-2" d="M211.74,107.2q-18.2-29.32-36.5-58.56A2.94,2.94,0,0,0,172.38,47q-44.28.06-88.56,0a3,3,0,0,0-2.9,1.55Q62.64,78,44.29,107.34a4,4,0,0,0-.64,2.41c.88,6.27,1.88,12.52,2.84,18.77,3.14,20.35,6.27,40.92,9.41,61.26,1,6.32,1.95,11.5,2.93,19.22H86.06c-.63-7.71-1.24-15-1.87-24H97.81c.66,9,1.31,16,2,23h56.59c.67-7,1.32-14,2-23H172c-.63,9-1.25,16.29-1.88,24h27.2c.33-1.93.67-4,.95-5.83,4.72-30.8,9.44-61.72,14.1-92.53A5.65,5.65,0,0,0,211.74,107.2Zm-29.86,3c-2.35,19.17-4.76,37.71-7.16,56.87-.1.79-.29,1.93-.47,1.93H81.82c-.47-1-1-6.46-1.42-10-2.06-16.38-4.12-32.45-6.1-48.83a5.9,5.9,0,0,1,.58-3.27C79.39,97.7,84,88.6,88.62,79.46c.37-.73,1.26-1.67,1.92-1.68,7.84-.12,15.68-.15,23.82-.15-.53,3.94-1,8.38-1.53,11.38h30.48c-.51-3-1-7-1.54-11h3.8c6.42,0,12.83-.19,19.25-.07a3.35,3.35,0,0,1,2.53,1.43c4.79,9.34,9.47,18.7,14.12,28.11A5,5,0,0,1,181.89,110.2Z"/><path class="cls-3" d="M157.36,135.6c-.71,3.86-1.31,7.73-2.19,11.53-.21.9-1.33,1.59-2,2.38-.7-.78-1.76-1.46-2-2.37A39.31,39.31,0,0,1,151,124c.3-1,1.39-1.78,2.12-2.67.73.88,1.9,1.66,2.13,2.65C156.11,127.75,156.66,131.62,157.36,135.6Z"/><path class="cls-3" d="M108.6,136.15c-.49,3.73-.7,7-1.45,10.21-.38,1.61-1.77,3-2.7,4.46-.88-1.44-2.34-2.8-2.55-4.33a106.72,106.72,0,0,1-.95-13.61,25.77,25.77,0,0,1,1.31-7.29c.33-1.13,1.5-2,2.3-3,.76,1,2,2,2.22,3.12C107.6,129.25,108.07,132.91,108.6,136.15Z"/></svg>