<?xml version="1.0" encoding="UTF-8"?>
<svg width="256px" height="256px" viewBox="0 0 256 256" version="1.1" xmlns="http://www.w3.org/2000/svg" xmlns:xlink="http://www.w3.org/1999/xlink">
    <!-- Generator: Sketch 56.2 (81672) - https://sketch.com -->
    <title>Cordova iOS</title>
    <desc>Created with Sketch.</desc>
    <defs>
        <linearGradient x1="50%" y1="0%" x2="50%" y2="100%" id="linearGradient-1">
            <stop stop-color="#566E85" offset="0%"></stop>
            <stop stop-color="#2B3845" offset="100%"></stop>
        </linearGradient>
    </defs>
    <g id="New-Icons" stroke="none" stroke-width="1" fill="none" fill-rule="evenodd">
        <g id="Cordova-iOS">
            <g>
                <rect id="Rectangle" fill="url(#linearGradient-1)" x="0" y="0" width="256" height="256"></rect>
                <g id="cordova-logo" transform="translate(37.000000, 41.000000)">
                    <g id="Group">
                        <path d="M1.42108547e-14,66.6696393 L41.591618,1.56319402e-13 L141.408382,1.56319402e-13 L183,66.6696393 L1.42108547e-14,66.6696393 Z M1.42108547e-14,66.6696393 L1.42108547e-14,66.6579346 L183,66.6579346 L166.362573,175 L16.637427,175 L1.42108547e-14,66.6696393 Z M46.2705288,175 L44.1923126,149.998885 L58.7476243,149.998885 L60.8258405,175 L46.2705288,175 Z M136.729471,175 L138.807687,149.998885 L124.252376,149.998885 L122.174159,175 L136.729471,175 Z M33.2748541,66.6696393 L49.9122811,33.3348196 L133.095517,33.3348196 L149.729045,66.6696393 L33.2748541,66.6696393 Z M33.2748541,66.6696393 L41.591618,133.339279 L141.408382,133.339279 L149.725146,66.6696393 L33.2748541,66.6696393 Z" id="logo" fill="#FFFFFF"></path>
                        <polygon id="logo-path" fill="#FFFFFF" points="76.9446883 31.2513934 74.8664721 45.835377 108.137427 45.835377 106.059211 31.2513934 76.9446883 31.2513934"></polygon>
                        <path d="M118.532407,80.192402 C120.828973,80.192402 122.692739,87.1332546 122.692739,95.6932492 C122.692739,104.253244 120.828973,111.194096 118.532407,111.194096 C116.235842,111.194096 114.375975,104.253244 114.375975,95.6932492 C114.375975,87.1332546 116.235842,80.192402 118.532407,80.192402 Z" id="logo-path" fill="#4CC2E4"></path>
                        <path d="M66.0272297,81.4838142 C68.3237951,81.4838142 70.1875613,88.4246667 70.1875613,96.9846613 C70.1875613,105.544656 68.3276942,112.485509 66.0272297,112.485509 C63.7267652,112.485509 61.8668982,105.552459 61.8668982,97.0041691 C61.8668982,88.4558791 63.7306643,81.5033219 66.0272297,81.5033219 L66.0272297,81.4838142 Z" id="logo-path" fill="#4CC2E4"></path>
                    </g>
                </g>
            </g>
        </g>
    </g>
</svg>