<svg xmlns="http://www.w3.org/2000/svg" width="256" height="256" viewBox="0 0 256 256">
  <defs>
    <linearGradient id="generate-gradle-wrapper-stepicon-a" x1="50%" x2="50%" y1=".689%" y2="97.648%">
      <stop offset="0%" stop-color="#22DA27"/>
      <stop offset="100%" stop-color="#0BC010"/>
    </linearGradient>
    <linearGradient id="generate-gradle-wrapper-stepicon-b" x1="50%" x2="41.664%" y1="30.726%" y2="95.731%">
      <stop offset="0%" stop-color="#FFF"/>
      <stop offset="100%" stop-color="#FFF" stop-opacity=".34"/>
    </linearGradient>
    <linearGradient id="generate-gradle-wrapper-stepicon-c" x1="368.907%" x2="208.542%" y1="-179.687%" y2="154.886%">
      <stop offset="0%" stop-color="#008DA0"/>
      <stop offset="100%" stop-color="#005466"/>
    </linearGradient>
  </defs>
  <g fill="none" fill-rule="evenodd">
    <rect width="256" height="256" fill="url(#generate-gradle-wrapper-stepicon-a)" fill-rule="nonzero"/>
    <path fill="url(#generate-gradle-wrapper-stepicon-b)" fill-rule="nonzero" d="M202.275919,80.7907005 C202.248098,80.8134936 202.22033,80.8364364 202.192617,80.8595303 C201.259589,80.2375114 200.326561,79.6154924 199.600872,78.9934734 C199.020329,78.4774357 198.439787,78.0015337 198.533514,77.1662004 C198.530055,76.6430286 198.785207,75.9754253 199.497202,75.05402 C199.608975,74.9016024 199.780504,74.7720915 199.999491,74.6618756 C201.274362,73.1901705 203.490146,71.4650566 203.955005,70.9072268 C205.985529,68.4705975 212.589693,71.303596 216.85415,75.1218955 C221.566046,78.5220791 226.616515,84.7927422 228.421084,90.0861451 C230.90916,97.5503727 231.01283,106.984327 226.866037,116.521951 C220.023828,132.590775 209.449505,143.165097 186.849483,146.171522 C173.579745,148.037579 176.27516,157.782543 176.27516,183.7 L158.23661,183.7 C158.23661,183.7 127.757681,135.078851 113.554914,183.7 L97.4860909,183.7 C94.2723262,159.75227 74.9897381,158.819241 69.5989071,183.7 L48.4502621,183.7 C48.4502621,183.7 36.9429111,116.107272 79.4475407,100.764137 C79.4475407,100.764137 83.2833244,109.887082 88.2594761,117.869659 C93.753977,126.681594 108.164083,132.798114 124.958595,107.502676 C124.958595,107.502676 102.358573,132.487105 92.0952598,115.381583 C85.5640606,104.599921 87.741127,108.643044 81.106258,95.580646 C76.2337761,86.0430218 81.9356166,81.8962286 94.375996,77.7494355 C106.816375,73.6026424 144.344853,63.0283199 172.335707,89.0494468 C198.667843,113.515526 205.095373,112.271488 210.797213,107.087997 C215.877035,102.422855 212.97428,94.7512873 211.730242,91.4338528 C209.502034,85.6712457 205.337662,82.8128839 202.275919,80.7907005 Z M161.026765,108.240506 C156.328164,106.683601 153.467798,105.740289 153.467798,105.740289 C153.467798,105.740289 149.424675,117.0403 160.621016,120.668744 C169.018272,123.5715 175.549472,116.832961 176.27516,113.308187 C174.183039,112.610813 172.176017,111.942692 170.280504,111.312343 C170.353981,111.586854 170.407071,111.870285 170.437992,112.16125 C170.770764,115.292658 168.409712,118.11074 165.164435,118.455612 C161.919158,118.800484 159.018576,116.541551 158.685805,113.410144 C158.466184,111.343495 159.419901,109.413321 161.026765,108.240506 Z"/>
    <path fill="url(#generate-gradle-wrapper-stepicon-c)" d="M44,140 C45.3333333,127.333333 49,117 55,109 C61,101 70.3333333,94.3333333 83,89 C85,102.333333 89.3333333,111.333333 96,116 C102.666667,120.666667 112.666667,116.666667 126,104 C133.544086,123.398988 141.544086,135.398988 150,140 C158.455914,144.601012 171.789247,146.934345 190,147 C186.666667,149 184.333333,152 183,156 C181.666667,160 182.333333,163.333333 185,166 L143,175 C139.666667,170.333333 136,168.333333 132,169 C128,169.666667 126,171.666667 126,175 L96,175 C85.7128197,162.689414 77.3794863,154.35608 71,150 C65.4833709,146.233101 56.4833709,142.899768 44,140 Z" style="mix-blend-mode:multiply"/>
  </g>
</svg>
