<?xml version="1.0" encoding="UTF-8"?>
<svg width="256px" height="256px" viewBox="0 0 256 256" version="1.1" xmlns="http://www.w3.org/2000/svg" xmlns:xlink="http://www.w3.org/1999/xlink">
    <!-- Generator: Sketch 50.2 (55047) - http://www.bohemiancoding.com/sketch -->
    <title>github-release</title>
    <desc>Created with Sketch.</desc>
    <defs>
        <rect id="path-1" x="0" y="0" width="256" height="256"></rect>
        <linearGradient x1="50%" y1="-34.3689168%" x2="50%" y2="133.977435%" id="linearGradient-3">
            <stop stop-color="#FFFFFF" offset="0%"></stop>
            <stop stop-color="#333333" offset="100%"></stop>
        </linearGradient>
        <linearGradient x1="71.6905382%" y1="109.679656%" x2="21.6471354%" y2="21.8471554%" id="linearGradient-4">
            <stop stop-color="#FFC500" offset="0%"></stop>
            <stop stop-color="#FF7C00" offset="42.2807986%"></stop>
            <stop stop-color="#FF4400" stop-opacity="0.564679574" offset="100%"></stop>
        </linearGradient>
    </defs>
    <g id="New-Icons" stroke="none" stroke-width="1" fill="none" fill-rule="evenodd">
        <g id="Github-Release">
            <g id="github-release">
                <mask id="mask-2" fill="white">
                    <use xlink:href="#path-1"></use>
                </mask>
                <use id="Rectangle" fill="#333333" xlink:href="#path-1"></use>
                <path d="M128.025963,50 C84.939062,50 50,84.9313096 50,128.024671 C50,162.498586 72.3568134,191.746047 103.358916,202.063284 C107.258405,202.785556 108.690027,200.370663 108.690027,198.3098 C108.690027,196.449209 108.61767,190.302797 108.584076,183.782975 C86.877178,188.502933 82.296764,174.576924 82.296764,174.576924 C78.7474277,165.558225 73.6333857,163.160129 73.6333857,163.160129 C66.5540943,158.317423 74.1670137,158.416913 74.1670137,158.416913 C82.0021704,158.966046 86.1277731,166.45751 86.1277731,166.45751 C93.0869014,178.385968 104.380949,174.937414 108.833447,172.943738 C109.533753,167.902053 111.555854,164.457375 113.787272,162.510214 C96.456639,160.537212 78.2383492,153.846836 78.2383492,123.94946 C78.2383492,115.430794 81.2863595,108.470374 86.2776541,103.006179 C85.4675216,101.039637 82.7967979,93.1049905 87.0335193,82.3574916 C87.0335193,82.3574916 93.5856433,80.2604502 108.496215,90.35545 C114.720152,88.6266506 121.395023,87.7596668 128.025963,87.729949 C134.656904,87.7596668 141.336944,88.6266506 147.572509,90.35545 C162.464992,80.2604502 169.008071,82.3574916 169.008071,82.3574916 C173.255129,93.1049905 170.583113,101.039637 169.772981,103.006179 C174.775904,108.470374 177.803241,115.430794 177.803241,123.94946 C177.803241,153.9179 159.550065,160.516539 142.175502,162.448195 C144.974141,164.869547 147.46785,169.617931 147.46785,176.897495 C147.46785,187.336187 147.377405,195.738566 147.377405,198.3098 C147.377405,200.386168 148.781893,202.81915 152.736942,202.052948 C183.722247,191.724082 206.050635,162.486957 206.050635,128.024671 C206.050635,84.9313096 171.116741,50 128.025963,50" id="logo-github" fill="url(#linearGradient-3)" mask="url(#mask-2)"></path>
                <path d="M114.932344,110.43182 L112.635664,110.43182 L60,110.43182 L60,145.43182 L114.765432,145.43182 L116.998027,146.64459 L164,168.69476 L164,87.9858509 L117,109.429201 L114.932344,110.43182 Z M102,165.43182 L102,201 C102,206.522847 97.5228475,211 92,211 L82,211 C76.4771525,211 72,206.522847 72,201 L72,165.43182 L60,165.43182 C48.954305,165.43182 40,156.477515 40,145.43182 L40,110.43182 C40,99.3861246 48.954305,90.4318196 60,90.4318196 L110.455547,90.4318196 L155.698373,69.790165 C165.747573,65.2053029 177.610824,69.635024 182.195686,79.6842239 C183.384682,82.2902919 184,85.121361 184,87.9858509 L184,168.69476 C184,179.740455 175.045695,188.69476 164,188.69476 C161.063892,188.69476 158.163793,188.048298 155.505658,186.801282 L109.954557,165.43182 L102,165.43182 Z" id="Combined-Shape" fill="url(#linearGradient-4)" fill-rule="nonzero" mask="url(#mask-2)"></path>
            </g>
        </g>
    </g>
</svg>
