<?xml version="1.0" encoding="utf-8"?>
<!-- Generator: Adobe Illustrator 22.0.1, SVG Export Plug-In . SVG Version: 6.00 Build 0)  -->
<svg version="1.1" id="Layer_1" xmlns="http://www.w3.org/2000/svg" xmlns:xlink="http://www.w3.org/1999/xlink" x="0px" y="0px"
	 viewBox="0 0 1000 1000" style="enable-background:new 0 0 1000 1000;" xml:space="preserve">
<style type="text/css">
	.st0{fill:#0052CC;}
	.st1{fill:#FFFFFF;}
	.st2{enable-background:new    ;}
</style>
<g>
	<rect x="-0.5" y="-0.5" class="st0" width="1000" height="1000"/>
</g>
<g>
	<path class="st1" d="M878.1,359.5H436v-90.4h74.9v-36H418h-92.9v36H400v90.4H121.8c-9.9,0-18,8.1-18,18v245c0,9.9,8.1,18,18,18H400
		v80.4h-74.9v36H418h92.9v-36H436v-80.4h442.1c9.9,0,18-8.1,18-18v-245C896.1,367.6,888,359.5,878.1,359.5z M139.8,604.5v-209H400
		v209H139.8z M860.1,604.5H436v-209h424.1V604.5z"/>
	<rect x="207" y="507.2" class="st1" width="128" height="36"/>
</g>
<g class="st2">
	<g>
		<path class="st1" d="M616.5,777.4h21V848c0,6.5-1.4,12.2-4.3,17.2c-2.9,5-6.9,8.8-12.2,11.5c-5.2,2.7-11.1,4.1-17.7,4.1
			c-10.8,0-19.2-2.7-25.2-8.2c-6-5.5-9-13.2-9-23.3h21.2c0,5,1.1,8.7,3.2,11.1c2.1,2.4,5.4,3.6,9.9,3.6c4,0,7.2-1.4,9.6-4.1
			s3.6-6.7,3.6-11.8V777.4z"/>
	</g>
	<g>
		<path class="st1" d="M682.8,879.3h-21v-102h21V879.3z"/>
	</g>
	<g>
		<path class="st1" d="M744.8,842h-16.7v37.3h-21v-102H745c12,0,21.3,2.7,27.9,8.1c6.5,5.4,9.8,13,9.8,22.8c0,7-1.5,12.8-4.5,17.4
			c-3,4.6-7.6,8.3-13.7,11.1l22.1,41.7v1H764L744.8,842z M728.1,825h16.9c5.3,0,9.4-1.3,12.3-4c2.9-2.7,4.3-6.4,4.3-11.1
			c0-4.8-1.4-8.6-4.1-11.3c-2.7-2.8-6.9-4.1-12.6-4.1h-16.9V825z"/>
	</g>
	<g>
		<path class="st1" d="M861.1,858.3h-36.8l-7,21h-22.3l38-102h19.5l38.2,102h-22.3L861.1,858.3z M829.9,841.3h25.5l-12.8-38.2
			L829.9,841.3z"/>
	</g>
</g>
</svg>
