<svg id="Layer_1" data-name="Layer 1" xmlns="http://www.w3.org/2000/svg" viewBox="0 0 256 256"><defs><style>.cls-1{fill:#4d4d4d;}.cls-2{fill:#fff;}</style></defs><title>Artboard 107</title><rect class="cls-1" width="256" height="256"/><rect class="cls-2" x="60.22" y="60.22" width="135.56" height="135.56" rx="10.03" ry="10.03"/><path class="cls-2" d="M185.76,198.28H70.24a12.54,12.54,0,0,1-12.53-12.53V70.24A12.54,12.54,0,0,1,70.24,57.72H185.76a12.54,12.54,0,0,1,12.53,12.53V185.76A12.54,12.54,0,0,1,185.76,198.28ZM70.24,62.72a7.53,7.53,0,0,0-7.53,7.53V185.76a7.53,7.53,0,0,0,7.53,7.53H185.76a7.53,7.53,0,0,0,7.53-7.53V70.24a7.53,7.53,0,0,0-7.53-7.53Z"/><rect class="cls-1" x="125.94" y="38.11" width="5" height="178.91" transform="translate(-52.58 128.19) rotate(-45)"/><rect class="cls-1" x="38.99" y="125.07" width="178.91" height="5" transform="translate(-52.58 128.18) rotate(-45)"/><circle class="cls-2" cx="128" cy="128" r="21.1"/><path class="cls-1" d="M128,151.6A23.6,23.6,0,1,1,151.6,128,23.62,23.62,0,0,1,128,151.6Zm0-42.2A18.6,18.6,0,1,0,146.6,128,18.62,18.62,0,0,0,128,109.4Z"/><path class="cls-1" d="M128,180.36A52.36,52.36,0,1,1,180.36,128,52.42,52.42,0,0,1,128,180.36Zm0-99.71A47.36,47.36,0,1,0,175.36,128,47.41,47.41,0,0,0,128,80.64Z"/></svg>