<?xml version="1.0" encoding="UTF-8" standalone="no"?>
<svg viewBox="0 0 256 256" version="1.1" xmlns="http://www.w3.org/2000/svg" xmlns:xlink="http://www.w3.org/1999/xlink">
    <!-- Generator: Sketch 3.8.3 (29802) - http://www.bohemiancoding.com/sketch -->
    <title>Artboard 1</title>
    <desc>Created with Sketch.</desc>
    <defs></defs>
    <g id="Page-1" stroke="none" stroke-width="1" fill="none" fill-rule="evenodd">
        <g id="Artboard-1">
            <g id="Group">
                <rect id="Rectangle-2" fill="#26A4E5" x="0" y="0" width="256" height="256"></rect>
                <path d="M201.755377,147.743145 C199.672138,147.396043 193.42242,144.966331 193.42242,135.941687 L193.42242,98.1076015 L196.894485,98.1076015 L196.894485,135.941687 C196.894485,142.189517 200.713757,143.925026 202.44979,144.272128 L201.755377,147.743145 L201.755377,147.743145 L201.755377,147.743145 Z" id="Shape" fill="#FFFFFF"></path>
                <path d="M243.420165,130.38806 C242.378545,139.065602 235.781621,145.660535 227.448663,147.048941 C226.407043,147.396043 225.018217,147.396043 223.976597,147.396043 C214.60202,147.396043 206.269063,140.801111 204.880236,131.429365 C203.144203,120.669212 210.088335,110.603263 220.851738,108.867754 C231.615142,107.132246 241.684132,114.07428 243.420165,124.834433 L243.767372,126.569941 L208.699508,132.817772 C210.782748,140.454009 218.768499,145.660535 227.101456,144.272128 C233.698381,143.230823 238.90648,138.024297 240.295306,131.429365 L243.420165,130.38806 L243.420165,130.38806 L243.420165,130.38806 Z M224.323804,111.99167 C223.282184,111.99167 222.587771,111.99167 221.546151,112.338771 C213.213194,113.727178 207.657889,121.016314 208.352302,129.346755 L239.948099,123.793127 C237.517653,116.503992 231.267935,111.99167 224.323804,111.99167 L224.323804,111.99167 L224.323804,111.99167 Z" id="Shape" fill="#FFFFFF"></path>
                <path d="M186.131082,127.958348 C186.131082,117.545297 177.450918,108.867754 167.034721,108.867754 C160.437796,108.867754 154.882491,111.99167 151.410425,117.198195 L151.410425,98.1076015 L147.938359,98.1076015 L147.938359,127.958348 C147.938359,138.371399 156.618524,147.048941 167.034721,147.048941 C177.798124,147.396043 186.131082,138.7185 186.131082,127.958348 L186.131082,127.958348 L186.131082,127.958348 Z M183.006223,127.958348 C183.006223,136.63589 176.062091,143.925026 167.034721,143.925026 C158.354557,143.925026 151.063219,136.982992 151.063219,127.958348 C151.063219,118.933704 158.00735,111.99167 167.034721,111.99167 C175.714885,112.338771 183.006223,119.280805 183.006223,127.958348 L183.006223,127.958348 L183.006223,127.958348 Z" id="Shape" fill="#FFFFFF"></path>
                <path d="M141.341435,127.958348 C141.341435,117.545297 132.661271,108.867754 122.245074,108.867754 C115.648149,108.867754 110.092844,111.99167 106.620778,117.198195 L106.620778,98.1076015 L103.148713,98.1076015 L103.148713,127.958348 C103.148713,138.371399 111.828877,147.048941 122.245074,147.048941 C132.661271,147.396043 141.341435,138.7185 141.341435,127.958348 L141.341435,127.958348 L141.341435,127.958348 Z M137.869369,127.958348 C137.869369,136.63589 130.925238,143.925026 121.897867,143.925026 C112.870496,143.925026 105.926365,136.982992 105.926365,127.958348 C105.926365,118.933704 112.870496,111.99167 121.897867,111.99167 C130.925238,111.99167 137.869369,119.280805 137.869369,127.958348 L137.869369,127.958348 L137.869369,127.958348 Z" id="Shape" fill="#FFFFFF"></path>
                <path d="M32.3185733,108.867754 C21.9023763,108.867754 13.2222122,117.545297 13.2222122,127.958348 L13.2222122,157.809094 L16.6942779,157.809094 L16.6942779,138.7185 C20.1663435,143.577924 26.0688551,147.048941 32.3185733,147.048941 C42.7347704,147.048941 51.4149343,138.371399 51.4149343,127.958348 C51.4149343,117.545297 42.7347704,108.867754 32.3185733,108.867754 L32.3185733,108.867754 L32.3185733,108.867754 Z M32.3185733,143.925026 C23.6384092,143.925026 16.3470713,136.982992 16.3470713,127.958348 C16.3470713,119.280805 23.2912026,111.99167 32.3185733,111.99167 C41.3459439,111.99167 48.2900754,118.933704 48.2900754,127.958348 C47.9428687,136.982992 40.9987374,143.925026 32.3185733,143.925026 L32.3185733,143.925026 L32.3185733,143.925026 Z" id="Shape" fill="#FFFFFF"></path>
                <path d="M96.2045814,130.38806 C95.1629617,139.065602 88.5660369,145.660535 80.2330792,147.048941 C79.1914595,147.396043 77.8026333,147.396043 76.7610136,147.396043 C67.3864365,147.396043 59.0534788,140.801111 57.6646526,131.429365 C55.9286196,120.669212 62.8727511,110.603263 73.6361545,108.867754 C84.3995581,107.132246 94.4685484,114.07428 96.2045814,124.834433 L96.5517879,126.569941 L61.4839247,132.817772 C63.5671641,140.454009 71.5529153,145.660535 79.8858727,144.272128 C86.4827975,143.230823 91.690896,138.024297 93.0797222,131.429365 L96.2045814,130.38806 L96.2045814,130.38806 L96.2045814,130.38806 Z M76.7610136,111.99167 C75.7193939,111.99167 75.0249809,111.99167 73.9833612,112.338771 C65.6504035,113.727178 60.0950985,121.016314 60.7895117,129.346755 L92.385309,123.793127 C90.3020696,116.503992 84.0523516,111.99167 76.7610136,111.99167 L76.7610136,111.99167 L76.7610136,111.99167 Z" id="Shape" fill="#FFFFFF"></path>
            </g>
        </g>
    </g>
</svg>