<svg xmlns="http://www.w3.org/2000/svg" width="256" height="256" viewBox="0 0 256 256">
  <g fill="none">
    <rect width="256" height="256" fill="#1DA1F2"/>
    <path fill="#FFF" d="M104.60339,195.679688 C161.356356,195.679688 192.388136,148.59375 192.388136,107.785938 C192.388136,106.440625 192.388136,105.095313 192.324153,103.814063 C198.338559,99.4578125 203.585169,94.0125 207.744068,87.7984375 C202.241525,90.2328125 196.291102,91.8984375 190.020763,92.6671875 C196.419068,88.8234375 201.28178,82.8015625 203.585169,75.5625 C197.634746,79.0859375 191.044492,81.6484375 184.006356,83.0578125 C178.375847,77.0359375 170.377966,73.3203125 161.484322,73.3203125 C144.464831,73.3203125 130.644492,87.1578125 130.644492,104.198438 C130.644492,106.632813 130.900424,109.003125 131.476271,111.245313 C105.819068,109.964063 83.1050847,97.6640625 67.8771186,78.9578125 C65.2538136,83.50625 63.7182203,88.8234375 63.7182203,94.4609375 C63.7182203,105.159375 69.1567797,114.640625 77.4745763,120.15 C72.4199153,120.021875 67.6851695,118.6125 63.5262712,116.30625 C63.5262712,116.434375 63.5262712,116.5625 63.5262712,116.690625 C63.5262712,131.68125 74.1474576,144.109375 88.2877119,146.992188 C85.7283898,147.696875 82.9771186,148.08125 80.1618644,148.08125 C78.1783898,148.08125 76.2588983,147.889063 74.3394068,147.504688 C78.2423729,159.804688 89.6313559,168.709375 103.13178,168.965625 C92.5745763,177.229688 79.2661017,182.1625 64.8059322,182.1625 C62.3105932,182.1625 59.8792373,182.034375 57.4478814,181.714063 C70.9483051,190.554688 87.2,195.679688 104.60339,195.679688"/>
  </g>
</svg>
