<?xml version="1.0" ?><svg height="50px" version="1.1" viewBox="0 0 60 50" width="60px" xmlns="http://www.w3.org/2000/svg" xmlns:xlink="http://www.w3.org/1999/xlink"><title/><desc/><defs/><g fill="none" fill-rule="evenodd" id="People" stroke="none" stroke-width="1"><g fill="#000000" id="Icon-52" transform="translate(0.000000, -5.000000)"><path d="M59.8242,12.1338 C58.2502,14.4878 56.3182,16.5358 54.0742,18.2298 C54.0852,18.5778 54.0912,18.9288 54.0912,19.2788 C54.0912,36.4578 40.6722,54.9998 18.9932,54.9998 C13.8392,54.9998 10.4672,53.8548 8.5462,52.8948 C8.0522,52.6478 7.8512,52.0468 8.0982,51.5528 C8.3452,51.0588 8.9452,50.8598 9.4402,51.1058 C11.1692,51.9698 14.2292,52.9998 18.9932,52.9998 C39.4372,52.9998 52.0912,35.4958 52.0912,19.2788 C52.0912,18.7778 52.0772,18.2758 52.0572,17.7798 C52.0432,17.4448 52.1992,17.1238 52.4702,16.9278 C53.7912,15.9738 55.0002,14.8908 56.0872,13.6878 C54.8422,14.0378 53.5692,14.2908 52.2762,14.4448 C51.8082,14.5028 51.3642,14.2208 51.2122,13.7738 C51.0602,13.3268 51.2402,12.8358 51.6452,12.5928 C53.1162,11.7118 54.3462,10.5118 55.2502,9.0958 C53.5742,9.8348 51.8272,10.3848 50.0282,10.7378 C49.6902,10.8048 49.3422,10.6908 49.1072,10.4408 C47.0532,8.2538 44.1532,6.9998 41.1492,6.9998 C35.1412,6.9998 30.2542,11.8888 30.2542,17.8978 C30.2542,18.7508 30.3482,19.5868 30.5332,20.3818 C30.6052,20.6878 30.5292,21.0088 30.3272,21.2498 C30.1262,21.4908 29.8362,21.6218 29.5102,21.6088 C20.2052,21.1408 11.4512,16.9238 5.2582,9.9788 C4.7112,11.2958 4.4272,12.7178 4.4272,14.1588 C4.4272,17.8088 6.2392,21.1998 9.2742,23.2318 C9.6452,23.4798 9.8062,23.9438 9.6702,24.3678 C9.5342,24.7928 9.1482,25.1128 8.6862,25.0618 C7.2292,25.0158 5.7842,24.7178 4.4292,24.1918 C5.0482,28.7308 8.4912,32.4918 13.0692,33.4098 C13.5242,33.5008 13.8562,33.8938 13.8722,34.3578 C13.8872,34.8208 13.5822,35.2348 13.1342,35.3558 C11.8092,35.7158 10.4342,35.8658 9.0602,35.7898 C10.8402,39.4018 14.5112,41.7798 18.6322,41.8578 C19.0552,41.8648 19.4272,42.1388 19.5612,42.5398 C19.6962,42.9418 19.5632,43.3838 19.2302,43.6448 C14.8012,47.1158 9.4782,48.9508 3.8392,48.9508 C2.8542,48.9508 1.8602,48.8928 0.8832,48.7788 C0.3352,48.7138 -0.0578,48.2168 0.0072,47.6688 C0.0712,47.1188 0.5682,46.7258 1.1162,46.7918 C2.0162,46.8978 2.9322,46.9508 3.8392,46.9508 C8.1722,46.9508 12.3002,45.7748 15.9162,43.5268 C11.5542,42.5158 7.9522,39.2828 6.5492,34.9008 C6.4422,34.5648 6.5192,34.1958 6.7532,33.9328 C6.9882,33.6678 7.3432,33.5478 7.6892,33.6128 C7.9632,33.6658 8.2382,33.7068 8.5132,33.7388 C4.7692,31.4458 2.3292,27.3108 2.3292,22.7228 L2.3322,22.5348 C2.3452,22.1878 2.5382,21.8728 2.8422,21.7018 C3.1442,21.5328 3.5132,21.5308 3.8182,21.6998 C4.3302,21.9858 4.8662,22.2288 5.4182,22.4268 C3.5072,20.1358 2.4272,17.2248 2.4272,14.1588 C2.4272,11.8778 3.0302,9.6358 4.1722,7.6748 C4.3372,7.3908 4.6312,7.2058 4.9572,7.1808 C5.2882,7.1558 5.6042,7.2918 5.8112,7.5458 C11.4182,14.4208 19.5762,18.7398 28.3532,19.5238 C28.2872,18.9888 28.2542,18.4458 28.2542,17.8978 C28.2542,10.7858 34.0382,4.9998 41.1492,4.9998 C44.5122,4.9998 47.7672,6.3288 50.1662,8.6658 C52.5242,8.1468 54.7802,7.2548 56.8822,6.0108 C57.2382,5.7978 57.6892,5.8288 58.0142,6.0888 C58.3392,6.3478 58.4702,6.7798 58.3442,7.1758 C57.8082,8.8488 56.9402,10.3798 55.8032,11.6878 C56.7522,11.4078 57.6812,11.0668 58.5872,10.6638 C58.9952,10.4868 59.4712,10.5938 59.7582,10.9348 C60.0452,11.2748 60.0722,11.7638 59.8242,12.1338" id="social-twitter"/></g></g></svg>