<svg xmlns="http://www.w3.org/2000/svg" width="256" height="256" viewBox="0 0 256 256">
  <defs>
    <linearGradient id="generate-changelog-stepicon-a" x1="0%" x2="100%" y1="100%" y2="0%">
      <stop offset="0%" stop-color="#0DD3C5"/>
      <stop offset="100%" stop-color="#0D83CD"/>
    </linearGradient>
    <linearGradient id="generate-changelog-stepicon-b" x1="84.544%" x2="21.245%" y1="-11.098%" y2="109.263%">
      <stop offset="0%" stop-color="#FFF" stop-opacity=".399"/>
      <stop offset="100%" stop-color="#FFF"/>
    </linearGradient>
  </defs>
  <g fill="none" fill-rule="evenodd">
    <rect width="256" height="256" fill="url(#generate-changelog-stepicon-a)" fill-rule="nonzero"/>
    <path fill="url(#generate-changelog-stepicon-b)" d="M147.437901,98.8732673 L147.437901,60.6455446 L109.360978,60.6455446 L109.360978,53 L86.5148244,53 L86.5148244,60.6455446 L48.4379013,60.6455446 L48.4379013,98.8732673 L86.5148244,98.8732673 L86.5148244,106.518812 L48.4379013,106.518812 L48.4379013,144.746535 L86.5148244,144.746535 L86.5148244,152.392079 L48.4379013,152.392079 L48.4379013,190.619802 L86.5148244,190.619802 L86.5148244,205.910891 L109.360978,205.910891 L109.360978,190.619802 L147.437901,190.619802 L147.437901,152.392079 L109.360978,152.392079 L109.360978,144.746535 L147.437901,144.746535 L147.437901,106.518812 L109.360978,106.518812 L109.360978,98.8732673 L147.437901,98.8732673 Z M131.754733,167.683168 L131.754733,175.524752 L64.1210697,175.524752 L64.1210697,167.683168 L131.754733,167.683168 Z M131.754733,121.613861 L131.754733,129.455446 L64.1210697,129.455446 L64.1210697,121.613861 L131.754733,121.613861 Z M64.1210697,83.3861386 L64.1210697,75.5445545 L131.754733,75.5445545 L131.754733,83.3861386 L64.1210697,83.3861386 Z"/>
    <path fill="#760FC3" d="M179.253851,130.05102 L149.5,100.645466 L165.33078,85 L222.5,141.5 L165.33078,198 L149.5,182.354534 L179.708149,152.5 L111.186105,152.5 C105.00819,152.5 100,147.474625 100,141.27551 L100,42.5 L122.37221,42.5 L122.37221,130.05102 L179.253851,130.05102 Z" style="mix-blend-mode:multiply"/>
  </g>
</svg>
