<?xml version="1.0" encoding="UTF-8" standalone="no"?>
<svg
   viewBox="0 0 256 256"
   xmlns="http://www.w3.org/2000/svg">
  <defs
     id="defs11">
    <style
       id="style9">.cls-1{fill:#fff;}</style>
  </defs>
  <rect
     style="fill:#388e3c"
     id="rect380"
     width="256"
     height="256"
     x="0"
     y="0" />
  <g
     id="レイヤー_2"
     transform="matrix(3.3996124,0,0,3.3996121,62.554149,60.015518)">
    <g
       id="レイヤー_1-2">
      <path
         class="cls-1"
         d="M 36.3,15.42 30.35,8.35 26,3.13 a 8.84,8.84 0 0 0 -1.06,-1.06 7.26,7.26 0 0 0 -0.78,-0.59 9.23,9.23 0 0 0 -1,-0.56 8.82,8.82 0 0 0 -8,0.07 8.45,8.45 0 0 0 -0.82,0.49 7.26,7.26 0 0 0 -0.78,0.59 8.84,8.84 0 0 0 -1.06,1.06 L 8.14,8.35 v 0 l -6,7.07 A 8.78,8.78 0 0 0 8.92,29.85 H 29.57 A 8.78,8.78 0 0 0 36.3,15.42 Z m -6.73,12 H 8.92 A 6.4,6.4 0 0 1 4,17 l 7.23,-8.6 h 16 l 7.24,8.6 a 6.4,6.4 0 0 1 -4.9,10.52 z"
         id="path13" />
      <path
         class="cls-1"
         d="m 4.54,30.64 c -1.16,-0.63 -2.62,-0.19 -3.8,2 -1.18,2.19 -0.77,4.63 0,5 0.77,0.37 3.02,-0.64 4.2,-2.75 1.18,-2.11 0.76,-3.62 -0.4,-4.25 z"
         id="path15" />
      <path
         class="cls-1"
         d="m 37.75,32.59 c -1.18,-2.14 -2.64,-2.58 -3.8,-2 -1.16,0.58 -1.57,2.11 -0.4,4.25 1.17,2.14 3.45,3.16 4.23,2.79 0.78,-0.37 1.14,-2.89 -0.03,-5.04 z"
         id="path17" />
      <path
         class="cls-1"
         d="m 19.24,32 c -1.32,0 -2.39,1.09 -2.39,3.54 0,2.45 1.55,4.46 2.39,4.46 0.84,0 2.4,-2 2.4,-4.43 0,-2.43 -1.07,-3.57 -2.4,-3.57 z"
         id="path19" />
      <path
         class="cls-1"
         d="M 23.36,13.8 A 5.82,5.82 0 0 0 15.13,22 v 0 a 5.8124177,5.8124177 0 0 0 8.22,-8.22 z"
         id="path21" />
    </g>
  </g>
</svg>
