<svg width="256" height="256" viewBox="0 0 256 256" fill="none" xmlns="http://www.w3.org/2000/svg">
<rect width="256" height="256" fill="white"/>
<path fill-rule="evenodd" clip-rule="evenodd" d="M100.645 104.826C100.613 103.791 100.589 102.744 100.585 101.677C100.525 72.7276 121.585 63.875 135.731 61.1899C133.355 60.4046 130.862 60 128.326 60C125.789 60 123.429 60.3887 121.109 61.1304C119.032 61.7967 117.044 62.7486 115.196 63.982C109.227 67.9682 97.2606 75.0003 84.2703 77.3085C76.573 78.673 71 85.2727 71 92.9989V125.05C71 135.168 73.7325 145.04 79.1174 154.424C85.4345 160.084 106.65 176.611 125.533 162.82C125.586 162.782 125.639 162.744 125.691 162.707C125.759 162.658 125.828 162.61 125.897 162.558C126.506 162.102 127.102 161.638 127.686 161.174C125.037 159.489 101.921 143.663 100.649 104.826H100.645ZM180.332 142.988C180.337 146.114 179.794 149.344 178.538 152.639C183.263 143.794 185.664 134.533 185.664 125.054V92.999C185.664 85.5385 180.467 79.1291 173.182 77.4712L172.393 77.3125C159.407 75.0003 147.437 67.9722 141.468 63.986C139.676 62.7922 137.751 61.8602 135.739 61.1939C121.593 63.879 100.537 72.7316 100.593 101.681C100.593 102.748 100.617 103.795 100.653 104.83L129.186 93.7644L155.351 105.538C155.351 105.539 155.35 105.54 155.35 105.54C153.954 125.383 147.753 145.238 127.686 161.178C127.102 161.642 126.506 162.102 125.897 162.562C125.793 162.642 125.688 162.716 125.581 162.791L125.533 162.824C106.65 176.615 85.4385 160.087 79.1174 154.428C79.3655 154.864 79.6174 155.296 79.8776 155.733C80.9537 157.517 82.1299 159.278 83.3942 161.024C87.5548 166.751 92.7317 172.256 98.8608 177.444C112.105 188.656 125.232 194.574 126.116 194.973L126.146 194.986L128.322 195.942L130.506 194.986L130.51 194.985C131.117 194.714 144.394 188.789 157.791 177.444C165.736 170.713 172.097 163.451 176.706 155.856C176.715 155.84 176.725 155.825 176.735 155.81C176.751 155.785 176.767 155.76 176.782 155.733C177.398 154.709 177.978 153.678 178.53 152.639C179.767 149.392 180.316 146.159 180.332 142.988Z" fill="url(#paint0_linear_17_323)"/>
<path fill-rule="evenodd" clip-rule="evenodd" d="M155.35 105.54C153.954 125.383 147.753 145.238 127.686 161.178C127.102 161.642 126.506 162.102 125.897 162.562C125.777 162.654 125.657 162.737 125.533 162.824C106.65 176.615 85.4385 160.087 79.1174 154.428C79.3655 154.864 79.6175 155.296 79.8776 155.733C80.9538 157.517 82.13 159.278 83.3942 161.023C87.5548 166.751 92.7317 172.256 98.8608 177.444C112.287 188.811 125.593 194.736 126.145 194.986L128.322 195.942L130.506 194.986C131.066 194.736 144.369 188.811 157.791 177.444C165.736 170.713 172.097 163.451 176.706 155.855C176.73 155.816 176.758 155.776 176.782 155.733C177.398 154.709 177.978 153.678 178.53 152.639C179.745 149.452 180.296 146.277 180.331 143.162C180.435 122.009 155.35 105.54 155.35 105.54" fill="url(#paint1_linear_17_323)"/>
<path fill-rule="evenodd" clip-rule="evenodd" d="M100.645 104.826C100.613 103.791 100.589 102.744 100.585 101.677C100.525 72.7276 121.585 63.875 135.731 61.1899C133.355 60.4046 130.862 60 128.326 60C125.789 60 123.429 60.3887 121.109 61.1304C119.032 61.7967 117.044 62.7486 115.196 63.982C109.227 67.9682 97.2606 75.0003 84.2703 77.3085C76.573 78.673 71 85.2727 71 92.9989V125.05C71 135.168 73.7325 145.04 79.1174 154.424C85.4345 160.084 106.65 176.611 125.533 162.82C125.653 162.733 125.773 162.65 125.897 162.558C126.506 162.102 127.102 161.638 127.686 161.174C125.037 159.489 101.921 143.663 100.649 104.826H100.645Z" fill="url(#paint2_linear_17_323)"/>
<path fill-rule="evenodd" clip-rule="evenodd" d="M173.182 77.4712L172.393 77.3127C159.407 75.0003 147.437 67.9722 141.468 63.9861C139.676 62.7923 137.752 61.8602 135.739 61.1938C121.593 63.879 100.537 72.7316 100.593 101.681C100.593 102.748 100.617 103.795 100.653 104.83L129.186 93.7645L155.351 105.538L155.355 105.54H155.351C155.351 105.54 180.435 122.009 180.331 143.162C180.316 146.234 179.77 149.405 178.538 152.639C183.263 143.794 185.664 134.533 185.664 125.054V92.999C185.664 85.5386 180.467 79.1292 173.182 77.4712" fill="url(#paint3_linear_17_323)"/>
<defs>
<linearGradient id="paint0_linear_17_323" x1="71" y1="60" x2="71" y2="195.942" gradientUnits="userSpaceOnUse">
<stop stop-color="#28D13E"/>
<stop offset="0.297201" stop-color="#4DDF95"/>
<stop offset="0.602391" stop-color="#16ABD8"/>
<stop offset="1" stop-color="#1671D8"/>
<stop offset="1" stop-color="#1671D8"/>
<stop offset="1" stop-color="#1671D8"/>
</linearGradient>
<linearGradient id="paint1_linear_17_323" x1="110.902" y1="48.1375" x2="53.8288" y2="170.672" gradientUnits="userSpaceOnUse">
<stop stop-color="#0F6078"/>
<stop offset="1" stop-color="#00FFFF" stop-opacity="0.01"/>
</linearGradient>
<linearGradient id="paint2_linear_17_323" x1="62.8491" y1="60" x2="62.8491" y2="195.421" gradientUnits="userSpaceOnUse">
<stop stop-color="#28D13E"/>
<stop offset="1" stop-color="#1671D8"/>
</linearGradient>
<linearGradient id="paint3_linear_17_323" x1="109.718" y1="87.4893" x2="170.108" y2="157.036" gradientUnits="userSpaceOnUse">
<stop stop-color="#23A635"/>
<stop offset="1" stop-color="#1671D8" stop-opacity="0.01"/>
</linearGradient>
</defs>
</svg>
