<svg xmlns="http://www.w3.org/2000/svg" xmlns:xlink="http://www.w3.org/1999/xlink" width="256" height="256" viewBox="0 0 256 256">
  <defs>
    <linearGradient id="android-lint-stepicon-b" x1="50%" x2="50%" y1="0%" y2="100%">
      <stop offset="0%" stop-color="#53A906"/>
      <stop offset="100%" stop-color="#A4C639"/>
    </linearGradient>
    <rect id="android-lint-stepicon-a" width="256" height="256" x="0" y="0"/>
    <linearGradient id="android-lint-stepicon-c" x1="50%" x2="50%" y1="100%" y2="0%">
      <stop offset="0%" stop-color="#FFF" stop-opacity=".7"/>
      <stop offset="100%" stop-color="#FFF"/>
    </linearGradient>
    <linearGradient id="android-lint-stepicon-e" x1="-26.536%" x2="122.497%" y1="47.227%" y2="51.407%">
      <stop offset="0%" stop-color="#0DD3C5"/>
      <stop offset="8.751%" stop-color="#0DC0C7"/>
      <stop offset="100%" stop-color="#0D83CD"/>
    </linearGradient>
  </defs>
  <g fill="none" fill-rule="evenodd">
    <mask id="android-lint-stepicon-d" fill="#fff">
      <use xlink:href="#android-lint-stepicon-a"/>
    </mask>
    <use fill="url(#android-lint-stepicon-b)" xlink:href="#android-lint-stepicon-a"/>
    <path fill="url(#android-lint-stepicon-c)" d="M106.306993,65.4772727 C112.515065,62.8181818 118.723138,61.9318182 125.818078,61.9318182 C132.026151,61.9318182 137.347356,62.8181818 142.668562,64.5909091 L156.858442,50.4090909 C160.405912,46.8636364 165.727118,46.8636364 169.274588,50.4090909 C172.822058,53.9545455 172.822058,59.2727273 169.274588,62.8181818 L158.632177,73.4545455 C171.048323,83.2045455 179.030131,98.2727273 179.030131,115.113636 L72.6060262,115.113636 C72.6060262,99.1590909 79.7009665,84.9772727 91.2302445,75.2272727 L78.8140989,62.8181818 C75.2666288,59.2727273 75.2666288,53.9545455 78.8140989,50.4090909 C82.3615691,46.8636364 87.6827743,46.8636364 91.2302445,50.4090909 L106.306993,65.4772727 Z M90.3433769,168.295455 L81.4747015,168.295455 C76.1534963,168.295455 72.6060262,164.75 72.6060262,159.431818 L72.6060262,123.977273 L179.030131,123.977273 L179.030131,159.431818 C179.030131,159.431818 179.030131,159.431818 179.030131,159.431818 C179.030131,164.75 175.482661,168.295455 170.161455,168.295455 L161.29278,168.295455 L161.29278,194.886364 C161.29278,199.318182 157.74531,203.75 152.424105,203.75 C147.102899,203.75 143.555429,200.204545 143.555429,194.886364 L143.555429,168.295455 L108.080728,168.295455 L108.080728,194.886364 C108.080728,199.318182 104.533258,203.75 99.2120523,203.75 C93.8908471,203.75 90.3433769,200.204545 90.3433769,194.886364 L90.3433769,168.295455 Z M205.636157,123.977273 L205.636157,160.318182 C205.636157,164.75 202.088687,169.181818 196.767482,169.181818 C191.446276,169.181818 187.898806,165.636364 187.898806,160.318182 L187.898806,123.977273 C187.898806,119.545455 191.446276,115.113636 196.767482,115.113636 C202.088687,115.113636 205.636157,118.659091 205.636157,123.977273 Z M54.8686754,115.113636 C60.1898806,115.113636 63.7373508,118.659091 63.7373508,123.977273 L63.7373508,159.431818 C63.7373508,163.863636 60.1898806,168.295455 54.8686754,168.295455 C49.5474702,168.295455 46,164.75 46,159.431818 L46,123.977273 C46,118.659091 49.5474702,115.113636 54.8686754,115.113636 Z M152.424105,106.25 C157.74531,106.25 161.29278,102.704545 161.29278,97.3863636 C161.29278,92.9545455 157.74531,88.5227273 152.424105,88.5227273 C147.102899,88.5227273 143.555429,92.9545455 143.555429,97.3863636 C143.555429,102.704545 147.102899,106.25 152.424105,106.25 Z M99.2120523,106.25 C104.533258,106.25 108.080728,102.704545 108.080728,97.3863636 C108.080728,92.9545455 104.533258,88.5227273 99.2120523,88.5227273 C93.8908471,88.5227273 90.3433769,92.9545455 90.3433769,97.3863636 C90.3433769,102.704545 93.8908471,106.25 99.2120523,106.25 Z" mask="url(#android-lint-stepicon-d)"/>
    <path fill="url(#android-lint-stepicon-e)" fill-rule="nonzero" d="M-23,198 L-23,178 C-17.0405765,178 -11.8979003,179.216649 -7.23470572,181.58068 C-3.85869808,183.292164 -1.73812647,184.873097 2.39053983,188.361511 C7.85430468,192.977984 9.87029476,194 14.8731769,194 C19.8764585,194 21.8926305,192.977931 27.3566882,188.361389 C31.4854904,184.872994 33.6061291,183.292072 36.9822235,181.580609 C41.6455103,179.216623 46.7882749,178 52.7478123,178 C58.7073521,178 63.85012,179.216625 68.5134022,181.580613 C71.8895073,183.292084 74.0101994,184.873054 78.138927,188.361419 C83.6029235,192.977954 85.6190352,194 90.622083,194 C95.6253647,194 97.6415366,192.977931 103.105594,188.361389 C107.234397,184.872994 109.355035,183.292072 112.73113,181.580609 C117.394416,179.216623 122.537181,178 128.496718,178 C134.456261,178 139.599032,179.216626 144.26231,181.580616 C147.638425,183.292096 149.759171,184.873114 153.887824,188.36145 C159.351759,192.977977 161.367811,194 166.370625,194 C171.374305,194 173.390707,192.977849 178.854846,188.361327 C182.983821,184.872854 185.104563,183.291894 188.480648,181.580478 C193.14388,179.216578 198.286564,178 204.245989,178 C210.205759,178 215.348707,179.216574 220.012169,181.580476 C223.388459,183.291912 225.509338,184.872908 229.638263,188.361205 C235.102784,192.977872 237.119199,194 242.122812,194 C247.126893,194 249.143453,192.977811 254.60799,188.361174 C258.737083,184.87277 260.857874,183.291845 264.234093,181.580439 C268.897491,179.216562 274.040348,178 280,178 L280,198 C274.996153,198 272.979678,199.022152 267.515232,203.63871 C263.386096,207.127152 261.26527,208.7081 257.888991,210.419527 C253.225524,212.783427 248.08258,214 242.122812,214 C236.163273,214 231.020501,212.783448 226.357176,210.419592 C222.981005,208.708198 220.860196,207.127249 216.731359,203.639026 C211.266653,199.022204 209.250069,198 204.245989,198 C199.242776,198 197.226542,199.022076 191.762588,203.638442 C187.633525,207.126989 185.512713,208.707996 182.13651,210.419454 C177.47314,212.7834 172.330281,214 166.370625,214 C160.411313,214 155.268717,212.783396 150.605578,210.419451 C147.22958,208.708014 145.108905,207.127043 140.98034,203.638781 C135.51622,199.022098 133.5,198 128.496718,198 C123.493437,198 121.477265,199.022069 116.013207,203.638611 C111.884405,207.127006 109.763766,208.707928 106.387672,210.419391 C101.724385,212.783377 96.5816205,214 90.622083,214 C84.6626586,214 79.5199784,212.783386 74.8567651,210.419421 C71.4807191,208.707971 69.3600624,207.127024 65.2313785,203.638696 C59.7672898,199.022084 57.7510935,198 52.7478123,198 C47.7445306,198 45.7283587,199.022069 40.264301,203.638611 C36.1354988,207.127006 34.0148601,208.707928 30.6387656,210.419391 C25.9754788,212.783377 20.8327143,214 14.8731769,214 C8.91375339,214 3.77107715,212.783351 -0.892117387,210.41932 C-4.26812502,208.707836 -6.38869664,207.126903 -10.5173629,203.638489 C-15.9811278,199.022016 -17.9971179,198 -23,198 Z" mask="url(#android-lint-stepicon-d)" style="mix-blend-mode:multiply"/>
    <path fill="url(#android-lint-stepicon-e)" fill-rule="nonzero" d="M-23,232 L-23,212 C-17.0405765,212 -11.8979003,213.216649 -7.23470572,215.58068 C-3.85869808,217.292164 -1.73812647,218.873097 2.39053983,222.361511 C7.85430468,226.977984 9.87029476,228 14.8731769,228 C19.8764585,228 21.8926305,226.977931 27.3566882,222.361389 C31.4854904,218.872994 33.6061291,217.292072 36.9822235,215.580609 C41.6455103,213.216623 46.7882749,212 52.7478123,212 C58.7073521,212 63.85012,213.216625 68.5134022,215.580613 C71.8895073,217.292084 74.0101994,218.873054 78.138927,222.361419 C83.6029235,226.977954 85.6190352,228 90.622083,228 C95.6253647,228 97.6415366,226.977931 103.105594,222.361389 C107.234397,218.872994 109.355035,217.292072 112.73113,215.580609 C117.394416,213.216623 122.537181,212 128.496718,212 C134.456261,212 139.599032,213.216626 144.26231,215.580616 C147.638425,217.292096 149.759171,218.873114 153.887824,222.36145 C159.351759,226.977977 161.367811,228 166.370625,228 C171.374305,228 173.390707,226.977849 178.854846,222.361327 C182.983821,218.872854 185.104563,217.291894 188.480648,215.580478 C193.14388,213.216578 198.286564,212 204.245989,212 C210.205759,212 215.348707,213.216574 220.012169,215.580476 C223.388459,217.291912 225.509338,218.872908 229.638263,222.361205 C235.102784,226.977872 237.119199,228 242.122812,228 C247.126893,228 249.143453,226.977811 254.60799,222.361174 C258.737083,218.87277 260.857874,217.291845 264.234093,215.580439 C268.897491,213.216562 274.040348,212 280,212 L280,232 C274.996153,232 272.979678,233.022152 267.515232,237.63871 C263.386096,241.127152 261.26527,242.7081 257.888991,244.419527 C253.225524,246.783427 248.08258,248 242.122812,248 C236.163273,248 231.020501,246.783448 226.357176,244.419592 C222.981005,242.708198 220.860196,241.127249 216.731359,237.639026 C211.266653,233.022204 209.250069,232 204.245989,232 C199.242776,232 197.226542,233.022076 191.762588,237.638442 C187.633525,241.126989 185.512713,242.707996 182.13651,244.419454 C177.47314,246.7834 172.330281,248 166.370625,248 C160.411313,248 155.268717,246.783396 150.605578,244.419451 C147.22958,242.708014 145.108905,241.127043 140.98034,237.638781 C135.51622,233.022098 133.5,232 128.496718,232 C123.493437,232 121.477265,233.022069 116.013207,237.638611 C111.884405,241.127006 109.763766,242.707928 106.387672,244.419391 C101.724385,246.783377 96.5816205,248 90.622083,248 C84.6626586,248 79.5199784,246.783386 74.8567651,244.419421 C71.4807191,242.707971 69.3600624,241.127024 65.2313785,237.638696 C59.7672898,233.022084 57.7510935,232 52.7478123,232 C47.7445306,232 45.7283587,233.022069 40.264301,237.638611 C36.1354988,241.127006 34.0148601,242.707928 30.6387656,244.419391 C25.9754788,246.783377 20.8327143,248 14.8731769,248 C8.91375339,248 3.77107715,246.783351 -0.892117387,244.41932 C-4.26812502,242.707836 -6.38869664,241.126903 -10.5173629,237.638489 C-15.9811278,233.022016 -17.9971179,232 -23,232 Z" mask="url(#android-lint-stepicon-d)" style="mix-blend-mode:multiply"/>
  </g>
</svg>
