<?xml version="1.0" encoding="UTF-8"?>
<svg width="256px" height="256px" viewBox="0 0 256 256" version="1.1" xmlns="http://www.w3.org/2000/svg" xmlns:xlink="http://www.w3.org/1999/xlink">
    <!-- Generator: Sketch 49.1 (51147) - http://www.bohemiancoding.com/sketch -->
    <title>android-lint-stepicon</title>
    <desc>Created with Sketch.</desc>
    <defs>
        <linearGradient x1="50%" y1="0%" x2="50%" y2="100%" id="linearGradient-1">
            <stop stop-color="#53A906" offset="0%"></stop>
            <stop stop-color="#A4C639" offset="100%"></stop>
        </linearGradient>
        <rect id="path-2" x="0" y="0" width="256" height="256"></rect>
        <linearGradient x1="50%" y1="33.1830019%" x2="50%" y2="132.410038%" id="linearGradient-4">
            <stop stop-color="#FFFFFF" offset="0%"></stop>
            <stop stop-color="#92C02E" offset="100%"></stop>
        </linearGradient>
        <linearGradient x1="0%" y1="100%" x2="100%" y2="50%" id="linearGradient-5">
            <stop stop-color="#0DD3C5" offset="0%"></stop>
            <stop stop-color="#0D83CD" offset="100%"></stop>
        </linearGradient>
    </defs>
    <g id="New-Icons" stroke="none" stroke-width="1" fill="none" fill-rule="evenodd">
        <g id="Android-Lint">
            <g id="android-lint-stepicon">
                <mask id="mask-3" fill="white">
                    <use xlink:href="#path-2"></use>
                </mask>
                <use id="Rectangle" fill="url(#linearGradient-1)" xlink:href="#path-2"></use>
                <path d="M198.992525,102.178714 C198.991645,96.5558169 194.516028,91.9986599 188.994723,92.0000033 C183.473858,91.9955254 178.998681,96.5607425 179,102.184087 L179.007036,144.820394 C179.006596,150.449112 183.480014,154.998209 189.004837,155 C194.525703,154.999104 198.998681,150.449112 199,144.815916 L198.992525,102.178714 Z M83,94.0152671 L83.0156663,160.272023 C83.0107426,166.298916 87.8699964,171.163268 93.874684,171.164615 L101.268753,171.167758 L101.277257,193.789486 C101.275915,199.420783 105.839746,204 111.446956,204 C117.070727,204 121.626501,199.417191 121.627844,193.782302 L121.622473,171.165064 L135.362308,171.16237 L135.368127,193.7832 C135.366784,199.411802 139.933301,203.998204 145.541406,203.989223 C151.16473,203.992816 155.72319,199.410006 155.722295,193.774219 L155.716028,171.159675 L163.136059,171.153838 C169.125975,171.156083 173.998657,166.284547 174,160.257654 L173.98881,94 L83,94.0152671 Z M150.003724,73.9999977 C147.796268,74.0023248 145.999534,72.2156012 146,70.0044203 C146.007459,67.8146484 147.793937,66.0074466 150.005589,66 C152.200924,66.0060504 154.001854,67.8127867 153.999989,70.0067474 C154.005117,72.2132742 152.210248,74.0004631 150.003724,73.9999977 Z M107.989512,74 C105.791295,73.9948769 104.000466,72.2092336 104,70.0034938 C104.000932,67.8061372 105.787566,65.9995357 107.993241,66.0000014 C110.20684,65.9981385 111.997203,67.8061372 112,70.0025623 C112.000932,72.2064392 110.206374,73.9986028 107.989512,74 Z M151.560576,54.1472365 L158.688845,41.1043483 C159.069313,40.4229732 158.82001,39.5548275 158.130047,39.170035 C157.435143,38.8009944 156.575834,39.051672 156.208393,39.7379977 L149.008252,52.9168008 C142.948168,50.216053 136.169372,48.6998358 128.995285,48.7079367 C121.840064,48.7020861 115.063065,50.2115525 109.029484,52.8969986 L101.821707,39.7528493 C101.44618,39.0593228 100.584176,38.8086452 99.9036461,39.1862368 C99.2096404,39.5602281 98.9562947,40.4297239 99.3408053,41.1097489 L106.472668,54.142736 C92.4600424,61.3835844 82.992817,75.1708546 83,91 L174.999999,90.990549 C175.002695,75.1636538 165.552539,61.4051868 151.560576,54.1472365 Z M68.9960429,92.0000021 C63.4754661,91.9973154 59.001319,96.5633958 59,102.180879 L59.0074745,144.815988 C59.0087935,150.452727 63.4846993,155.000896 69.0057158,155 C74.5298101,155.000448 79.0048364,150.449592 78.9991206,144.816436 L79,102.175058 C78.9978016,96.5589179 74.5170594,91.9964198 68.9960429,92.0000021 Z" id="Fill-10" fill="url(#linearGradient-4)" mask="url(#mask-3)"></path>
                <path d="M-23,198 L-23,178 C-17.0405765,178 -11.8979003,179.216649 -7.23470572,181.58068 C-3.85869808,183.292164 -1.73812647,184.873097 2.39053983,188.361511 C7.85430468,192.977984 9.87029476,194 14.8731769,194 C19.8764585,194 21.8926305,192.977931 27.3566882,188.361389 C31.4854904,184.872994 33.6061291,183.292072 36.9822235,181.580609 C41.6455103,179.216623 46.7882749,178 52.7478123,178 C58.7073521,178 63.85012,179.216625 68.5134022,181.580613 C71.8895073,183.292084 74.0101994,184.873054 78.138927,188.361419 C83.6029235,192.977954 85.6190352,194 90.622083,194 C95.6253647,194 97.6415366,192.977931 103.105594,188.361389 C107.234397,184.872994 109.355035,183.292072 112.73113,181.580609 C117.394416,179.216623 122.537181,178 128.496718,178 C134.456261,178 139.599032,179.216626 144.26231,181.580616 C147.638425,183.292096 149.759171,184.873114 153.887824,188.36145 C159.351759,192.977977 161.367811,194 166.370625,194 C171.374305,194 173.390707,192.977849 178.854846,188.361327 C182.983821,184.872854 185.104563,183.291894 188.480648,181.580478 C193.14388,179.216578 198.286564,178 204.245989,178 C210.205759,178 215.348707,179.216574 220.012169,181.580476 C223.388459,183.291912 225.509338,184.872908 229.638263,188.361205 C235.102784,192.977872 237.119199,194 242.122812,194 C247.126893,194 249.143453,192.977811 254.60799,188.361174 C258.737083,184.87277 260.857874,183.291845 264.234093,181.580439 C268.897491,179.216562 274.040348,178 280,178 L280,198 C274.996153,198 272.979678,199.022152 267.515232,203.63871 C263.386096,207.127152 261.26527,208.7081 257.888991,210.419527 C253.225524,212.783427 248.08258,214 242.122812,214 C236.163273,214 231.020501,212.783448 226.357176,210.419592 C222.981005,208.708198 220.860196,207.127249 216.731359,203.639026 C211.266653,199.022204 209.250069,198 204.245989,198 C199.242776,198 197.226542,199.022076 191.762588,203.638442 C187.633525,207.126989 185.512713,208.707996 182.13651,210.419454 C177.47314,212.7834 172.330281,214 166.370625,214 C160.411313,214 155.268717,212.783396 150.605578,210.419451 C147.22958,208.708014 145.108905,207.127043 140.98034,203.638781 C135.51622,199.022098 133.499999,198 128.496718,198 C123.493437,198 121.477265,199.022069 116.013207,203.638611 C111.884405,207.127006 109.763766,208.707928 106.387672,210.419391 C101.724385,212.783377 96.5816205,214 90.622083,214 C84.6626586,214 79.5199784,212.783386 74.8567651,210.419421 C71.4807191,208.707971 69.3600624,207.127024 65.2313785,203.638696 C59.7672898,199.022084 57.7510935,198 52.7478123,198 C47.7445306,198 45.7283587,199.022069 40.264301,203.638611 C36.1354988,207.127006 34.0148601,208.707928 30.6387656,210.419391 C25.9754788,212.783377 20.8327143,214 14.8731769,214 C8.91375339,214 3.77107715,212.783351 -0.892117387,210.41932 C-4.26812502,208.707836 -6.38869664,207.126903 -10.5173629,203.638489 C-15.9811278,199.022016 -17.9971179,198 -23,198 Z" id="Page-1" fill="url(#linearGradient-5)" fill-rule="nonzero" style="mix-blend-mode: multiply;" mask="url(#mask-3)"></path>
                <path d="M-23,232 L-23,212 C-17.0405765,212 -11.8979003,213.216649 -7.23470572,215.58068 C-3.85869808,217.292164 -1.73812647,218.873097 2.39053983,222.361511 C7.85430468,226.977984 9.87029476,228 14.8731769,228 C19.8764585,228 21.8926305,226.977931 27.3566882,222.361389 C31.4854904,218.872994 33.6061291,217.292072 36.9822235,215.580609 C41.6455103,213.216623 46.7882749,212 52.7478123,212 C58.7073521,212 63.85012,213.216625 68.5134022,215.580613 C71.8895073,217.292084 74.0101994,218.873054 78.138927,222.361419 C83.6029235,226.977954 85.6190352,228 90.622083,228 C95.6253647,228 97.6415366,226.977931 103.105594,222.361389 C107.234397,218.872994 109.355035,217.292072 112.73113,215.580609 C117.394416,213.216623 122.537181,212 128.496718,212 C134.456261,212 139.599032,213.216626 144.26231,215.580616 C147.638425,217.292096 149.759171,218.873114 153.887824,222.36145 C159.351759,226.977977 161.367811,228 166.370625,228 C171.374305,228 173.390707,226.977849 178.854846,222.361327 C182.983821,218.872854 185.104563,217.291894 188.480648,215.580478 C193.14388,213.216578 198.286564,212 204.245989,212 C210.205759,212 215.348707,213.216574 220.012169,215.580476 C223.388459,217.291912 225.509338,218.872908 229.638263,222.361205 C235.102784,226.977872 237.119199,228 242.122812,228 C247.126893,228 249.143453,226.977811 254.60799,222.361174 C258.737083,218.87277 260.857874,217.291845 264.234093,215.580439 C268.897491,213.216562 274.040348,212 280,212 L280,232 C274.996153,232 272.979678,233.022152 267.515232,237.63871 C263.386096,241.127152 261.26527,242.7081 257.888991,244.419527 C253.225524,246.783427 248.08258,248 242.122812,248 C236.163273,248 231.020501,246.783448 226.357176,244.419592 C222.981005,242.708198 220.860196,241.127249 216.731359,237.639026 C211.266653,233.022204 209.250069,232 204.245989,232 C199.242776,232 197.226542,233.022076 191.762588,237.638442 C187.633525,241.126989 185.512713,242.707996 182.13651,244.419454 C177.47314,246.7834 172.330281,248 166.370625,248 C160.411313,248 155.268717,246.783396 150.605578,244.419451 C147.22958,242.708014 145.108905,241.127043 140.98034,237.638781 C135.51622,233.022098 133.499999,232 128.496718,232 C123.493437,232 121.477265,233.022069 116.013207,237.638611 C111.884405,241.127006 109.763766,242.707928 106.387672,244.419391 C101.724385,246.783377 96.5816205,248 90.622083,248 C84.6626586,248 79.5199784,246.783386 74.8567651,244.419421 C71.4807191,242.707971 69.3600624,241.127024 65.2313785,237.638696 C59.7672898,233.022084 57.7510935,232 52.7478123,232 C47.7445306,232 45.7283587,233.022069 40.264301,237.638611 C36.1354988,241.127006 34.0148601,242.707928 30.6387656,244.419391 C25.9754788,246.783377 20.8327143,248 14.8731769,248 C8.91375339,248 3.77107715,246.783351 -0.892117387,244.41932 C-4.26812502,242.707836 -6.38869664,241.126903 -10.5173629,237.638489 C-15.9811278,233.022016 -17.9971179,232 -23,232 Z" id="Page-1-Copy" fill="url(#linearGradient-5)" fill-rule="nonzero" style="mix-blend-mode: multiply;" mask="url(#mask-3)"></path>
            </g>
        </g>
    </g>
</svg>