<svg id="Layer_1" data-name="Layer 1" xmlns="http://www.w3.org/2000/svg" viewBox="0 0 256 256"><defs><style>.cls-1{fill:#ff1200;}.cls-2{fill:#fff;}</style></defs><title>icon</title><rect class="cls-1" width="256" height="256"/><path class="cls-2" d="M160.51,61.92c-2.57-6.81-5-13.24-3.47-16.35a3,3,0,0,0-4.2-3.91A80.94,80.94,0,0,0,137.44,54c-10.22,10.43-15.62,22-15.62,33.38,0,16.25-1.34,44.56-1.36,44.84,0,0,0,.08,0,.12a3,3,0,0,0,0,.41c0,.08.23.15.25.23s.24.08.24.13v23.21c-3-5.33-5.62-10.84-8.55-14-12.3-13.15-30.73-18.67-31.5-18.9a3.08,3.08,0,0,0-3.56,1.47,3,3,0,0,0,.73,3.72c1.47,1.2,1.77,5.8,2.07,10.25.56,8.28,1.26,18.58,8.78,26.09,8.47,8.47,19.61,10.17,27,10.17,1.85,0,3-.11,5-.24v36.86a3,3,0,0,0,6,0V134.62c7-2.2,29.65-10.49,38-32.94C170.33,87.36,164.79,73.25,160.51,61.92ZM93.2,160.73c-5.92-5.92-6.52-14.6-7-22.26-.17-2.47-.33-4.8-.67-6.9,6.12,2.62,15.44,7.45,22.36,14.85,4.08,4.36,8.9,15.72,11.49,22.54C113.53,169.44,101.63,169.16,93.2,160.73Zm66-61.15c-5.94,16-20.47,24-29.25,27.49,5.28-9.79,14-28.1,14-41.83a3,3,0,0,0-6,0c0,10.51-6,24.65-10.93,34.37.38-9.72.82-22.94.82-32.26,0-17.44,14.82-30.94,22.91-37C151.26,54.4,153,59,154.9,64,158.82,74.43,163.71,87.37,159.16,99.59Z"/></svg>