<svg id="svg" version="1.1" width="400" height="400" viewBox="0 0 400 400" xmlns="http://www.w3.org/2000/svg" xmlns:xlink="http://www.w3.org/1999/xlink" ><g id="svgg"><path id="path0" d="M0.000 200.000 L 0.000 400.000 200.000 400.000 L 400.000 400.000 400.000 200.000 L 400.000 0.000 200.000 0.000 L 0.000 0.000 0.000 200.000 M229.326 92.954 C 232.870 93.328,235.882 93.896,237.726 94.537 C 241.711 95.924,244.212 96.647,246.904 97.192 C 248.250 97.464,249.710 98.081,250.415 98.674 C 251.079 99.233,252.382 99.854,253.311 100.055 C 256.543 100.754,259.206 102.051,259.811 103.221 C 260.514 104.582,262.169 105.444,265.595 106.236 C 268.185 106.834,269.904 107.926,270.753 109.511 C 270.996 109.966,272.173 110.898,273.369 111.582 C 274.564 112.266,275.600 112.955,275.671 113.113 C 275.742 113.271,277.432 114.624,279.427 116.119 C 286.154 121.162,287.567 126.106,283.889 131.720 C 283.510 132.299,283.200 132.929,283.200 133.120 C 283.200 133.692,279.912 136.495,278.335 137.267 C 277.529 137.662,276.496 138.483,276.039 139.092 C 275.582 139.702,275.033 140.411,274.818 140.669 C 274.603 140.927,273.386 141.342,272.113 141.592 C 270.841 141.841,269.320 142.231,268.733 142.457 C 267.097 143.090,265.029 141.914,263.430 139.443 C 261.470 136.412,256.168 132.904,251.310 131.424 C 250.237 131.097,248.933 129.359,248.740 127.999 C 248.618 127.137,248.329 126.970,246.510 126.709 C 245.317 126.538,243.131 125.722,241.413 124.807 C 239.759 123.926,237.169 122.862,235.658 122.443 C 234.147 122.024,231.882 120.998,230.624 120.163 C 228.433 118.709,228.150 118.632,223.869 118.344 C 221.411 118.178,217.420 117.866,215.000 117.651 C 208.809 117.100,203.063 117.169,199.874 117.833 C 198.374 118.145,195.494 118.404,193.474 118.410 C 187.771 118.425,183.956 119.742,183.361 121.900 C 183.124 122.761,180.933 123.168,178.435 122.815 C 177.826 122.729,176.172 123.463,175.200 124.252 C 174.870 124.520,173.573 125.123,172.318 125.591 C 171.063 126.060,169.443 127.021,168.718 127.727 C 166.220 130.158,162.594 133.055,160.400 134.373 C 159.190 135.100,157.101 136.708,155.759 137.947 C 154.416 139.186,152.849 140.517,152.277 140.905 C 151.704 141.293,150.580 142.598,149.779 143.805 C 148.978 145.012,148.163 146.000,147.969 146.000 C 147.775 146.000,147.266 146.688,146.837 147.528 C 146.408 148.368,145.417 149.822,144.634 150.760 C 143.851 151.697,142.769 153.343,142.229 154.418 C 141.689 155.493,140.550 157.323,139.698 158.486 C 138.682 159.872,137.744 161.906,136.974 164.396 C 136.308 166.550,135.277 168.885,134.590 169.796 C 132.290 172.843,131.600 174.360,131.600 176.368 C 131.600 178.349,131.302 180.161,130.181 185.000 C 127.788 195.323,127.804 204.603,130.233 214.693 C 130.774 216.944,131.469 220.544,131.776 222.693 C 132.358 226.764,133.203 229.329,134.144 229.878 C 134.994 230.374,136.294 233.213,137.050 236.224 C 137.497 238.004,138.345 239.837,139.502 241.528 C 140.475 242.949,141.911 245.302,142.694 246.756 C 143.476 248.210,144.540 249.796,145.058 250.281 C 145.576 250.765,146.000 251.432,146.000 251.762 C 146.000 252.383,148.921 255.754,151.910 258.582 C 152.851 259.472,155.161 261.693,157.044 263.518 C 158.927 265.342,161.330 267.322,162.384 267.918 C 165.532 269.696,167.541 271.142,167.967 271.939 C 168.188 272.351,169.411 273.204,170.684 273.835 C 171.958 274.465,173.540 275.497,174.200 276.129 C 175.632 277.500,176.797 278.000,178.558 278.000 C 179.284 278.000,181.450 278.771,183.432 279.735 C 190.365 283.106,196.535 284.054,211.292 284.013 C 224.971 283.976,231.382 283.312,235.600 281.496 C 238.067 280.434,242.251 279.600,245.112 279.600 L 247.894 279.600 248.945 278.011 C 250.199 276.117,251.628 275.311,254.710 274.759 C 257.235 274.308,259.548 273.615,260.265 273.097 C 260.601 272.853,260.743 268.716,260.781 258.080 C 260.845 239.832,260.895 241.317,260.172 240.214 C 259.727 239.535,259.631 238.755,259.817 237.341 C 260.042 235.636,259.959 235.297,259.136 234.550 C 257.845 233.378,252.231 232.964,250.533 233.916 C 249.298 234.608,225.590 234.687,223.826 234.004 C 221.294 233.024,219.854 230.391,220.136 227.255 C 220.248 226.015,220.514 222.480,220.728 219.400 C 221.122 213.730,221.992 209.636,222.977 208.819 C 223.357 208.504,231.296 208.311,249.858 208.166 C 264.346 208.053,277.550 207.938,279.200 207.911 C 282.917 207.850,284.666 208.411,286.429 210.230 L 287.800 211.644 287.800 249.353 L 287.800 287.062 286.618 288.631 C 285.968 289.494,285.158 290.407,284.818 290.659 C 284.478 290.911,283.750 291.514,283.200 291.999 C 281.119 293.832,277.926 295.700,276.883 295.693 C 275.751 295.687,274.080 296.335,269.400 298.597 C 267.860 299.341,266.060 300.060,265.400 300.194 C 263.413 300.597,258.822 302.435,258.500 302.957 C 257.623 304.380,255.130 305.277,251.094 305.623 C 245.836 306.073,244.212 306.351,242.441 307.100 C 240.023 308.123,234.755 309.123,230.164 309.430 C 227.767 309.591,225.257 309.951,224.586 310.232 C 222.080 311.279,202.519 311.456,200.315 310.452 C 198.779 309.753,197.679 309.600,194.179 309.600 C 189.846 309.600,186.125 308.979,181.945 307.557 C 180.704 307.135,177.911 306.620,175.737 306.413 C 171.426 306.002,168.510 304.975,167.303 303.441 C 166.488 302.404,164.268 301.180,161.800 300.407 C 159.697 299.748,154.223 296.689,149.505 293.534 C 148.242 292.691,146.843 292.000,146.396 292.000 C 145.650 292.000,144.074 290.645,137.629 284.461 C 135.393 282.315,132.820 280.400,131.485 279.888 C 131.092 279.737,130.462 279.026,130.085 278.307 C 129.708 277.588,128.567 276.190,127.549 275.200 C 126.531 274.210,125.423 272.860,125.087 272.200 C 124.323 270.699,122.848 269.325,121.800 269.136 C 121.254 269.038,120.325 267.720,118.877 264.995 C 117.408 262.229,116.345 260.730,115.427 260.128 C 113.931 259.147,112.571 256.645,112.066 253.942 C 111.880 252.943,111.068 251.059,110.263 249.755 C 109.459 248.451,108.798 247.118,108.796 246.792 C 108.794 246.466,108.352 245.255,107.814 244.099 C 107.276 242.943,106.718 241.323,106.574 240.499 C 106.431 239.675,105.628 237.380,104.792 235.400 C 103.629 232.647,103.224 231.079,103.069 228.736 C 102.958 227.052,102.653 225.273,102.392 224.785 C 101.935 223.931,100.772 219.014,99.935 214.400 C 99.276 210.766,99.708 186.522,100.462 184.800 C 101.053 183.452,101.795 180.290,102.809 174.800 C 103.074 173.370,103.788 170.400,104.397 168.200 C 105.006 166.000,105.725 163.248,105.996 162.085 C 106.625 159.374,107.766 157.024,109.452 154.964 C 110.232 154.011,111.223 152.007,111.824 150.166 C 113.000 146.561,114.002 144.771,115.502 143.591 C 116.833 142.544,118.196 140.523,118.554 139.067 C 118.860 137.817,120.714 134.680,121.275 134.462 C 122.219 134.094,124.115 132.147,124.790 130.850 C 125.206 130.052,125.968 128.950,126.484 128.400 C 127.000 127.850,127.812 126.847,128.289 126.170 C 128.765 125.494,129.859 124.452,130.719 123.856 C 131.579 123.260,132.848 121.901,133.537 120.837 C 134.368 119.555,135.772 118.248,137.696 116.965 C 139.293 115.900,141.731 113.988,143.113 112.716 C 144.495 111.444,146.335 110.041,147.202 109.599 C 148.069 109.157,149.371 108.274,150.096 107.637 C 150.822 107.001,152.762 105.884,154.407 105.156 C 156.053 104.429,157.516 103.666,157.658 103.461 C 157.800 103.256,159.690 102.465,161.858 101.703 C 164.026 100.941,166.970 99.893,168.400 99.376 C 169.830 98.858,171.578 98.426,172.284 98.417 C 173.035 98.407,173.878 98.068,174.312 97.602 C 174.725 97.159,176.381 96.465,178.038 96.041 C 179.679 95.622,181.647 94.923,182.411 94.489 C 186.464 92.187,213.639 91.298,229.326 92.954 " stroke="none" fill="#8cc33c" fill-rule="evenodd"></path><path id="path1" d="M200.000 94.735 C 199.670 94.918,197.060 95.286,194.200 95.553 C 191.340 95.819,188.460 96.208,187.800 96.416 C 186.629 96.785,184.267 97.406,179.400 98.624 C 174.249 99.913,160.347 105.620,158.000 107.408 C 157.670 107.660,156.410 108.370,155.200 108.986 C 153.990 109.602,152.616 110.398,152.146 110.753 C 151.677 111.109,150.957 111.620,150.546 111.888 C 150.136 112.157,148.900 113.012,147.800 113.789 C 146.700 114.565,145.170 115.626,144.400 116.145 C 143.630 116.665,142.074 117.925,140.941 118.945 C 139.809 119.965,138.799 120.800,138.696 120.800 C 138.460 120.800,130.203 128.998,128.600 130.825 C 126.677 133.015,125.046 135.026,124.400 136.004 C 124.070 136.503,123.125 137.781,122.300 138.844 C 121.475 139.907,120.800 140.934,120.800 141.126 C 120.800 141.319,120.440 141.802,120.000 142.200 C 119.560 142.598,119.200 143.088,119.200 143.289 C 119.200 143.489,118.750 144.243,118.200 144.964 C 117.650 145.686,117.200 146.443,117.200 146.647 C 117.200 146.851,116.570 147.975,115.800 149.144 C 115.030 150.313,114.400 151.500,114.400 151.781 C 114.400 152.062,114.040 152.750,113.600 153.309 C 113.160 153.869,112.794 154.478,112.786 154.663 C 112.779 154.848,112.425 155.720,112.000 156.600 C 111.575 157.480,111.221 158.366,111.214 158.569 C 111.206 158.771,110.966 159.221,110.681 159.569 C 110.395 159.916,109.559 162.090,108.823 164.400 C 108.087 166.710,107.350 168.780,107.186 169.000 C 107.021 169.220,106.667 170.469,106.399 171.776 C 106.131 173.083,105.757 174.433,105.568 174.776 C 105.023 175.764,103.620 183.817,103.192 188.409 C 101.827 203.063,101.824 201.671,103.253 215.200 C 103.644 218.903,104.260 222.108,106.178 230.412 C 106.459 231.629,106.984 233.195,107.344 233.892 C 107.705 234.590,108.001 235.484,108.002 235.880 C 108.004 236.276,108.257 237.083,108.565 237.673 C 108.873 238.263,109.254 239.343,109.412 240.073 C 109.571 240.803,110.031 242.030,110.435 242.800 C 110.839 243.570,111.516 245.010,111.939 246.000 C 113.249 249.063,113.584 249.748,114.582 251.400 C 115.113 252.280,116.006 253.841,116.565 254.869 C 117.618 256.805,119.158 259.225,120.200 260.581 C 120.530 261.011,120.800 261.587,120.800 261.861 C 120.800 262.136,121.033 262.504,121.317 262.680 C 121.602 262.856,123.139 264.748,124.734 266.885 C 127.757 270.936,136.748 280.326,140.195 283.033 C 141.293 283.895,142.495 284.870,142.867 285.200 C 144.062 286.261,144.632 286.682,145.507 287.150 C 145.978 287.402,147.535 288.507,148.967 289.604 C 150.399 290.702,151.713 291.603,151.885 291.607 C 152.058 291.611,153.010 292.164,154.000 292.835 C 154.990 293.507,157.277 294.768,159.083 295.639 C 160.889 296.509,162.474 297.397,162.607 297.611 C 162.739 297.825,163.242 298.001,163.724 298.001 C 164.206 298.002,165.140 298.321,165.800 298.709 C 167.337 299.613,170.920 301.029,173.083 301.587 C 174.009 301.826,174.874 302.197,175.007 302.411 C 175.139 302.625,175.590 302.800,176.010 302.800 C 176.429 302.800,177.633 303.097,178.686 303.459 C 179.739 303.821,181.680 304.350,183.000 304.634 C 184.320 304.918,186.210 305.337,187.200 305.564 C 197.044 307.829,218.938 308.668,226.200 307.059 C 227.740 306.718,230.710 306.241,232.800 305.999 C 234.890 305.758,236.960 305.409,237.400 305.225 C 237.840 305.040,240.540 304.406,243.400 303.815 C 246.260 303.224,249.140 302.488,249.800 302.179 C 250.460 301.871,251.720 301.441,252.600 301.224 C 256.228 300.329,259.024 299.497,259.400 299.199 C 259.620 299.025,261.240 298.392,263.000 297.793 C 264.760 297.195,267.190 296.256,268.400 295.708 C 269.610 295.159,271.410 294.358,272.400 293.927 C 273.390 293.496,274.470 292.976,274.800 292.771 C 275.130 292.566,276.536 291.856,277.923 291.193 C 280.629 289.900,280.994 289.656,283.009 287.780 C 284.871 286.047,284.870 286.065,284.726 247.507 L 284.600 213.615 283.293 212.307 L 281.985 211.000 256.293 210.876 C 228.902 210.743,225.704 210.853,225.299 211.935 C 225.162 212.301,224.768 212.810,224.425 213.067 C 223.428 213.813,223.497 228.685,224.500 229.247 C 224.885 229.463,225.200 229.880,225.200 230.173 C 225.200 231.108,226.666 231.189,243.650 231.195 C 262.968 231.201,262.642 231.168,263.192 233.149 C 263.631 234.728,263.766 269.160,263.347 272.646 L 263.101 274.693 260.395 275.946 C 258.907 276.636,257.490 277.200,257.245 277.200 C 257.000 277.200,256.800 277.373,256.800 277.585 C 256.800 277.796,256.056 278.169,255.147 278.414 C 254.238 278.659,253.203 279.018,252.847 279.211 C 251.168 280.125,248.240 281.177,246.187 281.603 C 244.943 281.861,243.317 282.326,242.575 282.636 C 241.833 282.946,240.630 283.200,239.902 283.200 C 239.174 283.200,238.223 283.448,237.789 283.751 C 237.355 284.053,235.830 284.427,234.400 284.580 C 232.970 284.734,230.810 285.114,229.600 285.425 C 221.178 287.590,199.433 287.575,192.400 285.399 C 191.410 285.093,189.700 284.718,188.600 284.566 C 187.500 284.414,186.245 284.045,185.811 283.745 C 185.377 283.445,184.654 283.200,184.205 283.200 C 183.756 283.200,182.716 282.840,181.896 282.400 C 181.075 281.960,180.208 281.600,179.971 281.600 C 179.008 281.600,172.397 278.504,169.400 276.649 C 167.640 275.560,165.555 274.293,164.767 273.834 C 163.337 273.002,160.321 270.867,159.217 269.907 C 158.897 269.628,157.625 268.590,156.392 267.600 C 153.075 264.937,148.715 260.425,144.797 255.600 C 143.815 254.390,142.913 253.310,142.792 253.200 C 142.672 253.090,141.956 252.010,141.200 250.800 C 140.444 249.590,139.720 248.510,139.591 248.400 C 139.462 248.290,138.503 246.670,137.460 244.800 C 136.417 242.930,135.392 241.130,135.181 240.800 C 134.970 240.470,134.617 239.750,134.396 239.200 C 134.175 238.650,133.726 237.722,133.397 237.138 C 133.069 236.554,132.800 235.832,132.800 235.532 C 132.800 235.233,132.440 234.316,132.000 233.496 C 131.560 232.675,131.200 231.775,131.200 231.496 C 131.200 231.216,130.866 230.361,130.459 229.594 C 130.051 228.827,129.585 227.480,129.423 226.600 C 129.261 225.720,128.988 224.820,128.817 224.600 C 128.646 224.380,128.281 222.940,128.008 221.400 C 127.734 219.860,127.270 217.790,126.978 216.800 C 125.058 210.306,124.978 190.462,126.846 184.000 C 127.068 183.230,127.585 181.160,127.993 179.400 C 129.104 174.615,129.763 172.290,130.259 171.400 C 130.505 170.960,130.837 169.970,130.997 169.200 C 131.158 168.430,131.516 167.530,131.794 167.200 C 132.072 166.870,132.527 165.880,132.806 165.000 C 134.020 161.163,140.058 150.629,142.800 147.560 C 143.130 147.191,144.210 145.781,145.200 144.426 C 147.255 141.614,156.162 132.813,158.352 131.431 C 159.155 130.924,160.056 130.214,160.355 129.854 C 160.654 129.494,161.131 129.200,161.416 129.200 C 161.700 129.200,161.993 129.065,162.067 128.900 C 162.190 128.623,163.622 127.637,166.600 125.780 C 169.282 124.107,176.007 120.816,179.200 119.614 C 181.070 118.910,183.140 118.090,183.800 117.792 C 184.460 117.494,185.808 117.126,186.795 116.974 C 187.782 116.822,189.222 116.476,189.995 116.205 C 190.768 115.934,192.480 115.581,193.800 115.421 C 195.120 115.261,197.280 114.879,198.600 114.571 C 201.492 113.897,213.828 113.800,217.400 114.423 C 218.720 114.653,221.255 115.089,223.033 115.391 C 228.763 116.364,240.382 120.504,245.679 123.461 C 246.932 124.160,248.372 124.862,248.879 125.020 C 249.385 125.178,249.890 125.425,250.000 125.568 C 250.181 125.803,254.041 128.417,255.658 129.400 C 257.547 130.547,261.051 132.996,261.407 133.416 C 261.630 133.681,262.530 134.380,263.407 134.971 C 264.283 135.561,265.644 136.651,266.432 137.391 C 268.993 139.800,271.694 139.611,274.119 136.853 C 274.384 136.552,275.950 134.944,277.600 133.280 C 284.799 126.016,284.751 124.612,277.093 118.549 C 272.945 115.265,269.970 113.057,269.409 112.846 C 269.184 112.762,268.252 112.089,267.338 111.351 C 266.425 110.613,265.255 109.824,264.738 109.598 C 264.222 109.372,262.810 108.636,261.600 107.962 C 257.927 105.918,252.563 103.200,252.203 103.200 C 252.016 103.200,251.579 102.948,251.231 102.640 C 250.884 102.332,249.970 101.892,249.200 101.662 C 248.430 101.433,246.360 100.723,244.600 100.086 C 242.840 99.448,240.680 98.792,239.800 98.627 C 238.920 98.463,237.987 98.153,237.727 97.938 C 237.467 97.723,236.207 97.389,234.927 97.196 C 233.647 97.002,231.340 96.577,229.800 96.250 C 223.244 94.857,201.748 93.764,200.000 94.735 " stroke="none" fill="#3b474a" fill-rule="evenodd"></path><path id="path2" d="M198.600 93.462 C 197.940 93.540,195.780 93.869,193.800 94.193 C 191.820 94.518,189.660 94.861,189.000 94.957 C 186.203 95.361,179.716 96.930,178.720 97.444 C 178.126 97.750,177.349 98.000,176.994 98.000 C 176.639 98.000,175.505 98.335,174.474 98.745 C 173.443 99.155,171.520 99.884,170.200 100.365 C 168.880 100.846,167.080 101.583,166.200 102.003 C 165.320 102.423,164.105 102.884,163.500 103.027 C 162.895 103.170,162.400 103.428,162.400 103.600 C 162.400 103.772,161.926 104.032,161.346 104.178 C 160.490 104.393,156.417 106.648,150.606 110.125 C 150.169 110.386,149.574 110.915,149.283 111.300 C 148.993 111.685,148.517 112.000,148.225 112.000 C 147.729 112.000,146.756 112.689,140.489 117.480 C 137.647 119.653,128.542 128.773,126.193 131.800 C 125.339 132.900,124.381 134.019,124.064 134.286 C 123.746 134.553,123.197 135.201,122.843 135.726 C 119.790 140.256,118.400 142.466,118.400 142.790 C 118.400 143.000,118.040 143.365,117.600 143.600 C 117.160 143.835,116.800 144.325,116.800 144.688 C 116.800 145.051,116.449 145.722,116.021 146.178 C 114.817 147.459,108.808 159.807,108.787 161.042 C 108.780 161.459,108.510 162.149,108.187 162.576 C 107.864 163.004,107.600 163.704,107.600 164.133 C 107.600 164.561,107.267 165.652,106.860 166.556 C 105.335 169.941,104.566 172.834,102.119 184.400 C 101.082 189.302,101.049 214.236,102.076 217.600 C 102.445 218.810,102.869 220.970,103.018 222.400 C 103.167 223.830,103.428 225.180,103.597 225.400 C 103.767 225.620,103.989 226.430,104.092 227.200 C 104.357 229.185,107.544 239.361,108.356 240.813 C 108.544 241.150,108.823 241.993,108.975 242.685 C 109.127 243.378,109.510 244.159,109.826 244.421 C 110.142 244.683,110.400 245.102,110.400 245.352 C 110.400 245.910,114.028 253.205,115.397 255.400 C 115.946 256.280,116.520 257.270,116.672 257.600 C 116.825 257.930,117.525 259.023,118.228 260.029 C 118.931 261.035,119.787 262.402,120.131 263.066 C 120.703 264.172,122.971 267.039,127.329 272.166 C 129.430 274.639,136.168 281.382,138.239 283.084 C 141.345 285.638,143.115 287.022,144.785 288.200 C 145.721 288.860,146.823 289.711,147.235 290.092 C 147.647 290.473,148.994 291.373,150.228 292.092 C 151.462 292.811,153.130 293.790,153.936 294.266 C 156.026 295.503,165.395 300.111,168.000 301.183 C 172.066 302.858,172.589 303.048,176.000 304.100 C 181.367 305.755,185.330 306.803,186.216 306.801 C 186.665 306.801,188.105 307.084,189.416 307.431 C 197.000 309.439,224.696 309.453,232.400 307.454 C 233.610 307.140,235.770 306.760,237.200 306.609 C 238.630 306.459,240.700 306.088,241.800 305.784 C 242.900 305.480,245.600 304.756,247.800 304.174 C 252.228 303.004,260.700 300.267,262.660 299.374 C 263.354 299.058,264.128 298.800,264.381 298.800 C 264.634 298.800,265.507 298.462,266.321 298.048 C 267.796 297.299,268.812 296.841,272.600 295.222 C 273.700 294.752,275.320 293.997,276.200 293.544 C 277.080 293.091,278.830 292.190,280.088 291.541 C 283.415 289.825,285.892 287.209,286.196 285.092 C 286.330 284.161,286.385 267.727,286.319 248.570 L 286.200 213.741 285.244 212.345 C 283.102 209.221,284.952 209.410,255.686 209.313 C 226.802 209.217,226.202 209.257,224.090 211.432 C 221.133 214.477,221.014 227.721,223.914 230.926 C 225.618 232.808,225.795 232.825,243.824 232.809 C 255.097 232.799,261.108 232.937,261.634 233.218 C 262.410 233.633,262.427 234.075,262.380 252.340 C 262.323 274.581,262.461 273.467,259.588 274.860 C 255.282 276.946,252.841 278.000,252.314 278.000 C 252.019 278.000,251.423 278.244,250.989 278.543 C 250.555 278.842,249.480 279.215,248.600 279.373 C 247.720 279.530,246.636 279.893,246.191 280.179 C 245.746 280.465,244.576 280.833,243.591 280.997 C 242.606 281.161,241.350 281.518,240.800 281.792 C 240.250 282.065,238.990 282.408,238.000 282.554 C 237.010 282.700,235.030 283.071,233.600 283.380 C 230.918 283.959,226.932 284.611,222.400 285.214 C 218.804 285.691,201.486 285.682,198.800 285.202 C 196.827 284.848,190.039 283.399,185.800 282.426 C 184.920 282.224,183.660 281.777,183.000 281.432 C 182.340 281.087,181.489 280.804,181.110 280.802 C 180.730 280.801,179.830 280.441,179.110 280.001 C 178.389 279.562,177.406 279.202,176.924 279.201 C 176.442 279.201,175.934 279.017,175.796 278.794 C 175.658 278.571,174.973 278.120,174.273 277.793 C 170.145 275.865,163.120 271.393,159.736 268.540 C 158.601 267.583,157.582 266.800,157.471 266.800 C 156.932 266.800,146.000 255.475,146.000 254.916 C 146.000 254.803,145.541 254.145,144.979 253.455 C 142.040 249.841,141.200 248.679,141.200 248.224 C 141.200 247.949,140.885 247.439,140.500 247.090 C 140.115 246.741,139.260 245.408,138.600 244.128 C 137.940 242.847,137.304 241.710,137.186 241.600 C 137.069 241.490,136.369 240.140,135.632 238.600 C 134.896 237.060,134.137 235.487,133.946 235.105 C 132.339 231.882,129.741 223.222,128.574 217.200 C 128.255 215.550,127.780 213.570,127.519 212.800 C 126.871 210.888,126.828 188.333,127.470 187.550 C 127.718 187.247,128.135 185.583,128.395 183.852 C 128.656 182.121,129.124 179.983,129.435 179.102 C 129.746 178.221,130.006 177.027,130.014 176.450 C 130.021 175.872,130.375 174.680,130.800 173.800 C 131.225 172.920,131.579 171.877,131.586 171.482 C 131.594 171.086,132.230 169.417,133.000 167.773 C 133.770 166.128,134.400 164.649,134.400 164.485 C 134.400 164.183,134.708 163.577,137.392 158.600 C 138.223 157.060,139.161 155.309,139.477 154.708 C 139.792 154.107,140.222 153.510,140.431 153.381 C 140.640 153.252,141.176 152.430,141.622 151.556 C 142.068 150.682,142.741 149.652,143.117 149.267 C 144.241 148.115,146.645 145.057,147.100 144.200 C 147.947 142.601,158.265 132.800,159.100 132.800 C 159.293 132.800,159.979 132.241,160.625 131.557 C 161.271 130.874,162.745 129.777,163.900 129.119 C 165.055 128.462,166.000 127.800,166.000 127.650 C 166.000 127.499,166.495 127.153,167.100 126.880 C 167.705 126.608,168.920 125.943,169.800 125.402 C 171.555 124.324,173.072 123.600,173.577 123.600 C 173.756 123.600,174.117 123.342,174.379 123.026 C 174.641 122.710,175.428 122.332,176.128 122.186 C 176.827 122.041,177.772 121.687,178.226 121.400 C 178.680 121.113,179.670 120.693,180.426 120.467 C 181.182 120.240,183.330 119.525,185.200 118.878 C 187.070 118.230,189.230 117.597,190.000 117.471 C 190.770 117.344,192.660 116.971,194.200 116.640 C 204.880 114.349,220.552 115.315,230.800 118.897 C 232.670 119.550,235.031 120.320,236.047 120.606 C 237.063 120.893,238.233 121.316,238.647 121.546 C 239.061 121.776,241.290 122.886,243.600 124.013 C 245.910 125.140,248.520 126.494,249.400 127.021 C 250.280 127.549,251.395 128.157,251.878 128.372 C 252.361 128.588,253.711 129.437,254.878 130.259 C 256.045 131.081,257.765 132.272,258.700 132.905 C 259.635 133.539,260.400 134.224,260.400 134.428 C 260.400 134.633,260.634 134.800,260.919 134.800 C 261.205 134.800,262.060 135.424,262.819 136.187 C 263.579 136.950,264.362 137.580,264.560 137.587 C 264.757 137.594,265.523 138.222,266.262 138.982 C 268.643 141.435,271.585 141.374,273.973 138.824 C 277.241 135.335,278.067 134.488,280.433 132.200 C 285.904 126.911,285.445 123.675,278.400 117.861 C 275.942 115.832,273.529 113.998,272.000 112.996 C 271.010 112.348,269.480 111.249,268.600 110.555 C 267.720 109.861,266.010 108.786,264.800 108.167 C 263.590 107.547,262.510 106.917,262.400 106.767 C 262.290 106.616,261.120 105.956,259.800 105.299 C 252.858 101.845,251.475 101.200,251.008 101.200 C 250.727 101.200,250.293 100.952,250.041 100.650 C 249.790 100.347,248.856 99.983,247.964 99.841 C 247.073 99.698,245.951 99.326,245.472 99.013 C 244.992 98.701,243.880 98.267,243.000 98.050 C 242.120 97.832,240.680 97.380,239.800 97.045 C 238.920 96.710,237.737 96.427,237.171 96.418 C 236.605 96.408,235.345 96.135,234.371 95.810 C 228.501 93.855,207.139 92.453,198.600 93.462 M223.800 94.631 C 244.108 97.266,260.909 104.654,278.109 118.511 C 282.995 122.448,283.200 122.748,283.200 125.971 L 283.200 128.563 279.794 131.931 C 277.920 133.784,275.982 135.772,275.485 136.350 C 271.362 141.150,269.960 141.129,263.734 136.176 C 261.350 134.279,259.130 132.517,258.800 132.261 C 255.697 129.849,250.385 126.586,245.908 124.341 C 228.423 115.577,213.838 112.987,196.600 115.585 C 186.817 117.060,173.603 121.822,167.538 126.058 C 166.954 126.466,166.367 126.800,166.234 126.800 C 166.101 126.800,165.139 127.400,164.096 128.133 C 144.988 141.569,132.610 160.034,128.165 181.734 C 127.857 183.238,127.499 184.639,127.370 184.848 C 125.954 187.140,126.003 209.349,127.438 215.600 C 127.767 217.030,128.325 219.460,128.680 221.000 C 130.087 227.117,133.711 236.919,135.998 240.797 C 136.710 242.005,137.456 243.355,137.655 243.797 C 137.853 244.239,138.550 245.410,139.202 246.400 C 139.854 247.390,140.513 248.470,140.666 248.800 C 140.931 249.370,143.408 252.837,144.767 254.541 C 150.711 261.994,158.082 268.659,166.600 274.283 C 168.911 275.809,178.253 280.529,180.600 281.356 C 185.519 283.090,187.749 283.672,197.200 285.692 C 200.029 286.296,219.899 286.287,224.000 285.679 C 232.766 284.380,239.491 283.030,241.514 282.163 C 242.236 281.853,243.102 281.600,243.437 281.600 C 246.361 281.600,262.058 274.928,262.460 273.514 C 262.913 271.923,262.843 233.628,262.386 232.774 C 261.986 232.027,261.368 232.000,244.836 232.000 C 225.342 232.000,225.620 232.026,224.123 230.064 L 223.024 228.623 223.012 221.182 L 223.000 213.741 224.200 212.313 C 224.860 211.528,225.803 210.773,226.296 210.636 C 226.991 210.443,259.197 210.290,279.036 210.386 C 282.424 210.403,284.497 211.620,285.189 214.000 C 285.751 215.935,285.746 283.659,285.183 285.685 C 284.461 288.287,277.788 292.652,269.606 295.877 C 268.173 296.442,266.280 297.214,265.400 297.593 C 262.830 298.700,256.004 301.092,253.400 301.798 C 252.080 302.156,250.640 302.607,250.200 302.799 C 249.148 303.258,240.060 305.439,237.000 305.966 C 223.920 308.219,224.848 308.141,210.800 308.171 C 201.530 308.191,196.537 308.042,194.600 307.689 C 187.284 306.352,180.367 304.840,177.975 304.055 C 173.432 302.562,169.594 301.197,168.200 300.577 C 167.320 300.185,165.790 299.517,164.800 299.091 C 144.046 290.163,124.346 271.835,114.186 252.001 C 113.739 251.128,113.154 250.194,112.886 249.926 C 112.619 249.659,112.399 249.161,112.399 248.820 C 112.398 248.479,111.795 247.004,111.059 245.543 C 108.218 239.903,104.957 229.131,103.205 219.600 C 100.917 207.150,101.262 189.123,103.995 178.400 C 104.191 177.630,104.647 175.830,105.008 174.400 C 105.651 171.850,108.118 164.177,108.803 162.600 C 108.994 162.160,109.275 161.350,109.428 160.800 C 109.825 159.372,114.906 149.137,115.936 147.690 C 116.411 147.023,116.800 146.337,116.800 146.168 C 116.800 145.735,121.474 138.623,122.657 137.254 C 122.969 136.894,124.343 135.163,125.712 133.406 C 129.257 128.856,135.995 121.976,140.200 118.614 C 144.342 115.301,148.262 112.400,148.595 112.400 C 148.721 112.400,149.734 111.680,150.848 110.800 C 151.961 109.920,153.039 109.200,153.243 109.200 C 153.447 109.200,154.936 108.397,156.552 107.416 C 160.393 105.084,171.806 100.005,173.211 100.001 C 173.547 100.001,174.177 99.753,174.611 99.451 C 175.045 99.149,176.030 98.774,176.800 98.617 C 177.570 98.460,179.604 97.897,181.321 97.366 C 183.037 96.835,184.984 96.400,185.647 96.400 C 186.310 96.400,187.166 96.232,187.550 96.027 C 188.247 95.653,199.048 94.151,203.200 93.849 C 207.236 93.556,218.941 94.000,223.800 94.631 " stroke="none" fill="#6b8a4d" fill-rule="evenodd"></path><path id="path3" d="M195.200 92.395 C 188.288 92.820,184.160 93.496,182.411 94.489 C 181.647 94.923,179.679 95.622,178.038 96.041 C 176.381 96.465,174.725 97.159,174.312 97.602 C 173.878 98.068,173.035 98.407,172.284 98.417 C 171.578 98.426,169.830 98.858,168.400 99.376 C 166.970 99.893,164.026 100.941,161.858 101.703 C 159.690 102.465,157.800 103.256,157.658 103.461 C 157.516 103.666,156.053 104.429,154.407 105.156 C 152.762 105.884,150.822 107.001,150.096 107.637 C 149.371 108.274,148.069 109.157,147.202 109.599 C 146.335 110.041,144.495 111.444,143.113 112.716 C 141.731 113.988,139.293 115.900,137.696 116.965 C 135.772 118.248,134.368 119.555,133.537 120.837 C 132.848 121.901,131.579 123.260,130.719 123.856 C 129.859 124.452,128.765 125.494,128.289 126.170 C 127.812 126.847,127.000 127.850,126.484 128.400 C 125.968 128.950,125.206 130.052,124.790 130.850 C 124.115 132.147,122.219 134.094,121.275 134.462 C 120.714 134.680,118.860 137.817,118.554 139.067 C 118.196 140.523,116.833 142.544,115.502 143.591 C 114.002 144.771,113.000 146.561,111.824 150.166 C 111.223 152.007,110.232 154.011,109.452 154.964 C 107.766 157.024,106.625 159.374,105.996 162.085 C 105.725 163.248,105.006 166.000,104.397 168.200 C 103.788 170.400,103.074 173.370,102.809 174.800 C 101.795 180.290,101.053 183.452,100.462 184.800 C 99.708 186.522,99.276 210.766,99.935 214.400 C 100.772 219.014,101.935 223.931,102.392 224.785 C 102.653 225.273,102.958 227.052,103.069 228.736 C 103.224 231.079,103.629 232.647,104.792 235.400 C 105.628 237.380,106.431 239.675,106.574 240.499 C 106.718 241.323,107.276 242.943,107.814 244.099 C 108.352 245.255,108.794 246.466,108.796 246.792 C 108.798 247.118,109.459 248.451,110.263 249.755 C 111.068 251.059,111.880 252.943,112.066 253.942 C 112.571 256.645,113.931 259.147,115.427 260.128 C 116.345 260.730,117.408 262.229,118.877 264.995 C 120.325 267.720,121.254 269.038,121.800 269.136 C 122.848 269.325,124.323 270.699,125.087 272.200 C 125.423 272.860,126.531 274.210,127.549 275.200 C 128.567 276.190,129.708 277.588,130.085 278.307 C 130.462 279.026,131.092 279.737,131.485 279.888 C 132.820 280.400,135.393 282.315,137.629 284.461 C 144.074 290.645,145.650 292.000,146.396 292.000 C 146.843 292.000,148.242 292.691,149.505 293.534 C 154.223 296.689,159.697 299.748,161.800 300.407 C 164.268 301.180,166.488 302.404,167.303 303.441 C 168.510 304.975,171.426 306.002,175.737 306.413 C 177.911 306.620,180.704 307.135,181.945 307.557 C 186.125 308.979,189.846 309.600,194.179 309.600 C 197.679 309.600,198.779 309.753,200.315 310.452 C 202.519 311.456,222.080 311.279,224.586 310.232 C 225.257 309.951,227.767 309.591,230.164 309.430 C 234.755 309.123,240.023 308.123,242.441 307.100 C 244.212 306.351,245.836 306.073,251.094 305.623 C 255.130 305.277,257.623 304.380,258.500 302.957 C 258.822 302.435,263.413 300.597,265.400 300.194 C 266.060 300.060,267.860 299.341,269.400 298.597 C 274.080 296.335,275.751 295.687,276.883 295.693 C 277.926 295.700,281.119 293.832,283.200 291.999 C 283.750 291.514,284.478 290.911,284.818 290.659 C 285.158 290.407,285.968 289.494,286.618 288.631 L 287.800 287.062 287.800 249.353 L 287.800 211.644 286.429 210.230 C 284.666 208.411,282.917 207.850,279.200 207.911 C 277.550 207.938,264.346 208.053,249.858 208.166 C 231.296 208.311,223.357 208.504,222.977 208.819 C 221.992 209.636,221.122 213.730,220.728 219.400 C 220.514 222.480,220.248 226.015,220.136 227.255 C 219.854 230.391,221.294 233.024,223.826 234.004 C 225.590 234.687,249.298 234.608,250.533 233.916 C 252.231 232.964,257.845 233.378,259.136 234.550 C 259.959 235.297,260.042 235.636,259.817 237.341 C 259.631 238.755,259.727 239.535,260.172 240.214 C 260.895 241.317,260.845 239.832,260.781 258.080 C 260.743 268.716,260.601 272.853,260.265 273.097 C 259.548 273.615,257.235 274.308,254.710 274.759 C 251.195 275.388,249.864 276.275,248.278 279.042 C 247.939 279.633,249.937 279.264,250.989 278.542 C 251.423 278.244,252.019 278.000,252.314 278.000 C 252.841 278.000,255.282 276.946,259.588 274.860 C 262.461 273.467,262.323 274.581,262.380 252.340 C 262.427 234.075,262.410 233.633,261.634 233.218 C 261.108 232.937,255.097 232.799,243.824 232.809 C 225.795 232.825,225.618 232.808,223.914 230.926 C 221.014 227.721,221.133 214.477,224.090 211.432 C 226.202 209.257,226.802 209.217,255.686 209.313 C 284.952 209.410,283.102 209.221,285.244 212.345 L 286.200 213.741 286.319 248.570 C 286.385 267.727,286.330 284.161,286.196 285.092 C 285.892 287.209,283.415 289.825,280.088 291.541 C 278.830 292.190,277.080 293.091,276.200 293.544 C 275.320 293.997,273.700 294.752,272.600 295.222 C 268.812 296.841,267.796 297.299,266.321 298.048 C 265.507 298.462,264.634 298.800,264.381 298.800 C 264.128 298.800,263.354 299.058,262.660 299.374 C 260.700 300.267,252.228 303.004,247.800 304.174 C 245.600 304.756,242.900 305.480,241.800 305.784 C 240.700 306.088,238.630 306.459,237.200 306.609 C 235.770 306.760,233.610 307.140,232.400 307.454 C 224.696 309.453,197.000 309.439,189.416 307.431 C 188.105 307.084,186.665 306.801,186.216 306.801 C 185.330 306.803,181.367 305.755,176.000 304.100 C 172.589 303.048,172.066 302.858,168.000 301.183 C 165.395 300.111,156.026 295.503,153.936 294.266 C 153.130 293.790,151.462 292.811,150.228 292.092 C 148.994 291.373,147.647 290.473,147.235 290.092 C 146.823 289.711,145.721 288.860,144.785 288.200 C 143.115 287.022,141.345 285.638,138.239 283.084 C 136.168 281.382,129.430 274.639,127.329 272.166 C 122.971 267.039,120.703 264.172,120.131 263.066 C 119.787 262.402,118.931 261.035,118.228 260.029 C 117.525 259.023,116.825 257.930,116.672 257.600 C 116.520 257.270,115.946 256.280,115.397 255.400 C 114.028 253.205,110.400 245.910,110.400 245.352 C 110.400 245.102,110.142 244.683,109.826 244.421 C 109.510 244.159,109.127 243.378,108.975 242.685 C 108.823 241.993,108.544 241.150,108.356 240.813 C 107.544 239.361,104.357 229.185,104.092 227.200 C 103.989 226.430,103.767 225.620,103.597 225.400 C 103.428 225.180,103.167 223.830,103.018 222.400 C 102.869 220.970,102.445 218.810,102.076 217.600 C 101.049 214.236,101.082 189.302,102.119 184.400 C 104.566 172.834,105.335 169.941,106.860 166.556 C 107.267 165.652,107.600 164.561,107.600 164.133 C 107.600 163.704,107.864 163.004,108.187 162.576 C 108.510 162.149,108.780 161.459,108.787 161.042 C 108.808 159.807,114.817 147.459,116.021 146.178 C 116.449 145.722,116.800 145.051,116.800 144.688 C 116.800 144.325,117.160 143.835,117.600 143.600 C 118.040 143.365,118.400 143.000,118.400 142.790 C 118.400 142.466,119.790 140.256,122.843 135.726 C 123.197 135.201,123.746 134.553,124.064 134.286 C 124.381 134.019,125.339 132.900,126.193 131.800 C 128.542 128.773,137.647 119.653,140.489 117.480 C 146.756 112.689,147.729 112.000,148.225 112.000 C 148.517 112.000,148.993 111.685,149.283 111.300 C 149.574 110.915,150.169 110.386,150.606 110.125 C 156.417 106.648,160.490 104.393,161.346 104.178 C 161.926 104.032,162.400 103.772,162.400 103.600 C 162.400 103.428,162.895 103.170,163.500 103.027 C 164.105 102.884,165.320 102.423,166.200 102.003 C 167.080 101.583,168.880 100.846,170.200 100.365 C 171.520 99.884,173.443 99.155,174.474 98.745 C 175.505 98.335,176.639 98.000,176.994 98.000 C 177.349 98.000,178.126 97.750,178.720 97.444 C 179.931 96.819,186.539 95.296,190.200 94.797 C 191.520 94.617,193.500 94.261,194.600 94.007 C 201.863 92.329,227.394 93.486,234.371 95.810 C 235.345 96.135,236.605 96.408,237.171 96.418 C 237.737 96.427,238.920 96.710,239.800 97.045 C 240.680 97.380,242.120 97.832,243.000 98.050 C 243.880 98.267,244.992 98.701,245.472 99.013 C 245.951 99.326,247.073 99.698,247.964 99.841 C 248.856 99.983,249.790 100.347,250.041 100.650 C 250.293 100.952,250.727 101.200,251.008 101.200 C 251.475 101.200,252.858 101.845,259.800 105.299 C 261.120 105.956,262.290 106.616,262.400 106.767 C 262.510 106.917,263.590 107.547,264.800 108.167 C 266.010 108.786,267.720 109.861,268.600 110.555 C 269.480 111.249,271.010 112.348,272.000 112.996 C 273.529 113.998,275.942 115.832,278.400 117.861 C 285.445 123.675,285.904 126.911,280.433 132.200 C 278.067 134.488,277.241 135.335,273.973 138.824 C 271.585 141.374,268.643 141.435,266.262 138.982 C 265.523 138.222,264.757 137.594,264.560 137.587 C 264.362 137.580,263.579 136.950,262.819 136.187 C 262.060 135.424,261.205 134.800,260.919 134.800 C 260.634 134.800,260.400 134.633,260.400 134.428 C 260.400 134.224,259.635 133.539,258.700 132.905 C 257.765 132.272,256.045 131.081,254.878 130.259 C 253.711 129.437,252.361 128.588,251.878 128.372 C 251.395 128.157,250.280 127.549,249.400 127.021 C 248.520 126.494,245.910 125.140,243.600 124.013 C 241.290 122.886,239.061 121.776,238.647 121.546 C 238.233 121.316,237.063 120.893,236.047 120.606 C 235.031 120.320,232.670 119.550,230.800 118.897 C 220.552 115.315,204.880 114.349,194.200 116.640 C 192.660 116.971,190.770 117.344,190.000 117.471 C 189.230 117.597,187.070 118.230,185.200 118.878 C 183.330 119.525,181.182 120.240,180.426 120.467 C 179.670 120.693,178.680 121.113,178.226 121.400 C 177.772 121.687,176.827 122.041,176.128 122.186 C 175.428 122.332,174.641 122.710,174.379 123.026 C 174.117 123.342,173.756 123.600,173.577 123.600 C 173.072 123.600,171.555 124.324,169.800 125.402 C 168.920 125.943,167.705 126.608,167.100 126.880 C 166.495 127.153,166.000 127.499,166.000 127.650 C 166.000 127.800,165.055 128.462,163.900 129.119 C 162.745 129.777,161.271 130.874,160.625 131.557 C 159.979 132.241,159.293 132.800,159.100 132.800 C 158.265 132.800,147.947 142.601,147.100 144.200 C 146.645 145.057,144.241 148.115,143.117 149.267 C 142.741 149.652,142.068 150.682,141.622 151.556 C 141.176 152.430,140.640 153.252,140.431 153.381 C 140.222 153.510,139.792 154.107,139.477 154.708 C 139.161 155.309,138.223 157.060,137.392 158.600 C 134.708 163.577,134.400 164.183,134.400 164.485 C 134.400 164.649,133.770 166.128,133.000 167.773 C 132.230 169.417,131.594 171.086,131.586 171.482 C 131.579 171.877,131.225 172.920,130.800 173.800 C 130.375 174.680,130.021 175.872,130.014 176.450 C 130.006 177.027,129.746 178.221,129.435 179.102 C 129.124 179.983,128.656 182.121,128.395 183.852 C 128.135 185.583,127.718 187.247,127.470 187.550 C 126.828 188.333,126.871 210.888,127.519 212.800 C 127.780 213.570,128.255 215.550,128.574 217.200 C 129.741 223.222,132.339 231.882,133.946 235.105 C 134.137 235.487,134.896 237.060,135.632 238.600 C 136.369 240.140,137.069 241.490,137.186 241.600 C 137.304 241.710,137.940 242.847,138.600 244.128 C 139.260 245.408,140.115 246.741,140.500 247.090 C 140.885 247.439,141.200 247.949,141.200 248.224 C 141.200 248.679,142.040 249.841,144.979 253.455 C 145.541 254.145,146.000 254.803,146.000 254.916 C 146.000 255.475,156.932 266.800,157.471 266.800 C 157.582 266.800,158.601 267.583,159.736 268.540 C 163.120 271.393,170.145 275.865,174.273 277.793 C 174.973 278.120,175.658 278.571,175.796 278.794 C 175.934 279.017,176.442 279.201,176.924 279.201 C 177.406 279.202,178.389 279.562,179.110 280.001 C 179.830 280.441,180.730 280.801,181.110 280.802 C 181.489 280.804,182.340 281.087,183.000 281.432 C 183.660 281.777,184.920 282.224,185.800 282.426 C 190.039 283.399,196.827 284.848,198.800 285.202 C 201.486 285.682,218.804 285.691,222.400 285.214 C 226.932 284.611,230.918 283.959,233.600 283.380 C 235.030 283.071,237.010 282.700,238.000 282.554 C 238.990 282.408,240.250 282.065,240.800 281.792 C 241.350 281.518,242.610 281.161,243.600 280.997 C 244.590 280.834,245.755 280.452,246.189 280.150 C 248.179 278.763,239.337 279.887,235.600 281.496 C 231.382 283.312,224.971 283.976,211.292 284.013 C 196.535 284.054,190.365 283.106,183.432 279.735 C 181.450 278.771,179.284 278.000,178.558 278.000 C 176.797 278.000,175.632 277.500,174.200 276.129 C 173.540 275.497,171.958 274.465,170.684 273.835 C 169.411 273.204,168.188 272.351,167.967 271.939 C 167.541 271.142,165.532 269.696,162.384 267.918 C 161.330 267.322,158.927 265.342,157.044 263.518 C 155.161 261.693,152.851 259.472,151.910 258.582 C 148.921 255.754,146.000 252.383,146.000 251.762 C 146.000 251.432,145.576 250.765,145.058 250.281 C 144.540 249.796,143.476 248.210,142.694 246.756 C 141.911 245.302,140.475 242.949,139.502 241.528 C 138.345 239.837,137.497 238.004,137.050 236.224 C 136.294 233.213,134.994 230.374,134.144 229.878 C 133.203 229.329,132.358 226.764,131.776 222.693 C 131.469 220.544,130.774 216.944,130.233 214.693 C 127.804 204.603,127.788 195.323,130.181 185.000 C 131.302 180.161,131.600 178.349,131.600 176.368 C 131.600 174.360,132.290 172.843,134.590 169.796 C 135.277 168.885,136.308 166.550,136.974 164.396 C 137.744 161.906,138.682 159.872,139.698 158.486 C 140.550 157.323,141.689 155.493,142.229 154.418 C 142.769 153.343,143.851 151.697,144.634 150.760 C 145.417 149.822,146.408 148.368,146.837 147.528 C 147.266 146.688,147.775 146.000,147.969 146.000 C 148.163 146.000,148.978 145.012,149.779 143.805 C 150.580 142.598,151.704 141.293,152.277 140.905 C 152.849 140.517,154.416 139.186,155.759 137.947 C 157.101 136.708,159.190 135.100,160.400 134.373 C 162.594 133.055,166.220 130.158,168.718 127.727 C 169.443 127.021,171.063 126.060,172.318 125.591 C 173.573 125.123,174.870 124.520,175.200 124.252 C 176.172 123.463,177.826 122.729,178.435 122.815 C 180.933 123.168,183.124 122.761,183.361 121.900 C 183.956 119.742,187.771 118.425,193.474 118.410 C 195.494 118.404,198.374 118.145,199.874 117.833 C 203.063 117.169,208.809 117.100,215.000 117.651 C 217.420 117.866,221.411 118.178,223.869 118.344 C 228.150 118.632,228.433 118.709,230.624 120.163 C 231.882 120.998,234.147 122.024,235.658 122.443 C 237.169 122.862,239.759 123.926,241.413 124.807 C 243.131 125.722,245.317 126.538,246.510 126.709 C 248.329 126.970,248.618 127.137,248.740 127.999 C 248.933 129.359,250.237 131.097,251.310 131.424 C 256.168 132.904,261.470 136.412,263.430 139.443 C 265.029 141.914,267.097 143.090,268.733 142.457 C 269.320 142.231,270.841 141.841,272.113 141.592 C 273.386 141.342,274.603 140.927,274.818 140.669 C 275.033 140.411,275.582 139.702,276.039 139.092 C 276.496 138.483,277.529 137.662,278.335 137.267 C 279.912 136.495,283.200 133.692,283.200 133.120 C 283.200 132.929,283.510 132.299,283.889 131.720 C 287.567 126.106,286.154 121.162,279.427 116.119 C 277.432 114.624,275.742 113.271,275.671 113.113 C 275.600 112.955,274.564 112.266,273.369 111.582 C 272.173 110.898,270.996 109.966,270.753 109.511 C 269.904 107.926,268.185 106.834,265.595 106.236 C 262.169 105.444,260.514 104.582,259.811 103.221 C 259.206 102.051,256.543 100.754,253.311 100.055 C 252.382 99.854,251.079 99.233,250.415 98.674 C 249.710 98.081,248.250 97.464,246.904 97.192 C 244.212 96.647,241.711 95.924,237.726 94.537 C 232.241 92.630,209.779 91.498,195.200 92.395 " stroke="none" fill="#91b95f" fill-rule="evenodd"></path><path id="path4" d="M203.200 93.849 C 199.048 94.151,188.247 95.653,187.550 96.027 C 187.166 96.232,186.310 96.400,185.647 96.400 C 184.984 96.400,183.037 96.835,181.321 97.366 C 179.604 97.897,177.570 98.460,176.800 98.617 C 176.030 98.774,175.045 99.149,174.611 99.451 C 174.177 99.753,173.547 100.001,173.211 100.001 C 171.806 100.005,160.393 105.084,156.552 107.416 C 154.936 108.397,153.447 109.200,153.243 109.200 C 153.039 109.200,151.961 109.920,150.848 110.800 C 149.734 111.680,148.721 112.400,148.595 112.400 C 148.262 112.400,144.342 115.301,140.200 118.614 C 135.995 121.976,129.257 128.856,125.712 133.406 C 124.343 135.163,122.969 136.894,122.657 137.254 C 121.474 138.623,116.800 145.735,116.800 146.168 C 116.800 146.337,116.411 147.023,115.936 147.690 C 114.906 149.137,109.825 159.372,109.428 160.800 C 109.275 161.350,108.994 162.160,108.803 162.600 C 108.118 164.177,105.651 171.850,105.008 174.400 C 104.647 175.830,104.191 177.630,103.995 178.400 C 101.262 189.123,100.917 207.150,103.205 219.600 C 104.957 229.131,108.218 239.903,111.059 245.543 C 111.795 247.004,112.398 248.479,112.399 248.820 C 112.399 249.161,112.619 249.659,112.886 249.926 C 113.154 250.194,113.739 251.128,114.186 252.001 C 124.346 271.835,144.046 290.163,164.800 299.091 C 165.790 299.517,167.320 300.185,168.200 300.577 C 169.594 301.197,173.432 302.562,177.975 304.055 C 180.367 304.840,187.284 306.352,194.600 307.689 C 196.537 308.042,201.530 308.191,210.800 308.171 C 224.848 308.141,223.920 308.219,237.000 305.966 C 240.060 305.439,249.148 303.258,250.200 302.799 C 250.640 302.607,252.080 302.156,253.400 301.798 C 256.004 301.092,262.830 298.700,265.400 297.593 C 266.280 297.214,268.173 296.442,269.606 295.877 C 277.788 292.652,284.461 288.287,285.183 285.685 C 285.746 283.659,285.751 215.935,285.189 214.000 C 284.497 211.620,282.424 210.403,279.036 210.386 C 259.197 210.290,226.991 210.443,226.296 210.636 C 225.803 210.773,224.860 211.528,224.200 212.313 L 223.000 213.741 223.012 221.182 L 223.024 228.623 224.123 230.064 C 225.620 232.026,225.342 232.000,244.836 232.000 C 261.368 232.000,261.986 232.027,262.386 232.774 C 262.843 233.628,262.913 271.923,262.460 273.514 C 262.058 274.928,246.361 281.600,243.437 281.600 C 243.102 281.600,242.236 281.853,241.514 282.163 C 239.491 283.030,232.766 284.380,224.000 285.679 C 219.899 286.287,200.029 286.296,197.200 285.692 C 187.749 283.672,185.519 283.090,180.600 281.356 C 178.253 280.529,168.911 275.809,166.600 274.283 C 158.082 268.659,150.711 261.994,144.767 254.541 C 143.408 252.837,140.931 249.370,140.666 248.800 C 140.513 248.470,139.854 247.390,139.202 246.400 C 138.550 245.410,137.853 244.239,137.655 243.797 C 137.456 243.355,136.710 242.005,135.998 240.797 C 133.711 236.919,130.087 227.117,128.680 221.000 C 128.325 219.460,127.767 217.030,127.438 215.600 C 126.003 209.349,125.954 187.140,127.370 184.848 C 127.499 184.639,127.857 183.238,128.165 181.734 C 132.610 160.034,144.988 141.569,164.096 128.133 C 165.139 127.400,166.101 126.800,166.234 126.800 C 166.367 126.800,166.954 126.466,167.538 126.058 C 171.852 123.045,183.163 118.417,190.000 116.868 C 209.979 112.342,226.329 114.527,245.908 124.341 C 250.385 126.586,255.697 129.849,258.800 132.261 C 259.130 132.517,261.350 134.279,263.734 136.176 C 269.960 141.129,271.362 141.150,275.485 136.350 C 275.982 135.772,277.920 133.784,279.794 131.931 L 283.200 128.563 283.200 125.971 C 283.200 122.748,282.995 122.448,278.109 118.511 C 257.715 102.081,237.284 94.436,212.200 93.849 C 208.460 93.761,204.410 93.761,203.200 93.849 M222.800 95.158 C 225.110 95.431,228.260 95.923,229.800 96.250 C 231.340 96.577,233.647 97.002,234.927 97.196 C 236.207 97.389,237.467 97.723,237.727 97.938 C 237.987 98.153,238.920 98.463,239.800 98.627 C 240.680 98.792,242.840 99.448,244.600 100.086 C 246.360 100.723,248.430 101.433,249.200 101.662 C 249.970 101.892,250.884 102.332,251.231 102.640 C 251.579 102.948,252.016 103.200,252.203 103.200 C 252.563 103.200,257.927 105.918,261.600 107.962 C 262.810 108.636,264.222 109.372,264.738 109.598 C 265.255 109.824,266.425 110.613,267.338 111.351 C 268.252 112.089,269.184 112.762,269.409 112.846 C 269.970 113.057,272.945 115.265,277.093 118.549 C 284.751 124.612,284.799 126.016,277.600 133.280 C 275.950 134.944,274.384 136.552,274.119 136.853 C 271.694 139.611,268.993 139.800,266.432 137.391 C 265.644 136.651,264.283 135.561,263.407 134.971 C 262.530 134.380,261.630 133.681,261.407 133.416 C 261.051 132.996,257.547 130.547,255.658 129.400 C 254.041 128.417,250.181 125.803,250.000 125.568 C 249.890 125.425,249.385 125.178,248.879 125.020 C 248.372 124.862,246.932 124.160,245.679 123.461 C 240.382 120.504,228.763 116.364,223.033 115.391 C 221.255 115.089,218.720 114.653,217.400 114.423 C 213.828 113.800,201.492 113.897,198.600 114.571 C 197.280 114.879,195.120 115.261,193.800 115.421 C 192.480 115.581,190.768 115.934,189.995 116.205 C 189.222 116.476,187.782 116.822,186.795 116.974 C 185.808 117.126,184.460 117.494,183.800 117.792 C 183.140 118.090,181.070 118.910,179.200 119.614 C 176.007 120.816,169.282 124.107,166.600 125.780 C 163.622 127.637,162.190 128.623,162.067 128.900 C 161.993 129.065,161.700 129.200,161.416 129.200 C 161.131 129.200,160.654 129.494,160.355 129.854 C 160.056 130.214,159.155 130.924,158.352 131.431 C 156.162 132.813,147.255 141.614,145.200 144.426 C 144.210 145.781,143.130 147.191,142.800 147.560 C 142.226 148.203,139.530 152.131,138.516 153.802 C 135.539 158.711,133.582 162.548,132.806 165.000 C 132.527 165.880,132.072 166.870,131.794 167.200 C 131.516 167.530,131.158 168.430,130.997 169.200 C 130.837 169.970,130.505 170.960,130.259 171.400 C 129.763 172.290,129.104 174.615,127.993 179.400 C 127.585 181.160,127.068 183.230,126.846 184.000 C 124.978 190.462,125.058 210.306,126.978 216.800 C 127.270 217.790,127.734 219.860,128.008 221.400 C 128.281 222.940,128.646 224.380,128.817 224.600 C 128.988 224.820,129.261 225.720,129.423 226.600 C 129.585 227.480,130.051 228.827,130.459 229.594 C 130.866 230.361,131.200 231.216,131.200 231.496 C 131.200 231.775,131.560 232.675,132.000 233.496 C 132.440 234.316,132.800 235.233,132.800 235.532 C 132.800 235.832,133.069 236.554,133.397 237.138 C 133.726 237.722,134.175 238.650,134.396 239.200 C 134.617 239.750,134.970 240.470,135.181 240.800 C 135.392 241.130,136.417 242.930,137.460 244.800 C 138.503 246.670,139.462 248.290,139.591 248.400 C 139.720 248.510,140.444 249.590,141.200 250.800 C 141.956 252.010,142.672 253.090,142.792 253.200 C 142.913 253.310,143.815 254.390,144.797 255.600 C 148.715 260.425,153.075 264.937,156.392 267.600 C 157.625 268.590,158.897 269.628,159.217 269.907 C 160.321 270.867,163.337 273.002,164.767 273.834 C 165.555 274.293,167.640 275.560,169.400 276.649 C 172.397 278.504,179.008 281.600,179.971 281.600 C 180.208 281.600,181.075 281.960,181.896 282.400 C 182.716 282.840,183.756 283.200,184.205 283.200 C 184.654 283.200,185.377 283.445,185.811 283.745 C 186.245 284.045,187.500 284.414,188.600 284.566 C 189.700 284.718,191.410 285.093,192.400 285.399 C 199.433 287.575,221.178 287.590,229.600 285.425 C 230.810 285.114,232.970 284.734,234.400 284.580 C 235.830 284.427,237.355 284.053,237.789 283.751 C 238.223 283.448,239.174 283.200,239.902 283.200 C 240.630 283.200,241.833 282.946,242.575 282.636 C 243.317 282.326,244.943 281.861,246.187 281.603 C 248.240 281.177,251.168 280.125,252.847 279.211 C 253.203 279.018,254.238 278.659,255.147 278.414 C 256.056 278.169,256.800 277.796,256.800 277.585 C 256.800 277.373,257.000 277.200,257.245 277.200 C 257.490 277.200,258.907 276.636,260.395 275.946 L 263.101 274.693 263.347 272.646 C 263.766 269.160,263.631 234.728,263.192 233.149 C 262.642 231.168,262.968 231.201,243.650 231.195 C 226.666 231.189,225.200 231.108,225.200 230.173 C 225.200 229.880,224.885 229.463,224.500 229.247 C 223.497 228.685,223.428 213.813,224.425 213.067 C 224.768 212.810,225.162 212.301,225.299 211.935 C 225.704 210.853,228.902 210.743,256.293 210.876 L 281.985 211.000 283.293 212.307 L 284.600 213.615 284.726 247.507 C 284.870 286.065,284.871 286.047,283.009 287.780 C 280.994 289.656,280.629 289.900,277.923 291.193 C 276.536 291.856,275.130 292.566,274.800 292.771 C 274.470 292.976,273.390 293.496,272.400 293.927 C 271.410 294.358,269.610 295.159,268.400 295.708 C 267.190 296.256,264.760 297.195,263.000 297.793 C 261.240 298.392,259.620 299.025,259.400 299.199 C 259.024 299.497,256.228 300.329,252.600 301.224 C 251.720 301.441,250.460 301.871,249.800 302.179 C 249.140 302.488,246.260 303.224,243.400 303.815 C 240.540 304.406,237.840 305.040,237.400 305.225 C 236.960 305.409,234.890 305.758,232.800 305.999 C 230.710 306.241,227.740 306.718,226.200 307.059 C 218.938 308.668,197.044 307.829,187.200 305.564 C 186.210 305.337,184.320 304.918,183.000 304.634 C 181.680 304.350,179.739 303.821,178.686 303.459 C 177.633 303.097,176.429 302.800,176.010 302.800 C 175.590 302.800,175.139 302.625,175.007 302.411 C 174.874 302.197,174.009 301.826,173.083 301.587 C 170.920 301.029,167.337 299.613,165.800 298.709 C 165.140 298.321,164.206 298.002,163.724 298.001 C 163.242 298.001,162.739 297.825,162.607 297.611 C 162.474 297.397,160.889 296.509,159.083 295.639 C 157.277 294.768,154.990 293.507,154.000 292.835 C 153.010 292.164,152.058 291.611,151.885 291.607 C 151.713 291.603,150.399 290.702,148.967 289.604 C 147.535 288.507,145.978 287.402,145.507 287.150 C 144.632 286.682,144.062 286.261,142.867 285.200 C 142.495 284.870,141.293 283.895,140.195 283.033 C 136.748 280.326,127.757 270.936,124.734 266.885 C 123.139 264.748,121.602 262.856,121.317 262.680 C 121.033 262.504,120.800 262.136,120.800 261.861 C 120.800 261.587,120.530 261.011,120.200 260.581 C 119.158 259.225,117.618 256.805,116.565 254.869 C 116.006 253.841,115.113 252.280,114.582 251.400 C 113.584 249.748,113.249 249.063,111.939 246.000 C 111.516 245.010,110.839 243.570,110.435 242.800 C 110.031 242.030,109.571 240.803,109.412 240.073 C 109.254 239.343,108.873 238.263,108.565 237.673 C 108.257 237.083,108.004 236.276,108.002 235.880 C 108.001 235.484,107.705 234.590,107.344 233.892 C 106.685 232.618,106.493 231.889,104.682 223.800 C 102.901 215.847,101.814 203.262,102.380 197.154 C 102.612 194.649,102.977 190.714,103.192 188.409 C 103.620 183.817,105.023 175.764,105.568 174.776 C 105.757 174.433,106.131 173.083,106.399 171.776 C 106.667 170.469,107.021 169.220,107.186 169.000 C 107.350 168.780,108.087 166.710,108.823 164.400 C 109.559 162.090,110.395 159.916,110.681 159.569 C 110.966 159.221,111.206 158.771,111.214 158.569 C 111.221 158.366,111.575 157.480,112.000 156.600 C 112.425 155.720,112.779 154.848,112.786 154.663 C 112.794 154.478,113.160 153.869,113.600 153.309 C 114.040 152.750,114.400 152.062,114.400 151.781 C 114.400 151.500,115.030 150.313,115.800 149.144 C 116.570 147.975,117.200 146.851,117.200 146.647 C 117.200 146.443,117.650 145.686,118.200 144.964 C 118.750 144.243,119.200 143.489,119.200 143.289 C 119.200 143.088,119.560 142.598,120.000 142.200 C 120.440 141.802,120.800 141.319,120.800 141.126 C 120.800 140.934,121.475 139.907,122.300 138.844 C 123.125 137.781,124.070 136.503,124.400 136.004 C 125.046 135.026,126.677 133.015,128.600 130.825 C 130.203 128.998,138.460 120.800,138.696 120.800 C 138.799 120.800,139.809 119.965,140.941 118.945 C 142.074 117.925,143.630 116.665,144.400 116.145 C 145.170 115.626,146.700 114.565,147.800 113.789 C 148.900 113.012,150.136 112.157,150.546 111.888 C 150.957 111.620,151.677 111.109,152.146 110.753 C 152.616 110.398,153.990 109.602,155.200 108.986 C 156.410 108.370,157.670 107.660,158.000 107.408 C 160.347 105.620,174.249 99.913,179.400 98.624 C 184.267 97.406,186.629 96.785,187.800 96.416 C 188.460 96.208,191.340 95.819,194.200 95.553 C 197.060 95.286,199.670 94.918,200.000 94.735 C 200.863 94.255,217.833 94.571,222.800 95.158 " stroke="none" fill="#5c7c44" fill-rule="evenodd"></path></g></svg>