<?xml version="1.0" encoding="UTF-8"?>
<svg width="256px" height="256px" viewBox="0 0 256 256" version="1.1" xmlns="http://www.w3.org/2000/svg" xmlns:xlink="http://www.w3.org/1999/xlink">
    <!-- Generator: Sketch 56.2 (81672) - https://sketch.com -->
    <title>git-tag-stepicon</title>
    <desc>Created with Sketch.</desc>
    <defs>
        <linearGradient x1="50%" y1="0.688674133%" x2="50%" y2="97.6477244%" id="linearGradient-1">
            <stop stop-color="#FFB2C5" offset="0%"></stop>
            <stop stop-color="#F95F84" offset="100%"></stop>
        </linearGradient>
        <linearGradient x1="50%" y1="0%" x2="50%" y2="100%" id="linearGradient-2">
            <stop stop-color="#FFFFFF" offset="0%"></stop>
            <stop stop-color="#FFFFFF" stop-opacity="0.5" offset="100%"></stop>
        </linearGradient>
        <path d="M75.1112081,0.5 L107.481465,0.5 C114.395261,0.5 120,6.05803273 120,12.9142136 L120,45.0147186 C120,48.3071728 118.681087,51.4647766 116.333406,53.7928932 L53.7407327,115.863961 C48.8519408,120.712013 40.925643,120.712013 36.0368511,115.863961 L3.66659392,83.763456 C-1.22219797,78.915404 -1.22219797,71.0551587 3.66659392,66.2071068 L66.2592673,4.13603897 C68.606948,1.80792232 71.7910863,0.5 75.1112081,0.5 Z M75.1112081,12.9142136 L12.5185347,74.9852814 L44.8887919,107.085786 L107.481465,45.0147186 L107.481465,12.9142136 L75.1112081,12.9142136 Z M82.4443959,50.1568542 C75.5306001,50.1568542 69.9258613,44.5988215 69.9258613,37.7426407 C69.9258613,30.8864599 75.5306001,25.3284271 82.4443959,25.3284271 C89.3581917,25.3284271 94.9629306,30.8864599 94.9629306,37.7426407 C94.9629306,44.5988215 89.3581917,50.1568542 82.4443959,50.1568542 Z" id="path-3"></path>
    </defs>
    <g id="New-Icons" stroke="none" stroke-width="1" fill="none" fill-rule="evenodd">
        <g id="Git-tag">
            <g id="git-tag-stepicon">
                <rect id="Rectangle-path" fill="url(#linearGradient-1)" fill-rule="nonzero" x="0" y="0" width="256" height="256"></rect>
                <g id="icons-/-branch-/-tag" transform="translate(60.000000, 68.000000)">
                    <mask id="mask-4" fill="white">
                        <use xlink:href="#path-3"></use>
                    </mask>
                    <use fill="url(#linearGradient-2)" xlink:href="#path-3"></use>
                </g>
            </g>
        </g>
    </g>
</svg>