<?xml version="1.0" encoding="utf-8"?>
<!-- Generator: Adobe Illustrator 22.0.1, SVG Export Plug-In . SVG Version: 6.00 Build 0)  -->
<svg version="1.1" id="Layer_1" xmlns="http://www.w3.org/2000/svg" xmlns:xlink="http://www.w3.org/1999/xlink" x="0px" y="0px"
	 viewBox="0 0 256 256" style="enable-background:new 0 0 256 256;" xml:space="preserve">
<style type="text/css">
	.st0{fill:#FFFFFF;}
	.st1{fill:#ED257A;}
</style>
<rect class="st0" width="256" height="256"/>
<path class="st1" d="M128,63.4c-37.2,0-67.5,30-67.6,66.8v0.2l11.5,6.7l0.2-0.1c7.2-4.9,16-6.7,24.5-5.2c6,1.1,11.6,3.8,16.1,8
	l2,1.8l1.1-2.4c1.1-2.4,2.3-4.6,3.7-6.6c0.6-0.8,1.2-1.6,1.9-2.5l1.2-1.4l-1.4-1.2c-6.3-5.2-13.8-8.7-21.9-10.2
	c-7.5-1.4-15.3-0.9-22.6,1.3c5.5-23.9,26.5-40.5,51.4-40.5c14,0,27.2,5.4,37.1,15.2c7.1,7,11.9,15.7,14.1,25.2
	c-4.6-1.4-9.3-2.1-14.1-2.1h-0.9c-1.9,0-3.7,0.2-5.6,0.4h-0.2c-0.8,0.1-1.5,0.2-2.2,0.3c-0.3,0.1-0.6,0.1-1,0.2
	c-0.8,0.2-1.5,0.3-2.2,0.5l-0.8,0.2c-0.9,0.2-1.8,0.5-2.7,0.8l-0.2,0.1c-2,0.7-4,1.5-5.9,2.5l-0.2,0.1c-0.9,0.4-1.7,0.9-2.6,1.4
	l-0.2,0.1c-4.5,2.7-8.6,6.1-11.9,10.2l-0.4,0.5c-0.9,1.1-1.5,2-2.1,2.8c-0.5,0.7-1,1.5-1.6,2.5l-0.3,0.6c-0.5,0.9-0.9,1.7-1.3,2.4
	l-0.1,0.2c-1,1.9-1.8,3.9-2.5,6l-0.1,0.3c-1.6,4.9-2.4,10-2.3,15.2v0.6c0,0.7,0.1,1.5,0.1,2.2c0,0.3,0.1,0.7,0.1,1
	c0,0.4,0.1,0.9,0.1,1.3v0.2c0,0.2,0,0.4,0.1,0.6c0.1,0.7,0.2,1.4,0.3,2.1c1.4,7.1,4.8,14.2,9.8,20.5l0.2,0.3l0.2-0.3
	c2-2.4,7-9.9,7.5-14.5v-0.1v-0.1c-2.4-4.5-3.6-9.5-3.6-14.6c0-16.9,13.3-31,30.4-32h1.1c6.9-0.2,13.8,1.9,19.5,5.7l0.2,0.1l11.3-6.6
	l0.1-0.1v-0.2c0-17.9-7-34.6-19.8-47.2C163,70.3,146.1,63.4,128,63.4"/>
</svg>

