<?xml version="1.0" encoding="utf-8"?>
<!-- Generator: Adobe Illustrator 19.1.0, SVG Export Plug-In . SVG Version: 6.00 Build 0)  -->
<svg version="1.1" id="Layer_1" xmlns="http://www.w3.org/2000/svg" xmlns:xlink="http://www.w3.org/1999/xlink" x="0px" y="0px"
	 viewBox="0 0 256 256" enable-background="new 0 0 256 256" xml:space="preserve">
<rect x="-0.3" y="0" fill="#ED2C69" width="256" height="256"/>
<path fill="#FFFFFF" d="M179.6,69.2c-13.8-13.8-32.1-21.3-51.6-21.3c-40.2,0-73,32.8-73,73.1l0,12.4l9.6-6.6
	c6.5-4.5,14.1-6.8,21.9-6.8c2.3,0,4.7,0.2,7,0.6c7.3,1.3,13.8,4.6,19.1,9.6c1.2-2.7,2.6-5.3,4.3-7.7c0.7-1,1.4-2,2.2-2.9
	c-6.6-5.6-14.6-9.4-23.3-11c-3-0.6-6.1-0.8-9.2-0.8c-6.3,0-12.5,1.2-18.4,3.5c4.8-29.2,30.1-51,60-51c16.2,0,31.4,6.3,42.9,17.7
	c9.1,9.1,15,20.5,17,33.1c-5.9-2.3-12.1-3.5-18.5-3.5l-0.9,0c-0.7,0-1.3,0-1.9,0.1c-1.1,0.1-2.2,0.2-3.3,0.3c-0.3,0-0.6,0.1-1,0.1
	c-0.8,0.1-1.6,0.2-2.3,0.4c-0.3,0.1-0.7,0.1-1,0.2c-0.8,0.2-1.6,0.3-2.3,0.5c-0.3,0.1-0.6,0.1-0.8,0.2c-1,0.3-1.9,0.6-2.9,0.9
	c-0.1,0-0.1,0-0.2,0.1c-2.2,0.7-4.3,1.6-6.3,2.7c-0.1,0-0.1,0.1-0.2,0.1c-1,0.5-1.9,1-2.8,1.5c-0.1,0-0.2,0.1-0.2,0.1
	c-4.8,2.9-9.1,6.6-12.7,11c-0.1,0.2-0.3,0.4-0.4,0.5c-0.8,1-1.6,2-2.3,3c-0.6,0.9-1.2,1.8-1.7,2.7c-0.1,0.2-0.2,0.4-0.4,0.6
	c-0.5,0.9-1,1.8-1.4,2.6c0,0.1-0.1,0.1-0.1,0.1c-1,2.1-1.9,4.2-2.6,6.4c0,0,0,0,0,0v0c-1.8,5.4-2.7,11-2.6,16.7c0,0.2,0,0.5,0,0.7
	c0,0.4,0,0.9,0.1,1.3c0,0.4,0,0.7,0.1,1.1c0,0.4,0.1,0.7,0.1,1.1c0,0.5,0.1,0.9,0.2,1.4c0,0.3,0.1,0.6,0.1,0.9
	c0.1,0.8,0.2,1.5,0.4,2.3c2.5,13.1,9.8,24.5,20.8,32.1l1.4,0.9l0,0c6.2,4,13.3,6.7,20.7,7.7l1,0.1l7.4-11.9l-2.7-0.1
	c-20.5-0.6-37.1-17.7-37.1-38.2c0-20.2,15.8-36.9,35.9-38.1l1.3,0c8.1-0.2,16.2,2.2,23,6.8l9.6,6.5l0-12.3
	C201,101.4,193.4,83,179.6,69.2"/>
</svg>
