<?xml version="1.0" encoding="UTF-8"?><svg xmlns="http://www.w3.org/2000/svg" xmlns:xlink="http://www.w3.org/1999/xlink" viewBox="0 0 400 400"><defs><style>.cls-1{fill:url(#linear-gradient);}.cls-2{fill:#683d87;}.cls-3{fill:#fbfdfd;}.cls-4{fill:rgba(251,253,253,.25);}.cls-5{mix-blend-mode:multiply;}.cls-6{isolation:isolate;}</style><linearGradient id="linear-gradient" x1="-1854.11" y1="-1789.9" x2="-1853.29" y2="-1789.9" gradientTransform="translate(32867.3 1865727.59) rotate(45) scale(724.08)" gradientUnits="userSpaceOnUse"><stop offset="0" stop-color="#f8be6b"/><stop offset=".5" stop-color="#df5959"/><stop offset="1" stop-color="#4280c3"/></linearGradient></defs><g class="cls-6"><g id="Layer_1"><rect class="cls-1" x="-9.06" y="-6.34" width="416.19" height="420.56"/><g><g><path class="cls-4" d="M162.07,51.53c6.6,0,13.2,.57,19.66,1.58,6.32,1,12.49,2.58,18.66,4.74,6.03,2.01,11.77,4.59,17.37,7.61,5.45,3.01,10.76,6.32,15.79,10.19,4.88,3.73,9.47,7.89,13.78,12.34,4.31,4.59,8.32,9.47,11.77,14.64,3.59,5.17,6.75,10.62,9.33,16.36,2.73,5.74,5.02,11.77,6.75,17.8,1.72,6.17,3.01,12.49,3.73,18.95,.72,6.6,1,13.35,.57,19.95-.29,6.6-1.29,13.06-2.73,19.38-1.44,6.17-3.3,12.34-5.74,18.23-2.3,5.88-5.17,11.48-8.47,16.94-3.3,5.31-6.89,10.48-10.91,15.21s-8.47,9.19-13.06,13.2c-4.74,4.02-9.76,7.75-15.07,11.05s-11.05,6.17-16.79,8.47c-5.88,2.44-12.06,4.31-18.23,5.74-6.32,1.44-12.77,2.3-19.38,2.73-3.01,.14-6.89,.86-9.62-.43-3.3-1.44-5.02-4.74-4.16-8.32,.86-3.3,3.88-5.17,7.18-5.31,2.87-.14,5.88-.14,8.76-.43,5.74-.43,11.34-1.44,16.79-2.87s10.76-3.3,15.79-5.45c5.02-2.3,9.9-4.88,14.5-7.89,4.59-3.01,8.9-6.32,12.92-10.05s7.89-7.61,11.34-11.91,6.6-8.9,9.33-13.64,5.02-9.76,7.03-14.93c2.01-5.31,3.44-10.76,4.59-16.22,1.15-5.74,1.72-11.48,1.87-17.22,.14-5.88-.14-11.63-1-17.51-.86-5.6-2.01-11.05-3.73-16.51-1.72-5.31-3.73-10.48-6.32-15.5-2.44-4.88-5.31-9.62-8.61-14.07-3.16-4.45-6.75-8.61-10.62-12.49s-8.04-7.46-12.49-10.62c-4.45-3.3-9.19-6.17-14.21-8.61-5.02-2.44-10.05-4.59-15.36-6.32-5.45-1.72-10.91-3.01-16.65-3.73-2.87-.43-5.74-.72-8.61-.86s-6.46,.29-9.04-1c-3.01-1.58-4.31-4.74-3.59-8.04,.29-1.44,1.29-2.87,2.58-3.88,1.44-.86,2.73-1,4.31-1.29Z"/><path class="cls-4" d="M163.22,79.52c4.88,0,9.76,.43,14.64,1.15,4.88,.86,9.62,2.01,14.35,3.59,4.59,1.58,9.04,3.44,13.2,5.74,4.45,2.3,8.61,5.02,12.49,8.04s7.46,6.17,10.76,9.76,6.32,7.32,9.04,11.34c2.73,4.02,5.17,8.32,7.18,12.92,2.01,4.31,3.59,8.9,4.88,13.49,1.29,4.74,2.15,9.62,2.73,14.5s.57,9.76,.29,14.64c-.29,4.88-1,9.76-2.01,14.64-1,4.74-2.44,9.33-4.31,13.78-1.87,4.59-4.02,8.9-6.6,13.2-2.58,4.16-5.45,8.18-8.61,11.77s-6.46,7.03-10.19,10.05c-3.73,3.16-7.75,6.03-11.91,8.61-4.02,2.44-8.32,4.59-12.77,6.32-4.59,1.87-9.19,3.3-14.07,4.31-4.88,1-9.76,1.72-14.78,2.01-2.44,.14-5.17,.57-7.46-.43-2.73-1.15-4.45-3.88-4.31-6.75s2.01-5.45,4.59-6.46c2.15-.86,4.88-.43,7.18-.57,4.31-.29,8.61-.86,12.77-1.87s8.18-2.3,12.06-3.88c3.88-1.58,7.61-3.59,11.05-5.74s6.6-4.59,9.62-7.32c3.16-2.73,6.03-5.88,8.76-9.04,2.58-3.16,4.88-6.46,6.89-10.05,2.01-3.59,3.73-7.32,5.17-11.2s2.58-8.04,3.44-12.2c.86-4.16,1.29-8.47,1.29-12.77,.14-4.45-.14-8.76-.86-13.2-.57-4.16-1.58-8.32-3.01-12.34-1.29-3.88-3.01-7.75-4.88-11.48-1.87-3.44-4.02-6.89-6.32-10.05-2.44-3.3-5.31-6.46-8.18-9.33s-6.03-5.45-9.47-7.75c-3.3-2.3-6.75-4.31-10.33-6.03-3.88-1.87-7.89-3.3-12.06-4.59-4.16-1.15-8.47-2.01-12.77-2.44-2.01-.14-4.02-.29-6.03-.43-2.73,0-5.17-.29-7.03-2.44-3.73-4.31-.29-11.2,5.6-11.48Z"/><path class="cls-4" d="M162.5,107.8c5.17,0,10.19,.57,15.21,1.87,7.61,2.01,14.93,5.31,21.24,10.05,6.32,4.59,11.63,10.48,15.79,17.08,4.02,6.46,6.89,13.78,8.32,21.24,.86,4.59,1.15,9.33,1,14.07-.29,6.03-1.44,11.91-3.44,17.51-2.58,7.46-6.6,14.21-11.77,20.09-5.17,5.88-11.34,10.76-18.37,14.21-6.32,3.16-13.2,5.31-20.24,6.17-2.3,.29-4.45,.43-6.75,.43-3.73,0-7.18-2.01-7.75-6.03s2.3-7.75,6.32-8.18c2.15-.29,4.31-.14,6.46-.43,5.88-.72,11.48-2.58,16.79-5.31,5.31-2.87,9.9-6.75,13.78-11.34,3.88-4.59,6.89-10.05,8.76-15.79,1.44-4.59,2.15-9.33,2.3-14.07,0-4.88-.72-9.76-2.15-14.5-1.87-5.74-4.74-11.2-8.61-15.93-3.88-4.59-8.47-8.61-13.78-11.48-5.17-2.87-10.76-4.74-16.65-5.45-2.01-.29-4.02-.29-6.03-.43-3.88-.14-7.32-3.16-7.18-7.18-.29-3.44,2.87-6.6,6.75-6.6Z"/></g><g><path class="cls-3" d="M161.5,287.35c-6.6,0-13.2-.57-19.66-1.58-6.32-1-12.49-2.58-18.66-4.74-6.03-2.01-11.77-4.59-17.37-7.61-5.45-3.01-10.76-6.32-15.79-10.19-4.88-3.73-9.47-7.89-13.78-12.34-4.31-4.59-8.32-9.47-11.77-14.64-3.59-5.17-6.75-10.62-9.33-16.36-2.73-5.74-5.02-11.77-6.75-17.8-1.72-6.17-3.01-12.49-3.73-18.95-.72-6.6-1-13.35-.57-19.95,.29-6.6,1.29-13.06,2.73-19.38,1.44-6.17,3.3-12.34,5.74-18.23,2.3-5.88,5.17-11.48,8.47-16.94,3.3-5.31,6.89-10.48,10.91-15.21,4.02-4.74,8.47-9.19,13.06-13.2,4.74-4.02,9.76-7.75,15.07-11.05s11.05-6.17,16.79-8.47c5.88-2.44,12.06-4.31,18.23-5.74,6.32-1.44,12.77-2.3,19.38-2.73,3.01-.14,6.89-.86,9.62,.43,3.3,1.44,5.02,4.74,4.16,8.32-.86,3.3-3.88,5.17-7.18,5.31-2.87,.14-5.88,.14-8.76,.43-5.74,.43-11.34,1.44-16.79,2.87-5.45,1.44-10.76,3.3-15.79,5.45-5.02,2.3-9.9,4.88-14.5,7.89s-8.9,6.32-12.92,10.05-7.89,7.61-11.34,11.91-6.6,8.9-9.33,13.64c-2.73,4.74-5.17,9.76-7.03,14.93-2.01,5.31-3.44,10.76-4.59,16.22-1.15,5.74-1.72,11.48-1.87,17.22-.14,5.88,.14,11.63,1,17.51,.86,5.6,2.01,11.05,3.73,16.51,1.72,5.31,3.73,10.48,6.32,15.5,2.44,4.88,5.31,9.62,8.61,14.07,3.16,4.45,6.75,8.61,10.62,12.49,3.88,3.88,8.04,7.46,12.49,10.62,4.45,3.3,9.19,6.17,14.21,8.61s10.05,4.59,15.36,6.32c5.45,1.72,10.91,3.01,16.65,3.73,2.87,.43,5.74,.72,8.61,.86s6.46-.29,9.04,1c3.01,1.58,4.31,4.74,3.59,8.04-.29,1.44-1.29,2.87-2.58,3.88-1.29,.86-2.73,1-4.31,1.29Z"/><path class="cls-3" d="M160.49,259.36c-4.88,0-9.76-.43-14.64-1.15-4.88-.86-9.62-2.01-14.35-3.59-4.59-1.58-9.04-3.44-13.2-5.74-4.45-2.3-8.61-5.02-12.49-8.04s-7.46-6.17-10.76-9.76-6.32-7.32-9.04-11.34c-2.73-4.02-5.17-8.32-7.18-12.92-2.01-4.31-3.59-8.9-4.88-13.49-1.29-4.74-2.15-9.62-2.73-14.5-.57-4.88-.57-9.76-.29-14.64,.29-4.88,1-9.76,2.01-14.64,1-4.74,2.44-9.33,4.31-13.78,1.87-4.59,4.02-8.9,6.6-13.2,2.58-4.16,5.45-8.18,8.61-11.77s6.46-7.03,10.19-10.05c3.73-3.16,7.75-6.03,11.91-8.61,4.02-2.44,8.32-4.59,12.77-6.32,4.59-1.87,9.19-3.3,14.07-4.31s9.76-1.72,14.78-2.01c2.44-.14,5.17-.57,7.46,.43,2.73,1.15,4.45,3.88,4.31,6.75s-2.01,5.45-4.59,6.46c-2.15,.86-4.88,.43-7.18,.57-4.31,.29-8.61,.86-12.77,1.87-4.16,1-8.18,2.3-12.06,3.88-3.88,1.58-7.61,3.59-11.05,5.74-3.44,2.15-6.6,4.59-9.62,7.32-3.16,2.73-6.03,5.88-8.76,9.04-2.58,3.16-4.88,6.46-6.89,10.05s-3.73,7.32-5.17,11.2c-1.44,3.88-2.58,8.04-3.44,12.2s-1.29,8.47-1.29,12.77c-.14,4.45,.14,8.76,.86,13.2,.57,4.16,1.58,8.32,3.01,12.34,1.29,3.88,3.01,7.75,4.88,11.48,1.87,3.44,4.02,6.89,6.32,10.05,2.44,3.3,5.31,6.46,8.18,9.33,2.87,2.87,6.03,5.45,9.47,7.75,3.3,2.3,6.75,4.31,10.33,6.03,3.88,1.87,7.89,3.3,12.06,4.59,4.16,1.15,8.47,2.01,12.77,2.44,2.01,.14,4.02,.29,6.03,.43,2.73,0,5.17,.29,7.03,2.44,3.73,4.31,.29,11.2-5.6,11.48Z"/><path class="cls-3" d="M161.21,231.09c-5.17,0-10.19-.57-15.21-1.87-7.61-2.01-14.93-5.31-21.24-10.05-6.32-4.59-11.63-10.48-15.79-17.08-4.02-6.46-6.89-13.78-8.32-21.24-.86-4.59-1.15-9.33-1-14.07,.29-6.03,1.44-11.91,3.44-17.51,2.58-7.46,6.6-14.21,11.77-20.09s11.34-10.76,18.37-14.21c6.32-3.16,13.2-5.31,20.24-6.17,2.3-.29,4.45-.43,6.75-.43,3.73,0,7.18,2.01,7.75,6.03,.57,4.02-2.3,7.75-6.32,8.18-2.15,.29-4.31,.14-6.46,.43-5.88,.72-11.48,2.58-16.79,5.31-5.31,2.87-9.9,6.75-13.78,11.34-3.88,4.59-6.89,10.05-8.76,15.79-1.44,4.59-2.15,9.33-2.3,14.07,0,4.88,.72,9.76,2.15,14.5,1.87,5.74,4.74,11.2,8.61,15.93,3.88,4.59,8.47,8.61,13.78,11.48,5.17,2.87,10.76,4.74,16.65,5.45,2.01,.29,4.02,.29,6.03,.43,3.88,.14,7.32,3.16,7.18,7.18,.29,3.44-2.87,6.6-6.75,6.6Z"/></g></g><g class="cls-5"><path class="cls-2" d="M295.97,228.56h-52.29c-1.42,0-2.58,1.15-2.58,2.58v17.32c0,1.42,1.15,2.58,2.58,2.58h52.29c1.42,0,2.58-1.15,2.58-2.58v-17.32c0-1.42-1.15-2.58-2.58-2.58Zm54.45-6.27l-25.65-25.65c-5.3-5.3-12.35-8.22-19.85-8.22h-77c-12.44,0-22.56,10.12-22.56,22.56v108.17c0,12.44,10.12,22.56,22.56,22.56h108.17c12.44,0,22.56-10.12,22.56-22.56v-77c0-7.5-2.92-14.55-8.22-19.85Zm-42.39,100.41h-49.27v-34.4c0-1.15,.93-2.08,2.08-2.08h45.12c1.15,0,2.08,.93,2.08,2.08v34.4Zm31.61-3.56c0,1.96-1.6,3.56-3.56,3.56h-9.05v-34.4c0-11.62-9.46-21.08-21.08-21.08h-45.12c-11.62,0-21.08,9.46-21.08,21.08v34.4h-11.84c-1.96,0-3.56-1.6-3.56-3.56v-108.17c0-1.96,1.6-3.56,3.56-3.56h77c2.42,0,4.7,.94,6.42,2.66l25.65,25.65c1.71,1.71,2.66,3.99,2.66,6.42v77Z"/></g></g></g></svg>