<svg xmlns="http://www.w3.org/2000/svg" data-name="Layer 1" viewBox="0 0 128 128" x="0px" y="0px">
  <rect width="128" height="148" fill="white"/>
  <path
    fill="#009B77" d="M110,74.55a2,2,0,0,0-2.82.06L105.83,76,102,72.22A34,34,0,0,0,74,19h-.06A34,34,0,0,0,74,87h.06A33.81,33.81,0,0,0,92,81.84L96.19,86,94.56,87.7a2,2,0,0,0,0,2.8l14,13.91a2,2,0,1,0,2.82-2.83L98.81,89.06l9.87-10.24L124.62,94a2,2,0,0,0,2.76-2.9ZM74,83h0a30,30,0,0,1,0-60h0a30,30,0,0,1,0,60Z"/>
  <path
    d="M0,21V99a6,6,0,0,0,6,6H56v4H45a2,2,0,0,0,0,4H83a2,2,0,0,0,0-4H72v-4h31.47l-4-4H6a2,2,0,0,1-2-2V96H94.44l-2.67-2.66a6,6,0,0,1-1.47-6A37.71,37.71,0,0,1,74.07,91H74a37.74,37.74,0,0,1-20.45-6H34.09a2,2,0,0,1,0-4H48.35a38.38,38.38,0,0,1-3.78-4H21.11a2,2,0,0,1,0-4H41.72a38,38,0,0,1-2.18-4v0H31.07a2,2,0,0,1,0-4H38a37.64,37.64,0,0,1-1.1-4H23.08a2,2,0,1,1,0-4H36.21A38.21,38.21,0,0,1,36,53.07s0,0,0-.07H34.09a2,2,0,0,1,0-4h2.12a37.8,37.8,0,0,1,.64-4H34.09a2,2,0,0,1,0-4H38a37.77,37.77,0,0,1,1.59-4H24.1a2,2,0,0,1,0-4H41.71a38.2,38.2,0,0,1,2.86-4H14.11a2,2,0,0,1,0-4H48.34a37.85,37.85,0,0,1,25.6-10H6A6,6,0,0,0,0,21Zm60,84h8v4H60Z"/>
  <path
    d="M122,15H73.93A38.11,38.11,0,0,1,110,41h5a2,2,0,0,1,0,4h-3.9a37.64,37.64,0,0,1,.64,12v0H114a2,2,0,1,1,0,4h-2.87a37.66,37.66,0,0,1-1.1,4h8a2,2,0,0,1,0,4h-9.55c-.17.36-.35.71-.53,1.07a6,6,0,0,1,4.83,1.59L128,86.16V21A6,6,0,0,0,122,15Z"/>
  <path
    fill="#009B77" d="M75,30h0a2,2,0,0,0,0,4h0A18,18,0,0,1,93,52a2,2,0,0,0,2,2h0a2,2,0,0,0,2-2A22,22,0,0,0,75,30Z"/>
</svg>
