<?xml version="1.0" encoding="utf-8"?>
<!-- Generator: Adobe Illustrator 19.1.0, SVG Export Plug-In . SVG Version: 6.00 Build 0)  -->
<svg version="1.1" id="Layer_1" xmlns="http://www.w3.org/2000/svg" xmlns:xlink="http://www.w3.org/1999/xlink" x="0px" y="0px"
	 viewBox="0 0 256 256" enable-background="new 0 0 256 256" xml:space="preserve">
<g>
	<rect fill="#3498DB" width="256" height="256"/>
</g>
<g>
	<path fill="#FFFFFF" d="M170.5,65.8c-2.1-3.6-6.2-5.8-10.2-5.8H95.7c-4.2,0-8.3,2.2-10.2,5.8l-32.4,56.3c-2.1,3.6-2.1,8.2,0,11.8
		l32.4,56.2c2.1,3.6,6.2,5.8,10.2,5.8h64.7c4.2,0,8.3-2.2,10.2-5.8l32.4-56.3c2.1-3.6,2.1-8.1,0-11.7L170.5,65.8z M160.5,161
		c0.4,0.9-0.3,2-1.2,2h-11.1c-0.5,0-1.1-0.1-1.2-0.5l-18.9-33.8c-0.1-0.2-0.1-0.2-0.1-0.5c0,0.1-0.2,0.5-0.2,0.6l-18.9,33.7
		c-0.3,0.4-0.8,0.5-1.2,0.5H96.6c-1.1,0-1.8-1.1-1.2-2l18.5-33L95.4,95c-0.5-0.9-0.2-2,0.9-2c0.2,0,0.2,0,0.3,0h11.1
		c0.5,0,0.9,0.2,1.2,0.7l18.9,33.9c0.2,0.2,0.2,0.3,0.2,0.6c0-0.1,0.1-0.5,0.1-0.6L147,93.7c0.3-0.4,0.8-0.7,1.2-0.7h11.1
		c1.1,0,1.8,1.1,1.2,2L142,128L160.5,161z"/>
</g>
</svg>
