<svg id="Layer_1" data-name="Layer 1" xmlns="http://www.w3.org/2000/svg" viewBox="0 0 255.92 255.92"><defs><style>.cls-1{fill:#4d4d4d;}.cls-2{fill:#fff;}.cls-3{fill:#ed1e79;}</style></defs><title>Artboard 111</title><rect class="cls-1" width="255.92" height="255.92"/><path class="cls-2" d="M143,65.6H55a3,3,0,1,1,0-6h88a3,3,0,0,1,0,6Z"/><path class="cls-3" d="M114,131.6H55a3,3,0,1,1,0-6h59a3,3,0,0,1,0,6Z"/><path class="cls-3" d="M201,131.6H135a3,3,0,0,1,0-6h66a3,3,0,0,1,0,6Z"/><path class="cls-2" d="M84,98.6H55a3,3,0,0,1,0-6H84a3,3,0,0,1,0,6Z"/><path class="cls-2" d="M179,98.6H104a3,3,0,1,1,0-6h75a3,3,0,0,1,0,6Z"/><path class="cls-2" d="M114,195.6H55a3,3,0,0,1,0-6h59a3,3,0,0,1,0,6Z"/><path class="cls-2" d="M201,195.6H133a3,3,0,0,1,0-6h68a3,3,0,0,1,0,6Z"/><path class="cls-2" d="M84,161.6H55a3,3,0,0,1,0-6H84a3,3,0,0,1,0,6Z"/><path class="cls-2" d="M179,161.6H104a3,3,0,1,1,0-6h75a3,3,0,0,1,0,6Z"/><path class="cls-2" d="M201,65.6H167a3,3,0,1,1,0-6h34a3,3,0,0,1,0,6Z"/></svg>