<?xml version="1.0" encoding="utf-8"?>
<!-- Generator: Adobe Illustrator 19.1.0, SVG Export Plug-In . SVG Version: 6.00 Build 0)  -->
<svg version="1.1" id="Layer_1" xmlns="http://www.w3.org/2000/svg" xmlns:xlink="http://www.w3.org/1999/xlink" x="0px" y="0px"
	 viewBox="0 0 256 256" enable-background="new 0 0 256 256" xml:space="preserve">
<rect x="0" y="-0.8" fill="#3CC1A7" width="256" height="256"/>
<g>
	<path fill="none" stroke="#FFFFFF" stroke-width="5" stroke-miterlimit="10" d="M79.9,130.2l3.9,40.8c0.6,6.5,6.5,11.4,13,10.8
		l74-7c6.5-0.6,11.4-6.5,10.8-13l-3.9-40.8"/>
	<path fill="none" stroke="#FFFFFF" stroke-width="5" stroke-miterlimit="10" d="M162.6,124.8c1.8,18.6-11.9,35.1-30.5,36.8
		c-18.6,1.8-35.1-11.9-36.8-30.5"/>
	<path fill="none" stroke="#FFFFFF" stroke-width="5" stroke-miterlimit="10" d="M178.2,126l-3.9-40.8c-0.6-6.5-6.5-11.4-13-10.8
		l-74,7c-6.5,0.6-11.4,6.5-10.8,13l3.9,40.8"/>
	<path fill="none" stroke="#FFFFFF" stroke-width="5" stroke-miterlimit="10" d="M95.3,131.4c-1.8-18.6,11.9-35.1,30.5-36.8
		c18.6-1.8,35.1,11.9,36.8,30.5"/>
	<line fill="none" stroke="#FFFFFF" stroke-width="5" stroke-miterlimit="10" x1="79" y1="86" x2="179.8" y2="169.5"/>
	<line fill="none" stroke="#FFFFFF" stroke-width="5" stroke-miterlimit="10" x1="171.1" y1="77.3" x2="87.7" y2="178.1"/>
</g>
<line fill="none" stroke="#FFFFFF" stroke-width="5" stroke-linecap="round" stroke-linejoin="round" stroke-miterlimit="10" x1="209.7" y1="116.5" x2="226" y2="111.8"/>
<line fill="none" stroke="#FFFFFF" stroke-width="5" stroke-linecap="round" stroke-linejoin="round" stroke-miterlimit="10" x1="208.6" y1="138" x2="219.7" y2="140.3"/>
<line fill="none" stroke="#FFFFFF" stroke-width="5" stroke-linecap="round" stroke-linejoin="round" stroke-miterlimit="10" x1="210.7" y1="90.5" x2="202.1" y2="97.7"/>
<line fill="none" stroke="#FFFFFF" stroke-width="5" stroke-linecap="round" stroke-linejoin="round" stroke-miterlimit="10" x1="53" y1="130.1" x2="36.7" y2="134.8"/>
<line fill="none" stroke="#FFFFFF" stroke-width="5" stroke-linecap="round" stroke-linejoin="round" stroke-miterlimit="10" x1="54.1" y1="108.6" x2="43.1" y2="106.3"/>
<line fill="none" stroke="#FFFFFF" stroke-width="5" stroke-linecap="round" stroke-linejoin="round" stroke-miterlimit="10" x1="52" y1="156.1" x2="60.7" y2="148.8"/>
</svg>
