<?xml version="1.0" encoding="utf-8"?>
<!-- Generator: Adobe Illustrator 22.0.0, SVG Export Plug-In . SVG Version: 6.00 Build 0)  -->
<svg version="1.1" id="Layer_1" xmlns="http://www.w3.org/2000/svg" xmlns:xlink="http://www.w3.org/1999/xlink" x="0px" y="0px"
	 viewBox="0 0 256 256" style="enable-background:new 0 0 256 256;" xml:space="preserve">
<style type="text/css">
	.st0{fill:#FFFFFF;}
	.st1{fill:none;}
	.st2{clip-path:url(#SVGID_2_);}
	.st3{fill:#FFA000;}
	.st4{opacity:0.12;fill:url(#SVGID_3_);enable-background:new    ;}
	.st5{fill:#F57C00;}
	.st6{opacity:0.2;fill:url(#SVGID_4_);enable-background:new    ;}
	.st7{fill:#FFCA28;}
	.st8{fill:#FFFFFF;fill-opacity:0.2;}
	.st9{opacity:0.2;fill:#A52714;enable-background:new    ;}
	.st10{fill:url(#SVGID_5_);}
	.st11{fill:#757575;}
</style>
<rect x="0" class="st0" width="256" height="256"/>
<g>
	<path class="st1" d="M30,30h196v196H30V30z"/>
	<g>
		<g>
			<defs>
				<path id="SVGID_1_" d="M176.4,78.3c-0.4-2.3-2.4-3.7-4.7-3.3c-0.9,0.1-1.6,0.5-2.2,1.2l-21.2,21.3l-16.7-31.8
					c-1.1-2-3.5-2.7-5.5-1.7c-0.7,0.4-1.4,1-1.7,1.7L115.3,83L92.4,40.3c-1.1-2-3.5-2.7-5.5-1.7c-1.2,0.6-2,1.7-2.2,2.9L62.6,183.1
					l59.1,33.1c3.7,2.1,8.2,2.1,12,0l59.6-33.1L176.4,78.3z"/>
			</defs>
			<clipPath id="SVGID_2_">
				<use xlink:href="#SVGID_1_"  style="overflow:visible;"/>
			</clipPath>
			<g class="st2">
				<path class="st3" d="M62.6,183.1L84.8,41.7c0.4-2.3,2.5-3.7,4.7-3.4c1.3,0.2,2.4,1,2.9,2.2L115.3,83l9.1-17.3
					c1.1-2,3.5-2.7,5.5-1.7c0.7,0.4,1.4,1,1.7,1.7l61.7,117.5L62.6,183.1L62.6,183.1z"/>
				
					<linearGradient id="SVGID_3_" gradientUnits="userSpaceOnUse" x1="88.0796" y1="-99.3125" x2="79.913" y2="-103.5797" gradientTransform="matrix(1 0 0 1 0 234)">
					<stop  offset="0" style="stop-color:#A52714"/>
					<stop  offset="0.4" style="stop-color:#A52714;stop-opacity:0.5"/>
					<stop  offset="0.8" style="stop-color:#A52714;stop-opacity:0"/>
				</linearGradient>
				<path class="st4" d="M138.2,39.2L30,30v196l32.6-42.9L138.2,39.2z"/>
				<path class="st5" d="M139.1,128l-23.8-45.1L62.6,183.1L139.1,128z"/>
				
					<linearGradient id="SVGID_4_" gradientUnits="userSpaceOnUse" x1="122.7937" y1="-111.2063" x2="119.1391" y2="-114.8609" gradientTransform="matrix(1 0 0 1 0 234)">
					<stop  offset="0" style="stop-color:#A52714;stop-opacity:0.8"/>
					<stop  offset="0.5" style="stop-color:#A52714;stop-opacity:0.21"/>
					<stop  offset="1" style="stop-color:#A52714;stop-opacity:0"/>
				</linearGradient>
				<path class="st6" d="M30,30h196v196H30V30z"/>
				<path class="st7" d="M193.4,183.1l-17-104.8c-0.4-2.3-2.4-3.7-4.7-3.3c-0.9,0.1-1.6,0.5-2.2,1.2l-106.8,107l59.1,33.1
					c3.7,2.1,8.2,2.1,12,0L193.4,183.1z"/>
				<path class="st8" d="M176.4,78.3c-0.4-2.3-2.4-3.7-4.7-3.3c-0.9,0.1-1.6,0.5-2.2,1.2l-21.2,21.3l-16.7-31.8
					c-1.1-2-3.5-2.7-5.5-1.7c-0.7,0.4-1.4,1-1.7,1.7L115.3,83L92.4,40.3c-1.1-2-3.5-2.7-5.5-1.7c-1.2,0.6-2,1.7-2.2,2.9L62.6,183.1
					h-0.1l0.1,0.1l0.6,0.3l85-85.1l21.2-21.3c1.6-1.6,4.2-1.6,5.8,0c0.6,0.6,1,1.4,1.2,2.3l16.8,103.9l0.2-0.1L176.4,78.3z
					 M62.8,183l22-140.3c0.3-2.3,2.5-3.7,4.7-3.4c1.3,0.2,2.4,1,2.9,2.2L115.3,84l9.1-17.3c1.1-2,3.5-2.7,5.5-1.7
					c0.7,0.4,1.4,1,1.7,1.7l16.4,31.1L62.8,183z"/>
				<path class="st9" d="M133.7,215.3c-3.7,2.1-8.2,2.1-12,0l-59-33.1l-0.1,0.9l59.1,33.1c3.7,2.1,8.2,2.1,12,0l59.6-33.1l-0.2-1
					L133.7,215.3z"/>
				
					<linearGradient id="SVGID_5_" gradientUnits="userSpaceOnUse" x1="59.1223" y1="-164.2477" x2="195.5944" y2="-27.7755" gradientTransform="matrix(1 0 0 1 0 234)">
					<stop  offset="0" style="stop-color:#FFFFFF;stop-opacity:0.1"/>
					<stop  offset="1" style="stop-color:#FFFFFF;stop-opacity:0"/>
				</linearGradient>
				<path class="st10" d="M176.4,78.3c-0.4-2.3-2.4-3.7-4.7-3.3c-0.9,0.1-1.6,0.5-2.2,1.2l-21.2,21.3l-16.7-31.8
					c-1.1-2-3.5-2.7-5.5-1.7c-0.7,0.4-1.4,1-1.7,1.7L115.3,83L92.4,40.3c-1.1-2-3.5-2.7-5.5-1.7c-1.2,0.6-2,1.7-2.2,2.9L62.6,183.1
					l59.1,33.1c3.7,2.1,8.2,2.1,12,0l59.6-33.1L176.4,78.3z"/>
			</g>
		</g>
	</g>
	<circle class="st11" cx="177" cy="177" r="40.9"/>
	<path class="st0" d="M163.8,191.3c-1.7,0-3-1.4-3-3s1.4-3,3-3h2.1c1.7,0,3-1.4,3-3c0-1.7-1.4-3-3-3h-4.1c-1.7,0-3-1.4-3-3
		s1.4-3,3-3h7.2c1.2,0,2.1-0.9,2.1-2.1c0-1.2-0.9-2.1-2.1-2.1c-1.7,0-3-1.4-3-3c0-1.7,1.4-3,3-3h30.6c1.3,0,2.3,1.2,2.1,2.5
		l-4.1,24.3c-0.2,1-1,1.8-2.1,1.8h-31.6V191.3z M172.6,187.2h21l3.4-20.4h-21L172.6,187.2z M191,184.2h-14.8l2.4-14.3h14.8
		L191,184.2z M155.5,191.3c-1.7,0-3-1.4-3-3s1.4-3,3-3s3,1.4,3,3C158.6,189.9,157.3,191.3,155.5,191.3z"/>
</g>
</svg>
