<?xml version="1.0" encoding="UTF-8"?>
<svg xmlns="http://www.w3.org/2000/svg" width="256" height="256" viewBox="0 0 256 256">
  <!-- 白い背景 -->
  <rect x="0" y="0" width="256" height="256" fill="#FFFFFF"/>
  <!-- コネクティングライン -->
  <line x1="40" y1="128" x2="216" y2="128" stroke="#000" stroke-width="10" stroke-linecap="round"/>
  <!-- 鍵のアイコン -->
  <path d="M213.696 128H192V95.984C192 43.016 148.656 0 95.984 0 43.016 0 0 43.016 0 95.984V128h21.696V95.984C21.696 49.96 61.672 10.016 107.984 10.016c46.328 0 85.296 39.944 85.296 85.968V128z" fill="#000"/>
  <path d="M160 128c0-29.464-23.92-53.36-53.36-53.36-29.464 0-53.36 23.896-53.36 53.36V160h-17.68v-31.648c0-36.64 29.744-66.352 66.04-66.352 36.608 0 66.32 29.712 66.32 66.352V160H160v-32z" fill="#000"/>
</svg>
