<svg height="479" viewBox="0 0 479 479.84995" width="479" xmlns="http://www.w3.org/2000/svg">
  <rect width="479" height="479" fill="white"/>
  <path
    d="m293.773438 195.351562-72.097657 68.097657-34.601562-35.597657c-3.835938-3.949218-10.152344-4.039062-14.097657-.203124-3.949218 3.839843-4.039062 10.152343-.203124 14.101562l41.5 42.601562c3.855468 3.878907 10.085937 4.011719 14.101562.296876l79.300781-74.796876c1.925781-1.816406 3.050781-4.324218 3.125-6.96875.074219-2.644531-.90625-5.210937-2.726562-7.132812-3.859375-4.011719-10.222657-4.1875-14.300781-.398438zm0 0"/>
  <path
    d="m240.273438 90.550781c-82.398438 0-149.398438 67-149.398438 149.398438 0 82.402343 67 149.402343 149.398438 149.402343 82.402343 0 149.402343-67 149.402343-149.402343 0-82.398438-67-149.398438-149.402343-149.398438zm0 278.800781c-71.398438 0-129.398438-58.101562-129.398438-129.402343s58-129.398438 129.398438-129.398438c71.46875 0 129.402343 57.933594 129.402343 129.398438 0 71.464843-57.933593 129.402343-129.402343 129.402343zm0 0"/>
  <path
    d="m445.875 184.949219 3.300781-59.300781c.230469-3.980469-1.933593-7.71875-5.5-9.5l-52.800781-26.699219-26.699219-52.800781c-1.816406-3.535157-5.53125-5.6875-9.5-5.5l-59.402343 3.203124-49.5-32.703124c-3.335938-2.199219-7.660157-2.199219-11 0l-49.5 32.703124-59.296876-3.300781c-3.984374-.234375-7.71875 1.929688-9.5 5.5l-26.703124 52.800781-52.796876 26.699219c-3.539062 1.8125-5.6875 5.527344-5.5 9.5l3.296876 59.300781-32.699219 49.5c-2.199219 3.335938-2.199219 7.660157 0 11l32.601562 49.597657-3.300781 59.300781c-.230469 3.980469 1.929688 7.71875 5.5 9.5l52.800781 26.699219 26.699219 52.800781c1.8125 3.539062 5.527344 5.6875 9.5 5.5l59.300781-3.300781 49.5 32.699219c3.316407 2.269531 7.683594 2.269531 11 0l49.5-32.699219 59.300781 3.300781c3.980469.230469 7.714844-1.933594 9.5-5.5l26.699219-52.800781 52.800781-26.699219c3.535157-1.816406 5.6875-5.527344 5.5-9.5l-3.300781-59.300781 32.699219-49.5c2.199219-3.335938 2.199219-7.664063 0-11zm-18.601562 101.800781c-1.21875 1.789062-1.785157 3.941406-1.597657 6.101562l3.097657 56.097657-49.898438 25.199219c-1.902344.953124-3.445312 2.5-4.398438 4.402343l-25.203124 49.898438-56.097657-3.097657c-2.148437-.078124-4.269531.476563-6.101562 1.597657l-46.800781 30.902343-46.796876-30.902343c-1.625-1.097657-3.539062-1.691407-5.5-1.699219h-.5l-56.101562 3.101562-25.199219-49.902343c-.953125-1.902344-2.496093-3.445313-4.402343-4.398438l-50-25.101562 3.101562-56.097657c.078125-2.148437-.480469-4.269531-1.601562-6.101562l-30.898438-46.800781 30.898438-46.800781c1.222656-1.785157 1.789062-3.941407 1.601562-6.097657l-3.101562-56.101562 49.902343-25.199219c1.902344-.953125 3.445313-2.496094 4.398438-4.398438l25.199219-49.902343 56.101562 3.101562c2.144531.074219 4.265625-.480469 6.101562-1.601562l46.796876-30.898438 46.800781 30.898438c1.789062 1.222656 3.945312 1.789062 6.101562 1.601562l56.097657-3.101562 25.203124 49.902343c.953126 1.902344 2.496094 3.445313 4.398438 4.398438l49.898438 25.199219-3.097657 56.101562c-.078125 2.144531.480469 4.265625 1.597657 6.097657l30.902343 46.800781zm0 0"/>
</svg>
