<?xml version="1.0" encoding="utf-8"?>
<!-- Generator: Adobe Illustrator 19.1.0, SVG Export Plug-In . SVG Version: 6.00 Build 0)  -->
<svg version="1.1" id="Layer_1" xmlns="http://www.w3.org/2000/svg" xmlns:xlink="http://www.w3.org/1999/xlink" x="0px" y="0px"
	 viewBox="0 0 256 256" enable-background="new 0 0 256 256" xml:space="preserve">
<g>
	<rect fill="#3498DB" width="256" height="256"/>
</g>
<g>
	<g>
		<g>
			<path fill="#FFFFFF" d="M122,202.5c-0.4,0-0.8-0.1-1.2-0.3c-0.7-0.4-1.2-1.2-1.2-2.1V130c0-0.8,0.4-1.6,1.2-2l59.4-35.1
				c0.7-0.4,1.6-0.4,2.4,0c0.7,0.4,1.2,1.2,1.2,2.1v70.1c0,0.8-0.4,1.6-1.2,2l-59.4,35.1C122.8,202.4,122.4,202.5,122,202.5z
				 M124.4,131.4V196l54.6-32.3V99.1L124.4,131.4z"/>
		</g>
	</g>
	<g>
		<g>
			<path fill="#FFFFFF" d="M122,202.5c-0.4,0-0.8-0.1-1.2-0.3l-59.4-35.1c-0.7-0.4-1.2-1.2-1.2-2V94.9c0-0.9,0.5-1.6,1.2-2.1
				c0.7-0.4,1.6-0.4,2.4,0l59.4,35.1c1.1,0.7,1.5,2.1,0.8,3.2c-0.7,1.1-2.1,1.5-3.2,0.8L65,99.1v64.6l58.2,34.4
				c1.1,0.7,1.5,2.1,0.8,3.2C123.6,202.1,122.8,202.5,122,202.5z"/>
		</g>
	</g>
	<g>
		<g>
			<path fill="#FFFFFF" d="M62.6,97.3c-0.8,0-1.6-0.4-2-1.2c-0.7-1.1-0.3-2.6,0.8-3.2l59.4-35.1c1.1-0.7,2.6-0.3,3.2,0.8
				c0.7,1.1,0.3,2.6-0.8,3.2L63.8,97C63.4,97.2,63,97.3,62.6,97.3z"/>
		</g>
	</g>
	<g>
		<g>
			<path fill="#FFFFFF" d="M181.4,97.3c-0.4,0-0.8-0.1-1.2-0.3l-59.4-35.1c-1.1-0.7-1.5-2.1-0.8-3.2c0.7-1.1,2.1-1.5,3.2-0.8
				l59.4,35.1c1.1,0.7,1.5,2.1,0.8,3.2C183,96.9,182.2,97.3,181.4,97.3z"/>
		</g>
	</g>
</g>
<g>
	<g>
		<path fill="#2C3E50" d="M179.2,131c-9.9,0-19.2-4.1-25.7-11.5c-12.3-14.2-10.8-35.6,3.3-47.9c1-0.9,2.3-1.3,3.6-1.3
			c1.6,0,3.1,0.7,4.2,1.9c1,1.1,1.4,2.5,1.3,4c-0.1,1.5-0.8,2.8-1.9,3.8c-9.6,8.3-10.6,22.9-2.3,32.5c4.4,5,10.7,7.9,17.4,7.9
			c5.5,0,10.9-2,15.1-5.6c4.6-4,7.4-9.6,7.8-15.8s-1.6-12.1-5.6-16.7c-0.9-1-1.9-2-3-2.9c0.6,2.6-0.7,5.3-3.2,6.4
			c-0.7,0.3-1.4,0.4-2.2,0.4c-2.2,0-4.2-1.3-5.1-3.3l-5.3-12.4c-0.6-1.4-0.6-2.9,0-4.3c0.6-1.4,1.7-2.5,3.1-3l12.7-4.8
			c0.6-0.2,1.3-0.4,2-0.4c2.3,0,4.3,1.4,5.1,3.5c1.1,2.8-0.4,6-3.2,7.1l-0.1,0c2.8,1.8,5.3,3.9,7.4,6.4
			c12.3,14.2,10.8,35.5-3.3,47.8C195.3,128.2,187.4,131,179.2,131L179.2,131z"/>
	</g>
	<g>
		<path fill="#3498DB" d="M195.6,60.4c1.2,0,2.3,0.7,2.8,1.9c0.6,1.5-0.2,3.3-1.7,3.9l-5.3,2c4.5,1.9,8.4,4.7,11.6,8.4
			c11.4,13.1,10,33.2-3.1,44.6c-6,5.2-13.3,7.8-20.7,7.8c0,0,0,0,0,0c-8.8,0-17.6-3.8-23.8-10.9c-11.4-13.1-10-33.1,3.1-44.5
			c0.6-0.5,1.3-0.8,2-0.8c0.8,0,1.7,0.3,2.3,1c1.1,1.2,1,3.1-0.3,4.2c-10.6,9.2-11.7,25.4-2.5,36c5,5.8,12.1,8.8,19.3,8.8
			c5.9,0,11.9-2.1,16.7-6.3c10.6-9.2,11.7-25.4,2.5-36c-2.7-3.1-6.2-5.5-10-7l2.6,6c0.7,1.5-0.1,3.3-1.6,3.9
			c-0.4,0.2-0.8,0.2-1.2,0.2c-1.2,0-2.3-0.7-2.8-1.8l-5.3-12.4c-0.3-0.8-0.3-1.6,0-2.4c0.3-0.8,0.9-1.3,1.7-1.6l12.7-4.8
			C194.8,60.5,195.2,60.4,195.6,60.4 M195.6,55.4c-1,0-1.9,0.2-2.8,0.5l-12.7,4.8c-2,0.8-3.7,2.4-4.5,4.4c-0.8,2-0.8,4.3,0,6.3
			l5.3,12.4c1.3,2.9,4.1,4.9,7.4,4.9c1.1,0,2.1-0.2,3.2-0.6c1.7-0.7,3-2,3.9-3.5c3.2,4,4.8,9,4.4,14.2c-0.4,5.5-2.9,10.5-7,14.1
			c-3.7,3.2-8.5,5-13.4,5c-6,0-11.6-2.6-15.5-7c-7.4-8.5-6.5-21.5,2-28.9c3.3-2.9,3.7-8,0.8-11.3c-1.5-1.7-3.7-2.8-6-2.8
			c-1.9,0-3.8,0.7-5.2,2c-15.2,13.2-16.8,36.3-3.6,51.5c6.9,8,17,12.5,27.6,12.5c8.8,0,17.3-3.2,23.9-8.9
			c15.2-13.2,16.8-36.3,3.6-51.5c-1.5-1.8-3.2-3.4-5.1-4.8c1.8-2.1,2.4-5.2,1.4-8C201.9,57.5,198.8,55.4,195.6,55.4L195.6,55.4z"/>
	</g>
</g>
</svg>
