<?xml version="1.0" encoding="UTF-8"?>
<svg viewBox="0 0 256 256" version="1.1" xmlns="http://www.w3.org/2000/svg" xmlns:xlink="http://www.w3.org/1999/xlink">
    <!-- Generator: Sketch 43.2 (39069) - http://www.bohemiancoding.com/sketch -->
    <title>icon</title>
    <desc>Created with Sketch.</desc>
    <defs></defs>
    <g id="Page-1" stroke="none" stroke-width="1" fill="none" fill-rule="evenodd">
        <g id="icon" fill-rule="nonzero">
            <g id="netcore" transform="translate(4.000000, 4.000000)">
                <circle id="Oval" fill="#5C2D91" cx="125.907692" cy="122.092308" r="122.092308"></circle>
                <path d="M41.2824615,34.3384615 C7.4649139,64.4736172 -6.88963011,110.854352 3.99297402,154.823922 C14.8755782,198.793492 49.2065083,233.124422 93.176078,244.007026 C137.145648,254.88963 183.526383,240.535086 213.661538,206.717538 L41.2824615,34.3384615 Z" id="Shape" fill="#FFFFFF" opacity="0.1"></path>
                <path d="M32.0492308,142.123077 C30.6093448,142.145766 29.225712,141.564641 28.2338462,140.520615 C27.2153627,139.514396 26.650553,138.136812 26.6695385,136.705231 C26.6592583,135.275319 27.2227341,133.900987 28.2338462,132.889846 C29.2162297,131.827777 30.6025935,131.23164 32.0492308,131.249231 C33.4930272,131.245698 34.8739827,131.839509 35.8646154,132.889846 C36.893395,133.892168 37.4716266,135.26891 37.4670769,136.705231 C37.4805401,138.143318 36.9008969,139.523421 35.8646154,140.520615 C34.8648326,141.553116 33.4864307,142.132045 32.0492308,142.123077 Z" id="Shape" fill="#FFFFFF"></path>
                <path d="M107.860923,141.169231 L97.8646154,141.169231 L62.1144615,85.6935385 C61.2239492,84.3266825 60.482094,82.8685533 59.9015385,81.344 L59.5963077,81.344 C59.9360579,84.5114209 60.063522,87.6980236 59.9778462,90.8824615 L59.9778462,141.169231 L51.8510769,141.169231 L51.8510769,71.6147692 L62.4196923,71.6147692 L97.216,126.098462 C98.6658462,128.362256 99.6069744,129.913846 100.039385,130.753231 L100.230154,130.753231 C99.8275632,127.360475 99.6618287,123.943793 99.7341538,120.528 L99.7341538,71.6147692 L107.860923,71.6147692 L107.860923,141.169231 Z" id="Shape" fill="#FFFFFF"></path>
                <polygon id="Shape" fill="#FFFFFF" points="162.878769 141.169231 125.907692 141.169231 125.907692 71.6147692 161.161846 71.6147692 161.161846 78.9784615 134.225231 78.9784615 134.225231 102.099692 159.330462 102.099692 159.330462 109.425231 134.225231 109.425231 134.225231 133.538462 162.916923 133.538462"></polygon>
                <polygon id="Shape" fill="#FFFFFF" points="217.476923 78.9784615 197.255385 78.9784615 197.255385 141.169231 189.128615 141.169231 189.128615 78.9784615 169.136 78.9784615 169.136 71.6147692 217.476923 71.6147692"></polygon>
                <path d="M103.473231,188.48 C100.718704,189.814032 97.6802596,190.455772 94.6215385,190.349538 C90.5094895,190.534782 86.5177511,188.935305 83.6713846,185.961846 C80.8679493,182.823718 79.3908383,178.720632 79.5507692,174.515692 C79.3434234,169.915791 81.0090567,165.428217 84.1673846,162.077538 C87.2475505,158.922078 91.5114497,157.205443 95.9187692,157.346462 C98.5274618,157.257313 101.126155,157.712084 103.549538,158.681846 L103.549538,162.497231 C101.216321,161.205529 98.58535,160.547786 95.9187692,160.589538 C92.5168084,160.493718 89.2423834,161.88709 86.9526154,164.404923 C84.573125,167.115732 83.3416485,170.645965 83.5187692,174.248615 C83.3406079,177.661368 84.488992,181.010822 86.7236923,183.596308 C88.8928872,185.928856 91.9729902,187.197134 95.1556923,187.068308 C98.0851964,187.14499 100.978278,186.405206 103.511385,184.931692 L103.473231,188.48 Z" id="Shape" fill="#F2F2F2"></path>
                <path d="M119.078154,190.349538 C116.005104,190.449024 113.040101,189.210125 110.951385,186.953846 C108.865056,184.625554 107.781876,181.56797 107.937231,178.445538 C107.744773,175.141182 108.885502,171.897666 111.104,169.441231 C113.36959,167.23012 116.449758,166.056065 119.612308,166.198154 C122.605243,166.038777 125.518305,167.195639 127.586462,169.364923 C129.614326,171.808775 130.63727,174.932166 130.448,178.102154 C130.608089,181.319316 129.498266,184.470664 127.357538,186.877538 C125.229564,189.177527 122.210142,190.443736 119.078154,190.349538 L119.078154,190.349538 Z M119.345231,169.479385 C117.219136,169.389886 115.168282,170.274844 113.774769,171.883077 C112.306668,173.773458 111.574572,176.132434 111.714462,178.521846 C111.581212,180.840205 112.315663,183.125162 113.774769,184.931692 C115.182219,186.516605 117.227416,187.385113 119.345231,187.297231 C121.420181,187.419695 123.434881,186.574367 124.801231,185.008 C126.188355,183.112566 126.863748,180.789214 126.708923,178.445538 C126.85978,176.090454 126.185203,173.756415 124.801231,171.844923 C123.453483,170.245341 121.434028,169.369773 119.345231,169.479385 L119.345231,169.479385 Z" id="Shape" fill="#F2F2F2"></path>
                <path d="M148.265846,170.624 C147.441758,170.084129 146.463335,169.829471 145.480615,169.899077 C143.91982,169.955872 142.489554,170.785426 141.665231,172.112 C140.529641,173.90989 139.982834,176.017096 140.100923,178.140308 L140.100923,189.815385 L136.285538,189.815385 L136.285538,166.923077 L140.100923,166.923077 L140.100923,171.692308 L140.100923,171.692308 C140.520359,170.216619 141.354637,168.89237 142.504615,167.876923 C143.499656,167.013367 144.773569,166.539038 146.091077,166.541538 C146.828616,166.508393 147.565927,166.611875 148.265846,166.846769 L148.265846,170.624 Z" id="Shape" fill="#F2F2F2"></path>
                <path d="M170.624,179.323077 L154.484923,179.323077 C154.376631,181.455968 155.07081,183.552117 156.430769,185.198769 C157.861142,186.625384 159.831734,187.374763 161.848615,187.259077 C164.435038,187.233281 166.936472,186.332227 168.945231,184.702769 L168.945231,188.136615 C166.586261,189.691478 163.792812,190.453328 160.971077,190.311385 C158.088507,190.45686 155.2911,189.309923 153.340308,187.182769 C151.354041,184.705186 150.361163,181.576939 150.555077,178.407385 C150.417946,175.230037 151.495662,172.119667 153.569231,169.708308 C155.480179,167.500844 158.281471,166.268276 161.2,166.350769 C163.836567,166.20305 166.395457,167.271598 168.144,169.250462 C169.900777,171.567019 170.767305,174.437392 170.585846,177.339077 L170.624,179.323077 Z M166.808615,176.232615 C166.885996,174.464668 166.346499,172.724789 165.282462,171.310769 C164.224761,170.115736 162.679082,169.469361 161.085538,169.555692 C159.425386,169.535334 157.833137,170.21377 156.697846,171.425231 C155.442071,172.753691 154.652035,174.454277 154.446769,176.270769 L166.808615,176.232615 Z" id="Shape" fill="#F2F2F2"></path>
            </g>
        </g>
    </g>
</svg>