<svg width="75" height="75" xmlns="http://www.w3.org/2000/svg">
 <defs>
  <clipPath id="clipPath3944">
   <path id="path3946" d="m0,768l1024,0l0,-768l-1024,0l0,768z"/>
  </clipPath>
 </defs>
 <metadata id="metadata7">image/svg+xml</metadata>
 <g>
  <title>background</title>
  <rect fill="none" id="canvas_background" height="77" width="77" y="-1" x="-1"/>
 </g>
 <g>
  <title>Layer 1</title>
  <g id="layer1">
   <g id="g4088">
    <path fill="#003366" fill-rule="nonzero" id="path3962" d="m12.011284,19.827212c0,0 -0.48349,10.24702 14.71052,25.16459c15.19369,14.9177 16.92053,20.977 16.09174,25.1644l11.05004,0c0,0 1.00435,-17.3113 -16.1233,-29.4665c0,0 -11.79058,-10.4863 -13.71197,-18.81224c0,0 -5.80414,-0.003 -9.84245,-3.25108c0,0 -2.1778,-1.30585 -2.17458,1.20083"/>
    <path fill="#003366" fill-rule="nonzero" id="path3966" d="m35.530344,43.495802c3.05104,2.1653 5.51713,4.4961 7.52582,6.8639c1.46528,-1.5628 3.10515,-3.2401 4.94699,-5.0481c15.19369,-14.91767 14.71052,-25.48423 14.71052,-25.48423c0.0032,-2.50699 -2.1749,-1.12095 -2.1749,-1.12095c-4.03831,3.24818 -9.84244,3.33096 -9.84244,3.33096c-1.92108,8.32594 -13.71198,18.97202 -13.71198,18.97202c-0.79819,0.5666 -1.54453,1.148 -2.26606,1.7362c0.51087,0.4816 0.81205,0.7502 0.81205,0.7502"/>
    <path fill="#003366" fill-rule="nonzero" id="path3970" d="m35.384684,59.680602c-1.9607,-2.5352 -4.57592,-5.5029 -8.0354,-9.0384c-7.05489,10.1391 -6.4883,20.1581 -6.4883,20.1581l11.05005,0c-0.49026,-2.5769 -0.08439,-5.8373 3.47365,-11.1197"/>
    <path fill="#003366" fill-rule="nonzero" id="path3974" d="m31.797414,22.805812l10.94858,0c0,0 1.4305,-0.20132 1.08165,1.69269c-0.49605,2.69351 -6.40648,8.15169 -6.40648,8.15169c0,0 -4.32145,-4.01287 -6.24606,-7.78222c0,0 -0.77726,-2.06216 0.62231,-2.06216"/>
    <path fill="#003366" fill-rule="nonzero" id="path3978" d="m56.569044,11.482972c0,2.64228 -2.14205,4.78433 -4.78433,4.78433c-2.64228,0 -4.78465,-2.14205 -4.78465,-4.78433c0,-2.64261 2.14237,-4.78465 4.78465,-4.78465c2.64228,0 4.78433,2.14204 4.78433,4.78465"/>
    <path fill="#003366" fill-rule="nonzero" id="path3982" d="m28.391184,11.482972c0,2.64228 -2.14204,4.78433 -4.78433,4.78433c-2.64228,0 -4.78464,-2.14205 -4.78464,-4.78433c0,-2.64261 2.14236,-4.78465 4.78464,-4.78465c2.64229,0 4.78433,2.14204 4.78433,4.78465"/>
    <path fill="#003366" fill-rule="nonzero" id="path3986" d="m42.756304,7.615452c0,2.64227 -2.14204,4.78432 -4.78433,4.78432c-2.64228,0 -4.78464,-2.14205 -4.78464,-4.78432c0,-2.64262 2.14236,-4.78466 4.78464,-4.78466c2.64229,0 4.78433,2.14204 4.78433,4.78466"/>
   </g>
  </g>
 </g>
</svg>