<?xml version="1.0" encoding="UTF-8"?><svg xmlns="http://www.w3.org/2000/svg" xmlns:xlink="http://www.w3.org/1999/xlink" viewBox="0 0 400 400"><defs><style>.cls-1{fill:url(#linear-gradient);}.cls-2,.cls-3{fill:#17579b;}.cls-4{fill:#5e0b9e;}.cls-5{fill:none;stroke:#5e0b9e;stroke-linecap:round;stroke-linejoin:round;stroke-width:20.47px;}.cls-6{mix-blend-mode:multiply;}.cls-3{fill-rule:evenodd;}.cls-7{isolation:isolate;}.cls-8{fill:url(#linear-gradient-2);opacity:.56;}</style><linearGradient id="linear-gradient" x1="-9.06" y1="-6.34" x2="463.22" y2="465.94" gradientTransform="matrix(1, 0, 0, 1, 0, 0)" gradientUnits="userSpaceOnUse"><stop offset="0" stop-color="#b475e5"/><stop offset=".13" stop-color="#af77e5"/><stop offset=".27" stop-color="#a37de7"/><stop offset=".41" stop-color="#8e87ea"/><stop offset=".55" stop-color="#7195ee"/><stop offset=".7" stop-color="#4ba7f4"/><stop offset=".84" stop-color="#1ebdfa"/><stop offset=".92" stop-color="#0cf"/></linearGradient><linearGradient id="linear-gradient-2" x1="67.27" y1="66.77" x2="268.2" y2="267.7" gradientTransform="matrix(1, 0, 0, 1, 0, 0)" gradientUnits="userSpaceOnUse"><stop offset="0" stop-color="#fff"/><stop offset="1" stop-color="#fff" stop-opacity="0"/></linearGradient></defs><g class="cls-7"><g id="Layer_1"><rect class="cls-1" x="-9.06" y="-6.34" width="416.19" height="416.19"/><g><g><rect class="cls-8" x="59.12" y="58.62" width="217.23" height="217.23" rx="27.83" ry="27.83"/><rect class="cls-4" x="89.05" y="209.89" width="157.37" height="33.21" rx="4.5" ry="4.5"/><rect class="cls-4" x="89.05" y="91.36" width="157.37" height="33.21" rx="4.5" ry="4.5"/><path class="cls-5" d="M113.44,107.97v43.26c0,8.09,6.56,14.65,14.65,14.65h39.6"/><path class="cls-5" d="M223.97,223.79v-43.26c0-8.09-6.56-14.65-14.65-14.65h-39.6"/><circle class="cls-4" cx="167.73" cy="165.88" r="27.17"/></g><g class="cls-6"><polygon class="cls-3" points="288.06 149.52 288.06 253.79 314.56 227.24 329.44 242.15 277.35 294.37 225.25 242.15 240.14 227.24 267.01 254.17 267.01 149.52 288.06 149.52"/><rect class="cls-2" x="213.82" y="319.78" width="127.06" height="21.6"/></g></g></g></g></svg>