<svg width="256" height="256" viewBox="0 0 256 256" fill="none" xmlns="http://www.w3.org/2000/svg">
<rect width="256" height="256" fill="white"/>
<path d="M195.8 168.075C195.8 183.438 183.35 195.888 167.987 195.888H87.8134C72.4498 195.888 60 183.438 60 168.075V87.9017C60 72.5381 72.4498 60 87.8134 60H167.987C183.35 60 195.8 72.5381 195.8 87.9017V168.075Z" fill="#123770"/>
<path d="M115.803 147.149C119.247 143.793 120.925 139.643 120.925 134.875C120.925 130.019 119.247 125.957 115.803 122.514C112.448 119.159 108.298 117.393 103.53 117.393C98.6739 117.393 94.6123 119.159 91.1687 122.514C87.8134 125.957 86.0475 130.019 86.0475 134.875C86.0475 139.643 87.8134 143.793 91.1687 147.149C94.6123 150.592 98.6739 152.27 103.53 152.27C108.298 152.27 112.448 150.592 115.803 147.149ZM133.992 134.875C133.992 143.352 131.079 150.504 125.075 156.42C119.159 162.424 111.918 165.338 103.53 165.338C95.0537 165.338 87.9017 162.424 81.8976 156.42C75.9817 150.504 72.9796 143.352 72.9796 134.875C72.9796 126.399 75.9817 119.247 81.8976 113.243C87.9017 107.327 95.0537 104.325 103.53 104.325C110.064 104.325 115.892 106.179 120.925 109.711V86.9304H133.992V134.875Z" fill="white"/>
<path d="M155.713 117.393V134.875C155.713 139.643 157.391 143.793 160.835 147.237C164.278 150.592 168.34 152.27 173.196 152.27V165.338C164.72 165.338 157.568 162.424 151.563 156.42C145.648 150.504 142.646 143.352 142.646 134.875V86.9304H155.713V104.325H173.196V117.393H155.713Z" fill="white"/>
</svg>
