<svg xmlns="http://www.w3.org/2000/svg" width="256" height="256" viewBox="0 0 256 256">
  <defs>
    <linearGradient id="xcode-archive-stepicon-a" x1="50%" x2="50%" y1="0%" y2="100%">
      <stop offset="0%" stop-color="#54C3FA"/>
      <stop offset="100%" stop-color="#1586F5"/>
    </linearGradient>
    <linearGradient id="xcode-archive-stepicon-b" x1="62.639%" x2="155.019%" y1="39.956%" y2="142.072%">
      <stop offset="0%" stop-color="#FFF"/>
      <stop offset="100%" stop-color="#FFF" stop-opacity="0"/>
    </linearGradient>
    <linearGradient id="xcode-archive-stepicon-c" x1="50%" x2="70.782%" y1="0%" y2="100%">
      <stop offset="0%" stop-color="#135EA7" stop-opacity=".855"/>
      <stop offset="100%" stop-color="#1E568F"/>
    </linearGradient>
  </defs>
  <g fill="none" fill-rule="evenodd">
    <rect width="256" height="256" fill="url(#xcode-archive-stepicon-a)"/>
    <path fill="url(#xcode-archive-stepicon-b)" d="M83.8777813,24.0167206 C89.7658802,24.1928677 93.0817914,28.9403593 93.1294731,28.9403593 C98.8056887,28.9403593 102.802098,28.9403593 105.162854,28.9403593 C105.162854,20.4696992 105.162854,4.08988294 105.162854,1.58831011 C101.411008,1.58831011 99.9703677,1.58831011 93.1294731,1.58831011 C90.091692,4.02731666 88.9376482,5.54015866 84.6718137,5.74588046 C78.1610914,6.059863 77.7129304,1.42108547e-14 55.1003005,1.42108547e-14 C32.4876705,1.42108547e-14 11.100063,10.4987911 0.251475674,22.7374871 C2.89677857,21.9380581 4.41304652,21.4837596 6.40013686,20.4696992 C19.1395031,13.9684912 31.431747,12.7227067 40.8602111,20.4696992 C51.75933,29.4250699 54.5895882,50.2735105 52.9514825,80.9289994 C51.5202473,107.713114 48.7928513,136.699167 45.8522086,208.440252 C45.644426,213.509399 49.6265709,219 59.9925409,219 C67.6075987,219 72.8268225,213.349173 72.8268225,208.440252 C72.8268225,178.917063 69.9173327,126.677237 68.3552696,80.9289994 C67.2650712,49.0002934 63.7230459,23.4137761 83.8777813,24.0167206 Z" transform="rotate(15 22.81 375.212)"/>
    <path fill="url(#xcode-archive-stepicon-c)" fill-rule="nonzero" d="M182.521849,81.5492192 L162.886965,101.184103 C168.601731,108.607845 172,117.907068 172,128 C172,138.348788 168.427254,147.863117 162.447908,155.376841 L182.135764,175.064696 C184.580047,171.305193 186,166.818421 186,162 L186,94 C186,89.4411779 184.728929,85.1792304 182.521849,81.5492192 Z M175.66289,74.2660418 C171.785219,71.5762502 167.076686,70 162,70 L94,70 C89.1815794,70 84.6948065,71.419953 80.9353041,73.8642363 L100.623159,93.5520916 C108.136883,87.5727456 117.651212,84 128,84 C138.604264,84 148.33236,87.7513206 155.92963,93.9993026 L175.66289,74.2660418 Z M155.738008,108.33306 L135.571068,128.5 L155.317308,148.246241 C159.516096,142.590322 162,135.585234 162,128 C162,120.671673 159.681503,113.884859 155.738008,108.33306 Z M148.814837,101.114095 C143.062986,96.6545742 135.841497,94 128,94 C120.414766,94 113.409678,96.4839045 107.753759,100.682692 L128.5,121.428932 L148.814837,101.114095 Z M101.184103,162.886965 L81.5492192,182.521849 C85.1792304,184.728929 89.4411779,186 94,186 L162,186 C166.818421,186 171.305193,184.580047 175.064696,182.135764 L155.376841,162.447908 C147.863117,168.427254 138.348788,172 128,172 C117.907068,172 108.607845,168.601731 101.184103,162.886965 Z M93.9993026,155.92963 C87.7513206,148.33236 84,138.604264 84,128 C84,117.651212 87.5727456,108.136883 93.5520916,100.623159 L73.8642363,80.9353041 C71.419953,84.6948065 70,89.1815794 70,94 L70,162 C70,167.076686 71.5762502,171.785219 74.2660418,175.66289 L93.9993026,155.92963 Z M128.5,135.571068 L108.33306,155.738008 C113.884859,159.681503 120.671673,162 128,162 C135.585234,162 142.590322,159.516096 148.246241,155.317308 L128.5,135.571068 Z M121.428932,128.5 L100.682692,107.753759 C96.4839045,113.409678 94,120.414766 94,128 C94,135.841497 96.6545742,143.062986 101.114095,148.814837 L121.428932,128.5 Z M196.447908,189.376841 L196.535534,189.464466 L195.653859,190.346141 C194.038345,192.262184 192.262184,194.038345 190.346141,195.653859 L189.464466,196.535534 L189.376841,196.447908 C181.863117,202.427254 172.348788,206 162,206 L94,206 C69.699471,206 50,186.300529 50,162 L50,94 C50,69.699471 69.699471,50 94,50 L162,50 C186.300529,50 206,69.699471 206,94 L206,162 C206,172.348788 202.427254,181.863117 196.447908,189.376841 Z" style="mix-blend-mode:multiply"/>
  </g>
</svg>
