<?xml version="1.0" encoding="UTF-8"?>
<svg width="256px" height="256px" viewBox="0 0 256 256" version="1.1" xmlns="http://www.w3.org/2000/svg" xmlns:xlink="http://www.w3.org/1999/xlink">
    <!-- Generator: Sketch 50.2 (55047) - http://www.bohemiancoding.com/sketch -->
    <title>xcode-archive</title>
    <desc>Created with Sketch.</desc>
    <defs>
        <linearGradient x1="50%" y1="0%" x2="50%" y2="100%" id="linearGradient-1">
            <stop stop-color="#54C3FA" offset="0%"></stop>
            <stop stop-color="#1586F5" offset="100%"></stop>
        </linearGradient>
        <rect id="path-2" x="0" y="0" width="256" height="256"></rect>
        <linearGradient x1="62.6389714%" y1="39.9557359%" x2="155.019247%" y2="142.071588%" id="linearGradient-4">
            <stop stop-color="#FFFFFF" offset="0%"></stop>
            <stop stop-color="#FFFFFF" stop-opacity="0" offset="100%"></stop>
        </linearGradient>
        <linearGradient x1="50%" y1="0%" x2="70.7817359%" y2="100%" id="linearGradient-5">
            <stop stop-color="#135EA7" stop-opacity="0.855383832" offset="0%"></stop>
            <stop stop-color="#1E568F" offset="100%"></stop>
        </linearGradient>
    </defs>
    <g id="New-Icons" stroke="none" stroke-width="1" fill="none" fill-rule="evenodd">
        <g id="Xcode-Archive">
            <g id="xcode-archive">
                <mask id="mask-3" fill="white">
                    <use xlink:href="#path-2"></use>
                </mask>
                <use id="Rectangle" fill="url(#linearGradient-1)" xlink:href="#path-2"></use>
                <g id="hammer" mask="url(#mask-3)" fill="url(#linearGradient-4)">
                    <g transform="translate(120.742663, 126.367897) rotate(15.000000) translate(-120.742663, -126.367897) translate(67.742663, 16.867897)" id="Oval">
                        <path d="M83.8777813,24.0167206 C89.7658802,24.1928677 93.0817914,28.9403593 93.1294731,28.9403593 C98.8056887,28.9403593 102.802098,28.9403593 105.162854,28.9403593 C105.162854,20.4696992 105.162854,4.08988294 105.162854,1.58831011 C101.411008,1.58831011 99.9703677,1.58831011 93.1294731,1.58831011 C90.091692,4.02731666 88.9376482,5.54015866 84.6718137,5.74588046 C78.1610914,6.059863 77.7129304,1.42108547e-14 55.1003005,1.42108547e-14 C32.4876705,1.42108547e-14 11.100063,10.4987911 0.251475674,22.7374871 C2.89677857,21.9380581 4.41304652,21.4837596 6.40013686,20.4696992 C19.1395031,13.9684912 31.431747,12.7227067 40.8602111,20.4696992 C51.75933,29.4250699 54.5895882,50.2735105 52.9514825,80.9289994 C51.5202473,107.713114 48.7928513,136.699167 45.8522086,208.440252 C45.644426,213.509399 49.6265709,219 59.9925409,219 C67.6075987,219 72.8268225,213.349173 72.8268225,208.440252 C72.8268225,178.917063 69.9173327,126.677237 68.3552696,80.9289994 C67.2650712,49.0002934 63.7230459,23.4137761 83.8777813,24.0167206 Z"></path>
                    </g>
                </g>
                <path d="M94,70 C80.745166,70 70,80.745166 70,94 L70,162 C70,175.254834 80.745166,186 94,186 L162,186 C175.254834,186 186,175.254834 186,162 L186,94 C186,80.745166 175.254834,70 162,70 L94,70 Z M94,50 L162,50 C186.300529,50 206,69.699471 206,94 L206,162 C206,186.300529 186.300529,206 162,206 L94,206 C69.699471,206 50,186.300529 50,162 L50,94 C50,69.699471 69.699471,50 94,50 Z" id="Rectangle-7" fill="url(#linearGradient-5)" fill-rule="nonzero" style="mix-blend-mode: multiply;" mask="url(#mask-3)"></path>
                <g id="Group-2" mask="url(#mask-3)" fill="url(#linearGradient-5)" fill-rule="nonzero">
                    <g transform="translate(64.000000, 64.000000)">
                        <polygon id="Line-2" style="mix-blend-mode: multiply;" points="-3.53553391 3.53553391 3.53553391 -3.53553391 132.535534 125.464466 125.464466 132.535534"></polygon>
                        <polygon id="Line-2-Copy" style="mix-blend-mode: multiply;" points="125.464466 -3.53553391 132.535534 3.53553391 3.53553391 132.535534 -3.53553391 125.464466"></polygon>
                    </g>
                </g>
                <g id="Group" mask="url(#mask-3)" fill="url(#linearGradient-5)" fill-rule="nonzero">
                    <g transform="translate(84.000000, 84.000000)" id="Rectangle-7-Copy">
                        <path d="M44,10 C25.2223185,10 10,25.2223185 10,44 C10,62.7776815 25.2223185,78 44,78 C62.7776815,78 78,62.7776815 78,44 C78,25.2223185 62.7776815,10 44,10 Z M44,0 C68.300529,0 88,19.699471 88,44 C88,68.300529 68.300529,88 44,88 C19.699471,88 0,68.300529 0,44 C0,19.699471 19.699471,0 44,0 Z" style="mix-blend-mode: multiply;"></path>
                    </g>
                </g>
            </g>
        </g>
    </g>
</svg>