<?xml version="1.0" encoding="utf-8"?>
<!-- Generator: Adobe Illustrator 19.1.0, SVG Export Plug-In . SVG Version: 6.00 Build 0)  -->
<svg version="1.1" id="Layer_1" xmlns="http://www.w3.org/2000/svg" xmlns:xlink="http://www.w3.org/1999/xlink" x="0px" y="0px"
	 viewBox="-351 153 256 256" style="enable-background:new -351 153 256 256;" xml:space="preserve">
<style type="text/css">
	.st0{fill:#2EA9E0;}
	.st1{fill:#6D6E71;}
	.st2{fill:#FFFFFF;}
</style>
<g>
	<rect x="-351" y="153" class="st0" width="256" height="256"/>
</g>
<g>
	<g>
		<g>
			<g>
				<path class="st1" d="M-171.2,319.6c1.3,7.7-3.9,15.1-11.6,16.4l-83.3,14.1c-7.7,1.3-14.7-4-15.6-11.8l-7.6-68.8
					c-0.9-7.8,4.8-15,12.5-16.1l77.6-10.9c7.7-1.1,15.2,4.3,16.5,12L-171.2,319.6z"/>
			</g>
			<g>
				<path class="st2" d="M-268.4,352.7c-3.4,0-6.7-1.1-9.4-3.1c-3.5-2.6-5.7-6.5-6.2-11l-7.6-68.8c-1-9,5.5-17.4,14.5-18.7
					l77.6-10.9c9.1-1.3,17.7,5,19.2,14l11.5,65.1c1.5,9-4.5,17.6-13.5,19.1l-83.3,14.1C-266.6,352.6-267.5,352.7-268.4,352.7z
					 M-197.2,244.7c-0.5,0-1.1,0-1.6,0.1l-77.6,10.9c-6.5,0.9-11.2,7-10.5,13.5l7.6,68.8c0.4,3.1,1.9,5.9,4.4,7.7
					c2.4,1.8,5.4,2.5,8.5,2l83.3-14.1c6.4-1.1,10.7-7.2,9.7-13.7l-11.5-65.1C-186,249.1-191.4,244.7-197.2,244.7z"/>
			</g>
		</g>
		<g>
			
				<rect x="-297" y="292.3" transform="matrix(0.8557 0.5175 -0.5175 0.8557 119.1994 161.8519)" class="st2" width="132.8" height="4.7"/>
		</g>
		<g>
			
				<rect x="-235.5" y="229.9" transform="matrix(0.7545 0.6563 -0.6563 0.7545 137.9879 225.9932)" class="st2" width="4.7" height="135"/>
		</g>
		<g>
			<path class="st2" d="M-229.8,329.5c-18.9,0-34.3-15.6-34.3-34.9s15.4-34.9,34.3-34.9c18.9,0,34.3,15.6,34.3,34.9
				S-210.9,329.5-229.8,329.5z M-229.8,264.5c-16.3,0-29.5,13.5-29.5,30.1s13.2,30.1,29.5,30.1c16.3,0,29.5-13.5,29.5-30.1
				S-213.5,264.5-229.8,264.5z"/>
		</g>
	</g>
	<g>
		<g>
			<path class="st0" d="M-235.8,233.3c8-39.4,37.3-32.2,37.3-32.2l27.6,5.6c6.5,9.8,14.6,3,14.6,3l10.3,2.1l-4.7,23.3l-10.8-2.2
				c-6-9.1-14-2.9-14-2.9l-27.6-5.6c0,0,1.9-8.7-1.8-9.4C-225.9,210.7-235.8,233.3-235.8,233.3z"/>
			<path class="st2" d="M-150.7,237.5c-0.2,0-0.3,0-0.5,0l-10.8-2.2c-0.6-0.1-1.2-0.5-1.5-1c-1.5-2.2-3.2-3.5-5-3.8
				c-2.9-0.5-5.5,1.5-5.6,1.5c-0.5,0.4-1.2,0.6-1.9,0.4l-27.6-5.6c-0.6-0.1-1.2-0.5-1.5-1c-0.3-0.5-0.5-1.2-0.3-1.8
				c0.6-2.7,0.6-5.9,0-6.6c-18.9-3.8-28.1,16.7-28.2,16.9c-0.5,1.1-1.7,1.7-2.9,1.3c-1.2-0.4-1.8-1.5-1.6-2.7
				c2.9-14.2,8.8-24.3,17.6-29.9c10.9-6.9,22.1-4.3,22.6-4.1l27.5,5.6c0.6,0.1,1.2,0.5,1.5,1c1.6,2.5,3.5,3.9,5.5,4.2
				c3,0.5,5.6-1.7,5.6-1.7c0.6-0.5,1.3-0.6,2-0.5l10.3,2.1c1.3,0.3,2.1,1.5,1.8,2.8l-4.7,23.3c-0.1,0.6-0.5,1.2-1,1.5
				C-149.8,237.3-150.2,237.5-150.7,237.5z M-160.1,230.8l7.5,1.5l3.8-18.7l-7-1.4c-1.5,1-4.7,2.6-8.3,2c-3.1-0.5-5.9-2.3-8.2-5.4
				l-26.7-5.4c-0.2,0-9.9-2.3-19,3.6c-4.6,2.9-8.3,7.3-11.1,13.2c5.5-5.2,13.7-9.7,24.7-7.5c1.2,0.2,2.2,0.9,3,2
				c1.4,2.1,1.3,5.5,1.1,7.8l24.4,5c1.5-0.9,4.7-2.4,8.3-1.8C-164.8,226.2-162.2,227.9-160.1,230.8z"/>
		</g>
		<g>
			<path class="st0" d="M-195.4,226l-26.5,121.6c0,0,4.7,4,8.2,4.7c4.4,0.9,10.7-0.8,10.7-0.8l21.6-122.6L-195.4,226z"/>
			<path class="st2" d="M-210.8,354.9c-1.2,0-2.3-0.1-3.4-0.3c-4-0.8-8.7-4.8-9.3-5.2c-0.7-0.6-1-1.5-0.8-2.3l26.5-121.6
				c0.3-1.3,1.5-2.1,2.8-1.8l14,2.9c1.3,0.3,2.1,1.5,1.9,2.7l-21.6,122.6c-0.2,0.9-0.8,1.6-1.7,1.9
				C-202.6,353.8-206.7,354.9-210.8,354.9z M-219.3,346.7c1.8,1.3,4.3,3,6,3.3c2.5,0.5,6,0,8.2-0.4l20.9-118.8l-9.5-2L-219.3,346.7z
				"/>
		</g>
	</g>
</g>
</svg>
