<?xml version="1.0" encoding="utf-8"?>
<!-- Generator: Adobe Illustrator 19.1.0, SVG Export Plug-In . SVG Version: 6.00 Build 0)  -->
<svg version="1.1" id="Layer_1" xmlns="http://www.w3.org/2000/svg" xmlns:xlink="http://www.w3.org/1999/xlink" x="0px" y="0px"
	 viewBox="0 0 256 256" enable-background="new 0 0 256 256" xml:space="preserve">
<rect x="0" y="0" fill="#2EA9E0" width="256" height="256"/>
<g>
	<g>
		<g>
			<path fill="#6D6E71" d="M179.8,166.6c1.3,7.7-3.9,15.1-11.6,16.4l-83.3,14.1c-7.7,1.3-14.7-4-15.6-11.8l-7.6-68.8
				c-0.9-7.8,4.8-15,12.5-16.1l77.6-10.9c7.7-1.1,15.2,4.3,16.5,12L179.8,166.6z"/>
			<path fill="none" stroke="#FFFFFF" stroke-width="4.7407" stroke-miterlimit="10" d="M179.8,166.6c1.3,7.7-3.9,15.1-11.6,16.4
				l-83.3,14.1c-7.7,1.3-14.7-4-15.6-11.8l-7.6-68.8c-0.9-7.8,4.8-15,12.5-16.1l77.6-10.9c7.7-1.1,15.2,4.3,16.5,12L179.8,166.6z"/>
		</g>
		<line fill="none" stroke="#FFFFFF" stroke-width="4.7407" stroke-miterlimit="10" x1="63.6" y1="107.3" x2="177.2" y2="176"/>
		<line fill="none" stroke="#FFFFFF" stroke-width="4.7407" stroke-miterlimit="10" x1="73.6" y1="195.4" x2="162.2" y2="93.5"/>
		
			<ellipse fill="none" stroke="#FFFFFF" stroke-width="4.7407" stroke-linecap="round" stroke-linejoin="round" stroke-miterlimit="10" cx="121.2" cy="141.6" rx="31.9" ry="32.5"/>
	</g>
	<g>
		
			<path fill="#2EA9E0" stroke="#FFFFFF" stroke-width="4.7407" stroke-linecap="round" stroke-linejoin="round" stroke-miterlimit="10" d="
			M115.2,80.3c8-39.4,37.3-32.2,37.3-32.2l27.6,5.6c6.5,9.8,14.6,3,14.6,3l10.3,2.1l-4.7,23.3l-10.8-2.2c-6-9.1-14-2.9-14-2.9
			l-27.6-5.6c0,0,1.9-8.7-1.8-9.4C125.1,57.7,115.2,80.3,115.2,80.3z"/>
		
			<path fill="#2EA9E0" stroke="#FFFFFF" stroke-width="4.7407" stroke-linecap="round" stroke-linejoin="round" stroke-miterlimit="10" d="
			M155.6,73l-26.5,121.6c0,0,4.7,4,8.2,4.7c4.4,0.9,10.7-0.8,10.7-0.8l21.6-122.6L155.6,73z"/>
	</g>
</g>
</svg>
