<?xml version="1.0" encoding="UTF-8"?>
<svg version="1.1" xmlns="http://www.w3.org/2000/svg" width="1024" height="1024">
<path d="M0 0 C337.92 0 675.84 0 1024 0 C1024 337.92 1024 675.84 1024 1024 C686.08 1024 348.16 1024 0 1024 C0 686.08 0 348.16 0 0 Z M263.3125 293.75 C247.57530382 312.7704961 243.32627859 333.51419185 242.38671875 357.390625 C242.30351041 359.39170738 242.22028976 361.39278928 242.13661575 363.39385223 C242.04750254 365.5308065 241.95948611 367.66780399 241.87161255 369.80480957 C240.84875495 394.58818117 239.64699685 419.35520442 238.1881485 444.11670303 C236.66937795 469.90283366 235.24776579 495.6923046 233.94321823 521.49021912 C233.81558402 524.00181251 233.6861896 526.51330867 233.55618286 529.02478027 C232.35128302 552.34423046 231.52658373 575.6552977 231 599 C259.86767432 599.62928642 284.47652659 593.30228343 306 573 C327.60919164 549.91325679 330.05460031 520.29196208 330.00927734 490.16650391 C330.00793793 489.0080899 330.00659851 487.8496759 330.00521851 486.65615845 C330.0034964 485.77962616 330.00177429 484.90309387 330 484 C330.86728729 484.00444122 331.73457458 484.00888245 332.62814331 484.01345825 C340.83662453 484.05367846 349.04507224 484.08405698 357.25362968 484.10362434 C361.47284047 484.11402257 365.69196922 484.12810865 369.91113281 484.15087891 C373.98953167 484.17274953 378.06785206 484.18459835 382.14630508 484.18975449 C383.69547891 484.19342489 385.24464886 484.20059163 386.79378891 484.21146011 C395.05566666 484.26707248 402.95453113 484.1500939 411 482 C411.98871094 481.73960937 412.97742188 481.47921875 413.99609375 481.2109375 C427.36770551 476.63249763 436.89511277 467.67243508 443.75 455.4375 C449.03674959 443.82457208 450.26595313 432.54635763 450.10546875 419.91015625 C450.09785522 418.76035278 450.0902417 417.61054932 450.08239746 416.42590332 C450.06269431 413.6171095 450.03506176 410.80863694 450 408 C437.10758248 407.95344135 424.21518531 407.91801208 411.3227005 407.89637566 C405.33473213 407.88598572 399.34682174 407.87191506 393.35888672 407.84912109 C387.56872496 407.82722058 381.7786186 407.81539545 375.98841858 407.81024551 C373.79109324 407.8065804 371.59377056 407.79942441 369.39646912 407.78853989 C357.08900238 407.73005744 345.16956183 408.03599562 333 410 C333.15726562 408.77925781 333.31453125 407.55851563 333.4765625 406.30078125 C334.27015173 399.17936214 334.31211679 392.0166381 334.4296875 384.85742188 C334.78590661 372.26359201 336.80575284 360.62892845 346.25 351.6875 C353.41799123 346.12474546 361.28698423 345.55881507 370.08422852 345.59936523 C371.15533875 345.59238617 372.22644897 345.5854071 373.33001709 345.57821655 C376.84639493 345.55833276 380.36247736 345.55874032 383.87890625 345.55859375 C386.33553349 345.54681326 388.7921536 345.53344739 391.24876404 345.51856995 C397.7015224 345.4824539 404.15421747 345.46220322 410.60705566 345.44702148 C420.93786906 345.42215331 431.26854264 345.38244039 441.599226 345.32512093 C445.19977495 345.30883854 448.80019093 345.30501869 452.40077209 345.30210876 C454.61557238 345.29232937 456.8303706 345.28206558 459.04516602 345.27124023 C460.04019638 345.27379318 461.03522675 345.27634613 462.06040955 345.27897644 C476.52184113 345.17302502 489.68315616 339.90603732 501 331 C501.82628906 330.37222656 502.65257812 329.74445313 503.50390625 329.09765625 C511.57904087 322.31151026 516.86654988 313.58151434 521 304 C521.39058594 303.10539062 521.78117187 302.21078125 522.18359375 301.2890625 C526.03111379 291.67730913 527.04677094 282.00800746 527.01855469 271.74731445 C527.01587585 270.48442093 527.01319702 269.2215274 527.01043701 267.92036438 C527.0069928 266.95664413 527.00354858 265.99292389 527 265 C499.9915937 264.9298189 472.98320113 264.87696725 445.97472191 264.84456348 C433.43331218 264.8291158 420.89195922 264.80806644 408.35058594 264.77368164 C397.41543241 264.74371501 386.48032001 264.72440976 375.54512656 264.71773452 C369.75875545 264.71383456 363.97250196 264.70471296 358.18616867 264.68280983 C352.73120538 264.66232986 347.27640731 264.65618935 341.82140923 264.66067696 C339.82770958 264.65985688 337.83400396 264.65396028 335.84033775 264.64238358 C307.69192391 264.48705759 282.99578287 272.54918512 263.3125 293.75 Z M540 265 C539.93366867 266.048106 539.93366867 266.048106 539.86599731 267.11738586 C539.65464494 270.34611403 539.42507337 273.57331283 539.1953125 276.80078125 C539.09150269 278.44874695 539.09150269 278.44874695 538.9855957 280.13000488 C537.38788901 301.89173346 527.67960248 323.24439044 511.62890625 338.2109375 C508.12017027 341.14143379 504.8694011 343.59976683 500.69921875 345.51953125 C497.30562749 347.09469993 494.7726693 348.48402934 492 351 C491.27643673 354.01420978 491.27643673 354.01420978 491.55078125 357.453125 C491.57194504 358.10203201 491.59310883 358.75093903 491.61491394 359.41950989 C491.70362104 361.61711784 491.84432744 363.80614306 492 366 C492.05486572 366.78543182 492.10973145 367.57086365 492.16625977 368.38009644 C492.55058427 373.58690464 493.02808533 378.78203425 493.54418945 383.97729492 C493.810341 386.66569191 494.06322569 389.3550938 494.31445312 392.04492188 C495.39238368 403.3234625 496.84250901 414.50683754 498.63131714 425.69418335 C498.97928989 427.87047481 499.31878996 430.04792567 499.65649414 432.22583008 C507.45221455 481.92199832 526.01927836 521.52923116 566 553 C567.13086279 553.92991743 568.25966091 554.86234962 569.38671875 555.796875 C578.81632031 563.56707029 588.69449869 570.44323973 599 577 C599.62310059 577.39783691 600.24620117 577.79567383 600.88818359 578.20556641 C611.80216568 585.11326371 623.28928282 590.94733818 634.78613281 596.81420898 C637 598 637 598 640 600 C645.10155399 599.75482365 649.71564433 596.88808832 654.1875 594.625 C655.07171631 594.17874268 655.95593262 593.73248535 656.86694336 593.27270508 C677.04203399 582.93209305 696.20742074 570.02972286 714 556 C714.96164062 555.24332031 715.92328125 554.48664063 716.9140625 553.70703125 C743.38895912 532.0914511 763.21616338 507.62538508 774 475 C774.35449219 473.94683594 774.70898438 472.89367187 775.07421875 471.80859375 C778.45270135 460.92533953 780.31043924 449.65649207 782.35595703 438.46337891 C782.80452496 436.05117851 783.27037143 433.64215415 783.74951172 431.23583984 C785.71461838 421.32242052 786.995788 411.42807502 788 401.375 C788.12356873 400.16028015 788.12356873 400.16028015 788.24963379 398.92102051 C788.85598047 392.94947709 789.43309774 386.97540199 790 381 C790.07839111 380.18333862 790.15678223 379.36667725 790.23754883 378.52526855 C792.46039117 355.29714797 793.44115076 332.33348159 793 309 C792.21012695 309.79132324 791.42025391 310.58264648 790.60644531 311.39794922 C789.18111755 312.82087384 787.75069552 314.23901209 786.296875 315.6328125 C781.89441538 319.87962961 778.05673738 324.4681173 774.28515625 329.28125 C772 332 772 332 769.68359375 333.96875 C765.68486664 337.4595887 763.87589563 340.31747425 763.3515625 345.59765625 C763.08824587 350.17123058 763.07356949 354.7436973 763.05517578 359.32373047 C762.97421356 363.25075658 762.54877587 367.10542003 762.0625 371 C761.88322248 372.48296534 761.70484583 373.96603985 761.52734375 375.44921875 C761.39368408 376.56562744 761.39368408 376.56562744 761.25732422 377.70458984 C760.90087745 380.88420321 760.62724609 384.06922004 760.3503418 387.2565918 C758.29708087 410.54542027 754.83316724 433.34989399 749 456 C748.79262207 456.82983398 748.58524414 457.65966797 748.37158203 458.51464844 C745.61131386 469.4408057 741.49598429 479.16753335 736 489 C735.46761719 489.96292969 734.93523437 490.92585937 734.38671875 491.91796875 C713.7495942 526.58628965 675.9889123 547.88123683 642 567 C642 554.46 642 541.92 642 529 C646.62 529 651.24 529 656 529 C658.87955489 526.12044511 659.40608179 525.48883905 660.31640625 521.83984375 C660.52330078 521.04642578 660.73019531 520.25300781 660.94335938 519.43554688 C661.14767578 518.61119141 661.35199219 517.78683594 661.5625 516.9375 C661.97430145 515.29921867 662.39200818 513.66240718 662.81640625 512.02734375 C662.99631104 511.30281006 663.17621582 510.57827637 663.36157227 509.83178711 C664 508 664 508 666 506 C667.60412874 505.28456976 669.23301488 504.62366201 670.875 504 C673.36772667 503.04755518 675.77000164 502.12089657 678.1328125 500.87890625 C681.26176714 499.40607195 683.85449219 499.90468925 687 501 C690.0535365 502.77154903 693.0085296 504.63073933 695.9375 506.6015625 C700.00662475 508.45965773 701.74097872 508.40129611 706 507 C708.97726307 504.72348751 711.43123145 502.08931766 713.9375 499.3125 C714.62134766 498.60416016 715.30519531 497.89582031 716.00976562 497.16601562 C718.81673098 494.12910905 720.77508148 491.9969703 721.6953125 487.91796875 C720.63177048 483.45467723 718.24743126 479.98330088 715.75585938 476.2109375 C713.9577479 473.32122915 712.97865945 471.47639645 713.1328125 468.03515625 C713.41898438 467.03355469 713.70515625 466.03195312 714 465 C714.25652344 463.78183594 714.51304687 462.56367188 714.77734375 461.30859375 C715.92085446 457.17330929 717.11359993 453.25967588 720 450 C724.92127123 447.26515866 730.57723624 446.40930758 736.10229492 445.67504883 C738.80188423 444.71475493 739.61115959 443.47948472 741 441 C741.6443004 437.04466983 741.50947856 433.06482233 741.5 429.0625 C741.52835938 427.97775391 741.55671875 426.89300781 741.5859375 425.77539062 C741.62344034 419.42187026 741.62344034 419.42187026 738.84765625 413.8515625 C735.80939539 411.87606778 733.48096492 411.01581731 729.9375 410.3125 C720.9811674 408.47153882 720.9811674 408.47153882 718.87158203 405.30761719 C717.93566771 403.1289314 717.01204555 400.94913376 716.125 398.75 C715.62613281 397.62271484 715.62613281 397.62271484 715.1171875 396.47265625 C713.60521175 392.80163039 712.87164012 390.7068238 713.59375 386.73046875 C714.97970956 384.03939727 716.4301765 381.87675504 718.375 379.5625 C720.51826575 376.92834312 722.19573165 374.63553416 723.8125 371.625 C726.24795842 367.10795319 729.88733929 363.60856661 733.36328125 359.87890625 C736.59295264 356.35258357 739.58300603 352.66839713 742.5859375 348.94921875 C745.84058654 344.97306984 749.19778388 341.08936997 752.55371094 337.19873047 C755.63681454 333.61553134 758.65508305 329.99078937 761.625 326.3125 C765.41687829 321.63767533 769.42713868 317.20781822 773.50390625 312.78125 C776.83741066 309.06692271 779.97062274 305.2072805 783.08984375 301.3125 C784.65039602 299.42324244 786.22857528 297.68812889 788 296 C787.67 295.01 787.34 294.02 787 293 C784.76150808 291.94347164 782.63856329 291.09495699 780.30859375 290.29296875 C779.62087387 290.04699448 778.93315399 289.8010202 778.22459412 289.54759216 C775.96701068 288.74645097 773.70320465 287.96535535 771.4375 287.1875 C770.66303528 286.91854919 769.88857056 286.64959839 769.09063721 286.37249756 C755.88392924 281.79641574 742.6867632 277.88321437 729 275 C727.8557959 274.75056641 726.7115918 274.50113281 725.53271484 274.24414062 C683.71270318 265.24820132 642.05837725 264.43163185 599.41156006 264.7253418 C593.35202707 264.76293992 587.29246571 264.78081218 581.23284805 264.79870558 C567.48839193 264.83980595 553.74421396 264.90951123 540 265 Z M729 680 C727.44975536 683.10048928 727.71007985 685.57894218 728 689 C729.79562405 691.75329021 731.05254922 693.52627461 734 695 C738.91524067 695.53926202 742.95148335 695.42308567 747.5625 693.5625 C750.5188233 690.45457038 751.09289247 688.47442471 751.30859375 684.2578125 C750.76692874 680.29474447 748.92445767 678.65859788 746 676 C738.45855303 673.48618434 734.36109413 674.50814747 729 680 Z M503 681 C503 707.73 503 734.46 503 762 C508.94 762 514.88 762 521 762 C521 735.27 521 708.54 521 681 C515.06 681 509.12 681 503 681 Z M765 681 C765 707.73 765 734.46 765 762 C770.94 762 776.88 762 783 762 C783 735.27 783 708.54 783 681 C777.06 681 771.12 681 765 681 Z M841 681 C840.67 689.91 840.34 698.82 840 708 C838.68 706.68 837.36 705.36 836 704 C829.08607158 700.12820009 822.13214661 699.95529938 814.5 701.9375 C807.04572469 704.76589524 800.92701926 710.78624181 796.875 717.5625 C793.20091813 725.95666569 793.81557676 736.41287909 796.5625 745 C799.98422419 752.94030771 805.19927356 758.58450107 813.12109375 762.15234375 C820.18132092 764.2311352 828.03961435 764.35818581 834.75 761.125 C837.9369287 759.19964673 837.9369287 759.19964673 840 757 C840.33 758.65 840.66 760.3 841 762 C846.94 762 852.88 762 859 762 C859 735.27 859 708.54 859 681 C853.06 681 847.12 681 841 681 Z M188 685 C188 710.41 188 735.82 188 762 C194.6 762 201.2 762 208 762 C208 754.74 208 747.48 208 740 C209.60488281 740.04640625 211.20976562 740.0928125 212.86328125 740.140625 C215.01300205 740.17817471 217.1627432 740.2145714 219.3125 740.25 C220.36501953 740.28351562 221.41753906 740.31703125 222.50195312 740.3515625 C232.98948526 740.48063982 241.70265627 738.16152254 249.41015625 730.80078125 C255.14887934 724.30065509 255.42671085 716.90204964 255.33203125 708.61328125 C254.63937426 701.07554344 251.52974186 695.92823775 245.8125 691.0625 C238.53810325 685.40154498 229.51961015 684.55128586 220.6171875 684.70703125 C219.3643396 684.71156311 219.3643396 684.71156311 218.08618164 684.71618652 C215.01565904 684.73168575 211.94531489 684.77356693 208.875 684.8125 C198.541875 684.9053125 198.541875 684.9053125 188 685 Z M572 686 C572 711.08 572 736.16 572 762 C579.651875 762.0825 587.30375 762.165 595.1875 762.25 C597.57508545 762.28641602 599.9626709 762.32283203 602.42260742 762.36035156 C620.42246874 763.05969724 620.42246874 763.05969724 636.125 755.5 C636.74375 754.675 637.3625 753.85 638 753 C638.5775 752.29875 639.155 751.5975 639.75 750.875 C642.92466676 746.11299986 642.6529074 740.49342775 642 735 C639.69214035 728.74911556 635.88752919 725.77060197 630 723 C630.40992188 722.54109375 630.81984375 722.0821875 631.2421875 721.609375 C631.78101563 720.99578125 632.31984375 720.3821875 632.875 719.75 C633.67550781 718.84507812 633.67550781 718.84507812 634.4921875 717.921875 C638.84105058 712.37876455 638.73511592 706.84576702 638 700 C635.4988464 694.70909816 631.44552362 690.58100972 626.10011292 688.1282196 C619.9244243 685.91969076 614.36052057 685.60372642 607.83984375 685.70703125 C606.92497192 685.71005249 606.0101001 685.71307373 605.06750488 685.71618652 C601.69071977 685.73173484 598.31409705 685.77361735 594.9375 685.8125 C587.368125 685.874375 579.79875 685.93625 572 686 Z M336 688 C336 693.28 336 698.56 336 704 C333.36 704 330.72 704 328 704 C328 708.95 328 713.9 328 719 C330.64 719 333.28 719 336 719 C335.97381592 719.79583496 335.94763184 720.59166992 335.9206543 721.41162109 C335.81583003 725.06587471 335.75140191 728.71981079 335.6875 732.375 C335.64560547 733.62667969 335.60371094 734.87835937 335.56054688 736.16796875 C335.45687204 744.08872588 336.10407834 750.52632551 341 757 C343.53177991 759.04913677 346.06200887 760.6055892 349 762 C349.66 762.33 350.32 762.66 351 763 C358.66576747 763.56461743 365.01706515 763.28608699 372 760 C371.50269348 755.02693484 370.44697666 751.36200187 368 747 C367.30132812 747.02320313 366.60265625 747.04640625 365.8828125 747.0703125 C364.97273438 747.08835937 364.06265625 747.10640625 363.125 747.125 C361.76761719 747.15980469 361.76761719 747.15980469 360.3828125 747.1953125 C358 747 358 747 356 745 C355.68115234 742.38623047 355.68115234 742.38623047 355.5859375 739.1171875 C355.54726563 737.95058594 355.50859375 736.78398438 355.46875 735.58203125 C355.4378125 734.35871094 355.406875 733.13539063 355.375 731.875 C355.33632813 730.64394531 355.29765625 729.41289063 355.2578125 728.14453125 C355.16330325 725.09660789 355.08055377 722.04832411 355 719 C359.62 719 364.24 719 369 719 C369 714.05 369 709.1 369 704 C364.38 704 359.76 704 355 704 C355 698.72 355 693.44 355 688 C348.73 688 342.46 688 336 688 Z M266 707 C266.53484401 712.34844008 268.46690767 716.35796103 271 721 C275.07964281 719.69844994 275.07964281 719.69844994 279 718 C281.47178874 717.87554225 283.90311169 717.8148408 286.375 717.8125 C287.38433594 717.79413086 287.38433594 717.79413086 288.4140625 717.77539062 C295.40412271 717.75475068 295.40412271 717.75475068 298 720 C299.25 723.625 299.25 723.625 300 727 C299.07102905 726.9685791 299.07102905 726.9685791 298.12329102 726.93652344 C295.26986458 726.8524818 292.41669964 726.80106555 289.5625 726.75 C288.58861328 726.71648438 287.61472656 726.68296875 286.61132812 726.6484375 C278.24849765 726.53656017 271.61432494 728.19213972 265.5 734.125 C262.22340353 738.40837192 261.53814277 742.69269325 262 748 C263.2448839 753.41739133 265.31532935 756.94401859 270 760 C276.58853088 763.70604862 283.59060428 763.66234169 291 763 C294.93655193 761.73188938 298.0495099 759.9504901 301 757 C301.495 759.475 301.495 759.475 302 762 C307.61 762 313.22 762 319 762 C319.09958872 756.34412654 319.17180596 750.68877422 319.21972656 745.03222656 C319.23972336 743.11188861 319.26693006 741.19161061 319.30175781 739.27148438 C320.13002669 723.1494914 320.13002669 723.1494914 313.32080078 709.12426758 C305.82069568 701.95264242 296.57857398 700.65007922 286.56640625 700.70703125 C279.36657801 701.29847388 272.3713302 703.60806881 266 707 Z M381 703 C380.90618698 704.84118029 380.88256046 706.68597641 380.88647461 708.52954102 C380.88655014 709.71068985 380.88662567 710.89183868 380.88670349 712.10877991 C380.89186478 713.3941716 380.89702606 714.67956329 380.90234375 716.00390625 C380.9037587 717.31205795 380.90517365 718.62020966 380.90663147 719.96800232 C380.9104559 723.45162859 380.92028554 726.93521339 380.93133545 730.41882324 C380.94155118 733.97126708 380.94612944 737.52371759 380.95117188 741.07617188 C380.96190788 748.05080004 380.97950407 755.02539376 381 762 C387.27 762 393.54 762 400 762 C400.04898437 759.67582031 400.09796875 757.35164062 400.1484375 754.95703125 C400.20250732 752.6964699 400.25979112 750.43601115 400.31738281 748.17553711 C400.35557409 746.60920919 400.39044394 745.04279651 400.421875 743.47631836 C400.46774071 741.219582 400.52569769 738.96342417 400.5859375 736.70703125 C400.59748871 736.01100296 400.60903992 735.31497467 400.62094116 734.59785461 C400.77681503 729.41787279 401.53673856 725.75591373 404.875 721.75 C409.75783589 719.0156119 414.44228818 719.24429502 420 719 C420 713.39 420 707.78 420 702 C411.64457907 701.29390809 407.48946326 702.73318924 401 708 C400.67 706.02 400.34 704.04 400 702 C397.02077407 701.97316013 394.04178705 701.95323963 391.0625 701.9375 C390.21236328 701.92912109 389.36222656 701.92074219 388.48632812 701.91210938 C387.67744141 701.90888672 386.86855469 701.90566406 386.03515625 701.90234375 C385.2862915 701.89710693 384.53742676 701.89187012 383.76586914 701.88647461 C381.97332261 701.80658248 381.97332261 701.80658248 381 703 Z M438 707 C437.13181641 707.57621094 437.13181641 707.57621094 436.24609375 708.1640625 C430.56637389 712.34911924 426.47616786 719.15594901 425 726 C424.14443146 735.77792618 425.74884089 744.22828867 432 752 C439.57295226 759.54051992 446.42430963 763.09268175 457.1875 763.25 C466.26781979 763.15776199 475.00317299 761.095948 482 755 C489.41263275 745.94011553 490.94426483 737.470217 490.23828125 726.03076172 C489.39930761 718.8805745 485.04789027 713.23592898 479.8984375 708.46875 C468.41326221 699.58309998 449.86304289 698.496195 438 707 Z M654 702 C653.90770579 707.79915313 653.8282095 713.5957146 653.78027344 719.39501953 C653.76027213 721.36385782 653.73306198 723.33263756 653.69824219 725.30126953 C653.64921469 728.14630658 653.62691618 730.99055215 653.609375 733.8359375 C653.58872986 734.70302338 653.56808472 735.57010925 653.54681396 736.46347046 C653.54405932 744.12332312 655.46748566 750.85146866 660.3125 756.875 C661.6428125 757.926875 661.6428125 757.926875 663 759 C663.94875 759.763125 664.8975 760.52625 665.875 761.3125 C671.64639321 764.40748889 678.7024201 763.80930022 685 763 C689.1030845 761.37910219 691.91232289 759.08767711 695 756 C695.495 758.97 695.495 758.97 696 762 C701.94 762 707.88 762 714 762 C714 742.2 714 722.4 714 702 C707.73 702 701.46 702 695 702 C694.96261719 704.45695313 694.92523437 706.91390625 694.88671875 709.4453125 C694.84043964 711.83830406 694.78922938 714.23114315 694.73754883 716.62402344 C694.70439982 718.28050384 694.67633691 719.93709446 694.65356445 721.59375 C694.61983268 723.98224634 694.56751041 726.36974171 694.51171875 728.7578125 C694.50213387 729.85973434 694.50213387 729.85973434 694.49235535 730.98391724 C694.35912656 735.69725424 693.53001338 739.01152588 691 743 C687.78169935 745.14553377 686.73213493 745.29583868 683 745.3125 C682.13375 745.32925781 681.2675 745.34601562 680.375 745.36328125 C677.53307234 744.9285785 676.70428217 744.27415152 675 742 C673.73374576 738.20123729 673.76701453 734.57578074 673.68359375 730.61328125 C673.66281265 729.79627243 673.64203156 728.97926361 673.62062073 728.13749695 C673.55526921 725.52924966 673.49630727 722.92090225 673.4375 720.3125 C673.39430108 718.54360946 673.35068635 716.77472903 673.30664062 715.00585938 C673.19882044 710.67067403 673.09964028 706.33541198 673 702 C666.73 702 660.46 702 654 702 Z M730 702 C730 721.8 730 741.6 730 762 C736.27 762 742.54 762 749 762 C749 742.2 749 722.4 749 702 C742.73 702 736.46 702 730 702 Z " fill="#FAFBFB" transform="translate(0,0)"/>
<path d="M0 0 C2.06115201 0.00084782 4.12230493 0.00036811 6.18345642 -0.00132751 C11.73831621 -0.00218285 17.29297884 0.0153676 22.8477931 0.03639436 C28.66801911 0.05523871 34.48825039 0.05691769 40.3085022 0.06047058 C51.31182025 0.06976835 62.31504812 0.09435126 73.31832659 0.12451905 C85.85286196 0.1581339 98.3874018 0.17456684 110.92197108 0.18960536 C136.6897298 0.22090295 162.45740866 0.27361906 188.22509766 0.34057617 C188.2404457 2.53326211 188.25126734 4.72597994 188.26025391 6.91870117 C188.27004272 8.75029785 188.27004272 8.75029785 188.2800293 10.61889648 C188.03536946 27.19487209 182.81905299 43.45872439 172.22509766 56.34057617 C171.77908203 56.94643555 171.33306641 57.55229492 170.87353516 58.17651367 C163.55462522 67.63545575 153.2753921 73.34707353 142.22509766 77.34057617 C141.40912109 77.69249023 140.59314453 78.0444043 139.75244141 78.40698242 C133.492847 80.71925918 127.07612328 80.49144894 120.49731445 80.49829102 C118.89371567 80.50591209 118.89371567 80.50591209 117.25772095 80.51368713 C114.94150797 80.52436695 112.62528483 80.53299644 110.30905724 80.53980637 C106.63891139 80.55162771 102.9688815 80.57108878 99.29878235 80.59292603 C88.86548738 80.65443523 78.43220528 80.7085711 67.9987793 80.74194336 C61.61159584 80.76292095 55.22462577 80.79824712 48.83756447 80.84270096 C46.40840991 80.85683374 43.97921762 80.86557722 41.55002403 80.86875534 C38.14681121 80.87367951 34.74416216 80.89687671 31.34106445 80.92407227 C30.34491623 80.92106613 29.34876801 80.91806 28.32243347 80.91496277 C18.42471345 81.03205624 11.37565902 83.28117601 4.17041016 90.17260742 C-5.26807547 100.69140164 -4.15043051 115.7149836 -4.39990234 128.96557617 C-4.43815936 130.65439669 -4.47721534 132.34319932 -4.51708984 134.03198242 C-4.61224124 138.13469863 -4.69657274 142.23750574 -4.77490234 146.34057617 C-5.44320068 146.48567627 -6.11149902 146.63077637 -6.80004883 146.78027344 C-42.821718 154.71264238 -72.60981082 171.03196615 -96.35693359 199.86401367 C-96.82486328 200.3512793 -97.29279297 200.83854492 -97.77490234 201.34057617 C-98.43490234 201.34057617 -99.09490234 201.34057617 -99.77490234 201.34057617 C-103.35122807 190.26827172 -100.65609894 175.68167084 -99.85693359 164.33276367 C-99.07657447 152.87058365 -98.46542937 141.40931573 -97.99365234 129.93041992 C-97.96355387 129.20579496 -97.93345539 128.48117001 -97.90244484 127.73458672 C-97.6261103 121.07223779 -97.35790017 114.40957855 -97.09765625 107.74658203 C-96.95227635 104.03416994 -96.79985068 100.32209788 -96.64332581 96.61013985 C-96.5594655 94.57338798 -96.48336925 92.53632096 -96.40759277 90.49925232 C-95.28573306 64.04984567 -88.39182074 40.85226557 -68.64990234 22.27807617 C-48.26535791 5.00008046 -26.21307792 -0.15221252 0 0 Z " fill="#40B2E1" transform="translate(338.77490234375,264.659423828125)"/>
<path d="M0 0 C34.65 0 69.3 0 105 0 C105 11.55 105 23.1 105 35 C101.37 35.33 97.74 35.66 94 36 C91.27073968 37.35374116 91.27073968 37.35374116 90 40 C89.50340963 42.00460359 89.01477129 44.01330922 88.63330078 46.04296875 C86.80940096 55.32827694 86.80940096 55.32827694 83.42138672 58.45849609 C77.44434587 62.30349731 70.08012688 64.8006721 63 65 C60.37778644 63.78643727 58.24585485 62.63872767 55.875 61.0625 C50.40868003 57.36906674 50.40868003 57.36906674 44 57 C40.23248513 59.54307253 37.13202739 62.71882845 34 66 C33.05640625 66.93392578 33.05640625 66.93392578 32.09375 67.88671875 C31.4440625 68.56347656 30.794375 69.24023438 30.125 69.9375 C29.50882813 70.56527344 28.89265625 71.19304687 28.2578125 71.83984375 C26.75460986 73.99308311 26.75460986 73.99308311 27.046875 76.84375 C28.35927177 81.18971963 30.70618507 84.53392682 33.29296875 88.23242188 C34.92098197 90.69194722 36.0269384 92.3710919 35.8984375 95.37109375 C35.60195313 96.23863281 35.30546875 97.10617187 35 98 C34.84160645 98.62720947 34.68321289 99.25441895 34.52001953 99.90063477 C31.12159026 113.03530804 31.12159026 113.03530804 26.05273438 116.22558594 C22.3703875 117.72246158 18.66826928 118.51813981 14.765625 119.2109375 C10.58429579 120.03298561 10.58429579 120.03298561 8 123 C7.55463008 125.44585557 7.55463008 125.44585557 7.63671875 128.18359375 C7.63736328 129.19357422 7.63800781 130.20355469 7.63867188 131.24414062 C7.65478516 132.29794922 7.67089844 133.35175781 7.6875 134.4375 C7.68427734 135.48744141 7.68105469 136.53738281 7.67773438 137.61914062 C7.49783485 144.15686885 7.49783485 144.15686885 10 150 C11.88393952 150.82025654 11.88393952 150.82025654 14.10546875 151.10546875 C27.08356406 153.80945209 27.08356406 153.80945209 30.59423828 157.82226562 C34.07358086 163.65053718 36.11534112 169.89238057 35.86328125 176.68359375 C34.92238077 180.29818428 33.59848732 182.59525212 31.4375 185.625 C28.82388087 189.29332022 28.82388087 189.29332022 27.53515625 193.53125 C28.5235174 198.78036131 33.35666682 202.34533453 37 206 C37.71542969 206.73863281 38.43085937 207.47726562 39.16796875 208.23828125 C41.8653578 210.91701811 41.8653578 210.91701811 45 213 C51.03507225 212.79444577 55.02540377 209.64973082 59.90234375 206.3984375 C65.2826547 203.9694951 70.306867 205.78538 75.69628906 207.71362305 C83.86316301 211.0434333 83.86316301 211.0434333 86.12207031 214.93115234 C87.56045083 218.59121432 88.39914304 222.28342951 89.140625 226.13671875 C89.78517857 230.28575584 89.78517857 230.28575584 93 234 C96.96 234.33 100.92 234.66 105 235 C105 258.1 105 281.2 105 305 C99.73382475 303.94676495 95.86972062 302.20298412 91.125 299.8125 C89.82344971 299.15797852 89.82344971 299.15797852 88.49560547 298.49023438 C72.57342935 290.32385416 57.25252243 280.82492194 43 270 C42.15332764 269.35732178 42.15332764 269.35732178 41.28955078 268.70166016 C11.5676995 246.02768455 -12.73920319 221.62542586 -26 186 C-26.38236816 185.00395752 -26.38236816 185.00395752 -26.77246094 183.98779297 C-35.973716 159.58472445 -39.46939292 131.82516973 -42 106 C-42.09701202 105.02746277 -42.09701202 105.02746277 -42.19598389 104.03527832 C-42.71403406 98.83789513 -43.2066624 93.638447 -43.6875 88.4375 C-43.75457153 87.72751862 -43.82164307 87.01753723 -43.89074707 86.28604126 C-44.33496292 81.52785929 -44.70613359 76.76982734 -45 72 C-45.06897491 70.95451492 -45.06897491 70.95451492 -45.13934326 69.88790894 C-45.26171181 67.82886963 -45.34268502 65.77243222 -45.41015625 63.7109375 C-45.45922119 62.51130371 -45.50828613 61.31166992 -45.55883789 60.07568359 C-45 57 -45 57 -42.55664062 54.77050781 C-39.75 53.1875 -39.75 53.1875 -36.43359375 51.6484375 C-20.30044208 43.90305638 -10.80184198 27.84668967 -4 12 C-2.68 8.04 -1.36 4.08 0 0 Z " fill="#EE882C" transform="translate(537,294)"/>
<path d="M0 0 C1.62711914 -0.04253906 1.62711914 -0.04253906 3.28710938 -0.0859375 C11.19274754 -0.10537361 11.19274754 -0.10537361 15.2109375 2.69140625 C17.07335152 5.51646043 18.01783133 7.64973625 18.75 10.9375 C19.18030375 12.79334993 19.61800239 14.64749841 20.0625 16.5 C20.28292969 17.54542969 20.50335937 18.59085937 20.73046875 19.66796875 C21.85229521 22.77137274 21.85229521 22.77137274 25.1015625 24.1796875 C26.87660156 24.77136719 26.87660156 24.77136719 28.6875 25.375 C29.87601563 25.78492188 31.06453125 26.19484375 32.2890625 26.6171875 C33.20429687 26.90851563 34.11953125 27.19984375 35.0625 27.5 C33.72548729 30.44578252 32.23381235 32.61316761 30.015625 34.9609375 C29.4175 35.59773438 28.819375 36.23453125 28.203125 36.890625 C27.57921875 37.54546875 26.9553125 38.2003125 26.3125 38.875 C25.7040625 39.52210938 25.095625 40.16921875 24.46875 40.8359375 C23.25473018 42.12259098 22.02929709 43.39857479 20.79248047 44.66333008 C19.05724837 46.44214081 19.05724837 46.44214081 17.68017578 48.3112793 C15.48305138 51.02675905 14.06449577 52.34721891 10.5390625 52.88476562 C7.48578253 52.91158498 4.48408072 52.76343271 1.4375 52.5625 C-7.78628495 52.26360022 -14.90786084 52.4655437 -22.9375 57.5 C-23.81148437 58.01949219 -24.68546875 58.53898437 -25.5859375 59.07421875 C-31.9391767 63.16662058 -38.49914357 68.62328713 -41.9375 75.5 C-44.54130719 74.38408263 -45.99849536 73.43328633 -47.9375 71.3125 C-48.5975 70.714375 -49.2575 70.11625 -49.9375 69.5 C-53.82357135 69.78232142 -55.92135576 71.99456673 -58.6875 74.5625 C-59.55632813 75.366875 -60.42515625 76.17125 -61.3203125 77 C-64.92154814 80.43998628 -68.45999357 83.93507022 -71.9375 87.5 C-70.38832658 91.21758841 -68.11346262 93.54082656 -65.25390625 96.34375 C-64.32642578 97.26027344 -63.39894531 98.17679687 -62.44335938 99.12109375 C-61.46259291 100.08109027 -60.48146962 101.04072238 -59.5 102 C-57.58133009 103.88212078 -55.66697073 105.76840983 -53.75390625 107.65625 C-52.90256104 108.48962891 -52.05121582 109.32300781 -51.17407227 110.18164062 C-47.79660629 113.68261398 -45.72331546 116.66670269 -44.125 121.25 C-39.99685692 131.85854882 -32.0879135 139.96297216 -21.76171875 144.73046875 C-20.20559433 145.38690667 -18.63528992 146.00956047 -17.0625 146.625 C-14.9375 147.5 -14.9375 147.5 -12.9375 149.5 C-9.84236556 149.83128724 -6.72879849 149.54799768 -3.625 149.375 C-2.72088379 149.32496826 -1.81676758 149.27493652 -0.88525391 149.22338867 C13.2607277 148.25184477 26.17034506 143.55036039 36.10546875 133.109375 C44.18696627 122.33404497 47.24590117 111.74323331 47.1875 98.4375 C47.19136719 97.55255859 47.19523438 96.66761719 47.19921875 95.75585938 C47.20704605 90.66755492 47.20704605 90.66755492 46.328125 85.6796875 C46.0625 83.5 46.0625 83.5 47.4765625 81.16796875 C48.20617187 80.34941406 48.93578125 79.53085937 49.6875 78.6875 C50.51507812 77.73230469 51.34265625 76.77710938 52.1953125 75.79296875 C52.65454102 75.27009277 53.11376953 74.7472168 53.58691406 74.20849609 C56.32517147 71.03802532 58.9325092 67.76028103 61.5625 64.5 C62.67269885 63.13372585 63.78337016 61.76783545 64.89453125 60.40234375 C66.87776077 57.96231973 68.85460615 55.51743167 70.82421875 53.06640625 C71.62472656 52.07511719 72.42523437 51.08382812 73.25 50.0625 C73.94480469 49.19753906 74.63960937 48.33257812 75.35546875 47.44140625 C77.0625 45.5 77.0625 45.5 79.0625 44.5 C77.97729965 46.88744077 76.79517211 48.86194714 75.23046875 50.98046875 C71.3886801 55.92798224 71.3886801 55.92798224 70.09765625 61.83203125 C70.87921723 64.20233914 71.9170416 66.28322291 73.0625 68.5 C73.38863281 69.45648438 73.71476563 70.41296875 74.05078125 71.3984375 C76.01535852 77.04278989 76.01535852 77.04278989 80.3984375 80.79296875 C82.94926558 81.54749297 85.43895605 82.07046311 88.0625 82.5 C92.58649484 83.75666523 95.06446701 84.84292511 98.0625 88.5 C98.56420898 91.09375 98.56420898 91.09375 98.55859375 94 C98.55923828 95.051875 98.55988281 96.10375 98.56054688 97.1875 C98.54056641 98.280625 98.52058594 99.37375 98.5 100.5 C98.50708984 101.593125 98.51417969 102.68625 98.52148438 103.8125 C98.4472208 113.13543492 98.4472208 113.13543492 95.0625 116.5 C93.18066406 117.14331055 93.18066406 117.14331055 91.078125 117.38671875 C82.45485201 118.55361851 82.45485201 118.55361851 75.52001953 123.29101562 C72.23415599 128.87789313 69.92132161 135.14078468 70.1953125 141.66015625 C71.5497005 146.09547189 74.06325708 149.6319546 76.56640625 153.5 C78.26685129 156.90976969 78.67391311 158.74562031 78.0625 162.5 C76.3046875 164.80859375 76.3046875 164.80859375 73.9375 166.9375 C70.45362061 170.15464487 67.48140772 173.32036557 64.7421875 177.1875 C61.92549254 179.38845234 59.58585669 179.44139947 56.0625 179.5 C52.89541881 177.97301443 50.19898287 176.27625839 47.3125 174.3046875 C44.06803383 172.23344347 42.27423201 171.49258264 38.3828125 171.62890625 C35.62178366 172.35327029 33.41487469 173.06406006 30.9375 174.4375 C28.61814091 175.70709114 26.83038569 176.56189715 24.25 177.25 C20.69409803 179.28194398 20.10796259 182.76277165 19.0625 186.5 C18.32301784 189.35673634 17.58664884 192.21058613 16.90625 195.08203125 C15.96150506 197.78942533 15.33109837 198.77478946 13.0625 200.5 C8.78160298 201.17483667 4.4531371 201.00932286 0.125 201 C-1.06802734 201.02835938 -2.26105469 201.05671875 -3.49023438 201.0859375 C-5.21016602 201.08980469 -5.21016602 201.08980469 -6.96484375 201.09375 C-8.01406006 201.10083984 -9.06327637 201.10792969 -10.14428711 201.11523438 C-12.9375 200.5 -12.9375 200.5 -15.23168945 198.17822266 C-17.26641334 194.98358675 -18.20970011 192.0301091 -19.1875 188.375 C-19.69023438 186.54582031 -19.69023438 186.54582031 -20.203125 184.6796875 C-20.9375 181.5 -20.9375 181.5 -20.9375 178.5 C-21.494375 178.32984375 -22.05125 178.1596875 -22.625 177.984375 C-27.37800028 176.47497626 -31.68048747 174.74278279 -36.015625 172.26953125 C-38.60853214 171.23131437 -40.14764709 171.12103154 -42.9375 171.5 C-45.99712634 173.11834402 -48.86337136 174.86821813 -51.765625 176.74414062 C-54.4489995 178.39208257 -56.38071738 179.5 -59.5703125 179.5 C-64.55173266 177.39563769 -68.12974411 173.23691392 -71.9375 169.5 C-72.67613281 168.79746094 -73.41476562 168.09492188 -74.17578125 167.37109375 C-77.18141963 164.29317548 -78.82052426 162.53328573 -79.3125 158.1875 C-77.98744139 154.63393374 -76.42595528 152.12331193 -74.3125 149 C-71.56033986 144.89919041 -71.56033986 144.89919041 -70.6875 140.125 C-72.29494996 135.46339513 -74.02309615 130.86152109 -75.87890625 126.29296875 C-76.9375 123.5 -76.9375 123.5 -76.9375 121.5 C-78.03449219 121.24605469 -79.13148438 120.99210937 -80.26171875 120.73046875 C-81.71625214 120.38325755 -83.17067342 120.03557642 -84.625 119.6875 C-85.34623047 119.52185547 -86.06746094 119.35621094 -86.81054688 119.18554688 C-90.95957427 118.18144436 -94.47698795 117.12681316 -97.9375 114.5 C-99.51137765 109.77836704 -99.20462719 105.00813637 -99.25 100.0625 C-99.27900391 99.01255859 -99.30800781 97.96261719 -99.33789062 96.88085938 C-99.34626953 95.86958984 -99.35464844 94.85832031 -99.36328125 93.81640625 C-99.37786377 92.89287354 -99.39244629 91.96934082 -99.4074707 91.01782227 C-98.79049418 87.71243066 -97.53064845 86.57538895 -94.9375 84.5 C-91.58984375 83.234375 -91.58984375 83.234375 -87.875 82.25 C-86.03228516 81.74726563 -86.03228516 81.74726563 -84.15234375 81.234375 C-80.9375 80.5 -80.9375 80.5 -77.9375 80.5 C-77.76734375 79.88253906 -77.5971875 79.26507813 -77.421875 78.62890625 C-75.90772611 73.33743913 -74.1424082 68.49715967 -71.609375 63.60546875 C-70.70232297 60.76302081 -71.00647161 59.33921721 -71.9375 56.5 C-73.61249707 53.6921211 -75.36841144 51.00050893 -77.23046875 48.31640625 C-78.93543135 45.71924099 -79.94716493 44.00331979 -79.88671875 40.85546875 C-78.80926349 38.18178349 -77.55553209 36.44972718 -75.625 34.3125 C-75.03074219 33.63832031 -74.43648437 32.96414063 -73.82421875 32.26953125 C-71.94257891 30.50476345 -70.24010038 29.60956862 -67.9375 28.5 C-67.2537955 27.17532254 -66.58785814 25.84136367 -65.9375 24.5 C-63.5869835 21.97537117 -62.4066514 21.51954798 -58.9375 21.375 C-54.03748599 22.2620715 -50.06008302 25.36964494 -46 28.1015625 C-42.08810557 29.88786123 -40.08886668 29.46395371 -35.9375 28.5 C-34.77089844 28.25507813 -33.60429688 28.01015625 -32.40234375 27.7578125 C-25.46381492 25.63027128 -25.46381492 25.63027128 -20.78076172 20.40380859 C-18.90098187 15.56242438 -17.69061718 10.58549732 -16.72021484 5.48950195 C-13.99179711 -1.44558105 -6.1561216 -0.01457933 0 0 Z " fill="#2278B6" transform="translate(642.9375,328.5)"/>
<path d="M0 0 C14.41640919 -0.09153052 28.8326283 -0.16467792 43.24926662 -0.20724869 C49.94843992 -0.22757106 56.64737491 -0.25562117 63.34643555 -0.30175781 C114.96768703 -0.64744882 114.96768703 -0.64744882 139.078125 1.80078125 C140.27191426 1.92157421 140.27191426 1.92157421 141.48982048 2.04480743 C158.86347017 3.86536612 175.95303384 7.2536134 193 11 C194.82938709 11.3804007 196.65880805 11.76063861 198.48828125 12.140625 C215.0919426 15.78197266 231.06032929 22.18848822 247 28 C247 33.0158077 245.83069982 33.71014922 242.4375 37.25 C241.50727807 38.23647549 240.57759222 39.22345675 239.6484375 40.2109375 C238.77445313 41.13132812 237.90046875 42.05171875 237 43 C231.32862414 49.29884723 225.90411464 55.81664001 220.43945312 62.29443359 C218.58352948 64.49346388 216.72481308 66.69012143 214.86572266 68.88647461 C213.95373424 69.96393822 213.04195103 71.04157555 212.13037109 72.11938477 C209.81626031 74.85540298 207.49997261 77.58952774 205.1796875 80.3203125 C204.24462907 81.42173699 203.30973231 82.52329874 202.375 83.625 C201.91681885 84.16495605 201.4586377 84.70491211 200.98657227 85.26123047 C198.0927594 88.68123817 195.25376442 92.14055333 192.4375 95.625 C189.38201355 99.38433958 186.21753016 102.99746722 182.9375 106.5625 C179.19623864 110.63657295 175.6706281 114.8036881 172.25 119.1484375 C162.7632425 131.17158502 152.94989175 142.92058168 142.96484375 154.53125 C141.9348696 155.72914411 140.90492167 156.92706076 139.875 158.125 C139.37049316 158.7113623 138.86598633 159.29772461 138.34619141 159.90185547 C135.28024806 163.47529286 132.27605724 167.09065106 129.3125 170.75 C125.75848834 175.13007923 122.03463869 179.31428288 118.23828125 183.484375 C115.20398354 186.89465026 112.34618165 190.43537605 109.4765625 193.984375 C106.05015113 198.15659831 102.52383946 202.24025523 98.98510742 206.31738281 C96.82997878 208.81103752 94.83089809 211.25365286 93 214 C88.75153925 213.52794881 86.73180712 211.11122478 84 208 C84 207.34 84 206.68 84 206 C83.41065674 205.73590332 82.82131348 205.47180664 82.21411133 205.19970703 C79.91552851 203.95422948 78.41060483 202.65447786 76.57421875 200.8046875 C75.94563965 200.17481934 75.31706055 199.54495117 74.66943359 198.89599609 C74.01539551 198.22906738 73.36135742 197.56213867 72.6875 196.875 C71.67937256 195.85720459 71.67937256 195.85720459 70.65087891 194.81884766 C66.79170731 190.89956728 63.00958261 186.94373501 59.4921875 182.7109375 C55.97473248 178.67783463 52.01392376 175.03309144 48.171875 171.3125 C46.36431686 169.54193867 44.5570328 167.77109749 42.75 166 C41.82703125 165.11054688 40.9040625 164.22109375 39.953125 163.3046875 C39.0765625 162.44101562 38.2 161.57734375 37.296875 160.6875 C36.09562988 159.51767578 36.09562988 159.51767578 34.87011719 158.32421875 C32.84367915 155.80572135 32.33332921 154.17858231 32 151 C35.75 148 35.75 148 38 148 C38 147.34 38 146.68 38 146 C39.609375 144.4140625 39.609375 144.4140625 41.75 142.625 C44.06903702 140.66242273 46.25219284 138.7411705 48.375 136.5625 C50 135 50 135 52 135 C52 134.34 52 133.68 52 133 C55.13879381 134.3875818 57.22254795 135.99523408 59.609375 138.44921875 C60.28226563 139.13306641 60.95515625 139.81691406 61.6484375 140.52148438 C62.34195313 141.23626953 63.03546875 141.95105469 63.75 142.6875 C68.41233358 147.46949423 73.11298065 152.09093677 78.19824219 156.42529297 C80.93754875 158.81940236 83.46016182 161.39666586 86 164 C88.80168064 162.71345975 90.93540653 161.3426178 93.1796875 159.234375 C93.77193115 158.68080322 94.3641748 158.12723145 94.97436523 157.55688477 C95.60157471 156.96061279 96.22878418 156.36434082 96.875 155.75 C97.53121338 155.1324585 98.18742676 154.51491699 98.86352539 153.87866211 C104.03763591 148.98212332 109.09828132 143.97618832 114.07958984 138.88378906 C116.8659887 136.05243461 119.70370627 133.36052153 122.72265625 130.77734375 C128.0930114 126.13735176 133.02087863 121.05020332 138 116 C148.50946377 105.3405031 148.50946377 105.3405031 152.8125 101.6875 C159.23969567 96.18969515 165.05656772 90.00850636 171 84 C185.10678397 69.73876219 185.10678397 69.73876219 191.20703125 64.55712891 C194.62215154 61.5912197 197.80135237 58.38296806 201 55.1875 C201.67933594 54.52041016 202.35867188 53.85332031 203.05859375 53.16601562 C203.69925781 52.52728516 204.33992187 51.88855469 205 51.23046875 C205.5775 50.65707764 206.155 50.08368652 206.75 49.49291992 C208.21399031 48.06894512 208.21399031 48.06894512 208 46 C185.33430194 38.16700141 161.76688706 34.64634303 138 32 C137.25835035 31.91654611 136.51670071 31.83309221 135.75257683 31.74710941 C119.83958373 30.0043306 104.03640204 29.65956917 88.0390625 29.5859375 C85.42491072 29.56717595 82.81076468 29.54759906 80.19662476 29.5272522 C74.08459449 29.48102437 67.97254707 29.44401525 61.86043489 29.41057932 C54.88539662 29.37195433 47.91044542 29.32265458 40.93548131 29.27259517 C26.62371491 29.17011147 12.31189811 29.0819956 -2 29 C-1.34 19.43 -0.68 9.86 0 0 Z " fill="#F6B634" transform="translate(540,265)"/>
<path d="M0 0 C0.91785782 -0.00029205 1.83571564 -0.00058411 2.78138733 -0.00088501 C5.7951932 0.00050095 8.80874743 0.01602754 11.82250977 0.03173828 C13.92000697 0.03547102 16.01750592 0.03831676 18.11500549 0.04031372 C23.62068543 0.04792963 29.12625893 0.06756057 34.63189697 0.08972168 C40.2559668 0.11022414 45.88005392 0.11932484 51.50415039 0.12939453 C62.52828556 0.15080839 73.55234192 0.18491965 84.57641602 0.22705078 C84.62412748 4.19966511 84.6526589 8.17220436 84.67797852 12.14501953 C84.69159424 13.25937378 84.70520996 14.37372803 84.71923828 15.52185059 C84.80244651 32.96677643 80.41853634 49.09063195 68.05297852 61.97314453 C56.49199445 72.49473413 42.72306399 76.48380258 27.30883789 76.27709961 C26.51261017 76.27082047 25.71638245 76.26454132 24.89602661 76.2580719 C23.1767756 76.24428792 21.45754064 76.22836815 19.73832703 76.21051979 C17.00324719 76.18367053 14.26825087 76.16593008 11.53308105 76.15104675 C3.75928852 76.10852709 -4.01434202 76.06115464 -11.7878418 75.98022461 C-16.55513269 75.93125764 -21.32219612 75.90258063 -26.08970642 75.88648033 C-27.89157114 75.87668344 -29.69341362 75.85963058 -31.49513245 75.83469582 C-45.87882317 75.64017426 -58.67880411 77.33553847 -71.79858398 83.72705078 C-72.48847412 84.05600342 -73.17836426 84.38495605 -73.88916016 84.72387695 C-82.3500404 88.93760729 -89.89691465 94.55364836 -97.42358398 100.22705078 C-98.24213867 100.83935547 -99.06069336 101.45166016 -99.90405273 102.08251953 C-100.40549805 102.46021484 -100.90694336 102.83791016 -101.42358398 103.22705078 C-101.80392175 76.98374499 -85.47708434 50.8319861 -68.08813477 32.44482422 C-53.71363746 17.67072982 -35.97955711 8.49529187 -16.42358398 2.22705078 C-15.39583359 1.88022247 -14.36808319 1.53339417 -13.30918884 1.17605591 C-8.75612211 0.06403247 -4.66263229 -0.03926775 0 0 Z " fill="#1F79B6" transform="translate(365.423583984375,407.77294921875)"/>
<path d="M0 0 C0.33 0 0.66 0 1 0 C1.44144399 23.34899148 0.44593877 46.32035867 -1.7689209 69.56408691 C-2.00176146 72.01856838 -2.22847833 74.4735564 -2.45410156 76.92871094 C-4.35775232 97.48859621 -6.84563728 117.75385345 -11 138 C-11.20238281 139.00466309 -11.40476562 140.00932617 -11.61328125 141.04443359 C-18.09723297 172.82102602 -30.23433169 200.57345955 -53 224 C-53.60118652 224.62696777 -54.20237305 225.25393555 -54.82177734 225.89990234 C-63.65581174 235.08969951 -72.68494315 243.50508297 -83 251 C-83.65581055 251.47888672 -84.31162109 251.95777344 -84.98730469 252.45117188 C-101.01294408 264.09379511 -117.51031509 274.69315992 -135 284 C-135.69416016 284.37237793 -136.38832031 284.74475586 -137.10351562 285.12841797 C-139.04134664 286.16189688 -140.98681392 287.17853332 -142.9375 288.1875 C-144.03964844 288.75855469 -145.14179687 289.32960938 -146.27734375 289.91796875 C-149 291 -149 291 -152 290 C-151.34 290 -150.68 290 -150 290 C-150 279.44 -150 268.88 -150 258 C-144.369375 254.90625 -144.369375 254.90625 -138.625 251.75 C-127.7052935 245.67638025 -117.19174495 239.22672993 -107 232 C-106.41943848 231.58911133 -105.83887695 231.17822266 -105.24072266 230.75488281 C-98.91095988 226.23442226 -93.00499082 221.38159724 -87.29296875 216.10546875 C-85.25910546 214.23791796 -83.17852977 212.4601578 -81.0625 210.6875 C-56.31203 188.98093861 -46.00481688 161.30603471 -39 130 C-38.84433563 129.33639969 -38.68867126 128.67279938 -38.52828979 127.98908997 C-37.33736384 122.82366201 -36.44842259 117.69071232 -35.78125 112.43359375 C-35.67838684 111.64476303 -35.57552368 110.85593231 -35.46954346 110.04319763 C-35.14130081 107.50858531 -34.82010988 104.97315134 -34.5 102.4375 C-34.38950317 101.57360657 -34.27900635 100.70971313 -34.16516113 99.81964111 C-32.57421703 87.35185196 -31.24517858 74.90713581 -30.359375 62.3671875 C-30.18938358 59.99024274 -29.96580891 57.84577636 -29.44921875 55.515625 C-29.00249136 53.01395163 -28.98766693 50.84120474 -29.03515625 48.3046875 C-29.22762865 31.96558503 -29.22762865 31.96558503 -23.5 25.875 C-21.67943158 24.23571151 -19.84612671 22.61045096 -18 21 C-16.44168945 19.17721744 -14.91990398 17.32253222 -13.4375 15.4375 C-9.148098 10.13118095 -4.75776618 4.89582636 0 0 Z " fill="#F7B634" transform="translate(792,309)"/>
<path d="M0 0 C0.2932931 30.65653541 -0.07335237 61.58557776 -21 86 C-21.44601562 86.58910156 -21.89203125 87.17820312 -22.3515625 87.78515625 C-32.83365714 101.24024265 -50.85784284 109.6557934 -67 114 C-67.80695313 114.22429687 -68.61390625 114.44859375 -69.4453125 114.6796875 C-79.07183904 116.88262304 -89.18775994 116.1776342 -99 116 C-98.88087614 110.89529383 -98.75657902 105.79074815 -98.62768555 100.6862793 C-98.58462968 98.95324034 -98.54293686 97.22016691 -98.50268555 95.48706055 C-98.44426417 92.98215388 -98.38078526 90.47741607 -98.31640625 87.97265625 C-98.29969376 87.20977798 -98.28298126 86.44689972 -98.26576233 85.66090393 C-97.85651485 70.47535313 -97.85651485 70.47535313 -93 64 C-92.71382812 63.2575 -92.42765625 62.515 -92.1328125 61.75 C-89.65904407 55.74471388 -85.62247133 50.37217547 -82 45 C-81.18015625 43.78376953 -81.18015625 43.78376953 -80.34375 42.54296875 C-62.65481638 18.22068502 -30.40699231 -1.49580677 0 0 Z " fill="#205D99" transform="translate(330,483)"/>
<path d="M0 0 C16.14360606 0 16.14360606 0 22.625 0.69921875 C23.73878021 0.81182037 23.73878021 0.81182037 24.87506104 0.92669678 C27.25113622 1.17095347 29.62557617 1.42770932 32 1.6875 C32.82238159 1.77581085 33.64476318 1.8641217 34.49206543 1.95510864 C85.70721375 7.49380123 85.70721375 7.49380123 107 17 C105.49089988 20.54120058 103.42880686 22.81604365 100.7109375 25.51953125 C99.42123047 26.80633789 99.42123047 26.80633789 98.10546875 28.11914062 C97.20441406 29.00794922 96.30335938 29.89675781 95.375 30.8125 C94.49714844 31.68970703 93.61929688 32.56691406 92.71484375 33.47070312 C88.97719362 37.18336153 85.24260669 40.85011382 81.2265625 44.26171875 C74.79567751 49.78793092 68.9586196 55.97614004 63 62 C49.12779788 76.02408754 49.12779788 76.02408754 42.9765625 81.24609375 C38.44123457 85.27052505 34.25586842 89.6833748 30 94 C24.46099894 99.61807586 18.92538093 105.16483454 12.92578125 110.296875 C9.27958572 113.52150229 5.90920265 117.02869894 2.5 120.5 C-2.81253381 125.90930128 -8.21919945 131.09059872 -14 136 C-17.66434951 134.28974534 -19.9345589 132.24002076 -22.75 129.3125 C-25.82035387 126.16990251 -28.89613029 123.15038976 -32.25 120.3125 C-35.92751279 117.17315981 -38.9440509 113.74353764 -42 110 C-33.47287477 98.24855554 -23.84561953 90.61520651 -10 86 C-8.31312388 86.07894204 -6.62875177 86.2186002 -4.94921875 86.39453125 C7.35858639 87.66901338 7.35858639 87.66901338 18.41796875 83.23828125 C22.06332259 79.84360804 25.04647224 75.99433489 28 72 C28.86440408 70.94134075 29.73626603 69.88870512 30.6171875 68.84375 C32.47788694 66.60318458 34.26514819 64.33827853 36 62 C35.32453125 61.80664062 34.6490625 61.61328125 33.953125 61.4140625 C33.06109375 61.15367187 32.1690625 60.89328125 31.25 60.625 C30.36828125 60.36976563 29.4865625 60.11453125 28.578125 59.8515625 C26.18986323 59.0627124 24.12551893 58.34366505 22 57 C19.76558846 52.10148239 18.55297421 47.38452483 17.72265625 42.078125 C16.94962757 39.36879217 16.94962757 39.36879217 13 36 C8.71 35.67 4.42 35.34 0 35 C0 23.45 0 11.9 0 0 Z " fill="#F9FAF8" transform="translate(642,294)"/>
<path d="M0 0 C11.2921875 -0.12375 11.2921875 -0.12375 22.8125 -0.25 C26.34287964 -0.30462402 26.34287964 -0.30462402 29.94458008 -0.36035156 C31.84455457 -0.37205198 33.74453923 -0.38224059 35.64453125 -0.390625 C36.60307007 -0.41108887 37.56160889 -0.43155273 38.54919434 -0.45263672 C46.30168974 -0.4565695 54.35317325 0.67886617 60.2759552 6.07269287 C65.42548673 11.78830358 66.34938428 15.33969356 66.28515625 23.01953125 C65.90690953 26.97298674 64.60060085 29.03820459 62 32 C61.2575 32.94875 60.515 33.8975 59.75 34.875 C59.1725 35.57625 58.595 36.2775 58 37 C59.051875 37.495 60.10375 37.99 61.1875 38.5 C65.61650911 41.08358865 68.19875675 44.18867914 70 49 C70.92806114 55.23126764 70.65898846 60.70077533 67 66 C61.79536125 72.04863422 55.76643822 74.64664166 48 76 C44.23627297 76.25470512 40.48964249 76.23407127 36.71875 76.1953125 C35.78321289 76.19329834 34.84767578 76.19128418 33.88378906 76.18920898 C30.42247545 76.17882392 26.96123228 76.15090194 23.5 76.125 C15.745 76.08375 7.99 76.0425 0 76 C0 50.92 0 25.84 0 0 Z M20 14 C20 19.61 20 25.22 20 31 C23.04221065 31.08132642 26.0822238 31.14065374 29.125 31.1875 C30.40890625 31.22520508 30.40890625 31.22520508 31.71875 31.26367188 C36.90872628 31.32355622 40.52546123 30.95205194 45 28 C46.5721459 24.85570821 47.00427913 21.3475971 46 18 C41.67814031 13.92652305 38.18640327 13.56342842 32.36328125 13.6484375 C31.45964844 13.68195312 30.55601562 13.71546875 29.625 13.75 C28.69816406 13.76804687 27.77132812 13.78609375 26.81640625 13.8046875 C24.54382132 13.85154492 22.27177285 13.92327972 20 14 Z M20 44 C20 49.61 20 55.22 20 61 C23.89625106 61.08098443 27.7908163 61.14049807 31.6875 61.1875 C33.34168945 61.22520508 33.34168945 61.22520508 35.02929688 61.26367188 C36.6293457 61.27817383 36.6293457 61.27817383 38.26171875 61.29296875 C39.24100342 61.3086792 40.22028809 61.32438965 41.22924805 61.34057617 C44.52251457 60.93577339 46.34115396 59.9582603 49 58 C51.2973659 55.19265527 51.2973659 55.19265527 50.875 52.0625 C49.87906918 48.57674211 48.81264453 47.23357066 46 45 C42.94080612 43.98026871 40.87581975 43.88466398 37.67578125 43.90234375 C36.64775391 43.90556641 35.61972656 43.90878906 34.56054688 43.91210938 C32.95276367 43.92467773 32.95276367 43.92467773 31.3125 43.9375 C29.68731445 43.94426758 29.68731445 43.94426758 28.02929688 43.95117188 C25.35284106 43.96296243 22.67641361 43.98089792 20 44 Z " fill="#2F77B5" transform="translate(572,686)"/>
<path d="M0 0 C-3.0435987 2.0290658 -5.31714371 2.7673351 -8.8125 3.75 C-27.62060593 9.43617156 -43.08318577 18.2483705 -57 32 C-57.70382812 32.63164062 -58.40765625 33.26328125 -59.1328125 33.9140625 C-75.93411699 49.35493748 -88.68945896 75.24921822 -90.6875 97.9375 C-91.53520918 104.3581121 -94.16329703 106.53670726 -99.12890625 110.4140625 C-104.38847141 115.15124908 -107.9838512 121.25256986 -111.8059082 127.16650391 C-112.91599592 128.87101397 -114.06777114 130.54817433 -115.22265625 132.22265625 C-117.12723129 135.19881636 -118.14964595 137.92681559 -119.19140625 141.265625 C-120 143 -120 143 -123 145 C-123.17334774 135.12012451 -122.63497554 125.28783772 -122.125 115.42578125 C-122.03507793 113.64789527 -121.94540103 111.86999688 -121.85595703 110.09208679 C-121.62166035 105.44784113 -121.38406708 100.80376996 -121.14575195 96.159729 C-120.9024415 91.40671845 -120.66229743 86.65354799 -120.421875 81.90039062 C-119.95098944 72.60010257 -119.47661588 63.29999603 -119 54 C-118.34 54 -117.68 54 -117 54 C-117 55.32 -117 56.64 -117 58 C-113.01372269 55.10088923 -109.99390654 51.77966168 -106.8046875 48.0703125 C-86.3888135 24.64950466 -59.59047186 10.75188489 -29.75 3.75 C-28.64865723 3.49138184 -27.54731445 3.23276367 -26.41259766 2.96630859 C-17.60257263 0.97651991 -9.03415014 -0.19639457 0 0 Z " fill="#339BD2" transform="translate(356,408)"/>
<path d="M0 0 C6.88875 -0.061875 13.7775 -0.12375 20.875 -0.1875 C23.0288623 -0.21481201 25.18272461 -0.24212402 27.40185547 -0.27026367 C29.14029381 -0.27903887 30.87873839 -0.28668035 32.6171875 -0.29296875 C33.4944751 -0.30831665 34.3717627 -0.32366455 35.27563477 -0.33947754 C44.6537083 -0.34337749 52.80127468 1.79762739 60.015625 7.9375 C65.50350631 13.64143962 67.29007362 19.27375328 67.5 27.125 C67.12417636 36.02912923 65.11547148 41.6674098 59.03515625 48.23828125 C53.20139956 53.28823185 45.91551975 55.13784851 38.359375 55.09765625 C37.28945312 55.09443359 36.21953125 55.09121094 35.1171875 55.08789062 C34.00601563 55.07951172 32.89484375 55.07113281 31.75 55.0625 C30.06003906 55.05573242 30.06003906 55.05573242 28.3359375 55.04882812 C25.55726894 55.03705411 22.77862773 55.019119 20 55 C20 62.26 20 69.52 20 77 C13.4 77 6.8 77 0 77 C0 51.59 0 26.18 0 0 Z M20 16 C20 23.92 20 31.84 20 40 C22.990625 40.103125 25.98125 40.20625 29.0625 40.3125 C29.99070557 40.35802002 30.91891113 40.40354004 31.87524414 40.45043945 C38.20150369 40.55521242 41.25714037 39.20117845 46 35 C47.85243916 31.29512168 47.4585162 27.04385812 47 23 C44.6686429 18.85536515 42.48129433 17.34677197 38 16 C34.889603 15.7661301 31.80430882 15.81153493 28.6875 15.875 C24.3871875 15.936875 24.3871875 15.936875 20 16 Z " fill="#F8B435" transform="translate(188,685)"/>
<path d="M0 0 C5.94 0 11.88 0 18 0 C18 26.73 18 53.46 18 81 C12.06 81 6.12 81 0 81 C-0.33 79.35 -0.66 77.7 -1 76 C-1.721875 76.61875 -2.44375 77.2375 -3.1875 77.875 C-9.88639769 82.93638937 -16.86570559 82.84362224 -25 82 C-32.39939894 79.85017463 -37.83720737 75.42638013 -42 69 C-46.64854457 60.53054491 -47.09895866 51.40862852 -46 42 C-43.73342119 34.29764368 -38.75503206 27.92069385 -31.9140625 23.71875 C-24.999483 20.12008409 -17.65830728 18.54531231 -9.93359375 20.53125 C-5.95106521 22.11393953 -4.13143205 23.86856795 -1 27 C-0.67 18.09 -0.34 9.18 0 0 Z M-25.875 42.0625 C-28.05760529 47.76152492 -27.789296 53.71519579 -25.8125 59.4375 C-23.401111 62.84670514 -20.73230245 65.13384878 -17 67 C-10.89932061 67.59810582 -7.86087223 66.45869755 -3 63 C0.96057274 57.6176832 0.75993336 52.44662571 0 46 C-1.26208222 41.92853702 -3.23326028 39.54020299 -6.75 37.0625 C-14.72544056 34.45514443 -20.06534248 35.67187673 -25.875 42.0625 Z " fill="#2B76B5" transform="translate(841,681)"/>
<path d="M0 0 C6.27 0 12.54 0 19 0 C19.03738281 2.61292969 19.07476563 5.22585938 19.11328125 7.91796875 C19.15953039 10.45654536 19.21075164 12.9949765 19.26245117 15.53344727 C19.29564654 17.29377355 19.32369524 19.05420488 19.34643555 20.81469727 C19.3800812 23.34957525 19.4324006 25.88349523 19.48828125 28.41796875 C19.49467117 29.20149216 19.5010611 29.98501556 19.50764465 30.7922821 C19.64135768 35.79374782 20.38949129 39.38949129 24 43 C29.15395131 43.6681048 32.82856126 43.88455578 37.0625 40.6875 C40.24572939 36.27205278 40.19948377 32.2985538 40.31640625 27.05078125 C40.33718735 26.27816452 40.35796844 25.50554779 40.37937927 24.70951843 C40.44471038 22.2439352 40.50368315 19.77824639 40.5625 17.3125 C40.60570087 15.63996309 40.64931566 13.96743681 40.69335938 12.29492188 C40.80115324 8.19672118 40.90034835 4.09843916 41 0 C47.27 0 53.54 0 60 0 C60 19.8 60 39.6 60 60 C54.06 60 48.12 60 42 60 C41.505 57.03 41.505 57.03 41 54 C40.0925 54.78375 39.185 55.5675 38.25 56.375 C32.54023016 61.30616486 27.26558969 61.67691804 19.84375 61.43359375 C14.11559757 60.78743021 10.18162425 58.95602603 6 55 C2.03461789 49.67295535 -0.13356435 44.34336348 -0.11352539 37.69042969 C-0.11344986 36.84986023 -0.11337433 36.00929077 -0.11329651 35.14324951 C-0.10813522 34.24519592 -0.10297394 33.34714233 -0.09765625 32.421875 C-0.0962413 31.4953009 -0.09482635 30.56872681 -0.09336853 29.61407471 C-0.08777824 26.65935008 -0.0752275 23.70470167 -0.0625 20.75 C-0.05748375 18.74479276 -0.05292106 16.73958433 -0.04882812 14.734375 C-0.03866357 9.82286379 -0.01908621 4.91151706 0 0 Z " fill="#2D77B6" transform="translate(654,702)"/>
<path d="M0 0 C1.16692383 -0.0309375 1.16692383 -0.0309375 2.35742188 -0.0625 C11.18418439 -0.12139416 18.73900619 2.75502111 25.1328125 9.0390625 C31.14654692 15.55603829 33.88866137 21.69972127 33.8125 30.5625 C33.80895508 31.30725586 33.80541016 32.05201172 33.80175781 32.81933594 C33.6111056 39.17717291 32.03865004 44.03338994 28.3125 49.25 C27.71824219 50.095625 27.12398438 50.94125 26.51171875 51.8125 C24.00287138 54.5931763 21.74178531 55.88666026 18.375 57.5 C17.35535156 58.00015625 16.33570313 58.5003125 15.28515625 59.015625 C6.61119009 62.61742961 -4.04562832 62.60058954 -12.76953125 59.15234375 C-20.90781814 55.32353668 -27.33334665 48.63538337 -30.6875 40.25 C-33.11654374 29.8964164 -31.75258523 22.16064489 -26.4375 13.125 C-20.12841699 3.66137549 -11.00906606 0.07119849 0 0 Z M-9.9375 20.8125 C-13.32407479 25.52951489 -13.16059276 29.56412589 -12.6875 35.25 C-10.94003758 40.39530601 -8.25485563 43.31999828 -3.6875 46.25 C0.42015385 47.11908445 3.6285731 46.48674393 7.5625 45.125 C11.69832949 42.30511626 13.74414671 38.95505988 15.3125 34.25 C15.91497588 28.32565381 15.22977956 24.85750083 11.796875 19.94921875 C8.60062892 16.2903581 5.46751117 15.37158012 0.75 14.875 C-4.29595292 15.42546759 -6.62083963 17.03519236 -9.9375 20.8125 Z " fill="#F18632" transform="translate(456.6875,701.75)"/>
<path d="M0 0 C4.67846851 3.79948352 7.43652749 8.29173681 8.625 14.25 C8.7078629 15.65399052 8.74286621 17.06134648 8.73852539 18.46777344 C8.73844986 19.28832214 8.73837433 20.10887085 8.73829651 20.95428467 C8.73313522 21.83046448 8.72797394 22.70664429 8.72265625 23.609375 C8.7212413 24.51375305 8.71982635 25.4181311 8.71836853 26.34991455 C8.71277911 29.23331027 8.70022853 32.11662782 8.6875 35 C8.68248363 36.95703013 8.67792096 38.91406147 8.67382812 40.87109375 C8.66281313 45.66409253 8.64555574 50.45703302 8.625 55.25 C3.015 55.25 -2.595 55.25 -8.375 55.25 C-8.705 53.6 -9.035 51.95 -9.375 50.25 C-9.84550781 50.59933594 -10.31601562 50.94867187 -10.80078125 51.30859375 C-11.42339844 51.76363281 -12.04601562 52.21867188 -12.6875 52.6875 C-13.30238281 53.13996094 -13.91726563 53.59242188 -14.55078125 54.05859375 C-20.16740111 57.72683584 -28.48915576 57.03458222 -34.83203125 55.75390625 C-40.82548063 53.72553046 -44.10404327 50.41062645 -47.25 45.0625 C-48.88692499 39.51514309 -49.06618934 34.41571385 -46.27734375 29.1953125 C-42.62366224 24.45265071 -38.0342878 21.98243504 -32.375 20.25 C-28.4990814 19.80864562 -24.70661812 19.86598667 -20.8125 20 C-19.29946289 20.02707031 -19.29946289 20.02707031 -17.75585938 20.0546875 C-15.29454395 20.10134751 -12.83530429 20.1667843 -10.375 20.25 C-11.24602048 15.51930045 -11.24602048 15.51930045 -14.0390625 11.83203125 C-17.31783088 11.0150806 -20.37206515 10.94761358 -23.75 10.9375 C-25.03648437 10.92074219 -26.32296875 10.90398438 -27.6484375 10.88671875 C-31.58233178 11.27021159 -33.95830709 12.34007874 -37.375 14.25 C-38.035 14.25 -38.695 14.25 -39.375 14.25 C-40.21824672 12.671924 -41.04923918 11.0872958 -41.875 9.5 C-42.3390625 8.61828125 -42.803125 7.7365625 -43.28125 6.828125 C-44.375 4.25 -44.375 4.25 -44.375 0.25 C-42.48167466 -0.56832722 -40.58522267 -1.37942268 -38.6875 -2.1875 C-37.63175781 -2.63996094 -36.57601563 -3.09242188 -35.48828125 -3.55859375 C-23.98387245 -7.96115923 -10.21840968 -7.03809433 0 0 Z M-29.375 34.25 C-30.20833333 36.75 -30.20833333 36.75 -29.375 39.25 C-26.62392699 42.33453641 -24.99157593 43.17292801 -20.875 43.6875 C-17.12181503 43.21835188 -15.30395597 42.60943675 -12.375 40.25 C-9.69819339 36.74246031 -9.23744045 34.57950591 -9.375 30.25 C-11.77206123 30.14145383 -14.16415838 30.06246843 -16.5625 30 C-17.23603516 29.96648438 -17.90957031 29.93296875 -18.60351562 29.8984375 C-23.51305776 29.80264156 -25.9798425 30.70610227 -29.375 34.25 Z " fill="#F8B336" transform="translate(310.375,706.75)"/>
<path d="M0 0 C6.27 0 12.54 0 19 0 C19 5.28 19 10.56 19 16 C23.62 16 28.24 16 33 16 C33 20.95 33 25.9 33 31 C28.38 31 23.76 31 19 31 C19.11342562 35.29226439 19.24018537 39.58340085 19.375 43.875 C19.4059375 45.09832031 19.436875 46.32164062 19.46875 47.58203125 C19.50742187 48.74863281 19.54609375 49.91523437 19.5859375 51.1171875 C19.63306885 52.73536377 19.63306885 52.73536377 19.68115234 54.38623047 C19.74676322 57.15761654 19.74676322 57.15761654 22 59 C24.44012949 59.24287489 24.44012949 59.24287489 27.125 59.125 C28.03507812 59.10695313 28.94515625 59.08890625 29.8828125 59.0703125 C30.58148438 59.04710937 31.28015625 59.02390625 32 59 C32.67595315 60.41225926 33.34040059 61.83002905 34 63.25 C34.37125 64.03890625 34.7425 64.8278125 35.125 65.640625 C36 68 36 68 36 72 C28.49413251 75.53217294 20.33046013 76.80772126 12.3046875 74.0859375 C5.73122549 70.72327542 2.33505869 65.95967172 0 59 C-0.22705078 55.86206055 -0.22705078 55.86206055 -0.1953125 52.38671875 C-0.18886719 51.13955078 -0.18242187 49.89238281 -0.17578125 48.60742188 C-0.15902344 47.31384766 -0.14226562 46.02027344 -0.125 44.6875 C-0.11597656 43.37458984 -0.10695313 42.06167969 -0.09765625 40.70898438 C-0.07411797 37.47247087 -0.0412352 34.23632851 0 31 C-2.64 31 -5.28 31 -8 31 C-8 26.05 -8 21.1 -8 16 C-5.36 16 -2.72 16 0 16 C0 10.72 0 5.44 0 0 Z " fill="#F08936" transform="translate(336,688)"/>
<path d="M0 0 C0.74886475 0.00523682 1.49772949 0.01047363 2.26928711 0.01586914 C3.07817383 0.0190918 3.88706055 0.02231445 4.72045898 0.02563477 C5.5705957 0.03401367 6.42073242 0.04239258 7.29663086 0.05102539 C8.15063477 0.05553711 9.00463867 0.06004883 9.88452148 0.06469727 C12.00108749 0.07652166 14.11761771 0.0944577 16.23413086 0.11352539 C16.56413086 2.09352539 16.89413086 4.07352539 17.23413086 6.11352539 C17.76780273 5.68040039 18.30147461 5.24727539 18.85131836 4.80102539 C24.92946799 0.25818691 28.69146861 -0.52388269 36.23413086 0.11352539 C36.23413086 5.72352539 36.23413086 11.33352539 36.23413086 17.11352539 C34.37788086 17.17540039 32.52163086 17.23727539 30.60913086 17.30102539 C24.75006695 17.78524555 22.06666845 18.65949521 18.23413086 23.11352539 C16.86014868 26.8354654 17.01119803 30.80112864 16.91772461 34.72290039 C16.89694351 35.44971008 16.87616241 36.17651978 16.85475159 36.925354 C16.78957574 39.2379853 16.73052046 41.55072632 16.67163086 43.86352539 C16.6284152 45.43515114 16.58479994 47.00676595 16.54077148 48.57836914 C16.43317809 52.42331059 16.33386801 56.26834004 16.23413086 60.11352539 C9.96413086 60.11352539 3.69413086 60.11352539 -2.76586914 60.11352539 C-2.78842437 52.43815562 -2.80678667 44.7627981 -2.81768131 37.0874033 C-2.8229091 33.52375117 -2.83000483 29.96012282 -2.84130859 26.39648438 C-2.8542109 22.30346442 -2.8590982 18.21046959 -2.86352539 14.11743164 C-2.86868668 12.83203995 -2.87384796 11.54664825 -2.87916565 10.2223053 C-2.87924118 9.04115646 -2.87931671 7.86000763 -2.87939453 6.64306641 C-2.88161514 5.59715836 -2.88383575 4.55125031 -2.88612366 3.47364807 C-2.71803548 0.1747389 -2.71803548 0.1747389 0 0 Z " fill="#F08A37" transform="translate(383.765869140625,701.886474609375)"/>
<path d="M0 0 C2.79437335 2.62479396 3.23568681 4.80428275 3.36328125 8.484375 C3.3619555 10.23966445 3.34447884 11.99500138 3.3125 13.75 C3.31572266 14.61882812 3.31894531 15.48765625 3.32226562 16.3828125 C3.21403493 29.48856546 -1.628337 41.79684635 -10.5625 51.4375 C-23.29769075 63.23942487 -37.36563429 65.36337207 -54 65 C-52.31080353 60.91194463 -49.44524587 57.84361527 -46.5625 54.5625 C-45.46964352 53.30374001 -44.37720446 52.04461752 -43.28515625 50.78515625 C-42.73359863 50.15109863 -42.18204102 49.51704102 -41.61376953 48.86376953 C-39.21778422 46.09660586 -36.85809125 43.29945215 -34.5 40.5 C-30.18974307 35.39347695 -25.8471529 30.31552571 -21.49365234 25.24584961 C-17.55716446 20.65840105 -13.64749334 16.04882826 -9.74682617 11.4309082 C-6.51513357 7.60555409 -3.26622812 3.79588674 0 0 Z " fill="#F9F9F9" transform="translate(688,413)"/>
<path d="M0 0 C5.94 0 11.88 0 18 0 C18 26.73 18 53.46 18 81 C12.06 81 6.12 81 0 81 C0 54.27 0 27.54 0 0 Z " fill="#2875B3" transform="translate(765,681)"/>
<path d="M0 0 C5.94 0 11.88 0 18 0 C18 26.73 18 53.46 18 81 C12.06 81 6.12 81 0 81 C0 54.27 0 27.54 0 0 Z " fill="#EF8630" transform="translate(503,681)"/>
<path d="M0 0 C6.27 0 12.54 0 19 0 C19 19.8 19 39.6 19 60 C12.73 60 6.46 60 0 60 C0 40.2 0 20.4 0 0 Z " fill="#2F7BB7" transform="translate(730,702)"/>
<path d="M0 0 C4.34290429 3.02115081 7.16031879 6.78704187 8.32421875 12.01953125 C8.62753793 17.32238732 6.81296245 21.64820579 3.875 26 C0.10246377 29.54389767 -3.82016357 30.47131738 -8.9921875 30.4140625 C-13.00709881 29.63461085 -15.51768411 27.01177487 -18.125 24 C-20.94139856 19.591724 -20.79948595 14.07083409 -20.125 9 C-15.55563371 0.33396048 -9.82684546 -3.14459055 0 0 Z " fill="#F8F7F5" transform="translate(464.125,718)"/>
<path d="M0 0 C3.5196831 2.47977673 5.4789639 4.86732823 6.75 8.9375 C7.49107507 14.57874492 7.50453513 19.28332684 5.125 24.5 C1.45484063 28.26674251 -1.53360549 29.72295069 -6.75 30.375 C-11.78073661 29.74615792 -14.74838746 27.64623151 -18.0625 23.875 C-21.06860579 18.97030108 -20.82298409 13.50022054 -20.25 7.9375 C-16.0085281 -0.85962691 -8.96260112 -2.93008114 0 0 Z " fill="#F4F6F7" transform="translate(834.25,718.0625)"/>
<path d="M0 0 C2.84625 -0.061875 5.6925 -0.12375 8.625 -0.1875 C9.51010254 -0.21481201 10.39520508 -0.24212402 11.30712891 -0.27026367 C16.2838514 -0.32234956 19.73656943 0.15131141 24 3 C26.80295101 5.85639711 27.45107698 7.96862006 27.5 11.9375 C27.39065253 15.84523339 27.17253659 16.77616875 24.6875 20 C18.97033375 24.25463535 18.97033375 24.25463535 14.55078125 24.1953125 C13.78677002 24.19031738 13.02275879 24.18532227 12.2355957 24.18017578 C10.78866333 24.15286377 10.78866333 24.15286377 9.3125 24.125 C6.239375 24.08375 3.16625 24.0425 0 24 C0 16.08 0 8.16 0 0 Z " fill="#FAF7F1" transform="translate(208,701)"/>
<path d="M0 0 C3.72960366 -0.08101311 7.45744359 -0.14051069 11.1875 -0.1875 C12.24259766 -0.21263672 13.29769531 -0.23777344 14.38476562 -0.26367188 C15.91713867 -0.27817383 15.91713867 -0.27817383 17.48046875 -0.29296875 C18.41785889 -0.3086792 19.35524902 -0.32438965 20.32104492 -0.34057617 C24.36503964 0.1735378 26.98535522 2.01917671 29.875 4.8125 C31.47050236 7.9148657 30.97998415 9.71005322 30 13 C28.08268479 15.52737004 27.08494591 15.9716847 24 17 C22.15389468 17.08239169 20.30494836 17.10743359 18.45703125 17.09765625 C17.38388672 17.09443359 16.31074219 17.09121094 15.20507812 17.08789062 C14.08552734 17.07951172 12.96597656 17.07113281 11.8125 17.0625 C10.68134766 17.05798828 9.55019531 17.05347656 8.38476562 17.04882812 C5.58982124 17.03703511 2.79490401 17.01909957 0 17 C0 11.39 0 5.78 0 0 Z " fill="#F5F7F7" transform="translate(592,730)"/>
<path d="M0 0 C3.20924709 -0.10837983 6.4148027 -0.18749268 9.625 -0.25 C10.98044922 -0.30027344 10.98044922 -0.30027344 12.36328125 -0.3515625 C18.19230794 -0.43665778 21.66623413 -0.06423543 26 4 C27.01096147 6.97576793 26.45957347 8.7829857 26 12 C24.22438831 14.66341754 21.90240793 15.74298498 19 17 C16.80175781 17.22705078 16.80175781 17.22705078 14.453125 17.1953125 C13.18662109 17.18564453 13.18662109 17.18564453 11.89453125 17.17578125 C11.02183594 17.15902344 10.14914062 17.14226563 9.25 17.125 C7.91775391 17.11146484 7.91775391 17.11146484 6.55859375 17.09765625 C4.37227989 17.0741475 2.18610516 17.03827811 0 17 C0 11.39 0 5.78 0 0 Z " fill="#F2F5F7" transform="translate(592,700)"/>
<path d="M0 0 C3.61783359 1.60792604 6.28815822 3.3861118 8 7 C8.25348437 10.19508209 7.98606843 12.94654947 7 16 C3.62988386 19.54294261 0.66931612 20.2669404 -4.0625 20.5 C-7.6373437 20.36002118 -8.91793063 20.05024655 -12.0625 18.125 C-14.53129652 15.41728769 -14.94973776 14.43560605 -15.375 10.75 C-14.88072704 5.80727042 -13.46171699 4.46171699 -10 1 C-6.80657621 -0.59671189 -3.47454369 -0.37418163 0 0 Z " fill="#3479BA" transform="translate(743,675)"/>
<path d="M0 0 C0.69287109 0.01804687 1.38574219 0.03609375 2.09960938 0.0546875 C3.79617664 0.10148936 5.49202476 0.17322376 7.1875 0.25 C6.69844891 7.58576642 6.69844891 7.58576642 4.3125 10.6875 C0.40918463 13.55758483 -3.08736328 13.65733937 -7.8125 13.25 C-10.75 11.5625 -10.75 11.5625 -12.8125 9.25 C-13.4375 6.75 -13.4375 6.75 -12.8125 4.25 C-8.84647046 0.11022059 -5.4836911 -0.27287267 0 0 Z " fill="#F9F8EE" transform="translate(293.8125,736.75)"/>
<path d="M0 0 C5.06778367 4.09735701 9.35109577 8.51874188 13.66015625 13.40234375 C17.28441462 17.4259361 21.13907897 21.20551929 25 25 C26.33448524 26.33218043 27.66816395 27.66517106 29 29 C26 30 26 30 23.6171875 29.1015625 C12.73289303 23.24078855 4.67988061 15.65382035 0 4 C0 2.68 0 1.36 0 0 Z " fill="#F6F7F6" transform="translate(597,445)"/>
<path d="M0 0 C0.99 0.33 1.98 0.66 3 1 C1.625 2.5 1.625 2.5 0 4 C-0.66 4 -1.32 4 -2 4 C-2.268125 4.598125 -2.53625 5.19625 -2.8125 5.8125 C-3.99917406 7.99847854 -5.09599113 9.41332594 -7 11 C-7.66 11 -8.32 11 -9 11 C-9.33 11.99 -9.66 12.98 -10 14 C-10.66 14 -11.32 14 -12 14 C-12 14.66 -12 15.32 -12 16 C-13.2065625 16.680625 -13.2065625 16.680625 -14.4375 17.375 C-17.15236193 18.73420995 -17.15236193 18.73420995 -17.8125 21.1875 C-17.9053125 22.0846875 -17.9053125 22.0846875 -18 23 C-18.66 21.68 -19.32 20.36 -20 19 C-17.42081872 16.39169315 -14.83594303 13.78910186 -12.25 11.1875 C-11.52039063 10.44951172 -10.79078125 9.71152344 -10.0390625 8.95117188 C-9.33007812 8.23896484 -8.62109375 7.52675781 -7.890625 6.79296875 C-7.24125977 6.1383667 -6.59189453 5.48376465 -5.92285156 4.80932617 C-4.01135407 3.01068372 -2.23616358 1.3806148 0 0 Z " fill="#E5B03D" transform="translate(590,397)"/>
</svg>
