<?xml version="1.0" encoding="utf-8"?>
<!-- Generator: Adobe Illustrator 19.1.0, SVG Export Plug-In . SVG Version: 6.00 Build 0)  -->
<svg version="1.1" id="Layer_1" xmlns="http://www.w3.org/2000/svg" xmlns:xlink="http://www.w3.org/1999/xlink" x="0px" y="0px"
	 viewBox="0 0 256 256" enable-background="new 0 0 256 256" xml:space="preserve">
<rect fill="#4D4D4D" width="256" height="256"/>
<path fill="#A3C639" d="M172.5,164.3c-11,7.8-23.8,14.4-37.3,14.3c-27.3-0.2-41.3-8.4-48.7-23.8l114.8-26c0-0.1-0.1-0.3-0.1-0.4
	c-0.1-0.2-0.1-0.5-0.1-0.6c-0.1-0.3-0.1-0.6-0.1-0.9c0-0.3,0.1-0.6,0.2-1c-0.1-1-0.2-2-0.3-3.1c-0.1-1-0.3-2-0.3-3.1
	c-0.1-1-0.2-2.1-0.3-3.2c-0.2-1.1-0.4-2.2-0.6-3.4c-2.2-9.6-6-18.2-11.4-25.8c-5.4-7.6-12.3-14.2-20.7-19.7c-5.9-4-12.1-7-18.3-9
	l10.6-17c0.8-1.2,0.4-2.8-0.8-3.6c-1.2-0.8-2.8-0.4-3.6,0.8l-11.4,18.3c-0.9-0.2-1.9-0.4-2.8-0.6c-9.2-1.7-18.6-1.4-28.3,0.8
	c-10.2,2.4-19.2,6.4-27.1,12c-1.1,0.8-2.1,1.5-3.1,2.4L63.7,60.3c-1.2-0.8-2.8-0.4-3.6,0.8c-0.8,1.2-0.4,2.8,0.8,3.6l17.4,10.9
	c-4.7,4.5-8.9,9.8-12.5,15.8c-5.4,8.9-8.9,18.1-10.3,27.5c-1.5,9.5-1,19.3,1.3,29.5c2.3,10.1,6.2,18.9,11.6,26.6
	c5.4,7.7,12.5,14.2,21.2,19.5c8.7,5.3,17.7,8.6,27,10.1c9.3,1.4,18.9,1,29-1.4c7.3-1.7,14-2.9,20.3-6.6c4.3-2.5,12.3-7.4,18.5-12
	L172.5,164.3z M153.4,81.2c4.7-1.1,9.3,1.8,10.4,6.5c1.1,4.7-1.8,9.3-6.5,10.4c-4.7,1.1-9.3-1.8-10.4-6.5
	C145.8,86.9,148.7,82.3,153.4,81.2z M81.7,106.6c-1.1-4.7,1.8-9.3,6.5-10.4c4.7-1.1,9.3,1.8,10.4,6.5c1.1,4.7-1.8,9.3-6.5,10.4
	C87.4,114.2,82.8,111.3,81.7,106.6z"/>
</svg>
