<svg xmlns="http://www.w3.org/2000/svg" width="256" height="256">
   <g transform="matrix(2.555164,0,0,2.555164,-127.5164,-35.504944)">
   <path d="m 75.59,95.47 5.84,13.43 h -2.68 l -1.7,-3.66 h -4.31 l 0.86,-2.16 h 2.79 l -2.2,-5 -4.43,10.82 H 67.2 l 5.71,-13.43 z m 14.65,0 H 80 v 2.16 h 3.86 v 11.27 h 2.5 V 97.63 h 3.86 z m -23.1,6.35 q 0,7.08 -6.31,7.08 H 55 V 95.47 h 5.83 q 6.32,0 6.31,6.35 z m -2.49,0 c 0,-2.8 -1.4,-4.19 -4.19,-4.19 h -3 v 9.11 h 3 q 4.19,0 4.19,-4.92 z m 76.32,-0.57 -0.84,2.21 h 2.38 v 3.14 a 6.32,6.32 0 0 1 -1.55,0.23 c -3.05,0 -4.57,-1.62 -4.57,-4.84 q 0,-4.47 4.84,-4.47 A 9.43,9.43 0 0 1 145,98.27 V 96 a 11.09,11.09 0 0 0 -3.95,-0.66 q -7.26,0 -7.25,6.63 0,7 7.12,7 a 10.07,10.07 0 0 0 4.08,-0.72 v -7 z M 94.67,95.47 89,108.9 h 2.56 L 96,98 l 2.2,5 h -2.84 l -0.86,2.16 h 4.31 l 1.7,3.66 h 2.68 L 97.35,95.47 Z m 22.33,6.35 q 0,7.08 -6.31,7.08 h -5.83 V 95.47 h 5.83 q 6.31,0 6.31,6.35 z m -2.49,0 c 0,-2.8 -1.4,-4.19 -4.19,-4.19 h -3 v 9.11 h 3 q 4.17,0 4.18,-4.92 z m 16,-47.64 2.87,28 L 98.17,86.41 97.4,81 95.27,81.31 c 0.19,3 -0.52,5.92 -1.86,7.3 -1.58,1.62 -3.86,2 -6.27,1.71 a 5.4,5.4 0 0 1 -3.71,-2.83 c 3.33,2.36 7.46,1.27 8.87,-0.7 a 7,7 0 0 0 1.33,-5.26 L 73.88,84.36 66.66,25.79 125.24,19 l 3.44,35.52 z m 1.63,48 q 0,6.8 -6.66,6.8 -6.47,0 -6.76,-6.8 0,-6.83 6.76,-6.83 6.76,0 6.62,6.85 z m -2.59,0 q 0,-4.62 -4.07,-4.62 -4.07,0 -4.17,4.62 0,4.68 4.17,4.68 4.17,0 4.03,-4.71 z" fill="#632ca6" />
   <path d="m 99.75,60.45 a 31.34,31.34 0 0 1 -5.57,-4.64 c -0.17,-0.13 -0.14,-0.7 -0.14,-0.7 a 31.14,31.14 0 0 0 8.71,4.66 7.13,7.13 0 0 0 5.47,-0.47 14,14 0 0 0 4.21,-3.7 l 0.19,0.33 a 8.22,8.22 0 0 1 -0.73,1.7 4.58,4.58 0 0 0 1.25,0.46 l 3.32,-0.52 a 10.12,10.12 0 0 0 1.14,-8 c -0.52,-1.7 -3.23,-5.08 -3.43,-5.26 -0.68,-0.65 0.12,-3.18 -1.23,-5.94 -1.43,-2.92 -5.14,-6 -6.76,-7.28 0.48,0.35 3.41,1.53 4.77,3.18 0.13,-0.17 0.18,-1.06 0.3,-1.28 -1.17,-1.54 -1.27,-4.27 -1.27,-5 a 8.3,8.3 0 0 0 -0.67,-2.86 4.6,4.6 0 0 1 1.47,2.53 10.47,10.47 0 0 0 2.13,4.65 c 1.92,2.38 3.64,3.6 4.51,2.72 1,-1.06 -1.06,-5.78 -3.74,-8.42 -3.14,-3.08 -4,-2.68 -5.8,-2 -1.46,0.53 -2.26,4.69 -6.08,4.61 -0.65,-0.08 -2.31,-0.12 -3.14,-0.11 0.43,-0.6 0.8,-1.06 0.8,-1.06 a 18.09,18.09 0 0 0 -2.38,1.17 L 97,29.08 a 7.11,7.11 0 0 1 0.76,-1.27 21.92,21.92 0 0 0 -2,1.36 3,3 0 0 1 0.8,-1.52 6.11,6.11 0 0 0 -2.94,2.05 20.24,20.24 0 0 0 -3.82,1.51 6.64,6.64 0 0 1 -4.67,-3 c -0.83,-1.2 -2.31,-1.38 -3.82,-0.76 -2.2,0.91 -5,2.16 -5,2.16 0,0 0.91,0 1.85,0 a 24.26,24.26 0 0 0 -2.54,1.17 c 0,0 0.61,0 1.36,0 a 12.1,12.1 0 0 1 -1.3,1 18.06,18.06 0 0 0 -2.14,1.86 11.56,11.56 0 0 1 1.52,-0.57 c -0.5,1.15 -1.5,2 -1.32,3.42 0.18,1.42 1.77,4 3.82,5.6 0.18,0.15 3,2.74 5.09,1.68 2.09,-1.06 3,-2 3.3,-3.47 0.41,-1.67 0.18,-2.93 -0.7,-6.55 -0.29,-1.2 -1,-3.66 -1.4,-4.84 l 0.08,-0.06 a 57.76,57.76 0 0 1 3.17,7.89 c 1.12,4 0.77,6.07 0.26,6.82 -1.53,2.26 -5.47,2.56 -7.26,1.31 a 15.13,15.13 0 0 0 1,7.21 9.22,9.22 0 0 0 0.56,3.15 3.74,3.74 0 0 1 0.41,-1.42 9.06,9.06 0 0 0 0.64,2.4 4.5,4.5 0 0 1 0.29,-1.51 11,11 0 0 0 1,1.19 6.66,6.66 0 0 0 1,2 6.07,6.07 0 0 1 0,-1.28 c 1.64,1.58 1.93,3.88 2.09,5.64 0.46,4.86 -7.66,8.72 -9.23,11.77 -1.2,1.8 -1.91,4.64 0.11,6.32 4.88,4.06 3,5.18 5.45,7 3.35,2.44 7.55,1.35 9,-0.64 2,-2.77 1.48,-5.38 0.74,-7.83 C 92.47,77 90.9,73.77 89,72.54 a 8.53,8.53 0 0 0 -5.54,-1.32 l 0.15,-0.17 a 9.1,9.1 0 0 1 6.58,0.93 11.74,11.74 0 0 1 4.81,6.93 c 1.1,-0.15 1.25,-0.22 2.25,-0.37 L 95,61 Z m 11.32,-21.94 c 2.08,1 1.81,2.81 1.86,3.89 a 3.29,3.29 0 0 1 0,0.66 2.88,2.88 0 0 0 -1.46,-0.24 5.87,5.87 0 0 0 -0.62,0.07 4.29,4.29 0 0 1 -1.64,-2.07 l -0.1,-0.22 v -0.09 0 c -0.23,-0.73 -0.08,-0.88 0,-1.11 0.08,-0.23 0.48,-0.42 -0.08,-0.61 h -0.17 a 2.15,2.15 0 0 1 2.21,-0.28 z m -2.56,12.06 a 11.72,11.72 0 0 1 3.95,-1.1 7.56,7.56 0 0 1 2.44,0 c 0.54,0.3 0.54,1.22 0.17,2.08 -0.54,1.24 -1.3,2.6 -2.17,2.72 -1.4,0.18 -2.73,-0.58 -4.25,-1.71 a 1.24,1.24 0 0 1 -0.14,-1.99 z m -13.34,-9.4 c 2.23,-1.52 5.11,-0.92 4.63,-0.47 -0.92,0.88 0.3,0.62 0.43,2.23 a 2.79,2.79 0 0 1 -0.62,2.22 14.16,14.16 0 0 0 -2.57,0.59 15.74,15.74 0 0 0 -1.58,0.63 3.68,3.68 0 0 1 -0.41,-0.31 3.07,3.07 0 0 1 0.12,-4.89 z M 128.69,56.68 110.56,60 a 9,9 0 0 1 -2.09,1.86 6.53,6.53 0 0 1 -5.18,0.47 11.18,11.18 0 0 1 -2.07,-0.66 l -4.43,0.61 2.69,22.42 31.06,-5.6 z m -27.64,25.85 -0.26,-2.44 5.07,-7.74 5.76,1.65 5,-8.28 5.93,3.92 4.45,-9.43 1.6,17.24 z" fill="#ffffff" />
   </g>
</svg>
