<svg xmlns="http://www.w3.org/2000/svg" width="256" height="256" viewBox="0 0 256 256">
  <g fill="none">
    <rect width="256" height="256" fill="#004880"/>
    <path fill="#FFF" d="M165.671607,76.5536033 C189.656314,76.657935 209.034889,96.191438 208.999953,120.228351 L208.999953,162.325253 C209.016671,173.902708 204.43921,185.011719 196.276325,193.204142 C188.113439,201.396566 177.035095,206.000012 165.482676,206 L123.413875,206 C99.3799466,206 79.896598,186.474407 79.896598,162.388367 L79.896598,120.228351 C79.8797228,108.618012 84.4830944,97.480179 92.6869023,89.2822765 C100.89071,81.0843741 112.017685,76.5031842 123.602807,76.5536033 L165.671607,76.5536033 Z M123.161966,123.699609 C127.35539,119.416898 127.960951,112.76767 124.610443,107.794933 C121.630202,103.371737 116.196164,101.304995 111.038044,102.632906 C105.879924,103.960818 102.112606,108.396367 101.628552,113.711414 C101.144498,119.026461 104.048332,124.072205 108.881352,126.313983 C113.714371,128.555762 119.431961,127.509034 123.161966,123.699609 Z M164.91588,184.856878 C177.089361,184.856878 186.957917,174.966925 186.957917,162.767049 C186.957917,150.567174 177.089361,140.677221 164.91588,140.677221 C152.7424,140.677221 142.873844,150.567174 142.873844,162.767049 C142.873844,174.966925 152.7424,184.856878 164.91588,184.856878 Z M66.1034483,84.2978723 C56.6574746,84.2978723 49,76.6200321 49,67.1489362 C49,57.6778402 56.6574746,50 66.1034483,50 C75.5494219,50 83.2068966,57.6778402 83.2068966,67.1489362 C83.2068966,76.6200321 75.5494219,84.2978723 66.1034483,84.2978723 Z"/>
  </g>
</svg>
