<?xml version="1.0" encoding="UTF-8"?>
<svg width="256px" height="256px" viewBox="0 0 256 256" version="1.1" xmlns="http://www.w3.org/2000/svg" xmlns:xlink="http://www.w3.org/1999/xlink">
    <!-- Generator: Sketch 49 (51002) - http://www.bohemiancoding.com/sketch -->
    <title>ionic-stepicon</title>
    <desc>Created with Sketch.</desc>
    <defs>
        <polygon id="path-1" points="0.00013046875 0 167 0 167 167 0.00013046875 167"></polygon>
    </defs>
    <g id="New-Icons" stroke="none" stroke-width="1" fill="none" fill-rule="evenodd">
        <g id="Artboard-Copy">
            <g id="ionic-stepicon">
                <rect id="Rectangle" fill="#FFFFFF" x="0" y="0" width="256" height="256"></rect>
                <path d="M128.999837,91 C108.046842,91 91,108.047167 91,129.000489 C91,149.953158 108.046842,167 128.999837,167 C149.952833,167 167,149.953158 167,129.000489 C167,108.047167 149.952833,91 128.999837,91" id="Fill-1" fill="#478AFF"></path>
                <path d="M199,76 C199,85.3896204 191.386991,93 181.99984,93 C172.611091,93 165,85.3896204 165,76 C165,66.6103796 172.611091,59 181.99984,59 C191.386991,59 199,66.6103796 199,76" id="Fill-3" fill="#478AFF"></path>
                <g id="Group-7" transform="translate(45.000000, 45.000000)">
                    <mask id="mask-2" fill="white">
                        <use xlink:href="#path-1"></use>
                    </mask>
                    <g id="Clip-6"></g>
                    <path d="M159.49198,48.9058848 L158.764943,47.312209 L157.60638,48.6257031 C154.760857,51.8525215 151.143937,54.3415391 147.147679,55.8246426 L146.039021,56.2359453 L146.494357,57.3269902 C149.964173,65.6469824 151.723218,74.4532969 151.723218,83.5 C151.723218,121.118381 121.118511,151.723088 83.5001305,151.723088 C45.8814234,151.723088 15.2767164,121.118381 15.2767164,83.5 C15.2767164,45.8816191 45.8814234,15.2769121 83.5001305,15.2769121 C93.712898,15.2769121 103.549589,17.4961855 112.737199,21.8730859 L113.804759,22.3815879 L114.270533,21.294457 C115.949666,17.3735449 118.613511,13.8822012 121.972103,11.1981328 L123.340068,10.1051309 L121.785207,9.30144336 C109.847968,3.12961914 96.9667887,0 83.5001305,0 C37.4580348,0 0.00013046875,37.4582305 0.00013046875,83.5 C0.00013046875,129.542422 37.4580348,167 83.5001305,167 C129.5419,167 167.00013,129.542422 167.00013,83.5 C167.00013,71.4698027 164.473603,59.8303594 159.49198,48.9058848" id="Fill-5" fill="#478AFF" mask="url(#mask-2)"></path>
                </g>
            </g>
        </g>
    </g>
</svg>