<?xml version="1.0" encoding="UTF-8"?>
<svg width="256px" height="256px" viewBox="0 0 256 256" version="1.1" xmlns="http://www.w3.org/2000/svg" xmlns:xlink="http://www.w3.org/1999/xlink">
    <!-- Generator: Sketch 56.2 (81672) - https://sketch.com -->
    <title>ionic-stepicon</title>
    <desc>Created with Sketch.</desc>
    <defs>
        <linearGradient x1="70.2343762%" y1="40.8911133%" x2="74.0234375%" y2="131.567383%" id="linearGradient-1">
            <stop stop-color="#478AFF" offset="0%"></stop>
            <stop stop-color="#5B5EF4" offset="100%"></stop>
        </linearGradient>
    </defs>
    <g id="New-Icons" stroke="none" stroke-width="1" fill="none" fill-rule="evenodd">
        <g id="Ionic">
            <g id="ionic-stepicon">
                <rect id="Rectangle" fill="#FFFFFF" x="0" y="0" width="256" height="256"></rect>
                <path d="M128.999837,91 C149.952833,91 167,108.047167 167,129.000489 C167,149.953158 149.952833,167 128.999837,167 C108.046842,167 91,149.953158 91,129.000489 C91,108.047167 108.046842,91 128.999837,91 Z M199,76 C199,85.3896204 191.386991,93 181.99984,93 C172.611091,93 165,85.3896204 165,76 C165,66.6103796 172.611091,59 181.99984,59 C191.386991,59 199,66.6103796 199,76 Z M200.806562,94.8559375 C205.579375,105.3225 208,116.474062 208,128 C208,172.1125 172.111875,208 128,208 C83.8878125,208 48,172.1125 48,128 C48,83.888125 83.8878125,48 128,48 C140.902187,48 153.243437,50.9984375 164.680312,56.9115625 L166.17,57.6815625 L164.859375,58.72875 C161.641562,61.3003125 159.089375,64.6453125 157.480625,68.401875 L157.034375,69.4434375 L156.011562,68.95625 C147.209062,64.7628125 137.784687,62.6365625 128,62.6365625 C91.958125,62.6365625 62.63625,91.9584375 62.63625,128 C62.63625,164.041562 91.958125,193.363437 128,193.363437 C164.041562,193.363437 193.363437,164.041562 193.363437,128 C193.363437,119.3325 191.678125,110.895312 188.35375,102.924062 L187.9175,101.87875 L188.979687,101.484687 C192.808437,100.06375 196.27375,97.6790625 199,94.5875 L200.11,93.3290625 L200.806562,94.8559375 Z" id="Combined-Shape" fill="url(#linearGradient-1)"></path>
                <g id="Group-7" transform="translate(48.000000, 48.000000)"></g>
            </g>
        </g>
    </g>
</svg>