<svg xmlns="http://www.w3.org/2000/svg" xmlns:xlink="http://www.w3.org/1999/xlink" width="256" height="256" viewBox="0 0 256 256">
  <defs>
    <linearGradient id="git-tag-project-version-and-build-number-stepicon-a" x1="50%" x2="50%" y1=".689%" y2="97.648%">
      <stop offset="0%" stop-color="#FFB2C5"/>
      <stop offset="100%" stop-color="#F95F84"/>
    </linearGradient>
    <linearGradient id="git-tag-project-version-and-build-number-stepicon-b" x1="50%" x2="50%" y1="0%" y2="100%">
      <stop offset="0%" stop-color="#FFF"/>
      <stop offset="100%" stop-color="#FFF" stop-opacity=".5"/>
    </linearGradient>
    <path id="git-tag-project-version-and-build-number-stepicon-c" d="M75.1112081,0.5 L107.481465,0.5 C114.395261,0.5 120,6.05803273 120,12.9142136 L120,45.0147186 C120,48.3071728 118.681087,51.4647766 116.333406,53.7928932 L53.7407327,115.863961 C48.8519408,120.712013 40.925643,120.712013 36.0368511,115.863961 L3.66659392,83.763456 C-1.22219797,78.915404 -1.22219797,71.0551587 3.66659392,66.2071068 L66.2592673,4.13603897 C68.606948,1.80792232 71.7910863,0.5 75.1112081,0.5 Z M75.1112081,12.9142136 L12.5185347,74.9852814 L44.8887919,107.085786 L107.481465,45.0147186 L107.481465,12.9142136 L75.1112081,12.9142136 Z M82.4443959,50.1568542 C75.5306001,50.1568542 69.9258613,44.5988215 69.9258613,37.7426407 C69.9258613,30.8864599 75.5306001,25.3284271 82.4443959,25.3284271 C89.3581917,25.3284271 94.9629306,30.8864599 94.9629306,37.7426407 C94.9629306,44.5988215 89.3581917,50.1568542 82.4443959,50.1568542 Z"/>
  </defs>
  <g fill="none" fill-rule="evenodd">
    <rect width="256" height="256" fill="url(#git-tag-project-version-and-build-number-stepicon-a)" fill-rule="nonzero"/>
    <use fill="url(#git-tag-project-version-and-build-number-stepicon-b)" transform="translate(39 58.5)" xlink:href="#git-tag-project-version-and-build-number-stepicon-c"/>
    <path fill="#492F5C" d="M187.140845,155.285714 L206.535211,155.285714 L203.661972,169.571429 L184.267606,169.571429 L179.239437,196 L162.71831,196 L167.746479,169.571429 L146.915493,169.571429 L141.887324,196 L125.366197,196 L130.394366,169.571429 L111,169.571429 L113.873239,155.285714 L133.267606,155.285714 L136.859155,136.714286 L117.464789,136.714286 L120.338028,122.428571 L139.732394,122.428571 L144.760563,96 L161.28169,96 L156.253521,122.428571 L177.084507,122.428571 L182.112676,96 L198.633803,96 L193.605634,122.428571 L213,122.428571 L210.126761,136.714286 L190.732394,136.714286 L187.140845,155.285714 Z M170.470588,155 L174,136 L153.529412,136 L150,155 L170.470588,155 Z" style="mix-blend-mode:multiply"/>
  </g>
</svg>
