<svg xmlns="http://www.w3.org/2000/svg" xmlns:xlink="http://www.w3.org/1999/xlink" width="256" height="256" viewBox="0 0 256 256">
  <defs>
    <linearGradient id="git-last-commit-date-stepicon-a" x1="50%" x2="50%" y1=".689%" y2="97.648%">
      <stop offset="0%" stop-color="#FFB2C5"/>
      <stop offset="100%" stop-color="#F95F84"/>
    </linearGradient>
    <linearGradient id="git-last-commit-date-stepicon-b" x1="50%" x2="50%" y1="0%" y2="100%">
      <stop offset="0%" stop-color="#FFF"/>
      <stop offset="100%" stop-color="#FFF" stop-opacity=".5"/>
    </linearGradient>
    <path id="git-last-commit-date-stepicon-c" d="M149,159.666666 C175.4,159.666666 197,138.066666 197,111.666666 C197,85.2666661 175.4,63.6666661 149,63.6666661 C122.6,63.6666661 101,85.2666661 101,111.666666 C101,138.066666 122.6,159.666666 149,159.666666 Z M149,171.666666 C116,171.666666 89,144.666666 89,111.666666 C89,78.6666661 116,51.6666661 149,51.6666661 C182,51.6666661 209,78.6666661 209,111.666666 C209,144.666666 182,171.666666 149,171.666666 Z M171.535714,107.059071 L177,117.767932 L151.5,129.666666 L143,124.312236 L143,82.6666661 L155.142857,82.6666661 L155.142857,114.793248 L171.535714,107.059071 Z"/>
  </defs>
  <g fill="none" fill-rule="evenodd">
    <rect width="256" height="256" fill="url(#git-last-commit-date-stepicon-a)" fill-rule="nonzero"/>
    <path fill="url(#git-last-commit-date-stepicon-b)" d="M146.325003,163.356322 C142.871553,181.933979 126.578424,196 107,196 C87.4215761,196 71.1284474,181.933979 67.6749972,163.356322 L27,163.356322 L27,147.724138 L67.8571596,147.724138 C71.6691881,129.603832 87.7459214,116 107,116 C126.254079,116 142.330812,129.603832 146.14284,147.724138 L207.183908,147.724138 L207.183908,163.356322 L146.325003,163.356322 Z M83,156 C83,169.254834 93.745166,180 107,180 C120.254834,180 131,169.254834 131,156 C131,142.745166 120.254834,132 107,132 C93.745166,132 83,142.745166 83,156 Z"/>
    <use fill="#492F5C" xlink:href="#git-last-commit-date-stepicon-c" style="mix-blend-mode:multiply"/>
  </g>
</svg>
