<?xml version="1.0" encoding="UTF-8"?>
<svg width="256px" height="256px" viewBox="0 0 256 256" version="1.1" xmlns="http://www.w3.org/2000/svg" xmlns:xlink="http://www.w3.org/1999/xlink">
    <!-- Generator: Sketch 56.2 (81672) - https://sketch.com -->
    <title>Flutter Executes</title>
    <desc>Created with Sketch.</desc>
    <defs>
        <linearGradient x1="50%" y1="98.4939487%" x2="50%" y2="0%" id="linearGradient-1">
            <stop stop-color="#4082C7" offset="0%"></stop>
            <stop stop-color="#4EC5F7" offset="100%"></stop>
        </linearGradient>
        <polygon id="path-2" points="82 164.75 69.8 177 21 128 69.8 79 82 91.25 45.4 128"></polygon>
    </defs>
    <g id="Flutter-Executes" stroke="none" stroke-width="1" fill="none" fill-rule="evenodd">
        <rect id="Rectangle" fill="url(#linearGradient-1)" x="0" y="0" width="256" height="256"></rect>
        <g id="Group-12" transform="translate(56.000000, 43.000000)" fill="#FFFFFF" fill-opacity="0.9">
            <polygon id="Fill-1" points="65.4723529 97.0937647 137.468824 169.411412 84.6017647 169.411412 38.9276471 123.493765"></polygon>
            <polygon id="Fill-3" points="0.354 84.5996471 27.0010588 111.211412 139.024588 -0.000352941177 85.6951765 -0.000352941177"></polygon>
            <polygon id="Fill-7" points="38.9294118 123.493765 65.5411765 150.105529 138.035294 77.7878824 84.8117647 77.7878824"></polygon>
        </g>
        <polygon id="Mask" fill="#17579B" style="mix-blend-mode: multiply;" transform="translate(202.500000, 128.000000) scale(-1, 1) translate(-202.500000, -128.000000) " points="233 164.75 220.8 177 172 128 220.8 79 233 91.25 196.4 128"></polygon>
        <mask id="mask-3" fill="white">
            <use xlink:href="#path-2"></use>
        </mask>
        <use id="icons-/-chevron-left" fill="#17579B" style="mix-blend-mode: multiply;" xlink:href="#path-2"></use>
    </g>
</svg>