<?xml version="1.0" encoding="UTF-8"?><svg xmlns="http://www.w3.org/2000/svg" xmlns:xlink="http://www.w3.org/1999/xlink" viewBox="0 0 400 400"><defs><style>.cls-1{fill:url(#linear-gradient);}.cls-2{fill:#683d87;}.cls-3{fill:#fff;}.cls-4{mix-blend-mode:multiply;}.cls-5{isolation:isolate;}</style><linearGradient id="linear-gradient" x1="201.38" y1="-56.65" x2="201.38" y2="359.19" gradientUnits="userSpaceOnUse"><stop offset="0" stop-color="#990fc3"/><stop offset=".07" stop-color="#9e13b3"/><stop offset=".28" stop-color="#ae2087"/><stop offset=".49" stop-color="#ba2a64"/><stop offset=".68" stop-color="#c3324b"/><stop offset=".86" stop-color="#c9363c"/><stop offset="1" stop-color="#cb3837"/></linearGradient></defs><g class="cls-5"><g id="Layer_1"><rect class="cls-1" x="-7.67" y="-9.96" width="418.11" height="415.84"/><g><polygon class="cls-3" points="59.85 223.42 93.8 223.42 93.8 172.49 110.77 172.49 110.77 223.42 127.75 223.42 127.75 155.52 59.85 155.52 59.85 223.42"/><path class="cls-3" d="M144.73,155.52v84.88h33.95v-16.98h33.95v-67.9h-67.9Zm50.93,50.93h-16.98v-33.95h16.98v33.95Z"/><polygon class="cls-3" points="229.6 155.52 229.6 223.42 263.55 223.42 263.55 172.49 280.53 172.49 280.53 223.42 297.51 223.42 297.51 172.49 314.48 172.49 314.48 223.42 331.46 223.42 331.46 155.52 229.6 155.52"/></g><g class="cls-4"><path class="cls-2" d="M350.59,222.29l-25.65-25.65c-5.3-5.3-12.35-8.22-19.85-8.22h-77c-12.44,0-22.56,10.12-22.56,22.56v108.17c0,12.44,10.12,22.56,22.56,22.56h108.17c12.44,0,22.56-10.12,22.56-22.56v-77c0-7.5-2.92-14.55-8.22-19.85Zm-42.39,100.41h-49.27v-34.4c0-1.15,.93-2.08,2.08-2.08h45.12c1.15,0,2.08,.93,2.08,2.08v34.4Zm31.61-3.56c0,1.96-1.6,3.56-3.56,3.56h-9.05v-34.4c0-11.62-9.46-21.08-21.08-21.08h-45.12c-11.62,0-21.08,9.46-21.08,21.08v34.4h-11.84c-1.96,0-3.56-1.6-3.56-3.56v-108.17c0-1.96,1.6-3.56,3.56-3.56h77c2.42,0,4.7,.94,6.42,2.66l25.65,25.65c1.71,1.71,2.66,3.99,2.66,6.42v77Zm-43.67-90.58h-52.29c-1.42,0-2.58,1.15-2.58,2.58v17.32c0,1.42,1.15,2.58,2.58,2.58h52.29c1.42,0,2.58-1.15,2.58-2.58v-17.32c0-1.42-1.15-2.58-2.58-2.58Z"/></g></g></g></svg>