<svg id="Layer_1" data-name="Layer 1" xmlns="http://www.w3.org/2000/svg" viewBox="0 0 256 256"><defs><style>.cls-1{fill:#0e70e8;}.cls-2{fill:#004a93;}.cls-3{fill:#fff;}</style></defs><title>mac</title><rect class="cls-1" y="0.09" width="256" height="256"/><path class="cls-2" d="M200,213.5H56A13.51,13.51,0,0,1,42.5,200V56A13.51,13.51,0,0,1,56,42.5H200A13.51,13.51,0,0,1,213.5,56V200A13.51,13.51,0,0,1,200,213.5ZM56,45.5A10.51,10.51,0,0,0,45.5,56V200A10.51,10.51,0,0,0,56,210.5H200A10.51,10.51,0,0,0,210.5,200V56A10.51,10.51,0,0,0,200,45.5H56Z"/><rect class="cls-2" x="126.77" y="13.92" width="3" height="227.48" transform="translate(-52.7 128.09) rotate(-45)"/><rect class="cls-2" x="14.53" y="126.16" width="227.48" height="3" transform="translate(-52.7 128.26) rotate(-45.05)"/><circle class="cls-3" cx="128" cy="128.09" r="63.47"/><path class="cls-1" d="M108.58,103.07h3.58l15.84,22,16.19-22h3.5L130,127.39l18.65,25.73H145l-17-23.41-17,23.41h-3.65l18.79-25.73Z"/></svg>