<?xml version="1.0" encoding="utf-8"?>
<!-- Generator: Adobe Illustrator 19.1.0, SVG Export Plug-In . SVG Version: 6.00 Build 0)  -->
<svg version="1.1" id="Layer_1" xmlns="http://www.w3.org/2000/svg" xmlns:xlink="http://www.w3.org/1999/xlink" x="0px" y="0px"
	 viewBox="0 0 256 256" enable-background="new 0 0 256 256" xml:space="preserve">
<rect fill="#A4C439" width="256" height="256"/>
<g>
	<path fill="#FFFFFF" d="M70.1,99.7c-5.5,0-9.9,4.4-9.9,9.9l0,41.4c0,5.5,4.4,9.9,9.9,9.9c5.5,0,9.9-4.4,9.9-9.9l0-41.4
		C80,104.1,75.5,99.7,70.1,99.7"/>
	<path fill="#FFFFFF" d="M149.8,62.5l6.9-12.6c0.4-0.7,0.1-1.5-0.5-1.9c-0.7-0.4-1.5-0.1-1.9,0.5l-7,12.7
		c-5.9-2.6-12.4-4.1-19.4-4.1c-6.9,0-13.5,1.5-19.3,4l-7-12.7c-0.4-0.7-1.2-0.9-1.9-0.5c-0.7,0.4-0.9,1.2-0.5,1.9l6.9,12.6
		c-13.6,7-22.7,20.3-22.7,35.6l89.1,0C172.5,82.8,163.4,69.5,149.8,62.5 M107.7,82c-2.1,0-3.7-1.7-3.7-3.7c0-2.1,1.7-3.7,3.7-3.7
		c2.1,0,3.7,1.7,3.7,3.7C111.5,80.3,109.8,82,107.7,82 M148.3,82c-2.1,0-3.7-1.7-3.7-3.7c0-2,1.7-3.7,3.7-3.7c2,0,3.7,1.7,3.7,3.7
		C152,80.3,150.3,82,148.3,82"/>
	<path fill="#FFFFFF" d="M83.8,165.7c0,5.8,4.7,10.6,10.5,10.6l7.2,0l0,21.9c0,5.5,4.4,9.9,9.9,9.9c5.5,0,9.9-4.4,9.9-9.9l0-21.9
		l13.3,0l0,21.9c0,5.5,4.4,9.9,9.9,9.9c5.5,0,9.9-4.4,9.9-9.9l0-21.9l7.2,0c5.8,0,10.6-4.7,10.5-10.6l0-64.2l-88.4,0L83.8,165.7z"/>
	<path fill="#FFFFFF" d="M185.9,99.7c-5.5,0-9.9,4.4-9.9,9.9l0,41.4c0,5.5,4.4,9.9,9.9,9.9c5.5,0,9.9-4.4,9.9-9.9l0-41.4
		C195.8,104.1,191.4,99.7,185.9,99.7"/>
	<path fill="#FFFFFF" d="M70.1,99.7c-5.5,0-9.9,4.4-9.9,9.9l0,41.4c0,5.5,4.4,9.9,9.9,9.9c5.5,0,9.9-4.4,9.9-9.9l0-41.4
		C80,104.1,75.5,99.7,70.1,99.7 M149.8,62.5l6.9-12.6c0.4-0.7,0.1-1.5-0.5-1.9c-0.7-0.4-1.5-0.1-1.9,0.5l-7,12.7
		c-5.9-2.6-12.4-4.1-19.4-4.1c-6.9,0-13.5,1.5-19.3,4l-7-12.7c-0.4-0.7-1.2-0.9-1.9-0.5c-0.7,0.4-0.9,1.2-0.5,1.9l6.9,12.6
		c-13.6,7-22.7,20.3-22.7,35.6l89.1,0C172.5,82.8,163.4,69.5,149.8,62.5 M107.7,82c-2.1,0-3.7-1.7-3.7-3.7c0-2.1,1.7-3.7,3.7-3.7
		c2.1,0,3.7,1.7,3.7,3.7C111.5,80.3,109.8,82,107.7,82 M148.3,82c-2.1,0-3.7-1.7-3.7-3.7c0-2,1.7-3.7,3.7-3.7c2,0,3.7,1.7,3.7,3.7
		C152,80.3,150.3,82,148.3,82 M83.8,101.6l0,64.2c0,5.8,4.7,10.5,10.6,10.5l7.2,0l0,21.9c0,5.5,4.4,9.9,9.9,9.9
		c5.5,0,9.9-4.4,9.9-9.9l0-21.9l13.3,0l0,21.9c0,5.5,4.4,9.9,9.9,9.9c5.5,0,9.9-4.4,9.9-9.9l0-21.9l7.2,0c5.8,0,10.6-4.7,10.6-10.6
		l0-64.2L83.8,101.6z M195.8,109.6c0-5.5-4.4-9.9-9.9-9.9c-5.5,0-9.9,4.4-9.9,9.9l0,41.4c0,5.5,4.4,9.9,9.9,9.9
		c5.5,0,9.9-4.4,9.9-9.9L195.8,109.6z"/>
</g>
</svg>
