<?xml version="1.0" encoding="UTF-8"?>
<svg width="256px" height="256px" viewBox="0 0 256 256" version="1.1" xmlns="http://www.w3.org/2000/svg" xmlns:xlink="http://www.w3.org/1999/xlink">
    <!-- Generator: Sketch 56.2 (81672) - https://sketch.com -->
    <title>Start Android Emulator</title>
    <desc>Created with Sketch.</desc>
    <defs>
        <linearGradient x1="50%" y1="0%" x2="50%" y2="100%" id="linearGradient-1">
            <stop stop-color="#53A906" offset="0%"></stop>
            <stop stop-color="#A4C639" offset="100%"></stop>
        </linearGradient>
        <linearGradient x1="50%" y1="100%" x2="50%" y2="0%" id="linearGradient-2">
            <stop stop-color="#FFFFFF" stop-opacity="0.7" offset="0%"></stop>
            <stop stop-color="#FFFFFF" offset="100%"></stop>
        </linearGradient>
        <linearGradient x1="-25.2858907%" y1="-146.465871%" x2="121.31296%" y2="149.69957%" id="linearGradient-3">
            <stop stop-color="#0DD3C5" offset="0%"></stop>
            <stop stop-color="#0DC0C7" offset="8.75127635%"></stop>
            <stop stop-color="#0D83CD" offset="100%"></stop>
        </linearGradient>
    </defs>
    <g id="Start-Android-Emulator" stroke="none" stroke-width="1" fill="none" fill-rule="evenodd">
        <g id="start-android-emulator">
            <rect id="Rectangle" fill="url(#linearGradient-1)" x="0" y="0" width="256" height="256"></rect>
            <path d="M84.0032787,63.9611734 C89.2704918,61.7169974 94.5377049,60.9689387 100.557377,60.9689387 C105.82459,60.9689387 110.339344,61.7169974 114.854098,63.2131148 L126.893443,51.244176 C129.903279,48.2519413 134.418033,48.2519413 137.427869,51.244176 C140.437705,54.2364107 140.437705,58.7247627 137.427869,61.7169974 L128.398361,70.6937015 C138.932787,78.9223469 145.704918,91.6393443 145.704918,105.852459 L55.4098361,105.852459 C55.4098361,92.3874029 61.4295082,80.4184642 71.2114754,72.1898188 L60.6770492,61.7169974 C57.6672131,58.7247627 57.6672131,54.2364107 60.6770492,51.244176 C63.6868852,48.2519413 68.2016393,48.2519413 71.2114754,51.244176 L84.0032787,63.9611734 Z M70.4590164,151.433515 L62.9344262,151.433515 C58.4196721,151.433515 55.4098361,148.411293 55.4098361,143.87796 L55.4098361,113.655738 L145.704918,113.655738 L145.704918,143.87796 C145.704918,143.87796 145.704918,143.87796 145.704918,143.87796 C145.704918,148.411293 142.695082,151.433515 138.180328,151.433515 L130.655738,151.433515 L130.655738,174.100182 C130.655738,177.87796 127.645902,181.655738 123.131148,181.655738 C118.616393,181.655738 115.606557,178.633515 115.606557,174.100182 L115.606557,151.433515 L85.5081967,151.433515 L85.5081967,174.100182 C85.5081967,177.87796 82.4983607,181.655738 77.9836066,181.655738 C73.4688525,181.655738 70.4590164,178.633515 70.4590164,174.100182 L70.4590164,151.433515 Z M168,114.459823 L168,145.179522 C168,148.925826 164.878689,152.672131 160.196721,152.672131 C155.514754,152.672131 152.393443,149.675087 152.393443,145.179522 L152.393443,114.459823 C152.393443,110.713518 155.514754,106.967213 160.196721,106.967213 C164.878689,106.967213 168,109.964257 168,114.459823 Z M39.8032787,105.852459 C44.4852459,105.852459 47.6065574,108.899454 47.6065574,113.469945 L47.6065574,143.939891 C47.6065574,147.748634 44.4852459,151.557377 39.8032787,151.557377 C35.1213115,151.557377 32,148.510383 32,143.939891 L32,113.469945 C32,108.899454 35.1213115,105.852459 39.8032787,105.852459 Z M122.295082,99.1639344 C126.977049,99.1639344 130.098361,96.042623 130.098361,91.3606557 C130.098361,87.4590164 126.977049,83.557377 122.295082,83.557377 C117.613115,83.557377 114.491803,87.4590164 114.491803,91.3606557 C114.491803,96.042623 117.613115,99.1639344 122.295082,99.1639344 Z M77.704918,99.1639344 C82.3868852,99.1639344 85.5081967,96.042623 85.5081967,91.3606557 C85.5081967,87.4590164 82.3868852,83.557377 77.704918,83.557377 C73.0229508,83.557377 69.9016393,87.4590164 69.9016393,91.3606557 C69.9016393,96.042623 73.0229508,99.1639344 77.704918,99.1639344 Z" id="icons-/-platforms-/-android" fill="url(#linearGradient-2)"></path>
        </g>
        <path d="M139.837198,138.691705 L139.837198,195.938178 L197.083671,167.314941 L139.837198,138.691705 Z M123,125.221946 C123,123.538227 123,122.696367 123.84186,121.854507 C126.36744,117.645207 131.418599,115.961487 134.786039,117.645207 L218.972029,159.738202 C220.655749,160.580062 222.339469,162.263782 222.339469,163.105642 C224.023188,167.314941 222.339469,172.366101 218.972029,174.049821 L134.786039,216.142816 C133.944179,216.984676 133.102319,217.826536 131.418599,217.826536 C126.36744,217.826536 123,214.459096 123,209.407937 L123,125.221946 Z" id="Icon-/-play" fill="url(#linearGradient-3)" fill-rule="nonzero" style="mix-blend-mode: multiply;"></path>
    </g>
</svg>