<svg xmlns="http://www.w3.org/2000/svg" width="256" height="256" viewBox="0 0 256 256">
  <g fill="none" fill-rule="evenodd">
    <rect width="256" height="256" fill="#FFF" fill-rule="nonzero"/>
    <path fill="#5558AF" fill-rule="nonzero" d="M179.926952,110.624685 C181.154912,111.852645 182.603275,112.828715 184.202771,113.508816 C187.540302,114.906801 191.299748,114.906801 194.643577,113.508816 C197.867758,112.13602 200.437028,109.573048 201.803526,106.348866 C203.201511,103.011335 203.201511,99.2518892 201.803526,95.9080605 C200.43073,92.6838791 197.867758,90.1146096 194.643577,88.7481108 C191.306045,87.3501259 187.546599,87.3501259 184.202771,88.7481108 C180.978589,90.1209068 178.40932,92.6838791 177.042821,95.9080605 C175.644836,99.2455919 175.644836,103.005038 177.042821,106.348866 C177.722922,107.942065 178.70529,109.396725 179.926952,110.624685 L179.926952,110.624685 Z M175.997481,123.080605 L175.997481,163.515113 L182.735516,163.515113 C185.052897,163.502519 187.357683,163.288413 189.630982,162.860202 C191.916877,162.457179 194.120907,161.688917 196.161209,160.580605 C198.088161,159.535264 199.75063,158.061713 201.028967,156.285894 C202.370277,154.314861 203.044081,151.965995 202.949622,149.579345 L202.949622,123.080605 L175.997481,123.080605 Z M154.15869,106.128463 C155.947103,106.141058 157.722922,105.782116 159.372796,105.076826 C162.596977,103.70403 165.15995,101.141058 166.526448,97.9168766 C167.924433,94.5793451 167.924433,90.8198992 166.520151,87.4760705 C165.147355,84.2518892 162.584383,81.6826196 159.360202,80.3161209 C157.710327,79.6108312 155.934509,79.2518892 154.139798,79.2644836 C152.357683,79.2518892 150.594458,79.6108312 148.957179,80.3161209 C147.735516,80.8387909 147.351385,81.5188917 145.670025,82.3375315 L145.670025,103.055416 C147.357683,103.880353 147.735516,104.554156 148.957179,105.076826 C150.600756,105.788413 152.370277,106.141058 154.15869,106.128463 L154.15869,106.128463 Z M145.670025,174.207809 C147.357683,174.573048 147.962217,174.856423 149.15869,175.020151 C150.468514,175.209068 151.790932,175.303526 153.11335,175.309824 C155.153652,175.297229 157.193955,175.083123 159.190176,174.654912 C161.224181,174.245592 163.176322,173.483627 164.952141,172.406801 C166.696474,171.336272 168.163728,169.875315 169.246851,168.143577 C170.443325,166.122166 171.028967,163.792191 170.940806,161.443325 L170.940806,114.654912 L145.670025,114.654912 L145.670025,174.207809 L145.670025,174.207809 Z M53,187.104534 L140.61335,202.268262 L140.61335,54 L53,69.163728 L53,187.104534 Z"/>
    <polygon fill="#FFF" points="117.024 99.491 76.589 101.953 76.589 111.28 91.753 110.669 91.753 153.912 101.86 154.504 101.86 110.272 117.024 109.598"/>
  </g>
</svg>
