<?xml version="1.0" encoding="UTF-8"?>
<svg width="256px" height="256px" viewBox="0 0 256 256" version="1.1" xmlns="http://www.w3.org/2000/svg" xmlns:xlink="http://www.w3.org/1999/xlink">
    <!-- Generator: Sketch 61.2 (89653) - https://sketch.com -->
    <title>Artboard</title>
    <desc>Created with Sketch.</desc>
    <g id="Artboard" stroke="none" stroke-width="1" fill="none" fill-rule="evenodd">
        <rect fill="#FFFFFF" x="0" y="0" width="256" height="256"></rect>
        <g id="onesignal-seeklogo.com" transform="translate(21.000000, 29.000000)" fill="#E44A49" fill-rule="nonzero">
            <path d="M107.287373,0.127358938 C48.1343349,0.127358938 0,48.2185353 0,107.318535 C0,144.9803 19.7176794,178.00677 48.7142666,197.127359 C50.4540619,195.968535 52.1938572,194.809711 53.9336524,193.650888 C55.0935159,193.071476 56.8333111,191.912652 57.9931746,191.333241 C59.7329698,190.753829 61.4727651,189.595006 62.6326285,189.015594 C64.3724238,188.436182 66.1122191,187.856771 67.8520143,186.697947 C69.0118778,186.118535 70.751673,185.539123 71.9115365,184.959712 C73.6513317,184.3803 75.9710587,183.800888 77.710854,183.221477 C79.4506492,182.642064 80.6105127,182.642064 82.3503079,182.062652 C84.090103,181.483241 85.2499663,181.483241 86.9897621,180.903829 C88.729557,180.324417 90.4693527,180.324417 92.2091477,180.324417 L92.2091477,180.324417 C93.9489426,180.324417 96.26867,179.745006 98.0084649,179.745006 L98.0084649,179.745006 L98.0084649,172.792064 L98.0084649,166.997947 L98.0084649,143.242065 L98.0084649,137.447947 L98.0084649,116.009712 L92.2091477,116.009712 L92.2091477,104.421477 L98.0084649,104.421477 L115.406418,104.421477 L121.205735,104.421477 L121.205735,135.709711 L121.205735,142.083241 L121.205735,166.418535 L121.205735,172.212653 L121.205735,180.903829 C137.443824,183.221477 151.942118,189.015594 165.280548,197.127359 L165.280548,197.127359 C194.857067,178.00677 213.994814,144.9803 213.994814,107.318535 C214.574746,48.2185353 166.440411,0.127358938 107.287373,0.127358938 L107.287373,0.127358938 Z M139.183619,107.318535 C139.183619,89.936182 124.685325,75.4508882 107.287373,75.4508882 C89.8894203,75.4508882 75.391127,89.936182 75.391127,107.318535 C75.391127,119.486182 82.3503079,130.495006 92.7890793,135.709711 L92.7890793,142.083241 C79.4506492,136.289123 69.5918095,122.962653 69.5918095,107.318535 C69.5918095,86.459712 86.4098304,69.6567706 107.287373,69.6567706 C128.164916,69.6567706 144.982936,86.459712 144.982936,107.318535 C144.982936,120.645006 138.023756,132.233241 127.584984,139.186182 L127.584984,132.233241 C134.544165,125.859712 139.183619,117.168535 139.183619,107.318535 L139.183619,107.318535 Z M127.584984,170.474418 L127.584984,164.100888 C151.362186,155.989124 168.180206,133.392065 168.180206,106.739123 C168.180206,73.7126529 140.923414,46.4803 107.287373,46.4803 C73.6513317,46.4803 46.3945397,73.7126529 46.3945397,107.318535 C46.3945397,135.709711 66.1122191,160.045006 92.7890793,166.418535 L92.7890793,172.212653 C63.2125603,165.839124 40.5952222,139.186182 40.5952222,107.318535 C40.5952222,70.2361824 70.1717413,40.6861824 107.287373,40.6861824 C144.403005,40.6861824 173.979524,70.2361824 173.979524,107.318535 C173.979524,136.868536 154.261844,162.362653 127.584984,170.474418 L127.584984,170.474418 Z" id="Shape"></path>
        </g>
    </g>
</svg>