<?xml version="1.0" encoding="utf-8"?>
<!-- Generator: Adobe Illustrator 19.1.0, SVG Export Plug-In . SVG Version: 6.00 Build 0)  -->
<svg version="1.1" id="Layer_1" xmlns="http://www.w3.org/2000/svg" xmlns:xlink="http://www.w3.org/1999/xlink" x="0px" y="0px"
	 viewBox="0 0 256 256" enable-background="new 0 0 256 256" xml:space="preserve">
<rect x="0" y="0" fill="#6D6E71" width="256" height="256"/>
<g>
	
		<path fill="none" stroke="#FFFFFF" stroke-width="4.7407" stroke-linecap="round" stroke-linejoin="round" stroke-miterlimit="10" d="
		M183.7,184.1H72.3c-4.8,0-8.7-3.9-8.7-8.7v-82c0-4.8,3.9-8.7,8.7-8.7h82.5c0,0,3.7-7.3,5.4-9.5c1.8-2.4,5-3.3,8-3.3h15.6
		c4.8,0,8.7,3.9,8.7,8.7v94.8C192.4,180.2,188.5,184.1,183.7,184.1z"/>
	
		<line fill="none" stroke="#FFFFFF" stroke-width="4.7407" stroke-linecap="round" stroke-linejoin="round" stroke-miterlimit="10" x1="65.6" y1="102" x2="190.7" y2="102"/>
	<line fill="none" stroke="#FFFFFF" stroke-width="4.7407" stroke-miterlimit="10" x1="112.7" y1="125.3" x2="144.6" y2="157.2"/>
	<line fill="none" stroke="#FFFFFF" stroke-width="4.7407" stroke-miterlimit="10" x1="144.6" y1="125.3" x2="112.7" y2="157.2"/>
</g>
</svg>
