<svg xmlns="http://www.w3.org/2000/svg" xmlns:xlink="http://www.w3.org/1999/xlink" width="256" height="256" viewBox="0 0 256 256">
  <defs>
    <linearGradient id="swiftlint-b" x1="50%" x2="50%" y1=".689%" y2="97.648%">
      <stop offset="0%" stop-color="#FBB040"/>
      <stop offset="100%" stop-color="#FF3527"/>
    </linearGradient>
    <rect id="swiftlint-a" width="256" height="256" x="23" y="0"/>
    <linearGradient id="swiftlint-d" x1="82.112%" x2="0%" y1="50%" y2="50%">
      <stop offset="0%" stop-color="#0D83CD" stop-opacity=".53"/>
      <stop offset="100%" stop-color="#054AB0"/>
    </linearGradient>
  </defs>
  <g fill="none" fill-rule="evenodd" transform="translate(-23)">
    <mask id="swiftlint-c" fill="#fff">
      <use xlink:href="#swiftlint-a"/>
    </mask>
    <use fill="url(#swiftlint-b)" fill-rule="nonzero" xlink:href="#swiftlint-a"/>
    <path fill="#FEFEFE" d="M162.355315,44 C237.503932,94.9114489 213.19107,150.962963 213.19107,150.962963 C213.19107,150.962963 234.556924,174.949994 225.961318,196 C225.961318,196 217.120474,181.31397 202.385252,181.31397 C188.141591,181.31397 179.791765,196 151.058481,196 C87.206879,196 57,142.885692 57,142.885692 C114.492507,180.643983 153.75989,153.900169 153.75989,153.900169 C127.823969,138.884931 72.7174373,67.2528652 72.7174373,67.2528652 C120.750206,107.972407 141.480659,118.653698 141.480659,118.653698 C129.070647,108.469383 94.3287096,58.6860296 94.3287096,58.6860296 C122.12694,86.7186565 177.335955,125.752021 177.335955,125.752021 C193.083503,82.6050858 162.355315,44 162.355315,44" mask="url(#swiftlint-c)"/>
    <path fill="url(#swiftlint-d)" fill-rule="nonzero" d="M0,198 L0,178 C5.9594235,178 11.1020997,179.216649 15.7652943,181.58068 C19.1413019,183.292164 21.2618735,184.873097 25.3905398,188.361511 C30.8543047,192.977984 32.8702948,194 37.8731769,194 C42.8764585,194 44.8926305,192.977931 50.3566882,188.361389 C54.4854904,184.872994 56.6061291,183.292072 59.9822235,181.580609 C64.6455103,179.216623 69.7882749,178 75.7478123,178 C81.7073521,178 86.85012,179.216625 91.5134022,181.580613 C94.8895073,183.292084 97.0101994,184.873054 101.138927,188.361419 C106.602923,192.977954 108.619035,194 113.622083,194 C118.625365,194 120.641537,192.977931 126.105594,188.361389 C130.234397,184.872994 132.355035,183.292072 135.73113,181.580609 C140.394416,179.216623 145.537181,178 151.496718,178 C157.456261,178 162.599032,179.216626 167.26231,181.580616 C170.638425,183.292096 172.759171,184.873114 176.887824,188.36145 C182.351759,192.977977 184.367811,194 189.370625,194 C194.374305,194 196.390707,192.977849 201.854846,188.361327 C205.983821,184.872854 208.104563,183.291894 211.480648,181.580478 C216.14388,179.216578 221.286564,178 227.245989,178 C233.205759,178 238.348707,179.216574 243.012169,181.580476 C246.388459,183.291912 248.509338,184.872908 252.638263,188.361205 C258.102784,192.977872 260.119199,194 265.122812,194 C270.126893,194 272.143453,192.977811 277.60799,188.361174 C281.737083,184.87277 283.857874,183.291845 287.234093,181.580439 C291.897491,179.216562 297.040348,178 303,178 L303,198 C297.996153,198 295.979678,199.022152 290.515232,203.63871 C286.386096,207.127152 284.26527,208.7081 280.888991,210.419527 C276.225524,212.783427 271.08258,214 265.122812,214 C259.163273,214 254.020501,212.783448 249.357176,210.419592 C245.981005,208.708198 243.860196,207.127249 239.731359,203.639026 C234.266653,199.022204 232.250069,198 227.245989,198 C222.242776,198 220.226542,199.022076 214.762588,203.638442 C210.633525,207.126989 208.512713,208.707996 205.13651,210.419454 C200.47314,212.7834 195.330281,214 189.370625,214 C183.411313,214 178.268717,212.783396 173.605578,210.419451 C170.22958,208.708014 168.108905,207.127043 163.98034,203.638781 C158.51622,199.022098 156.5,198 151.496718,198 C146.493437,198 144.477265,199.022069 139.013207,203.638611 C134.884405,207.127006 132.763766,208.707928 129.387672,210.419391 C124.724385,212.783377 119.58162,214 113.622083,214 C107.662659,214 102.519978,212.783386 97.8567651,210.419421 C94.4807191,208.707971 92.3600624,207.127024 88.2313785,203.638696 C82.7672898,199.022084 80.7510935,198 75.7478123,198 C70.7445306,198 68.7283587,199.022069 63.264301,203.638611 C59.1354988,207.127006 57.0148601,208.707928 53.6387656,210.419391 C48.9754788,212.783377 43.8327143,214 37.8731769,214 C31.9137534,214 26.7710771,212.783351 22.1078826,210.41932 C18.731875,208.707836 16.6113034,207.126903 12.4826371,203.638489 C7.01887221,199.022016 5.00288214,198 0,198 Z" mask="url(#swiftlint-c)" style="mix-blend-mode:multiply"/>
    <path fill="url(#swiftlint-d)" fill-rule="nonzero" d="M0,232 L0,212 C5.9594235,212 11.1020997,213.216649 15.7652943,215.58068 C19.1413019,217.292164 21.2618735,218.873097 25.3905398,222.361511 C30.8543047,226.977984 32.8702948,228 37.8731769,228 C42.8764585,228 44.8926305,226.977931 50.3566882,222.361389 C54.4854904,218.872994 56.6061291,217.292072 59.9822235,215.580609 C64.6455103,213.216623 69.7882749,212 75.7478123,212 C81.7073521,212 86.85012,213.216625 91.5134022,215.580613 C94.8895073,217.292084 97.0101994,218.873054 101.138927,222.361419 C106.602923,226.977954 108.619035,228 113.622083,228 C118.625365,228 120.641537,226.977931 126.105594,222.361389 C130.234397,218.872994 132.355035,217.292072 135.73113,215.580609 C140.394416,213.216623 145.537181,212 151.496718,212 C157.456261,212 162.599032,213.216626 167.26231,215.580616 C170.638425,217.292096 172.759171,218.873114 176.887824,222.36145 C182.351759,226.977977 184.367811,228 189.370625,228 C194.374305,228 196.390707,226.977849 201.854846,222.361327 C205.983821,218.872854 208.104563,217.291894 211.480648,215.580478 C216.14388,213.216578 221.286564,212 227.245989,212 C233.205759,212 238.348707,213.216574 243.012169,215.580476 C246.388459,217.291912 248.509338,218.872908 252.638263,222.361205 C258.102784,226.977872 260.119199,228 265.122812,228 C270.126893,228 272.143453,226.977811 277.60799,222.361174 C281.737083,218.87277 283.857874,217.291845 287.234093,215.580439 C291.897491,213.216562 297.040348,212 303,212 L303,232 C297.996153,232 295.979678,233.022152 290.515232,237.63871 C286.386096,241.127152 284.26527,242.7081 280.888991,244.419527 C276.225524,246.783427 271.08258,248 265.122812,248 C259.163273,248 254.020501,246.783448 249.357176,244.419592 C245.981005,242.708198 243.860196,241.127249 239.731359,237.639026 C234.266653,233.022204 232.250069,232 227.245989,232 C222.242776,232 220.226542,233.022076 214.762588,237.638442 C210.633525,241.126989 208.512713,242.707996 205.13651,244.419454 C200.47314,246.7834 195.330281,248 189.370625,248 C183.411313,248 178.268717,246.783396 173.605578,244.419451 C170.22958,242.708014 168.108905,241.127043 163.98034,237.638781 C158.51622,233.022098 156.5,232 151.496718,232 C146.493437,232 144.477265,233.022069 139.013207,237.638611 C134.884405,241.127006 132.763766,242.707928 129.387672,244.419391 C124.724385,246.783377 119.58162,248 113.622083,248 C107.662659,248 102.519978,246.783386 97.8567651,244.419421 C94.4807191,242.707971 92.3600624,241.127024 88.2313785,237.638696 C82.7672898,233.022084 80.7510935,232 75.7478123,232 C70.7445306,232 68.7283587,233.022069 63.264301,237.638611 C59.1354988,241.127006 57.0148601,242.707928 53.6387656,244.419391 C48.9754788,246.783377 43.8327143,248 37.8731769,248 C31.9137534,248 26.7710771,246.783351 22.1078826,244.41932 C18.731875,242.707836 16.6113034,241.126903 12.4826371,237.638489 C7.01887221,233.022016 5.00288214,232 0,232 Z" mask="url(#swiftlint-c)" style="mix-blend-mode:multiply"/>
  </g>
</svg>
