<?xml version="1.0" encoding="utf-8"?>
<!-- Generator: Adobe Illustrator 19.1.0, SVG Export Plug-In . SVG Version: 6.00 Build 0)  -->
<svg version="1.1" id="Layer_1" xmlns="http://www.w3.org/2000/svg" xmlns:xlink="http://www.w3.org/1999/xlink" x="0px" y="0px"
	 viewBox="0 0 256 256" enable-background="new 0 0 256 256" xml:space="preserve">
<rect x="0" y="0" fill="#FF1200" width="256" height="256"/>
<g>
	<path fill="#FFFFFF" d="M150.7,118.8c-6.7,0-12.9,0.1-19-0.1c-0.6,0-1.4-1.4-1.6-2.2c-2-6.4-5.9-11-12.4-13.2
		c-12-4.1-25.8,0.8-30.9,14.2c-4.1,11-1.5,23.4,6.9,30.7c5.9,5.1,12.9,6.7,20.5,5.3c7.6-1.3,12.7-5.5,15.7-12.6
		c0.3-0.7,1.5-1.4,2.4-1.4c5.4-0.1,10.8,0,16.2-0.1c1.9,0,2.2,0.9,1.8,2.4c-3.7,13.2-11.8,22.5-24.8,26.8c-13.9,4.6-27.7,3.8-40.4-4
		c-11.2-6.9-17.4-17.3-19.2-30.2C64.1,121.6,67,110.1,75,100c6.9-8.8,16.2-13.4,27.1-14.8c10.2-1.4,20.3-0.3,29.4,4.9
		c9.7,5.4,15.9,13.6,18.3,24.6C150.1,115.8,150.3,117.1,150.7,118.8z"/>
	<path fill="#FFFFFF" d="M161.6,91.7c3.7-1.6,7.2-3.1,10.8-4.6c1.3-0.5,1.7,0.1,2.1,1.2c3,7.1,6,14.1,9,21.2
		c2.3,5.3,4.6,10.6,6.7,15.9c0.4,1.1,0.6,2.6,0.2,3.6c-5.3,12.7-10.7,25.3-16.1,38c-0.1,0.3-0.4,0.6-0.7,1.2
		c-4-1.7-7.9-3.4-12.1-5.2c1.9-4.4,3.7-8.6,5.5-12.8c3-7,6-14,8.9-21.1c0.4-1,0.4-2.4,0-3.4c-4.4-10.5-8.9-21-13.4-31.6
		C162.2,93.4,161.9,92.7,161.6,91.7z"/>
</g>
</svg>
