<?xml version="1.0" encoding="UTF-8"?>
<svg width="256px" height="256px" viewBox="0 0 256 256" version="1.1" xmlns="http://www.w3.org/2000/svg" xmlns:xlink="http://www.w3.org/1999/xlink">
    <!-- Generator: Sketch 50.2 (55047) - http://www.bohemiancoding.com/sketch -->
    <title>cocoapods-install-stepicon</title>
    <desc>Created with Sketch.</desc>
    <defs></defs>
    <g id="New-Icons" stroke="none" stroke-width="1" fill="none" fill-rule="evenodd">
        <g id="Run-CocoaPods-install" fill-rule="nonzero">
            <g id="cocoapods-install-stepicon">
                <rect id="Rectangle-path" fill="#FF1200" x="0" y="0" width="256" height="256"></rect>
                <g id="Group" transform="translate(50.000000, 75.000000)" fill="#FFFFFF">
                    <path d="M105,42.1143087 C96.754015,42.1143087 89.1234019,42.2376054 81.6158633,41.9910121 C80.8774169,41.9910121 79.8928217,40.264859 79.6466729,39.2784857 C77.1851848,31.3875 72.385283,25.715854 64.3854468,23.0033276 C49.6165184,17.9481649 32.6322507,23.9897008 26.3554561,40.5114523 C21.3094055,54.074084 24.50934,69.3628689 34.8475899,78.3635245 C42.1089797,84.6516538 50.724188,86.6244002 60.0778427,84.8982471 C69.4314974,83.2953906 75.7082919,78.1169312 79.400524,69.3628689 C79.7697473,68.4997923 81.2466401,67.6367158 82.3543097,67.6367158 C89.0003275,67.5134191 95.6463453,67.6367158 102.292363,67.5134191 C104.630777,67.5134191 105,68.623089 104.507702,70.4725388 C99.9539495,86.7476969 89.9849228,98.2142856 73.9852503,103.516042 C56.8779082,109.187688 39.8936405,108.201314 24.2631912,98.5841755 C10.478858,90.0767065 2.84824499,77.2538547 0.632905727,61.3485865 C-1.58243354,45.566615 1.98672417,31.3875 11.8326765,18.9345381 C20.3248103,8.08443269 31.7707298,2.41278668 45.1858398,0.686633546 C57.739429,-1.03951959 70.1699438,0.316743589 81.3697145,6.72816951 C93.3079317,13.3861887 100.938545,23.4965142 103.89233,37.059146 C104.261554,38.4154092 104.507702,40.0182657 105,42.1143087 Z" id="Shape"></path>
                    <path d="M119.123635,7.87887693 C123.698119,5.91033057 128.025335,4.06481835 132.476185,2.21930614 C134.083436,1.6041354 134.577975,2.34234028 135.072514,3.69571591 C138.781555,12.4311404 142.490597,21.0435307 146.199639,29.7789552 C149.043237,36.2997651 151.886836,42.8205749 154.483165,49.3413847 C154.977704,50.6947604 155.224973,52.5402726 154.730434,53.7706141 C148.177794,69.3959508 141.501519,84.8982535 134.825244,100.52359 C134.70161,100.892693 134.330705,101.261795 133.959801,102 C129.014412,99.9084195 124.192658,97.816839 119,95.6022243 C121.34906,90.1887218 123.574485,85.0212876 125.79991,79.8538534 C129.508951,71.2414631 133.217993,62.6290727 136.8034,53.8936482 C137.297939,52.6633067 137.297939,50.9408287 136.8034,49.7104872 C131.363472,36.7919017 125.79991,23.8733161 120.236347,10.8316965 C119.865443,9.97045745 119.494539,9.10921841 119.123635,7.87887693 Z" id="Shape"></path>
                </g>
            </g>
        </g>
    </g>
</svg>