<?xml version="1.0" encoding="UTF-8"?>
<!DOCTYPE svg PUBLIC "-//W3C//DTD SVG 1.1//EN" "http://www.w3.org/Graphics/SVG/1.1/DTD/svg11.dtd">
<!-- Creator: CorelDRAW -->
<svg xmlns="http://www.w3.org/2000/svg" xml:space="preserve" width="256px" height="256px" version="1.1" style="shape-rendering:geometricPrecision; text-rendering:geometricPrecision; image-rendering:optimizeQuality; fill-rule:evenodd; clip-rule:evenodd"
viewBox="0 0 256 256"
 xmlns:xlink="http://www.w3.org/1999/xlink"
 xmlns:xodm="http://www.corel.com/coreldraw/odm/2003">
 <defs>
  <style type="text/css">
   <![CDATA[
    .fil1 {fill:white}
    .fil4 {fill:white;fill-rule:nonzero}
    .fil0 {fill:url(#id2)}
    .fil2 {fill:url(#id3)}
    .fil3 {fill:url(#id4)}
   ]]>
  </style>
   <mask id="id0">
  <linearGradient id="id1" gradientUnits="userSpaceOnUse" x1="58" y1="281" x2="145" y2="16">
   <stop offset="0" style="stop-opacity:0; stop-color:white"/>
   <stop offset="1" style="stop-opacity:1; stop-color:white"/>
  </linearGradient>
    <rect style="fill:url(#id1)" x="87.673" y="18.39" width="111.529" height="216.207"/>
   </mask>
  <linearGradient id="id2" gradientUnits="userSpaceOnUse" x1="128" y1="0" x2="128" y2="256">
   <stop offset="0" style="stop-opacity:1; stop-color:#54C3FA"/>
   <stop offset="1" style="stop-opacity:1; stop-color:#1586F5"/>
  </linearGradient>
  <linearGradient id="id3" gradientUnits="userSpaceOnUse" x1="127.594" y1="51.521" x2="160.227" y2="205.202">
   <stop offset="0" style="stop-opacity:0.854902; stop-color:#135EA7"/>
   <stop offset="1" style="stop-opacity:1; stop-color:#1E568F"/>
  </linearGradient>
  <linearGradient id="id4" gradientUnits="userSpaceOnUse" xlink:href="#id3" x1="127.824" y1="87.021" x2="145.002" y2="169.686">
  </linearGradient>
 </defs>
 <g id="Layer_x0020_1">
  <metadata id="CorelCorpID_0Corel-Layer"/>
  <rect class="fil0" width="256" height="256"/>
  <path class="fil1" style="mask:url(#id0)" d="M172.693 51.789c5.642,1.694 7.616,7.138 7.662,7.151 5.483,1.469 9.343,2.503 11.623,3.114 2.193,-8.182 6.432,-24.004 7.08,-26.42 -3.624,-0.971 -5.016,-1.344 -11.624,-3.115 -3.565,1.57 -5.072,2.733 -9.245,1.827 -6.37,-1.381 -5.235,-7.351 -27.077,-13.203 -21.842,-5.853 -45.218,-1.247 -58.865,7.767 2.762,-0.088 4.344,-0.134 6.526,-0.599 13.988,-2.983 26.184,-1.005 33.286,8.918 8.21,11.471 5.548,32.342 -3.969,61.529 -8.315,25.501 -18.451,52.794 -39.86,121.329 -1.512,4.843 0.913,11.177 10.926,13.86 7.356,1.971 13.859,-2.137 15.13,-6.878 7.641,-28.517 18.352,-79.73 28.684,-124.324 7.21,-31.123 10.411,-56.755 29.723,-50.956z"/>
  <path id="Combined-Shape" class="fil2" d="M135.238 188.732l-7.307 17.611 -7.355 -17.591 -11.308 15.349 -2.932 -18.84 -14.652 12.196 1.661 -18.994 -17.145 8.335 6.157 -18.046 -18.641 3.989 10.296 -16.046 -19.054 -0.59 13.836 -13.116 -18.359 -5.133 16.572 -9.422 -16.598 -9.379 18.345 -5.182 -13.872 -13.079 19.052 -0.64 -10.339 -16.019 18.652 3.939 -6.207 -18.028 17.167 8.289 -1.712 -18.99 14.685 12.158 2.88 -18.848 11.35 15.32 7.307 -17.611 7.355 17.592 11.308 -15.35 2.932 18.841 14.652 -12.197 -1.66 18.995 17.144 -8.335 -6.157 18.045 18.641 -3.989 -10.296 16.047 19.054 0.589 -13.836 13.116 18.359 5.133 -16.572 9.423 16.598 9.379 -18.345 5.181 13.872 13.08 -19.052 0.639 10.339 16.02 -18.651 -3.94 6.206 18.029 -17.167 -8.29 1.713 18.991 -14.686 -12.159 -2.88 18.848 -11.35 -15.32zm-1.48 -7.39c29.53,-3.626 50.53,-30.51 46.903,-60.049 -3.627,-29.538 -30.507,-50.544 -60.037,-46.918 -29.531,3.626 -50.53,30.511 -46.904,60.049 3.627,29.538 30.507,50.544 60.038,46.918z"/>
  <path id="Combined-Shape_0" class="fil3" d="M122.787 87.333c22.656,-2.781 43.276,13.329 46.058,35.984 2.781,22.655 -13.329,43.275 -35.984,46.057 -22.655,2.781 -43.276,-13.328 -46.057,-35.984 -2.782,-22.654 13.328,-43.275 35.983,-46.057z"/>
  <path id="ZIP" class="fil4" d="M115.741 129.569l-2.7 0 1.35 -4.725 1.35 4.725zm1.35 4.59l1.08 3.645 6.48 0 -6.885 -18.9 -6.75 0 -6.884 18.9 6.48 0 1.079 -3.645 5.4 0z"/>
  <path id="1" class="fil4" d="M126.406 118.904l0 18.9 6.075 0 0 -5.13 2.835 0c4.455,0 7.29,-2.97 7.29,-6.885 0,-3.915 -2.835,-6.885 -7.29,-6.885l-8.91 0zm8.505 5.4c0.945,0 1.62,0.675 1.62,1.485 0,0.81 -0.675,1.485 -1.62,1.485l-2.43 0 0 -2.97 2.43 0z"/>
  <polygon id="2" class="fil4" points="145.441,137.804 151.516,137.804 151.516,118.904 145.441,118.904 "/>
 </g>
</svg>
