<?xml version="1.0" encoding="UTF-8"?>
<svg xmlns="http://www.w3.org/2000/svg" xmlns:xlink="http://www.w3.org/1999/xlink" width="240px" height="240px" viewBox="0 0 240 240" version="1.1">
<g id="surface1">
<rect x="0" y="0" width="240" height="240" style="fill:rgb(100%,100%,100%);fill-opacity:1;stroke:none;"/>
<path style=" stroke:none;fill-rule:nonzero;fill:rgb(0%,0%,0%);fill-opacity:1;" d="M 59.617188 59.617188 L 59.617188 180.382812 L 110.652344 180.382812 C 105.363281 178.46875 100.792969 174.96875 97.5625 170.367188 C 94.332031 165.761719 92.59375 160.277344 92.589844 154.652344 C 92.585938 151.050781 93.292969 147.484375 94.671875 144.15625 C 96.046875 140.832031 98.066406 137.804688 100.613281 135.257812 C 103.15625 132.710938 106.179688 130.691406 109.507812 129.3125 C 112.832031 127.933594 116.398438 127.222656 120 127.222656 C 127.269531 127.222656 134.242188 130.113281 139.382812 135.253906 C 144.523438 140.394531 147.410156 147.363281 147.410156 154.632812 C 147.40625 160.257812 145.667969 165.742188 142.4375 170.347656 C 139.207031 174.949219 134.636719 178.449219 129.347656 180.363281 L 180.382812 180.363281 L 180.382812 59.617188 Z M 59.617188 59.617188 "/>
</g>
</svg>
