<?xml version="1.0" encoding="UTF-8"?>
<svg xmlns="http://www.w3.org/2000/svg" xmlns:xlink="http://www.w3.org/1999/xlink" width="256px" height="256px" viewBox="0 0 256 256" version="1.1">
<g id="surface1">
<rect x="0" y="0" width="256" height="256" style="fill:rgb(100%,100%,100%);fill-opacity:1;stroke:none;"/>
<path style=" stroke:none;fill-rule:nonzero;fill:rgb(0%,0%,0%);fill-opacity:1;" d="M 63.59375 63.59375 L 63.59375 192.40625 L 118.027344 192.40625 C 112.386719 190.363281 107.511719 186.636719 104.066406 181.726562 C 100.621094 176.8125 98.769531 170.964844 98.761719 164.964844 C 98.761719 161.121094 99.515625 157.316406 100.984375 153.769531 C 102.449219 150.21875 104.605469 146.992188 107.320312 144.277344 C 110.035156 141.558594 113.257812 139.402344 116.808594 137.933594 C 120.355469 136.460938 124.160156 135.707031 128 135.707031 C 135.753906 135.707031 143.191406 138.785156 148.671875 144.269531 C 154.15625 149.753906 157.238281 157.1875 157.238281 164.941406 C 157.230469 170.941406 155.378906 176.792969 151.933594 181.703125 C 148.488281 186.613281 143.613281 190.34375 137.972656 192.386719 L 192.40625 192.386719 L 192.40625 63.59375 Z M 63.59375 63.59375 "/>
</g>
</svg>
