<svg width="256" height="256" viewBox="0 0 256 256" fill="none" xmlns="http://www.w3.org/2000/svg">
<rect width="256" height="256" rx="14.0659" fill="url(#paint0_linear_3995_30051)"/>
<g filter="url(#filter0_d_3995_30051)">
<path fill-rule="evenodd" clip-rule="evenodd" d="M104.265 93.9001C104.263 89.8935 105.799 86.0114 108.61 82.9216C111.421 79.8319 115.331 77.7276 119.667 76.9708C124.003 76.2141 128.494 76.8521 132.368 78.7751C136.242 80.6981 139.256 83.786 140.892 87.5075C142.707 87.3183 144.546 87.5122 146.266 88.074C147.985 88.6358 149.539 89.5504 150.805 90.7464C152.071 91.9424 153.015 93.3876 153.565 94.9692C154.114 96.5509 154.253 98.2263 153.972 99.8648C156.718 101.265 158.875 103.452 160.105 106.082C161.335 108.713 161.57 111.64 160.772 114.405C159.974 117.17 158.188 119.617 155.695 121.362C153.201 123.108 150.14 124.055 146.99 124.054H111.386C107.606 124.056 103.938 122.888 100.989 120.743C98.0389 118.598 95.9831 115.605 95.1607 112.257C94.3384 108.91 94.7985 105.407 96.4652 102.329C98.1319 99.2506 100.905 96.7798 104.328 95.3245C104.286 94.8507 104.265 94.3755 104.265 93.9001V93.9001Z" fill="white"/>
<path d="M25.7714 149.365H30.0745L36.2384 160.646L42.4314 149.365H46.7054V169.34H42.4314V156.896L36.2384 168.177L30.0745 156.896V169.34H25.7714V149.365ZM57.624 153.959C58.9227 153.959 60.076 154.221 61.084 154.744C62.0919 155.268 62.8672 156.014 63.41 156.983C63.9721 157.933 64.2531 159.057 64.2531 160.356V169.34H60.1536V167.828C59.6302 168.409 58.9615 168.865 58.1474 169.194C57.3527 169.524 56.5386 169.689 55.7051 169.689C54.639 169.689 53.6795 169.495 52.8266 169.107C51.9738 168.7 51.2954 168.138 50.7914 167.421C50.3068 166.684 50.0645 165.841 50.0645 164.891C50.0645 163.922 50.3359 163.06 50.8786 162.304C51.4407 161.548 52.1967 160.957 53.1465 160.53C54.0963 160.104 55.143 159.89 56.2866 159.89C57.5853 159.89 58.8743 160.152 60.1536 160.675V160.356C60.1536 159.483 59.8628 158.766 59.2813 158.204C58.6998 157.642 57.8276 157.361 56.6646 157.361C55.4628 157.361 54.1641 157.72 52.7685 158.437L51.3438 155.616C53.5148 154.512 55.6082 153.959 57.624 153.959ZM56.6646 166.752C57.5174 166.752 58.2734 166.568 58.9324 166.2C59.5914 165.812 59.9985 165.279 60.1536 164.601V163.234C59.165 162.846 58.0795 162.653 56.8972 162.653C56.1218 162.653 55.4628 162.856 54.92 163.263C54.3773 163.67 54.1059 164.174 54.1059 164.775C54.1059 165.376 54.3482 165.861 54.8328 166.229C55.3174 166.578 55.928 166.752 56.6646 166.752ZM74.8719 166.403C75.5697 166.403 76.2675 166.268 76.9653 165.996C77.6825 165.725 78.2833 165.366 78.7679 164.92L81.1521 167.363C80.493 168.061 79.582 168.623 78.419 169.049C77.2754 169.476 76.1415 169.689 75.0172 169.689C73.5441 169.689 72.1873 169.35 70.9467 168.671C69.7256 167.993 68.7564 167.053 68.0392 165.851C67.3414 164.649 66.9925 163.292 66.9925 161.78C66.9925 160.288 67.3317 158.95 68.0102 157.768C68.708 156.586 69.6481 155.655 70.8304 154.977C72.0128 154.298 73.3309 153.959 74.7846 153.959C76.3353 153.959 77.6825 154.318 78.8261 155.035C79.9697 155.752 80.8419 156.789 81.4428 158.146C82.0437 159.503 82.3442 161.102 82.3442 162.943H71.034C71.2278 163.99 71.6639 164.833 72.3423 165.473C73.0208 166.093 73.8639 166.403 74.8719 166.403ZM74.8428 157.245C73.9124 157.245 73.108 157.535 72.4296 158.117C71.7512 158.679 71.2956 159.445 71.063 160.414H78.2736C78.0992 159.445 77.7115 158.679 77.1106 158.117C76.5098 157.535 75.7538 157.245 74.8428 157.245ZM90.7112 169.689C89.49 169.689 88.2786 169.495 87.0768 169.107C85.875 168.7 84.8283 168.138 83.9367 167.421L85.6521 164.746C86.4275 165.308 87.2706 165.754 88.1816 166.083C89.112 166.413 89.9843 166.578 90.7984 166.578C91.4962 166.578 92.0292 166.461 92.3975 166.229C92.7852 165.977 92.979 165.628 92.979 165.182C92.979 164.736 92.7367 164.387 92.2521 164.135C91.7869 163.883 91.0698 163.641 90.1006 163.409C88.8794 163.118 87.8909 162.808 87.1349 162.478C86.379 162.149 85.7684 161.693 85.3032 161.112C84.8574 160.53 84.6345 159.774 84.6345 158.844C84.6345 157.894 84.8768 157.051 85.3614 156.314C85.846 155.578 86.5341 155.006 87.4257 154.599C88.3173 154.172 89.3446 153.959 90.5076 153.959C91.535 153.959 92.5623 154.124 93.5896 154.453C94.6169 154.783 95.557 155.238 96.4099 155.82L94.8689 158.553C94.1517 158.088 93.4055 157.72 92.6301 157.448C91.8742 157.157 91.1667 157.012 90.5076 157.012C89.9261 157.012 89.4416 157.148 89.0539 157.419C88.6662 157.671 88.4724 158.001 88.4724 158.408C88.4724 158.776 88.6565 159.057 89.0248 159.251C89.4125 159.445 90.1878 159.697 91.3508 160.007C92.4751 160.298 93.4151 160.608 94.1711 160.937C94.927 161.247 95.557 161.722 96.061 162.362C96.5843 162.982 96.846 163.806 96.846 164.833C96.846 166.306 96.2839 167.489 95.1596 168.38C94.0548 169.253 92.572 169.689 90.7112 169.689ZM108.503 168.38C108.057 168.768 107.524 169.088 106.904 169.34C106.284 169.572 105.673 169.689 105.072 169.689C103.735 169.689 102.64 169.262 101.787 168.409C100.953 167.557 100.536 166.452 100.536 165.095V157.739H98.4722V154.308H100.536V150.179H104.636V154.308H107.892V157.739H104.636V164.426C104.636 164.911 104.772 165.318 105.043 165.647C105.314 165.957 105.644 166.113 106.032 166.113C106.322 166.113 106.594 166.074 106.846 165.996C107.117 165.899 107.33 165.773 107.485 165.618L108.503 168.38ZM115.498 157.128C116.002 156.14 116.7 155.364 117.591 154.802C118.502 154.24 119.52 153.959 120.644 153.959V157.535C119.074 157.535 117.824 157.952 116.893 158.786C115.963 159.619 115.498 160.743 115.498 162.158V169.34H111.253V154.308H115.498V157.128ZM130.899 169.689C129.425 169.689 128.059 169.34 126.799 168.642C125.539 167.925 124.541 166.965 123.804 165.764C123.068 164.542 122.699 163.224 122.699 161.809C122.699 160.394 123.068 159.086 123.804 157.884C124.541 156.683 125.539 155.733 126.799 155.035C128.059 154.318 129.425 153.959 130.899 153.959C132.372 153.959 133.738 154.318 134.998 155.035C136.258 155.733 137.256 156.683 137.993 157.884C138.729 159.086 139.098 160.394 139.098 161.809C139.098 163.224 138.729 164.542 137.993 165.764C137.256 166.965 136.258 167.925 134.998 168.642C133.738 169.34 132.372 169.689 130.899 169.689ZM130.899 166.113C131.635 166.113 132.314 165.919 132.934 165.531C133.573 165.143 134.077 164.62 134.446 163.961C134.814 163.302 134.998 162.585 134.998 161.809C134.998 161.034 134.814 160.327 134.446 159.687C134.077 159.028 133.573 158.505 132.934 158.117C132.314 157.729 131.635 157.535 130.899 157.535C130.162 157.535 129.474 157.729 128.834 158.117C128.195 158.505 127.691 159.028 127.322 159.687C126.954 160.327 126.77 161.034 126.77 161.809C126.77 162.585 126.954 163.302 127.322 163.961C127.691 164.62 128.195 165.143 128.834 165.531C129.474 165.919 130.162 166.113 130.899 166.113ZM159.954 169.689C158.074 169.689 156.31 169.224 154.662 168.293C153.034 167.343 151.735 166.074 150.766 164.484C149.797 162.895 149.312 161.179 149.312 159.338C149.312 157.497 149.797 155.791 150.766 154.221C151.735 152.631 153.034 151.371 154.662 150.441C156.31 149.491 158.074 149.016 159.954 149.016C161.446 149.016 162.861 149.317 164.199 149.918C165.536 150.499 166.699 151.313 167.688 152.36L164.577 155.151C163.995 154.473 163.297 153.93 162.483 153.523C161.669 153.116 160.826 152.912 159.954 152.912C158.849 152.912 157.822 153.213 156.872 153.814C155.922 154.395 155.156 155.18 154.575 156.169C154.013 157.157 153.732 158.214 153.732 159.338C153.732 160.482 154.013 161.548 154.575 162.536C155.137 163.525 155.893 164.32 156.843 164.92C157.812 165.502 158.849 165.793 159.954 165.793C160.845 165.793 161.689 165.599 162.483 165.211C163.297 164.804 163.995 164.252 164.577 163.554L167.688 166.345C166.699 167.392 165.526 168.216 164.17 168.816C162.832 169.398 161.427 169.689 159.954 169.689ZM170.652 149.016H174.897V169.34H170.652V149.016ZM186.124 169.689C184.651 169.689 183.284 169.34 182.024 168.642C180.765 167.925 179.766 166.965 179.03 165.764C178.293 164.542 177.925 163.224 177.925 161.809C177.925 160.394 178.293 159.086 179.03 157.884C179.766 156.683 180.765 155.733 182.024 155.035C183.284 154.318 184.651 153.959 186.124 153.959C187.597 153.959 188.964 154.318 190.224 155.035C191.484 155.733 192.482 156.683 193.218 157.884C193.955 159.086 194.323 160.394 194.323 161.809C194.323 163.224 193.955 164.542 193.218 165.764C192.482 166.965 191.484 167.925 190.224 168.642C188.964 169.34 187.597 169.689 186.124 169.689ZM186.124 166.113C186.861 166.113 187.539 165.919 188.159 165.531C188.799 165.143 189.303 164.62 189.671 163.961C190.039 163.302 190.224 162.585 190.224 161.809C190.224 161.034 190.039 160.327 189.671 159.687C189.303 159.028 188.799 158.505 188.159 158.117C187.539 157.729 186.861 157.535 186.124 157.535C185.387 157.535 184.699 157.729 184.06 158.117C183.42 158.505 182.916 159.028 182.548 159.687C182.18 160.327 181.995 161.034 181.995 161.809C181.995 162.585 182.18 163.302 182.548 163.961C182.916 164.62 183.42 165.143 184.06 165.531C184.699 165.919 185.387 166.113 186.124 166.113ZM211.357 154.308V169.34H207.112V167.508C206.647 168.187 206.017 168.72 205.222 169.107C204.428 169.495 203.555 169.689 202.605 169.689C201.52 169.689 200.551 169.446 199.698 168.962C198.864 168.458 198.205 167.77 197.721 166.898C197.256 166.006 197.023 164.998 197.023 163.874V154.308H201.094V162.972C201.094 163.903 201.355 164.659 201.879 165.24C202.421 165.822 203.119 166.113 203.972 166.113C204.864 166.113 205.61 165.831 206.211 165.269C206.812 164.707 207.112 164.019 207.112 163.205V154.308H211.357ZM230.722 149.016V169.34H226.477V167.188C225.877 167.983 225.14 168.603 224.268 169.049C223.395 169.476 222.436 169.689 221.389 169.689C220.071 169.689 218.889 169.359 217.842 168.7C216.795 168.022 215.972 167.082 215.371 165.88C214.789 164.678 214.499 163.321 214.499 161.809C214.499 160.298 214.789 158.95 215.371 157.768C215.972 156.566 216.795 155.636 217.842 154.977C218.889 154.298 220.071 153.959 221.389 153.959C222.436 153.959 223.395 154.182 224.268 154.628C225.14 155.054 225.877 155.665 226.477 156.46V149.016H230.722ZM222.64 166.113C223.764 166.113 224.684 165.715 225.402 164.92C226.119 164.106 226.477 163.069 226.477 161.809C226.477 160.569 226.119 159.551 225.402 158.757C224.684 157.942 223.764 157.535 222.64 157.535C221.457 157.535 220.488 157.933 219.732 158.727C218.995 159.522 218.627 160.549 218.627 161.809C218.627 163.069 218.995 164.106 219.732 164.92C220.488 165.715 221.457 166.113 222.64 166.113Z" fill="white"/>
</g>
<defs>
<filter id="filter0_d_3995_30051" x="23" y="76.6606" width="212.813" height="108.306" filterUnits="userSpaceOnUse" color-interpolation-filters="sRGB">
<feFlood flood-opacity="0" result="BackgroundImageFix"/>
<feColorMatrix in="SourceAlpha" type="matrix" values="0 0 0 0 0 0 0 0 0 0 0 0 0 0 0 0 0 0 127 0" result="hardAlpha"/>
<feOffset dx="2.81319" dy="5.62637"/>
<feComposite in2="hardAlpha" operator="out"/>
<feColorMatrix type="matrix" values="0 0 0 0 0 0 0 0 0 0 0 0 0 0 0 0 0 0 0.1 0"/>
<feBlend mode="normal" in2="BackgroundImageFix" result="effect1_dropShadow_3995_30051"/>
<feBlend mode="normal" in="SourceGraphic" in2="effect1_dropShadow_3995_30051" result="shape"/>
</filter>
<linearGradient id="paint0_linear_3995_30051" x1="8" y1="3.5" x2="139" y2="293" gradientUnits="userSpaceOnUse">
<stop offset="0.0400132" stop-color="#21D4FD"/>
<stop offset="0.91404" stop-color="#B721FF"/>
</linearGradient>
</defs>
</svg>
