<?xml version="1.0" encoding="UTF-8"?>
<svg id="Layer_1" xmlns="http://www.w3.org/2000/svg" version="1.1" viewBox="0 0 256 256">
  <!-- Generator: Adobe Illustrator 29.1.0, SVG Export Plug-In . SVG Version: 2.1.0 Build 142)  -->
  <defs>
    <style>
      .st0 {
        fill: #ff4c15;
      }

      .st1 {
        fill: #fff;
        stroke: #000;
        stroke-miterlimit: 10;
      }

      .st2 {
        fill: #c0421a;
      }
    </style>
  </defs>
  <rect class="st1" x="-61.5" y="-61.5" width="379" height="379"/>
  <g>
    <path class="st0" d="M15.3,104.7c5.5-.9,11-1.5,16.5-1.7,6.9-.2,13.9.3,20.7,1.3.8.1,1.7.2,2.5.4,3.5,4.8,7,9.6,10.5,14.4h-.3c-6.8-1.9-13.8-2.9-20.9-3.4-3.9-.2-7.8-.3-11.7-.2-9.5.3-19,1.5-28.3,3.6,3.3-4.6,6.7-9.1,10-13.7.3-.3.4-.8.9-.8Z"/>
    <path class="st0" d="M16.2,136.2c0-.1.1-.3.2-.4,5.8,1.2,11.8,1.8,17.7,1.8,6.6,0,13.2-.7,19.7-1.8-6.3,5.5-12.5,11-18.8,16.6-6-5.3-12-10.5-17.9-15.8-.2-.2-.5-.3-.8-.4Z"/>
  </g>
  <g>
    <path d="M184.9,109.4c5.7,12.3,11.4,24.6,17.1,37h-7.7c-.7-1.7-1.4-3.3-2.2-4.9h-14.5c-.7,1.6-1.4,3.3-2.2,4.9h-7.7c5.7-12.3,11.4-24.6,17.1-37ZM184.8,124.8c-1.5,3.4-3,6.9-4.5,10.3,3,0,6,0,9.1,0-1.3-3-2.6-6.1-3.9-9.1-.2-.4-.3-.9-.6-1.2Z"/>
    <path d="M204.2,109.4c6.1,6.5,12.2,12.9,18.3,19.4.9.9,1.8,2,2.8,2.9,0-6.8,0-13.7,0-20.5h6.7c0,12.3,0,24.7,0,37-4.9-5.2-9.8-10.4-14.7-15.6-2.1-2.2-4.2-4.5-6.3-6.7,0,6.8,0,13.7,0,20.5h-6.7c0-12.3,0-24.6,0-37Z"/>
    <path d="M108.4,112.9c2.5-1.8,5.6-2.6,8.7-2.6,4.3,0,8.6,1.3,12,3.9-1.2,1.8-2.5,3.5-3.7,5.3-2.5-2-5.7-3.3-9-3.1-1.4,0-2.9.5-3.9,1.6-1,1-1.1,2.6-.8,3.9.3.9,1.1,1.6,2,1.9,2.1.9,4.4,1.1,6.7,1.5,3,.6,5.9,1.9,7.8,4.2,2,2.4,2.6,5.7,2,8.7-.4,2.2-1.7,4.3-3.4,5.7-2.3,1.9-5.2,2.9-8.2,3.1-5.2.4-10.6-1.1-14.6-4.5,1.3-1.8,2.5-3.5,3.8-5.3,2.5,2.5,6,3.9,9.6,3.8,1.7,0,3.6-.5,4.8-1.7,1.8-1.7,1.9-5.1-.3-6.5-2.2-1.4-4.9-1.6-7.4-2-2.8-.5-5.6-1.4-7.6-3.5-1.9-2.1-2.5-5.1-2.2-7.8.2-2.6,1.7-5,3.8-6.5Z"/>
    <path d="M142.3,112.7c3.8-2.1,8.3-2.9,12.6-2.2,5.1.8,9.8,4,12.6,8.3-1.8,1.2-3.6,2.3-5.5,3.5-1.5-2.4-3.8-4.3-6.5-5.3-2.4-.9-5.1-.8-7.5,0-2.6.9-4.9,2.9-6.3,5.3-1.4,2.3-2,5.2-1.7,7.9.3,2.9,1.7,5.7,3.9,7.6,2.2,2.1,5.3,3.3,8.3,3.1,4-.1,7.7-2.5,9.8-5.8,1.8,1.1,3.6,2.3,5.5,3.4-1.7,2.6-4,4.8-6.7,6.3-5.7,3.2-13.1,2.9-18.7-.4-3.1-1.8-5.6-4.5-7.2-7.7-2.8-5.6-2.4-12.7.9-17.9,1.6-2.6,3.9-4.7,6.5-6.2Z"/>
    <path d="M235.1,111.1h5.1c0,.4,0,.7,0,1.1h-1.9v5.7h-1.3v-5.7h-1.9c0-.4,0-.7,0-1.1Z"/>
    <path d="M241.1,111.1h1.7c.6,1.7,1.1,3.3,1.7,5,.6-1.7,1.2-3.3,1.7-5h1.7v6.7h-1.3c0-1.6,0-3.1,0-4.7-.5,1.6-1.1,3.1-1.7,4.6-.3,0-.6,0-.9,0-.5-1.6-1.1-3.1-1.7-4.7,0,1.6,0,3.1,0,4.7h-1.3v-6.7Z"/>
    <path d="M77.2,119.1h24.5c-4.6,6.9-9.3,13.9-13.8,20.8,4.2,0,8.4,0,12.6,0,0,2.1,0,4.3,0,6.4-8.2,0-16.3,0-24.5,0,4.6-6.9,9.3-13.9,13.8-20.8-4.2,0-8.4,0-12.6,0v-6.4Z"/>
  </g>
  <path class="st2" d="M32.8,115.6c3.9-.2,7.8,0,11.7.2,7,.5,14.1,1.5,20.9,3.3,0,0,.2.3.3.4-6.7,3.1-13.3,6.4-19.8,10.1-2.2,1.2-4.3,2.5-6.4,3.9-1.9,1.3-3.7,2.8-5.4,4.3-5.9,0-11.9-.6-17.7-1.8,3.2-5.4,7-10.3,11.3-14.9,1.6-1.9,3.4-3.6,5.2-5.4Z"/>
</svg>