<?xml version="1.0" encoding="UTF-8"?>
<svg width="256px" height="256px" viewBox="0 0 256 256" version="1.1" xmlns="http://www.w3.org/2000/svg" xmlns:xlink="http://www.w3.org/1999/xlink">
    <!-- Generator: Sketch 49.1 (51147) - http://www.bohemiancoding.com/sketch -->
    <title>authenticate-with-github-oauth-stepicon</title>
    <desc>Created with Sketch.</desc>
    <defs>
        <rect id="path-1" x="0" y="0" width="256" height="256"></rect>
        <linearGradient x1="50%" y1="25.401327%" x2="100%" y2="81.4885452%" id="linearGradient-3">
            <stop stop-color="#FFFFFF" offset="0%"></stop>
            <stop stop-color="#333333" offset="100%"></stop>
        </linearGradient>
        <linearGradient x1="127.383278%" y1="-33.2284903%" x2="13.6114211%" y2="116.101867%" id="linearGradient-4">
            <stop stop-color="#FFC500" offset="0%"></stop>
            <stop stop-color="#FF7C00" offset="56.4825686%"></stop>
            <stop stop-color="#FF4400" stop-opacity="0.564679574" offset="100%"></stop>
        </linearGradient>
        <linearGradient x1="127.383278%" y1="-33.2284903%" x2="26.1725091%" y2="227.646865%" id="linearGradient-5">
            <stop stop-color="#FFC500" offset="0%"></stop>
            <stop stop-color="#FF7C00" offset="66.2928383%"></stop>
            <stop stop-color="#FF4400" stop-opacity="0.564679574" offset="100%"></stop>
        </linearGradient>
    </defs>
    <g id="New-Icons" stroke="none" stroke-width="1" fill="none" fill-rule="evenodd">
        <g id="Authenticate-with-GitHub-Oauth">
            <g id="authenticate-with-github-oauth-stepicon">
                <mask id="mask-2" fill="white">
                    <use xlink:href="#path-1"></use>
                </mask>
                <use id="Rectangle" fill="#333333" xlink:href="#path-1"></use>
                <path d="M128.025963,50 C84.939062,50 50,84.9313096 50,128.024671 C50,162.498586 72.3568134,191.746047 103.358916,202.063284 C107.258405,202.785556 108.690027,200.370663 108.690027,198.3098 C108.690027,196.449209 108.61767,190.302797 108.584076,183.782975 C86.877178,188.502933 82.296764,174.576924 82.296764,174.576924 C78.7474277,165.558225 73.6333857,163.160129 73.6333857,163.160129 C66.5540943,158.317423 74.1670137,158.416913 74.1670137,158.416913 C82.0021704,158.966046 86.1277731,166.45751 86.1277731,166.45751 C93.0869014,178.385968 104.380949,174.937414 108.833447,172.943738 C109.533753,167.902053 111.555854,164.457375 113.787272,162.510214 C96.456639,160.537212 78.2383492,153.846836 78.2383492,123.94946 C78.2383492,115.430794 81.2863595,108.470374 86.2776541,103.006179 C85.4675216,101.039637 82.7967979,93.1049905 87.0335193,82.3574916 C87.0335193,82.3574916 93.5856433,80.2604502 108.496215,90.35545 C114.720152,88.6266506 121.395023,87.7596668 128.025963,87.729949 C134.656904,87.7596668 141.336944,88.6266506 147.572509,90.35545 C162.464992,80.2604502 169.008071,82.3574916 169.008071,82.3574916 C173.255129,93.1049905 170.583113,101.039637 169.772981,103.006179 C174.775904,108.470374 177.803241,115.430794 177.803241,123.94946 C177.803241,153.9179 159.550065,160.516539 142.175502,162.448195 C144.974141,164.869547 147.46785,169.617931 147.46785,176.897495 C147.46785,187.336187 147.377405,195.738566 147.377405,198.3098 C147.377405,200.386168 148.781893,202.81915 152.736942,202.052948 C183.722247,191.724082 206.050635,162.486957 206.050635,128.024671 C206.050635,84.9313096 171.116741,50 128.025963,50" id="logo-github" fill="url(#linearGradient-3)" mask="url(#mask-2)"></path>
                <path d="M140.444444,134 L199.555556,134 C206.428432,134 212,139.571568 212,146.444444 L212,198.555556 C212,205.428432 206.428432,211 199.555556,211 L140.444444,211 C133.571568,211 128,205.428432 128,198.555556 L128,146.444444 C128,139.571568 133.571568,134 140.444444,134 Z M163,162 L163,183 L177,183 L177,162 L163,162 Z" id="Combined-Shape" fill="url(#linearGradient-4)" mask="url(#mask-2)"></path>
                <path d="M135.777778,132 C135.777778,113.099589 151.099589,97.7777778 170,97.7777778 C188.900411,97.7777778 204.222222,113.099589 204.222222,132 C202.01416,132 195.667969,132 191.777778,132 C191.777778,119.972465 182.027535,110.222222 170,110.222222 C157.972465,110.222222 148.222222,119.972465 148.222222,132 C144.17334,132 139.332031,132 135.777778,132 Z" id="Oval-2" fill="url(#linearGradient-5)" mask="url(#mask-2)"></path>
            </g>
        </g>
    </g>
</svg>