<svg id="Layer_1" data-name="Layer 1" xmlns="http://www.w3.org/2000/svg" viewBox="0 0 256 256"><defs><style>.cls-1{fill:#4d4d4d;}.cls-2{fill:#77d065;}</style></defs><title>icon</title><rect class="cls-1" width="255.92" height="255.92"/><path class="cls-2" d="M150.95,107.4a50,50,0,0,0-10.42-5.87,30.64,30.64,0,0,0-11.36-2q-10.81,0-10.81,7.21,0,2.82,3.37,4.7a60.88,60.88,0,0,0,8.46,3.76l11,4.07a54.27,54.27,0,0,1,11,5.56,31.06,31.06,0,0,1,8.46,8.22,20.38,20.38,0,0,1,3.37,11.9,24.44,24.44,0,0,1-6.74,17.15q-6.74,7.28-19.89,9.48V195H122V172.09a59.58,59.58,0,0,1-15.82-4,48.26,48.26,0,0,1-14.1-8.38l10-15.66a92.06,92.06,0,0,0,14.18,7.13,38.83,38.83,0,0,0,14.18,2.58q5.64,0,8.62-1.88a5.83,5.83,0,0,0,3-5.17q0-3.29-3.37-5.48a49.18,49.18,0,0,0-8.46-4.23q-5.09-2-11-4.23a55.71,55.71,0,0,1-11-5.48,30,30,0,0,1-8.46-8.15,20.64,20.64,0,0,1-3.37-12.06,22.67,22.67,0,0,1,6.89-16.92q6.89-6.73,18.8-8.61V61h15.35V81.4a39.74,39.74,0,0,1,14.18,4.46,47.06,47.06,0,0,1,10.89,8.38Z"/></svg>