<svg xmlns="http://www.w3.org/2000/svg" xmlns:xlink="http://www.w3.org/1999/xlink" viewBox="0 0 256 256"><defs><style>.cls-1{fill:none;}.cls-2{isolation:isolate;}.cls-3{fill:#22b573;}.cls-4{fill:#fff;}.cls-5{clip-path:url(#clip-path);}.cls-6{opacity:0.2;mix-blend-mode:multiply;}.cls-7{clip-path:url(#clip-path-2);}.cls-8{fill:#1d1d1b;}.cls-9{fill:#8e7e53;}.cls-10{fill:#f5bf9a;}.cls-11{fill:#e89e6c;}.cls-12{fill:#fde8d9;}.cls-13{fill:#bc6124;}.cls-14{fill:#ff6b00;}.cls-15{fill:#d35e13;}.cls-16{fill:#f6a235;}.cls-17{fill:#f08319;}.cls-18{fill:#f4dbb2;}.cls-19{fill:#6dabe4;}.cls-20{fill:#8fc7e8;}.cls-21{fill:#000101;}</style><clipPath id="clip-path"><path class="cls-1" d="M58.15-218l-21-8.61-22-.83,8.6,49.68,14,15.5,19,5.14,2.62-.55A81.29,81.29,0,0,0,134.2-108,81.29,81.29,0,0,0,210-159.85l18.39.18L240-204.15H214.11a81.29,81.29,0,0,0-79.91-66.43A81.3,81.3,0,0,0,58.15-218"/></clipPath><clipPath id="clip-path-2"><rect class="cls-1" x="-30.19" y="-263.17" width="332.64" height="324.06"/></clipPath></defs><title>Artboard 102</title><g class="cls-2"><g id="Layer_1" data-name="Layer 1"><rect class="cls-3" width="256" height="256"/><path class="cls-4" d="M70.08,99.72a9.89,9.89,0,0,0-9.89,9.89V151A9.89,9.89,0,1,0,80,151V109.6a9.89,9.89,0,0,0-9.89-9.88"/><path class="cls-4" d="M149.82,62.54l6.9-12.6a1.37,1.37,0,1,0-2.4-1.32l-7,12.73a48.2,48.2,0,0,0-38.7,0l-7-12.7a1.37,1.37,0,1,0-2.4,1.31l6.9,12.59c-13.57,7-22.73,20.32-22.72,35.62h89.07c0-15.29-9.15-28.59-22.69-35.6M107.72,82a3.73,3.73,0,1,1,3.74-3.73A3.73,3.73,0,0,1,107.72,82m40.56,0A3.74,3.74,0,1,1,152,78.27,3.73,3.73,0,0,1,148.27,82"/><path class="cls-4" d="M83.82,165.75A10.53,10.53,0,0,0,94.37,176.3h7.18v21.91a9.88,9.88,0,1,0,19.77,0V176.3h13.35v21.91a9.89,9.89,0,0,0,19.78,0V176.3h7.21a10.56,10.56,0,0,0,10.55-10.56V101.57l-88.4,0Z"/><path class="cls-4" d="M185.91,99.7A9.88,9.88,0,0,0,176,109.6V151a9.89,9.89,0,1,0,19.77,0v-41.4a9.88,9.88,0,0,0-9.88-9.89"/><path class="cls-4" d="M70.08,99.72a9.89,9.89,0,0,0-9.89,9.89V151A9.89,9.89,0,1,0,80,151V109.6a9.89,9.89,0,0,0-9.89-9.88m79.74-37.18,6.9-12.6a1.37,1.37,0,1,0-2.4-1.32l-7,12.73a48.18,48.18,0,0,0-38.7,0l-7-12.7a1.37,1.37,0,1,0-2.4,1.31l6.9,12.59c-13.57,7-22.73,20.32-22.72,35.61h89.07c0-15.29-9.15-28.59-22.69-35.6M107.72,82a3.73,3.73,0,1,1,3.74-3.73A3.73,3.73,0,0,1,107.72,82m40.56,0A3.74,3.74,0,1,1,152,78.27,3.73,3.73,0,0,1,148.27,82M83.81,101.58l0,64.17A10.54,10.54,0,0,0,94.37,176.3h7.18v21.91a9.89,9.89,0,1,0,19.77,0V176.3h13.35v21.91a9.89,9.89,0,1,0,19.78,0V176.3h7.21a10.55,10.55,0,0,0,10.55-10.55V101.57Zm112,8a9.89,9.89,0,1,0-19.77,0V151a9.89,9.89,0,1,0,19.77,0Z"/><g class="cls-5"><g class="cls-6"><g class="cls-7"><path class="cls-8" d="M20.12,18.92S-55,36.67-21.63,49.64c0,0-11.67,5.27,22.26,7.19C.63,56.83,0,62,16,60.69s10.82-16,10.82-16-.59-11.06,9.68,5.54c0,0,19.94,5.51,18.37-3.91,0,0,.18,9.72,22.83,6.28,0,0,4.4,7.8,20.11,2.35,0,0,28.33-7.89,35.82-13.25s32,3.11,22,10.91S230.9,63,215.21,43.24s30.71,3.43,35.35-10.16c0,0,16,8.67,20.54-.73,0,0,32.78-1.68,20.86-10.82,0,0,27.28-8.05-6.1-14.14,0,0-90.83-14.87-92.11-3.74,0,0-59-9.28-62.07,21.31,0,0-11.2,14.58-17.86-10.16,0,0-69.08-18.23-69.3,9.28,0,0-16.36-12-24.39-5.18"/><path class="cls-8" d="M283.49,4.94A56.85,56.85,0,0,0,279.8-.94l-.2-.31h0c-2.7-3.95-5.78-8.23-6-8.53l-11.44-7.43-.23,0c-6.71.79-25.39.86-25.55.86l-32-1-.06,1.18c0,.12-.77,11.34-1.1,19.67-.33,8.93,2.86,12,13.66,13,10.52,1,23.49,7,23.62,7.08l.24.06h.1A5.92,5.92,0,0,0,245,21.85c1.74-1.86,2.4-4.88,1.92-9a10.34,10.34,0,0,0-.51-2.18,17.86,17.86,0,0,0,8.55-2.11c.11,5.33,1,12.75,4.88,15a6.8,6.8,0,0,0,3.49,1,9.67,9.67,0,0,0,5.79-2.32,4.18,4.18,0,0,0,2.35.68,9.4,9.4,0,0,0,5.81-2.49,4.55,4.55,0,0,0,1.37-2l-.81-2.35-.19-.82a5.93,5.93,0,0,1-.32-2.39,5.24,5.24,0,0,1,0-1.43c2.24-1.17,6.4-3.66,6.34-5.9l.2-.1Z"/><path class="cls-8" d="M283.85,5.52c-.34,0-.69,1-.95,1.28-3.14,4-4.4,2.68-5.08,1.76,0-.26-1.24-4.53-1.27-4.9-.12-2,3.45,3.46,3.29-1.38,0,0,.87-.78-1.21-3.5-.45-.59-2.07.72-2.07.72-2-2.69.49-1.95-1.62-4.59l-2.51-3.53L263-14.84c-3.84-1.81-5,.83-4.86,1.71C261.74-11,265.44-9,269.15-7c1.91,2.68.53,3.07,2.53,5.74l2,2.19c0,2.39,1.46,4.57,1.63,6.95,0,.64.1,1.27.16,1.91a12,12,0,0,0-4.61-.89c-2.83.19.26,3.91.26,3.91l4.78.54c.08.56.17,1.11.28,1.67a12.2,12.2,0,0,0,.49,1.79,4.16,4.16,0,0,0,.2.46,1.68,1.68,0,0,0,.14.23l.05.08.06.1c.05.07.07.11.06.13a.19.19,0,0,1,0,.1.74.74,0,0,1,0,.3,5.08,5.08,0,0,1-2.07,2.43,7.69,7.69,0,0,1-3,1.1,7.08,7.08,0,0,1-2.37.25,9.11,9.11,0,0,0,1.32-3,68.45,68.45,0,0,1-3.37-11.55C266.35.68,269-7.17,253.44-8.72c-5.2-.52-3,1-3,1,6.34-1.64,14.08,2.5,14.76,7.49a82,82,0,0,0,2.15,8.94h0c-3.75-5.71-7.68,5.84-7.68,5.84a14.39,14.39,0,0,0-4.41-11.69S255.14,4.12,255,6a14.18,14.18,0,0,0-2.91-.7c-.92-.14-2.45-1.93-3.53-2.3.3.94.08,3,2.81,4.74C245.3,5.94,234,1.58,232.68,1.88c-.43.1.21.59,1.35,1.25a35,35,0,0,0-5.25-.61s-1,.34,7.06,2.07,10.75,12.56,7,14.69-10.59-8.53-10.59-8.53a17.36,17.36,0,0,1-1,4.9c-.94,2.4-4.17-1.34-4.17-1.34s-8.5-1.36-17.17-2.49,6.5-10.67,6.5-10.67c23.05.46,21.92-9.72,21.92-9.72-4.49,5.78-34-8.73-34-8.73s-.64,12.44-1,20.86,2.3,12.22,13,13.26,24.28,6.89,24.28,6.89,8.06.17,6.86-10.26a9,9,0,0,0-.73-2.67,11.23,11.23,0,0,0,2.78,0c1.68-.4,4.11-.79,5.32-2.09-.1,5.66.5,13.67,4.48,15.28,5.29,2.12,8.27.52,9.89-1.43.3.27,1,.42,2.89.41a6.69,6.69,0,0,0,6.5-4c0-.18-1.19-3.78-1.28-4.35,0-.84,0-1.49-.07-2,6.74-.12,6.5-7,6.5-7M263.38,21.93c-3,2-.8-8.1-.8-8.1s5,.34,5.67-2.09c1.12,3.8,2.11,6.9,2.11,6.9a30.65,30.65,0,0,0-7,3.29"/><path class="cls-8" d="M242,13.91s-4.33-4.3-9.71-3.15c0,0,.63,6.58-1,7.36L240,21.53s1.85-1.12,2-7.62"/><path class="cls-8" d="M204.33-17.3s-1,15-1.15,20.85.49,11.06,9.73,12.78c0,0,14.82,1.87,27.79,7.39,0,0,10,.26,6.4-13.16a26.8,26.8,0,0,0-5.84-4.72,17.76,17.76,0,0,0-5.41-2.18S255.6,10.78,242,22.42c0,0-25-8.43-29.61-6.9,0,0-9.79-2.6-6.38-7s5.55-11.47,15.1-10.67c9.23.78,15.69-2.39,16.6-4.76,0-.08.6-1.59.62-1.69.59-2.58-2,5.54-20-2.1Z"/><path class="cls-8" d="M252.68,9l-11.1-3,4.88,5.11s6.4.62,8.47-2.46c0,0-3,17.1,7.65,17.38,0,0,7.18-.4,8.5-7.1,0,0-4.06,7-8.82,5.75,0,0-8-3.34-6.16-16.56,0,0,.46-4.55-1-.26,0,0-6.46-2.29-1.68.2,0,0,1.6,1.36-.8.92"/><path class="cls-8" d="M250.55-8.73s12.64-3.85,16.3,5S268.64,6,268.64,6s2.63,14.81,4.67,16.33c0,0,2.82,1.1,5.38-3.45,0,0-2.19,7.29-10.54,4.73A27.7,27.7,0,0,0,271,19s-3.31-8.71-3.51-12.32c0,0-.65-9.82-5-12.32,0,0-2.4-3.35-11.95-3.14"/><path class="cls-8" d="M162.77,14.16C173,11.1,180.06,8.41,180.06,8.41l2.77-1-1-6.26H181l-1,4.78-17.23,4.53c-7.39-.85-20.15-8.9-20.28-9s-7.14,12.26-3.5,16.33a83,83,0,0,0,6.67,6.07c3,2.55,7.1,6.05,7.3,7.1.33,1.75,3.52,2.59,7.71,2.68a23,23,0,0,0,2.29.11h0a23.2,23.2,0,0,0,5.24-.6h.06c.49-.06,1-.14,1.47-.22l.38-.06s4.82-2.42-.4-9.76c0,0,1.19,6,.18,7.58,0,0-.12-9.08-6.28-6.25l-5.83,3.42s-5.08-.86-2.7-3.8S137.42,18.6,141.51,9.19c0,0,11,8,21.26,5"/><path class="cls-8" d="M184.2,36.45c3.61,3,9.55-1.76,9.55-1.76l-.48-10.26s-11.55-12.12-12.12-13.81c-.22-.67-.12-.89.2-.79l0,0,7.43,1.55c-.18,1.53,2.27,8.83,5.49,5.06s8.18,1.89,4.53,1.14c-5.78-1.19-2.07,9.16-2.07,9.16l6.4-2.54c-.52-5.91-4.13-12.72-4.63-13.62l-.52-.44s-7.19-6.61-14.2-5.65c0,0,8-4.09,13.62,3.09-.57-2-1.59-4.41-3.3-5.47-3-1.85-12-1.71-12.33-1.7h-.51l-.17.79h.82l1,6.26-2.77,1s-7,2.69-17.29,5.74-21.26-5-21.26-5c-4.09,9.4,16,11.91,13.64,14.85s2.7,3.8,2.7,3.8l5.83-3.42c6.16-2.83,6.28,6.25,6.28,6.25,1-1.6,0-7,0-7l10.09,1.66s.52,8.12,4.13,11.08"/><path class="cls-8" d="M203.09,24.16l-6.9-1.1s-.34-5.82,3.34-5.28-2-5.5-5.24-1.73-5.73-3.19-5.55-4.72L184,9.79l-2.62,0c-.32-.1-.42.12-.2.79.57,1.69,12.12,13.81,12.12,13.81l.48,10.26s-5.94,4.73-9.55,1.76-4.13-11.08-4.13-11.08L177.82,25c-2-1.76-7.2-6.65-7.32-8.82-.13-2.67-12.13,0-13.91,2.35,0,0,12.85,1.07,15,6.81L178,26.84a22.74,22.74,0,0,0,3.29,11.76l.06.1.14.22c.26.39.46.66.54.76l.05.07.15.06a12.14,12.14,0,0,0,4.5.8A14.21,14.21,0,0,0,195,37.9c.35-.3.7-.6,1.06-1h0l-.87-7.61c1.67.67,4.59,1.07,7.46-2.19l.05-.05.21-.26,0,0,.09-.15.08-.13v-.16a13.93,13.93,0,0,0,0-2.18"/><path class="cls-8" d="M45.15,29.24l1.71-9.63-10.7-17c-2,.75-3.74.59-9.09,7.49S2.86,14.41,2.86,14.41C2.52,17.35-7.06,20.1-7.6,20.15s-6.42.32-8,4.05-6.06,9.59-6.06,9.59h0c-.39.65-.79,1.3-1.21,1.92a17.15,17.15,0,0,0-2.21,4.24c5.38.2,8.09,3.76,12.67-5.56s-4.37-10.14-1.12-11.45,8.63,0,8.63,0h0c5.66-6,17.94-2.05,17.94-2.05L6.26,38.06l-.48,2.09c-1.4,4,1,9,1,9C12.31,51.46,18.59,45,18.59,45s3.21-10,3.93-17.43-9-7.12-9-7.12c8-4.18,12.78,4.41,12.78,4.41.12,4.33,5,1.77,5,1.77l5.85-5.82a11.19,11.19,0,0,1-2.73,6.14s1.68,2.41,3.69,8.48c1.91,5.79,11,1,11.82.52-.65-3.27-4.76-6.68-4.76-6.68"/><path class="cls-8" d="M-2.19,47.53c.41-3.21,3-7.14,7.7-17.47S-6.83,26.19-6.83,26.19s-4.91,12.27-6.32,15.45a11.79,11.79,0,0,1-.55,1.1,11.1,11.1,0,0,0-1.18,4.79c1.72,3.87,12.28,3.2,12.7,0"/><path class="cls-8" d="M165.5-245.38c-6.26-9.23-18-16.1-18.14-16.22-12.49-1.88-49.49,11.82-63.05,36.65-13.91,25.46,1,98.53,3.74,109.76s1.6,22.68,2.57,37.44,8.56,20.43,8.56,20.43c-8.87,9.63.43,48.46.43,48.46l7.81,4.6C97-8,71.9,8.49,86.33,12.32,96,14.88,108.55,9.72,115.9,6c-1.17-5.21-3-14.29-3.19-21.2-.33-10.27,6.82-34.25,6.82-34.25s10.57.61,16.5-.59c13-2.64,20.73-19.39,20.73-19.39v.18s0,.07,0,.12,0,.06,0,.09a1.4,1.4,0,0,1,0,.18v.12c0,.08,0,.16,0,.25s0,.06,0,.09,0,.22,0,.34h0a26.33,26.33,0,0,1-.38,2.81h0a22.35,22.35,0,0,1-6.08,11.9h0c-.25.25-.51.49-.78.72l0,0a19.43,19.43,0,0,1-5,3.1h0c.45-.21,14.78,9.29,5.69,41.17,0,0-4.36,17.81,30,14.26l.84-.09,1-4.7c-3.37-7.22-24.55-8.83-24.55-8.83,7.06-20.38,7.54-59.69,7.54-59.69s-.8-56.17,15.09-96.77c10.9-27.85,12.21-38.56,11.95-42.53-9.09-4-20.09-29.42-26.39-38.72"/><path class="cls-8" d="M122.57,27.48c-.43-3.12-5.7-17.34-5.7-17.34l-20.44,6.6L70.67,11.46l-1.57.6a16.53,16.53,0,0,0-5.21.41l-5.43,3.23c-2.72,1.85-5.75,14.49-6.53,17.89l-.17.39.06.06a1.87,1.87,0,0,1,0,.25l0,.1v.11a3.64,3.64,0,0,0,1.53,2.38A6.87,6.87,0,0,0,57.46,38a16.57,16.57,0,0,0,2.92-.3c-.21,1.75-.27,3.1-.27,3.29s.55,3.62,3.38,5.18a6.09,6.09,0,0,0,3,.73,11.42,11.42,0,0,0,4.66-1.16,8.31,8.31,0,0,0,4.15-3.25A8.88,8.88,0,0,0,81,46.2a6.53,6.53,0,0,0,1.07.08c3.94,0,7.42-3.22,7.58-3.38l.16-.23a79.63,79.63,0,0,0,3.07-9.78,29.61,29.61,0,0,0,3.89-3.1c-1.62,6.28,4.22,10.81,4.28,10.85l.17.13h.33c6.37,0,11.74-4.56,12-4.77l9.13-8.2Z"/><path class="cls-8" d="M93.29,24.5c1.52,7.78-3.47,18.74-3.47,18.74s-4.76,3.6-8.86,3-6.62-5-6.62-5S78.44,32,79.49,23.62s4-6.34,4-6.34l5.93,1.9s-5.14-.68-6.25.42c-2.49,2.49-7.06,21-7.06,21s3.33,4.57,13.72,1.24c0,0,4.49-11.79.88-19.33,0,0,2-.78,2.57,2"/><path class="cls-8" d="M108.2,19.41S95.92,31.34,92.76,33.2l-.47-2.44A13.52,13.52,0,0,1,93,27.42a11.31,11.31,0,0,1,3-3.48,9,9,0,0,1-1.54,4.75s9.16-9.6,13.64-9.28"/><path class="cls-8" d="M75.88,41.11c1,.32-3.48,5-6.05,5.48C60.13,48.31,60,40.85,60,40.85s.38-8.53,3.63-11.35c2.74-2.38,5.08-14.17,5.08-14.17,4.49-4.17,11.07,1.34,11.07,1.34s-7.28-4-9.5,2.19A139.25,139.25,0,0,1,63.71,33.2s7.55-.88,9.79,2.57-13,2.87-7.49,6.81,7-2.45,9.87-1.47"/><path class="cls-8" d="M60.38,37.69c-7.91,1.67-8.88-3.13-8.88-3.13s3.58-16.89,6.41-18.89l5.4-3.34a8,8,0,0,1,7.92.83s-9.6.45-11.61,5.71S49.57,37.63,61.88,35.39Z"/><path class="cls-8" d="M68.37,12.39l2.13-1,26,5.93,20.38-7.22s5.31,14.57,5.74,17.67l-9.41,8.43S107.29,41,101,41c0,0-6.71-5.29-4.29-11.72S112,22.18,112,22.18s-15.87,5.57-11.18,13.32c0,0,8.46,0,13.31-5.22l7.74-4.53-5.22-15.36s-10.3,9.15-19.53,8.21S81.41,17.27,77,14.26a11.19,11.19,0,0,0-8.63-1.87"/><path class="cls-8" d="M165.95,24.43l-8.51.59s-2.09,2,.27,7a21.05,21.05,0,0,0,10.3.07s.55-6.54-2.07-7.67"/><path class="cls-8" d="M199.9,17.85s-4.25-1.8-4,3.44l.75,5.41s3.74.58,5.67-1.9Z"/><path class="cls-8" d="M164.6,11.26l-4.31-.46a12.46,12.46,0,0,0,4.31.46"/><path class="cls-8" d="M180.06,5.94c-34.33,3.55-30-14.26-30-14.26,9.09-31.88-5.24-41.38-5.69-41.17h0a19.43,19.43,0,0,0,5-3.1l0,0c.27-.23.54-.47.78-.72h0a22.36,22.36,0,0,0,6.08-11.9h0a26.28,26.28,0,0,0,.37-2.81h0c0-.12,0-.23,0-.34s0-.06,0-.1,0-.17,0-.25v-.12a1.43,1.43,0,0,0,0-.18s0-.06,0-.09,0-.09,0-.12v-.18s-11.07,14.69-24.08,17.34l-13.16,2.65,1.65.39a49.93,49.93,0,0,0,14.21,1.55l2.27-.18c15.08,16.54,4.91,49.18,4.91,49.18.88.89,10.43,7.45,17.74,9.33l4.31.46a5.91,5.91,0,0,0,.9-.15c6.74-1.77,15.25-4.49,15.25-4.49l.15-.76-.83.09"/><path class="cls-8" d="M148.2-261.46a30.59,30.59,0,0,0-6.28-1.52c-19.1-2.4-51.36,18.13-65,28.88s-8,27.76-8,27.76c-1.1,11.66.69,29.55,3.63,48.45l0-.14c-5.12,1.44-5.93,5.21-17.88,17.81a74.44,74.44,0,0,0-16.45,28.72c-.08.48-16,40.44-16.82,42.49s-2.95,5.46-1.92,6.58a1.83,1.83,0,0,1,.53,2C18.59-42.9,17.23-32,16.71-28.65s-4.37,21.58-6.5,27.4S2.62,14.87,2.62,14.87A34.47,34.47,0,0,0,19,16.11c3.42-.66,6.31-2.07,8-4.35a6.36,6.36,0,0,0,.59-.9c3.53-6.58,8.58-8.27,8.58-8.27-2.62-.21-2.46.16-10.27,6.32S5.51,12.49,5.51,12.49L9.9,7.68c1.5-20.59,18-16,13.86-23.11S22.63-62,22.63-62c-4.66,2.14-.81-5.78-.81-5.78L34-93a93.39,93.39,0,0,0,9.47-23.64c3-12.94,10.43-17.27,19.9-30.59a25.19,25.19,0,0,1,4.9-5.41c4.75-2.83,2.92,1.1,2.92,1.1-4.74,3.64-7.25,14.71-7.25,14.71h0c7.61-11.3,10.21-11.4,10.21-11.4,6.32,36.91,15.81,74.27,15.81,74.27C88.47-55,96.18-7.51,96.18-7.51,87-6.07,70.5,11.43,70.5,11.43l26,5.93,20.38-7.22s-.41-1.62-1-4.15c-7.35,3.73-19.95,8.9-29.57,6.33C71.9,8.49,97-8,107.41-4.25L99.6-8.85s-9.31-38.83-.43-48.46c0,0-7.59-5.67-8.56-20.43s5.47-31.95,2.69-43.17-22.91-78.57-9-104,52.31-39.18,63.9-36.51"/><path class="cls-8" d="M182.83-171.44a137.5,137.5,0,0,0-6.18,16.86c-3.35,10.88-6.05,19.75-9,43.33a325,325,0,0,0-2.75,41s.86,40.33-7.54,62.58c0,0,20.65.86,24.28,8.29,0,0-5.57-8-27.07-6.21,0,0,12.24-61.21,6.08-66.49a1.33,1.33,0,0,0-.25-.18c-6.74-3.85,5-41.65,5.54-46.62s-2.73-40.26,16.93-52.56"/><path class="cls-8" d="M119.53-49.47S104.28-31.1,110.06-9.35L115.9,6s-3.09-13.89-3.17-23.36c0-3.29,3.27-19.93,6.79-32.1"/><path class="cls-8" d="M29.31-61.49c-.1-12.41,17.65-50,17.65-50L63.9-136.82s2.51-11.07,7.25-14.71c0,0,1.83-3.93-2.92-1.1a25.19,25.19,0,0,0-4.9,5.41c-9.47,13.32-16.85,17.65-19.9,30.59A93.41,93.41,0,0,1,34-93L21.82-67.74S18-59.82,22.63-62c0,0-3,39.42,1.12,46.54S11.4-12.91,9.9,7.68L5.51,12.49s12.57,2.56,20.37-3.58,7.65-6.53,10.27-6.32C34.66-2,29.31-10.13,29.31-10.13s.11-38.94,0-51.35"/><path class="cls-8" d="M31.45-56.78c6.52-17.54,16.75-53,16.75-53a291.12,291.12,0,0,1,15.7-27.08h0L47-111.44s-17.76,37.55-17.65,50,0,51.36,0,51.36S34.66-2,36.16,2.59L33.83-10.24c0-5.78-2.38-46.54-2.38-46.54"/><path class="cls-8" d="M25.38-5.43s-1.52,1.34-.17,6c0,0,.22-3,.17-6"/><path class="cls-8" d="M20.86-2.43s-1.92.69-2.38,5.53c0,0,1.31-2.72,2.38-5.53"/><path class="cls-8" d="M16,8.69s-2-.31-4.73,3.72c0,0,2.44-1.76,4.73-3.72"/><path class="cls-8" d="M14.8,2.6s-1.91.69-2.38,5.53c0,0,1.31-2.72,2.38-5.53"/><path class="cls-8" d="M22.85,5.37s-1.91.69-2.38,5.53c0,0,1.31-2.72,2.38-5.53"/><path class="cls-8" d="M28.16-.38s-1.29,1.57.79,6c0,0-.27-3-.79-6"/><path class="cls-8" d="M93.71-.86s-1.9-.59-4.37,2.42c0,0,2.27-1.12,4.37-2.42"/><path class="cls-8" d="M89.43,9.19s-2,.33-2.81,4.14c0,0,1.52-2,2.81-4.14"/><path class="cls-8" d="M110.42.7s1.31,1.49-.42,5c0,0,.09-2.52.42-5"/><path class="cls-8" d="M105,6.86s1.31,1.49-.42,5c0,0,.09-2.53.42-5"/><path class="cls-8" d="M98.69,9.83s1.32,1.49-.41,5c0,0,.09-2.52.41-5"/><path class="cls-8" d="M80.94,7.82s-.2,2-3.94,3.08c0,0,1.91-1.66,3.94-3.08"/><path class="cls-8" d="M85,2s-1.89-.62-4.42,2.34c0,0,2.29-1.07,4.42-2.34"/><path class="cls-8" d="M150.82-5.06s1.5.61,2.22,5.41c0,0-1.19-2.66-2.22-5.41"/><path class="cls-8" d="M171.48,3.39s1.58-.55,3.76,2c0,0-1.95-.9-3.76-2"/><path class="cls-8" d="M161.27,3.18s1.58-.54,3.76,1.95c0,0-1.94-.89-3.76-1.95"/><path class="cls-8" d="M155.16,4.7s1.61.42,2,3.72c0,0-1.11-1.82-2-3.72"/><path class="cls-8" d="M161.43,6.55s1.62.42,2,3.72c0,0-1.12-1.83-2-3.72"/><path class="cls-8" d="M155.74-1.05s1.42-.87,4.09,1.11c0,0-2.09-.46-4.09-1.11"/><path class="cls-8" d="M155.26,1.81s1.65-.23,3.32,2.64c0,0-1.74-1.25-3.32-2.64"/><path class="cls-8" d="M164.6,1.21s1.65-.23,3.32,2.63c0,0-1.73-1.25-3.32-2.63"/><path class="cls-8" d="M166,6.56s1.65-.23,3.32,2.64c0,0-1.74-1.25-3.32-2.64"/><path class="cls-8" d="M147.93-3.26s1,1.29-.92,5.78c0,0,.36-2.9.92-5.78"/><path class="cls-8" d="M163.74-1.18S165.1-2,169.43.16c0,0-2.86-.57-5.7-1.34"/><path class="cls-8" d="M149.82,1.31s1.49,0,3.21,3.64c0,0-1.67-1.76-3.21-3.64"/><path class="cls-8" d="M174.37-1.18s1.36-.86,5.7,1.34c0,0-2.86-.57-5.7-1.34"/><path class="cls-8" d="M173.1,1.06s1-.57,4.29,1.12c0,0-2.15-.49-4.29-1.12"/><path class="cls-8" d="M112.64,1.38s1.45,1.42-.13,6c0,0-.06-3,.13-6"/><path class="cls-8" d="M106,.74s-2,.27-3.49,4.91c0,0,1.85-2.39,3.49-4.91"/><path class="cls-8" d="M96.16,7.68s-2,.27-3.49,4.91c0,0,1.85-2.39,3.49-4.91"/><path class="cls-8" d="M97.67,2s-2-.45-5,3.36c0,0,2.57-1.58,5-3.36"/><path class="cls-8" d="M88.5,6.14s-2-.45-5,3.36c0,0,2.57-1.58,5-3.36"/><path class="cls-8" d="M20.11,48.07c0-3.75,2.89-13.8,2.89-13.8l7-4.38c5.67.53,7.49,12,7.49,12S44,43.15,48.56,39.51a3.45,3.45,0,0,0,1.34-3.59c-.86.47-9.91,5.27-11.82-.52-2-6.08-3.69-8.49-3.69-8.49a11.17,11.17,0,0,0,2.73-6.14L31.27,26.6s-4.85,2.55-5-1.77c0,0-4.76-8.58-12.79-4.41,0,0,9.71-.27,9,7.13S18.58,45,18.58,45s-6.27,6.5-11.85,4.17c6.15,4.38,13.37-1.07,13.37-1.07"/><path class="cls-8" d="M-4.89,22.94h0s-5.37-1.31-8.63,0,5.7,2.13,1.12,11.45-7.29,5.76-12.67,5.56c-.48,1.55,0,1.91,0,1.91,9.57,4.39,11.87-.21,11.87-.21,1.42-3.18,6.32-15.45,6.32-15.45s17-6.45,12.35,3.87-7.29,14.26-7.7,17.47-11,3.87-12.7,0a4.5,4.5,0,0,0,.45,2.08s0,.6,6.57,2.09,9-6,9.89-8.62,4.23-5,4.23-5l6.79-17.17S.77,17-4.89,22.94"/><path class="cls-8" d="M-14.23,49.8l7.4,2.06s4.52.51,7.58-5.52c0,0,1-10.64,5.51-12.16L13,20.89,6.32,38.3s-3.56,5.85-4.44,9.55-8.26,7.43-16.11,2"/><path class="cls-8" d="M2.62,14.87s15,4.79,23-1.62c0,0,.74-.5,2.87-3.89s4.65-5.85,7.7-6.76c0,0-8,8.13-7.8,11S9.79,23.67,2.62,14.87"/><path class="cls-8" d="M6.73,49.23s5.83,3.93,13.37-1.16a44.55,44.55,0,0,1,3-16.34c.08-.21,3-.31,3.1-3.61,0,0,1.07.31,0,2.83s3.74-1.69,3.74-1.69,7,1.26,7.49,12.61a22.78,22.78,0,0,0,9.43-1.27s-5,2.94-9.94,2.3-.21-8.07-5-11.71a9.68,9.68,0,0,0-6.58,2.18C22.62,35.83,23,36.56,23,36.56L20.24,49.11s-9.49,7.19-13.5.12"/><path class="cls-8" d="M-15.56,24.2c1.55-3.74,7.43-4,8-4.05s10.12-2.8,10.46-5.74c0,0-9.76,4.51-14,5.57s-5.24,3.37-5.24,3.37a96.75,96.75,0,0,1-5.27,10.44h0s4.51-5.85,6.06-9.59"/><path class="cls-8" d="M54.86,27.26c.19,0,7.06-2.48,7.49,1.79s-6.93,0-6.93,0Z"/><path class="cls-8" d="M78.74,35.39s.86-6.2,7.86-2.2,1,7.91,1,7.91Z"/><path class="cls-8" d="M55.63,28.38s3.69-1.28,4.92,1.34l-1.23,5.67s-3.78.23-6.06-1.65Z"/><path class="cls-8" d="M62.5,35.22s7-1.76,10.49,2.14l-1,5.4s-5.83-2.35-10.43-2Z"/><path class="cls-8" d="M77.4,40.89s5.56,2.52,10.16.22c0,0,2.41-7.44-4.71-7.86,0,0-3.42-.57-4.12,2.14s-1.33,5.5-1.33,5.5"/><path class="cls-8" d="M110.21,26.9s3.16-1.31,3,4.34-1.66,4.05-1.66,4.05-2.44-2.65-2.33-3.63,1-4.76,1-4.76"/><path class="cls-8" d="M110.74,26.68l-6.17,2.45s1.13,6.64.24,8.5,5.78-1.12,6.73-4.33-.8-6.62-.8-6.62"/><path class="cls-8" d="M63.93,12.09a46.09,46.09,0,0,1-6.55,4.12l-5.8,18s2,4.63,8.77,3.11c0,0,.45-5.51,2.72-7.31l.16-.12c2.42-1.64-1.22-3.3.67-9.1a8.81,8.81,0,0,1,5-5.67s-2.77,13.27-5.58,15.21-2.81,11.77-2.81,11.77,1.23,4.84,8.7,4.6l4-4.78S78.1,15.76,83,17.08c0,0-2.1-.24-3.82,8.66a82.82,82.82,0,0,1-4.5,15.37S79.53,47,86.18,44.8l3.64-1.56s-7.73,8.06-15.23.52l-3.13,3.09S61.39,49,59.11,41.47l1.18-3.62s-8.6,1.43-9.61-2.8c0,0,4-16.61,6.22-18.7,0,0,4.18-3.49,7-4.26"/><path class="cls-8" d="M93,33.2s.27-7.49.58-4.24,3.8-.16,3.8-.16.5-7.06,14.63-6.62c0,0-19.32,1.44-14,15.12L101,41s7.4-1.66,12.4-6.06,7.31-6.16,9.19-7.12c0,0-8.07,7.61-9.79,10.61s-12.48,5.78-13.32,4.5-5.82-8.87-3-12.48Z"/><path class="cls-8" d="M39.07,33.85s-4.89-3.53.52-3.89,5.7-1.2,6.42,1.67-6.94,2.23-6.94,2.23"/><path class="cls-8" d="M7.76,40.84c0-.08-3-4,1.82-4.33s11.32-2.22,6.53,9.84Z"/><path class="cls-8" d="M45.31,30.52,38.73,32.4s.44,7,5.82,5.14,3.11-4,3.11-4Z"/><path class="cls-8" d="M7.81,38.05s4.44-.79,7.92,1l.37,7.32s-6-2.72-9.84-1.76Z"/><path class="cls-8" d="M181.34,9.83l12.41,14.11v4.61a6.12,6.12,0,0,0,1.14.66l-.81-5.44S183.31,10.46,181.34,9.83"/><path class="cls-8" d="M202.94,26.78l0,0,0,0"/><path class="cls-8" d="M195.77,37.33l.29-.23,0-.16c-.35.35-.7.65-1.06,1,.26-.18.53-.36.79-.57"/><path class="cls-8" d="M181.36,38.7l-.06-.1.06.1"/><path class="cls-8" d="M182,39.63l0,.05c-.08-.11-.28-.37-.54-.76.27.42.47.67.51.71"/><path class="cls-8" d="M202.69,27.09l-.05.05.05-.05"/><path class="cls-8" d="M196,36.94,195,29.24l-.07,0Z"/><path class="cls-8" d="M181.5,38.92c0-.07-.09-.14-.14-.22l.14.22"/><path class="cls-8" d="M182.09,39.76l-.05-.07.05.07"/><path class="cls-8" d="M202.9,26.83l-.21.26.21-.26"/><path class="cls-8" d="M181.34,9.83l12.41,14.11v4.61a6.12,6.12,0,0,0,1.14.66l-.81-5.44S183.31,10.46,181.34,9.83"/><path class="cls-8" d="M183.74,4.45c7-1,14.2,5.65,14.2,5.65a24.53,24.53,0,0,0-.58-2.56c-5.61-7.18-13.62-3.09-13.62-3.09"/><path class="cls-8" d="M142.56,1.47s-6.3,12.05-3.5,16.33c0,0,12.91,10,14,12.88,0,0,.07,2.94,9.3,2.83,0,0,5.92-1.56,7.86-.65,0,0,3.5-3.08-.21-9.15,0,0-3-6-13.38-5.17,0,0,3.9-2.5,7.54-.29s6.75,4.49,6.75,4.49L172,24.59l6,2.25s1.63,9.48,4.09,12.92c0,0,5.9,2.85,13.95-2.81l-2.3-13L182.4,11s3.32-.54,11.34,11.19c0,0,1.85,1.67,1.72,5.69,0,0,1.36,2.05,7.65-1.42a6.7,6.7,0,0,1-7.65,3.27l.9,7.43s-10.16,8-16.21,2.55a13.75,13.75,0,0,1-2.94-12.23l-6-2.05s4.38,5.32-1,8.85c0,0-15.56,2-17.92-3.37,0,0-12.44-11.77-14-12.84S136.66,10,142.56,1.47"/><path class="cls-8" d="M184.06,31.37s-3.93-1.28,2.46-3.85,7.25-.37,6.07,2.47-8.53,1.38-8.53,1.38"/><path class="cls-8" d="M192.62,27.52s-6.63,2.3-8.88,2.89l2.51,7.43s6.2-.21,7.49-3.15a33,33,0,0,0-1.13-7.17"/><path class="cls-8" d="M188,4.68a12.83,12.83,0,0,1,9.69,4l.29,1.4s-6.07-5-10-5.42"/></g></g><path class="cls-9" d="M24.27,18.92S-50.88,36.67-17.48,49.64c0,0-11.67,5.27,22.26,7.19,0,0-.65,5.13,15.36,3.85S31,44.65,31,44.65s-.59-11.06,9.68,5.54c0,0,19.94,5.51,18.37-3.91,0,0,.17,9.72,22.83,6.28,0,0,4.4,7.8,20.11,2.35,0,0,28.33-7.89,35.82-13.25s32,3.11,22,10.91,75.29,10.45,59.6-9.32,30.71,3.43,35.35-10.16c0,0,16,8.67,20.54-.73,0,0,32.78-1.68,20.86-10.82,0,0,27.28-8.05-6.1-14.14,0,0-90.83-14.87-92.1-3.74,0,0-59-9.28-62.08,21.31,0,0-11.2,14.58-17.86-10.16,0,0-69.09-18.23-69.3,9.28,0,0-16.36-12-24.39-5.18"/><path class="cls-10" d="M287.64,4.94A55.91,55.91,0,0,0,284-.94l-.2-.31h0c-2.7-3.95-5.78-8.23-6-8.53L266.3-17.23l-.23,0c-6.71.79-25.39.86-25.54.86l-32-1-.05,1.18c0,.12-.77,11.34-1.1,19.67-.33,8.93,2.86,12,13.66,13,10.52,1,23.49,7,23.62,7.08l.24.06h.1a5.93,5.93,0,0,0,4.19-1.87c1.74-1.86,2.39-4.88,1.92-9a10.51,10.51,0,0,0-.51-2.18,17.86,17.86,0,0,0,8.55-2.11c.11,5.33,1,12.75,4.88,15a6.81,6.81,0,0,0,3.5,1,9.68,9.68,0,0,0,5.79-2.32,4.18,4.18,0,0,0,2.35.68,9.41,9.41,0,0,0,5.81-2.49,4.55,4.55,0,0,0,1.37-2L282,16.16l-.19-.82a5.92,5.92,0,0,1-.33-2.39,5.24,5.24,0,0,1,0-1.43c2.24-1.17,6.41-3.66,6.34-5.9l.2-.1Z"/><path class="cls-11" d="M288,5.52c-.34,0-.7,1-.94,1.28-3.14,4-4.4,2.68-5.08,1.76,0-.26-1.24-4.53-1.27-4.9-.12-2,3.45,3.46,3.28-1.38,0,0,.87-.78-1.21-3.5-.45-.59-2.07.72-2.07.72-2-2.69.48-1.95-1.62-4.59l-2.51-3.53-9.47-6.2c-3.84-1.81-5,.83-4.87,1.71C265.89-11,269.59-9,273.3-7c1.91,2.68.53,3.07,2.53,5.74l2,2.19c0,2.39,1.47,4.57,1.63,6.95,0,.64.1,1.27.16,1.91A12,12,0,0,0,275,8.85c-2.83.19.27,3.91.27,3.91l4.78.54c.08.56.17,1.11.28,1.67a12.36,12.36,0,0,0,.49,1.79,4.16,4.16,0,0,0,.2.46,2,2,0,0,0,.14.23l.05.08.06.1c.05.07.07.11.06.13a.19.19,0,0,1,0,.1.74.74,0,0,1,0,.3,5.09,5.09,0,0,1-2.07,2.43,7.7,7.7,0,0,1-3,1.1,7.1,7.1,0,0,1-2.37.25,9.08,9.08,0,0,0,1.32-3,68.59,68.59,0,0,1-3.37-11.55C270.51.68,273.16-7.17,257.59-8.72c-5.2-.52-3,1-3,1C261-9.34,268.7-5.2,269.38-.21a81.25,81.25,0,0,0,2.15,8.94c-3.75-5.71-7.69,5.84-7.69,5.84a14.38,14.38,0,0,0-4.41-11.69s-.15,1.24-.25,3.12a14.23,14.23,0,0,0-2.91-.7c-.92-.14-2.46-1.93-3.53-2.3.3.94.08,3,2.81,4.74-6.11-1.81-17.44-6.16-18.72-5.87-.43.1.21.59,1.35,1.25a35,35,0,0,0-5.25-.61s-1,.34,7.07,2.07,10.74,12.56,7,14.69-10.6-8.53-10.6-8.53a17.25,17.25,0,0,1-1,4.9c-.93,2.4-4.17-1.34-4.17-1.34s-8.5-1.36-17.17-2.49,6.5-10.67,6.5-10.67c23.05.46,21.92-9.72,21.92-9.72-4.49,5.78-34-8.73-34-8.73s-.64,12.44-1,20.86,2.3,12.22,13,13.26,24.28,6.89,24.28,6.89,8.06.17,6.85-10.26a8.94,8.94,0,0,0-.73-2.67,11.23,11.23,0,0,0,2.78,0c1.69-.4,4.11-.79,5.32-2.09-.1,5.66.5,13.67,4.48,15.28,5.29,2.12,8.27.52,9.88-1.43.3.27,1,.42,2.89.41a6.69,6.69,0,0,0,6.5-4c0-.18-1.19-3.78-1.28-4.35,0-.84,0-1.49-.06-2,6.74-.12,6.5-7,6.5-7M267.54,21.93c-3,2-.8-8.1-.8-8.1s5,.34,5.67-2.09c1.12,3.8,2.11,6.9,2.11,6.9a30.71,30.71,0,0,0-7,3.29"/><path class="cls-12" d="M246.12,13.91s-4.33-4.3-9.71-3.15c0,0,.63,6.58-1,7.36l8.75,3.42s1.85-1.12,2-7.62"/><path class="cls-13" d="M208.49-17.3s-1,15-1.15,20.85.49,11.06,9.73,12.78c0,0,14.82,1.87,27.79,7.39,0,0,10,.26,6.4-13.16a26.8,26.8,0,0,0-5.84-4.72A17.77,17.77,0,0,0,240,3.66s19.76,7.12,6.11,18.76c0,0-25-8.43-29.61-6.9,0,0-9.79-2.6-6.38-7s5.55-11.47,15.1-10.67c9.23.78,15.69-2.39,16.6-4.76,0-.08.59-1.59.62-1.69.59-2.58-2,5.54-20-2.1Z"/><path class="cls-13" d="M256.83,9l-11.1-3,4.88,5.11s6.4.62,8.47-2.46c0,0-3,17.1,7.65,17.38,0,0,7.18-.4,8.5-7.1,0,0-4.06,7-8.82,5.75,0,0-8-3.34-6.15-16.56,0,0,.46-4.55-1-.26,0,0-6.46-2.29-1.68.2,0,0,1.6,1.36-.8.92"/><path class="cls-13" d="M254.71-8.73s12.64-3.85,16.3,5S272.8,6,272.8,6s2.63,14.81,4.67,16.33c0,0,2.81,1.1,5.38-3.45,0,0-2.2,7.29-10.54,4.73a27.57,27.57,0,0,0,2.88-4.6s-3.31-8.71-3.51-12.32c0,0-.64-9.82-5-12.32,0,0-2.41-3.35-11.95-3.14"/><path class="cls-11" d="M166.92,14.16c10.27-3.05,17.29-5.74,17.29-5.74l2.77-1-1-6.26h-.82l-1,4.78L167,10.47c-7.39-.85-20.15-8.9-20.28-9s-7.14,12.26-3.5,16.33a82.55,82.55,0,0,0,6.67,6.07c3,2.55,7.1,6.05,7.3,7.1.33,1.75,3.52,2.59,7.71,2.68.68.07,1.45.11,2.3.11h0a23.23,23.23,0,0,0,5.24-.6h.06c.49-.06,1-.14,1.47-.22l.38-.06s4.82-2.42-.39-9.76c0,0,1.19,6,.18,7.58,0,0-.12-9.08-6.29-6.25L162,27.85s-5.08-.86-2.7-3.8S141.58,18.6,145.67,9.19c0,0,11,8,21.26,5"/><path class="cls-10" d="M188.35,36.45c3.61,3,9.55-1.76,9.55-1.76l-.48-10.26S185.86,12.31,185.3,10.62c-.22-.67-.12-.89.2-.79l0,0,7.43,1.55c-.19,1.53,2.27,8.83,5.49,5.06s8.18,1.89,4.53,1.14c-5.78-1.19-2.07,9.16-2.07,9.16l6.4-2.54c-.52-5.91-4.13-12.72-4.62-13.62l-.52-.44s-7.19-6.61-14.2-5.65c0,0,8-4.09,13.62,3.09-.57-2-1.59-4.41-3.3-5.47-3-1.85-12-1.71-12.33-1.7h-.52l-.17.79H186l1,6.26-2.77,1s-7,2.69-17.29,5.74-21.26-5-21.26-5c-4.09,9.4,16,11.91,13.64,14.85s2.7,3.8,2.7,3.8l5.83-3.42c6.16-2.83,6.29,6.25,6.29,6.25,1-1.6,0-7,0-7l10.09,1.66s.52,8.12,4.13,11.08"/><path class="cls-11" d="M207.24,24.16l-6.9-1.1s-.34-5.82,3.34-5.28-2-5.5-5.24-1.73-5.73-3.19-5.55-4.72l-4.78-1.55-2.61,0c-.32-.1-.42.12-.2.79.57,1.69,12.12,13.81,12.12,13.81l.48,10.26s-5.94,4.73-9.55,1.76-4.13-11.08-4.13-11.08L182,25c-2-1.76-7.2-6.65-7.32-8.82-.13-2.67-12.12,0-13.91,2.35,0,0,12.85,1.07,15,6.81l6.41,1.49a22.79,22.79,0,0,0,3.29,11.76l.06.1c.05.08.09.15.14.22.26.39.46.66.54.76l.05.07.15.06a12.14,12.14,0,0,0,4.5.8,14.21,14.21,0,0,0,8.25-2.72c.35-.3.7-.6,1.05-1h0l-.86-7.61c1.67.67,4.59,1.07,7.46-2.19l.05-.05.21-.26,0,0,.1-.15.08-.13,0-.16a13.62,13.62,0,0,0,0-2.18"/><path class="cls-10" d="M49.3,29.24,51,19.61l-10.7-17c-2,.75-3.74.59-9.09,7.49S7,14.41,7,14.41C6.67,17.35-2.9,20.1-3.44,20.15s-6.42.32-8,4.05-6.06,9.59-6.06,9.59h0c-.39.65-.79,1.3-1.21,1.92a17.28,17.28,0,0,0-2.21,4.24c5.38.2,8.09,3.76,12.67-5.56S-12.6,24.25-9.35,22.94s8.63,0,8.63,0h0c5.66-6,17.94-2.05,17.94-2.05L10.41,38.06l-.48,2.09c-1.4,4,1,9,1,9C16.46,51.46,22.74,45,22.74,45s3.21-10,3.93-17.43-9-7.12-9-7.12c8-4.18,12.78,4.41,12.78,4.41.11,4.33,5,1.77,5,1.77l5.84-5.82a11.19,11.19,0,0,1-2.73,6.14s1.68,2.41,3.7,8.48c1.91,5.79,11,1,11.82.52-.65-3.27-4.76-6.68-4.76-6.68"/><path class="cls-10" d="M2,47.53c.42-3.21,3-7.14,7.7-17.47S-2.68,26.19-2.68,26.19-7.59,38.46-9,41.64a11.17,11.17,0,0,1-.55,1.1,11.08,11.08,0,0,0-1.18,4.79C-9,51.4,1.55,50.73,2,47.53"/><path class="cls-14" d="M169.65-245.38c-6.26-9.23-18-16.1-18.14-16.22C139-263.48,102-249.78,88.46-224.95c-13.91,25.46,1,98.53,3.74,109.76s1.61,22.68,2.57,37.44,8.56,20.43,8.56,20.43c-8.87,9.63.43,48.46.43,48.46l7.81,4.6C101.18-8,76,8.49,90.49,12.32c9.62,2.56,22.21-2.6,29.57-6.33-1.17-5.21-3-14.29-3.19-21.2-.32-10.27,6.82-34.25,6.82-34.25s10.57.61,16.5-.59c13-2.64,20.73-19.39,20.73-19.39v.18s0,.07,0,.12,0,.06,0,.09a1.4,1.4,0,0,1,0,.18v.12c0,.08,0,.16,0,.25s0,.06,0,.09,0,.22,0,.34h0a27.81,27.81,0,0,1-.38,2.81h0a22.35,22.35,0,0,1-6.08,11.9h0c-.24.25-.51.49-.78.72l0,0a19.47,19.47,0,0,1-5,3.1h0c.44-.21,14.78,9.29,5.69,41.17,0,0-4.36,17.81,30,14.26l.84-.09,1-4.7c-3.37-7.22-24.55-8.83-24.55-8.83C168.53-28.05,169-67.37,169-67.37s-.8-56.17,15.09-96.77C195-192,196.31-202.69,196-206.67c-9.09-4-20.09-29.42-26.39-38.72"/><path class="cls-10" d="M126.72,27.48C126.3,24.35,121,10.14,121,10.14l-20.44,6.6L74.83,11.46l-1.57.6a16.52,16.52,0,0,0-5.21.41l-5.43,3.23c-2.72,1.85-5.75,14.49-6.53,17.89l-.17.39L56,34a2.43,2.43,0,0,1,0,.25l0,.1v.11a3.67,3.67,0,0,0,1.53,2.38A6.87,6.87,0,0,0,61.61,38a16.59,16.59,0,0,0,2.93-.3c-.21,1.75-.27,3.1-.27,3.29s.55,3.62,3.38,5.18a6.09,6.09,0,0,0,3,.73,11.41,11.41,0,0,0,4.66-1.16,8.32,8.32,0,0,0,4.15-3.25,8.88,8.88,0,0,0,5.7,3.73,6.52,6.52,0,0,0,1.06.08c3.94,0,7.42-3.22,7.58-3.38l.16-.23A79.86,79.86,0,0,0,97,32.9a29.43,29.43,0,0,0,3.89-3.1c-1.62,6.28,4.22,10.81,4.28,10.85l.17.13h.33c6.38,0,11.75-4.56,12-4.77l9.13-8.2Z"/><path class="cls-11" d="M97.44,24.5C99,32.28,94,43.24,94,43.24s-4.76,3.6-8.85,3-6.62-5-6.62-5S82.59,32,83.65,23.62s4-6.34,4-6.34l5.93,1.9s-5.14-.68-6.25.42c-2.49,2.49-7.06,21-7.06,21S83.6,45.2,94,41.87c0,0,4.49-11.79.88-19.33,0,0,2-.78,2.57,2"/><path class="cls-11" d="M112.35,19.41S100.07,31.34,96.92,33.2l-.47-2.44a13.39,13.39,0,0,1,.76-3.34,11.27,11.27,0,0,1,3-3.48,9,9,0,0,1-1.54,4.75s9.16-9.6,13.64-9.28"/><path class="cls-11" d="M80,41.11c1,.32-3.48,5-6.05,5.48-9.7,1.72-9.86-5.74-9.86-5.74s.38-8.53,3.63-11.35c2.74-2.38,5.08-14.17,5.08-14.17,4.49-4.17,11.08,1.34,11.08,1.34s-7.28-4-9.5,2.19A139.49,139.49,0,0,1,67.86,33.2s7.55-.88,9.79,2.57-13,2.87-7.49,6.81,7-2.45,9.87-1.47"/><path class="cls-11" d="M64.54,37.69c-7.91,1.67-8.88-3.13-8.88-3.13s3.58-16.89,6.41-18.89l5.4-3.34a8,8,0,0,1,7.92.83s-9.6.45-11.61,5.71S53.72,37.63,66,35.39Z"/><path class="cls-11" d="M72.53,12.39l2.13-1,26,5.93L121,10.14s5.31,14.57,5.74,17.67l-9.41,8.43S111.45,41,105.18,41c0,0-6.72-5.29-4.29-11.72s15.27-7.1,15.27-7.1S100.29,27.75,105,35.49c0,0,8.46,0,13.32-5.22L126,25.74l-5.22-15.36s-10.31,9.15-19.53,8.21-15.73-1.33-20.14-4.33a11.19,11.19,0,0,0-8.63-1.87"/><path class="cls-12" d="M170.1,24.43l-8.5.59s-2.09,2,.27,7a21.07,21.07,0,0,0,10.3.07s.55-6.54-2.07-7.67"/><path class="cls-12" d="M204.05,17.85s-4.25-1.8-4,3.44l.75,5.41s3.74.58,5.67-1.9Z"/><path class="cls-14" d="M168.76,11.26l-4.31-.46a12.47,12.47,0,0,0,4.31.46"/><path class="cls-15" d="M184.22,5.94c-34.32,3.55-30-14.26-30-14.26,9.09-31.88-5.24-41.38-5.69-41.17h0a19.48,19.48,0,0,0,5-3.1l0,0c.27-.23.54-.47.78-.72h0a22.38,22.38,0,0,0,6.08-11.9h0a27.74,27.74,0,0,0,.37-2.81h0c0-.12,0-.23,0-.34s0-.06,0-.1,0-.17,0-.25v-.12a1.71,1.71,0,0,0,0-.18s0-.06,0-.09,0-.09,0-.12v-.18s-11.06,14.69-24.07,17.34l-13.16,2.65,1.65.39a50,50,0,0,0,14.21,1.55l2.27-.18c15.08,16.54,4.9,49.18,4.9,49.18.88.89,10.43,7.45,17.74,9.33l4.31.46a6,6,0,0,0,.9-.15c6.74-1.77,15.25-4.49,15.25-4.49l.15-.76-.84.09"/><path class="cls-15" d="M152.36-261.46a30.59,30.59,0,0,0-6.28-1.52c-19.1-2.4-51.36,18.13-65,28.88s-8,27.76-8,27.76c-1.1,11.66.69,29.55,3.63,48.45l0-.14c-5.12,1.44-5.93,5.21-17.88,17.81a74.41,74.41,0,0,0-16.45,28.72c-.08.48-16,40.44-16.82,42.49s-2.95,5.46-1.93,6.58a1.84,1.84,0,0,1,.53,2C22.74-42.9,21.38-32,20.86-28.65s-4.37,21.58-6.5,27.4S6.78,14.87,6.78,14.87a34.47,34.47,0,0,0,16.38,1.24c3.42-.66,6.31-2.07,8-4.35a6.38,6.38,0,0,0,.6-.9c3.53-6.58,8.58-8.27,8.58-8.27-2.62-.21-2.46.16-10.27,6.32S9.67,12.49,9.67,12.49l4.39-4.81c1.5-20.59,18-16,13.85-23.11S26.79-62,26.79-62c-4.66,2.14-.81-5.78-.81-5.78L38.13-93a93.39,93.39,0,0,0,9.47-23.64c3-12.94,10.43-17.27,19.9-30.59a25.19,25.19,0,0,1,4.89-5.41c4.75-2.83,2.92,1.1,2.92,1.1-4.74,3.64-7.25,14.71-7.25,14.71h0c7.61-11.3,10.21-11.4,10.21-11.4,6.32,36.91,15.81,74.27,15.81,74.27C92.63-55,100.33-7.51,100.33-7.51,91.19-6.07,74.66,11.43,74.66,11.43l26,5.93L121,10.14s-.41-1.62-1-4.15c-7.36,3.73-19.95,8.9-29.57,6.33C76,8.49,101.18-8,111.57-4.25l-7.81-4.6s-9.31-38.83-.43-48.46c0,0-7.59-5.67-8.56-20.43s5.47-31.95,2.69-43.17-22.91-78.57-9-104,52.31-39.18,63.9-36.51"/><path class="cls-16" d="M187-171.44a137.73,137.73,0,0,0-6.18,16.86c-3.34,10.88-6,19.75-9,43.33a325.35,325.35,0,0,0-2.75,41s.86,40.33-7.54,62.58c0,0,20.65.86,24.29,8.29,0,0-5.57-8-27.07-6.21,0,0,12.24-61.21,6.08-66.49a1.35,1.35,0,0,0-.25-.18c-6.73-3.85,5-41.65,5.54-46.62s-2.73-40.26,16.93-52.56"/><path class="cls-16" d="M123.68-49.47S108.44-31.1,114.21-9.35L120.06,6S117-7.9,116.89-17.37c0-3.29,3.27-19.93,6.79-32.1"/><path class="cls-14" d="M33.47-61.49c-.1-12.41,17.65-50,17.65-50l16.93-25.38s2.51-11.07,7.25-14.71c0,0,1.83-3.93-2.92-1.1a25.19,25.19,0,0,0-4.89,5.41C58-133.9,50.64-129.57,47.59-116.63A93.41,93.41,0,0,1,38.13-93L26-67.74s-3.85,7.92.81,5.78c0,0-3,39.42,1.12,46.54S15.55-12.91,14.05,7.68L9.67,12.49S22.24,15.06,30,8.91s7.65-6.53,10.27-6.32C38.82-2,33.47-10.13,33.47-10.13s.11-38.94,0-51.35"/><path class="cls-17" d="M35.61-56.78c6.52-17.54,16.74-53,16.74-53a291,291,0,0,1,15.7-27.08h0L51.12-111.44s-17.76,37.55-17.65,50,0,51.36,0,51.36S38.82-2,40.31,2.59L38-10.24c0-5.78-2.38-46.54-2.38-46.54"/><path class="cls-15" d="M29.53-5.43S28-4.09,29.36.58c0,0,.22-3,.18-6"/><path class="cls-16" d="M25-2.43s-1.92.69-2.38,5.53c0,0,1.31-2.72,2.38-5.53"/><path class="cls-16" d="M20.14,8.69s-2-.31-4.73,3.72c0,0,2.45-1.76,4.73-3.72"/><path class="cls-15" d="M19,2.6S17,3.3,16.58,8.13c0,0,1.31-2.72,2.37-5.53"/><path class="cls-15" d="M27,5.37s-1.92.69-2.38,5.53c0,0,1.31-2.72,2.38-5.53"/><path class="cls-15" d="M32.32-.38s-1.29,1.57.79,6c0,0-.27-3-.79-6"/><path class="cls-16" d="M97.86-.86S96-1.45,93.49,1.57c0,0,2.27-1.12,4.37-2.42"/><path class="cls-16" d="M93.58,9.19s-2,.33-2.81,4.14c0,0,1.52-2,2.81-4.14"/><path class="cls-16" d="M114.57.7s1.31,1.49-.42,5c0,0,.09-2.52.42-5"/><path class="cls-16" d="M109.14,6.86s1.31,1.49-.42,5c0,0,.09-2.53.42-5"/><path class="cls-16" d="M102.84,9.83s1.32,1.49-.41,5c0,0,.09-2.52.41-5"/><path class="cls-16" d="M85.09,7.82s-.2,2-3.94,3.08c0,0,1.91-1.66,3.94-3.08"/><path class="cls-16" d="M89.15,2s-1.89-.62-4.43,2.34c0,0,2.29-1.07,4.43-2.34"/><path class="cls-15" d="M155-5.06s1.5.61,2.22,5.41c0,0-1.19-2.66-2.22-5.41"/><path class="cls-15" d="M175.63,3.39s1.57-.55,3.76,2c0,0-1.95-.9-3.76-2"/><path class="cls-16" d="M165.42,3.18s1.58-.54,3.76,1.95c0,0-1.94-.89-3.76-1.95"/><path class="cls-16" d="M159.31,4.7s1.61.42,2,3.72c0,0-1.11-1.82-2-3.72"/><path class="cls-16" d="M165.58,6.55s1.62.42,2,3.72c0,0-1.11-1.83-2-3.72"/><path class="cls-15" d="M159.9-1.05s1.43-.87,4.09,1.11c0,0-2.09-.46-4.09-1.11"/><path class="cls-15" d="M159.41,1.81s1.65-.23,3.32,2.64c0,0-1.74-1.25-3.32-2.64"/><path class="cls-15" d="M168.76,1.21s1.65-.23,3.32,2.63c0,0-1.73-1.25-3.32-2.63"/><path class="cls-14" d="M170.15,6.56s1.65-.23,3.32,2.64c0,0-1.74-1.25-3.32-2.64"/><path class="cls-16" d="M152.08-3.26s1,1.29-.91,5.78c0,0,.36-2.9.91-5.78"/><path class="cls-16" d="M167.89-1.18S169.25-2,173.58.16c0,0-2.86-.57-5.69-1.34"/><path class="cls-14" d="M154,1.31s1.49,0,3.21,3.64c0,0-1.68-1.76-3.21-3.64"/><path class="cls-16" d="M178.52-1.18S179.88-2,184.22.16c0,0-2.86-.57-5.69-1.34"/><path class="cls-16" d="M177.25,1.06s1-.57,4.29,1.12c0,0-2.15-.49-4.29-1.12"/><path class="cls-15" d="M116.8,1.38s1.45,1.42-.13,6c0,0-.06-3,.13-6"/><path class="cls-15" d="M110.2.74s-2,.27-3.49,4.91c0,0,1.85-2.39,3.49-4.91"/><path class="cls-15" d="M100.31,7.68s-2,.27-3.49,4.91c0,0,1.85-2.39,3.49-4.91"/><path class="cls-15" d="M101.82,2s-2-.45-5,3.36c0,0,2.58-1.58,5-3.36"/><path class="cls-15" d="M92.65,6.14s-2-.45-5,3.36c0,0,2.57-1.58,5-3.36"/><path class="cls-11" d="M24.26,48.07c0-3.75,2.89-13.8,2.89-13.8l7-4.38c5.67.53,7.49,12,7.49,12s6.52,1.29,11.12-2.35a3.45,3.45,0,0,0,1.34-3.59c-.86.47-9.91,5.27-11.83-.52-2-6.08-3.69-8.49-3.69-8.49a11.18,11.18,0,0,0,2.72-6.14L35.43,26.6s-4.85,2.55-5-1.77c0,0-4.76-8.58-12.79-4.41,0,0,9.71-.27,9,7.13S22.73,45,22.73,45s-6.27,6.5-11.85,4.17c6.15,4.38,13.37-1.07,13.37-1.07"/><path class="cls-11" d="M-.73,22.94h0s-5.37-1.31-8.63,0,5.7,2.13,1.12,11.45-7.29,5.76-12.67,5.56c-.48,1.55,0,1.91,0,1.91C-11.3,46.25-9,41.64-9,41.64c1.42-3.18,6.32-15.45,6.32-15.45s17-6.45,12.35,3.87S2.38,44.32,2,47.53s-11,3.87-12.69,0a4.48,4.48,0,0,0,.45,2.08s0,.6,6.57,2.09,9-6,9.89-8.62,4.23-5,4.23-5l6.79-17.17S4.93,17-.73,22.94"/><path class="cls-13" d="M-10.08,49.8l7.4,2.06s4.52.51,7.58-5.52c0,0,1-10.64,5.51-12.16L17.2,20.89,10.47,38.3S6.92,44.16,6,47.85s-8.26,7.43-16.11,2"/><path class="cls-11" d="M6.78,14.87s15,4.79,23-1.62c0,0,.73-.5,2.87-3.89s4.65-5.85,7.7-6.76c0,0-8,8.13-7.8,11S13.94,23.67,6.78,14.87"/><path class="cls-13" d="M10.89,49.23s5.82,3.93,13.37-1.16a44.55,44.55,0,0,1,3-16.34c.08-.21,3-.31,3.1-3.61,0,0,1.07.31,0,2.83s3.74-1.69,3.74-1.69,7,1.26,7.49,12.61A22.76,22.76,0,0,0,51,40.6s-5,2.94-9.94,2.3-.21-8.07-5-11.71a9.68,9.68,0,0,0-6.58,2.18c-2.69,2.46-2.29,3.19-2.29,3.19L24.39,49.11s-9.49,7.19-13.5.12"/><path class="cls-18" d="M-11.41,24.2c1.55-3.74,7.43-4,8-4.05S6.67,17.35,7,14.41c0,0-9.77,4.51-14,5.57s-5.24,3.37-5.24,3.37a96.45,96.45,0,0,1-5.27,10.44h0s4.51-5.85,6.06-9.59"/><path class="cls-11" d="M59,27.26c.19,0,7.06-2.48,7.49,1.79s-6.93,0-6.93,0Z"/><path class="cls-11" d="M82.89,35.39s.86-6.2,7.86-2.2,1,7.91,1,7.91Z"/><path class="cls-12" d="M59.79,28.38s3.69-1.28,4.92,1.34l-1.23,5.67s-3.78.23-6.06-1.65Z"/><path class="cls-12" d="M66.66,35.22s7-1.76,10.48,2.14l-1,5.4s-5.83-2.35-10.43-2Z"/><path class="cls-12" d="M81.56,40.89s5.56,2.52,10.16.22c0,0,2.41-7.44-4.71-7.86,0,0-3.42-.57-4.12,2.14s-1.33,5.5-1.33,5.5"/><path class="cls-11" d="M114.36,26.9s3.16-1.31,2.95,4.34-1.65,4.05-1.65,4.05-2.45-2.65-2.33-3.63,1-4.76,1-4.76"/><path class="cls-12" d="M114.89,26.68l-6.18,2.45s1.13,6.64.24,8.5,5.78-1.12,6.73-4.33-.8-6.62-.8-6.62"/><path class="cls-13" d="M68.08,12.09a46.09,46.09,0,0,1-6.55,4.12l-5.8,18s2,4.63,8.77,3.11c0,0,.44-5.51,2.72-7.31l.16-.12c2.42-1.64-1.22-3.3.67-9.1a8.81,8.81,0,0,1,5-5.67s-2.77,13.27-5.58,15.21-2.81,11.77-2.81,11.77,1.23,4.84,8.7,4.6l4-4.78s4.8-26.15,9.69-24.82c0,0-2.09-.24-3.82,8.66a83.07,83.07,0,0,1-4.5,15.37S83.68,47,90.34,44.8L94,43.24s-7.73,8.06-15.23.52l-3.13,3.09S65.55,49,63.26,41.47l1.18-3.62s-8.6,1.43-9.6-2.8c0,0,4-16.61,6.22-18.7,0,0,4.18-3.49,7-4.26"/><path class="cls-13" d="M97.15,33.2s.27-7.49.59-4.24,3.8-.16,3.8-.16.5-7.06,14.63-6.62c0,0-19.32,1.44-14,15.12l3.05,3.7s7.4-1.66,12.39-6.06,7.31-6.16,9.19-7.12c0,0-8.07,7.61-9.79,10.61s-12.47,5.78-13.32,4.5-5.82-8.87-3-12.48Z"/><path class="cls-11" d="M43.23,33.85s-4.89-3.53.52-3.89,5.7-1.2,6.42,1.67-6.94,2.23-6.94,2.23"/><path class="cls-11" d="M11.91,40.84c0-.08-3-4,1.82-4.33S25,34.29,20.26,46.35Z"/><path class="cls-11" d="M-7.84,41.89s-1.06-3.7,2.58-3.54,8,.47,7.41,3.54A12,12,0,0,1,0,46.81L-4,41.91Z"/><path class="cls-12" d="M49.46,30.52,42.88,32.4s.44,7,5.82,5.14,3.11-4,3.11-4Z"/><path class="cls-12" d="M12,38.05s4.44-.79,7.92,1l.37,7.32s-6.05-2.72-9.85-1.76Z"/><path class="cls-12" d="M-7,40.15s5.1-1.2,8.1,2.29L0,46.81s-5.25-3-9.31-1.84Z"/><path class="cls-19" d="M185.49,9.83,197.9,23.94v4.61a6.14,6.14,0,0,0,1.14.66l-.81-5.44S187.46,10.46,185.49,9.83"/><path class="cls-20" d="M207.1,26.78l0,0,0,0"/><path class="cls-20" d="M199.93,37.33l.29-.23,0-.16c-.35.35-.7.65-1.05,1,.26-.18.53-.36.79-.57"/><path class="cls-20" d="M185.51,38.7l-.06-.1.06.1"/><path class="cls-20" d="M186.16,39.63l0,.05c-.08-.11-.28-.37-.54-.76a8.29,8.29,0,0,0,.51.71"/><path class="cls-20" d="M206.84,27.09l-.05.05.05-.05"/><path class="cls-20" d="M200.2,36.94l-1.09-7.7-.07,0Z"/><path class="cls-21" d="M185.65,38.92c-.05-.07-.09-.14-.14-.22l.14.22"/><path class="cls-21" d="M186.25,39.76l-.05-.07.05.07"/><path class="cls-19" d="M207.05,26.83l-.21.26.21-.26"/><path class="cls-13" d="M185.49,9.83,197.9,23.94v4.61a6.14,6.14,0,0,0,1.14.66l-.81-5.44S187.46,10.46,185.49,9.83"/><path class="cls-11" d="M187.89,4.45c7-1,14.2,5.65,14.2,5.65a25.42,25.42,0,0,0-.58-2.56C195.9.36,187.89,4.45,187.89,4.45"/><path class="cls-13" d="M146.71,1.47s-6.3,12.05-3.5,16.33c0,0,12.91,10,14,12.88,0,0,.07,2.94,9.3,2.83,0,0,5.92-1.56,7.85-.65,0,0,3.51-3.08-.21-9.15,0,0-3-6-13.38-5.17,0,0,3.89-2.5,7.54-.29S175,22.74,175,22.74l1.14,1.85,6,2.25s1.63,9.48,4.09,12.92c0,0,5.9,2.85,13.95-2.81l-2.3-13L186.55,11s3.32-.54,11.35,11.19c0,0,1.85,1.67,1.72,5.69,0,0,1.36,2.05,7.65-1.42a6.7,6.7,0,0,1-7.65,3.27l.9,7.43s-10.16,8-16.21,2.55a13.75,13.75,0,0,1-2.94-12.23l-6-2.05s4.38,5.32-1,8.85c0,0-15.56,2-17.92-3.37,0,0-12.44-11.77-14-12.84S140.81,10,146.71,1.47"/><path class="cls-11" d="M188.21,31.37s-3.93-1.28,2.46-3.85,7.25-.37,6.07,2.47-8.53,1.38-8.53,1.38"/><path class="cls-12" d="M196.77,27.52s-6.64,2.3-8.88,2.89l2.51,7.43s6.21-.21,7.49-3.15a33,33,0,0,0-1.13-7.17"/><path class="cls-13" d="M192.11,4.68a12.83,12.83,0,0,1,9.69,4l.29,1.4s-6.07-5-10-5.42"/></g></g></g></svg>