<?xml version="1.0" encoding="UTF-8"?><svg xmlns="http://www.w3.org/2000/svg" xmlns:xlink="http://www.w3.org/1999/xlink" viewBox="0 0 400 400"><defs><style>.cls-1{fill:url(#linear-gradient);}.cls-2{fill:#054ab0;}.cls-3{fill:#0d83cd;}.cls-4{mix-blend-mode:multiply;}.cls-5{fill:url(#linear-gradient-2);}.cls-6{isolation:isolate;}</style><linearGradient id="linear-gradient" x1="-9.06" y1="-6.34" x2="401.32" y2="404.05" gradientUnits="userSpaceOnUse"><stop offset="0" stop-color="#cde0ff"/><stop offset=".36" stop-color="#a7d0ff"/><stop offset=".92" stop-color="#65b5ff"/></linearGradient><linearGradient id="linear-gradient-2" x1="312.65" y1="232.96" x2="95.48" y2="107.58" gradientUnits="userSpaceOnUse"><stop offset="0" stop-color="#fff" stop-opacity="0"/><stop offset=".16" stop-color="#fff" stop-opacity=".18"/><stop offset=".47" stop-color="#fff" stop-opacity=".53"/><stop offset=".72" stop-color="#fff" stop-opacity=".78"/><stop offset=".91" stop-color="#fff" stop-opacity=".94"/><stop offset="1" stop-color="#fff"/></linearGradient></defs><g class="cls-6"><g id="Layer_1"><rect class="cls-1" x="-9.06" y="-6.34" width="416.19" height="416.19"/><path class="cls-5" d="M298.6,143.99c.12-1.73,.21-3.48,.21-5.24,0-40.62-32.93-73.54-73.54-73.54-27.77,0-51.93,15.39-64.45,38.11-7.32-5.78-16.56-9.24-26.62-9.24-23.75,0-43.01,19.26-43.01,43.01,0,5.5,1.05,10.76,2.93,15.6h-2.93c-20.79,0-37.64,16.85-37.64,37.64s16.85,37.64,37.64,37.64h199.9c23.38,0,42.33-18.95,42.33-42.33,0-20.81-15.02-38.1-34.82-41.65Z"/><rect class="cls-3" x="147.1" y="183.86" width="94.68" height="17.43" rx="2.02" ry="2.02"/><rect class="cls-3" x="147.1" y="156.91" width="94.68" height="17.43" rx="2.02" ry="2.02"/><rect class="cls-3" x="147.1" y="129.97" width="94.68" height="17.43" rx="2.02" ry="2.02"/><g class="cls-4"><path class="cls-2" d="M295.97,228.24h-52.29c-1.42,0-2.58,1.15-2.58,2.58v17.32c0,1.42,1.15,2.58,2.58,2.58h52.29c1.42,0,2.58-1.15,2.58-2.58v-17.32c0-1.42-1.15-2.58-2.58-2.58Zm54.45-6.27l-25.65-25.65c-5.3-5.3-12.35-8.22-19.85-8.22h-77c-12.44,0-22.56,10.12-22.56,22.56v108.17c0,12.44,10.12,22.56,22.56,22.56h108.17c12.44,0,22.56-10.12,22.56-22.56v-77c0-7.5-2.92-14.55-8.22-19.85Zm-42.39,100.41h-49.27v-34.4c0-1.15,.93-2.08,2.08-2.08h45.12c1.15,0,2.08,.93,2.08,2.08v34.4Zm31.61-3.56c0,1.96-1.6,3.56-3.56,3.56h-9.05v-34.4c0-11.62-9.46-21.08-21.08-21.08h-45.12c-11.62,0-21.08,9.46-21.08,21.08v34.4h-11.84c-1.96,0-3.56-1.6-3.56-3.56v-108.17c0-1.96,1.6-3.56,3.56-3.56h77c2.42,0,4.7,.94,6.42,2.66l25.65,25.65c1.71,1.71,2.66,3.99,2.66,6.42v77Z"/></g></g></g></svg>