<svg id="Layer_1" data-name="Layer 1" xmlns="http://www.w3.org/2000/svg" viewBox="0 0 256 256"><defs><style>.cls-1{fill:#409;}.cls-2{fill:#fff;}</style></defs><title>icon</title><rect class="cls-1" width="256" height="256"/><path class="cls-2" d="M82,115.54A46.41,46.41,0,0,1,95.47,82.87a45.78,45.78,0,0,1,64.94,0,46.38,46.38,0,0,1,3,62,65.14,65.14,0,0,0-71,0A46.66,46.66,0,0,1,82,115.54m46-60a59.82,59.82,0,0,0-59.68,60.08,60.24,60.24,0,0,0,13.45,38,59.61,59.61,0,0,0,4,4.47l5.14,5.09,0.28-.28a50.87,50.87,0,0,1,11.53-8.65,52,52,0,0,1,25.32-6.5,52.76,52.76,0,0,1,25.32,6.5,55.91,55.91,0,0,1,11.53,8.65l0.28,0.28,5.09-5.14a59.61,59.61,0,0,0,4-4.47,60.25,60.25,0,0,0-4.07-80.43A59.31,59.31,0,0,0,128,55.57"/><path class="cls-2" d="M128,161.37a38.75,38.75,0,0,0-27.41,11.42l8.42,8.48a26.55,26.55,0,0,1,19-7.91,27.08,27.08,0,0,1,19,7.91l8.42-8.48A39.11,39.11,0,0,0,128,161.37"/><path class="cls-2" d="M128,186.64a13.48,13.48,0,0,0-9.66,4.07l9.66,9.72,9.66-9.72a13.26,13.26,0,0,0-9.66-4.07"/></svg>