<?xml version="1.0" encoding="utf-8"?>
<svg style="overflow: visible;" viewBox="0 0 139 85" xmlns="http://www.w3.org/2000/svg">
  <rect x="0.278" y="-0.043" width="138.624" height="85.085" style="fill: rgb(36, 66, 107); fill-rule: evenodd;"/>
  <g id="Page-1" stroke="none" stroke-width="1" fill="none" fill-rule="evenodd">
    <g id="Logo-+-Security">
      <path d="M7.79730826,49.3372219 C7.88731979,42.1957186 10.4320526,35.0450246 15.3806527,29.7354721 C16.5368178,28.4947136 17.6050055,27.1317421 18.9460247,26.0730608 C20.2562773,25.0387228 21.7709629,24.2731536 23.3715917,23.7666658 C25.6785822,23.0366179 29.3192181,23.0579803 30.5277627,25.5844578 C31.179965,26.9481744 30.5514098,28.7836029 28.8584811,28.9100385 C27.7491017,28.9927558 26.5446253,28.5811568 25.5461076,28.1494374 C25.1402929,27.9740669 24.8939054,27.5371311 24.6915066,27.1749637 C24.4229976,26.6940611 24.5236885,26.4774562 24.5849675,25.9580516 C24.8288123,26.0584052 25.1034237,26.0944233 25.3312495,26.2320369 C25.5941646,26.391013 25.7818157,26.6861123 26.0254063,26.8766352 C26.4828378,27.2345798 27.0292637,27.4094535 27.6153557,27.3418886 C28.2189924,27.2723366 28.4358846,26.9260668 28.1480511,26.3992102 C27.2929415,24.8340411 24.8618674,25.1832916 23.3998157,25.4818686 C21.4409206,25.8820412 19.9905653,26.9340156 18.5819103,28.2701598 C15.7073895,30.9965995 13.4192149,34.1709046 11.8241801,37.7630186 C10.9614424,39.7062527 10.2540637,41.7351848 9.97868942,43.8438534 C9.69390717,46.023316 9.86096247,48.278789 10.1068414,50.4552708 C10.5014683,53.9517508 12.8239692,58.1849855 16.7117554,58.7366822 C18.5246995,58.9940247 20.2440724,58.3141536 21.6224693,57.1901431 C22.3791764,56.5731172 23.0189194,55.8398401 23.6367952,55.0936461 C23.9548868,54.709868 24.9345886,53.069682 25.5712803,53.2470397 C27.5578907,53.8009719 23.1076596,58.8541755 22.4216395,59.4595265 C20.565978,61.0964833 18.0214995,62.2140354 15.4991424,62.2793646 C13.1151082,62.3409678 11.4954092,60.7676015 10.2881358,58.9177659 C9.40353099,57.5624949 8.68064176,56.0847626 8.33814026,54.5054347 C7.97402581,52.8272435 7.95139579,51.0442275 7.79730826,49.3372219 C7.87358922,43.2996087 7.91605228,50.6547361 7.79730826,49.3372219 L7.79730826,49.3372219 Z M68.40787,25.2349589 C68.0719795,25.2381881 67.495804,25.2791741 67.2733179,24.9619671 C66.9852301,24.5513617 67.3414622,23.8588222 67.4218115,23.4462296 C67.6364152,22.3435815 68.3109932,21.8584561 69.4519021,21.9394346 C70.4776267,22.0122158 70.0702864,23.2318603 69.9360319,23.8516186 C69.7532119,24.697421 69.4150329,25.3688465 68.40787,25.2349589 C67.2133102,25.2461369 69.0641405,25.3221473 68.40787,25.2349589 L68.40787,25.2349589 Z M90.3882284,18.2598837 C90.3600045,19.7957416 89.1061998,21.0004821 87.8002697,20.9346561 C86.7155545,20.8797597 87.7428047,18.564919 88.056828,18.1779116 C88.3360163,17.8336291 88.7428481,17.6515518 89.1911259,17.6527938 C89.7589105,17.6545326 89.9727514,17.9548483 90.3882284,18.2598837 C90.3600045,19.7957416 90.2008315,18.12227 90.3882284,18.2598837 L90.3882284,18.2598837 Z M29.8501336,21.0081825 C28.8526329,21.3015431 27.8350449,21.219571 26.8210167,21.4289723 C25.926241,21.613782 25.3432002,22.3833256 24.4919047,22.6915901 C24.8529679,21.7931269 25.7289276,21.2185774 26.6877793,20.9796165 C27.2342052,20.8434932 27.8019898,20.8675881 28.358078,20.7940616 C28.7412627,20.743388 29.8539476,20.4115255 29.8501336,21.0081825 C29.6172224,21.076741 29.8506421,20.9393757 29.8501336,21.0081825 L29.8501336,21.0081825 Z M138.46532,36.0704202 C137.966443,35.4352611 137.11413,35.0952014 136.305043,35.1560594 C135.258214,35.2348022 134.20808,35.4022239 133.164556,35.5194688 C130.940712,35.7693593 128.741023,36.1151322 126.527604,36.4114736 C125.465773,36.5538068 124.344952,36.8809498 123.268627,36.7845705 C122.392159,36.7060761 121.546203,36.2388355 120.855606,35.7248957 C119.201327,34.4935763 119.127588,32.8079331 119.273539,30.9106531 C119.44568,28.670084 119.84107,26.4242986 120.248664,24.2145312 C121.066396,19.7825764 121.853107,15.3459019 122.63041,10.9069919 C123.015375,8.70765729 123.372878,6.50360308 123.736738,4.30054247 C123.925915,3.15715675 124.110261,2.01302583 124.273502,0.865665701 C124.37521,0.149776573 123.903793,-0.133896357 123.230741,0.0588621313 C121.647148,0.512440739 121.683763,2.44698082 121.403812,3.76449503 C121.023424,5.55297585 120.675329,7.34617627 120.350626,9.14508989 C120.026432,10.9415195 119.674523,12.7317391 119.297695,14.5184812 C119.108518,15.4139636 118.916036,16.3089492 118.722028,17.203438 C118.537937,18.0522212 118.421481,18.8930556 118.014903,19.6648347 C117.240652,19.0875528 116.733129,18.3110541 115.756478,18.0030379 C114.938747,17.745447 114.055667,17.8025791 113.227002,17.9767075 C111.294042,18.3825933 109.808089,19.6539051 108.754141,21.2441626 C106.48046,24.6748166 105.611365,28.7284581 105.110708,32.7358971 C105.101046,32.8086783 105.090875,32.88916 105.079941,32.9780872 C105.077398,32.998456 105.074856,33.0190732 105.072313,33.039442 C105.045869,33.2562953 105.015611,33.5178607 104.980522,33.8333288 C105.16563,35.4779859 105.145543,37.24113 105.937339,38.7499122 C106.670653,40.1466661 108.226785,40.7939968 109.751896,41.0210345 C111.373629,41.262231 113.318539,41.0170601 114.639979,40.0048296 C115.235225,39.548767 115.707659,38.9613007 116.116779,38.3445233 C116.331891,38.0203611 116.657102,37.1899595 117.177847,37.5069181 C117.844034,37.9125555 118.324604,38.5099577 119.047748,38.8602019 C119.731479,39.1915676 120.482592,39.3686769 121.243876,39.4039497 C122.974183,39.4844314 124.76704,38.9314927 126.448272,38.5924266 C128.375892,38.2039288 130.305292,37.8248702 132.23164,37.4304108 C133.303388,37.2108251 135.90228,36.1730095 136.448706,37.7279942 C136.75205,38.591433 135.771331,39.097424 135.086836,39.2655909 C134.004155,39.5311306 132.920457,39.7921991 131.835996,40.04979 C129.581131,40.5855891 127.32474,41.1161717 125.062501,41.6214176 C120.511325,42.6383676 115.964471,43.6848773 111.401344,44.6496633 C102.344506,46.5645798 93.3385216,48.7209412 84.2997365,50.7165877 C75.2220481,52.7206798 66.1791947,54.8767928 57.1017605,56.8811333 C48.1168806,58.8651051 39.1543764,60.9397428 30.1705136,62.9266953 C25.7070604,63.9138374 21.2649659,64.9923907 16.802784,65.9869847 C12.4028983,66.9676684 7.93893657,67.8765644 3.59524448,69.0733561 C2.54841545,69.3617487 2.3269464,70.1422218 1.90384135,71.0523598 C1.45836055,72.0104391 1.05127449,72.9846643 0.648765299,73.96038 C0.381781942,74.6072139 -0.68055755,76.1644342 0.672666666,75.9858345 C1.716953,75.8479724 2.75157707,75.5193391 3.77196204,75.2674614 C8.29440584,74.1511513 12.8354113,73.1068772 17.3545496,71.9783955 C26.4068111,69.7182028 35.4570383,67.4401254 44.4922637,65.1151003 C62.545424,60.4697698 80.6044326,55.8480373 98.6545417,51.1912803 C107.599755,48.8833949 116.554123,46.6115274 125.498065,44.2989224 C127.731572,43.7211437 129.971944,43.1448555 132.171632,42.4520675 C133.284063,42.1018234 134.385052,41.7177968 135.475869,41.3079366 C136.321571,40.9899845 137.354924,40.7348776 138.043486,40.1327557 C139.101757,39.2069685 139.3395,37.1835011 138.46532,36.0704202 L138.46532,36.0704202 Z M116.503523,31.8535799 C115.997018,33.6659071 115.277943,35.8145681 113.954468,37.227468 C112.57302,38.7024678 110.455206,38.1738724 109.039177,37.0004302 C107.720788,35.9077181 107.197501,34.1371221 107.203857,32.494949 C107.204874,32.2681597 107.213774,32.0413704 107.213774,31.8145811 C107.302514,29.5851901 107.265136,30.714417 107.23615,31.4196249 C107.341926,29.5817124 107.674765,27.753736 108.312728,26.0186612 C108.889158,24.4510081 109.631117,22.6317257 111.156737,21.7362433 C112.381046,21.0176217 114.088468,20.6740844 115.429487,21.2871359 C117.184967,22.0892198 117.270401,24.0334475 117.345157,25.6790983 C117.440254,27.769882 117.066223,29.8407938 116.503523,31.8535799 L116.503523,31.8535799 Z M89.748994,8.67238448 C88.0962399,7.47261193 86.0519101,7.87700731 84.5812133,9.12024988 C81.4130107,11.7984999 80.7221595,16.2480911 79.6542261,19.9949585 C79.3440169,21.0834478 79.070931,22.1910639 78.7101221,23.2648976 C78.5389985,23.7741178 78.299222,24.3489157 77.7154184,24.4977073 C77.0708443,24.6616514 76.3405812,24.3998377 75.9904516,25.132618 C75.6098096,25.929734 75.7277909,26.7894468 75.8132255,27.629536 C76.2116664,27.4829799 76.9973603,26.9923897 77.4214824,27.2276246 C77.7881396,27.4310643 77.389953,28.2443262 77.3169775,28.5133436 C76.9554058,29.846507 76.5890029,31.1784284 76.2287025,32.5118402 C75.5182725,35.1411554 74.8213188,37.7736998 74.0930899,40.398047 C73.7421975,41.6619068 73.4022387,42.9312314 72.9877788,44.1767095 C72.6457858,45.205086 72.3045557,46.4575194 71.5959056,47.310277 C70.5233953,48.6007156 68.3712551,48.9181709 66.9854844,47.9307805 C65.8872928,47.1483201 65.4077399,45.5133505 65.5587762,44.2420388 C65.767786,42.4851048 66.25395,40.7125215 66.5880606,38.9722303 C66.9618373,37.0255187 67.3391738,35.0795522 67.732275,33.1363181 C67.9267914,32.1735192 68.123342,31.2112172 68.3176042,30.2484184 C68.4045645,29.8171958 68.986334,28.270905 68.5484812,27.9507173 C68.2044541,27.6993364 67.6343811,27.8491217 67.2865399,28.0110785 C66.7830856,28.2458166 66.7154498,28.5697304 66.5982314,29.0737342 C66.2547128,30.5499761 65.9488262,32.0339184 65.6670951,33.5225803 C65.1153295,36.4380524 64.545765,39.3495501 63.9034794,42.2473858 C63.4269776,44.396792 62.9565784,46.4860854 61.8278745,48.4106895 C61.3854449,49.1650806 60.9559831,49.906555 59.9516171,49.9259302 C59.2795819,49.938847 58.5406737,49.5667436 57.997299,49.2145122 C57.3168728,48.773602 56.7195929,48.168251 56.3796341,47.4364642 C56.0022976,46.6246927 56.1164648,45.8007495 56.2214782,44.9417819 C56.4945641,42.7101553 57.0056465,40.5083367 57.4968959,38.315212 C58.4801574,33.925982 59.435195,29.5288032 60.5234701,25.1631712 C61.0752357,22.9501746 61.6081853,20.7337004 62.1248617,18.512755 C62.3890481,17.3778149 62.6552686,16.2433715 62.9077586,15.1059474 C62.9992957,14.6931064 63.7125227,12.8696012 62.8993677,12.7583179 C61.943313,12.6276595 61.2201695,13.5238871 61.0307384,14.3247291 C60.7601953,15.4683632 60.4835497,16.6105069 60.2234316,17.7563766 C59.2155059,22.1970255 58.2752159,26.6540687 57.2177076,31.0835395 C57.1264247,31.4648337 57.0453126,32.3347309 56.5980519,32.517305 C56.1947799,32.6822427 55.588092,32.2659241 55.2560156,32.0967636 C53.8389696,31.3741677 52.218762,31.0132423 50.649917,31.4757633 C48.8110373,32.0177724 47.6258855,33.6629263 46.6708479,35.1928226 C46.1292531,36.0604842 45.6621593,36.9701254 45.2337146,37.8956643 C44.9046894,38.6068338 44.6702526,39.3738933 43.9555,39.8080967 C42.2351101,40.8538612 39.7069048,40.8968344 37.7553836,40.763692 C37.1156407,40.7199735 32.2387447,40.0532676 32.6201495,38.9685043 C33.4190654,36.6966369 35.6309589,35.491648 37.9443061,36.5903217 C38.9672338,37.0761923 39.6992767,37.9339179 40.1887462,38.9205631 C40.4183519,39.3835809 40.5302307,39.9732828 41.1379356,40.0885405 C41.4405168,40.1456725 42.3162222,39.8428727 42.3726701,39.494119 C42.659995,37.716071 41.8575193,35.2494578 40.0824614,34.2638062 C38.6158329,33.4495506 36.7914466,33.2766641 35.1801385,33.7468856 C33.1986134,34.3249126 32.0297348,35.7693593 31.0998699,37.4917657 C29.1173278,41.164113 27.8658115,45.4445437 27.4266875,49.5692276 C27.2237801,51.4737113 27.046554,53.8548748 27.9334473,55.626216 C28.6774409,57.1123939 30.1321188,58.4082972 31.782076,58.8469718 C33.2568412,59.2391956 35.103349,58.9110591 36.4354688,58.2155388 C38.0020254,57.3975572 38.8139091,55.9983193 39.4701796,54.4465638 C40.3082531,52.4645793 40.9993586,50.3934192 41.4845055,48.301145 C41.7451321,47.1768861 41.9249009,46.0364812 42.0942446,44.8963247 C42.1723054,44.3689712 42.2483321,43.8413694 42.3289357,43.3145127 C42.4016569,42.8383297 42.2035806,42.6743856 42.0011818,42.2660159 C41.6980921,42.4756656 41.2724444,42.3549431 40.9754572,42.577758 C40.5658284,42.8852773 40.5810846,43.8455922 40.4941243,44.3024 C40.2258696,45.7140578 39.9619375,47.1269577 39.6400319,48.5281827 C39.2390483,50.2741871 38.6730436,51.9657919 37.4990796,53.3734753 C36.4334346,54.6509971 34.6136252,56.1597794 32.8187342,55.4371835 C31.1764052,54.7761908 30.0260883,52.9472207 29.5790819,51.3383332 C29.0537603,49.4480083 29.273958,47.490367 29.808179,45.6283598 C30.1239822,44.5286925 30.5269999,43.4588332 30.9752777,42.4046231 C31.2491264,41.7605216 31.5506904,40.7199735 32.4622479,41.0995289 C34.440976,41.9234721 36.6149833,41.9560125 38.7297458,42.0243225 C39.882351,42.0615826 41.0197001,41.8149213 42.1402674,41.5834123 C42.4769207,41.5138603 43.7154692,41.0471165 43.815143,41.6549516 C43.9654165,42.5698092 43.6290175,43.7253665 43.5191729,44.6412177 C43.3922922,45.7008926 43.2613433,46.7600707 43.1347169,47.8197456 C43.4352639,49.7227389 43.4159393,51.8443242 44.5441347,53.506121 C45.3733088,54.7277528 46.7326355,55.4801567 48.2267252,55.576536 C49.853798,55.6813608 51.5640171,55.0819713 52.7534916,53.994724 C53.3698417,53.4313526 53.8478691,52.7410487 54.2185945,52.0037971 C54.5857602,51.273004 54.7790053,50.5700317 55.2918676,49.9271722 C56.1134135,51.0129291 56.5494864,52.1729576 57.9027106,52.7735891 C59.5185956,53.4904718 61.1060023,52.9608828 62.2901371,51.7611102 C62.6878151,51.3579568 63.4915622,50.0203222 64.1651231,50.1358283 C64.5821256,50.2073675 64.9823464,50.5685413 65.3680738,50.7384469 C65.7888904,50.923505 66.2318285,51.0596283 66.6862088,51.1378743 C68.426686,51.4376933 70.3721047,50.9118302 71.8189002,49.9467958 C73.3132442,48.9502145 74.2169193,47.4372094 74.7908064,45.7920555 C75.4936083,43.7767853 75.9731613,41.6693588 76.504331,39.6061474 C77.0637247,37.4346336 77.6091336,35.2593938 78.1504741,33.0834089 C78.4337307,31.9454879 78.7136819,30.8070702 78.9900732,29.6676589 C79.2145935,28.7421201 79.3145216,27.6359944 79.7452547,26.7785172 C80.1625116,25.9478672 81.0761032,25.6902763 81.8790874,25.3350641 C82.7659807,24.9425919 83.5226878,24.5985578 84.2267611,23.9487431 C83.9691857,23.7932446 83.5170939,23.371958 83.1946797,23.4139376 C82.9157456,23.4504524 82.6289292,23.5436025 82.3543178,23.6039637 C81.9424006,23.694133 80.9423572,24.0240083 80.801746,23.3528312 C80.6540152,22.6468781 81.0651696,21.7566121 81.2421414,21.0802186 C81.4524226,20.2766442 81.662958,19.4733182 81.8760362,18.6704891 C82.2790539,17.1522676 82.6238438,15.5903276 83.1707783,14.1140858 C83.6099024,12.9289688 84.3012621,11.5043942 85.3826719,10.7492578 C86.6959757,9.83241301 88.8628635,10.4213697 89.2620672,12.0116272 C89.3930162,12.5322738 89.0789929,13.6699464 89.6722045,13.9409509 C90.4225548,14.2834946 90.9191439,13.8242028 91.0312769,13.1460705 C91.298006,11.5319666 91.2191823,9.73975976 89.748994,8.67238448 L89.748994,8.67238448 Z M54.467779,43.6759349 C54.0510307,45.3744949 53.7420928,47.2022229 53.0204749,48.8078813 C52.4992217,49.968655 51.5314706,51.3452884 50.2522389,51.790173 C49.149979,52.1734544 47.860068,51.8115354 46.9436794,51.1597335 C45.7521709,50.3121923 45.484679,49.0075949 45.3445763,47.6406491 C45.1531111,45.7744191 45.4002614,43.9017306 45.6825009,42.0571114 C46.1455263,39.0311012 47.1593003,35.9650986 50.2672408,34.660998 C51.5207913,34.1346381 52.9881826,34.2464182 54.077729,35.0760746 C54.5946596,35.4695403 54.9943719,35.998881 55.2379624,36.5925573 C55.3559436,36.880453 55.43731,37.1822591 55.4830786,37.4892817 C55.5257959,37.7776742 55.6969195,37.9999923 55.6969195,38.4722009 L54.467779,43.6759349 L54.467779,43.6759349 Z M104.585132,25.1733556 C104.538092,23.3871104 103.874702,21.5223708 102.017006,20.8325636 C100.551649,20.2885674 98.5391032,20.8020104 97.1795222,21.4351823 C93.9289363,22.9489326 91.9995365,26.4439222 90.9412654,29.6537485 C90.3236439,31.5269337 89.989279,33.4803522 89.8657038,35.4422163 C89.7957796,36.5515712 89.7929827,37.6621681 89.8565501,38.7720199 C89.9163035,39.8160455 89.8918936,40.9678769 90.1092944,41.9915337 C90.2158334,42.4942956 90.3399171,42.7764781 90.0223341,43.2263307 C89.822478,43.5092584 89.5697337,43.7566649 89.2676611,43.9350162 C88.6215614,44.3168072 87.788319,44.3490992 87.0631414,44.2057723 C85.02288,43.8028674 84.8848115,41.5235479 85.0765309,39.8798844 C85.5924445,35.4533943 86.5978275,31.1814092 87.8569719,26.904456 C87.9769873,26.4963346 88.9340591,24.295758 88.2587183,24.13554 C87.7532298,24.0158111 87.0921282,23.9037826 86.6977556,24.3282984 C86.1953183,24.8695623 86.1187831,25.9289888 85.932149,26.6026499 C85.6392302,27.6598408 85.3442771,28.7162865 85.0536467,29.7737257 C83.8646808,34.1023461 82.8913357,38.4215273 82.0687727,42.8286421 C82.0652129,44.0773495 82.1119986,44.1377107 82.1542074,43.8190134 C82.5104395,45.8626011 83.9951212,47.4476422 86.3028745,47.5465055 C87.7995069,47.6105927 89.0350042,46.9722044 90.0551349,45.9371211 C90.750563,45.2314164 91.4513307,43.7817534 92.6560613,44.2211732 C93.3553034,44.4762801 93.9624999,44.9037767 94.6810665,45.124356 C95.3330145,45.3248149 96.0190345,45.4179649 96.7020034,45.3936217 C98.1360854,45.3426997 99.5165165,44.7609466 100.527239,43.7641169 C101.63967,42.6669336 102.430449,41.2644666 102.880253,39.7907087 C103.094348,39.0889784 103.234959,38.3673761 103.317597,37.6400605 C103.364128,37.2302004 103.664675,35.9320614 103.234705,35.6575792 C102.665903,35.2946667 101.59797,36.2492683 101.493719,36.7420941 C101.227244,38.0002407 101.01442,39.2998701 100.206859,40.3538318 C98.8393959,42.1393318 96.3757752,42.4528127 94.4112862,41.4020803 C93.5393948,40.9358332 92.8910067,40.1794549 92.4653589,39.3107997 C91.8215476,37.9970115 91.96699,36.6024933 92.1953243,35.210459 C92.3145769,34.4838887 92.3893322,34.1016009 93.1651096,33.8611496 C93.7979873,33.6646651 94.4656999,33.5506495 95.1090027,33.387699 C96.5545269,33.0213088 97.9975084,32.6457279 99.4450667,32.2877833 C100.483505,32.031186 101.553981,31.8421535 102.5764,31.5294177 C103.060021,31.3816197 103.517453,31.1590532 103.7763,30.7136718 C104.176775,30.0251067 104.203473,29.1144718 104.31942,28.3518835 C104.479356,27.299909 104.613356,26.2389921 104.585132,25.1733556 L104.585132,25.1733556 Z M102.277887,28.6745552 C102.130411,29.2533275 101.946319,29.4376404 101.365058,29.6303989 C100.749217,29.8343354 100.112525,29.9871014 99.4862584,30.1562619 C98.0491251,30.5442629 96.6079235,30.9173599 95.1664677,31.2897116 C94.4773964,31.4675661 92.3178824,32.3317501 92.4768011,30.9342511 C92.6138525,29.7265297 92.9738987,28.5399224 93.6261009,27.4993743 C94.8287973,25.580235 96.8075254,24.2356452 99.1452825,24.1916784 C98.6286062,24.1946592 97.8530831,24.1973916 99.2218178,24.1884492 C99.5444862,24.1879524 99.5391465,24.1886976 99.4000609,24.1899396 C100.297379,24.2068308 101.228261,24.3732589 101.812828,25.1047972 C102.617338,26.1120597 102.577671,27.4983807 102.277887,28.6745552 L102.277887,28.6745552 L102.277887,28.6745552 Z" id="Logo" fill="#EDFEF5"/>
      <text id="Security" font-family="Lato" font-size="20" font-style="italic" font-weight="bold" fill="#D8B83F" style="white-space: pre;">
								<tspan x="70" y="81">Security</tspan>
						</text>
    </g>
  </g>
</svg>