<?xml version="1.0" encoding="utf-8"?>
<svg viewBox="-10.012 -0.2 65 65" xmlns="http://www.w3.org/2000/svg">
  <rect x="-10.05" y="-0.371" width="65.142" height="65.075" style="fill: rgb(36, 65, 107);"/>
  <g id="Page-1" stroke="none" stroke-width="1" fill="none" fill-rule="evenodd">
    <g id="Group" fill="#D8B83F">
      <path d="M41.166,7.163 C41.166,5.544 39.854,4.231 38.234,4.231 L7.098,4.231 C5.479,4.231 4.166,5.544 4.166,7.163 L4.166,57.3 C4.166,58.919 5.479,60.231 7.098,60.231 L38.234,60.231 C39.854,60.231 41.166,58.919 41.166,57.3 L41.166,7.163 L41.166,7.163 Z M45.166,57.3 C45.166,61.128 42.063,64.231 38.234,64.231 L7.098,64.231 C3.27,64.231 0.166,61.128 0.166,57.3 L0.166,7.163 C0.166,3.335 3.27,0.231 7.098,0.231 L38.234,0.231 C42.063,0.231 45.166,3.335 45.166,7.163 L45.166,57.3 L45.166,57.3 Z" id="Fill-152"/>
      <path d="M43.12,51.231 L2.12,51.231 C1.567,51.231 1.12,50.784 1.12,50.231 C1.12,49.679 1.567,49.231 2.12,49.231 L43.12,49.231 C43.672,49.231 44.12,49.679 44.12,50.231 C44.12,50.784 43.672,51.231 43.12,51.231" id="Fill-153"/>
      <path d="M43.12,11.231 L2.12,11.231 C1.567,11.231 1.12,10.784 1.12,10.231 C1.12,9.679 1.567,9.231 2.12,9.231 L43.12,9.231 C43.672,9.231 44.12,9.679 44.12,10.231 C44.12,10.784 43.672,11.231 43.12,11.231" id="Fill-154"/>
      <path d="M25.166,55.481 C25.166,56.448 24.382,57.231 23.416,57.231 L22.916,57.231 C21.95,57.231 21.166,56.448 21.166,55.481 L21.166,54.981 C21.166,54.015 21.95,53.231 22.916,53.231 L23.416,53.231 C24.382,53.231 25.166,54.015 25.166,54.981 L25.166,55.481" id="Fill-155"/>
      <path d="M27.186,28.999 C27.076,28.999 26.964,28.981 26.854,28.942 C26.333,28.76 26.06,28.188 26.242,27.667 L26.514,26.894 C26.697,26.374 27.266,26.097 27.789,26.283 C28.31,26.466 28.584,27.037 28.4,27.559 L28.129,28.331 C27.984,28.742 27.599,28.999 27.186,28.999" id="Fill-156"/>
      <path d="M23.373,39.857 C23.264,39.857 23.151,39.84 23.042,39.801 C22.521,39.618 22.247,39.047 22.43,38.526 L25.266,30.45 C25.448,29.929 26.019,29.651 26.541,29.838 C27.062,30.02 27.336,30.592 27.152,31.112 L24.316,39.188 C24.172,39.601 23.786,39.857 23.373,39.857" id="Fill-157"/>
      <path d="M19.32,32.316 C19.211,32.316 19.099,32.299 18.989,32.26 C18.468,32.077 18.194,31.506 18.377,30.985 L22.523,19.174 C22.705,18.651 23.276,18.376 23.798,18.561 C24.319,18.744 24.593,19.315 24.41,19.836 L20.264,31.647 C20.12,32.06 19.733,32.316 19.32,32.316" id="Fill-158"/>
      <path d="M17.373,37.857 C17.264,37.857 17.151,37.84 17.042,37.801 C16.521,37.618 16.247,37.047 16.43,36.525 L17.04,34.79 C17.223,34.269 17.792,33.994 18.314,34.179 C18.836,34.361 19.109,34.933 18.927,35.454 L18.316,37.189 C18.172,37.601 17.786,37.857 17.373,37.857" id="Fill-159"/>
    </g>
  </g>
  <rect transform="matrix(1.000057, 0, 0, 1, -61.449558, -1.172094)" x="123.076" y="22.893" width="0.067" height="0.067" style="fill: rgb(216, 216, 216);"/>
</svg>