<svg xmlns="http://www.w3.org/2000/svg" xmlns:xlink="http://www.w3.org/1999/xlink" width="256" height="256" viewBox="0 0 256 256">
  <defs>
    <linearGradient id="github-release-downloader-a" x1="50%" x2="50%" y1="0%" y2="100%">
      <stop offset="0%" stop-color="#444"/>
      <stop offset="100%"/>
    </linearGradient>
    <linearGradient id="github-release-downloader-b" x1="50%" x2="50%" y1="-34.369%" y2="133.977%">
      <stop offset="0%" stop-color="#FFF"/>
      <stop offset="100%" stop-color="#333"/>
    </linearGradient>
    <linearGradient id="github-release-downloader-c" x1="62.096%" x2="34.189%" y1="109.68%" y2="21.847%">
      <stop offset="0%" stop-color="#FFC500"/>
      <stop offset="42.281%" stop-color="#FF7C00"/>
      <stop offset="100%" stop-color="#F40" stop-opacity=".565"/>
    </linearGradient>
    <path id="github-release-downloader-d" d="M176.416667,116.4125 L163,102.9375 L138.083333,127.9625 L138.083333,50 L118.916667,50 L118.916667,127 L94.9583333,102.9375 L81.5416667,116.4125 L129.458333,164.5375 L176.416667,116.4125 Z M71,184.75 L186,184.75 L186,204 L71,204 L71,184.75 Z"/>
  </defs>
  <g fill="none" fill-rule="evenodd">
    <rect width="256" height="256" fill="url(#github-release-downloader-a)"/>
    <path fill="url(#github-release-downloader-b)" d="M128.025963,50 C84.939062,50 50,84.9313096 50,128.024671 C50,162.498586 72.3568134,191.746047 103.358916,202.063284 C107.258405,202.785556 108.690027,200.370663 108.690027,198.3098 C108.690027,196.449209 108.61767,190.302797 108.584076,183.782975 C86.877178,188.502933 82.296764,174.576924 82.296764,174.576924 C78.7474277,165.558225 73.6333857,163.160129 73.6333857,163.160129 C66.5540943,158.317423 74.1670137,158.416913 74.1670137,158.416913 C82.0021704,158.966046 86.1277731,166.45751 86.1277731,166.45751 C93.0869014,178.385968 104.380949,174.937414 108.833447,172.943738 C109.533753,167.902053 111.555854,164.457375 113.787272,162.510214 C96.456639,160.537212 78.2383492,153.846836 78.2383492,123.94946 C78.2383492,115.430794 81.2863595,108.470374 86.2776541,103.006179 C85.4675216,101.039637 82.7967979,93.1049905 87.0335193,82.3574916 C87.0335193,82.3574916 93.5856433,80.2604502 108.496215,90.35545 C114.720152,88.6266506 121.395023,87.7596668 128.025963,87.729949 C134.656904,87.7596668 141.336944,88.6266506 147.572509,90.35545 C162.464992,80.2604502 169.008071,82.3574916 169.008071,82.3574916 C173.255129,93.1049905 170.583113,101.039637 169.772981,103.006179 C174.775904,108.470374 177.803241,115.430794 177.803241,123.94946 C177.803241,153.9179 159.550065,160.516539 142.175502,162.448195 C144.974141,164.869547 147.46785,169.617931 147.46785,176.897495 C147.46785,187.336187 147.377405,195.738566 147.377405,198.3098 C147.377405,200.386168 148.781893,202.81915 152.736942,202.052948 C183.722247,191.724082 206.050635,162.486957 206.050635,128.024671 C206.050635,84.9313096 171.116741,50 128.025963,50"/>
    <use fill="url(#github-release-downloader-c)" fill-rule="nonzero" xlink:href="#github-release-downloader-d"/>
  </g>
</svg>
