<svg width="52" height="52" viewBox="0 0 52 52" fill="none" xmlns="http://www.w3.org/2000/svg">
<rect width="52" height="52" fill="url(#paint0_linear_230_32736)"/>
<path d="M43.0427 13.6726C41.9958 12.6256 40.5832 12.0262 39.1028 12.0008C37.6225 11.9755 36.1901 12.5261 35.108 13.5366C35.0537 13.5881 35.0105 13.6502 34.981 13.719C34.9515 13.7878 34.9363 13.8619 34.9363 13.9367C34.9363 14.0115 34.9515 14.0856 34.981 14.1544C35.0105 14.2232 35.0537 14.2853 35.108 14.3368L35.7962 15.0411C35.8892 15.1336 36.0125 15.1894 36.1433 15.1982C36.2742 15.207 36.4039 15.1683 36.5084 15.0891C37.1684 14.5619 38.0067 14.3103 38.8479 14.3869C39.6892 14.4634 40.4682 14.8623 41.0222 15.4999C41.5761 16.1376 41.8621 16.9648 41.8203 17.8085C41.7785 18.6521 41.4122 19.447 40.7979 20.0268C36.2644 24.5563 30.2143 11.856 16.4816 18.4022C16.2498 18.5136 16.0436 18.6717 15.876 18.8667C15.7085 19.0618 15.5831 19.2894 15.5079 19.5353C15.4327 19.7812 15.4093 20.04 15.4391 20.2954C15.469 20.5508 15.5514 20.7972 15.6813 21.0191L18.0381 25.0885C18.2821 25.513 18.6839 25.8239 19.1561 25.9535C19.6282 26.0831 20.1324 26.0211 20.559 25.7808L20.615 25.7487L20.571 25.7808L21.6033 25.2046C22.7674 24.4818 23.8677 23.6613 24.8925 22.7517C24.9939 22.6593 25.125 22.606 25.2622 22.6016C25.3993 22.5972 25.5336 22.6419 25.6407 22.7277C25.6987 22.7763 25.7457 22.8366 25.7786 22.9046C25.8116 22.9726 25.8299 23.0469 25.8321 23.1225C25.8344 23.198 25.8206 23.2732 25.7918 23.3431C25.7629 23.413 25.7196 23.476 25.6647 23.528C24.5862 24.4995 23.4239 25.3739 22.1915 26.1409H22.1555L21.1112 26.7251C20.6701 26.9728 20.1725 27.1023 19.6667 27.1012C19.1428 27.1031 18.6276 26.9669 18.1731 26.7062C17.7186 26.4456 17.3408 26.0698 17.0778 25.6167L14.849 21.7714C10.5876 24.8044 7.97067 30.6304 9.38715 38.0089C9.41041 38.1333 9.47626 38.2457 9.57338 38.3267C9.6705 38.4078 9.79283 38.4525 9.91934 38.4531H12.4322C12.5706 38.4567 12.7052 38.4074 12.8086 38.3152C12.9119 38.223 12.9762 38.0949 12.9884 37.9569C13.1065 37.0631 13.5453 36.2427 14.2233 35.6484C14.9012 35.0541 15.7721 34.7264 16.6736 34.7264C17.5752 34.7264 18.4461 35.0541 19.124 35.6484C19.802 36.2427 20.2408 37.0631 20.3589 37.9569C20.3746 38.0881 20.4378 38.2091 20.5366 38.2968C20.6354 38.3846 20.7629 38.433 20.8951 38.4331H23.3519C23.4838 38.4322 23.6109 38.3834 23.7095 38.2958C23.8082 38.2082 23.8716 38.0878 23.8881 37.9569C24.0062 37.0631 24.4451 36.2427 25.123 35.6484C25.801 35.0541 26.6718 34.7264 27.5734 34.7264C28.4749 34.7264 29.3458 35.0541 30.0237 35.6484C30.7017 36.2427 31.1406 37.0631 31.2586 37.9569C31.2751 38.0878 31.3386 38.2082 31.4372 38.2958C31.5358 38.3834 31.6629 38.4322 31.7948 38.4331H34.2357C34.3786 38.4331 34.5158 38.3769 34.6177 38.2765C34.7195 38.1762 34.7777 38.0398 34.7798 37.8969C34.8359 34.4557 35.7642 30.5024 38.4091 28.5217C47.5722 21.6673 45.1634 15.7933 43.0427 13.6726ZM33.6995 24.0242L31.9509 23.1479C31.9507 22.9606 31.9985 22.7765 32.0897 22.613C32.1808 22.4494 32.3124 22.312 32.4717 22.2137C32.6311 22.1154 32.8129 22.0596 33 22.0515C33.187 22.0435 33.373 22.0834 33.5403 22.1676C33.7075 22.2518 33.8504 22.3774 33.9553 22.5325C34.0602 22.6875 34.1237 22.8669 34.1396 23.0534C34.1556 23.2399 34.1235 23.4275 34.0465 23.5981C33.9694 23.7687 33.85 23.9168 33.6995 24.0282V24.0242Z" fill="white"/>
<rect width="52" height="52" fill="url(#paint1_linear_230_32736)"/>
<path fill-rule="evenodd" clip-rule="evenodd" d="M30.6357 39.8298L44.9612 26L48 28.9787L30.6357 46L20 35.3617L23.0388 32.383L30.6357 39.8298Z" fill="white"/>
<defs>
<linearGradient id="paint0_linear_230_32736" x1="52" y1="52" x2="1.5" y2="1.32162e-06" gradientUnits="userSpaceOnUse">
<stop stop-color="#51CBBF"/>
<stop offset="1" stop-color="#06A0CE"/>
</linearGradient>
<linearGradient id="paint1_linear_230_32736" x1="58.5" y1="76" x2="-16.5" y2="-29.5" gradientUnits="userSpaceOnUse">
<stop/>
<stop offset="1" stop-color="#D9D9D9" stop-opacity="0"/>
</linearGradient>
</defs>
</svg>
