<svg width="52" height="52" viewBox="0 0 52 52" fill="none" xmlns="http://www.w3.org/2000/svg">
<rect width="52" height="52" fill="url(#paint0_linear_1651_102723)"/>
<path d="M42.0427 8.67261C40.9958 7.62563 39.5832 7.02622 38.1028 7.00084C36.6225 6.97546 35.1901 7.52609 34.108 8.53656C34.0537 8.58814 34.0105 8.65021 33.981 8.719C33.9515 8.78778 33.9363 8.86185 33.9363 8.9367C33.9363 9.01155 33.9515 9.08561 33.981 9.1544C34.0105 9.22319 34.0537 9.28526 34.108 9.33684L34.7962 10.0411C34.8892 10.1336 35.0125 10.1894 35.1433 10.1982C35.2742 10.207 35.4039 10.1683 35.5084 10.0891C36.1684 9.5619 37.0067 9.31029 37.8479 9.38686C38.6892 9.46343 39.4682 9.86225 40.0222 10.4999C40.5761 11.1376 40.8621 11.9648 40.8203 12.8085C40.7785 13.6521 40.4122 14.447 39.7979 15.0268C35.2644 19.5563 29.2143 6.85599 15.4816 13.4022C15.2498 13.5136 15.0436 13.6717 14.876 13.8667C14.7085 14.0618 14.5831 14.2894 14.5079 14.5353C14.4327 14.7812 14.4093 15.04 14.4391 15.2954C14.469 15.5508 14.5514 15.7972 14.6813 16.0191L17.0381 20.0885C17.2821 20.513 17.6839 20.8239 18.1561 20.9535C18.6282 21.0831 19.1324 21.0211 19.559 20.7808L19.615 20.7487L19.571 20.7808L20.6033 20.2046C21.7674 19.4818 22.8677 18.6613 23.8925 17.7517C23.9939 17.6593 24.125 17.606 24.2622 17.6016C24.3993 17.5972 24.5336 17.6419 24.6407 17.7277C24.6987 17.7763 24.7457 17.8366 24.7786 17.9046C24.8116 17.9726 24.8299 18.0469 24.8321 18.1225C24.8344 18.198 24.8206 18.2732 24.7918 18.3431C24.7629 18.413 24.7196 18.476 24.6647 18.528C23.5862 19.4995 22.4239 20.3739 21.1915 21.1409H21.1555L20.1112 21.7251C19.6701 21.9728 19.1725 22.1023 18.6667 22.1012C18.1428 22.1031 17.6276 21.9669 17.1731 21.7062C16.7186 21.4456 16.3408 21.0698 16.0778 20.6167L13.849 16.7714C9.58757 19.8044 6.97067 25.6304 8.38715 33.0089C8.41041 33.1333 8.47626 33.2457 8.57338 33.3267C8.6705 33.4078 8.79283 33.4525 8.91934 33.4531H11.4322C11.5706 33.4567 11.7052 33.4074 11.8086 33.3152C11.9119 33.223 11.9762 33.0949 11.9884 32.9569C12.1064 32.0631 12.5453 31.2427 13.2233 30.6484C13.9012 30.0541 14.7721 29.7264 15.6736 29.7264C16.5752 29.7264 17.4461 30.0541 18.124 30.6484C18.802 31.2427 19.2408 32.0631 19.3589 32.9569C19.3746 33.0881 19.4378 33.2091 19.5366 33.2968C19.6354 33.3846 19.7629 33.433 19.8951 33.4331H22.3519C22.4838 33.4322 22.6109 33.3834 22.7095 33.2958C22.8082 33.2082 22.8716 33.0878 22.8881 32.9569C23.0062 32.0631 23.4451 31.2427 24.123 30.6484C24.801 30.0541 25.6718 29.7264 26.5734 29.7264C27.4749 29.7264 28.3458 30.0541 29.0237 30.6484C29.7017 31.2427 30.1406 32.0631 30.2586 32.9569C30.2751 33.0878 30.3386 33.2082 30.4372 33.2958C30.5358 33.3834 30.6629 33.4322 30.7948 33.4331H33.2357C33.3786 33.4331 33.5158 33.3769 33.6177 33.2765C33.7195 33.1762 33.7777 33.0398 33.7798 32.8969C33.8359 29.4557 34.7642 25.5024 37.4091 23.5217C46.5722 16.6673 44.1634 10.7933 42.0427 8.67261ZM32.6995 19.0242L30.9509 18.1479C30.9507 17.9606 30.9985 17.7765 31.0897 17.613C31.1808 17.4494 31.3124 17.312 31.4717 17.2137C31.6311 17.1154 31.8129 17.0596 32 17.0515C32.187 17.0435 32.373 17.0834 32.5403 17.1676C32.7075 17.2518 32.8504 17.3774 32.9553 17.5325C33.0602 17.6875 33.1237 17.8669 33.1396 18.0534C33.1556 18.2399 33.1235 18.4275 33.0465 18.5981C32.9694 18.7687 32.85 18.9168 32.6995 19.0282V19.0242Z" fill="white"/>
<path fill-rule="evenodd" clip-rule="evenodd" d="M35.9767 44.3723L46.7209 34L49 36.234L35.9767 49L28 41.0213L30.2791 38.7872L35.9767 44.3723Z" fill="white"/>
<defs>
<linearGradient id="paint0_linear_1651_102723" x1="26" y1="0" x2="59" y2="65" gradientUnits="userSpaceOnUse">
<stop stop-color="#1EA4CD"/>
<stop offset="0.883543" stop-color="#50CAC0"/>
</linearGradient>
</defs>
</svg>
