<?xml version="1.0" encoding="UTF-8"?>
<svg width="256px" height="256px" viewBox="0 0 256 256" version="1.1" xmlns="http://www.w3.org/2000/svg" xmlns:xlink="http://www.w3.org/1999/xlink">
    <!-- Generator: Sketch 50.2 (55047) - http://www.bohemiancoding.com/sketch -->
    <title>change-android-versioncode-and-versionname-stepicon</title>
    <desc>Created with Sketch.</desc>
    <defs>
        <linearGradient x1="50%" y1="0%" x2="50%" y2="100%" id="linearGradient-1">
            <stop stop-color="#53A906" offset="0%"></stop>
            <stop stop-color="#A4C639" offset="100%"></stop>
        </linearGradient>
        <linearGradient x1="50%" y1="33.1830019%" x2="50%" y2="132.410038%" id="linearGradient-2">
            <stop stop-color="#FFFFFF" offset="0%"></stop>
            <stop stop-color="#92C02E" offset="100%"></stop>
        </linearGradient>
        <linearGradient x1="-26.5355634%" y1="-146.465871%" x2="122.496686%" y2="149.69957%" id="linearGradient-3">
            <stop stop-color="#0DD3C5" offset="0%"></stop>
            <stop stop-color="#0DC0C7" offset="8.75127635%"></stop>
            <stop stop-color="#0D83CD" offset="100%"></stop>
        </linearGradient>
    </defs>
    <g id="New-Icons" stroke="none" stroke-width="1" fill="none" fill-rule="evenodd">
        <g id="Change-Android-Versioncode-And-Versionname">
            <g id="change-android-versioncode-and-versionname-stepicon">
                <rect id="Rectangle" fill="url(#linearGradient-1)" x="0" y="0" width="256" height="256"></rect>
                <path d="M197.992525,102.178714 C197.991645,96.5558169 193.516028,91.9986599 187.994723,92.0000033 C182.473858,91.9955254 177.998681,96.5607425 178,102.184087 L178.007036,144.820394 C178.006596,150.449112 182.480014,154.998209 188.004837,155 C193.525703,154.999104 197.998681,150.449112 198,144.815916 L197.992525,102.178714 Z M82,94.0152671 L82.0158385,160.272023 C82.0108607,166.298916 86.9235128,171.163268 92.994186,171.164615 L100.469508,171.167758 L100.478106,193.789486 C100.476749,199.420783 105.090732,204 110.75956,204 C116.445131,204 121.050969,199.417191 121.052326,193.782302 L121.046896,171.165064 L134.937718,171.16237 L134.943601,193.7832 C134.942244,199.411802 139.558942,203.998204 145.228675,203.989223 C150.913793,203.992816 155.522346,199.410006 155.521441,193.774219 L155.515106,171.159675 L163.016675,171.153838 C169.072414,171.156083 173.998642,166.284547 174,160.257654 L173.988687,94 L82,94.0152671 Z M149.003724,73.9999977 C146.796268,74.0023248 144.999534,72.2156012 145,70.0044203 C145.007459,67.8146484 146.793937,66.0074466 149.005589,66 C151.200924,66.0060504 153.001854,67.8127867 152.999989,70.0067474 C153.005117,72.2132742 151.210248,74.0004631 149.003724,73.9999977 Z M106.989512,74 C104.791295,73.9948769 103.000466,72.2092336 103,70.0034938 C103.000932,67.8061372 104.787566,65.9995357 106.993241,66.0000014 C109.20684,65.9981385 110.997203,67.8061372 111,70.0025623 C111.000932,72.2064392 109.206374,73.9986028 106.989512,74 Z M150.560576,54.1472365 L157.688845,41.1043483 C158.069313,40.4229732 157.82001,39.5548275 157.130047,39.170035 C156.435143,38.8009944 155.575834,39.051672 155.208393,39.7379977 L148.008252,52.9168008 C141.948168,50.216053 135.169372,48.6998358 127.995285,48.7079367 C120.840064,48.7020861 114.063065,50.2115525 108.029484,52.8969986 L100.821707,39.7528493 C100.44618,39.0593228 99.5841759,38.8086452 98.9036461,39.1862368 C98.2096404,39.5602281 97.9562947,40.4297239 98.3408053,41.1097489 L105.472668,54.142736 C91.4600424,61.3835844 81.992817,75.1708546 82,91 L173.999999,90.990549 C174.002695,75.1636538 164.552539,61.4051868 150.560576,54.1472365 Z M67.9960429,92.0000021 C62.4754661,91.9973154 58.001319,96.5633958 58,102.180879 L58.0074745,144.815988 C58.0087935,150.452727 62.4846993,155.000896 68.0057158,155 C73.5298101,155.000448 78.0048364,150.449592 77.9991206,144.816436 L78,102.175058 C77.9978016,96.5589179 73.5170594,91.9964198 67.9960429,92.0000021 Z" id="Fill-10" fill="url(#linearGradient-2)"></path>
                <path d="M61.6,72 L81.6,72 L81.6,184 L57.6,184 L57.6,102.4 L38.4,102.4 L38.4,87.2 C56.8,84.8 61.6,72 61.6,72 Z M93.3400003,173.6 C93.3400003,167.2 98.9400003,161.6 106.14,161.6 C113.34,161.6 118.94,167.2 118.94,173.6 C118.94,180 113.34,185.6 106.14,185.6 C98.9400003,185.6 93.3400003,180 93.3400003,173.6 Z M149.080001,128 C149.080001,152.8 161.080001,164.8 173.080001,164.8 C185.080001,164.8 197.080001,152.8 197.080001,128 C197.080001,103.2 185.080001,91.2 173.080001,91.2 C161.080001,91.2 149.080001,103.2 149.080001,128 Z M221.080001,128 C221.080001,164 198.680001,186.4 173.080001,186.4 C147.480001,186.4 125.080001,164 125.080001,128 C125.080001,92 147.480001,69.6 173.080001,69.6 C198.680001,69.6 221.080001,92 221.080001,128 Z" id="1.0" fill="url(#linearGradient-3)" style="mix-blend-mode: multiply;"></path>
            </g>
        </g>
    </g>
</svg>