<?xml version="1.0" encoding="utf-8"?>
<!-- Generator: Adobe Illustrator 19.1.0, SVG Export Plug-In . SVG Version: 6.00 Build 0)  -->
<svg version="1.1" id="Layer_1" xmlns="http://www.w3.org/2000/svg" xmlns:xlink="http://www.w3.org/1999/xlink" x="0px" y="0px"
	 viewBox="0 0 256 256" enable-background="new 0 0 256 256" xml:space="preserve">
<g>
	<rect fill="#3498DB" width="256" height="256"/>
</g>
<g>
	<path fill="#FFFFFF" d="M202.9,122.1l-32.4-56.2c-2.1-3.6-6.2-5.8-10.2-5.8H95.7c-4.2,0-8.3,2.2-10.2,5.8l-32.4,56.3
		c-2.1,3.6-2.1,8.2,0,11.8l32.4,56.2c2.1,3.6,6.2,5.8,10.2,5.8h64.7c4.2,0,8.3-2.2,10.2-5.8l32.4-56.3
		C205,130.2,205,125.7,202.9,122.1z"/>
</g>
<g>
	<g>
		<path fill="#3498DB" d="M148.7,154h-8c0,0-1.7-13.3-2-17.6c-0.7-11.4,8.3-23.1,18.3-23.1c10,0,19,11,18.3,22.4
			c-0.1,2.4-0.8,7.9-1.3,12.2c-0.4,3.4-3.3,6-6.7,6h-3.6H148.7z"/>
	</g>
	<g>
		<path fill="#3498DB" d="M167.1,103.8c1.2,7.1-4.9,13.2-12,12c-4.3-0.7-7.8-4.2-8.5-8.5c-1.2-7.1,4.9-13.2,12-12
			C162.9,96,166.4,99.5,167.1,103.8z"/>
	</g>
</g>
<g>
	<g>
		<path fill="#3498DB" d="M90.7,154h-2c-3.4,0-6.3-2.6-6.7-6c-0.5-4.1-1.1-9.2-1.2-11.6C80.1,125,89,113.3,99,113.3
			c10,0,19,11,18.3,22.4c-0.2,4.3-2,18.2-2,18.2h-9.6H90.7z"/>
	</g>
	<g>
		<path fill="#3498DB" d="M109.1,103.8c1.2,7.1-4.9,13.2-12,12c-4.3-0.7-7.8-4.2-8.5-8.5c-1.2-7.1,4.9-13.2,12-12
			C104.9,96,108.4,99.5,109.1,103.8z"/>
	</g>
</g>
<g>
	<g>
		<path fill="#FFFFFF" d="M136,145v19h11.6c0,0,2.1-16.8,2.4-21.9c0.8-13.7-10-26.9-21.9-26.9c-12,0-22.7,14-21.9,27.7
			c0.3,5.2,2.4,21.1,2.4,21.1h9.6v-19"/>
		<path fill="#3498DB" d="M147.6,165h-11.1c-0.8,0-1.5-0.7-1.5-1.5V145c0-0.8,0.7-1.5,1.5-1.5s1.5,0.7,1.5,1.5v17h8.2
			c0.5-4,2-16,2.2-20.2c0.4-6.7-2.2-13.8-7-18.8c-3.9-4.1-8.7-6.4-13.5-6.4c-4.6,0-9.3,2.2-13.1,6.3c-5,5.3-7.7,12.6-7.3,19.6
			c0.2,4.2,1.7,15.6,2.2,19.5h7.3v-17c0-0.8,0.7-1.5,1.5-1.5s1.5,0.7,1.5,1.5v18.5c0,0.8-0.7,1.5-1.5,1.5h-10.1
			c-0.8,0-1.4-0.6-1.5-1.3c-0.1-0.6-2.1-15.9-2.4-21c-0.4-7.8,2.6-15.9,8.2-21.8c4.4-4.7,9.9-7.3,15.3-7.3c5.6,0,11.2,2.6,15.6,7.3
			c5.3,5.6,8.2,13.5,7.8,21c-0.3,5.1-2.3,21-2.4,21.7C149,164.4,148.3,165,147.6,165z"/>
	</g>
	<g>
		<path fill="#FFFFFF" d="M140.3,105.9c0,6.9-5.6,12.5-12.5,12.5c-6.9,0-12.5-5.6-12.5-12.5c0-6.9,5.6-12.5,12.5-12.5
			C134.7,93.4,140.3,99,140.3,105.9z"/>
		<path fill="#3498DB" d="M127.8,119.9c-7.7,0-14-6.3-14-14c0-7.7,6.3-14,14-14c7.7,0,14,6.3,14,14
			C141.8,113.6,135.5,119.9,127.8,119.9z M127.8,94.9c-6.1,0-11,4.9-11,11c0,6.1,4.9,11,11,11c6.1,0,11-4.9,11-11
			C138.8,99.8,133.9,94.9,127.8,94.9z"/>
	</g>
	<g>
		<path fill="#3498DB" d="M136,161h-17c-0.8,0-1.5-0.7-1.5-1.5s0.7-1.5,1.5-1.5h17c0.8,0,1.5,0.7,1.5,1.5S136.8,161,136,161z"/>
	</g>
</g>
</svg>
