<svg xmlns="http://www.w3.org/2000/svg" xmlns:xlink="http://www.w3.org/1999/xlink" width="256pt" height="256pt" viewBox="0 0 256 256">
<g id="surface1">
<rect x="0" y="0" width="256" height="256" style="fill:rgb(95.294118%,95.294118%,95.294118%);fill-opacity:1;stroke:none;"/>
<path style=" stroke:none;fill-rule:evenodd;fill:rgb(14.117647%,14.117647%,14.117647%);fill-opacity:1;" d="M 120.667969 57.601562 C 85.230469 61.277344 57.601562 91.308594 57.601562 127.8125 C 57.601562 166.796875 89.121094 198.398438 128 198.398438 C 166.878906 198.398438 198.398438 166.796875 198.398438 127.8125 C 198.398438 91.308594 170.769531 61.277344 135.332031 57.601562 L 135.332031 72.722656 C 162.476562 76.320312 183.421875 99.613281 183.421875 127.8125 C 183.421875 158.5 158.609375 183.382812 128 183.382812 C 97.390625 183.382812 72.578125 158.5 72.578125 127.8125 C 72.578125 99.613281 93.523438 76.320312 120.667969 72.722656 Z M 120.667969 57.601562 "/>
<path style=" stroke:none;fill-rule:evenodd;fill:rgb(14.117647%,14.117647%,14.117647%);fill-opacity:1;" d="M 91.265625 157.214844 C 105.53125 174.933594 130.929688 180.101562 151.21875 168.359375 C 173.664062 155.363281 181.355469 126.582031 168.394531 104.074219 C 155.433594 81.566406 126.730469 73.851562 104.285156 86.847656 C 83.996094 98.59375 75.761719 123.230469 83.929688 144.480469 L 97.285156 136.75 C 93.140625 122.910156 98.832031 107.535156 111.851562 99.996094 C 127.058594 91.191406 146.503906 96.417969 155.285156 111.664062 C 164.0625 126.910156 158.855469 146.410156 143.648438 155.210938 C 130.625 162.75 114.5 160.003906 104.617188 149.484375 Z M 91.265625 157.214844 "/>
<path style=" stroke:none;fill-rule:evenodd;fill:rgb(14.117647%,14.117647%,14.117647%);fill-opacity:1;" d="M 120.167969 104.988281 C 111.058594 108.21875 104.53125 116.933594 104.53125 127.175781 C 104.53125 140.171875 115.039062 150.703125 128 150.703125 C 140.960938 150.703125 151.46875 140.171875 151.46875 127.175781 C 151.46875 116.933594 144.941406 108.21875 135.832031 104.988281 L 135.832031 127.171875 L 135.820312 127.171875 C 135.820312 127.175781 135.820312 127.175781 135.820312 127.175781 C 135.820312 131.507812 132.320312 135.019531 128 135.019531 C 123.679688 135.019531 120.179688 131.507812 120.179688 127.175781 C 120.179688 127.175781 120.179688 127.175781 120.179688 127.171875 L 120.167969 127.171875 Z M 120.167969 104.988281 "/>
</g>
</svg>
