<?xml version="1.0" encoding="UTF-8"?>
<svg width="256px" height="256px" viewBox="0 0 256 256" version="1.1" xmlns="http://www.w3.org/2000/svg" xmlns:xlink="http://www.w3.org/1999/xlink">
    <!-- Generator: Sketch 52.6 (67491) - http://www.bohemiancoding.com/sketch -->
    <title>Icon</title>
    <desc>Created with Sketch.</desc>
    <g id="Page-1" stroke="none" stroke-width="1" fill="none" fill-rule="evenodd">
        <g id="Icon">
            <rect id="Margin" fill="#FFFFFF" x="0" y="0" width="256" height="256"></rect>
            <g id="icon">
                <path d="M64.335135,0.904915423 L191.948344,0.904915423 C227.044832,0.904915423 255.766373,29.5676175 255.766373,64.5922081 L255.766373,191.943991 C255.766373,226.968582 227.044832,255.631284 191.948344,255.631284 L64.335135,255.631284 C29.2386464,255.631284 0.51710592,226.968582 0.51710592,191.943991 L0.51710592,64.5922081 C0.51710592,29.5676175 29.2386464,0.904915423 64.335135,0.904915423 Z" id="Path" fill="#500E82"></path>
                <path d="M64.335135,0.904915423 L191.948344,0.904915423 C227.044832,0.904915423 255.766373,29.5676175 255.766373,64.5922081 L255.766373,191.943991 C255.766373,226.968582 227.044832,255.631284 191.948344,255.631284 L64.335135,255.631284 C29.2386464,255.631284 0.51710592,226.968582 0.51710592,191.943991 L0.51710592,64.5922081 C0.51710592,29.5676175 29.2386464,0.904915423 64.335135,0.904915423 Z" id="Path"></path>
                <path d="M121.481175,57.5690489 L121.481175,45.5977533 L133.591291,45.5977533 L133.591291,69.5403445 L123.583308,69.5403445 C109.00547,70.4524433 95.889985,76.8143318 86.2018918,86.5965905 C84.0769091,88.7400225 82.1118713,91.0658742 80.352477,93.5057382 L118.305125,93.5057382 C121.663969,93.5057382 124.383033,96.2192319 124.383033,99.5483922 C124.383033,102.900355 121.663969,105.613849 118.305125,105.613849 L73.6119405,105.613849 C70.7329317,112.568601 69.1563316,120.230231 69.1563316,128.256699 L69.1563316,134.344958 L45.050345,134.344958 L45.050345,122.191243 L57.2747078,122.191243 C58.7142123,105.043787 66.2087749,89.6293187 77.5648653,78.1368749 C89.0123528,66.5760237 104.389916,58.9828019 121.481175,57.5690489 Z M139.372158,162.984858 C136.036164,162.984858 133.3171,160.294167 133.3171,156.965006 C133.3171,153.635846 136.036164,150.945155 139.372158,150.945155 L181.803264,150.945155 C184.042493,145.495365 185.504847,139.635131 186.05323,133.501267 L186.007531,122.282453 L209.999271,122.191243 L210.04497,134.230946 L198.117648,134.276551 C196.700993,151.355599 189.297827,166.70166 178.055983,178.171301 C166.539948,189.937375 150.956741,197.644609 133.568442,198.967152 L133.63699,210.96125 L121.549722,211.006855 L121.435476,187.064264 L131.7405,187.018659 C146.432584,186.10656 159.639466,179.653462 169.396107,169.711586 C171.452542,167.613759 173.349032,165.379117 175.062728,162.984858 L139.372158,162.984858 Z M99.5458692,122.53328 L155.480898,122.53328 L155.480898,133.980119 L99.5458692,133.980119 L99.5458692,122.53328 Z" id="Shape" fill="#7BE6DE" fill-rule="nonzero"></path>
            </g>
        </g>
    </g>
</svg>