<?xml version="1.0" encoding="UTF-8"?>
<svg width="256px" height="256px" viewBox="0 0 256 256" version="1.1" xmlns="http://www.w3.org/2000/svg" xmlns:xlink="http://www.w3.org/1999/xlink">
    <!-- Generator: Sketch 52.6 (67491) - http://www.bohemiancoding.com/sketch -->
    <title>Icon</title>
    <desc>Created with Sketch.</desc>
    <g id="Page-1" stroke="none" stroke-width="1" fill="none" fill-rule="evenodd">
        <g id="Icon">
            <rect id="Margin" fill="#FFFFFF" x="0" y="0" width="256" height="256"></rect>
            <g id="icon" transform="translate(30.000000, 30.000000)">
                <path d="M49.2565877,0.692825871 L146.960451,0.692825871 C173.8312,0.692825871 195.821129,22.6377071 195.821129,49.4534093 L195.821129,146.957118 C195.821129,173.77282 173.8312,195.717701 146.960451,195.717701 L49.2565877,195.717701 C22.3858386,195.717701 0.39590922,173.77282 0.39590922,146.957118 L0.39590922,49.4534093 C0.39590922,22.6377071 22.3858386,0.692825871 49.2565877,0.692825871 Z" id="Path" fill="#500E82"></path>
                <path d="M49.2565877,0.692825871 L146.960451,0.692825871 C173.8312,0.692825871 195.821129,22.6377071 195.821129,49.4534093 L195.821129,146.957118 C195.821129,173.77282 173.8312,195.717701 146.960451,195.717701 L49.2565877,195.717701 C22.3858386,195.717701 0.39590922,173.77282 0.39590922,146.957118 L0.39590922,49.4534093 C0.39590922,22.6377071 22.3858386,0.692825871 49.2565877,0.692825871 Z" id="Path"></path>
                <path d="M93.0090243,44.0763031 L93.0090243,34.9107799 L102.280832,34.9107799 L102.280832,53.2418263 L94.6184702,53.2418263 C83.4573127,53.9401519 73.4157698,58.8109728 65.9983234,66.3005146 C64.3713835,67.9415797 62.8669015,69.7223099 61.5198652,71.5903308 L90.5773614,71.5903308 C93.1489761,71.5903308 95.2307594,73.6678494 95.2307594,76.2167378 C95.2307594,78.7830843 93.1489761,80.8606029 90.5773614,80.8606029 L56.3591419,80.8606029 C54.1549008,86.1853354 52.9478164,92.0512702 52.9478164,98.1965353 L52.9478164,102.857859 L34.4916704,102.857859 L34.4916704,93.5526702 L43.8509482,93.5526702 C44.9530688,80.4241494 50.6910933,68.6224471 59.3856,59.8235449 C68.1500826,50.9722682 79.9235293,45.1587077 93.0090243,44.0763031 Z M106.706808,124.785282 C104.152688,124.785282 102.070905,122.725221 102.070905,120.176333 C102.070905,117.627445 104.152688,115.567384 106.706808,115.567384 L139.193124,115.567384 C140.907534,111.394889 142.027149,106.908147 142.447004,102.211907 L142.412016,93.6225028 L160.780692,93.5526702 L160.81568,102.770568 L151.683824,102.805484 C150.599197,115.881631 144.931149,127.630958 136.324112,136.412403 C127.507147,145.420803 115.576255,151.321654 102.263338,152.334226 L102.31582,161.517207 L93.0615062,161.552123 L92.9740363,143.221077 L100.86382,143.186161 C112.112447,142.487835 122.223966,137.547182 129.693895,129.935433 C131.268353,128.329284 132.720353,126.618386 134.032401,124.785282 L106.706808,124.785282 Z M76.2148061,93.8145423 L119.040062,93.8145423 L119.040062,102.578528 L76.2148061,102.578528 L76.2148061,93.8145423 Z" id="Shape" fill="#7BE6DE" fill-rule="nonzero"></path>
            </g>
        </g>
    </g>
</svg>