<svg width="256" height="256" viewBox="0 0 256 256" fill="none" xmlns="http://www.w3.org/2000/svg">
<rect width="256" height="256" fill="#314BE9"/>
<path d="M61.816 167.279L86.3615 153.069L110.907 138.858L135.452 124.648L159.998 138.858L184.543 153.069L209.089 167.279L184.543 181.49L159.998 195.7L135.452 209.911L110.907 195.7L86.3615 181.49L61.816 167.279Z" fill="#BEEBFF" stroke="#3454E1" stroke-width="1.7"/>
<path d="M61.8158 138.343L86.3613 124.132L110.907 109.922L135.452 95.7113L159.998 109.922L184.543 124.132L209.089 138.343L184.543 152.554L159.998 166.764L135.452 180.975L110.907 166.764L86.3613 152.554L61.8158 138.343Z" fill="#D7F3FF" stroke="#3454E1" stroke-width="1.7"/>
<path d="M61.8158 81.5006L86.3613 67.2901L110.907 53.0795L135.452 38.869L159.998 53.0795L184.543 67.2901L209.089 81.5006V109.922L184.543 124.132L159.998 138.343L135.452 152.553L110.907 138.343L86.3613 124.132L61.8158 109.922V81.5006Z" fill="white"/>
<path d="M86.3613 67.2901L61.8158 81.5006M86.3613 67.2901L110.907 81.5006M86.3613 67.2901L110.907 53.0795M61.8158 81.5006L86.3613 95.7112M61.8158 81.5006V109.922L86.3613 124.132M86.3613 95.7112L110.907 81.5006M86.3613 95.7112V124.132M86.3613 95.7112L110.907 109.922M110.907 81.5006L135.452 67.2901M110.907 81.5006L135.452 95.7112M110.907 53.0795L135.452 67.2901M110.907 53.0795L135.452 38.869L159.998 53.0795M135.452 67.2901L159.998 81.5006M135.452 67.2901L159.998 53.0795M86.3613 124.132L110.907 138.343M159.998 81.5006L135.452 95.7112M159.998 81.5006L184.543 67.2901M159.998 81.5006L184.543 95.7112M135.452 95.7112L110.907 109.922M135.452 95.7112L159.998 109.922M110.907 109.922L135.452 124.132M110.907 109.922V138.343M184.543 67.2901L159.998 53.0795M184.543 67.2901L209.089 81.5006M135.452 124.132L159.998 109.922M135.452 124.132V152.553M159.998 109.922L184.543 95.7112M159.998 109.922V138.343M184.543 95.7112L209.089 81.5006M184.543 95.7112V124.132M209.089 81.5006V109.922L184.543 124.132M135.452 152.553L110.907 138.343M135.452 152.553L159.998 138.343M159.998 138.343L184.543 124.132" stroke="#3454E1" stroke-width="1.7"/>
<path d="M37.5288 67.0319L62.0743 52.8214L86.6198 67.0319V95.453L62.0743 109.664L37.5288 95.453V67.0319Z" fill="#B4BBFF"/>
<path d="M37.5288 67.0319L62.0743 52.8214L86.6198 67.0319V95.453L62.0743 109.664L37.5288 95.453V67.0319Z" fill="#D9FF6D"/>
<path d="M37.5288 67.0319L62.0743 52.8214L86.6198 67.0319M37.5288 67.0319L62.0743 81.2425M37.5288 67.0319V95.453L62.0743 109.664M62.0743 81.2425L86.6198 67.0319M62.0743 81.2425V109.664M86.6198 67.0319V95.453L62.0743 109.664" stroke="#3454E1" stroke-width="1.7"/>
</svg>
