<svg width="256" height="256" viewBox="0 0 256 256" fill="none" xmlns="http://www.w3.org/2000/svg">
<rect width="256" height="256" fill="#0066FF"/>
<mask id="path-1-inside-1_3635_3" fill="white">
<path d="M63.4907 44.231C64.0626 44.9163 65.1954 46.2742 66.0202 47.2514C66.8451 48.2286 68.9017 50.6779 70.5844 52.7084C72.2671 54.7263 74.4007 57.2771 75.3136 58.3558C76.2264 59.4345 78.3271 61.9473 79.9988 63.9398C81.6595 65.9322 84.354 69.1557 85.9927 71.1101C90.095 75.996 91.1288 77.2651 91.0848 77.3158C91.0298 77.3793 89.0942 78.2803 81.5825 81.7703C78.624 83.1409 74.5657 85.0318 72.5641 85.9583C70.5734 86.8847 66.7571 88.6614 64.0955 89.8924C59.2674 92.1387 58.8165 92.3544 59.0474 92.3671C59.2124 92.3671 60.4662 92.5194 70.9693 93.8265C81.6155 95.1464 85.7288 95.6667 85.8497 95.7048C85.9377 95.7302 83.8591 97.6211 71.7612 108.548L69.0777 110.959L70.3864 111.048C71.6402 111.137 73.8948 111.251 83.8921 111.784C86.4986 111.924 89.2811 112.076 90.084 112.114L91.5357 112.203L90.7549 113.929C90.326 114.881 87.2795 121.607 83.9801 128.891C80.6806 136.176 77.9971 142.153 78.0191 142.178C78.0631 142.216 79.4599 141.607 88.0164 137.749C92.0856 135.909 101.742 131.569 106.383 129.488C108.836 128.384 111.805 127.038 112.982 126.505C114.159 125.972 115.16 125.553 115.215 125.579C115.358 125.668 121.615 135.275 121.593 135.363C121.571 135.414 117.942 138.498 113.51 142.204L105.448 148.968H98.2446V157.978H108.055L109.771 156.544C110.727 155.745 114.852 152.293 118.954 148.854C123.056 145.415 126.433 142.623 126.444 142.648C127.521 144.158 133.317 153.207 133.262 153.283C133.207 153.334 130.59 155.453 127.444 158.004C124.299 160.542 118.085 165.58 113.631 169.184L105.525 175.745H84.7169V184.756H108.088L123.045 172.636C131.272 165.974 138.036 160.517 138.08 160.517C138.223 160.517 144.667 170.453 144.579 170.542C144.535 170.593 136.771 177.078 127.334 184.946C117.898 192.827 109.144 200.15 107.868 201.216L105.558 203.158H71.9592V212.295H108.011L115.204 206.292C119.152 202.993 128.423 195.238 135.803 189.071C143.183 182.903 149.287 177.865 149.364 177.852C149.496 177.839 150.969 180.06 164.838 201.229C168.775 207.231 171.998 212.13 172.02 212.117C172.031 212.092 171.547 206.153 170.942 198.893C170.326 191.647 169.787 185.162 169.732 184.502C169.094 176.837 168.599 170.999 168.511 169.908C168.456 169.172 168.357 168.055 168.302 167.433C168.137 165.682 168.093 165.771 168.885 166.342C175.385 171.037 181.28 175.187 181.28 175.06C181.28 174.971 178.728 162.407 175.616 147.14L169.952 119.373L170.282 118.827C170.755 118.041 171.734 117.063 172.526 116.619C173.471 116.086 174.362 115.845 175.396 115.845C176.463 115.845 177.354 116.099 178.256 116.645C178.629 116.873 183.117 120.921 188.363 125.744C193.554 130.528 197.843 134.45 197.898 134.475C198.041 134.539 198.03 104.753 197.887 102.964C197.271 95.4763 193.73 89.0929 188.121 85.3364C187.714 85.0572 186.372 84.3465 185.14 83.7374L182.908 82.6206L182.204 81.0723C179.366 74.8285 174.802 69.6633 169.303 66.4906C167.169 65.2469 165.883 64.752 162.913 64.0032C161.373 63.6098 154.984 62.0108 148.726 60.4371C142.468 58.8635 131.558 56.1223 124.475 54.3456C117.403 52.5688 107.626 50.1195 102.765 48.9012C97.9036 47.6702 93.9003 46.7057 93.8783 46.7311C93.8453 46.7565 95.1431 49.1423 96.7598 52.0231C98.3655 54.9166 99.6413 57.2898 99.5973 57.3025C99.5423 57.3279 98.5305 56.9598 97.3537 56.503C96.1879 56.0334 93.0425 54.8151 90.3809 53.7872C78.679 49.2439 65.4593 44.1041 64.1285 43.5711C63.3257 43.2538 62.6218 43 62.5668 43C62.5118 43 62.9298 43.5584 63.4907 44.231ZM117.095 61.7823C120.428 62.6199 128.621 64.6758 135.308 66.351C141.995 68.0262 151.002 70.2852 155.325 71.3639C159.647 72.4553 163.54 73.4832 163.958 73.6736C168.698 75.7295 173.042 80.2474 175.341 85.5141C175.605 86.1106 176.056 87.2527 176.342 88.0522C176.716 89.1056 176.936 89.5497 177.123 89.664C177.266 89.7528 178.816 90.5016 180.554 91.3391C184.206 93.0905 185.173 93.7377 186.559 95.286C188.253 97.1896 189.386 99.5755 189.859 102.241C190.056 103.421 190.078 103.979 190.078 109.614V115.718L187.527 113.358C183.887 109.995 182.996 109.246 181.764 108.522C179.63 107.266 177.827 106.771 175.396 106.784C173.603 106.784 172.625 106.961 170.887 107.609C166.873 109.081 163.573 112.812 162.033 117.609L161.725 118.599L165.509 137.178C167.587 147.394 169.281 155.783 169.27 155.834C169.248 155.884 166.895 154.247 164.046 152.204C161.187 150.148 158.844 148.549 158.844 148.625C158.844 148.714 159.02 150.859 159.229 153.41C159.856 160.77 160.45 167.852 160.978 174.349C161.253 177.662 161.505 180.53 161.538 180.72C161.56 180.923 161.571 181.076 161.538 181.076C161.516 181.076 159.372 177.839 156.787 173.893C154.203 169.946 150.518 164.336 148.616 161.43C142.743 152.471 130.062 133.117 123.947 123.777C120.747 118.891 118.063 114.817 117.997 114.728C117.898 114.614 116.743 115.084 112.487 117C98.0356 123.498 94.6922 124.995 94.6702 124.957C94.6592 124.932 96.7928 120.185 99.4104 114.398C102.039 108.611 104.173 103.865 104.151 103.84C104.118 103.789 101.346 103.637 95.715 103.345C93.5704 103.243 91.5467 103.116 91.2388 103.078L90.6559 103.015L98.3435 96.0728C102.578 92.2529 106.02 89.1183 106.009 89.0929C105.976 89.0548 93.1965 87.4558 91.9537 87.3416C91.4808 87.2908 91.1288 87.202 91.1728 87.1512C91.2498 87.0624 95.2531 85.1841 102.457 81.8591C103.766 81.25 104.832 80.6916 104.821 80.6154C104.799 80.5393 101.995 77.1382 98.5745 73.0644C95.1651 68.9907 91.9427 65.1581 91.4368 64.5362C90.9198 63.9271 90.5349 63.4321 90.5569 63.4321C90.5899 63.4321 91.3598 63.724 92.2616 64.0794C93.1635 64.4347 98.3545 66.4652 103.799 68.5719C109.243 70.6913 114.731 72.8233 116.006 73.3183C117.271 73.8132 118.349 74.2066 118.404 74.1812C118.448 74.1685 116.754 71.0593 114.632 67.2648C112.52 63.4829 110.782 60.3483 110.782 60.3229C110.782 60.2087 111.101 60.2721 117.095 61.7823Z"/>
<path d="M63.4907 44.231C64.0626 44.9163 65.1954 46.2742 66.0202 47.2514C66.8451 48.2286 68.9017 50.6779 70.5844 52.7084C72.2671 54.7263 74.4007 57.2771 75.3136 58.3558C76.2264 59.4345 78.3271 61.9473 79.9988 63.9398C81.6595 65.9322 84.354 69.1557 85.9927 71.1101C90.095 75.996 91.1288 77.2651 91.0848 77.3158C91.0298 77.3793 89.0942 78.2803 81.5825 81.7703C78.624 83.1409 74.5657 85.0318 72.5641 85.9583C70.5734 86.8847 66.7571 88.6614 64.0955 89.8924C59.2674 92.1387 58.8165 92.3544 59.0474 92.3671C59.2124 92.3671 60.4662 92.5194 70.9693 93.8265C81.6155 95.1464 85.7288 95.6667 85.8497 95.7048C85.9377 95.7302 83.8591 97.6211 71.7612 108.548L69.0777 110.959L70.3864 111.048C71.6402 111.137 73.8948 111.251 83.8921 111.784C86.4986 111.924 89.2811 112.076 90.084 112.114L91.5357 112.203L90.7549 113.929C90.326 114.881 87.2795 121.607 83.9801 128.891C80.6806 136.176 77.9971 142.153 78.0191 142.178C78.0631 142.216 79.4599 141.607 88.0164 137.749C92.0856 135.909 101.742 131.569 106.383 129.488C108.836 128.384 111.805 127.038 112.982 126.505C114.159 125.972 115.16 125.553 115.215 125.579C115.358 125.668 121.615 135.275 121.593 135.363C121.571 135.414 117.942 138.498 113.51 142.204L105.448 148.968H98.2446V157.978H108.055L109.771 156.544C110.727 155.745 114.852 152.293 118.954 148.854C123.056 145.415 126.433 142.623 126.444 142.648C127.521 144.158 133.317 153.207 133.262 153.283C133.207 153.334 130.59 155.453 127.444 158.004C124.299 160.542 118.085 165.58 113.631 169.184L105.525 175.745H84.7169V184.756H108.088L123.045 172.636C131.272 165.974 138.036 160.517 138.08 160.517C138.223 160.517 144.667 170.453 144.579 170.542C144.535 170.593 136.771 177.078 127.334 184.946C117.898 192.827 109.144 200.15 107.868 201.216L105.558 203.158H71.9592V212.295H108.011L115.204 206.292C119.152 202.993 128.423 195.238 135.803 189.071C143.183 182.903 149.287 177.865 149.364 177.852C149.496 177.839 150.969 180.06 164.838 201.229C168.775 207.231 171.998 212.13 172.02 212.117C172.031 212.092 171.547 206.153 170.942 198.893C170.326 191.647 169.787 185.162 169.732 184.502C169.094 176.837 168.599 170.999 168.511 169.908C168.456 169.172 168.357 168.055 168.302 167.433C168.137 165.682 168.093 165.771 168.885 166.342C175.385 171.037 181.28 175.187 181.28 175.06C181.28 174.971 178.728 162.407 175.616 147.14L169.952 119.373L170.282 118.827C170.755 118.041 171.734 117.063 172.526 116.619C173.471 116.086 174.362 115.845 175.396 115.845C176.463 115.845 177.354 116.099 178.256 116.645C178.629 116.873 183.117 120.921 188.363 125.744C193.554 130.528 197.843 134.45 197.898 134.475C198.041 134.539 198.03 104.753 197.887 102.964C197.271 95.4763 193.73 89.0929 188.121 85.3364C187.714 85.0572 186.372 84.3465 185.14 83.7374L182.908 82.6206L182.204 81.0723C179.366 74.8285 174.802 69.6633 169.303 66.4906C167.169 65.2469 165.883 64.752 162.913 64.0032C161.373 63.6098 154.984 62.0108 148.726 60.4371C142.468 58.8635 131.558 56.1223 124.475 54.3456C117.403 52.5688 107.626 50.1195 102.765 48.9012C97.9036 47.6702 93.9003 46.7057 93.8783 46.7311C93.8453 46.7565 95.1431 49.1423 96.7598 52.0231C98.3655 54.9166 99.6413 57.2898 99.5973 57.3025C99.5423 57.3279 98.5305 56.9598 97.3537 56.503C96.1879 56.0334 93.0425 54.8151 90.3809 53.7872C78.679 49.2439 65.4593 44.1041 64.1285 43.5711C63.3257 43.2538 62.6218 43 62.5668 43C62.5118 43 62.9298 43.5584 63.4907 44.231ZM117.095 61.7823C120.428 62.6199 128.621 64.6758 135.308 66.351C141.995 68.0262 151.002 70.2852 155.325 71.3639C159.647 72.4553 163.54 73.4832 163.958 73.6736C168.698 75.7295 173.042 80.2474 175.341 85.5141C175.605 86.1106 176.056 87.2527 176.342 88.0522C176.716 89.1056 176.936 89.5497 177.123 89.664C177.266 89.7528 178.816 90.5016 180.554 91.3391C184.206 93.0905 185.173 93.7377 186.559 95.286C188.253 97.1896 189.386 99.5755 189.859 102.241C190.056 103.421 190.078 103.979 190.078 109.614V115.718L187.527 113.358C183.887 109.995 182.996 109.246 181.764 108.522C179.63 107.266 177.827 106.771 175.396 106.784C173.603 106.784 172.625 106.961 170.887 107.609C166.873 109.081 163.573 112.812 162.033 117.609L161.725 118.599L165.509 137.178C167.587 147.394 169.281 155.783 169.27 155.834C169.248 155.884 166.895 154.247 164.046 152.204C161.187 150.148 158.844 148.549 158.844 148.625C158.844 148.714 159.02 150.859 159.229 153.41C159.856 160.77 160.45 167.852 160.978 174.349C161.253 177.662 161.505 180.53 161.538 180.72C161.56 180.923 161.571 181.076 161.538 181.076C161.516 181.076 159.372 177.839 156.787 173.893C154.203 169.946 150.518 164.336 148.616 161.43C142.743 152.471 130.062 133.117 123.947 123.777C120.747 118.891 118.063 114.817 117.997 114.728C117.898 114.614 116.743 115.084 112.487 117C98.0356 123.498 94.6922 124.995 94.6702 124.957C94.6592 124.932 96.7928 120.185 99.4104 114.398C102.039 108.611 104.173 103.865 104.151 103.84C104.118 103.789 101.346 103.637 95.715 103.345C93.5704 103.243 91.5467 103.116 91.2388 103.078L90.6559 103.015L98.3435 96.0728C102.578 92.2529 106.02 89.1183 106.009 89.0929C105.976 89.0548 93.1965 87.4558 91.9537 87.3416C91.4808 87.2908 91.1288 87.202 91.1728 87.1512C91.2498 87.0624 95.2531 85.1841 102.457 81.8591C103.766 81.25 104.832 80.6916 104.821 80.6154C104.799 80.5393 101.995 77.1382 98.5745 73.0644C95.1651 68.9907 91.9427 65.1581 91.4368 64.5362C90.9198 63.9271 90.5349 63.4321 90.5569 63.4321C90.5899 63.4321 91.3598 63.724 92.2616 64.0794C93.1635 64.4347 98.3545 66.4652 103.799 68.5719C109.243 70.6913 114.731 72.8233 116.006 73.3183C117.271 73.8132 118.349 74.2066 118.404 74.1812C118.448 74.1685 116.754 71.0593 114.632 67.2648C112.52 63.4829 110.782 60.3483 110.782 60.3229C110.782 60.2087 111.101 60.2721 117.095 61.7823Z"/>
<path d="M143.338 86.6059C144.702 90.6162 144.922 91.0858 145.735 91.7965C146.758 92.6975 148.342 93.0528 149.453 92.634C150.08 92.3929 153.918 90.0324 153.819 89.9436C153.775 89.9055 151.421 89.0299 148.573 87.9892C145.735 86.9613 143.338 86.0856 143.261 86.0602C143.162 86.0095 143.184 86.1744 143.338 86.6059Z"/>
</mask>
<path d="M63.4907 44.231C64.0626 44.9163 65.1954 46.2742 66.0202 47.2514C66.8451 48.2286 68.9017 50.6779 70.5844 52.7084C72.2671 54.7263 74.4007 57.2771 75.3136 58.3558C76.2264 59.4345 78.3271 61.9473 79.9988 63.9398C81.6595 65.9322 84.354 69.1557 85.9927 71.1101C90.095 75.996 91.1288 77.2651 91.0848 77.3158C91.0298 77.3793 89.0942 78.2803 81.5825 81.7703C78.624 83.1409 74.5657 85.0318 72.5641 85.9583C70.5734 86.8847 66.7571 88.6614 64.0955 89.8924C59.2674 92.1387 58.8165 92.3544 59.0474 92.3671C59.2124 92.3671 60.4662 92.5194 70.9693 93.8265C81.6155 95.1464 85.7288 95.6667 85.8497 95.7048C85.9377 95.7302 83.8591 97.6211 71.7612 108.548L69.0777 110.959L70.3864 111.048C71.6402 111.137 73.8948 111.251 83.8921 111.784C86.4986 111.924 89.2811 112.076 90.084 112.114L91.5357 112.203L90.7549 113.929C90.326 114.881 87.2795 121.607 83.9801 128.891C80.6806 136.176 77.9971 142.153 78.0191 142.178C78.0631 142.216 79.4599 141.607 88.0164 137.749C92.0856 135.909 101.742 131.569 106.383 129.488C108.836 128.384 111.805 127.038 112.982 126.505C114.159 125.972 115.16 125.553 115.215 125.579C115.358 125.668 121.615 135.275 121.593 135.363C121.571 135.414 117.942 138.498 113.51 142.204L105.448 148.968H98.2446V157.978H108.055L109.771 156.544C110.727 155.745 114.852 152.293 118.954 148.854C123.056 145.415 126.433 142.623 126.444 142.648C127.521 144.158 133.317 153.207 133.262 153.283C133.207 153.334 130.59 155.453 127.444 158.004C124.299 160.542 118.085 165.58 113.631 169.184L105.525 175.745H84.7169V184.756H108.088L123.045 172.636C131.272 165.974 138.036 160.517 138.08 160.517C138.223 160.517 144.667 170.453 144.579 170.542C144.535 170.593 136.771 177.078 127.334 184.946C117.898 192.827 109.144 200.15 107.868 201.216L105.558 203.158H71.9592V212.295H108.011L115.204 206.292C119.152 202.993 128.423 195.238 135.803 189.071C143.183 182.903 149.287 177.865 149.364 177.852C149.496 177.839 150.969 180.06 164.838 201.229C168.775 207.231 171.998 212.13 172.02 212.117C172.031 212.092 171.547 206.153 170.942 198.893C170.326 191.647 169.787 185.162 169.732 184.502C169.094 176.837 168.599 170.999 168.511 169.908C168.456 169.172 168.357 168.055 168.302 167.433C168.137 165.682 168.093 165.771 168.885 166.342C175.385 171.037 181.28 175.187 181.28 175.06C181.28 174.971 178.728 162.407 175.616 147.14L169.952 119.373L170.282 118.827C170.755 118.041 171.734 117.063 172.526 116.619C173.471 116.086 174.362 115.845 175.396 115.845C176.463 115.845 177.354 116.099 178.256 116.645C178.629 116.873 183.117 120.921 188.363 125.744C193.554 130.528 197.843 134.45 197.898 134.475C198.041 134.539 198.03 104.753 197.887 102.964C197.271 95.4763 193.73 89.0929 188.121 85.3364C187.714 85.0572 186.372 84.3465 185.14 83.7374L182.908 82.6206L182.204 81.0723C179.366 74.8285 174.802 69.6633 169.303 66.4906C167.169 65.2469 165.883 64.752 162.913 64.0032C161.373 63.6098 154.984 62.0108 148.726 60.4371C142.468 58.8635 131.558 56.1223 124.475 54.3456C117.403 52.5688 107.626 50.1195 102.765 48.9012C97.9036 47.6702 93.9003 46.7057 93.8783 46.7311C93.8453 46.7565 95.1431 49.1423 96.7598 52.0231C98.3655 54.9166 99.6413 57.2898 99.5973 57.3025C99.5423 57.3279 98.5305 56.9598 97.3537 56.503C96.1879 56.0334 93.0425 54.8151 90.3809 53.7872C78.679 49.2439 65.4593 44.1041 64.1285 43.5711C63.3257 43.2538 62.6218 43 62.5668 43C62.5118 43 62.9298 43.5584 63.4907 44.231ZM117.095 61.7823C120.428 62.6199 128.621 64.6758 135.308 66.351C141.995 68.0262 151.002 70.2852 155.325 71.3639C159.647 72.4553 163.54 73.4832 163.958 73.6736C168.698 75.7295 173.042 80.2474 175.341 85.5141C175.605 86.1106 176.056 87.2527 176.342 88.0522C176.716 89.1056 176.936 89.5497 177.123 89.664C177.266 89.7528 178.816 90.5016 180.554 91.3391C184.206 93.0905 185.173 93.7377 186.559 95.286C188.253 97.1896 189.386 99.5755 189.859 102.241C190.056 103.421 190.078 103.979 190.078 109.614V115.718L187.527 113.358C183.887 109.995 182.996 109.246 181.764 108.522C179.63 107.266 177.827 106.771 175.396 106.784C173.603 106.784 172.625 106.961 170.887 107.609C166.873 109.081 163.573 112.812 162.033 117.609L161.725 118.599L165.509 137.178C167.587 147.394 169.281 155.783 169.27 155.834C169.248 155.884 166.895 154.247 164.046 152.204C161.187 150.148 158.844 148.549 158.844 148.625C158.844 148.714 159.02 150.859 159.229 153.41C159.856 160.77 160.45 167.852 160.978 174.349C161.253 177.662 161.505 180.53 161.538 180.72C161.56 180.923 161.571 181.076 161.538 181.076C161.516 181.076 159.372 177.839 156.787 173.893C154.203 169.946 150.518 164.336 148.616 161.43C142.743 152.471 130.062 133.117 123.947 123.777C120.747 118.891 118.063 114.817 117.997 114.728C117.898 114.614 116.743 115.084 112.487 117C98.0356 123.498 94.6922 124.995 94.6702 124.957C94.6592 124.932 96.7928 120.185 99.4104 114.398C102.039 108.611 104.173 103.865 104.151 103.84C104.118 103.789 101.346 103.637 95.715 103.345C93.5704 103.243 91.5467 103.116 91.2388 103.078L90.6559 103.015L98.3435 96.0728C102.578 92.2529 106.02 89.1183 106.009 89.0929C105.976 89.0548 93.1965 87.4558 91.9537 87.3416C91.4808 87.2908 91.1288 87.202 91.1728 87.1512C91.2498 87.0624 95.2531 85.1841 102.457 81.8591C103.766 81.25 104.832 80.6916 104.821 80.6154C104.799 80.5393 101.995 77.1382 98.5745 73.0644C95.1651 68.9907 91.9427 65.1581 91.4368 64.5362C90.9198 63.9271 90.5349 63.4321 90.5569 63.4321C90.5899 63.4321 91.3598 63.724 92.2616 64.0794C93.1635 64.4347 98.3545 66.4652 103.799 68.5719C109.243 70.6913 114.731 72.8233 116.006 73.3183C117.271 73.8132 118.349 74.2066 118.404 74.1812C118.448 74.1685 116.754 71.0593 114.632 67.2648C112.52 63.4829 110.782 60.3483 110.782 60.3229C110.782 60.2087 111.101 60.2721 117.095 61.7823Z" fill="white"/>
<path d="M63.4907 44.231C64.0626 44.9163 65.1954 46.2742 66.0202 47.2514C66.8451 48.2286 68.9017 50.6779 70.5844 52.7084C72.2671 54.7263 74.4007 57.2771 75.3136 58.3558C76.2264 59.4345 78.3271 61.9473 79.9988 63.9398C81.6595 65.9322 84.354 69.1557 85.9927 71.1101C90.095 75.996 91.1288 77.2651 91.0848 77.3158C91.0298 77.3793 89.0942 78.2803 81.5825 81.7703C78.624 83.1409 74.5657 85.0318 72.5641 85.9583C70.5734 86.8847 66.7571 88.6614 64.0955 89.8924C59.2674 92.1387 58.8165 92.3544 59.0474 92.3671C59.2124 92.3671 60.4662 92.5194 70.9693 93.8265C81.6155 95.1464 85.7288 95.6667 85.8497 95.7048C85.9377 95.7302 83.8591 97.6211 71.7612 108.548L69.0777 110.959L70.3864 111.048C71.6402 111.137 73.8948 111.251 83.8921 111.784C86.4986 111.924 89.2811 112.076 90.084 112.114L91.5357 112.203L90.7549 113.929C90.326 114.881 87.2795 121.607 83.9801 128.891C80.6806 136.176 77.9971 142.153 78.0191 142.178C78.0631 142.216 79.4599 141.607 88.0164 137.749C92.0856 135.909 101.742 131.569 106.383 129.488C108.836 128.384 111.805 127.038 112.982 126.505C114.159 125.972 115.16 125.553 115.215 125.579C115.358 125.668 121.615 135.275 121.593 135.363C121.571 135.414 117.942 138.498 113.51 142.204L105.448 148.968H98.2446V157.978H108.055L109.771 156.544C110.727 155.745 114.852 152.293 118.954 148.854C123.056 145.415 126.433 142.623 126.444 142.648C127.521 144.158 133.317 153.207 133.262 153.283C133.207 153.334 130.59 155.453 127.444 158.004C124.299 160.542 118.085 165.58 113.631 169.184L105.525 175.745H84.7169V184.756H108.088L123.045 172.636C131.272 165.974 138.036 160.517 138.08 160.517C138.223 160.517 144.667 170.453 144.579 170.542C144.535 170.593 136.771 177.078 127.334 184.946C117.898 192.827 109.144 200.15 107.868 201.216L105.558 203.158H71.9592V212.295H108.011L115.204 206.292C119.152 202.993 128.423 195.238 135.803 189.071C143.183 182.903 149.287 177.865 149.364 177.852C149.496 177.839 150.969 180.06 164.838 201.229C168.775 207.231 171.998 212.13 172.02 212.117C172.031 212.092 171.547 206.153 170.942 198.893C170.326 191.647 169.787 185.162 169.732 184.502C169.094 176.837 168.599 170.999 168.511 169.908C168.456 169.172 168.357 168.055 168.302 167.433C168.137 165.682 168.093 165.771 168.885 166.342C175.385 171.037 181.28 175.187 181.28 175.06C181.28 174.971 178.728 162.407 175.616 147.14L169.952 119.373L170.282 118.827C170.755 118.041 171.734 117.063 172.526 116.619C173.471 116.086 174.362 115.845 175.396 115.845C176.463 115.845 177.354 116.099 178.256 116.645C178.629 116.873 183.117 120.921 188.363 125.744C193.554 130.528 197.843 134.45 197.898 134.475C198.041 134.539 198.03 104.753 197.887 102.964C197.271 95.4763 193.73 89.0929 188.121 85.3364C187.714 85.0572 186.372 84.3465 185.14 83.7374L182.908 82.6206L182.204 81.0723C179.366 74.8285 174.802 69.6633 169.303 66.4906C167.169 65.2469 165.883 64.752 162.913 64.0032C161.373 63.6098 154.984 62.0108 148.726 60.4371C142.468 58.8635 131.558 56.1223 124.475 54.3456C117.403 52.5688 107.626 50.1195 102.765 48.9012C97.9036 47.6702 93.9003 46.7057 93.8783 46.7311C93.8453 46.7565 95.1431 49.1423 96.7598 52.0231C98.3655 54.9166 99.6413 57.2898 99.5973 57.3025C99.5423 57.3279 98.5305 56.9598 97.3537 56.503C96.1879 56.0334 93.0425 54.8151 90.3809 53.7872C78.679 49.2439 65.4593 44.1041 64.1285 43.5711C63.3257 43.2538 62.6218 43 62.5668 43C62.5118 43 62.9298 43.5584 63.4907 44.231ZM117.095 61.7823C120.428 62.6199 128.621 64.6758 135.308 66.351C141.995 68.0262 151.002 70.2852 155.325 71.3639C159.647 72.4553 163.54 73.4832 163.958 73.6736C168.698 75.7295 173.042 80.2474 175.341 85.5141C175.605 86.1106 176.056 87.2527 176.342 88.0522C176.716 89.1056 176.936 89.5497 177.123 89.664C177.266 89.7528 178.816 90.5016 180.554 91.3391C184.206 93.0905 185.173 93.7377 186.559 95.286C188.253 97.1896 189.386 99.5755 189.859 102.241C190.056 103.421 190.078 103.979 190.078 109.614V115.718L187.527 113.358C183.887 109.995 182.996 109.246 181.764 108.522C179.63 107.266 177.827 106.771 175.396 106.784C173.603 106.784 172.625 106.961 170.887 107.609C166.873 109.081 163.573 112.812 162.033 117.609L161.725 118.599L165.509 137.178C167.587 147.394 169.281 155.783 169.27 155.834C169.248 155.884 166.895 154.247 164.046 152.204C161.187 150.148 158.844 148.549 158.844 148.625C158.844 148.714 159.02 150.859 159.229 153.41C159.856 160.77 160.45 167.852 160.978 174.349C161.253 177.662 161.505 180.53 161.538 180.72C161.56 180.923 161.571 181.076 161.538 181.076C161.516 181.076 159.372 177.839 156.787 173.893C154.203 169.946 150.518 164.336 148.616 161.43C142.743 152.471 130.062 133.117 123.947 123.777C120.747 118.891 118.063 114.817 117.997 114.728C117.898 114.614 116.743 115.084 112.487 117C98.0356 123.498 94.6922 124.995 94.6702 124.957C94.6592 124.932 96.7928 120.185 99.4104 114.398C102.039 108.611 104.173 103.865 104.151 103.84C104.118 103.789 101.346 103.637 95.715 103.345C93.5704 103.243 91.5467 103.116 91.2388 103.078L90.6559 103.015L98.3435 96.0728C102.578 92.2529 106.02 89.1183 106.009 89.0929C105.976 89.0548 93.1965 87.4558 91.9537 87.3416C91.4808 87.2908 91.1288 87.202 91.1728 87.1512C91.2498 87.0624 95.2531 85.1841 102.457 81.8591C103.766 81.25 104.832 80.6916 104.821 80.6154C104.799 80.5393 101.995 77.1382 98.5745 73.0644C95.1651 68.9907 91.9427 65.1581 91.4368 64.5362C90.9198 63.9271 90.5349 63.4321 90.5569 63.4321C90.5899 63.4321 91.3598 63.724 92.2616 64.0794C93.1635 64.4347 98.3545 66.4652 103.799 68.5719C109.243 70.6913 114.731 72.8233 116.006 73.3183C117.271 73.8132 118.349 74.2066 118.404 74.1812C118.448 74.1685 116.754 71.0593 114.632 67.2648C112.52 63.4829 110.782 60.3483 110.782 60.3229C110.782 60.2087 111.101 60.2721 117.095 61.7823Z" fill="white"/>
<path d="M143.338 86.6059C144.702 90.6162 144.922 91.0858 145.735 91.7965C146.758 92.6975 148.342 93.0528 149.453 92.634C150.08 92.3929 153.918 90.0324 153.819 89.9436C153.775 89.9055 151.421 89.0299 148.573 87.9892C145.735 86.9613 143.338 86.0856 143.261 86.0602C143.162 86.0095 143.184 86.1744 143.338 86.6059Z" fill="white"/>
<path d="M63.4907 44.231C64.0626 44.9163 65.1954 46.2742 66.0202 47.2514C66.8451 48.2286 68.9017 50.6779 70.5844 52.7084C72.2671 54.7263 74.4007 57.2771 75.3136 58.3558C76.2264 59.4345 78.3271 61.9473 79.9988 63.9398C81.6595 65.9322 84.354 69.1557 85.9927 71.1101C90.095 75.996 91.1288 77.2651 91.0848 77.3158C91.0298 77.3793 89.0942 78.2803 81.5825 81.7703C78.624 83.1409 74.5657 85.0318 72.5641 85.9583C70.5734 86.8847 66.7571 88.6614 64.0955 89.8924C59.2674 92.1387 58.8165 92.3544 59.0474 92.3671C59.2124 92.3671 60.4662 92.5194 70.9693 93.8265C81.6155 95.1464 85.7288 95.6667 85.8497 95.7048C85.9377 95.7302 83.8591 97.6211 71.7612 108.548L69.0777 110.959L70.3864 111.048C71.6402 111.137 73.8948 111.251 83.8921 111.784C86.4986 111.924 89.2811 112.076 90.084 112.114L91.5357 112.203L90.7549 113.929C90.326 114.881 87.2795 121.607 83.9801 128.891C80.6806 136.176 77.9971 142.153 78.0191 142.178C78.0631 142.216 79.4599 141.607 88.0164 137.749C92.0856 135.909 101.742 131.569 106.383 129.488C108.836 128.384 111.805 127.038 112.982 126.505C114.159 125.972 115.16 125.553 115.215 125.579C115.358 125.668 121.615 135.275 121.593 135.363C121.571 135.414 117.942 138.498 113.51 142.204L105.448 148.968H98.2446V157.978H108.055L109.771 156.544C110.727 155.745 114.852 152.293 118.954 148.854C123.056 145.415 126.433 142.623 126.444 142.648C127.521 144.158 133.317 153.207 133.262 153.283C133.207 153.334 130.59 155.453 127.444 158.004C124.299 160.542 118.085 165.58 113.631 169.184L105.525 175.745H84.7169V184.756H108.088L123.045 172.636C131.272 165.974 138.036 160.517 138.08 160.517C138.223 160.517 144.667 170.453 144.579 170.542C144.535 170.593 136.771 177.078 127.334 184.946C117.898 192.827 109.144 200.15 107.868 201.216L105.558 203.158H71.9592V212.295H108.011L115.204 206.292C119.152 202.993 128.423 195.238 135.803 189.071C143.183 182.903 149.287 177.865 149.364 177.852C149.496 177.839 150.969 180.06 164.838 201.229C168.775 207.231 171.998 212.13 172.02 212.117C172.031 212.092 171.547 206.153 170.942 198.893C170.326 191.647 169.787 185.162 169.732 184.502C169.094 176.837 168.599 170.999 168.511 169.908C168.456 169.172 168.357 168.055 168.302 167.433C168.137 165.682 168.093 165.771 168.885 166.342C175.385 171.037 181.28 175.187 181.28 175.06C181.28 174.971 178.728 162.407 175.616 147.14L169.952 119.373L170.282 118.827C170.755 118.041 171.734 117.063 172.526 116.619C173.471 116.086 174.362 115.845 175.396 115.845C176.463 115.845 177.354 116.099 178.256 116.645C178.629 116.873 183.117 120.921 188.363 125.744C193.554 130.528 197.843 134.45 197.898 134.475C198.041 134.539 198.03 104.753 197.887 102.964C197.271 95.4763 193.73 89.0929 188.121 85.3364C187.714 85.0572 186.372 84.3465 185.14 83.7374L182.908 82.6206L182.204 81.0723C179.366 74.8285 174.802 69.6633 169.303 66.4906C167.169 65.2469 165.883 64.752 162.913 64.0032C161.373 63.6098 154.984 62.0108 148.726 60.4371C142.468 58.8635 131.558 56.1223 124.475 54.3456C117.403 52.5688 107.626 50.1195 102.765 48.9012C97.9036 47.6702 93.9003 46.7057 93.8783 46.7311C93.8453 46.7565 95.1431 49.1423 96.7598 52.0231C98.3655 54.9166 99.6413 57.2898 99.5973 57.3025C99.5423 57.3279 98.5305 56.9598 97.3537 56.503C96.1879 56.0334 93.0425 54.8151 90.3809 53.7872C78.679 49.2439 65.4593 44.1041 64.1285 43.5711C63.3257 43.2538 62.6218 43 62.5668 43C62.5118 43 62.9298 43.5584 63.4907 44.231ZM117.095 61.7823C120.428 62.6199 128.621 64.6758 135.308 66.351C141.995 68.0262 151.002 70.2852 155.325 71.3639C159.647 72.4553 163.54 73.4832 163.958 73.6736C168.698 75.7295 173.042 80.2474 175.341 85.5141C175.605 86.1106 176.056 87.2527 176.342 88.0522C176.716 89.1056 176.936 89.5497 177.123 89.664C177.266 89.7528 178.816 90.5016 180.554 91.3391C184.206 93.0905 185.173 93.7377 186.559 95.286C188.253 97.1896 189.386 99.5755 189.859 102.241C190.056 103.421 190.078 103.979 190.078 109.614V115.718L187.527 113.358C183.887 109.995 182.996 109.246 181.764 108.522C179.63 107.266 177.827 106.771 175.396 106.784C173.603 106.784 172.625 106.961 170.887 107.609C166.873 109.081 163.573 112.812 162.033 117.609L161.725 118.599L165.509 137.178C167.587 147.394 169.281 155.783 169.27 155.834C169.248 155.884 166.895 154.247 164.046 152.204C161.187 150.148 158.844 148.549 158.844 148.625C158.844 148.714 159.02 150.859 159.229 153.41C159.856 160.77 160.45 167.852 160.978 174.349C161.253 177.662 161.505 180.53 161.538 180.72C161.56 180.923 161.571 181.076 161.538 181.076C161.516 181.076 159.372 177.839 156.787 173.893C154.203 169.946 150.518 164.336 148.616 161.43C142.743 152.471 130.062 133.117 123.947 123.777C120.747 118.891 118.063 114.817 117.997 114.728C117.898 114.614 116.743 115.084 112.487 117C98.0356 123.498 94.6922 124.995 94.6702 124.957C94.6592 124.932 96.7928 120.185 99.4104 114.398C102.039 108.611 104.173 103.865 104.151 103.84C104.118 103.789 101.346 103.637 95.715 103.345C93.5704 103.243 91.5467 103.116 91.2388 103.078L90.6559 103.015L98.3435 96.0728C102.578 92.2529 106.02 89.1183 106.009 89.0929C105.976 89.0548 93.1965 87.4558 91.9537 87.3416C91.4808 87.2908 91.1288 87.202 91.1728 87.1512C91.2498 87.0624 95.2531 85.1841 102.457 81.8591C103.766 81.25 104.832 80.6916 104.821 80.6154C104.799 80.5393 101.995 77.1382 98.5745 73.0644C95.1651 68.9907 91.9427 65.1581 91.4368 64.5362C90.9198 63.9271 90.5349 63.4321 90.5569 63.4321C90.5899 63.4321 91.3598 63.724 92.2616 64.0794C93.1635 64.4347 98.3545 66.4652 103.799 68.5719C109.243 70.6913 114.731 72.8233 116.006 73.3183C117.271 73.8132 118.349 74.2066 118.404 74.1812C118.448 74.1685 116.754 71.0593 114.632 67.2648C112.52 63.4829 110.782 60.3483 110.782 60.3229C110.782 60.2087 111.101 60.2721 117.095 61.7823Z" stroke="white" stroke-width="33.2575" mask="url(#path-1-inside-1_3635_3)"/>
<path d="M63.4907 44.231C64.0626 44.9163 65.1954 46.2742 66.0202 47.2514C66.8451 48.2286 68.9017 50.6779 70.5844 52.7084C72.2671 54.7263 74.4007 57.2771 75.3136 58.3558C76.2264 59.4345 78.3271 61.9473 79.9988 63.9398C81.6595 65.9322 84.354 69.1557 85.9927 71.1101C90.095 75.996 91.1288 77.2651 91.0848 77.3158C91.0298 77.3793 89.0942 78.2803 81.5825 81.7703C78.624 83.1409 74.5657 85.0318 72.5641 85.9583C70.5734 86.8847 66.7571 88.6614 64.0955 89.8924C59.2674 92.1387 58.8165 92.3544 59.0474 92.3671C59.2124 92.3671 60.4662 92.5194 70.9693 93.8265C81.6155 95.1464 85.7288 95.6667 85.8497 95.7048C85.9377 95.7302 83.8591 97.6211 71.7612 108.548L69.0777 110.959L70.3864 111.048C71.6402 111.137 73.8948 111.251 83.8921 111.784C86.4986 111.924 89.2811 112.076 90.084 112.114L91.5357 112.203L90.7549 113.929C90.326 114.881 87.2795 121.607 83.9801 128.891C80.6806 136.176 77.9971 142.153 78.0191 142.178C78.0631 142.216 79.4599 141.607 88.0164 137.749C92.0856 135.909 101.742 131.569 106.383 129.488C108.836 128.384 111.805 127.038 112.982 126.505C114.159 125.972 115.16 125.553 115.215 125.579C115.358 125.668 121.615 135.275 121.593 135.363C121.571 135.414 117.942 138.498 113.51 142.204L105.448 148.968H98.2446V157.978H108.055L109.771 156.544C110.727 155.745 114.852 152.293 118.954 148.854C123.056 145.415 126.433 142.623 126.444 142.648C127.521 144.158 133.317 153.207 133.262 153.283C133.207 153.334 130.59 155.453 127.444 158.004C124.299 160.542 118.085 165.58 113.631 169.184L105.525 175.745H84.7169V184.756H108.088L123.045 172.636C131.272 165.974 138.036 160.517 138.08 160.517C138.223 160.517 144.667 170.453 144.579 170.542C144.535 170.593 136.771 177.078 127.334 184.946C117.898 192.827 109.144 200.15 107.868 201.216L105.558 203.158H71.9592V212.295H108.011L115.204 206.292C119.152 202.993 128.423 195.238 135.803 189.071C143.183 182.903 149.287 177.865 149.364 177.852C149.496 177.839 150.969 180.06 164.838 201.229C168.775 207.231 171.998 212.13 172.02 212.117C172.031 212.092 171.547 206.153 170.942 198.893C170.326 191.647 169.787 185.162 169.732 184.502C169.094 176.837 168.599 170.999 168.511 169.908C168.456 169.172 168.357 168.055 168.302 167.433C168.137 165.682 168.093 165.771 168.885 166.342C175.385 171.037 181.28 175.187 181.28 175.06C181.28 174.971 178.728 162.407 175.616 147.14L169.952 119.373L170.282 118.827C170.755 118.041 171.734 117.063 172.526 116.619C173.471 116.086 174.362 115.845 175.396 115.845C176.463 115.845 177.354 116.099 178.256 116.645C178.629 116.873 183.117 120.921 188.363 125.744C193.554 130.528 197.843 134.45 197.898 134.475C198.041 134.539 198.03 104.753 197.887 102.964C197.271 95.4763 193.73 89.0929 188.121 85.3364C187.714 85.0572 186.372 84.3465 185.14 83.7374L182.908 82.6206L182.204 81.0723C179.366 74.8285 174.802 69.6633 169.303 66.4906C167.169 65.2469 165.883 64.752 162.913 64.0032C161.373 63.6098 154.984 62.0108 148.726 60.4371C142.468 58.8635 131.558 56.1223 124.475 54.3456C117.403 52.5688 107.626 50.1195 102.765 48.9012C97.9036 47.6702 93.9003 46.7057 93.8783 46.7311C93.8453 46.7565 95.1431 49.1423 96.7598 52.0231C98.3655 54.9166 99.6413 57.2898 99.5973 57.3025C99.5423 57.3279 98.5305 56.9598 97.3537 56.503C96.1879 56.0334 93.0425 54.8151 90.3809 53.7872C78.679 49.2439 65.4593 44.1041 64.1285 43.5711C63.3257 43.2538 62.6218 43 62.5668 43C62.5118 43 62.9298 43.5584 63.4907 44.231ZM117.095 61.7823C120.428 62.6199 128.621 64.6758 135.308 66.351C141.995 68.0262 151.002 70.2852 155.325 71.3639C159.647 72.4553 163.54 73.4832 163.958 73.6736C168.698 75.7295 173.042 80.2474 175.341 85.5141C175.605 86.1106 176.056 87.2527 176.342 88.0522C176.716 89.1056 176.936 89.5497 177.123 89.664C177.266 89.7528 178.816 90.5016 180.554 91.3391C184.206 93.0905 185.173 93.7377 186.559 95.286C188.253 97.1896 189.386 99.5755 189.859 102.241C190.056 103.421 190.078 103.979 190.078 109.614V115.718L187.527 113.358C183.887 109.995 182.996 109.246 181.764 108.522C179.63 107.266 177.827 106.771 175.396 106.784C173.603 106.784 172.625 106.961 170.887 107.609C166.873 109.081 163.573 112.812 162.033 117.609L161.725 118.599L165.509 137.178C167.587 147.394 169.281 155.783 169.27 155.834C169.248 155.884 166.895 154.247 164.046 152.204C161.187 150.148 158.844 148.549 158.844 148.625C158.844 148.714 159.02 150.859 159.229 153.41C159.856 160.77 160.45 167.852 160.978 174.349C161.253 177.662 161.505 180.53 161.538 180.72C161.56 180.923 161.571 181.076 161.538 181.076C161.516 181.076 159.372 177.839 156.787 173.893C154.203 169.946 150.518 164.336 148.616 161.43C142.743 152.471 130.062 133.117 123.947 123.777C120.747 118.891 118.063 114.817 117.997 114.728C117.898 114.614 116.743 115.084 112.487 117C98.0356 123.498 94.6922 124.995 94.6702 124.957C94.6592 124.932 96.7928 120.185 99.4104 114.398C102.039 108.611 104.173 103.865 104.151 103.84C104.118 103.789 101.346 103.637 95.715 103.345C93.5704 103.243 91.5467 103.116 91.2388 103.078L90.6559 103.015L98.3435 96.0728C102.578 92.2529 106.02 89.1183 106.009 89.0929C105.976 89.0548 93.1965 87.4558 91.9537 87.3416C91.4808 87.2908 91.1288 87.202 91.1728 87.1512C91.2498 87.0624 95.2531 85.1841 102.457 81.8591C103.766 81.25 104.832 80.6916 104.821 80.6154C104.799 80.5393 101.995 77.1382 98.5745 73.0644C95.1651 68.9907 91.9427 65.1581 91.4368 64.5362C90.9198 63.9271 90.5349 63.4321 90.5569 63.4321C90.5899 63.4321 91.3598 63.724 92.2616 64.0794C93.1635 64.4347 98.3545 66.4652 103.799 68.5719C109.243 70.6913 114.731 72.8233 116.006 73.3183C117.271 73.8132 118.349 74.2066 118.404 74.1812C118.448 74.1685 116.754 71.0593 114.632 67.2648C112.52 63.4829 110.782 60.3483 110.782 60.3229C110.782 60.2087 111.101 60.2721 117.095 61.7823Z" stroke="white" stroke-width="33.2575" mask="url(#path-1-inside-1_3635_3)"/>
<path d="M143.338 86.6059C144.702 90.6162 144.922 91.0858 145.735 91.7965C146.758 92.6975 148.342 93.0528 149.453 92.634C150.08 92.3929 153.918 90.0324 153.819 89.9436C153.775 89.9055 151.421 89.0299 148.573 87.9892C145.735 86.9613 143.338 86.0856 143.261 86.0602C143.162 86.0095 143.184 86.1744 143.338 86.6059Z" stroke="white" stroke-width="33.2575" mask="url(#path-1-inside-1_3635_3)"/>
</svg>
