<?xml version="1.0" encoding="utf-8"?>
<!-- Generator: Adobe Illustrator 21.1.0, SVG Export Plug-In . SVG Version: 6.00 Build 0)  -->
<svg version="1.1" id="Layer_1" xmlns="http://www.w3.org/2000/svg" xmlns:xlink="http://www.w3.org/1999/xlink" x="0px" y="0px"
	 viewBox="0 0 1000 1000" style="enable-background:new 0 0 1000 1000;" xml:space="preserve">
<style type="text/css">
	.st0{fill:#662D91;}
	.st1{fill:#FFFFFF;}
	.st2{fill:#CC2166;}
</style>
<rect x="-25.3" y="-19.2" class="st0" width="1035.1" height="1053.1"/>
<g>
	<path class="st1" d="M778.5,295.2c4.7-17.3,3.5-36.3-4.8-53.7l-60.7-127c-8.9-18.7-24.6-32.8-44.3-39.7
		c-19.6-6.9-40.7-5.8-59.4,3.1l-378.9,181c-34.4,16.4-51.1,54.9-41.5,90.5c-3.5,13-3.7,26.9,0,40.5c-3.5,13-3.7,26.9,0,40.5
		c-3.5,13-3.7,26.9,0,40.5c-3.5,13-3.7,26.9,0,40.5c-4.7,17.3-3.5,36.3,4.8,53.7l60.7,127c8.9,18.7,24.6,32.8,44.3,39.7
		c8.5,3,17.3,4.5,26.1,4.5c11.4,0,22.7-2.5,33.3-7.6l378.9-181c34.4-16.4,51.1-54.9,41.5-90.5c3.5-13,3.7-26.9,0-40.5
		c3.5-13,3.7-26.9,0-40.5c3.5-13,3.7-26.9,0-40.5C782,322.6,782.2,308.7,778.5,295.2z M668.7,277c-19.6-6.9-40.7-5.9-59.4,3.1
		L258,447.9l-6.6-13.8l367-175.3c7.7-3.7,15.9-5.5,24.2-5.5c6.4,0,12.8,1.1,19,3.3c14.3,5.1,25.7,15.3,32.2,28.9l5.5,11.4
		C690.9,288.1,680.5,281.2,668.7,277z M700.2,339.3L349,507.1c-13.6,6.5-28.9,7.3-43.2,2.2c-14.3-5.1-25.7-15.3-32.2-28.9l-6.4-13.4
		l351.2-167.8c7.7-3.7,15.9-5.5,24.2-5.5c6.4,0,12.8,1.1,19,3.3c14.3,5.1,25.7,15.3,32.2,28.9L700.2,339.3z M298.7,529.3
		c8.5,3,17.3,4.5,26.1,4.5c11.4,0,22.7-2.5,33.3-7.6l351.2-167.8l6.6,13.8L349,547.5c-13.6,6.5-28.9,7.3-43.2,2.2
		c-14.3-5.1-25.7-15.3-32.2-28.9l-5.5-11.4C276.5,518.3,286.9,525.1,298.7,529.3z M668.7,236.6c-19.6-6.9-40.7-5.9-59.4,3.1
		L242.3,415l-6.5-13.6c1.2-0.7,2.4-1.4,3.7-2l378.9-181c7.7-3.7,15.9-5.5,24.2-5.5c6.4,0,12.8,1.1,19,3.3
		c14.3,5.1,25.7,15.3,32.2,28.9l5.5,11.4C690.9,247.6,680.5,240.8,668.7,236.6z M298.7,569.8c8.5,3,17.3,4.5,26.1,4.5
		c11.4,0,22.7-2.5,33.3-7.6l367-175.3l6.5,13.6c-1.2,0.7-2.4,1.4-3.7,2L349,588c-13.6,6.5-28.9,7.3-43.2,2.2
		c-14.3-5.1-25.7-15.3-32.2-28.9l-5.5-11.4C276.5,558.7,286.9,565.6,298.7,569.8z M668.7,196.1c-19.6-6.9-40.7-5.9-59.4,3.1
		l-378.9,181c-1.3,0.6-2.5,1.3-3.7,2l-4.8-10.1c4.8-5.4,10.8-9.9,17.7-13.3l378.9-181c7.7-3.7,15.9-5.5,24.2-5.5
		c6.4,0,12.8,1.1,19,3.3c14.3,5.1,25.7,15.3,32.2,28.9l5.5,11.4C690.9,207.1,680.5,200.3,668.7,196.1z M298.7,610.2
		c8.5,3,17.3,4.5,26.1,4.5c11.4,0,22.7-2.5,33.3-7.6l378.9-181c1.3-0.6,2.5-1.3,3.7-2l4.8,10.1c-4.8,5.4-10.8,9.9-17.7,13.3
		L349,628.4c-13.6,6.5-28.9,7.3-43.2,2.2c-14.3-5.1-25.7-15.3-32.2-28.9l-5.5-11.4C276.5,599.2,286.9,606,298.7,610.2z M668.7,155.7
		c-19.6-6.9-40.7-5.9-59.4,3.1l-378.9,181c-6.8,3.2-12.8,7.4-18.1,12.1c-0.4-0.9-0.7-1.7-1.1-2.6c5-13.1,14.8-24.3,28.4-30.8
		l378.9-181c7.7-3.7,15.9-5.5,24.2-5.5c6.4,0,12.8,1.1,19,3.3c14.3,5.1,25.7,15.3,32.2,28.9l5.5,11.4
		C690.9,166.7,680.5,159.9,668.7,155.7z M298.7,650.7c8.5,3,17.3,4.5,26.1,4.5c11.4,0,22.7-2.5,33.3-7.6l378.9-181
		c6.8-3.2,12.8-7.4,18.1-12.1c0.4,0.9,0.7,1.7,1.1,2.6c-5,13.1-14.8,24.3-28.4,30.8L349,668.9c-13.6,6.5-28.9,7.3-43.2,2.2
		c-14.3-5.1-25.7-15.3-32.2-28.9l-5.5-11.4C276.5,639.6,286.9,646.5,298.7,650.7z M239.5,278L618.4,97c7.7-3.7,15.9-5.5,24.2-5.5
		c6.4,0,12.8,1.1,19,3.3c14.3,5.1,25.7,15.3,32.2,28.9l5.5,11.4c-8.4-8.8-18.8-15.7-30.6-19.9c-19.6-6.9-40.7-5.8-59.4,3.1
		l-378.9,181c-8,3.8-15,8.9-20.9,14.8C213.7,298.8,224.2,285.3,239.5,278z M727.9,528.3L349,709.3c-13.6,6.5-28.9,7.3-43.2,2.2
		c-14.3-5.1-25.7-15.3-32.2-28.9l-5.5-11.4c8.4,8.8,18.8,15.7,30.6,19.9c8.5,3,17.3,4.5,26.1,4.5c11.4,0,22.7-2.5,33.3-7.6L737,507
		c8-3.8,15-8.9,20.9-14.8C753.7,507.5,743.2,521,727.9,528.3z"/>
	<g>
		<path class="st1" d="M146.2,854.3V854c0-28.7,21.5-53.8,53.2-53.8s52.9,24.8,52.9,53.5v0.3c0,28.7-21.5,53.8-53.2,53.8
			S146.2,883,146.2,854.3z M240.1,854.3V854c0-23.6-17.2-42.9-41-42.9s-40.7,19-40.7,42.6v0.3c0,23.6,17.2,42.9,41,42.9
			S240.1,877.9,240.1,854.3z"/>
		<path class="st1" d="M275.1,829.2h11.4v15.4c6.2-9.2,15.3-17.1,29.4-17.1c18.4,0,36.7,14.6,36.7,39.8v0.3c0,25.1-18.1,40-36.7,40
			c-14.3,0-23.5-7.7-29.4-16.3v38.5h-11.4V829.2z M340.9,867.8v-0.3c0-18.1-12.5-29.7-27-29.7c-14.3,0-27.8,12-27.8,29.6v0.3
			c0,17.8,13.5,29.7,27.8,29.7C328.7,897.4,340.9,886.4,340.9,867.8z"/>
		<path class="st1" d="M369,867.8v-0.3c0-22.1,15.6-40,36.8-40c22.7,0,35.8,18.1,35.8,40.6c0,1.5,0,2.4-0.1,3.7h-60.9
			c1.6,16.6,13.4,26,27,26c10.5,0,18-4.3,24.2-10.8l7.1,6.4c-7.7,8.6-17.1,14.4-31.6,14.4C386.2,907.8,369,891.6,369,867.8z
			 M430.1,863.4c-1.2-14-9.2-26.1-24.5-26.1c-13.4,0-23.5,11.1-25,26.1H430.1z"/>
		<path class="st1" d="M461.7,829.2h11.4v13.4c5.1-8.3,13.1-15,26.3-15c18.6,0,29.4,12.5,29.4,30.7V906h-11.4v-44.9
			c0-14.3-7.7-23.2-21.2-23.2c-13.2,0-23,9.7-23,24.1v44h-11.4L461.7,829.2L461.7,829.2z"/>
		<path class="st1" d="M545.8,890.8l13.5-16.2c9.4,7.7,19.2,12.6,31,12.6c9.4,0,15-3.7,15-9.8v-0.3c0-5.8-3.6-8.8-20.9-13.2
			c-20.9-5.3-34.5-11.1-34.5-31.8v-0.3c0-18.9,15.2-31.3,36.4-31.3c15.2,0,28.1,4.8,38.6,13.2L613.1,831c-9.2-6.4-18.3-10.2-27-10.2
			c-8.8,0-13.4,4-13.4,9.1v0.3c0,6.8,4.5,9.1,22.4,13.7c21.1,5.5,33,13.1,33,31.2v0.3c0,20.6-15.7,32.2-38.2,32.2
			C574.2,907.5,558.3,902,545.8,890.8z"/>
		<path class="st1" d="M670,823.1h-31.6V802h86.1v21.1h-31.6V906H670V823.1z"/>
		<path class="st1" d="M742,802h79.2v20.8h-56.3V845h49.6v20.8h-49.6V906H742V802z"/>
	</g>
</g>
<rect x="466" y="-60" transform="matrix(0.7072 -0.7071 0.7071 0.7072 -125.8297 466.281)" class="st2" width="68" height="890.2"/>
</svg>
