<?xml version="1.0" encoding="UTF-8"?>
<svg width="256px" height="256px" viewBox="0 0 256 256" version="1.1" xmlns="http://www.w3.org/2000/svg" xmlns:xlink="http://www.w3.org/1999/xlink">
    <!-- Generator: Sketch 55.2 (78181) - https://sketchapp.com -->
    <title>ios-to-lingohub</title>
    <desc>Created with Sketch.</desc>
    <defs>
        <linearGradient x1="50%" y1="0%" x2="50%" y2="100%" id="linearGradient-1">
            <stop stop-color="#FFFFFF" offset="0%"></stop>
            <stop stop-color="#FFFFFF" stop-opacity="0.735768138" offset="100%"></stop>
        </linearGradient>
    </defs>
    <g id="New-Icons" stroke="none" stroke-width="1" fill="none" fill-rule="evenodd">
        <g id="iOS-to-LingoHub">
            <g id="ios-to-lingohub">
                <rect id="Rectangle-path" fill="#E72A24" fill-rule="nonzero" x="0" y="0" width="256" height="256"></rect>
                <path d="M117.961278,59.02 C126.542189,49.01 125.112037,39 125.112037,39 C125.112037,39 112.24067,39 102.944683,49.725 C94.3637711,59.02 96.508999,67.6 96.508999,67.6 C96.508999,67.6 107.950214,69.03 117.961278,59.02 Z M135.123101,116.935 C135.123101,98.345 150.139696,90.48 150.139696,90.48 C150.139696,90.48 142.273861,76.895 122.96681,76.895 C111.525594,76.895 102.944683,83.33 97.9391509,83.33 C92.2185432,83.33 84.3527076,77.61 73.6265681,77.61 C57.179821,77.61 40.0179979,91.91 40.0179979,119.795 C39.3029219,146.965 60.0401249,182 76.486872,182 C82.2074797,182 90.7883913,176.28 99.3693028,176.28 C107.950214,176.28 114.385898,182 122.251734,182 C140.128633,182 153,145.535 153,145.535 C153,145.535 135.123101,137.67 135.123101,116.935 Z" id="icons-/-platforms-/-apple" fill="url(#linearGradient-1)"></path>
                <path d="M153.230769,136 L153.230769,180.166769 C153.230769,184.620393 156.841145,188.230769 161.294769,188.230769 L180.705231,188.230769 C185.158855,188.230769 188.769231,184.620393 188.769231,180.166769 L188.769231,136 L206,136 L206,186.848 C206,197.425358 197.425358,206 186.848,206 L155.152,206 C144.574642,206 136,197.425358 136,186.848 L136,136 L153.230769,136 Z M166.434783,136 L175.565217,136 L175.565217,167.956522 L166.434783,167.956522 L166.434783,136 Z" id="Combined-Shape" fill="#492F5C" style="mix-blend-mode: multiply;"></path>
            </g>
        </g>
    </g>
</svg>