<svg id="Layer_1" data-name="Layer 1" xmlns="http://www.w3.org/2000/svg" viewBox="0 0 256 256"><defs><style>.cls-1{fill:#333;}.cls-2{fill:#67daf9;}</style></defs><title>react</title><rect class="cls-1" width="256" height="256"/><circle class="cls-2" cx="128" cy="127.97" r="15.41"/><path class="cls-2" d="M93.95,203.82H93.33a16.34,16.34,0,0,1-13.85-8,25.69,25.69,0,0,1-3.15-8.19c-1.25-5.85-1.2-13,.14-21.39a135.88,135.88,0,0,1,7.37-26.46,210.64,210.64,0,0,1,32.27-55.89,135.88,135.88,0,0,1,19.23-19.61c6.56-5.34,12.77-9,18.45-10.82a25.69,25.69,0,0,1,8.67-1.37,16.34,16.34,0,0,1,13.85,8,25.69,25.69,0,0,1,3.15,8.19c1.25,5.85,1.2,13-.14,21.39a135.88,135.88,0,0,1-7.37,26.46,203.43,203.43,0,0,1-14,29.19A203.43,203.43,0,0,1,139.68,172a135.89,135.89,0,0,1-19.23,19.61c-6.56,5.34-12.77,9-18.45,10.82A26.23,26.23,0,0,1,93.95,203.82ZM161.82,59.45a18.84,18.84,0,0,0-5.76,1A38.55,38.55,0,0,0,148.48,64,70.21,70.21,0,0,0,140,70a128.55,128.55,0,0,0-18.16,18.55A203.28,203.28,0,0,0,90.74,142.4a128.55,128.55,0,0,0-7,25,70.21,70.21,0,0,0-.94,10.35,38.55,38.55,0,0,0,.73,8.33c1,4.52,2.82,7.6,5.5,9.15s6.28,1.61,10.68.19a38.55,38.55,0,0,0,7.58-3.53,70.21,70.21,0,0,0,8.49-6A128.55,128.55,0,0,0,134,167.35a196,196,0,0,0,17.62-25.73A196,196,0,0,0,165,113.5a128.55,128.55,0,0,0,7-25A70.21,70.21,0,0,0,173,78.14a38.55,38.55,0,0,0-.73-8.33c-1-4.52-2.82-7.6-5.5-9.15A9.68,9.68,0,0,0,161.82,59.45Z"/><path class="cls-2" d="M128,162.69a203.44,203.44,0,0,1-32.27-2.49,135.89,135.89,0,0,1-26.6-6.85c-7.9-3-14.16-6.57-18.6-10.57A25.69,25.69,0,0,1,45,136a16.34,16.34,0,0,1,0-16,25.68,25.68,0,0,1,5.52-6.82c4.44-4,10.7-7.56,18.6-10.57a135.89,135.89,0,0,1,26.6-6.85,210.64,210.64,0,0,1,64.53,0,135.89,135.89,0,0,1,26.6,6.85c7.9,3,14.16,6.57,18.6,10.57A25.68,25.68,0,0,1,211,120a16.34,16.34,0,0,1,0,16,25.69,25.69,0,0,1-5.52,6.82c-4.44,4-10.7,7.56-18.6,10.57a135.89,135.89,0,0,1-26.6,6.85A203.44,203.44,0,0,1,128,162.69Zm0-62.07A196,196,0,0,0,96.91,103a128.55,128.55,0,0,0-25.14,6.46,70.21,70.21,0,0,0-9.44,4.36,38.55,38.55,0,0,0-6.85,4.8c-3.44,3.1-5.18,6.24-5.18,9.34s1.74,6.24,5.18,9.34a38.55,38.55,0,0,0,6.85,4.8,70.21,70.21,0,0,0,9.44,4.36,128.55,128.55,0,0,0,25.14,6.46A196,196,0,0,0,128,155.32a196,196,0,0,0,31.09-2.39,128.55,128.55,0,0,0,25.14-6.46,70.21,70.21,0,0,0,9.44-4.36,38.55,38.55,0,0,0,6.85-4.8c3.44-3.1,5.18-6.24,5.18-9.34s-1.74-6.24-5.18-9.34a38.55,38.55,0,0,0-6.85-4.8,70.21,70.21,0,0,0-9.44-4.36A128.55,128.55,0,0,0,159.09,103,196,196,0,0,0,128,100.62Z"/><path class="cls-2" d="M161.87,203.93a26.23,26.23,0,0,1-8-1.38c-5.69-1.84-11.89-5.48-18.45-10.82a135.88,135.88,0,0,1-19.23-19.61,203.43,203.43,0,0,1-18.29-26.7,203.43,203.43,0,0,1-14-29.19A135.88,135.88,0,0,1,76.5,89.77c-1.34-8.35-1.39-15.55-.14-21.39a25.69,25.69,0,0,1,3.15-8.19,16.34,16.34,0,0,1,13.85-8A25.68,25.68,0,0,1,102,53.56c5.69,1.84,11.89,5.48,18.45,10.82A135.88,135.88,0,0,1,139.71,84,203.43,203.43,0,0,1,158,110.69a203.43,203.43,0,0,1,14,29.19,135.88,135.88,0,0,1,7.37,26.46c1.34,8.35,1.39,15.55.14,21.39a25.68,25.68,0,0,1-3.15,8.19,16.8,16.8,0,0,1-5.88,5.81l-1.84-3.2,1.84,3.2a16.8,16.8,0,0,1-8,2.19h-0.62ZM94,59.55a9.68,9.68,0,0,0-4.92,1.21c-2.69,1.55-4.54,4.63-5.5,9.15a38.55,38.55,0,0,0-.73,8.33,70.21,70.21,0,0,0,.94,10.35,128.55,128.55,0,0,0,7,25,196,196,0,0,0,13.47,28.12,196,196,0,0,0,17.62,25.73A128.55,128.55,0,0,0,140,186a70.21,70.21,0,0,0,8.49,6,38.54,38.54,0,0,0,7.58,3.53c4.4,1.43,8,1.36,10.68-.19s4.54-4.63,5.5-9.15a38.55,38.55,0,0,0,.73-8.33,70.2,70.2,0,0,0-.94-10.35,128.55,128.55,0,0,0-7-25,196,196,0,0,0-13.47-28.12A196,196,0,0,0,134,88.65,128.55,128.55,0,0,0,115.83,70.1a70.2,70.2,0,0,0-8.49-6,38.55,38.55,0,0,0-7.58-3.53A18.85,18.85,0,0,0,94,59.55Z"/></svg>