<?xml version="1.0" encoding="UTF-8"?>
<svg width="256px" height="256px" viewBox="0 0 256 256" version="1.1" xmlns="http://www.w3.org/2000/svg" xmlns:xlink="http://www.w3.org/1999/xlink">
    <!-- Generator: Sketch 50.2 (55047) - http://www.bohemiancoding.com/sketch -->
    <title>deploy-to-testflight</title>
    <desc>Created with Sketch.</desc>
    <defs>
        <linearGradient x1="50%" y1="0%" x2="50%" y2="100%" id="linearGradient-1">
            <stop stop-color="#54C3FA" offset="0%"></stop>
            <stop stop-color="#1586F5" offset="100%"></stop>
        </linearGradient>
        <rect id="path-2" x="0" y="0" width="256" height="256"></rect>
        <linearGradient x1="131.787557%" y1="-228.891915%" x2="6.5725344%" y2="430.475917%" id="linearGradient-4">
            <stop stop-color="#FFFFFF" offset="0%"></stop>
            <stop stop-color="#FFFFFF" stop-opacity="0" offset="100%"></stop>
        </linearGradient>
        <linearGradient x1="62.6389714%" y1="39.9557359%" x2="155.019247%" y2="142.071588%" id="linearGradient-5">
            <stop stop-color="#FFFFFF" offset="0%"></stop>
            <stop stop-color="#FFFFFF" stop-opacity="0" offset="100%"></stop>
        </linearGradient>
    </defs>
    <g id="New-Icons" stroke="none" stroke-width="1" fill="none" fill-rule="evenodd">
        <g id="Deploy-to-Testflight">
            <g id="deploy-to-testflight">
                <mask id="mask-3" fill="white">
                    <use xlink:href="#path-2"></use>
                </mask>
                <use id="Rectangle" fill="url(#linearGradient-1)" xlink:href="#path-2"></use>
                <g id="propeller" mask="url(#mask-3)">
                    <g transform="translate(38.000000, 38.000000)">
                        <circle id="Oval-9" stroke="url(#linearGradient-4)" stroke-width="10" fill="none" cx="90" cy="90" r="85"></circle>
                        <path d="M172.17097,124.59063 C172.17097,124.737382 172.219106,124.884602 172.019618,125.031353 C172.019618,126.206769 171.777547,127.431883 171.245731,128.558538 L169.94003,131.301801 C169.843294,131.448552 169.795157,131.595772 169.698422,131.742523 C169.698422,131.791753 169.650285,131.791284 169.650285,131.840513 C169.650285,131.889743 169.601686,131.889274 169.601686,131.938504 C169.601686,131.987733 169.553549,132.036494 169.553549,132.036494 C169.50495,132.134484 169.408214,132.281236 169.360078,132.379226 C169.311478,132.428456 169.311478,132.428456 169.263342,132.477216 C169.166606,132.623968 169.11847,132.721958 169.021734,132.819948 L168.973598,132.868709 C168.973598,132.91747 168.973598,132.91747 168.925461,132.9667 C168.876862,133.015929 168.780126,133.06469 168.731989,133.16268 C168.683853,133.16268 168.683853,133.211441 168.683853,133.211441 C168.635254,133.260671 168.538518,133.358661 168.490381,133.407422 C168.490381,133.456183 168.490381,133.456183 168.490381,133.456183 C168.345509,133.602934 168.248773,133.700924 168.152038,133.798915 L168.103901,133.847675 C168.007165,133.945666 167.86183,134.092417 167.716958,134.190407 C167.620222,134.288398 167.523486,134.386388 167.378614,134.484379 L167.330478,134.533608 C167.330478,134.582369 167.281878,134.582369 167.281878,134.582369 C167.137006,134.680359 166.991671,134.77835 166.846799,134.87634 C166.750063,134.925101 166.701927,134.974331 166.605191,135.023091 C166.460319,135.121082 166.314983,135.219072 166.170111,135.267833 C166.121512,135.317063 166.073375,135.317063 165.97664,135.365823 C165.92804,135.415053 165.831304,135.415053 165.783168,135.463814 C165.638296,135.561804 165.492961,135.611034 165.348088,135.659795 C165.251353,135.708555 165.106018,135.757785 164.961145,135.806546 C164.767674,135.855306 164.574202,135.904536 164.380731,135.953297 C164.332594,135.953297 164.332594,135.953297 164.332594,135.953297 C164.235858,135.953297 164.090986,135.953297 163.99425,136.002058 C163.897514,136.002058 163.800779,136.050818 163.655906,136.050818 C163.414298,136.050818 163.172228,136.099579 162.93062,136.099579 C162.785284,136.099579 162.688549,136.099579 162.543676,136.099579 C162.446941,136.099579 162.302068,136.099579 162.205333,136.099579 C162.108597,136.099579 162.06046,136.099579 161.963725,136.099579 C161.770253,136.099579 161.576781,136.099579 161.38331,136.050818 C161.237975,136.001589 161.044503,136.001589 160.899631,135.952828 C160.851494,135.904067 160.802895,135.904067 160.754759,135.904067 C160.658023,135.904067 160.609886,135.904067 160.513151,135.855306 C160.416415,135.855306 160.368278,135.806546 160.271543,135.806546 C160.12667,135.757785 159.981335,135.708555 159.836463,135.659795 C159.787864,135.610565 159.691128,135.610565 159.642991,135.561804 C159.642991,135.513043 159.594855,135.513043 159.594855,135.513043 C159.44952,135.464283 159.352784,135.415053 159.207912,135.366292 L154.903401,133.406484 L139.910743,126.596855 C127.674823,121.011871 115.680974,114.594203 104.267077,107.490603 L101.365467,105.678015 C98.2703844,107.980555 94.4981517,109.303191 90.3871122,109.303191 C85.937729,109.303191 81.8266896,107.735344 78.6348715,105.090072 L76.361812,106.608689 C65.1413867,114.104251 53.3410095,120.86512 41.2985614,126.792836 L26.4993749,134.092417 L22.2434632,136.198976 C22.098591,136.248206 21.9532559,136.346196 21.8083836,136.394957 C21.6635114,136.443718 21.5181763,136.492947 21.373304,136.541708 C21.0830967,136.639699 20.7928893,136.737689 20.5026819,136.78645 C20.4540826,136.78645 20.3573468,136.83521 20.3092104,136.83521 C20.2610739,136.883971 20.2124746,136.883971 20.1643381,136.883971 C20.0676023,136.883971 20.0194659,136.932732 19.9227301,136.932732 C19.4871876,136.981962 19.1002445,137.030722 18.6651649,137.030722 C18.5198298,137.030722 18.3263582,137.030722 18.181486,137.030722 C18.0847502,137.030722 18.0366137,137.030722 17.9398779,137.030722 C17.7464064,136.981962 17.5047983,136.981962 17.3113267,136.932732 C17.1178552,136.883502 16.9725201,136.883502 16.8276478,136.834742 C16.6341763,136.834742 16.4888412,136.785512 16.3439689,136.736751 C16.0537615,136.687522 15.7635542,136.589531 15.4733468,136.44278 C15.3766111,136.394019 15.2317388,136.34479 15.135003,136.296029 C15.0382672,136.247268 14.9415314,136.198038 14.8447957,136.149278 L14.7966592,136.149278 C14.7480599,136.100517 14.6513241,136.051287 14.6031876,136.002527 C14.5550512,136.002527 14.5550512,136.002527 14.5550512,136.002527 C14.4583154,135.904536 14.3615796,135.855306 14.2648438,135.806546 C14.2167073,135.806546 14.2167073,135.806546 14.2167073,135.806546 C14.168108,135.757785 14.0713722,135.708555 14.0232358,135.659795 C13.9750993,135.659795 13.9750993,135.659795 13.9750993,135.659795 C13.9265,135.611034 13.8297642,135.561804 13.7816277,135.513043 C13.6362926,135.415053 13.5395568,135.317063 13.3946846,135.219072 C13.3460853,135.170311 13.2493495,135.121082 13.201213,135.072321 C13.201213,135.072321 13.1530766,135.072321 13.1530766,135.02356 C13.0563408,134.974331 13.0082043,134.87634 12.9114685,134.827579 C12.8147327,134.778819 12.7665963,134.680828 12.6698605,134.582838 L12.621724,134.534077 C12.5249882,134.436087 12.4282524,134.338096 12.3315167,134.191345 C12.2347809,134.044125 12.1380451,133.946135 12.0413093,133.799384 C11.99271,133.750623 11.8959742,133.652632 11.8478377,133.554642 C11.6543662,133.260671 11.4608946,132.9667 11.3160223,132.672728 L9.96172136,129.978227 C9.81638626,129.684256 9.67151401,129.341524 9.57477822,129.047553 C9.52664175,128.851572 9.47804244,128.704352 9.42990597,128.557601 C9.3817695,128.36162 9.33317019,128.2144 9.28503372,128.067649 C9.2364344,127.871668 9.2364344,127.724448 9.18829793,127.577697 C9.18829793,127.479706 9.14016147,127.332955 9.14016147,127.234965 C9.14016147,127.185735 9.14016147,127.087745 9.14016147,127.038984 C9.14016147,126.940993 9.14016147,126.891764 9.14016147,126.843003 C9.14016147,126.696252 9.14016147,126.549032 9.14016147,126.402281 C9.14016147,126.15707 9.14016147,125.863099 9.14016147,125.618357 C9.14016147,125.471137 9.18829793,125.275157 9.18829793,125.128405 C9.2364344,125.030415 9.2364344,124.932425 9.2364344,124.834434 C9.2364344,124.785205 9.2364344,124.785205 9.2364344,124.785205 C9.2364344,124.687214 9.28457087,124.589224 9.28457087,124.491233 C9.28457087,124.393243 9.28457087,124.246492 9.33270733,124.148501 C9.38130665,123.903291 9.42944312,123.70731 9.5261789,123.462569 C9.5261789,123.364578 9.57477822,123.217827 9.62291469,123.119837 C9.67151401,122.973086 9.76824979,122.825865 9.81638626,122.679114 C9.86498558,122.581124 9.86498558,122.532363 9.91312204,122.434373 C9.91312204,122.336382 9.96172136,122.287622 10.0098578,122.189631 C10.0579943,122.091641 10.1065936,121.99365 10.1547301,121.89566 C10.2028665,121.79767 10.2514659,121.699679 10.2996023,121.650918 C10.3482016,121.552928 10.4449374,121.406177 10.4930739,121.308186 C10.5412104,121.210196 10.6379462,121.063445 10.7346819,120.965454 C10.7828184,120.867464 10.8314177,120.818703 10.8795542,120.769474 C10.97629,120.671483 11.0730258,120.524732 11.1697615,120.426742 C11.1697615,120.377512 11.1697615,120.377512 11.1697615,120.377512 C11.2664973,120.230292 11.3632331,120.083541 11.5081054,119.985551 C12.0403836,119.446369 12.6689348,119.005647 13.3460853,118.613685 L17.5052612,116.359906 L31.974898,108.425497 C43.7757381,101.958599 56.1083935,96.1776345 68.5859212,91.3278131 L71.7777392,90.1031676 C71.9230743,82.5588446 76.4691934,76.1411768 82.9014288,73.2506945 L82.6112214,70.5074322 C81.208784,56.9861638 80.6283693,43.2689146 80.9185766,29.6984165 L81.3055197,13.0414554 L81.4022555,8.24039473 C81.4022555,8.09364356 81.4022555,7.99565316 81.4022555,7.89766276 C81.4022555,7.84890199 81.4022555,7.75091159 81.4022555,7.65292119 C81.4022555,7.60369157 81.4022555,7.55493079 81.4022555,7.55493079 C81.450392,7.4569404 81.450392,7.35895 81.450392,7.2609596 C81.450392,7.01621803 81.4989913,6.82023723 81.5471278,6.62425644 C81.5471278,6.52626604 81.5957271,6.47750527 81.5957271,6.37951487 C81.5957271,6.28152447 81.6438636,6.2327637 81.6438636,6.1347733 C81.6924629,6.08601253 81.6924629,5.98802213 81.7405994,5.89003173 C81.7405994,5.84127096 81.7891987,5.79204133 81.7891987,5.74328056 C81.8859345,5.54729976 81.9340709,5.35131897 82.0308067,5.15533817 C82.0308067,5.05734777 82.079406,5.008587 82.1275425,4.9105966 C82.175679,4.9105966 82.175679,4.86183583 82.175679,4.86183583 C82.175679,4.76384543 82.2242783,4.71508466 82.2724147,4.61709426 C82.3205512,4.51910386 82.3686877,4.42111346 82.417287,4.32312306 C82.4654235,4.22513267 82.5140228,4.12714227 82.5621592,4.02915187 C82.7070315,3.83317107 82.8523666,3.63719028 82.9972389,3.44120948 C83.0939746,3.29398946 83.1907104,3.19599906 83.2874462,3.04924789 C83.384182,2.95125749 83.4809178,2.80450632 83.5776536,2.70651592 C83.6743893,2.60852552 83.7711251,2.51053512 83.8678609,2.41254473 C83.9159974,2.3633151 83.9645967,2.3633151 83.9645967,2.31455433 C84.0613325,2.21656393 84.1580683,2.16780316 84.2548041,2.06981276 C84.3515398,1.97182236 84.4482756,1.87383196 84.5450114,1.82507119 C84.6417472,1.72708079 84.738483,1.62909039 84.8352188,1.58032962 C84.9805539,1.48233922 85.1740254,1.38434882 85.3188977,1.28635843 C85.4156335,1.2371288 85.5605057,1.1391384 85.6572415,1.09037763 C85.7539773,1.04161686 85.8507131,0.99238723 85.9474489,0.943626458 C86.0441846,0.894865686 86.1409204,0.84563606 86.2376562,0.796875287 C86.3825285,0.698884889 86.5278636,0.649655263 86.6727358,0.600894491 C86.7694716,0.551664865 86.8176081,0.551664865 86.9143439,0.502904092 C87.0110796,0.502904092 87.0592161,0.45414332 87.1559519,0.45414332 C87.2040884,0.45414332 87.2526877,0.405382548 87.3008241,0.405382548 C87.3975599,0.405382548 87.4456964,0.356621775 87.5424322,0.356621775 C87.5910315,0.356621775 87.6873044,0.307861003 87.7359038,0.307861003 C87.7840402,0.259100231 87.8326395,0.259100231 87.880776,0.259100231 C87.9289125,0.210339458 87.9775118,0.210339458 88.0256483,0.210339458 L88.0737847,0.210339458 C88.1219212,0.210339458 88.1705205,0.210339458 88.1705205,0.210339458 C88.2672563,0.210339458 88.3639921,0.210339458 88.4607279,0.161578686 C88.5574636,0.112817914 88.6541994,0.112817914 88.7509352,0.112817914 C88.9925433,0.0640571412 89.2827506,0.0640571412 89.572958,0.0640571412 L92.5713044,0.0640571412 C92.7161767,0.0640571412 92.8615118,0.0640571412 93.006384,0.0640571412 C93.1031198,0.0640571412 93.1998556,0.0640571412 93.2965914,0.0640571412 C93.3447279,0.0640571412 93.3928643,0.0640571412 93.4414637,0.0640571412 C93.5381994,0.112817914 93.5863359,0.112817914 93.6830717,0.112817914 C93.7798075,0.112817914 93.9246797,0.161578686 94.0214155,0.161578686 C94.0700148,0.161578686 94.0700148,0.161578686 94.1181513,0.161578686 C94.2148871,0.161578686 94.3116229,0.161578686 94.4083586,0.210339458 C94.5050944,0.210339458 94.5532309,0.259100231 94.6499667,0.259100231 C94.7467025,0.308329857 94.8915747,0.308329857 94.9883105,0.357090629 C94.9883105,0.357090629 95.0369098,0.405851401 95.0850463,0.405851401 C95.1817821,0.455081027 95.2299185,0.455081027 95.3266543,0.5038418 C95.4233901,0.553071425 95.4715266,0.553071425 95.5682624,0.601832198 C95.6168617,0.651061824 95.7135975,0.651061824 95.7617339,0.699822596 C95.8098704,0.699822596 95.8584697,0.699822596 95.9066062,0.748583368 L95.9547427,0.748583368 C96.003342,0.748583368 96.003342,0.748583368 96.003342,0.748583368 L96.0514784,0.748583368 C96.1482142,0.797344141 96.24495,0.846573767 96.3416858,0.895334539 C96.3898223,0.944564165 96.4384216,0.944564165 96.486558,0.993324937 C96.6318931,1.09131534 96.7281661,1.14007611 96.8735012,1.23806651 C97.0188363,1.3360569 97.1155721,1.38481768 97.2604443,1.48280808 C97.4057794,1.58079847 97.5025152,1.67878887 97.6473875,1.77677927 C97.6959868,1.82554004 97.7922597,1.87476967 97.840859,1.92353044 C97.8894583,1.97229121 97.9861941,2.02152084 98.0343306,2.07028161 C98.1796657,2.16827201 98.2764015,2.31502318 98.4212737,2.41301358 L98.4694102,2.46177435 C98.5175467,2.51053512 98.566146,2.55976475 98.6142825,2.60852552 C98.6624189,2.65728629 98.7110182,2.70651592 98.7591547,2.75527669 C98.807754,2.80450632 98.904027,2.85326709 98.9526263,2.95125749 C99.0007627,3.00001826 99.0493621,3.04924789 99.0974985,3.09800866 C99.1942343,3.19599906 99.2909701,3.29398946 99.3877059,3.44074063 C99.4358424,3.48997025 99.4844417,3.58796065 99.5325781,3.63672142 C99.5807146,3.68595105 99.6293139,3.78394145 99.6774504,3.83270222 C99.7260497,3.97945339 99.8227855,4.07744379 99.870922,4.17543419 C99.9676577,4.32218536 100.064394,4.46940538 100.11253,4.61615655 C100.160666,4.61615655 100.160666,4.66491732 100.160666,4.66491732 C100.209266,4.8116685 100.305539,4.95888852 100.354138,5.10563969 C100.354138,5.15440046 100.354138,5.15440046 100.354138,5.15440046 C100.402737,5.25239086 100.402737,5.30115163 100.450874,5.39914203 C100.499473,5.5458932 100.49901,5.6438836 100.54761,5.741874 C100.596209,5.8398644 100.596209,5.9378548 100.644345,6.08460597 C100.692482,6.18259636 100.692482,6.23182599 100.692482,6.28058676 C100.740618,6.42780679 100.789218,6.52579719 100.789218,6.67254836 C100.789218,6.72177798 100.789218,6.72177798 100.789218,6.77053875 L100.789218,6.81929953 L100.789218,6.8680603 C100.789218,6.9660507 100.837354,7.11280187 100.837354,7.21079227 C100.885491,7.35754344 100.885491,7.45553383 100.885491,7.55352423 C100.885491,7.60275386 100.885491,7.70074426 100.885491,7.74950503 C100.885491,7.84749543 100.885491,7.94548583 100.885491,8.04347622 L100.982226,12.8445369 L101.369169,29.501498 C101.707976,43.0719961 101.127561,56.838006 99.6765247,70.3105137 L99.2895815,73.7397088 C105.093266,76.972923 109.05897,83.1946101 109.05897,90.3474403 C109.05897,90.5434211 109.05897,90.7394019 109.05897,90.9353827 L111.622237,91.866057 C124.341836,96.3731465 136.819363,101.76215 148.765076,107.837085 L163.467526,115.381408 L167.626702,117.537197 C167.820174,117.635188 167.965046,117.733178 168.158518,117.831168 C168.206654,117.831168 168.206654,117.831168 168.206654,117.831168 C168.400126,117.929159 168.593597,118.027149 168.738469,118.1739 C168.835205,118.22313 168.883342,118.320651 168.980077,118.369881 C169.076813,118.419111 169.12495,118.517101 169.221685,118.565862 C169.318421,118.615091 169.366558,118.712613 169.463294,118.761843 C169.560029,118.811072 169.656765,118.909063 169.704902,118.957823 C170.333916,119.545766 170.865731,120.280459 171.252674,121.064383 C171.34941,121.162373 171.398009,121.260363 171.446146,121.407115 C171.494745,121.456344 171.494745,121.554335 171.542881,121.603095 C171.687754,121.946296 171.784489,122.240267 171.881225,122.582999 C171.929825,122.730219 171.929825,122.82821 171.977961,122.974961 C171.977961,123.023722 171.977961,123.023722 171.977961,123.023722 C171.977961,123.170473 172.02656,123.268463 172.02656,123.366454 C172.02656,123.464444 172.074697,123.513205 172.074697,123.611195 C172.074697,123.709186 172.122833,123.856406 172.122833,124.003157 C172.122833,124.149908 172.17097,124.297128 172.17097,124.443879 C172.17097,124.49264 172.17097,124.54187 172.17097,124.59063 Z M73.606925,102.250695 L75.202834,101.270322 C73.9452688,99.5069638 73.0265103,97.4983951 72.4460956,95.3426063 L70.4632434,96.1265295 C58.1787244,100.878829 46.0400034,106.561335 34.4326349,112.930242 L19.8755193,120.915756 L15.8130792,123.169535 C14.6041133,123.855468 14.0236986,125.226865 14.2171702,126.50074 C14.2657695,126.794711 14.3625053,127.137443 14.5073775,127.431414 L15.8616785,130.125916 C16.0070136,130.371126 16.1518859,130.615868 16.3453575,130.811849 C17.264116,131.791753 18.7632892,132.134484 20.0208544,131.497781 L24.1800303,129.439983 L39.1240891,122.091641 C50.9730656,116.261915 62.5799712,109.599037 73.606925,102.250695 Z M86.5195323,8.18928969 L86.37466,12.89236 L85.9877169,29.6960723 C85.6975095,43.0213599 86.2779242,56.4938675 87.6803617,69.8191551 L87.8738332,71.6809727 C88.695856,71.5337527 89.5178787,71.4849919 90.3885008,71.4849919 C91.7428018,71.4849919 93.0966399,71.6317431 94.3542051,71.9257142 L94.5958132,69.8191551 C96.0468499,56.5918579 96.5786653,43.0705895 96.288458,29.6960723 L95.9015148,12.89236 L95.804779,8.23805046 C95.804779,6.81742411 94.8374212,5.64153933 93.579856,5.24957774 C93.2896486,5.15158734 92.9994413,5.10282657 92.6610975,5.10282657 L89.662751,5.10282657 C89.421143,5.10282657 89.1790721,5.15205619 88.937464,5.20081697 C87.5836259,5.49478816 86.5676687,6.71943371 86.5195323,8.18928969 Z M161.386087,130.616337 C162.595053,131.204279 164.045627,130.861078 164.869038,129.880236 C165.111109,129.635495 165.30458,129.341524 165.449453,129.047553 L166.755154,126.30429 C166.85189,126.059549 166.948626,125.814338 166.996762,125.569597 C167.28697,124.246961 166.609819,122.777105 165.352254,122.140402 L161.241215,120.033842 L146.442028,112.489519 C134.689787,106.463813 122.405268,101.172801 109.927741,96.7637015 L108.186497,96.1269984 C107.557945,98.2335575 106.493852,100.193365 105.18815,101.907963 L106.977531,103.034618 C118.197956,110.040228 129.998333,116.359906 142.040781,121.846899 L157.178312,128.705758 L161.386087,130.616337 Z M90.4371001,104.063283 C97.8848298,104.063283 103.978721,97.9395863 103.978721,90.3460337 C103.978721,82.7524811 97.9334292,76.6287845 90.4371001,76.6287845 C82.9407711,76.6287845 76.8954788,82.8017108 76.8954788,90.3460337 C76.8954788,97.9395863 82.9893704,104.063283 90.4371001,104.063283 Z" id="Combined-Shape" stroke="none" fill="url(#linearGradient-5)" fill-rule="nonzero"></path>
                    </g>
                </g>
            </g>
        </g>
    </g>
</svg>