<?xml version="1.0" encoding="utf-8"?>
<!-- Generator: Adobe Illustrator 19.1.0, SVG Export Plug-In . SVG Version: 6.00 Build 0)  -->
<svg version="1.1" id="Layer_1" xmlns="http://www.w3.org/2000/svg" xmlns:xlink="http://www.w3.org/1999/xlink" x="0px" y="0px"
	 viewBox="0 0 256 256" enable-background="new 0 0 256 256" xml:space="preserve">
<rect fill="#2EA9E0" width="256" height="256"/>
<g>
	<path fill="#FFFFFF" d="M91.6,159.6h-7.7c-4.8,0-8.7-3.8-8.7-8.7c0-4.7,3.8-8.7,8.7-8.7h10.7l5-29.1h-9.7c-4.7,0-8.7-4-8.7-8.7
		c0-4.7,4-8.7,8.7-8.7h12.7l3.3-19.9c0.7-4.3,4.3-7.2,8.7-7.2c5.5,0,9.4,5,8.7,10.2l-3,16.9h26.2l3.3-19.9c0.7-4.3,4.3-7.2,8.9-7.2
		c5.3,0,9.4,5,8.5,10.2l-2.8,16.9h7.7c4.7,0,8.7,3.8,8.7,8.7c0,4.7-4,8.7-8.7,8.7h-10.7l-5,29.1h9.5c4.8,0,8.7,3.8,8.7,8.7
		c0,4.7-3.8,8.7-8.7,8.7h-12.5l-3.5,20.5c-0.7,4.2-4.3,7.2-8.7,7.2c-5.5,0-9.5-5-8.7-10.2l3.2-17.5h-26.2l-3.5,20.5
		c-0.7,3.7-3.8,7.2-8.9,7.2c-5.3,0-9.4-4.5-8.5-10.2L91.6,159.6z M138.5,142.2l5-29.1h-26.1l-5,29.1H138.5z"/>
</g>
</svg>
