<?xml version="1.0" encoding="UTF-8"?>
<svg width="256px" height="256px" viewBox="0 0 256 256" version="1.1" xmlns="http://www.w3.org/2000/svg" xmlns:xlink="http://www.w3.org/1999/xlink">
    <!-- Generator: Sketch 56.2 (81672) - https://sketch.com -->
    <title>generate-xchtml-file</title>
    <desc>Created with Sketch.</desc>
    <defs>
        <linearGradient x1="50%" y1="0%" x2="50%" y2="100%" id="linearGradient-1">
            <stop stop-color="#54C3FA" offset="0%"></stop>
            <stop stop-color="#1586F5" offset="100%"></stop>
        </linearGradient>
        <linearGradient x1="92.9851265%" y1="-11.0977103%" x2="14.2180266%" y2="109.263393%" id="linearGradient-2">
            <stop stop-color="#FFFFFF" stop-opacity="0.399060236" offset="0%"></stop>
            <stop stop-color="#FFFFFF" offset="100%"></stop>
        </linearGradient>
        <linearGradient x1="50%" y1="45.7465278%" x2="70.7817359%" y2="54.2534722%" id="linearGradient-3">
            <stop stop-color="#135EA7" stop-opacity="0.855383832" offset="0%"></stop>
            <stop stop-color="#1E568F" offset="100%"></stop>
        </linearGradient>
        <linearGradient x1="-20.9907661%" y1="123.982136%" x2="94.5932761%" y2="6.14922306%" id="linearGradient-4">
            <stop stop-color="#FFFFFF" stop-opacity="0.399060236" offset="0%"></stop>
            <stop stop-color="#FFFFFF" offset="100%"></stop>
        </linearGradient>
        <linearGradient x1="50%" y1="0%" x2="54.8606543%" y2="100%" id="linearGradient-5">
            <stop stop-color="#135EA7" stop-opacity="0.855383832" offset="0%"></stop>
            <stop stop-color="#1E568F" offset="100%"></stop>
        </linearGradient>
    </defs>
    <g id="New-Icons" stroke="none" stroke-width="1" fill="none" fill-rule="evenodd">
        <g id="Generate-Xcode-test-HTML/JUnit-report">
            <g id="generate-xchtml-file">
                <rect id="Rectangle" fill="url(#linearGradient-1)" x="0" y="0" width="256" height="256"></rect>
                <path d="M69,37 L159.738281,37 L193,71.9585974 L193,211 C193,214.313708 190.313708,217 187,217 L69,217 C65.6862915,217 63,214.313708 63,211 L63,43 C63,39.6862915 65.6862915,37 69,37 Z" id="Rectangle-6" fill="url(#linearGradient-2)"></path>
                <text id="XCHTML" fill="url(#linearGradient-3)" style="mix-blend-mode: multiply;" font-family="TTNorms-ExtraBold, TT Norms" font-size="24" font-weight="600" letter-spacing="-1.47899995">
                    <tspan x="80" y="198">XCHTML</tspan>
                </text>
                <path d="M158.731207,37.3828125 L192.784706,72.2668851 L164.731207,72.2668851 C161.417498,72.2668851 158.731207,69.5805936 158.731207,66.2668851 L158.731207,37.3828125 Z" id="Rectangle-6-Copy-3" fill="url(#linearGradient-4)"></path>
                <path d="M142.147197,79.0557246 C144.780074,79.133744 146.262792,81.2365143 146.284113,81.2365143 C148.822247,81.2365143 150.609251,81.2365143 151.664869,81.2365143 C151.664869,77.4846694 151.664869,70.2296823 151.664869,69.1216797 C149.987222,69.1216797 149.343036,69.1216797 146.284113,69.1216797 C144.925762,70.2019703 144.409728,70.8720419 142.50225,70.9631607 C139.590965,71.1022305 139.390569,68.4181816 129.279276,68.4181816 C119.167983,68.4181816 109.604463,73.0683311 104.75349,78.4891234 C105.936344,78.1350384 106.614347,77.9338194 107.502879,77.4846694 C113.199318,74.6051389 118.695825,74.0533531 122.911785,77.4846694 C127.785353,81.4512035 129.05091,90.6854443 128.318427,104.263446 C127.678447,116.12673 126.458885,128.965301 125.143969,160.741033 C125.051059,162.986272 126.831685,165.418182 131.466853,165.418182 C134.871945,165.418182 137.205733,162.915304 137.205733,160.741033 C137.205733,147.664552 135.904748,124.526364 135.206268,104.263446 C134.718783,90.1215079 133.134958,78.7886669 142.147197,79.0557246 Z" id="Oval" fill="url(#linearGradient-5)" style="mix-blend-mode: multiply;" transform="translate(128.209180, 116.918182) rotate(15.000000) translate(-128.209180, -116.918182) "></path>
            </g>
        </g>
    </g>
</svg>