<svg id="Layer_1" data-name="Layer 1" xmlns="http://www.w3.org/2000/svg" viewBox="0 0 256 256"><defs><style>.cls-1{fill:#b455b6;}.cls-2{fill:#fff;}</style></defs><title>xamarin_insights</title><rect class="cls-1" width="256" height="256"/><path id="path19468" class="cls-2" d="M128,64.39A63.59,63.59,0,1,1,64.51,128,63.5,63.5,0,0,1,128,64.39Zm0,27.38-12.52,40.81-8.59-23.11a4.23,4.23,0,0,0-7.85-.25l-6.38,14.5H77.19a4.24,4.24,0,0,0,0,8.48H95.48a4.23,4.23,0,0,0,3.8-2.46l3.31-7.5,9.33,25a4.23,4.23,0,0,0,8-.24l11.78-38.47,14.48,56a4.23,4.23,0,0,0,8.1.24l10.55-32.57h14a4.24,4.24,0,0,0,0-8.48H161.87a4.23,4.23,0,0,0-4.05,2.95l-7.12,21.63L136.22,91.89A4.26,4.26,0,0,0,128,91.77ZM208.38,128A80.38,80.38,0,1,1,128,47.5,80.44,80.44,0,0,1,208.38,128ZM128,56a72,72,0,1,0,71.89,72A72,72,0,0,0,128,56Z"/></svg>