<?xml version="1.0" encoding="utf-8"?>
<!-- Generator: Adobe Illustrator 21.1.0, SVG Export Plug-In . SVG Version: 6.00 Build 0)  -->
<svg version="1.1" xmlns="http://www.w3.org/2000/svg" xmlns:xlink="http://www.w3.org/1999/xlink" x="0px" y="0px"
	 viewBox="0 0 256 256" enable-background="new 0 0 256 256" xml:space="preserve">
<g>
	<g>
		<path fill="#478AFF" d="M129,41.3c-18.5,0-33.5,15-33.5,33.5c0,18.5,15,33.5,33.5,33.5s33.5-15,33.5-33.5
			C162.5,56.3,147.5,41.3,129,41.3z"/>
		<circle fill="#478AFF" cx="177.1" cy="29" r="15.3"/>
		<path fill="#478AFF" d="M195.9,44.3l-0.6-1.4l-1,1.2c-2.5,2.8-5.7,5-9.2,6.3l-1,0.4l0.4,1c3.1,7.3,4.6,15.1,4.6,23
			c0,33.1-26.9,60.1-60.1,60.1s-60.1-26.9-60.1-60.1S95.9,14.7,129,14.7c9,0,17.6,2,25.7,5.8l0.9,0.4l0.4-1
			c1.5-3.5,3.8-6.5,6.8-8.9l1.2-1l-1.4-0.7C152.2,4,140.9,1.3,129,1.3c-40.5,0-73.5,33-73.5,73.5c0,40.5,33,73.5,73.5,73.5
			s73.5-33,73.5-73.5C202.5,64.2,200.3,53.9,195.9,44.3z"/>
	</g>
	<g>
		<rect x="3.7" y="190" fill="#478AFF" width="15.5" height="64"/>
		<rect x="170.9" y="190" fill="#478AFF" width="15.5" height="64"/>
		<path fill="#478AFF" d="M135.1,188.5c-10.9,0-19.3,6.6-21.2,8.4v0l-1-6.9H100v64h15.5l0,0l0-38.7c0-7.6,10.3-13.8,17.9-13.8
			c7.4,0,13.2,7.2,13.2,15.8V254H162v-35.2C162,202,154.8,188.5,135.1,188.5z"/>
		<path fill="#478AFF" d="M227.1,242.4c-11.7,0-19.4-9.1-19.4-20.4s7.7-20.4,19.4-20.4c9.9,0,16,9.6,16,9.6l11.2-7.5
			c-3.3-5-7-8-12.1-11.1c-3.8-2.3-8.9-4.2-14.6-4.2c-19.4,0-34.2,14.6-34.3,33.5c0.1,18.9,14.9,33.5,34.3,33.5
			c5.7,0,10.8-1.9,14.6-4.2c5.1-3.1,8.9-6.1,12.1-11.1l-11.2-7.5C243.1,232.8,237.1,242.4,227.1,242.4z"/>
		<path fill="#478AFF" d="M59.6,188.5c-19.5,0-33.5,15.3-33.5,33.2c0,18.2,13.6,33.8,33.8,33.8
			c18.3,0,33.2-14,33.2-33.4C93.1,200,75.7,188.5,59.6,188.5L59.6,188.5z M59.8,201.7c9.6,0,18.7,7.8,18.7,20.4
			c0,12.3-9.1,20.3-18.8,20.3c-10.6,0-19-8.6-19-20.4C40.7,210.4,49,201.7,59.8,201.7L59.8,201.7z"/>
	</g>
</g>
</svg>
