<?xml version="1.0" encoding="UTF-8"?>
<svg width="256px" height="256px" viewBox="0 0 256 256" version="1.1" xmlns="http://www.w3.org/2000/svg" xmlns:xlink="http://www.w3.org/1999/xlink">
    <!-- Generator: Sketch 50.2 (55047) - http://www.bohemiancoding.com/sketch -->
    <title>set-ios-version-stepicon</title>
    <desc>Created with Sketch.</desc>
    <defs>
        <linearGradient x1="50%" y1="0%" x2="50%" y2="100%" id="linearGradient-1">
            <stop stop-color="#54C3FA" offset="0%"></stop>
            <stop stop-color="#1586F5" offset="100%"></stop>
        </linearGradient>
        <rect id="path-2" x="0" y="0" width="256" height="256"></rect>
        <linearGradient x1="62.6389714%" y1="39.9557359%" x2="155.019247%" y2="142.071588%" id="linearGradient-4">
            <stop stop-color="#FFFFFF" offset="0%"></stop>
            <stop stop-color="#FFFFFF" stop-opacity="0" offset="100%"></stop>
        </linearGradient>
        <linearGradient x1="50%" y1="0%" x2="70.7817359%" y2="100%" id="linearGradient-5">
            <stop stop-color="#135EA7" stop-opacity="0.855383832" offset="0%"></stop>
            <stop stop-color="#1E568F" offset="100%"></stop>
        </linearGradient>
    </defs>
    <g id="New-Icons" stroke="none" stroke-width="1" fill="none" fill-rule="evenodd">
        <g id="Set-iOS-Version">
            <g id="set-ios-version-stepicon">
                <mask id="mask-3" fill="white">
                    <use xlink:href="#path-2"></use>
                </mask>
                <use id="Rectangle" fill="url(#linearGradient-1)" xlink:href="#path-2"></use>
                <g id="hammer" mask="url(#mask-3)" fill="url(#linearGradient-4)">
                    <g transform="translate(120.742663, 126.367897) rotate(15.000000) translate(-120.742663, -126.367897) translate(67.742663, 16.867897)" id="Oval">
                        <path d="M83.8777813,24.0167206 C89.7658802,24.1928677 93.0817914,28.9403593 93.1294731,28.9403593 C98.8056887,28.9403593 102.802098,28.9403593 105.162854,28.9403593 C105.162854,20.4696992 105.162854,4.08988294 105.162854,1.58831011 C101.411008,1.58831011 99.9703677,1.58831011 93.1294731,1.58831011 C90.091692,4.02731666 88.9376482,5.54015866 84.6718137,5.74588046 C78.1610914,6.059863 77.7129304,1.42108547e-14 55.1003005,1.42108547e-14 C32.4876705,1.42108547e-14 11.100063,10.4987911 0.251475674,22.7374871 C2.89677857,21.9380581 4.41304652,21.4837596 6.40013686,20.4696992 C19.1395031,13.9684912 31.431747,12.7227067 40.8602111,20.4696992 C51.75933,29.4250699 54.5895882,50.2735105 52.9514825,80.9289994 C51.5202473,107.713114 48.7928513,136.699167 45.8522086,208.440252 C45.644426,213.509399 49.6265709,219 59.9925409,219 C67.6075987,219 72.8268225,213.349173 72.8268225,208.440252 C72.8268225,178.917063 69.9173327,126.677237 68.3552696,80.9289994 C67.2650712,49.0002934 63.7230459,23.4137761 83.8777813,24.0167206 Z"></path>
                    </g>
                </g>
                <path d="M61.6,72 L81.6,72 L81.6,184 L57.6,184 L57.6,102.4 L38.4,102.4 L38.4,87.2 C56.8,84.8 61.6,72 61.6,72 Z M93.3400003,173.6 C93.3400003,167.2 98.9400003,161.6 106.14,161.6 C113.34,161.6 118.94,167.2 118.94,173.6 C118.94,180 113.34,185.6 106.14,185.6 C98.9400003,185.6 93.3400003,180 93.3400003,173.6 Z M149.080001,128 C149.080001,152.8 161.080001,164.8 173.080001,164.8 C185.080001,164.8 197.080001,152.8 197.080001,128 C197.080001,103.2 185.080001,91.2 173.080001,91.2 C161.080001,91.2 149.080001,103.2 149.080001,128 Z M221.080001,128 C221.080001,164 198.680001,186.4 173.080001,186.4 C147.480001,186.4 125.080001,164 125.080001,128 C125.080001,92 147.480001,69.6 173.080001,69.6 C198.680001,69.6 221.080001,92 221.080001,128 Z" id="1.0" fill="url(#linearGradient-5)" style="mix-blend-mode: multiply;" mask="url(#mask-3)"></path>
            </g>
        </g>
    </g>
</svg>