<?xml version="1.0" encoding="UTF-8" standalone="no"?>
<svg
   width="256"
   height="256"
   viewBox="0 0 256 256"
   fill="none"
   version="1.1"
   id="svg7"
   xmlns="http://www.w3.org/2000/svg"
   xmlns:svg="http://www.w3.org/2000/svg">
  <rect
     style="fill:#ffffff;fill-opacity:1"
     id="rect7"
     width="256"
     height="256"
     x="0"
     y="0" />
  <path
     d="m 223.66267,140.62715 c 4.76077,60.04498 -49.67113,101.73881 -101.91803,84.03698 C 101.99708,217.97317 83.038683,208.48978 65.432349,196.49626 18.475451,164.50803 15.57831,91.267128 59.930781,55.854586 73.204929,45.256039 87.417015,36.262666 102.30286,28.980711 c 43.90087,-21.4757985 98.61791,8.493734 112.38154,59.62567 4.55347,16.918339 7.57721,34.349399 8.97827,52.020769 z"
     fill="url(#paint0_linear_8713_13222)"
     id="path1"
     style="fill:url(#paint0_linear_8713_13222);stroke-width:0.808498" />
  <path
     d="M 180.9103,189.33125 C 162.79413,220.02901 123.23149,226.06404 97.610008,202.01773 73.81055,179.68162 55.102346,151.61662 43.236093,120.45798 30.358278,86.643452 49.610548,49.275883 83.540413,42.192929 110.525,36.559767 138.14522,36.810864 164.69399,42.612575 c 29.68847,6.487927 49.16996,36.347548 44.27893,67.866585 -4.30803,27.76542 -13.76364,54.62226 -28.06262,78.85209 z"
     fill="url(#paint1_linear_8713_13222)"
     id="path2"
     style="fill:url(#paint1_linear_8713_13222);stroke-width:0.808498" />
  <path
     d="m 186.86086,169.32092 c -5.13884,17.68537 -20.1304,30.67965 -37.36335,27.16381 -34.94326,-7.12879 -60.240842,-23.35005 -83.898368,-52.22981 -11.761648,-14.35799 -10.704256,-36.132 2.350996,-49.097738 23.390497,-23.230467 52.381522,-38.06621 82.942082,-43.33141 15.30133,-2.636221 30.14595,6.693182 35.69939,22.435455 10.96072,31.072553 8.41196,67.032553 0.26925,95.059693 z"
     fill="#33109f"
     id="path3"
     style="stroke-width:0.808498" />
  <path
     d="m 106.53942,89.469704 c -12.542717,0 -22.710533,10.535996 -22.710533,23.531926 v 33.33794 c 0,4.33225 3.389326,7.84398 7.570205,7.84398 4.18088,0 7.570128,-3.51173 7.570128,-7.84398 v -29.41553 c 0,-6.49838 5.08419,-11.76638 11.35562,-11.76638 h 7.57004 c 2.09049,0 3.78463,1.75628 3.78463,3.9224 v 29.41553 c 0,4.33225 3.38909,7.84398 7.57005,7.84398 4.18096,0 7.57084,-3.51173 7.57084,-7.84398 v -29.41553 c 0,-2.16612 1.69414,-3.9224 3.78463,-3.9224 h 5.67733 c 6.27144,0 11.35547,5.268 11.35547,11.76638 v 29.41553 c 0,4.33225 3.38909,7.84398 7.57004,7.84398 4.18097,0 7.57005,-3.51173 7.57005,-7.84398 v -33.33794 c 0,-12.99593 -10.16726,-23.531926 -22.71014,-23.531926 z"
     fill="#ffffff"
     id="path4"
     style="stroke-width:0.808498" />
  <defs
     id="defs7">
    <linearGradient
       id="paint0_linear_8713_13222"
       x1="106.12"
       y1="51.3452"
       x2="240.793"
       y2="285.63501"
       gradientUnits="userSpaceOnUse"
       gradientTransform="matrix(0.79425516,0,0,0.82299628,20.133197,13.890664)">
      <stop
         stop-color="#5DEAF4"
         stop-opacity="0"
         id="stop4" />
      <stop
         offset="1"
         stop-color="#5DEAF4"
         id="stop5" />
    </linearGradient>
    <linearGradient
       id="paint1_linear_8713_13222"
       x1="-73.738403"
       y1="41.084"
       x2="275"
       y2="280.19"
       gradientUnits="userSpaceOnUse"
       gradientTransform="matrix(0.79425516,0,0,0.82299628,20.133197,13.890664)">
      <stop
         offset="0.182292"
         stop-color="#8146FF"
         id="stop6" />
      <stop
         offset="0.771826"
         stop-color="#7000FF"
         stop-opacity="0"
         id="stop7" />
    </linearGradient>
  </defs>
</svg>
