<?xml version="1.0" encoding="utf-8"?>
<!-- Generator: Adobe Illustrator 19.1.0, SVG Export Plug-In . SVG Version: 6.00 Build 0)  -->
<svg version="1.1" id="Layer_1" xmlns="http://www.w3.org/2000/svg" xmlns:xlink="http://www.w3.org/1999/xlink" x="0px" y="0px"
	 viewBox="0 0 256 256" enable-background="new 0 0 256 256" xml:space="preserve">
<rect y="0" fill="#C12126" width="256" height="256"/>
<path fill="#FFFFFF" d="M128,105c-12.7,0-23,10.3-23,23c0,12.7,10.3,23,23,23c12.7,0,23-10.3,23-23C151,115.3,140.7,105,128,105z
	 M92.1,128c0-19.8,16.1-35.9,35.9-35.9c19.8,0,35.9,16.1,35.9,35.9c0,1.3-0.1,2.6-0.2,3.9c-0.3,3.5,2.3,6.2,5.8,6.2
	c5.9,0,6.5-7.6,6.5-10.1c0-26.5-21.5-48-48-48s-48,21.5-48,48c0,26.5,21.5,48,48,48c14.1,0,26.8-6.1,35.6-15.7l9.9,8.3
	c-11.2,12.5-27.4,20.3-45.4,20.3c-33.7,0-60.9-27.3-60.9-60.9S94.3,67.1,128,67.1c33.7,0,60.9,27.3,60.9,60.9
	c0,13.5-6.4,24.5-19.4,24.5c-5.7,0-9.2-2.6-11-5.5c-6.3,10.2-17.6,16.9-30.5,16.9C108.2,163.9,92.1,147.8,92.1,128z M128,117.5
	c5.8,0,10.5,4.7,10.5,10.5c0,5.8-4.7,10.5-10.5,10.5c-5.8,0-10.5-4.7-10.5-10.5S122.2,117.5,128,117.5z"/>
</svg>
