<?xml version="1.0" encoding="UTF-8"?>
<svg width="256px" height="256px" viewBox="0 0 256 256" version="1.1" xmlns="http://www.w3.org/2000/svg" xmlns:xlink="http://www.w3.org/1999/xlink">
    <!-- Generator: Sketch 50.2 (55047) - http://www.bohemiancoding.com/sketch -->
    <title>mailgun-stepicon</title>
    <desc>Created with Sketch.</desc>
    <defs></defs>
    <g id="New-Icons" stroke="none" stroke-width="1" fill="none" fill-rule="evenodd">
        <g id="Mailgun">
            <g id="mailgun-stepicon">
                <rect id="Rectangle" fill="#FFFFFF" x="0" y="-2.84217094e-14" width="256" height="256"></rect>
                <path d="M127.871921,98.5418719 C111.605911,98.5418719 98.4137931,111.73399 98.4137931,128 C98.4137931,144.26601 111.605911,157.458128 127.871921,157.458128 C144.137931,157.458128 157.330049,144.26601 157.330049,128 C157.330049,111.73399 144.137931,98.5418719 127.871921,98.5418719 Z M81.8916256,128 C81.8916256,102.640394 102.512315,82.0197044 127.871921,82.0197044 C153.231527,82.0197044 173.852217,102.640394 173.852217,128 C173.852217,129.665025 173.724138,131.330049 173.596059,132.995074 C173.211823,137.477833 176.541872,140.935961 181.024631,140.935961 C188.581281,140.935961 189.349754,131.20197 189.349754,128 C189.349754,94.0591133 161.812808,66.5221675 127.871921,66.5221675 C93.9310345,66.5221675 66.3940887,94.0591133 66.3940887,128 C66.3940887,161.940887 93.9310345,189.477833 127.871921,189.477833 C145.931034,189.477833 162.197044,181.665025 173.46798,169.369458 L186.147783,180 C171.802956,196.009852 151.054187,206 128,206 C84.8374384,206 50,171.034483 50,128 C50,84.9655172 84.7093596,50 127.871921,50 C171.034483,50 205.871921,84.9655172 205.871921,128 C205.871921,145.29064 197.674877,159.37931 181.024631,159.37931 C173.724138,159.37931 169.241379,156.049261 166.935961,152.334975 C158.866995,165.399015 144.394089,173.980296 127.871921,173.980296 C102.512315,173.980296 81.8916256,153.359606 81.8916256,128 Z M127.871921,114.551724 C135.300493,114.551724 141.320197,120.571429 141.320197,128 C141.320197,135.428571 135.300493,141.448276 127.871921,141.448276 C120.44335,141.448276 114.423645,135.428571 114.423645,128 C114.423645,120.571429 120.44335,114.551724 127.871921,114.551724 Z" id="Shape" fill="#C02025" fill-rule="nonzero"></path>
            </g>
        </g>
    </g>
</svg>