<?xml version="1.0" encoding="UTF-8"?>
<svg width="256px" height="256px" viewBox="0 0 256 256" version="1.1" xmlns="http://www.w3.org/2000/svg" xmlns:xlink="http://www.w3.org/1999/xlink">
    <!-- Generator: Sketch 56.2 (81672) - https://sketch.com -->
    <title>microsoft-teams-stepicon</title>
    <desc>Created with Sketch.</desc>
    <defs>
        <linearGradient x1="50%" y1="0%" x2="50%" y2="100%" id="linearGradient-1">
            <stop stop-color="#5558AF" offset="0%"></stop>
            <stop stop-color="#8E91D8" stop-opacity="0.64652535" offset="100%"></stop>
        </linearGradient>
    </defs>
    <g id="New-Icons" stroke="none" stroke-width="1" fill="none" fill-rule="evenodd">
        <g id="Send-Microsoft-Teams-Message">
            <g id="microsoft-teams-stepicon">
                <rect id="Rectangle-path" fill="#FFFFFF" fill-rule="nonzero" x="0" y="0" width="256" height="256"></rect>
                <g id="Group" transform="translate(49.000000, 44.000000)">
                    <path d="M126.926952,56.6246851 C128.154912,57.8526448 129.603275,58.8287154 131.202771,59.5088161 C134.540302,60.906801 138.299748,60.906801 141.643577,59.5088161 C144.867758,58.1360202 147.437028,55.5730479 148.803526,52.3488665 C150.201511,49.011335 150.201511,45.2518892 148.803526,41.9080605 C147.43073,38.6838791 144.867758,36.1146096 141.643577,34.7481108 C138.306045,33.3501259 134.546599,33.3501259 131.202771,34.7481108 C127.978589,36.1209068 125.40932,38.6838791 124.042821,41.9080605 C122.644836,45.2455919 122.644836,49.0050378 124.042821,52.3488665 C124.722922,53.9420655 125.70529,55.3967254 126.926952,56.6246851 L126.926952,56.6246851 Z M122.997481,69.0806045 L122.997481,109.515113 L129.735516,109.515113 C132.052897,109.502519 134.357683,109.288413 136.630982,108.860202 C138.916877,108.457179 141.120907,107.688917 143.161209,106.580605 C145.088161,105.535264 146.75063,104.061713 148.028967,102.285894 C149.370277,100.314861 150.044081,97.965995 149.949622,95.5793451 L149.949622,69.0806045 L122.997481,69.0806045 Z M101.15869,52.1284635 C102.947103,52.1410579 104.722922,51.7821159 106.372796,51.0768262 C109.596977,49.7040302 112.15995,47.1410579 113.526448,43.9168766 C114.924433,40.5793451 114.924433,36.8198992 113.520151,33.4760705 C112.147355,30.2518892 109.584383,27.6826196 106.360202,26.3161209 C104.710327,25.6108312 102.934509,25.2518892 101.139798,25.2644836 C99.3576826,25.2518892 97.5944584,25.6108312 95.9571788,26.3161209 C94.7355164,26.8387909 94.3513854,27.5188917 92.6700252,28.3375315 L92.6700252,49.0554156 C94.3576826,49.8803526 94.7355164,50.5541562 95.9571788,51.0768262 C97.6007557,51.7884131 99.3702771,52.1410579 101.15869,52.1284635 L101.15869,52.1284635 Z M92.6700252,120.207809 C94.3576826,120.573048 94.9622166,120.856423 96.1586902,121.020151 C97.4685139,121.209068 98.790932,121.303526 100.11335,121.309824 C102.153652,121.297229 104.193955,121.083123 106.190176,120.654912 C108.224181,120.245592 110.176322,119.483627 111.952141,118.406801 C113.696474,117.336272 115.163728,115.875315 116.246851,114.143577 C117.443325,112.122166 118.028967,109.792191 117.940806,107.443325 L117.940806,60.6549118 L92.6700252,60.6549118 L92.6700252,120.207809 L92.6700252,120.207809 Z M0,133.104534 L87.6133501,148.268262 L87.6133501,-3.26849658e-13 L0,15.163728 L0,133.104534 Z" id="Shape" fill="url(#linearGradient-1)" fill-rule="nonzero"></path>
                    <polygon id="Path" fill="#FFFFFF" points="64.0239295 45.4911839 23.5894207 47.9534005 23.5894207 57.279597 38.7531486 56.6687657 38.7531486 99.9118388 48.8602015 100.503778 48.8602015 56.2720403 64.0239295 55.5982368"></polygon>
                </g>
                <path d="M137,137 L137,201 L153.625,191.289655 C154.9375,190.406897 156.6875,189.965517 158,189.965517 L207,189.965517 L207,137 L137,137 Z M136.8,128 L207.2,128 C212.04,128 216,131.943675 216,136.763722 L216,189.346055 C216,194.166103 212.04,198.109778 207.2,198.109778 L157.92,198.109778 L141.2,207.749872 C136.8,210.378989 131.52,208.626244 129.32,204.682569 C128.44,203.368011 128,201.615266 128,200.300708 L128,136.763722 C128,131.943675 131.96,128 136.8,128 Z M145,145 L198,145 L198,154 L145,154 L145,145 Z M145,159 L185,159 L185,168 L145,168 L145,159 Z M145,172 L198,172 L198,181 L145,181 L145,172 Z" id="icons-/-message" fill="#760FC3" style="mix-blend-mode: multiply;"></path>
            </g>
        </g>
    </g>
</svg>