<?xml version="1.0" encoding="utf-8"?>
<!-- Generator: Adobe Illustrator 19.1.0, SVG Export Plug-In . SVG Version: 6.00 Build 0)  -->
<svg version="1.1" id="Layer_1" xmlns="http://www.w3.org/2000/svg" xmlns:xlink="http://www.w3.org/1999/xlink" x="0px" y="0px"
	 viewBox="0 0 256 256" enable-background="new 0 0 256 256" xml:space="preserve">
<g>
	<rect fill="#77D065" width="256" height="256"/>
</g>
<g>
	<g>
		<path fill="#FFFFFF" d="M164.1,215H91.9c-6.7,0-12.2-5.5-12.2-12.2V53.2c0-6.7,5.5-12.2,12.2-12.2h72.2c6.7,0,12.2,5.5,12.2,12.2
			v149.6C176.3,209.5,170.8,215,164.1,215z M91.9,44c-5.1,0-9.2,4.1-9.2,9.2v149.6c0,5.1,4.1,9.2,9.2,9.2h72.2
			c5.1,0,9.2-4.1,9.2-9.2V53.2c0-5.1-4.1-9.2-9.2-9.2H91.9z"/>
	</g>
	<g>
		<rect x="82" y="176" fill="#FFFFFF" width="92" height="3"/>
	</g>
	<g>
		<rect x="82" y="64" fill="#FFFFFF" width="92" height="3"/>
	</g>
	<g>
		<circle fill="#FFFFFF" cx="128" cy="195.3" r="7"/>
	</g>
	<g>
		<path fill="#FFFFFF" d="M137,55h-18c-0.8,0-1.5-0.7-1.5-1.5s0.7-1.5,1.5-1.5h18c0.8,0,1.5,0.7,1.5,1.5S137.8,55,137,55z"/>
	</g>
	<g>
		<path fill="#528C42" d="M139,98.1c-4.4,0-8.4,1.2-11.9,3.5c-3.5,2.4-6.2,5.8-8.3,10.3c-2,4.5-3.1,9.5-3.1,14.9
			c0,5.1,1.2,9,3.7,11.7c2.5,2.7,6.1,4.1,10.7,4.1c3.2,0,6.6-0.6,10.3-1.7v3.2c-3.5,1.1-7.1,1.7-10.7,1.7c-5.7,0-10-1.6-13-4.9
			s-4.5-7.9-4.5-13.9c0-6,1.2-11.5,3.5-16.5c2.4-5,5.6-8.8,9.6-11.5c4.1-2.7,8.6-4,13.6-4c4,0,7.4,0.8,10.4,2.3l-1.5,3
			c-1.2-0.7-2.6-1.2-4.2-1.6C142.1,98.3,140.6,98.1,139,98.1z"/>
	</g>
</g>
</svg>
