<?xml version="1.0" encoding="UTF-8"?>
<svg viewBox="0 0 256 256" version="1.1" xmlns="http://www.w3.org/2000/svg" xmlns:xlink="http://www.w3.org/1999/xlink">
    <!-- Generator: Sketch 43.2 (39069) - http://www.bohemiancoding.com/sketch -->
    <title>icon</title>
    <desc>Created with Sketch.</desc>
    <defs></defs>
    <g id="Page-1" stroke="none" stroke-width="1" fill="none" fill-rule="evenodd">
        <g id="cake" fill-rule="nonzero">
            <g id="Group" transform="translate(15.000000, 26.947368)">
                <path d="M0.132163743,74.5771063 L93.6105216,1.53969866 L95.1885567,1.30113519 C100.102933,0.55876161 105.618391,0.182291022 111.582147,0.182291022 C130.668442,0.182291022 152.026896,4.02572549 170.181172,10.7271662 C192.697644,19.0388442 209.871001,31.44071 219.84487,46.592 L220.845614,48.1118844 L220.845614,96.6200537 C220.845614,100.327695 220.345242,102.991521 219.223965,105.257214 C218.295647,107.132698 216.959736,108.628805 215.294737,109.675789 L215.294737,179.453886 L0.132163743,212.21581 L0.132163743,74.5771063 Z" id="Shape" stroke="#000000" stroke-width="0.5" fill="#4A1700"></path>
                <g id="Cake" transform="translate(5.550877, 82.691434)" fill="#995700">
                    <polygon id="Shape" points="0.528654971 31.3828524 202.739181 0.593370485 202.739181 91.2012549 0.528654971 121.990737"></polygon>
                    <path d="M202.210526,1.05675955 L202.210526,90.8609783 L0.792982456,121.529725 L0.792982456,31.723129 L202.210526,1.05464603 L202.210526,1.05675955 Z M203.003509,0.132094943 L0,31.0423117 L0,122.452012 L203.003509,91.5417957 L203.003509,0.132094943 L203.003509,0.132094943 Z" id="Shape"></path>
                </g>
            </g>
            <g id="Monkey_Wrench" transform="translate(75.002339, 0.000000)">
                <polygon id="Spanner_Shadow" fill="#4A1700" points="56.8304094 121.00663 56.8304094 214.800908 100.180117 208.231827 100.180117 114.500689"></polygon>
                <path d="M57.0889216,214.800908 L108.100426,245.143645 C108.100426,245.143645 128.833745,255.279818 144.910143,255.787327 C160.986276,256.294836 161.558016,240.725862 161.558016,240.725862 L104.650423,207.546254 L57.0889216,214.800908 Z" id="Shape" fill="#4A1700"></path>
                <path d="M144.910143,255.787063 C139.849329,255.787063 134.20858,254.694374 129.433504,252.7893 C123.507018,250.424801 119.306589,247.007505 117.286599,242.907278 C90.6693497,189.062208 45.9417029,98.5467905 45.4772795,97.3698246 C44.3076304,94.4066708 42.2427041,90.8353519 41.220814,89.1358184 C38.6824772,87.8389102 32.1348211,84.4675831 25.5144749,80.8465965 C7.39694035,70.9368338 6.31663392,68.8782663 5.57572398,67.3750258 L0,56.3583075 L0,50.2415191 L0,45.2485944 L5.25165848,44.5173168 L5.81361871,44.4428153 L2.53146433,25.865775 L2.43234152,12.0351703 L2.45665965,12.0330568 C2.29436257,7.57775851 5.60004211,6.87686275 6.28755789,6.77990506 C7.54522807,6.60263364 14.3061965,5.80715789 14.5932561,5.77334159 L17.6396304,5.4151001 L34.8502573,40.3531558 L48.6486807,38.4071331 L39.1878713,14.5824892 L39.0522713,2.00229515 L54.0026339,0.0776718266 C54.3068749,0.0346088751 54.6171953,0.0129453044 54.9240795,0.0129453044 C57.057731,0.0129453044 58.8395626,1.05675955 59.9381076,2.16345098 L98.6330082,32.684516 L98.8177731,32.8705057 C101.161829,35.2299856 102.959785,39.0837234 103.391167,40.0509226 L109.695906,53.278646 L109.695906,63.2726852 L108.517799,64.5260021 C108.043067,65.0287554 97.9743041,75.6830052 90.4118947,82.5374118 C105.191502,111.322485 163.760129,225.24909 164.373897,226.442171 L164.40826,226.509011 C165.058241,227.828904 165.498875,229.19001 165.723553,230.569082 L165.950082,230.92653 L165.895895,241.070894 L165.84673,241.389243 C165.307502,244.870208 163.551574,248.013804 160.76847,250.480281 C157.838664,253.077003 153.985827,254.756722 149.317275,255.472941 C147.959953,255.681387 146.477076,255.787063 144.910143,255.787063 Z" id="Shape" fill="#4A1700"></path>
                <path d="M105.334503,53.7150877 L105.334503,61.5493746 C105.334503,61.5493746 87.3530971,80.6154303 81.5215041,84.1394592 C75.6901754,87.6634881 78.9562058,77.0914014 78.9562058,77.0914014 L105.334503,53.7150877 Z" id="Shape" stroke="#4A1700" stroke-width="0.5" fill="#534741"></path>
                <path d="M161.558016,240.725862 C160.836402,245.385643 156.796685,249.93737 148.658306,251.186196 C140.03568,252.510316 125.030865,248.809544 121.179614,240.991637 C121.179614,240.991637 49.9816842,96.9632363 49.5138246,95.7783447 C47.7494386,91.3082518 44.2817263,85.8265759 44.2817263,85.8265759 C44.2817263,85.8265759 11.3177099,69.1892178 9.47984094,65.4588566 L4.36140351,55.3345717 L4.36140351,48.880677 L60.8949731,73.5301218 L161.576255,232.175092 L161.558016,240.725862 Z" id="Shape" stroke="#4A1700" stroke-width="0.5" fill="#534741"></path>
                <polygon id="Shape" stroke="#4A1700" stroke-width="0.5" fill="#534741" points="43.4818713 5.94665015 43.4818713 13.7529329 58.5268632 51.5828111 60.9171766 41.0519381"></polygon>
                <polygon id="Shape" stroke="#4A1700" stroke-width="0.5" fill="#534741" points="6.78 12.001354 6.88467368 25.444128 13.0427111 60.1031992 15.1454363 60.1031992 14.5562503 47.5766357"></polygon>
                <path d="M46.6818199,81.0270382 C46.6818199,81.0270382 11.3261684,62.8864396 9.48803509,59.1558142 L4.38069942,49.0294159 L60.9547111,41.0516739 L43.647869,5.91785346 L54.6092655,4.37207843 C56.0102012,4.17420021 56.9900632,5.36226213 56.9900632,5.36226213 L95.7391509,35.9261259 C97.7197567,37.9197028 99.4645825,41.8867781 99.4645825,41.8867781 C99.4645825,41.8867781 104.18785,51.4789845 105.289303,53.7150877 C106.391549,55.9514551 83.2972561,75.8684665 83.2972561,75.8684665 C83.2972561,75.8684665 82.5433942,76.6459773 83.1682643,77.9154097 C83.7936632,79.1840495 160.515244,228.424652 160.515244,228.424652 C164.39848,236.310456 156.772103,243.66973 148.63346,244.918555 C140.010833,246.242147 126.220339,241.622258 122.369352,233.804615 C122.369352,233.804615 49.4704749,84.3206935 48.9074573,83.177808 C48.3439111,82.0349226 46.6818199,81.0270382 46.6818199,81.0270382 Z" id="Shape" stroke="#4A1700" stroke-width="0.5" fill="#736357"></path>
                <path d="M32.3452257,45.0861176 L15.1015579,10.0806935 C15.1015579,10.0806935 8.11855439,10.9020599 6.89577544,11.0745759 C5.67352515,11.2468277 14.5562503,47.5946006 14.5562503,47.5946006 L32.3452257,45.0861176 Z" id="Shape" stroke="#4A1700" stroke-width="0.5" fill="#736357"></path>
                <polygon id="Shape" fill="#4A1700" points="65.8971064 50.8380599 72.3374456 63.1413829 42.3804187 67.1042312 36.7415205 54.725614"></polygon>
                <path d="M40.3971696,56.9117853 L43.3563158,56.4806275 C43.3563158,56.4806275 46.1166877,56.9815315 47.6540164,59.3367843 C49.191345,61.6920372 48.7398737,64.3178204 48.5344912,65.1888545 L45.5819532,65.6326935 C45.9911322,64.3915294 46.3799579,61.7430258 44.9557614,59.8992446 C43.619586,58.1695934 40.3971696,56.9117853 40.3971696,56.9117853 Z" id="Shape" fill="#736357"></path>
                <path d="M48.2746573,55.8254365 L51.2338035,55.3942786 C51.2338035,55.3942786 53.9941754,55.8951827 55.5312398,58.2506997 C57.0685684,60.6059525 56.6173614,63.2317358 56.4117146,64.1027699 L53.4591766,64.5466089 C53.8680912,63.3054448 54.2571813,60.6569412 52.8329848,58.81316 C51.4970737,57.0829804 48.2746573,55.8254365 48.2746573,55.8254365 Z" id="Shape" fill="#736357"></path>
                <path d="M55.9528421,54.73671 L58.9119883,54.3055521 C58.9119883,54.3055521 61.6723602,54.8064561 63.2096889,57.1619732 C64.7467532,59.517226 64.2955462,62.1430093 64.0898994,63.0137792 L61.1376257,63.4576182 C61.5465404,62.2164541 61.9356304,59.5679505 60.5111696,57.7241692 C59.1747298,55.9942539 55.9528421,54.73671 55.9528421,54.73671 Z" id="Shape" fill="#736357"></path>
            </g>
            <g id="Pieces_of_Icing" transform="translate(20.815205, 33.287926)">
                <path d="M111.078868,91.4530279 L114.189474,90.7933457 L114.189474,53.8947368 C114.189474,53.8947368 93.8952023,50.3265882 86.558793,46.3426047 L111.078868,91.4530279 Z" id="Shape" fill="#4A1700"></path>
                <path d="M89.0379205,7.06470175 L102.83608,5.11867905 L100.808159,0.011624355 C96.9738246,0.158249742 93.3924515,0.478976264 90.1502105,0.968784314 L87.1786409,3.29048504 L89.0379205,7.06470175 Z" id="Shape" fill="#FFFFFF"></path>
                <path d="M158.109864,8.82605573 L163.354386,19.9907203 L163.354386,29.9847595 L162.440606,31.2380764 C161.965874,31.7408297 152.029275,42.3950795 144.466865,49.2494861 C144.88556,50.0647761 145.35527,50.9513973 145.838725,51.8990464 L208.380987,43.5913313 C197.807888,27.0696883 178.537092,15.7813829 158.109864,8.82605573 Z" id="Shape" fill="#FFFFFF"></path>
                <path d="M202.739181,76.4829721 L202.739181,98.9866667 C207.497076,98.8070175 208.290058,94.697808 208.290058,90.2797606 L208.290058,43.5913313 L145.789296,51.8990464 C149.485916,59.1436615 154.987099,70.1170526 161.510173,82.8126976 L202.739181,76.4829721 Z" id="Shape" fill="#FFE05C"></path>
                <path d="M79.7113895,47.5584066 C61.593855,37.648644 60.5746082,35.5900764 59.8336982,34.0868359 L56.3752374,27.308516 L0.132163743,71.1991744 L111.116667,56.5205201 C111.116667,56.5205201 86.3317357,51.1793932 79.7113895,47.5584066 Z" id="Shape" fill="#FFFFFF"></path>
                <polygon id="Shape" fill="#FFE05C" points="111.143892 91.45884 111.017544 56.5205201 0 71.1991744 0 107.525284"></polygon>
                <path d="M161.504094,82.6914345 L161.504094,49.9318885 C161.504094,49.9318885 150.574945,43.5913313 155.11847,38.927323 L144.499906,49.2497503 L161.504094,82.6914345 Z" id="Shape" fill="#FFE05C"></path>
                <path d="M10.6288725,69.8446729 L74.8334901,61.3456842 C74.8334901,61.3456842 51.8095088,66.0041445 34.0546316,68.1919009 C25.6654058,69.2251476 10.6288725,69.8446729 10.6288725,69.8446729 Z" id="Shape" fill="#4A1700"></path>
                <path d="M184.282779,46.8567183 L208.950877,43.5913313 L210.02669,45.0710588 C199.28072,46.1632198 184.282779,46.8567183 184.282779,46.8567183 Z" id="Shape" fill="#4A1700"></path>
            </g>
        </g>
    </g>
</svg>