<svg width="256" height="256" viewBox="0 0 256 256" fill="none" xmlns="http://www.w3.org/2000/svg">
<rect width="256" height="256" fill="white"/>
<path d="M128 196C165.555 196 196 165.555 196 128C196 90.4446 165.555 60 128 60C90.4446 60 60 90.4446 60 128C60 165.555 90.4446 196 128 196Z" fill="#F4B960"/>
<path d="M121.469 182.938C155.417 182.938 182.938 155.417 182.938 121.469C182.938 87.5206 155.417 60 121.469 60C87.5206 60 60 87.5206 60 121.469C60 155.417 87.5206 182.938 121.469 182.938Z" fill="#E66F32"/>
<path d="M129.153 166.034C158.433 166.034 182.17 142.297 182.17 113.017C182.17 83.7365 158.433 60 129.153 60C99.8721 60 76.1356 83.7365 76.1356 113.017C76.1356 142.297 99.8721 166.034 129.153 166.034Z" fill="#E43C41"/>
<path d="M133.378 166.035C160.325 166.035 182.169 144.191 182.169 117.244C182.169 90.2976 160.325 68.4531 133.378 68.4531C106.432 68.4531 84.5875 90.2976 84.5875 117.244C84.5875 144.191 106.432 166.035 133.378 166.035Z" fill="#BDD041"/>
<path d="M129.921 166.034C154.958 166.034 175.254 145.737 175.254 120.701C175.254 95.6636 154.958 75.3672 129.921 75.3672C104.884 75.3672 84.5875 95.6636 84.5875 120.701C84.5875 145.737 104.884 166.034 129.921 166.034Z" fill="#6DB54C"/>
<path d="M122.621 152.203C143.627 152.203 160.655 135.174 160.655 114.169C160.655 93.1631 143.627 76.1348 122.621 76.1348C101.616 76.1348 84.5875 93.1631 84.5875 114.169C84.5875 135.174 101.616 152.203 122.621 152.203Z" fill="#AEDAE6"/>
<path d="M129.537 139.141C147.147 139.141 161.424 124.865 161.424 107.254C161.424 89.6435 147.147 75.3672 129.537 75.3672C111.926 75.3672 97.6498 89.6435 97.6498 107.254C97.6498 124.865 111.926 139.141 129.537 139.141Z" fill="#56B8DE"/>
<path d="M133.379 139.909C148.868 139.909 161.424 127.352 161.424 111.864C161.424 96.3746 148.868 83.8184 133.379 83.8184C117.89 83.8184 105.333 96.3746 105.333 111.864C105.333 127.352 117.89 139.909 133.379 139.909Z" fill="#00B1D5"/>
<path d="M129.153 139.14C142.308 139.14 152.972 128.476 152.972 115.321C152.972 102.166 142.308 91.502 129.153 91.502C115.998 91.502 105.333 102.166 105.333 115.321C105.333 128.476 115.998 139.14 129.153 139.14Z" fill="url(#paint0_radial_307_33235)"/>
<path d="M129.153 139.14C142.308 139.14 152.972 128.476 152.972 115.321C152.972 102.166 142.308 91.502 129.153 91.502C115.998 91.502 105.333 102.166 105.333 115.321C105.333 128.476 115.998 139.14 129.153 139.14Z" fill="#221F1F"/>
<path d="M142.867 108.645C144.53 104.939 143.928 101.06 141.522 99.9807C139.117 98.9013 135.819 101.03 134.156 104.736C132.493 108.441 133.095 112.32 135.501 113.4C137.906 114.479 141.204 112.35 142.867 108.645Z" fill="white"/>
<path d="M172.755 138.347L192.454 158.046C196.516 162.108 196.516 168.694 192.454 172.755L172.755 192.454C168.693 196.516 162.107 196.516 158.045 192.454L138.346 172.755C134.285 168.694 134.285 162.108 138.346 158.046L158.045 138.347C162.107 134.285 168.693 134.285 172.755 138.347Z" fill="url(#paint1_linear_307_33235)" stroke="#428B3B"/>
<path d="M157.692 137.994C161.949 133.736 168.851 133.736 173.108 137.994L192.807 157.693C197.064 161.95 197.064 168.852 192.807 173.109L173.108 192.808C168.851 197.065 161.949 197.065 157.692 192.808L137.993 173.109C133.736 168.852 133.736 161.95 137.993 157.693L157.692 137.994Z" fill="url(#paint2_linear_307_33235)"/>
<path fill-rule="evenodd" clip-rule="evenodd" d="M175.032 136.07L194.731 155.768C200.05 161.088 200.05 169.712 194.731 175.032L175.032 194.731C169.712 200.05 161.088 200.05 155.768 194.731L136.07 175.032C130.75 169.712 130.75 161.088 136.07 155.768L155.768 136.07C161.088 130.75 169.712 130.75 175.032 136.07ZM173.108 137.993C168.851 133.736 161.949 133.736 157.692 137.993L137.993 157.692C133.736 161.949 133.736 168.851 137.993 173.108L157.692 192.807C161.949 197.064 168.851 197.064 173.108 192.807L192.807 173.108C197.064 168.851 197.064 161.949 192.807 157.692L173.108 137.993Z" fill="white"/>
<g filter="url(#filter0_d_307_33235)">
<path d="M157.728 163.29H148.516C148.358 163.29 148.262 163.465 148.347 163.598L161.911 184.828C161.989 184.951 162.169 184.951 162.248 184.828L180.463 156.162C180.514 156.081 180.501 155.975 180.431 155.909L174.972 150.738C174.882 150.652 174.735 150.669 174.667 150.775L162.253 169.987C162.173 170.111 161.991 170.108 161.914 169.982L157.899 163.386C157.862 163.327 157.798 163.29 157.728 163.29Z" fill="white"/>
</g>
<defs>
<filter id="filter0_d_307_33235" x="147.315" y="149.684" width="34.1786" height="36.2363" filterUnits="userSpaceOnUse" color-interpolation-filters="sRGB">
<feFlood flood-opacity="0" result="BackgroundImageFix"/>
<feColorMatrix in="SourceAlpha" type="matrix" values="0 0 0 0 0 0 0 0 0 0 0 0 0 0 0 0 0 0 127 0" result="hardAlpha"/>
<feOffset/>
<feGaussianBlur stdDeviation="0.5"/>
<feComposite in2="hardAlpha" operator="out"/>
<feColorMatrix type="matrix" values="0 0 0 0 0 0 0 0 0 0 0 0 0 0 0 0 0 0 0.5 0"/>
<feBlend mode="normal" in2="BackgroundImageFix" result="effect1_dropShadow_307_33235"/>
<feBlend mode="normal" in="SourceGraphic" in2="effect1_dropShadow_307_33235" result="shape"/>
</filter>
<radialGradient id="paint0_radial_307_33235" cx="0" cy="0" r="1" gradientUnits="userSpaceOnUse" gradientTransform="translate(129.089 115.296) scale(23.7808)">
<stop stop-color="#797979"/>
<stop offset="1" stop-color="#4C4C4C"/>
</radialGradient>
<linearGradient id="paint1_linear_307_33235" x1="165.411" y1="195.691" x2="165.411" y2="135.13" gradientUnits="userSpaceOnUse">
<stop stop-color="#58AD44"/>
<stop offset="1" stop-color="#77E655"/>
</linearGradient>
<linearGradient id="paint2_linear_307_33235" x1="165.411" y1="195.691" x2="165.411" y2="135.13" gradientUnits="userSpaceOnUse">
<stop stop-color="#58AD44"/>
<stop offset="1" stop-color="#77E655"/>
</linearGradient>
</defs>
</svg>
