<?xml version="1.0" encoding="UTF-8"?>
<svg width="256px" height="256px" viewBox="0 0 256 256" version="1.1" xmlns="http://www.w3.org/2000/svg" xmlns:xlink="http://www.w3.org/1999/xlink">
    <!-- Generator: Sketch 49.1 (51147) - http://www.bohemiancoding.com/sketch -->
    <title>auto-provision-stepicon</title>
    <desc>Created with Sketch.</desc>
    <defs>
        <linearGradient x1="50%" y1="0%" x2="50%" y2="100%" id="linearGradient-1">
            <stop stop-color="#54C3FA" offset="0%"></stop>
            <stop stop-color="#1586F5" offset="100%"></stop>
        </linearGradient>
        <rect id="path-2" x="0" y="0" width="256" height="256"></rect>
        <linearGradient x1="50%" y1="0%" x2="62.0555565%" y2="41.4529868%" id="linearGradient-4">
            <stop stop-color="#FFFFFF" offset="0%"></stop>
            <stop stop-color="#D2DAE2" offset="100%"></stop>
        </linearGradient>
        <linearGradient x1="50%" y1="0%" x2="70.7817359%" y2="100%" id="linearGradient-5">
            <stop stop-color="#135EA7" stop-opacity="0.855383832" offset="0%"></stop>
            <stop stop-color="#1E568F" offset="100%"></stop>
        </linearGradient>
    </defs>
    <g id="New-Icons" stroke="none" stroke-width="1" fill="none" fill-rule="evenodd">
        <g id="Auto-Provision">
            <g id="auto-provision-stepicon">
                <mask id="mask-3" fill="white">
                    <use xlink:href="#path-2"></use>
                </mask>
                <use id="Rectangle" fill="url(#linearGradient-1)" xlink:href="#path-2"></use>
                <g id="hammer" mask="url(#mask-3)" fill="url(#linearGradient-4)">
                    <g transform="translate(122.614455, 123.245976) rotate(15.000000) translate(-122.614455, -123.245976) translate(77.614455, 29.245976)" id="Oval">
                        <path d="M71.4925251,21.0300748 C76.5214905,21.1805202 79.3535765,25.2353045 79.3943009,25.2353045 C84.2422989,25.2353045 87.6555912,25.2353045 89.671889,25.2353045 C89.671889,18.0005999 89.671889,4.0107655 89.671889,1.87419759 C86.4674755,1.87419759 85.2370394,1.87419759 79.3943009,1.87419759 C76.799763,3.95732827 75.814106,5.24943123 72.1707001,5.42513613 C66.6099585,5.69330542 66.2271887,0.51763809 46.9139715,0.51763809 C27.6007543,0.51763809 9.33381639,9.48454878 0.0681483474,19.9374945 C2.32747463,19.2547103 3.62250367,18.8666986 5.31965731,18.0005999 C16.2002204,12.4479843 26.6989008,11.3839725 34.7516561,18.0005999 C44.0604826,25.6492909 46.4777774,43.4557319 45.0786879,69.6382731 C43.8562846,92.5143124 41.5268434,117.271005 39.0152704,178.544337 C38.8378054,182.873843 42.2389148,187.56331 51.0923843,187.56331 C57.5963276,187.56331 62.0540136,182.736996 62.0540136,178.544337 C62.0540136,153.328881 59.569048,108.711377 58.2349058,69.6382731 C57.3037784,42.3682901 54.2785707,20.515106 71.4925251,21.0300748 Z"></path>
                    </g>
                </g>
                <g id="cogwheel" mask="url(#mask-3)" fill="url(#linearGradient-5)">
                    <g transform="translate(127.863474, 128.428136) rotate(-7.000000) translate(-127.863474, -128.428136) translate(49.863474, 50.928136)">
                        <path d="M81.2273233,26.3971503 L81.2273233,43.7361356 L72.5168191,43.7361356 L72.5168191,26.3971503 L81.2273233,26.3971503 Z M126.296168,65.6070391 L109.805813,70.9650802 L107.114119,62.6808983 L123.604474,57.3228572 L126.296168,65.6070391 Z M103.062591,120.76579 L92.8709908,106.738256 L99.9179368,101.61835 L110.109537,115.645884 L103.062591,120.76579 Z M43.6346057,115.645884 L53.8262056,101.61835 L60.8731516,106.738256 L50.6815517,120.76579 L43.6346057,115.645884 Z M30.1396683,57.3228572 L46.6300233,62.6808983 L43.9383294,70.9650802 L27.4479745,65.6070391 L30.1396683,57.3228572 Z" id="Rectangle-2-Copy-4" style="mix-blend-mode: multiply;"></path>
                        <path d="M77.9702436,138.253194 L68.5719693,154.842315 L63.4158331,136.485526 L50.3216142,150.342879 L49.7072721,131.285251 L33.6780969,141.605497 L37.6412522,122.954591 L19.6086782,129.137955 L27.9190067,111.977693 L8.93102159,113.66482 L21.1055571,98.992495 L2.26567358,96.085336 L17.5968765,84.7536492 L0,77.4211574 L17.5968765,70.0886656 L2.26567358,58.7569788 L21.1055571,55.8498199 L8.93102159,41.1774944 L27.9190067,42.8646218 L19.6086782,25.70436 L37.6412522,31.887724 L33.6780969,13.2368179 L49.7072721,23.5570639 L50.3216142,4.49943625 L63.4158331,18.356789 L68.5719693,0 L77.9702436,16.5891206 L87.368518,0 L92.5246541,18.356789 L105.618873,4.49943625 L106.233215,23.5570639 L122.26239,13.2368179 L118.299235,31.887724 L136.331809,25.70436 L128.021481,42.8646218 L147.009466,41.1774944 L134.83493,55.8498199 L153.674814,58.7569788 L138.343611,70.0886656 L155.940487,77.4211574 L138.343611,84.7536492 L153.674814,96.085336 L134.83493,98.992495 L147.009466,113.66482 L128.021481,111.977693 L136.331809,129.137955 L118.299235,122.954591 L122.26239,141.605497 L106.233215,131.285251 L105.618873,150.342879 L92.5246541,136.485526 L87.368518,154.842315 L77.9702436,138.253194 Z M77.4017528,130.73765 C107.154227,130.73765 131.273373,106.612457 131.273373,76.852524 C131.273373,47.0925909 107.154227,22.9673985 77.4017528,22.9673985 C47.6492786,22.9673985 23.5301328,47.0925909 23.5301328,76.852524 C23.5301328,106.612457 47.6492786,130.73765 77.4017528,130.73765 Z" id="Combined-Shape" style="mix-blend-mode: multiply;"></path>
                        <path d="M77.4211574,106.522727 C60.7423003,106.522727 47.2214152,93.0018421 47.2214152,76.322985 C47.2214152,59.6441279 60.7423003,46.1232427 77.4211574,46.1232427 C94.1000145,46.1232427 107.6209,59.6441279 107.6209,76.322985 C107.6209,93.0018421 94.1000145,106.522727 77.4211574,106.522727 Z M78.0374787,86.8004466 C83.4836361,86.8004466 87.898619,82.3854637 87.898619,76.9393062 C87.898619,71.4931488 83.4836361,67.0781659 78.0374787,67.0781659 C72.5913213,67.0781659 68.1763384,71.4931488 68.1763384,76.9393062 C68.1763384,82.3854637 72.5913213,86.8004466 78.0374787,86.8004466 Z" id="Combined-Shape" style="mix-blend-mode: multiply;"></path>
                    </g>
                </g>
            </g>
        </g>
    </g>
</svg>