<svg xmlns="http://www.w3.org/2000/svg" width="256" height="256" viewBox="0 0 256 256">
  <defs>
    <linearGradient id="jira-comments-stepicon-a" x1="67.752%" x2="40.783%" y1="40.328%" y2="81.66%">
      <stop offset="18%" stop-color="#0052CC"/>
      <stop offset="100%" stop-color="#2684FF"/>
    </linearGradient>
    <linearGradient id="jira-comments-stepicon-b" x1="32.492%" x2="59.431%" y1="59.166%" y2="17.99%">
      <stop offset="18%" stop-color="#0052CC"/>
      <stop offset="100%" stop-color="#2684FF"/>
    </linearGradient>
  </defs>
  <g fill="none" fill-rule="evenodd" transform="rotate(-180 128.001 128)">
    <rect width="256" height="256" fill="#FFF"/>
    <g fill-rule="nonzero" transform="translate(59.002 56)">
      <path fill="#2684FF" d="M164.012387,81.186906 L90.1588127,7.17423442 L83,0 L83,0 L27.405929,55.7138332 L27.405929,55.7138332 L1.98761294,81.186906 C-0.662537647,83.8460728 -0.662537647,88.1539272 1.98761294,90.813094 L52.7789361,141.713833 L83,172 L138.594071,116.286167 L139.454941,115.423442 L164.012387,90.813094 C166.662538,88.1539272 166.662538,83.8460728 164.012387,81.186906 Z M83,111.427666 L57.6269929,86 L83,60.5723337 L108.373007,86 L83,111.427666 Z"/>
      <path fill="url(#jira-comments-stepicon-a)" d="M83,60.4318182 C66.3003816,43.7641181 66.2189936,16.7676801 82.8178121,0 L27,55.6818182 L57.3798292,86 L83,60.4318182 Z"/>
      <path fill="url(#jira-comments-stepicon-b)" d="M108.595442,86 L83,111.4756 C91.0669241,119.499979 95.5992784,130.386238 95.5992784,141.7378 C95.5992784,153.089362 91.0669241,163.975621 83,172 L83,172 L139,116.2622 L108.595442,86 Z"/>
    </g>
    <path fill="#492F5C" d="M41.0021236,76 L41.0021236,140 L57.6271236,130.289655 C58.9396236,129.406897 60.6896236,128.965517 62.0021236,128.965517 L111.002124,128.965517 L111.002124,76 L41.0021236,76 Z M40.8021236,67 L111.202124,67 C116.042124,67 120.002124,70.943675 120.002124,75.7637222 L120.002124,128.346055 C120.002124,133.166103 116.042124,137.109778 111.202124,137.109778 L61.9221236,137.109778 L45.2021236,146.749872 C40.8021236,149.378989 35.5221236,147.626244 33.3221236,143.682569 C32.4421236,142.368011 32.0021236,140.615266 32.0021236,139.300708 L32.0021236,75.7637222 C32.0021236,70.943675 35.9621236,67 40.8021236,67 Z M49.0021236,84 L102.002124,84 L102.002124,93 L49.0021236,93 L49.0021236,84 Z M49.0021236,98 L89.0021236,98 L89.0021236,107 L49.0021236,107 L49.0021236,98 Z M49.0021236,111 L102.002124,111 L102.002124,120 L49.0021236,120 L49.0021236,111 Z" transform="rotate(180 76.002 107.5)" style="mix-blend-mode:multiply"/>
  </g>
</svg>
