<svg xmlns="http://www.w3.org/2000/svg" width="256" height="256" viewBox="0 0 256 256">
  <defs>
    <linearGradient id="android-manifest-package-name-stepicon-a" x1="50%" x2="50%" y1="0%" y2="100%">
      <stop offset="0%" stop-color="#53A906"/>
      <stop offset="100%" stop-color="#A4C639"/>
    </linearGradient>
    <linearGradient id="android-manifest-package-name-stepicon-b" x1="92.985%" x2="14.218%" y1="-11.098%" y2="109.263%">
      <stop offset="0%" stop-color="#FFF" stop-opacity=".399"/>
      <stop offset="100%" stop-color="#FFF"/>
    </linearGradient>
    <linearGradient id="android-manifest-package-name-stepicon-c" x1="-20.991%" x2="94.593%" y1="123.982%" y2="6.149%">
      <stop offset="0%" stop-color="#FFF" stop-opacity=".399"/>
      <stop offset="100%" stop-color="#FFF"/>
    </linearGradient>
    <linearGradient id="android-manifest-package-name-stepicon-d" x1="253.832%" x2="17.426%" y1="25.871%" y2="55.25%">
      <stop offset="0%" stop-color="#0DD3C5"/>
      <stop offset="61.124%" stop-color="#0DC0C7"/>
      <stop offset="100%" stop-color="#0D83CD"/>
    </linearGradient>
    <linearGradient id="android-manifest-package-name-stepicon-e" x1="-26.536%" x2="122.497%" y1="-134.996%" y2="143.879%">
      <stop offset="0%" stop-color="#0DD3C5"/>
      <stop offset="8.751%" stop-color="#0DC0C7"/>
      <stop offset="100%" stop-color="#0D83CD"/>
    </linearGradient>
    <linearGradient id="android-manifest-package-name-stepicon-f" x1="25.009%" x2="73.672%" y1="-146.466%" y2="149.7%">
      <stop offset="0%" stop-color="#0DD3C5"/>
      <stop offset="8.751%" stop-color="#0DC0C7"/>
      <stop offset="100%" stop-color="#0D83CD"/>
    </linearGradient>
  </defs>
  <g fill="none" fill-rule="evenodd">
    <rect width="256" height="256" fill="url(#android-manifest-package-name-stepicon-a)"/>
    <path fill="url(#android-manifest-package-name-stepicon-b)" d="M69,37 L159.738281,37 L193,71.9585974 L193,211 C193,214.313708 190.313708,217 187,217 L69,217 C65.6862915,217 63,214.313708 63,211 L63,43 C63,39.6862915 65.6862915,37 69,37 Z"/>
    <path fill="url(#android-manifest-package-name-stepicon-c)" d="M158.731207,37.3828125 L192.784706,72.2668851 L164.731207,72.2668851 C161.417498,72.2668851 158.731207,69.5805936 158.731207,66.2668851 L158.731207,37.3828125 Z"/>
    <path fill="url(#android-manifest-package-name-stepicon-d)" fill-rule="nonzero" d="M96.28,188.875 L91.69,194.68 L87.1,188.875 L87.1,199 L81.025,199 L81.025,180.1 L86.425,180.1 L91.69,186.85 L96.955,180.1 L102.355,180.1 L102.355,199 L96.28,199 L96.28,188.875 Z M116.210909,190.765 L114.860909,186.04 L113.510909,190.765 L116.210909,190.765 Z M117.560909,195.355 L112.160909,195.355 L111.080909,199 L104.600909,199 L111.485909,180.1 L118.235909,180.1 L125.120909,199 L118.640909,199 L117.560909,195.355 Z M139.651818,180.1 L145.726818,180.1 L145.726818,199 L140.596818,199 L133.441818,189.82 L133.441818,199 L127.366818,199 L127.366818,180.1 L132.496818,180.1 L139.651818,189.28 L139.651818,180.1 Z M150.267727,199 L150.267727,180.1 L156.342727,180.1 L156.342727,199 L150.267727,199 Z M160.883636,180.1 L176.003636,180.1 L176.003636,185.365 L166.958636,185.365 L166.958636,187.795 L173.843636,187.795 L173.843636,193.06 L166.958636,193.06 L166.958636,199 L160.883636,199 L160.883636,180.1 Z" style="mix-blend-mode:multiply"/>
    <path fill="url(#android-manifest-package-name-stepicon-e)" fill-rule="nonzero" d="M157.703,139.016 C156.40966,142.055349 154.599012,144.205494 152.271,145.4665 C149.942988,146.727506 147.227016,147.358 144.123,147.358 C141.212985,147.358 138.480846,146.808339 135.9265,145.709 C133.372154,144.609661 131.12501,142.993011 129.185,140.859 C127.24499,138.724989 125.709172,136.138349 124.5775,133.099 C123.445828,130.059651 122.88,126.600019 122.88,122.72 L122.88,121.168 C122.88,117.352648 123.429661,113.925349 124.529,110.886 C125.628339,107.846651 127.115657,105.260011 128.991,103.126 C130.866343,100.991989 133.048821,99.3591723 135.5385,98.2275 C138.028179,97.0958277 140.695652,96.53 143.541,96.53 C146.96835,96.53 149.732823,97.1119942 151.8345,98.276 C153.936177,99.4400058 155.601327,101.250654 156.83,103.708 L158.576,103.708 L158.576,97.888 L170.798,97.888 L170.798,131.45 C170.798,133.39001 171.670991,134.36 173.417,134.36 L175.26,134.36 L175.26,146 L166.918,146 C164.719322,146 162.92484,145.35334 161.5345,144.06 C160.14416,142.76666 159.449,141.085344 159.449,139.016 L157.703,139.016 Z M146.839,135.718 C150.395684,135.718 153.240989,134.537845 155.375,132.1775 C157.509011,129.817155 158.576,126.60002 158.576,122.526 L158.576,121.362 C158.576,117.28798 157.509011,114.070845 155.375,111.7105 C153.240989,109.350155 150.395684,108.17 146.839,108.17 C143.282316,108.17 140.437011,109.350155 138.303,111.7105 C136.168989,114.070845 135.102,117.28798 135.102,121.362 L135.102,122.526 C135.102,126.60002 136.168989,129.817155 138.303,132.1775 C140.437011,134.537845 143.282316,135.718 146.839,135.718 Z" style="mix-blend-mode:multiply"/>
    <polygon fill="url(#android-manifest-package-name-stepicon-f)" fill-rule="nonzero" points="110 99.071 110 144.929 119.071 154 129 154 129 164 114.929 164 105 154.071 95.071 164 81 164 81 154 90.929 154 100 144.929 100 99.071 90.929 90 81 90 81 80 95.071 80 105 89.929 114.929 80 129 80 129 90 119.071 90" style="mix-blend-mode:multiply"/>
  </g>
</svg>
