<?xml version="1.0" encoding="UTF-8"?>
<svg width="256px" height="256px" viewBox="0 0 256 256" version="1.1" xmlns="http://www.w3.org/2000/svg" xmlns:xlink="http://www.w3.org/1999/xlink">
    <!-- Generator: Sketch 50.2 (55047) - http://www.bohemiancoding.com/sketch -->
    <title>hockeyapp-android-deploy</title>
    <desc>Created with Sketch.</desc>
    <defs></defs>
    <g id="New-Icons" stroke="none" stroke-width="1" fill="none" fill-rule="evenodd">
        <g id="HockeyApp-Android-Deploy">
            <g id="hockeyapp-android-deploy">
                <rect id="Rectangle-13" fill="#009EE1" x="0" y="0" width="256" height="256"></rect>
                <path d="M211.505207,97.1572257 C213.895207,98.7872257 214.185207,104.257226 212.235207,107.337226 C210.788127,109.433401 208.975968,111.252334 206.885207,112.707226 C203.104011,115.702445 198.928056,118.162254 194.475207,120.017226 C190.562125,122.080961 186.472546,123.791088 182.255207,125.127226 C174.834328,127.701665 167.220277,129.681251 159.485207,131.047226 C141.347087,134.313712 122.809552,134.721983 104.545207,132.257226 C93.5174216,130.850189 82.6721698,128.265431 72.195207,124.547226 C71.515207,124.307226 70.865207,123.967226 70.195207,123.677226 C62.005207,120.817226 54.295207,117.067226 47.665207,111.367226 C44.625207,108.777226 42.605207,105.687226 43.065207,101.367226 C43.1281191,99.8943599 43.7419962,98.4988604 44.785207,97.4572257 C47.205207,95.1872257 50.235207,94.0872257 53.355207,93.1872257 C62.075207,90.6772257 71.075207,89.8672257 80.075207,89.3072257 C106.145207,87.6872257 132.235207,87.7972257 158.325207,88.4372257 C166.275207,88.6272257 174.235207,88.8872257 182.145207,89.7672257 C188.906804,90.4037623 195.622827,91.4557501 202.255207,92.9172257 C205.570726,93.756292 208.70537,95.193145 211.505207,97.1572257 Z M155.565207,116.787226 C165.305207,114.887226 174.775207,112.257226 183.515207,107.407226 C184.575207,106.497226 185.695207,105.617226 186.695207,104.687226 C187.555207,103.917226 187.425207,103.217226 186.485207,102.587226 C185.003072,101.646082 183.368811,100.96937 181.655207,100.587226 C175.681423,99.1867438 169.579156,98.4059484 163.445207,98.2572257 C138.414333,96.9944748 113.332831,97.1146576 88.315207,98.6172257 C82.955207,99.0172257 77.555207,99.4672257 72.395207,101.387226 C68.335207,102.937226 68.275207,103.397226 71.395207,106.277226 C71.4859763,106.374335 71.5695319,106.477944 71.645207,106.587226 C76.640782,109.957788 82.203064,112.400179 88.065207,113.797226 C93.115207,114.987226 98.035207,116.647226 103.115207,117.447226 C108.687635,118.463877 114.332101,119.03568 119.995207,119.157226 C127.435207,119.137226 134.875207,119.337226 142.315207,118.717226 C146.763745,118.315836 151.187012,117.671541 155.565207,116.787226 Z M128.455207,150.747226 C109.685207,150.747226 91.455207,147.837226 73.905207,140.957226 C67.495207,138.437226 61.315207,135.437226 56.035207,130.907226 C53.295207,128.557226 51.145207,125.907226 51.545207,121.907226 C51.795207,119.407226 52.235207,119.047226 54.245207,120.387226 C59.8542464,123.986216 65.904186,126.846493 72.245207,128.897226 C82.3261512,132.330812 92.7039784,134.821491 103.245207,136.337226 C107.515207,136.977226 111.795207,137.517226 116.065207,138.017226 C119.345207,138.397226 122.715207,138.017226 126.065207,138.107226 C132.916943,138.386193 139.780016,138.101904 146.585207,137.257226 C164.915207,134.947226 182.805207,130.867226 199.245207,121.937226 C200.365207,121.327226 201.465207,120.657226 202.555207,119.997226 C204.195207,118.997226 204.755207,119.217226 205.015207,121.097226 C205.516274,123.59116 204.833008,126.176492 203.165207,128.097226 C201.225321,130.247856 198.993619,132.116023 196.535207,133.647226 C181.725207,143.047226 165.195207,147.177226 148.085207,149.547226 C141.579726,150.423693 135.019007,150.824756 128.455207,150.747226 Z M200.805207,139.287226 C200.773147,140.573125 200.659586,141.855698 200.465207,143.127226 C198.835207,147.237226 195.445207,149.797226 191.955207,152.017226 C188.705315,154.154664 185.267835,155.992226 181.685207,157.507226 C172.834433,161.218076 163.60708,163.957446 154.165207,165.677226 C147.685207,166.837226 141.175207,167.347226 134.615207,167.837226 C128.64592,168.140968 122.663161,168.054116 116.705207,167.577226 C106.669659,166.927365 96.7468184,165.087812 87.145207,162.097226 C81.7191772,160.539394 76.4392086,158.511725 71.365207,156.037226 C65.945207,153.327226 60.625207,150.387226 56.945207,145.327226 C54.945207,142.577226 55.475207,139.457226 55.945207,136.457226 C56.135207,135.237226 56.975207,135.757226 57.585207,136.237226 C60.2137758,138.233889 63.0225688,139.981433 65.975207,141.457226 C71.4722682,144.143593 77.1532356,146.43603 82.975207,148.317226 C88.565207,150.237226 94.335207,151.097226 99.975207,152.517226 C103.385207,153.377226 106.995207,153.437226 110.505207,153.937226 C117.385207,154.927226 124.315207,154.667226 131.235207,154.787226 C139.016353,154.805402 146.782589,154.105771 154.435207,152.697226 C162.384358,151.409318 170.199888,149.401045 177.785207,146.697226 C181.15172,145.527241 184.444397,144.154736 187.645207,142.587226 C188.355207,142.207226 196.015207,138.447226 198.695207,136.207226 C199.955207,135.157226 200.395207,135.547226 200.605207,136.887226 C200.725207,137.677226 200.745207,138.487226 200.805207,139.287226 Z" id="Combined-Shape" fill="#FFFFFF" fill-rule="nonzero"></path>
            </g>
        </g>
    </g>
</svg>