<?xml version="1.0" encoding="utf-8"?>
<!-- Generator: Adobe Illustrator 19.1.0, SVG Export Plug-In . SVG Version: 6.00 Build 0)  -->
<svg version="1.1" id="Layer_1" xmlns="http://www.w3.org/2000/svg" xmlns:xlink="http://www.w3.org/1999/xlink" x="0px" y="0px"
	 viewBox="0 0 256 256" enable-background="new 0 0 256 256" xml:space="preserve">
<rect y="0" fill="#41B7E9" width="256" height="256"/>
<g>
	<path fill="#41B7E9" stroke="#FFFFFF" stroke-width="4.7407" stroke-miterlimit="10" d="M203.8,141.8c0,10.9-33.9,29.2-75.8,29.2
		s-75.8-18.3-75.8-29.2c0-10.9,33.9-10.2,75.8-10.2S203.8,130.9,203.8,141.8z"/>
	<path fill="#41B7E9" stroke="#FFFFFF" stroke-width="4.7407" stroke-miterlimit="10" d="M203.8,120.9c0,10.9-33.9,29.2-75.8,29.2
		s-75.8-18.3-75.8-29.2s33.9-10.2,75.8-10.2S203.8,110,203.8,120.9z"/>
	<path fill="#41B7E9" stroke="#FFFFFF" stroke-width="4.7407" stroke-miterlimit="10" d="M203.8,100c0,10.9-33.9,29.2-75.8,29.2
		S52.2,110.9,52.2,100S86.2,85.1,128,85.1S203.8,89.1,203.8,100z"/>
	<path fill="#FFFFFF" d="M162.8,103.8c0,5-15.6,8.6-34.8,8.6s-34.8-3.7-34.8-8.6c0-5,15.6-6.9,34.8-6.9S162.8,98.8,162.8,103.8z"/>
</g>
</svg>
