<?xml version="1.0" encoding="utf-8"?>
<!-- Generator: Adobe Illustrator 19.1.0, SVG Export Plug-In . SVG Version: 6.00 Build 0)  -->
<svg version="1.1" id="Layer_1" xmlns="http://www.w3.org/2000/svg" xmlns:xlink="http://www.w3.org/1999/xlink" x="0px" y="0px"
	 viewBox="0 0 256 256" enable-background="new 0 0 256 256" xml:space="preserve">
<g id="_x32_HnSNs_1_">
	<g>
		<path d="M44.1,129.2c0.1,13,2.8,25.3,8.7,36.8c10.9,21.6,27.9,36.1,51.1,43.4c1.3,0.4,2.5,0.8,3.2,2c1,1.5,1,3.5,0,4.9
			c-1.1,1.5-3,2.3-4.9,1.6c-4.3-1.5-8.6-2.9-12.7-4.7c-10.6-4.7-19.9-11.4-27.9-19.7c-13.2-13.8-21.5-30.1-24.7-48.9
			c-0.9-5.4-1.4-10.8-1.3-16.2c0.4-22.3,7.7-42.1,22.1-59.2c8.1-9.6,17.8-17.1,29-22.8c9.8-4.9,20.2-8,31.2-9.2
			c15.8-1.7,31.1,0.4,45.8,6.5c9.8,4,18.6,9.6,26.4,16.8c15.9,14.5,25.7,32.4,29.2,53.7c3,18.1,0.7,35.5-6.7,52.3
			c-4.9,11.2-11.9,21-20.7,29.5c-8.2,7.8-17.5,13.9-27.9,18.3c-4.8,2-9.6,3.8-14.8,4.5c-6.8,1-13.1-0.2-18.5-4.6
			c-4.4-3.6-6.6-8.4-7-14c-0.3-4.3-0.1-8.7-0.1-13c0-6.5,0-13,0-19.5c0-1.4,0.1-1.5,1.5-1.5c1.9,0,3.9,0,5.8,0
			c1.4,0,1.5,0.1,1.5,1.5c-0.1,10-0.1,19.9-0.2,29.9c0,2.5,0.5,4.8,1.7,7c2.2,3.9,5.7,5.4,10,5.8c3.4,0.3,6.6-0.6,9.8-1.6
			c24.3-8,41.3-23.9,51.5-47.2c3.7-8.3,5.6-17.1,6.3-26.2c1.1-15.3-1.6-29.8-8.5-43.5c-8.1-16.1-20.2-28.4-36.2-36.9
			c-9.8-5.2-20.2-8.2-31.1-9.2c-15.2-1.3-29.8,1.1-43.6,7.7c-9.8,4.6-18.3,10.9-25.6,18.9c-12,13.1-19.3,28.4-21.5,46
			C44.5,122,44.4,125.6,44.1,129.2z"/>
		<path d="M128.1,118.6c7.4,0,14.8,0,22.2,0c2.2,0,2.4,0.4,2.4,2.6c0,7.2-2.6,13.9-4,20.8c-0.7,3.4-1.4,6.8-2,10.2
			c-0.2,1.1-0.1,2.2,0,3.3c0.1,1.1,0.6,1.9,1.9,2.2c0.3,0.1,0.8,0.6,0.8,1c0.1,1.1,0.1,2.2,0,3.2c-0.1,0.4-0.6,0.9-1.1,1.2
			c-0.3,0.2-0.8,0.1-1.2,0.1c-12.6,0-25.3,0-37.9,0c-0.4,0-0.9,0.1-1.2-0.1c-0.4-0.3-0.9-0.7-1.1-1.2c-0.2-0.7,0-1.4-0.1-2.1
			c-0.1-1.2,0-2.1,1.5-2.4c0.5-0.1,1.1-1,1.1-1.6c0.1-1.8,0.3-3.6-0.1-5.3c-1.2-5.9-2.6-11.7-4-17.5c-1-4.1-1.8-8.2-1.8-12.4
			c0-1.6,0.4-2,2.1-2C113.1,118.6,120.6,118.6,128.1,118.6z"/>
		<path d="M127.8,115.2c-8.4,0-16.7,0-25.1,0c-2.7,0-3.5-0.8-3.5-3.5c0-1,0-1.9,0-2.9c0.1-1.6,0.9-2.6,2.6-2.8
			c0.5-0.1,1-0.1,1.6-0.1c16.3,0,32.7,0,49,0c0.7,0,1.3,0,2,0.2c1.3,0.3,2,1.2,2.1,2.5c0.1,1.3,0,2.5,0,3.8c0,1.7-1.1,2.8-2.8,2.8
			c-3,0-6,0-9,0C139.1,115.2,133.5,115.2,127.8,115.2z"/>
		<path d="M119.7,89.2c0,4.2,0,8.3,0,12.5c0,1.6-0.9,2.3-2.5,1.8c-0.3-0.1-0.7-0.6-0.8-0.9c-0.1-0.4-0.1-0.9-0.1-1.3
			c0-7.4,0-14.7,0-22.1c0-0.6,0-1.1-0.1-1.7c-0.2-1.1-1.1-1.9-2.1-1.8c-1,0.1-1.6,0.8-1.7,2c0,2.5,0,4.9,0,7.4c0,5.5,0,11,0,16.5
			c0,1.6-0.5,2.1-2,2c-1-0.1-1.5-0.5-1.5-1.6c0-8.5,0-16.9,0-25.4c0-2.6,2.7-4.7,5.6-4.5c3.2,0.2,5.1,2.2,5.1,5.4
			C119.7,81.3,119.7,85.3,119.7,89.2C119.7,89.2,119.7,89.2,119.7,89.2z"/>
		<path d="M135.8,89.2c0-3.9,0.1-7.8,0-11.7c-0.1-2.2,0.7-3.9,2.7-4.8c2.1-1,4.2-0.9,6.1,0.4c1.3,0.9,1.9,2.1,1.9,3.7
			c0,8.3,0,16.7,0,25c0,1.6-1.2,2.4-2.6,1.7c-0.3-0.2-0.6-0.7-0.7-1.1c-0.1-0.9,0-1.8,0-2.7c0-6.8,0-13.7,0-20.5c0-0.5,0-1-0.1-1.6
			c-0.2-1.1-1-1.9-2-1.8c-1,0.1-1.7,0.8-1.7,2.1c0,3.8,0,7.6,0,11.4c0,4.2,0,8.4,0,12.6c0,1.4-0.5,1.9-1.9,1.8
			c-1.2-0.1-1.6-0.4-1.6-1.7C135.8,97.7,135.8,93.4,135.8,89.2C135.8,89.2,135.8,89.2,135.8,89.2z"/>
	</g>
</g>
</svg>
