<svg id="Layer_1" data-name="Layer 1" xmlns="http://www.w3.org/2000/svg" xmlns:xlink="http://www.w3.org/1999/xlink" viewBox="0 0 256 256"><defs><style>.cls-1{fill:#7791a6;}.cls-2{fill:#8cc63f;}.cls-3{fill:#fff;}.cls-4{fill:url(#linear-gradient);}.cls-5{fill:url(#linear-gradient-2);}.cls-6{fill:url(#linear-gradient-3);}.cls-7{fill:url(#linear-gradient-4);}.cls-8{fill:url(#linear-gradient-5);}.cls-9{fill:url(#linear-gradient-6);}.cls-10{fill:url(#linear-gradient-7);}.cls-11{fill:url(#linear-gradient-8);}.cls-12{fill:url(#linear-gradient-9);}</style><linearGradient id="linear-gradient" x1="145.01" y1="-7576.21" x2="160.45" y2="-7594.15" gradientTransform="matrix(1, 0, 0, -1, 0, -7450.38)" gradientUnits="userSpaceOnUse"><stop offset="0.29" stop-color="#d9d9d9"/><stop offset="1" stop-color="#f2f2f2"/></linearGradient><linearGradient id="linear-gradient-2" x1="37.2" y1="-7587.85" x2="208.79" y2="-7587.85" gradientTransform="matrix(1, 0, 0, -1, 0, -7450.38)" gradientUnits="userSpaceOnUse"><stop offset="0" stop-color="#a6a6a6"/><stop offset="1" stop-color="#f2f2f2"/></linearGradient><linearGradient id="linear-gradient-3" x1="99.93" y1="-7587.85" x2="208.79" y2="-7587.85" gradientTransform="matrix(1, 0, 0, -1, 0, -7450.38)" gradientUnits="userSpaceOnUse"><stop offset="0" stop-color="#d9d9d9"/><stop offset="1" stop-color="#fafafa"/></linearGradient><linearGradient id="linear-gradient-4" x1="37.2" y1="-7564.67" x2="208.79" y2="-7564.67" xlink:href="#linear-gradient-2"/><linearGradient id="linear-gradient-5" x1="141.23" y1="-7569.39" x2="162.64" y2="-7598.39" gradientTransform="matrix(1, 0, 0, -1, 0, -7450.38)" gradientUnits="userSpaceOnUse"><stop offset="0" stop-color="#eaeaea"/><stop offset="0" stop-color="#e4e4e4"/><stop offset="0.02" stop-color="#c7c7c7"/><stop offset="0.68" stop-color="#9e9e9e"/></linearGradient><linearGradient id="linear-gradient-6" x1="82.34" y1="-7585.62" x2="85.55" y2="-7608.9" gradientTransform="matrix(1, 0, 0, -1, 0, -7450.38)" gradientUnits="userSpaceOnUse"><stop offset="0" stop-color="#c9c9c9"/><stop offset="0.02" stop-color="#d3d3d3"/><stop offset="0.09" stop-color="#e3e3e3"/><stop offset="0.48" stop-color="#f2f2f2"/></linearGradient><linearGradient id="linear-gradient-7" x1="37.2" y1="-7556.07" x2="208.79" y2="-7556.07" xlink:href="#linear-gradient-3"/><linearGradient id="linear-gradient-8" x1="166.7" y1="-7551.1" x2="189.24" y2="-7582.28" gradientTransform="matrix(1, 0, 0, -1, 0, -7450.38)" gradientUnits="userSpaceOnUse"><stop offset="0" stop-color="#eaeaea"/><stop offset="0" stop-color="#e4e4e4"/><stop offset="0.04" stop-color="#d1d1d1"/><stop offset="0.68" stop-color="#9e9e9e"/></linearGradient><linearGradient id="linear-gradient-9" x1="153.68" y1="-7619.5" x2="114.6" y2="-7638.15" gradientTransform="matrix(1, 0, 0, -1, 0, -7450.38)" gradientUnits="userSpaceOnUse"><stop offset="0" stop-color="#c9c9c9"/><stop offset="0.01" stop-color="#d3d3d3"/><stop offset="0.13" stop-color="#e3e3e3"/><stop offset="0.48" stop-color="#f2f2f2"/></linearGradient></defs><title>applivery</title><rect class="cls-1" width="256" height="256"/><path class="cls-2" d="M179.84,0.54H256a0,0,0,0,1,0,0V76.7a0,0,0,0,1,0,0H211.71a31.87,31.87,0,0,1-31.87-31.87V0.54A0,0,0,0,1,179.84.54Z"/><path class="cls-3" d="M202,28.93a3,3,0,0,0-3,3V44.74a3,3,0,0,0,6.06,0V32a3,3,0,0,0-3-3"/><path class="cls-3" d="M226.57,17.46l2.11-3.9a0.44,0.44,0,0,0-.76-0.43L225.76,17a14.86,14.86,0,0,0-11.91,0l-2.17-3.9a0.44,0.44,0,0,0-.76.43l2.11,3.9a12.49,12.49,0,0,0-7,11H233.5a12.34,12.34,0,0,0-6.93-11m-13,6a1.14,1.14,0,1,1,1.14-1.14,1.05,1.05,0,0,1-1.14,1.14m12.5,0A1.11,1.11,0,0,1,225,22.33a1.14,1.14,0,1,1,2.27,0,1.05,1.05,0,0,1-1.14,1.14"/><path class="cls-3" d="M206.22,49.28a3.26,3.26,0,0,0,3.25,3.25h2.22V59.3a3,3,0,0,0,6.06,0V52.53h4.11V59.3a3,3,0,0,0,6.06,0V52.53h2.22a3.26,3.26,0,0,0,3.25-3.25V29.53H206.17Z"/><path class="cls-3" d="M237.73,28.93a3,3,0,0,0-3,3V44.74a3,3,0,0,0,6.06,0V32a3,3,0,0,0-3-3"/><path class="cls-3" d="M226.57,17.46l2.11-3.9a0.44,0.44,0,0,0-.76-0.43L225.76,17a14.86,14.86,0,0,0-11.91,0l-2.17-3.9a0.44,0.44,0,0,0-.76.43l2.11,3.9a12.49,12.49,0,0,0-7,11H233.5a12.34,12.34,0,0,0-6.93-11m-13,6a1.14,1.14,0,0,1-1.14-1.14,1.11,1.11,0,0,1,1.14-1.14,1.14,1.14,0,0,1,1.14,1.14,1.05,1.05,0,0,1-1.14,1.14m12.5,0A1.11,1.11,0,0,1,225,22.33a1.14,1.14,0,1,1,2.27,0,1.05,1.05,0,0,1-1.14,1.14m-19.87,6.06V49.28a3.26,3.26,0,0,0,3.25,3.25h2.22V59.3a3,3,0,0,0,6.06,0V52.53h4.11V59.3a3,3,0,0,0,6.06,0V52.53h2.22a3.26,3.26,0,0,0,3.25-3.25V29.53H206.22Z"/><polygon class="cls-4" points="98.95 202.29 99.93 164.81 208.79 69.95 98.95 202.29"/><polygon class="cls-5" points="171.07 204.99 99.93 164.81 98.95 202.29 86.89 158.61 37.2 141.42 208.79 69.95 171.07 204.99"/><polygon class="cls-6" points="208.79 69.95 171.07 204.99 99.93 164.81 208.79 69.95"/><polygon class="cls-7" points="86.89 158.61 37.2 141.42 208.79 69.95 86.89 158.61"/><polygon class="cls-8" points="99.93 164.81 136.73 132.74 208.79 69.95 86.89 158.61 98.95 202.29 99.93 164.81"/><polygon class="cls-9" points="127.49 129.09 37.2 141.42 86.89 158.61 127.49 129.09"/><polygon class="cls-10" points="208.79 69.95 37.2 141.42 127.49 129.09 208.79 69.95"/><polygon class="cls-11" points="127.49 129.09 128.19 128.99 129.85 138.74 208.79 69.95 127.49 129.09"/><polyline class="cls-12" points="99.93 164.81 135.97 133.4 135.97 133.4 171.07 204.99 99.93 164.81"/></svg>