<svg xmlns="http://www.w3.org/2000/svg" width="256" height="256" viewBox="0 0 256 256">
  <defs>
    <linearGradient id="xcode-build-for-simulator-stepicon-a" x1="50%" x2="50%" y1="0%" y2="100%">
      <stop offset="0%" stop-color="#54C3FA"/>
      <stop offset="100%" stop-color="#1586F5"/>
    </linearGradient>
    <linearGradient id="xcode-build-for-simulator-stepicon-b" x1="62.639%" x2="155.019%" y1="39.956%" y2="142.072%">
      <stop offset="0%" stop-color="#FFF"/>
      <stop offset="100%" stop-color="#FFF" stop-opacity="0"/>
    </linearGradient>
    <linearGradient id="xcode-build-for-simulator-stepicon-c" x1="50%" x2="70.782%" y1="0%" y2="100%">
      <stop offset="0%" stop-color="#135EA7" stop-opacity=".855"/>
      <stop offset="100%" stop-color="#1E568F"/>
    </linearGradient>
  </defs>
  <g fill="none" fill-rule="evenodd">
    <rect width="256" height="256" fill="url(#xcode-build-for-simulator-stepicon-a)"/>
    <path fill="url(#xcode-build-for-simulator-stepicon-b)" d="M83.8777813,24.0167206 C89.7658802,24.1928677 93.0817914,28.9403593 93.1294731,28.9403593 C98.8056887,28.9403593 102.802098,28.9403593 105.162854,28.9403593 C105.162854,20.4696992 105.162854,4.08988294 105.162854,1.58831011 C101.411008,1.58831011 99.9703677,1.58831011 93.1294731,1.58831011 C90.091692,4.02731666 88.9376482,5.54015866 84.6718137,5.74588046 C78.1610914,6.059863 77.7129304,1.42108547e-14 55.1003005,1.42108547e-14 C32.4876705,1.42108547e-14 11.100063,10.4987911 0.251475674,22.7374871 C2.89677857,21.9380581 4.41304652,21.4837596 6.40013686,20.4696992 C19.1395031,13.9684912 31.431747,12.7227067 40.8602111,20.4696992 C51.75933,29.4250699 54.5895882,50.2735105 52.9514825,80.9289994 C51.5202473,107.713114 48.7928513,136.699167 45.8522086,208.440252 C45.644426,213.509399 49.6265709,219 59.9925409,219 C67.6075987,219 72.8268225,213.349173 72.8268225,208.440252 C72.8268225,178.917063 69.9173327,126.677237 68.3552696,80.9289994 C67.2650712,49.0002934 63.7230459,23.4137761 83.8777813,24.0167206 Z" transform="rotate(15 22.81 375.212)"/>
    <path fill="url(#xcode-build-for-simulator-stepicon-c)" fill-rule="nonzero" d="M21.7172261,19.0861311 C23.8869846,17.4619551 26.581154,16.5 29.5,16.5 C32.324124,16.5 34.9379171,17.4005337 37.0698891,18.9301109 L45.0254953,10.9745047 C44.0453918,10.3571527 42.8849175,10 41.6410256,10 L16.3589744,10 C15.2800991,10 14.2639767,10.2686775 13.3738674,10.7427724 L21.7172261,19.0861311 Z M26.0429358,23.4118408 L29.3155475,26.6844525 L32.7180685,23.2819315 C31.7545996,22.7822882 30.6602658,22.5 29.5,22.5 C28.2426787,22.5 27.0627809,22.8314899 26.0429358,23.4118408 Z M19.0861311,21.7172261 L10.7427724,13.3738674 C10.2686775,14.2639767 10,15.2800991 10,16.3589744 L10,41.6410256 C10,42.8849175 10.3571527,44.0453918 10.9745047,45.0254953 L18.9301109,37.0698891 C17.4005337,34.9379171 16.5,32.324124 16.5,29.5 C16.5,26.581154 17.4619551,23.8869846 19.0861311,21.7172261 Z M23.4118408,26.0429358 C22.8314899,27.0627809 22.5,28.2426787 22.5,29.5 C22.5,30.6602658 22.7822882,31.7545996 23.2819315,32.7180685 L26.6844525,29.3155475 L23.4118408,26.0429358 Z M21.508144,39.754046 L13.7986519,47.4635381 C14.5819838,47.8084897 15.4481143,48 16.3589744,48 L41.6410256,48 C42.7199009,48 43.7360233,47.7313225 44.6261326,47.2572276 L37.2827739,39.9138689 C35.1130154,41.5380449 32.418846,42.5 29.5,42.5 C26.4866548,42.5 23.7127697,41.474749 21.508144,39.754046 Z M25.8116205,35.4505695 C26.8826249,36.1158264 28.1464482,36.5 29.5,36.5 C30.7573213,36.5 31.9372191,36.1685101 32.9570642,35.5881592 L29.3155475,31.9466425 L25.8116205,35.4505695 Z M39.9138689,37.2827739 L47.2572276,44.6261326 C47.7313225,43.7360233 48,42.7199009 48,41.6410256 L48,16.3589744 C48,15.4481143 47.8084897,14.5819838 47.4635381,13.7986519 L39.754046,21.508144 C41.474749,23.7127697 42.5,26.4866548 42.5,29.5 C42.5,32.418846 41.5380449,35.1130154 39.9138689,37.2827739 Z M35.5881592,32.9570642 C36.1685101,31.9372191 36.5,30.7573213 36.5,29.5 C36.5,28.1464482 36.1158264,26.8826249 35.4505695,25.8116205 L31.9466425,29.3155475 L35.5881592,32.9570642 Z M51.8184205,54.4495155 C49.0250394,56.6720436 45.488113,58 41.6410256,58 L16.3589744,58 C7.3241623,58 0,50.6758377 0,41.6410256 L0,16.3589744 C0,7.3241623 7.3241623,2.64176145e-15 16.3589744,0 L41.6410256,0 C50.6758377,-2.64176145e-15 58,7.3241623 58,16.3589744 L58,41.6410256 C58,45.488113 56.6720436,49.0250394 54.4495155,51.8184205 L54.631095,52 L52,54.631095 L51.8184205,54.4495155 Z" transform="translate(99 99)" style="mix-blend-mode:multiply"/>
    <path fill="url(#xcode-build-for-simulator-stepicon-c)" d="M93.4569564,34 L162.541922,34 C169.411081,34 175,39.2131377 175,45.6208166 L175,205.335181 C175,211.74286 169.411081,216.956259 162.541922,216.956259 L93.4569564,216.956259 C86.5883586,216.956259 81,211.74286 81,205.335181 L81,45.6208166 C81,39.2131377 86.5883586,34 93.4569564,34 Z M166.037126,199.417057 L166.037126,50.5392022 C166.037126,46.3405777 162.601617,42.9048954 158.402716,42.9048954 L150.362433,42.9048954 C149.8938,42.9048954 149.494521,43.2133449 149.355078,43.6373102 L149.355078,49.7079692 C149.355078,52.0407555 147.446842,53.949088 145.113929,53.949088 L110.902433,53.949088 C108.570008,53.949088 106.661284,52.0407555 106.661284,49.7079692 L106.661284,43.9640761 C106.660795,43.381368 106.183858,42.9048954 105.60118,42.9048954 L97.5960627,42.9048954 C93.3974057,42.9048954 89.9621409,46.3405777 89.9621409,50.5392022 L89.9621409,199.417057 C89.9621409,203.614948 93.3974057,207.050387 97.5960627,207.050387 L158.402716,207.050387 C162.601617,207.050387 166.037126,203.614948 166.037126,199.417057 Z" style="mix-blend-mode:multiply"/>
  </g>
</svg>
