<?xml version="1.0" encoding="UTF-8"?>
<svg width="256px" height="256px" viewBox="0 0 256 256" version="1.1" xmlns="http://www.w3.org/2000/svg" xmlns:xlink="http://www.w3.org/1999/xlink">
    <!-- Generator: Sketch 51.2 (57519) - http://www.bohemiancoding.com/sketch -->
    <title>xcode-build-for-simulator</title>
    <desc>Created with Sketch.</desc>
    <defs>
        <linearGradient x1="50%" y1="0%" x2="50%" y2="100%" id="linearGradient-1">
            <stop stop-color="#54C3FA" offset="0%"></stop>
            <stop stop-color="#1586F5" offset="100%"></stop>
        </linearGradient>
        <rect id="path-2" x="0" y="0" width="256" height="256"></rect>
        <linearGradient x1="62.6389714%" y1="39.9557359%" x2="155.019247%" y2="142.071588%" id="linearGradient-4">
            <stop stop-color="#FFFFFF" offset="0%"></stop>
            <stop stop-color="#FFFFFF" stop-opacity="0" offset="100%"></stop>
        </linearGradient>
        <linearGradient x1="50%" y1="0%" x2="70.7817359%" y2="100%" id="linearGradient-5">
            <stop stop-color="#135EA7" stop-opacity="0.855383832" offset="0%"></stop>
            <stop stop-color="#1E568F" offset="100%"></stop>
        </linearGradient>
    </defs>
    <g id="New-Icons" stroke="none" stroke-width="1" fill="none" fill-rule="evenodd">
        <g id="Xcode-Build-for-Simulator">
            <g id="xcode-build-for-simulator">
                <mask id="mask-3" fill="white">
                    <use xlink:href="#path-2"></use>
                </mask>
                <use id="Rectangle" fill="url(#linearGradient-1)" xlink:href="#path-2"></use>
                <g id="hammer" mask="url(#mask-3)" fill="url(#linearGradient-4)">
                    <g transform="translate(120.742663, 126.367897) rotate(15.000000) translate(-120.742663, -126.367897) translate(67.742663, 16.867897)" id="Oval">
                        <path d="M83.8777813,24.0167206 C89.7658802,24.1928677 93.0817914,28.9403593 93.1294731,28.9403593 C98.8056887,28.9403593 102.802098,28.9403593 105.162854,28.9403593 C105.162854,20.4696992 105.162854,4.08988294 105.162854,1.58831011 C101.411008,1.58831011 99.9703677,1.58831011 93.1294731,1.58831011 C90.091692,4.02731666 88.9376482,5.54015866 84.6718137,5.74588046 C78.1610914,6.059863 77.7129304,1.42108547e-14 55.1003005,1.42108547e-14 C32.4876705,1.42108547e-14 11.100063,10.4987911 0.251475674,22.7374871 C2.89677857,21.9380581 4.41304652,21.4837596 6.40013686,20.4696992 C19.1395031,13.9684912 31.431747,12.7227067 40.8602111,20.4696992 C51.75933,29.4250699 54.5895882,50.2735105 52.9514825,80.9289994 C51.5202473,107.713114 48.7928513,136.699167 45.8522086,208.440252 C45.644426,213.509399 49.6265709,219 59.9925409,219 C67.6075987,219 72.8268225,213.349173 72.8268225,208.440252 C72.8268225,178.917063 69.9173327,126.677237 68.3552696,80.9289994 C67.2650712,49.0002934 63.7230459,23.4137761 83.8777813,24.0167206 Z"></path>
                    </g>
                </g>
                <g id="Group-2" mask="url(#mask-3)" fill="url(#linearGradient-5)" fill-rule="nonzero">
                    <g transform="translate(103.000000, 103.000000)">
                        <polygon id="Line-2" style="mix-blend-mode: multiply;" points="0 2.631095 2.631095 0 50.631095 48 48 50.631095"></polygon>
                        <polygon id="Line-2-Copy" style="mix-blend-mode: multiply;" points="48 0 50.631095 2.631095 2.631095 50.631095 0 48"></polygon>
                    </g>
                </g>
                <path d="M93.4569564,34 L162.541922,34 C169.411081,34 175,39.2131377 175,45.6208166 L175,205.335181 C175,211.74286 169.411081,216.956259 162.541922,216.956259 L93.4569564,216.956259 C86.5883586,216.956259 81,211.74286 81,205.335181 L81,45.6208166 C81,39.2131377 86.5883586,34 93.4569564,34 Z M166.037126,199.417057 L166.037126,50.5392022 C166.037126,46.3405777 162.601617,42.9048954 158.402716,42.9048954 L150.362433,42.9048954 C149.8938,42.9048954 149.494521,43.2133449 149.355078,43.6373102 L149.355078,49.7079692 C149.355078,52.0407555 147.446842,53.949088 145.113929,53.949088 L110.902433,53.949088 C108.570008,53.949088 106.661284,52.0407555 106.661284,49.7079692 L106.661284,43.9640761 C106.660795,43.381368 106.183858,42.9048954 105.60118,42.9048954 L97.5960627,42.9048954 C93.3974057,42.9048954 89.9621409,46.3405777 89.9621409,50.5392022 L89.9621409,199.417057 C89.9621409,203.614948 93.3974057,207.050387 97.5960627,207.050387 L158.402716,207.050387 C162.601617,207.050387 166.037126,203.614948 166.037126,199.417057 Z" id="Combined-Shape" fill="url(#linearGradient-5)" style="mix-blend-mode: multiply;" mask="url(#mask-3)"></path>
                <path d="M115.358974,109 C111.84701,109 109,111.84701 109,115.358974 L109,140.641026 C109,144.15299 111.84701,147 115.358974,147 L140.641026,147 C144.15299,147 147,144.15299 147,140.641026 L147,115.358974 C147,111.84701 144.15299,109 140.641026,109 L115.358974,109 Z M115.358974,99 L140.641026,99 C149.675838,99 157,106.324162 157,115.358974 L157,140.641026 C157,149.675838 149.675838,157 140.641026,157 L115.358974,157 C106.324162,157 99,149.675838 99,140.641026 L99,115.358974 C99,106.324162 106.324162,99 115.358974,99 Z" id="Rectangle-7" fill="url(#linearGradient-5)" style="mix-blend-mode: multiply;" mask="url(#mask-3)"></path>
                <path d="M128.5,121.5 C124.634007,121.5 121.5,124.634007 121.5,128.5 C121.5,132.365993 124.634007,135.5 128.5,135.5 C132.365993,135.5 135.5,132.365993 135.5,128.5 C135.5,124.634007 132.365993,121.5 128.5,121.5 Z M128.5,115.5 C135.679702,115.5 141.5,121.320298 141.5,128.5 C141.5,135.679702 135.679702,141.5 128.5,141.5 C121.320298,141.5 115.5,135.679702 115.5,128.5 C115.5,121.320298 121.320298,115.5 128.5,115.5 Z" id="Rectangle-7-Copy" fill="url(#linearGradient-5)" style="mix-blend-mode: multiply;" mask="url(#mask-3)"></path>
            </g>
        </g>
    </g>
</svg>