<?xml version="1.0" encoding="utf-8"?>
<!-- Generator: Adobe Illustrator 19.1.0, SVG Export Plug-In . SVG Version: 6.00 Build 0)  -->
<svg version="1.1" id="Layer_1" xmlns="http://www.w3.org/2000/svg" xmlns:xlink="http://www.w3.org/1999/xlink" x="0px" y="0px"
	 viewBox="0 0 256 256" enable-background="new 0 0 256 256" xml:space="preserve">
<rect x="0" y="0" fill="#02233E" width="256" height="256"/>
<g>
	<path fill="#024998" d="M82.3,178.9l42.6-28.4c2.4-1.6,5.4-1.5,7.8,0.1l41.1,28.4c4,2.7,4,8.6,0,11.4l-41.1,28.4
		c-2.3,1.6-5.4,1.6-7.8,0.1l-42.6-28.4C78.2,187.7,78.2,181.6,82.3,178.9z"/>
	<path fill="#4FADE8" d="M59.2,134.2l64.2-42.8c3.5-2.4,8.2-2.3,11.7,0.1l61.9,42.8c6,4.1,6,13,0,17.1L135,194.2
		c-3.5,2.4-8.1,2.5-11.7,0.1l-64.2-42.8C53,147.4,53,138.4,59.2,134.2z"/>
	<path opacity="0.5" fill="#FFFFFF" d="M43.7,90.5l78.6-52.4c4.3-2.9,10-2.8,14.3,0.1l75.8,52.4c7.3,5.1,7.3,15.9,0,21L136.6,164
		c-4.3,3-10,3-14.3,0.1l-78.6-52.4C36.2,106.7,36.2,95.6,43.7,90.5z"/>
</g>
</svg>
