<svg xmlns="http://www.w3.org/2000/svg" xmlns:xlink="http://www.w3.org/1999/xlink" viewBox="0 0 256 256"><defs><style>.cls-1{fill:none;}.cls-2{isolation:isolate;}.cls-3{fill:#00b0ef;}.cls-4{fill:#fed771;}.cls-5{clip-path:url(#clip-path);}.cls-6{opacity:0.2;mix-blend-mode:multiply;}.cls-7{clip-path:url(#clip-path-2);}.cls-8{fill:#1d1d1b;}.cls-9{fill:#d35e13;}.cls-10{fill:#ff6b00;}.cls-11{fill:#f6a235;}.cls-12{fill:#f08319;}.cls-13{fill:#f5bf9a;}.cls-14{fill:#e89e6c;}.cls-15{fill:#fde8d9;}.cls-16{fill:#9a3820;}.cls-17{fill:#000101;}.cls-18{fill:#fff;}.cls-19{fill:#bc6124;}</style><clipPath id="clip-path"><path class="cls-1" d="M58.15,99l-21-8.61-22-.83,8.6,49.68,14,15.5,19,5.14,2.62-.55A81.3,81.3,0,0,0,210,157.15l18.39.18L240,112.85H214.11A81.29,81.29,0,0,0,58.15,99"/></clipPath><clipPath id="clip-path-2"><rect class="cls-1" x="-30.19" y="53.83" width="332.64" height="324.06"/></clipPath></defs><title>Artboard 101</title><g class="cls-2"><g id="Layer_1" data-name="Layer 1"><rect class="cls-3" width="256" height="256"/><path class="cls-4" d="M215.47,127.69a81.27,81.27,0,1,1-81.27-81.26,81.27,81.27,0,0,1,81.27,81.26"/><g class="cls-5"><g class="cls-6"><g class="cls-7"><path class="cls-8" d="M.35,203.18C6.33,245.08,18.93,235,18.93,235s42-21,52.79,1.53c9.34,19.51,18.69,18.47,21,17.84l-2.88-16.47s-4.49,20.54-18.72-10.17c0,0-8.67-13.91-52.63,6.63,0,0-10.59,2.87-12.09-15.79S.75,195.18.75,195.18s-2.7-33.83,17-42.75C8.18,154.8-4.8,167.14.35,203.18"/><path class="cls-8" d="M89.94,231.38s-.18-.26-.52-.69a4.88,4.88,0,0,1-1.84,2.82s-10.74,2.88-12.82-7.71-20.15-7-31.21-2.82l0,0a49.52,49.52,0,0,1-10.38,4.2l.16.29c-29.07,9.95-22.78-14.55-22.78-14.55-17.65-29.64-4.25-37.09-4.25-37.09h0c3.47-8.23,9-17.44,15.56-17.74,0,0,15.49-2,18.54,14.82S29,193.23,29,193.23s-3.61,1.05-1.52,5.71l.64,0c13-4.15,22.07-29.91,14.45-35.56s-24.82-10.91-24.82-10.91C-2,161.35.75,195.18.75,195.18s4.17,4.7,5.67,23.36,12.09,15.79,12.09,15.79c44-20.54,52.64-6.63,52.64-6.63,14.23,30.71,18.72,10.17,18.72,10.17l2.88,16.47a3.39,3.39,0,0,0,.56-.19Z"/><path class="cls-8" d="M74.76,225.8c2.08,10.59,12.82,7.71,12.82,7.71a4.87,4.87,0,0,0,1.84-2.82c-3-3.82-19.14-22-45.51-7.9l-.42.21,0,0c11.07-4.14,29.12-7.77,31.21,2.82"/><path class="cls-8" d="M44.25,224.29s-1.77-.79-4,1.56c0,0,2.1-.69,4-1.56"/><path class="cls-8" d="M216.85,297.24s3.32-12.31-2.35-19.47-7.28-34.23-7.28-34.23-2.16-45.9-10.18-48.06S176.66,162,176.66,162L175,167.59c-.17.62-.34,1.24-.5,1.89l.13.41c1.64,2.09,14.52,18.71,16.7,26.3,2.32,8.1,9.46,34.66,11.71,48.38,0,0-.08,16.29.8,25.51,0,0-.8,17.26-.08,23a55.3,55.3,0,0,1,.56,6.58s19.85,11.39,25.36,13.53a9.08,9.08,0,0,0,4.61-1.5l3.09-2.38,0,0c-10.4,4.64-20.59-12.06-20.59-12.06"/><path class="cls-8" d="M10.49,212.94s-6.28,24.5,22.78,14.55l-.16-.29c-18.24,4.73-17.47-13.1-17.47-13.1s-14.84-18.79-13-27.37a65.8,65.8,0,0,1,3.61-10.88h0s-13.4,7.46,4.25,37.09"/><path class="cls-8" d="M29,193.23s14.37-3.45,11.32-20.3S21.8,158.11,21.8,158.11c3-.14,6.15,1.56,9.43,6C45.63,183.71,29.66,187,27.79,191c-1.35,2.9-5.16,7.92-.3,8-2.09-4.65,1.52-5.71,1.52-5.71"/><path class="cls-8" d="M28.13,198.9a36.44,36.44,0,0,0,9.1-2.41c17.82-6.47,9-34.15,9-34.15s-15.19-7.77-21.95-9.93a12.4,12.4,0,0,0-6.54,0S35,157.7,42.58,163.34s-1.47,31.41-14.45,35.56"/><path class="cls-8" d="M215.64,120.38c-5-2.56-24.6-1.36-24.6-1.36l-.12,0-11.37,34.78,1.66-4.25A13.07,13.07,0,0,0,190,153.3c5.19-.05,11.39,4.17,20.83-1.79.31-1.06.6-2.09.87-3.11,2.18-9.31,3.94-28,3.94-28"/><path class="cls-8" d="M188.37,154.63c17.49,4.67,22.47-3.13,22.47-3.13-9.44,6-15.64,1.74-20.83,1.79a13.07,13.07,0,0,1-8.78-3.73l-1.66,4.25-.06.18v0a43.44,43.44,0,0,1,8.85.61"/><path class="cls-8" d="M189.15,121s17.38-2,24.28,1.39c0,0,.17,30.08-9.46,29.48s-10-2.08-10-2.08Z"/><path class="cls-8" d="M165.5,71.62c-6.26-9.23-18-16.1-18.14-16.22-12.49-1.88-49.49,11.82-63.05,36.65-13.91,25.46,1,98.53,3.74,109.76s1.6,22.68,2.57,37.44,8.56,20.43,8.56,20.43c-8.87,9.63.43,48.46.43,48.46l7.81,4.6C97,309,71.9,325.49,86.33,329.32c9.62,2.56,22.21-2.6,29.57-6.33-1.17-5.21-3-14.29-3.19-21.2-.33-10.27,6.82-34.25,6.82-34.25s10.57.61,16.5-.59c13-2.64,20.73-19.39,20.73-19.39v.18s0,.07,0,.12,0,.06,0,.09a1.4,1.4,0,0,1,0,.18v.12c0,.08,0,.16,0,.25s0,.06,0,.09,0,.22,0,.34h0a26.33,26.33,0,0,1-.38,2.81h0a22.35,22.35,0,0,1-6.08,11.9h0c-.25.25-.51.49-.78.72l0,0a19.43,19.43,0,0,1-5,3.1h0c.45-.21,14.78,9.29,5.69,41.17,0,0-4.36,17.81,30,14.26l.84-.09,1-4.7c-3.37-7.22-24.55-8.83-24.55-8.83,7.06-20.38,7.54-59.69,7.54-59.69s-.8-56.17,15.09-96.77c10.9-27.85,12.21-38.56,11.95-42.53-9.09-4-20.09-29.42-26.39-38.72"/><path class="cls-8" d="M83.28,115.06s4.48-26.94,38.14-25.9c0,0,23.75,5.14,28.68,10.37,0,0,3.33,15.51-.56,21.25l42.39-10.44S191.11,148,168,150.59c0,0,16.32-7,19-31.91l-40.54,5s2.88-19.79-3-22.47c0,0-40.56-11.87-60.18,13.81"/><path class="cls-8" d="M155.87,150.63s8.92,21.64,8.71,30.69-7.69,42.5-14.75,45.07-13.1,2.7-16.75,0c0,0,12.09.26,17.12-7.22S159,193,159,193l3-7.27-2.73-12.09Z"/><path class="cls-8" d="M187.32,116.61l-39.15,5.45c2.88-8.58-1.93-21.66-1.93-21.66-31.45-12.92-49.91,2.09-59.93,9.87S90.8,145,90.8,145L119,154.48s-9.51,29.59-11,35.36,21.82,34,29.58,33.74,12.1-.44,14-3.58c4-8.43,10.53-29.32,10.4-34.23-.16-5.78-6.1-35.14-6.1-35.14h11.88c21-2.73,19.57-34,19.57-34"/><path class="cls-8" d="M137.58,223.58c-7.76.26-31-28-29.58-33.74s11-35.36,11-35.36l-12.2,35.78c1.93,19.74,26.32,36.11,26.32,36.11s13.48.48,16.69-3.21a15.06,15.06,0,0,0,1.8-3.16c-1.89,3.14-6.25,3.32-14,3.59"/><path class="cls-8" d="M174.46,169.68l.18.22-.13-.41c0,.06,0,.13,0,.19"/><path class="cls-8" d="M174.46,169.32l0,.17c.16-.65.33-1.28.5-1.89Z"/><path class="cls-8" d="M156.76,247.85c0-.05,0-.09,0-.12s0,.08,0,.12"/><path class="cls-8" d="M156.74,248.12a1.43,1.43,0,0,0,0-.18,1.43,1.43,0,0,1,0,.18"/><path class="cls-8" d="M156.7,248.92c0-.12,0-.23,0-.34,0,.11,0,.22,0,.34"/><path class="cls-8" d="M156.32,251.73a26.65,26.65,0,0,0,.37-2.81,26.29,26.29,0,0,1-.37,2.81"/><path class="cls-8" d="M156.73,248.49c0-.09,0-.17,0-.25,0,.08,0,.16,0,.25"/><path class="cls-8" d="M156.32,251.75a22.37,22.37,0,0,1-6.08,11.9,22.36,22.36,0,0,0,6.08-11.9"/><path class="cls-8" d="M156.75,247.94s0-.06,0-.09,0,.06,0,.09"/><path class="cls-8" d="M156.72,248.58s0-.06,0-.09,0,.06,0,.09"/><path class="cls-8" d="M180.06,322.94c-34.33,3.55-30-14.26-30-14.26,9.09-31.88-5.24-41.38-5.69-41.17h0a19.43,19.43,0,0,0,5-3.1l0,0c.27-.23.54-.47.78-.72h0a22.36,22.36,0,0,0,6.08-11.9h0a26.28,26.28,0,0,0,.37-2.81h0c0-.12,0-.23,0-.34s0-.06,0-.1,0-.17,0-.25v-.12a1.43,1.43,0,0,0,0-.18s0-.06,0-.09,0-.09,0-.12v-.18s-11.07,14.69-24.08,17.34l-13.16,2.65,1.65.39a49.93,49.93,0,0,0,14.21,1.55l2.27-.18c15.08,16.54,4.91,49.18,4.91,49.18.88.89,10.43,7.45,17.74,9.33l4.31.46a5.91,5.91,0,0,0,.9-.15c6.74-1.77,15.25-4.49,15.25-4.49l.15-.76-.83.09"/><polygon class="cls-8" points="179.5 154.03 179.51 154.03 179.5 154.01 179.5 154.03"/><polygon class="cls-8" points="179.5 154 179.5 154.01 179.56 153.82 179.5 154"/><path class="cls-8" d="M108,189.84s4.66,2.23,6.07,4.25,12.39,2,12.39,2l15.52-.89,16.09-2.58,3.51-7.84-4.3,6.24-15.46,2.7-16,.94-11.1-2.14-5.05-2.7Z"/><path class="cls-8" d="M148.2,55.54A30.59,30.59,0,0,0,141.92,54c-19.1-2.4-51.36,18.13-65,28.88s-8,27.76-8,27.76c-1.1,11.66.69,29.55,3.63,48.45l0-.14c-5.12,1.44-5.93,5.21-17.88,17.81a74.44,74.44,0,0,0-16.45,28.72c-.08.48-16,40.44-16.82,42.49s-2.95,5.46-1.92,6.58a1.83,1.83,0,0,1,.53,2c-1.37,17.49-2.73,28.36-3.25,31.73s-4.37,21.58-6.5,27.4-7.58,16.12-7.58,16.12A34.47,34.47,0,0,0,19,333.11c3.42-.66,6.31-2.07,8-4.35a6.36,6.36,0,0,0,.59-.9c3.53-6.58,8.58-8.27,8.58-8.27-2.62-.21-2.46.16-10.27,6.32s-20.37,3.58-20.37,3.58l4.39-4.81c1.5-20.59,18-16,13.86-23.11S22.63,255,22.63,255c-4.66,2.14-.81-5.78-.81-5.78L34,224a93.39,93.39,0,0,0,9.47-23.64c3-12.94,10.43-17.27,19.9-30.59a25.19,25.19,0,0,1,4.9-5.41c4.75-2.83,2.92,1.1,2.92,1.1-4.74,3.64-7.25,14.71-7.25,14.71h0c7.61-11.3,10.21-11.4,10.21-11.4,6.32,36.91,15.81,74.27,15.81,74.27-1.44,18.94,6.26,66.44,6.26,66.44C87,310.93,70.5,328.43,70.5,328.43l26,5.93,20.38-7.22s-.41-1.62-1-4.15c-7.35,3.73-19.95,8.9-29.57,6.33C71.9,325.49,97,309,107.41,312.75l-7.81-4.6s-9.31-38.83-.43-48.46c0,0-7.59-5.67-8.56-20.43s5.47-31.95,2.69-43.17-22.91-78.57-9-104,52.31-39.18,63.9-36.51"/><path class="cls-8" d="M86.6,116.88S109.82,97.13,127.69,100s15.88,3.37,15.88,3.37,7,14.21,2.65,19.61c0,0,34.18-3.63,38.21-3.57,0,0,3.31,22.47-16.43,31.22,0,0,20.34,2.71,19.32-34l-39.15,5.45s3.53-5.45-1.93-21.66c0,0-17.69-8.24-32.8-4.16,0,0-13.53,1.87-21.42,9.71,0,0-8.7,3.11-9.13,11.21s.28,14.72,7.91,27.85c0,0-10.12-22.81-4.2-28.13"/><path class="cls-8" d="M131.57,149s-.35,2.35,2.16,1.17,1.69-3.29,3.87-2.11.8,3.34,3.41,3.59,2.51-.22,1.34,2.58,1.29,1.11,1.5,1.07,3-3.52,3-3.52.53-.75.84-.37,2,1.43,1.83-1.54c0,0,1.69,7.68-4.44,7.92s-12.41-.2-13.9-3.73-1.45-5.57.35-5.06"/><path class="cls-8" d="M140.87,160.36A60.89,60.89,0,0,0,142.18,175s-1.47,9.42-.67,11.1,1.22,1.5,1.22,1.5l1.38-4.83s-.43-9.29-.48-9.21-1.74-8.08-1.74-8.08Z"/><path class="cls-8" d="M155.87,150.63s6.57,29.44,6.57,35.14c0,0-4.58,22.9-10.87,34.23,0,0,10.27-30.48,10.29-34.93s-6.58-17-6-34.45"/><path class="cls-8" d="M148.2,55.54c-.27-.06-.55-.1-.85-.14.19.11,9,8.72,16.45,17s20.14,37.23,28.08,37.94c-.12-1.82-.56-2.23-.56-2.23-10.42-26-26.31-46.63-43.14-52.56"/><path class="cls-8" d="M151.43,95.06s1.07-7.43,5.24-7.06S165,92.31,165,92.31l-1.55,4.22-4.65,1.55S156,94.64,156,93.61l-1.34,5.54s2,5.88,2.23,5.91,5,2.88,5,2.88l8.64-2.91,2.58-4.65s.06,12.22-12.45,11.52l-8.4-3.68-1.5-7.73s-.56-3.44,2.09-4.75c0,0-.39,1.68.76,1.79,0,0-1.58-2.38,1.89-5.65l.05,0c3.55-3.27-3.24-.57-4.15,3.2"/><path class="cls-8" d="M148.78,86.19s5.6-3,6.92-3,8.25,2.18,10.43,6.24c3.78,7,1.61,11,1.61,11s-3.64,5.92-6.69,6.24c0,0,10.59-1.15,11.07-5.22s-.64-6-.64-6l-4.57-12.88s-4.61-7-9.11-5.13-8.34,5.15-9,8.73"/><path class="cls-8" d="M157.76,85.91h2.87L166.17,91s5.52,10.82-7.12,8.24l0-1.38,6.19-2-.46-4-3.69-2.31-3.31-3.17Z"/><path class="cls-8" d="M148.7,86.32S159.37,69,166.43,84s5.13,17.34,5.13,17.34-4.73,5.3-10.51,5.38c0,0-8.26-4.9-5-12,0,0,.32,8.91,9.64,2.09l-.33-5.24-7.62-5.59s-6.26,2.41-6.34,9.14c0,0,2-6.63,5.54-5.93l7.54,3.21-1.36,3.93s-6.49,2.29-6.91-3.44c0,0-8.66,10.56,6.26,15.32,0,0,8,1.51,10.64-7.75,0,0-5.61-41.27-26.15-14.52,0,0,.86,1.18,1.71.46"/><path class="cls-8" d="M83.48,114.15S79.76,127.62,90.8,145c0,0,24.1,7.12,28.17,9.47,0,0-11.18,33-12.2,35.78,0,0,2.19,18.88,26.32,36.11,0,0-29.85-16.31-30.49-33.75,0,0,8.67-28.86,12.73-34.75L89.33,146a38.47,38.47,0,0,1-5.85-31.82"/><path class="cls-8" d="M182.83,145.56a137.5,137.5,0,0,0-6.18,16.86c-3.35,10.88-6.05,19.75-9,43.33a325,325,0,0,0-2.75,41s.86,40.33-7.54,62.58c0,0,20.65.86,24.28,8.29,0,0-5.57-8-27.07-6.21,0,0,12.24-61.21,6.08-66.49a1.33,1.33,0,0,0-.25-.18c-6.74-3.85,5-41.65,5.54-46.62s-2.73-40.26,16.93-52.56"/><path class="cls-8" d="M222.87,293.12c1.45-5.61-5.21-16-4.89-21.42s-6.34-27.76-6.34-27.76-3.69-8.66-4.49-22.62-8-28.7-8-28.7c-5.06-6.82-18.91-27.72-21.9-32.26-.61,1.8-1.41,4.32-2.2,7.24l1.64-5.18S189,193.31,197,195.48s10.18,48.06,10.18,48.06,1.62,27.07,7.29,34.23,2.35,19.47,2.35,19.47S227,313.95,237.44,309.3c.28-.27.57-.56.85-.87-6.6-2.54-16.25-12.1-15.42-15.32"/><path class="cls-8" d="M225.4,290.72s-2.08-12.46-5.66-21c0,0-4.87-22.14-9.3-37.28s-1.88-20.49-10.76-40.5c0,0-14.14-24.92-21.44-34.47,0,0-.41,1.09-1,2.91,3,4.54,16.84,25.44,21.9,32.26,0,0,7.22,14.74,8,28.7s4.49,22.62,4.49,22.62,6.66,22.39,6.34,27.76,6.34,15.81,4.89,21.42c-.83,3.22,8.82,12.78,15.42,15.32a23.59,23.59,0,0,0,1.68-2s-7.23-10-14.56-15.75"/><path class="cls-8" d="M29.31,255.51c-.1-12.41,17.65-50,17.65-50L63.9,180.18s2.51-11.07,7.25-14.71c0,0,1.83-3.93-2.92-1.1a25.19,25.19,0,0,0-4.9,5.41c-9.47,13.32-16.85,17.65-19.9,30.59A93.41,93.41,0,0,1,34,224L21.82,249.26s-3.85,7.92.81,5.78c0,0-3,39.42,1.12,46.54S11.4,304.09,9.9,324.68l-4.39,4.82s12.57,2.56,20.37-3.58,7.65-6.53,10.27-6.32c-1.5-4.59-6.84-12.73-6.84-12.73s.11-38.94,0-51.35"/><path class="cls-8" d="M31.45,260.22c6.52-17.54,16.75-53,16.75-53a291.12,291.12,0,0,1,15.7-27.08h0L47,205.56s-17.76,37.55-17.65,50,0,51.36,0,51.36,5.35,8.13,6.85,12.72l-2.33-12.83c0-5.78-2.38-46.54-2.38-46.54"/><path class="cls-8" d="M210.83,151.51a30.81,30.81,0,0,0,.87-3.1c-.27,1-.56,2-.87,3.1"/><path class="cls-8" d="M215.64,120.38s-1.76,18.71-3.94,28c5.07-18.61,5.14-29.87,5.14-29.87-7.73-2.3-24.28.25-25.8.49,0,0,19.63-1.2,24.6,1.36"/><path class="cls-8" d="M181.95,146.61a61.73,61.73,0,0,0,21.42,5.25s-13.07,4.22-22-3.81Z"/><path class="cls-8" d="M208.42,122.38a64.62,64.62,0,0,0-18.4.57s-.88,7.73-2.68,12.65c-1.64,4.5-4.28,9.15-5.23,11.62,0,0,5.93,3.65,9.71,3.81s11.63,2,14.44-.4,2.16-28.25,2.16-28.25m-4.68,27.55c-3.63,1-11.76,2.14-8.58-2.62s.13-6.42-4-8.61,0-13.11,0-13.11h13.32c2.56,3.07,2.94,23.38-.7,24.34"/><path class="cls-8" d="M191.12,125.59s-4.16,10.91,0,13.11,7.24,3.85,4,8.61,4.94,3.59,8.58,2.62,3.26-21.27.7-24.34Z"/><path class="cls-8" d="M155.8,140.95a6.46,6.46,0,0,0-3.3,7,4.26,4.26,0,0,0,2.57,2.24s.52.16-.8-.8-.84-1.38-.84-1.38,3.52,4.07,11.23-.92c0,0-10.83,2.31-11.21,0,0,0-.44-4.19,2.36-6.13"/><path class="cls-8" d="M126.77,139.05h-.22a16.21,16.21,0,0,1-2.21,5.05,9,9,0,0,0-2.14-3.27,59.75,59.75,0,0,1-5.8,2.33c-.29-.1-4-6.82-.82-9.61-1.45,1.08-4.81,4.06-4.35,7.66,0,0,1.15,4.68,4.09,5.83a11.32,11.32,0,0,0,5.56.64,12.19,12.19,0,0,1-5.94,2.14s13.48-.25,11.82-10.77"/><path class="cls-8" d="M115.41,133.65a2.44,2.44,0,0,1,.31-.18l-.31.18"/><path class="cls-8" d="M101.27,75.18s-1.88.76-2.17,5.62c0,0,1.21-2.77,2.17-5.62"/><path class="cls-8" d="M92.84,78.45s-2,.15-3.76,4.7c0,0,2-2.27,3.76-4.7"/><path class="cls-8" d="M99.59,70.28s-1.92-.67-5.33,2.8c0,0,2.73-1.29,5.33-2.8"/><path class="cls-8" d="M119.88,59.83s-2.09-.3-4.19,3.3c0,0,2.19-1.56,4.19-3.3"/><path class="cls-8" d="M81.48,81.55s-2,.16-3.76,4.71c0,0,2-2.28,3.76-4.71"/><path class="cls-8" d="M75.74,142.46s-1.8,1-1.58,5.81c0,0,.91-2.88,1.58-5.81"/><path class="cls-8" d="M83.54,162.9s-1.79,1-1.58,5.82c0,0,.91-2.88,1.58-5.82"/><path class="cls-8" d="M81.85,187s-1.33,1.54.63,6c0,0-.19-3-.63-6"/><path class="cls-8" d="M86.65,177.31s-1.66,1.17-.85,6c0,0,.55-3,.85-6"/><path class="cls-8" d="M86.12,196.63s-1.66,1.17-.85,6c0,0,.55-3,.85-6"/><path class="cls-8" d="M100.63,177.71s-1.66,1.17-.85,6c0,0,.55-3,.85-6"/><path class="cls-8" d="M61.44,177.81s-2-.31-4.72,3.72c0,0,2.45-1.76,4.72-3.72"/><path class="cls-8" d="M66.18,171.34s-2-.3-4.74,3.72c0,0,2.45-1.76,4.74-3.72"/><path class="cls-8" d="M60,183.67s-2,.35-3.3,5c0,0,1.76-2.45,3.3-5"/><path class="cls-8" d="M51.35,187.59s-2,.35-3.3,5c0,0,1.76-2.45,3.3-5"/><path class="cls-8" d="M56.3,190.1s-2,.34-3.3,5c0,0,1.76-2.45,3.3-5"/><path class="cls-8" d="M47.62,195.23s-1.87.81-2,5.67c0,0,1.14-2.79,2-5.67"/><path class="cls-8" d="M52.36,191.26s-1.87.81-2,5.67c0,0,1.13-2.8,2-5.67"/><path class="cls-8" d="M48.63,202.59s-1.86.81-2,5.67c0,0,1.14-2.8,2-5.67"/><path class="cls-8" d="M42.79,207.16s-1.87.82-2,5.67c0,0,1.14-2.79,2-5.67"/><path class="cls-8" d="M44.51,210.25s-1.86.81-2,5.67c0,0,1.14-2.79,2-5.67"/><path class="cls-8" d="M42.79,217.12s-1.68,1.15-.9,6c0,0,.57-3,.9-6"/><path class="cls-8" d="M37,220.84s-1.67,1.15-.9,5.95c0,0,.58-3,.9-5.95"/><path class="cls-8" d="M39.28,227.58s-1.75,1-1.36,5.87c0,0,.8-2.92,1.36-5.87"/><path class="cls-8" d="M33.53,228.28s-1.9.74-2.25,5.59c0,0,1.25-2.75,2.25-5.59"/><path class="cls-8" d="M34.75,233.22s-1.71,1.1-1.08,5.92c0,0,.66-2.95,1.08-5.92"/><path class="cls-8" d="M85.53,251.07s.14-2-4.13-4.38c0,0,2,2.28,4.13,4.38"/><path class="cls-8" d="M79.44,244.55s.34-1.91-2.47-3.57c0,0,1.16,1.88,2.47,3.57"/><path class="cls-8" d="M74.62,237.77s.35-1.91-2.47-3.57c0,0,1.16,1.88,2.47,3.57"/><path class="cls-8" d="M80.16,236.74s.35-1.91-2.47-3.56c0,0,1.16,1.88,2.47,3.56"/><path class="cls-8" d="M88.8,240.89s-1.54-1.18-4.3.58c0,0,2.2-.17,4.3-.58"/><path class="cls-8" d="M80.89,241s.12-1.93-2.88-3.25c0,0,1.37,1.73,2.88,3.25"/><path class="cls-8" d="M74.37,227.61s.12-1.94-2.87-3.24c0,0,1.38,1.72,2.87,3.24"/><path class="cls-8" d="M81.51,232.18s-.57-1.85-3.83-2c0,0,1.9,1.14,3.83,2"/><path class="cls-8" d="M85.94,232.78s.11-1.93-2.88-3.24c0,0,1.37,1.72,2.88,3.24"/><path class="cls-8" d="M78.4,226.71s.54-1.86-2.09-3.8c0,0,1,2,2.09,3.8"/><path class="cls-8" d="M81.91,228.27s.54-1.86-2.1-3.8c0,0,1,2,2.1,3.8"/><path class="cls-8" d="M75.88,222.07s-.55-1.86-3.81-2.07c0,0,1.88,1.15,3.81,2.07"/><path class="cls-8" d="M87.38,238.2s.12-1.93-2.88-3.24c0,0,1.37,1.72,2.88,3.24"/><path class="cls-8" d="M75.19,232.95s.35-1.91-2.47-3.57c0,0,1.16,1.88,2.47,3.57"/><path class="cls-8" d="M71.5,230.11s-.85-1.74-4.11-1.4c0,0,2,.82,4.11,1.4"/><path class="cls-8" d="M69.44,223.8s-.86-1.74-4.11-1.4c0,0,2.05.82,4.11,1.4"/><path class="cls-8" d="M57.89,222.72s-.86-1.74-4.1-1.4c0,0,2.05.82,4.1,1.4"/><path class="cls-8" d="M50.23,222.12s-1.78-.79-4,1.55c0,0,2.1-.68,4-1.55"/><path class="cls-8" d="M24.55,231.29s-1.77-.79-4,1.55c0,0,2.1-.67,4-1.55"/><path class="cls-8" d="M18.92,232.05s-.81-1.76-4.07-1.5c0,0,2,.87,4.07,1.5"/><path class="cls-8" d="M9.13,227.53s.88-1.73-1.35-4.11c0,0,.58,2.13,1.35,4.11"/><path class="cls-8" d="M6.3,208.68S7.18,207,5,204.56c0,0,.58,2.13,1.35,4.11"/><path class="cls-8" d="M2.44,196.85s1.29-1.45-.24-4.33c0,0,0,2.21.24,4.33"/><path class="cls-8" d="M2.06,204.56s1.3-1.45-.24-4.33c0,0,0,2.21.24,4.33"/><path class="cls-8" d="M4.7,211.31s.56-1.86-2-3.83c0,0,.94,2,2,3.83"/><path class="cls-8" d="M4.62,216.39s.56-1.86-2-3.83c0,0,.94,2,2,3.83"/><path class="cls-8" d="M6,224.52s-1.57-1.06-.82-4.24c0,0,.53,2.13.82,4.24"/><path class="cls-8" d="M6.19,203.11s.34-1.91-2.49-3.55c0,0,1.17,1.87,2.49,3.55"/><path class="cls-8" d="M13.07,213.09s.34-1.91-2.49-3.55c0,0,1.17,1.87,2.49,3.55"/><path class="cls-8" d="M11.86,218.7s1.35-1.4-.08-4.34c0,0-.07,2.21.08,4.34"/><path class="cls-8" d="M14.61,222.68s1.35-1.4-.08-4.33c0,0-.07,2.2.08,4.33"/><path class="cls-8" d="M15.71,226.94s.37-1.9-2.42-3.6c0,0,1.13,1.9,2.42,3.6"/><path class="cls-8" d="M23.21,229s-.88-1.72-4.12-1.33c0,0,2.07.79,4.12,1.33"/><path class="cls-8" d="M1.69,185.8s1.6-1.09.79-4.26c0,0-.52,2.15-.79,4.26"/><path class="cls-8" d="M-.39,191.17s.84-.7.16-3.07c0,0-.15,1.54-.16,3.07"/><path class="cls-8" d="M2.1,177.77s1.85-.59,2-3.85c0,0-1.13,1.9-2,3.85"/><path class="cls-8" d="M6.54,172.8s1.85-.59,2-3.85c0,0-1.12,1.9-2,3.85"/><path class="cls-8" d="M4.78,169.75s1.85-.59,2-3.85c0,0-1.12,1.9-2,3.85"/><path class="cls-8" d="M.69,175.45s1.85-.58,2-3.85c0,0-1.12,1.9-2,3.85"/><path class="cls-8" d="M9.37,165.18s1.94.1,3.22-2.91c0,0-1.72,1.39-3.22,2.91"/><path class="cls-8" d="M13,161.15s1.94.09,3.22-2.91c0,0-1.72,1.39-3.22,2.91"/><path class="cls-8" d="M8.17,162.27s1.93.09,3.21-2.92c0,0-1.72,1.4-3.21,2.92"/><path class="cls-8" d="M17.62,158.24s.7-.9,3.93-.41c0,0-1.95.28-3.93.41"/><path class="cls-8" d="M13.69,155.56s.7-.9,3.92-.41c0,0-2,.27-3.92.41"/><path class="cls-8" d="M20.63,155.45s1-.61,3.84.92c0,0-1.93-.39-3.84-.92"/><path class="cls-8" d="M17.66,153.29s1-.62,3.83.92c0,0-1.93-.39-3.83-.92"/><path class="cls-8" d="M24.13,153.81s1-.61,3.83.92c0,0-1.93-.39-3.83-.92"/><path class="cls-8" d="M27.11,157.84s1-.62,3.84.92c0,0-1.93-.38-3.84-.92"/><path class="cls-8" d="M31.42,157.4s1-.55,3.76,1.21c0,0-1.9-.54-3.76-1.21"/><path class="cls-8" d="M35.24,160.8s1.14-.13,3,2.54c0,0-1.55-1.22-3-2.54"/><path class="cls-8" d="M39.07,160.24s1.14-.12,3,2.54c0,0-1.54-1.21-3-2.54"/><path class="cls-8" d="M41.7,164.11s1.1.32,1.81,3.5c0,0-1-1.71-1.81-3.5"/><path class="cls-8" d="M44.14,163s1.1.33,1.82,3.51c0,0-1-1.72-1.82-3.51"/><path class="cls-8" d="M40.65,167.61s1,.54,1.05,3.8c0,0-.59-1.88-1.05-3.8"/><path class="cls-8" d="M45.78,167.76s1.09.32,1.81,3.5c0,0-1-1.72-1.81-3.5"/><path class="cls-8" d="M44.14,172.35s1.1.32,1.82,3.5c0,0-1-1.71-1.82-3.5"/><path class="cls-8" d="M42.13,173.49s.72.89-.49,3.91c0,0,.17-2,.49-3.91"/><path class="cls-8" d="M46.74,176.27s.72.88-.48,3.91c0,0,.17-2,.48-3.91"/><path class="cls-8" d="M46.91,183.67s.41,1.07-1.69,3.57c0,0,.77-1.81,1.69-3.57"/><path class="cls-8" d="M42.82,179.75s.41,1.07-1.68,3.57c0,0,.77-1.81,1.68-3.57"/><path class="cls-8" d="M43.68,185.45s.41,1.07-1.68,3.57c0,0,.77-1.81,1.68-3.57"/><path class="cls-8" d="M43.65,191.26s-.22,1.12-3.32,2.14c0,0,1.62-1.12,3.32-2.14"/><path class="cls-8" d="M39.7,189s-.22,1.12-3.32,2.14c0,0,1.62-1.13,3.32-2.14"/><path class="cls-8" d="M38.78,192s-.22,1.12-3.31,2.14c0,0,1.61-1.12,3.31-2.14"/><path class="cls-8" d="M32,194.07s-.22,1.12-3.31,2.14c0,0,1.61-1.13,3.31-2.14"/><path class="cls-8" d="M34.34,196.7s-.69.91-3.91.46c0,0,1.94-.3,3.91-.46"/><path class="cls-8" d="M67.51,220s-1.38-1.36-4.34,0c0,0,2.21.1,4.34,0"/><path class="cls-8" d="M60.53,218.82s-1.38-1.37-4.34,0c0,0,2.2.1,4.34,0"/><path class="cls-8" d="M63.56,225.42s-1.37-1.37-4.33,0c0,0,2.2.11,4.33,0"/><path class="cls-8" d="M53.1,225.42s-1.37-1.37-4.34,0c0,0,2.2.11,4.34,0"/><path class="cls-8" d="M12.38,231.73s.91-1.71-1.28-4.14c0,0,.53,2.14,1.28,4.14"/><path class="cls-8" d="M12.58,233.43s1.36,1.38,4.33,0c0,0-2.2-.13-4.33,0"/><path class="cls-8" d="M8.35,220.28s.91-1.71-1.28-4.14c0,0,.53,2.14,1.28,4.14"/><path class="cls-8" d="M8.1,215s1.32-1.42-.16-4.33c0,0,0,2.2.16,4.33"/><path class="cls-8" d="M29.92,237.54s-1.71,1.11-1.08,5.92c0,0,.67-2.94,1.08-5.92"/><path class="cls-8" d="M26.17,239.14s-1.68,1.16-.87,6c0,0,.56-3,.87-6"/><path class="cls-8" d="M37.36,214.48s-2,.51-2.87,5.29c0,0,1.56-2.59,2.87-5.29"/><path class="cls-8" d="M41.45,201.34s-2,.5-2.87,5.28c0,0,1.55-2.59,2.87-5.28"/><path class="cls-8" d="M55.53,178.7s-2-.25-4.63,3.85c0,0,2.4-1.83,4.63-3.85"/><path class="cls-8" d="M33,243.73s-1.71,1.1-1.07,5.92c0,0,.66-2.94,1.07-5.92"/><path class="cls-8" d="M26.23,250.8s-1.71,1.1-1.07,5.92c0,0,.66-2.94,1.07-5.92"/><path class="cls-8" d="M28.71,255.37s-1.71,1.1-1.08,5.92c0,0,.67-2.94,1.08-5.92"/><path class="cls-8" d="M87.73,212.16s-1.68,1.17-.85,6c0,0,.55-3,.85-6"/><path class="cls-8" d="M89.12,222.72s-1.66,1.17-.85,6c0,0,.55-3,.85-6"/><path class="cls-8" d="M81.58,173.86s-1.79.95-1.58,5.81c0,0,.91-2.88,1.58-5.81"/><path class="cls-8" d="M88.57,187.54s-1.05,1.74,1.64,5.79c0,0-.7-2.94-1.64-5.79"/><path class="cls-8" d="M89.88,203.39s-1.34,1.53.58,6c0,0-.16-3-.58-6"/><path class="cls-8" d="M98.34,163.94s-1.83,1.92.44,7.77c0,0-.06-3.9-.44-7.77"/><path class="cls-8" d="M89,91.51s-1.83.89-1.77,5.75c0,0,1-2.84,1.77-5.75"/><path class="cls-8" d="M73.87,111.78s-1.33,1.54.66,6c0,0-.21-3-.66-6"/><path class="cls-8" d="M73.32,130.47s-1.32,1.55.65,6c0,0-.2-3-.65-6"/><path class="cls-8" d="M81.9,110.18s-1.64,1.19-.74,6c0,0,.5-3,.74-6"/><path class="cls-8" d="M75.36,91.78s-1.58,1.29-.38,6c0,0,.32-3,.38-6"/><path class="cls-8" d="M78.81,122.86s-1.57,1.3-.37,6c0,0,.31-3,.37-6"/><path class="cls-8" d="M78.9,99.31s-1.6,1.26-.53,6c0,0,.39-3,.53-6"/><path class="cls-8" d="M82.34,136.46s-1.6,1.26-.53,6c0,0,.4-3,.53-6"/><path class="cls-8" d="M106.32,156.46s-1.6,1.26-.52,6c0,0,.38-3,.52-6"/><path class="cls-8" d="M94.65,182.65s-1.6,1.25-.53,6c0,0,.39-3,.53-6"/><path class="cls-8" d="M101.91,201.17s-1.6,1.25-.53,6c0,0,.39-3,.53-6"/><path class="cls-8" d="M104,213.09s-1.61,1.25-.52,6c0,0,.38-3,.52-6"/><path class="cls-8" d="M102.33,234.2s-1.79,1-1.53,5.83c0,0,.89-2.89,1.53-5.83"/><path class="cls-8" d="M159.31,247.33s1.38,1.49-.43,6c0,0,.09-3,.43-6"/><path class="cls-8" d="M110.29,252.14s-1.07,1.73,1.58,5.81c0,0-.67-2.94-1.58-5.81"/><path class="cls-8" d="M100,254.89s-.57,1.9,2.46,4.35c0,0-1.14-2.26-2.46-4.35"/><path class="cls-8" d="M96.66,217.89s-2.48.71-3.22,6.29c0,0,1.77-3.09,3.22-6.29"/><path class="cls-8" d="M109.17,224.5s-1.73,1.36-.64,6.87c0,0,.45-3.42.64-6.87"/><path class="cls-8" d="M157,218.41s1.74,1.36.64,6.87c0,0-.46-3.42-.64-6.87"/><path class="cls-8" d="M157,241s1.18,1.85-1.7,6.68c0,0,.72-3.37,1.7-6.68"/><path class="cls-8" d="M156.51,230s1.13,1.58-1.15,5.9c0,0,.46-3,1.15-5.9"/><path class="cls-8" d="M146.63,230.38s1.13,1.57-1.15,5.9c0,0,.46-3,1.15-5.9"/><path class="cls-8" d="M160.49,209.63s1.13,1.57-1.15,5.9c0,0,.45-3,1.15-5.9"/><path class="cls-8" d="M165.34,189.67s1.13,1.58-1.15,5.89c0,0,.46-3,1.15-5.89"/><path class="cls-8" d="M165.2,172.44s1.52,1.21.49,6c0,0-.36-3-.49-6"/><path class="cls-8" d="M167,162.8s1.52,1.21.49,6c0,0-.36-3-.49-6"/><path class="cls-8" d="M153.28,225.4s-1.64,1-1.15,5.9c0,0,.69-2.92,1.15-5.9"/><path class="cls-8" d="M131.91,247.9s-1.18,1.87,1.7,6.68c0,0-.72-3.37-1.7-6.68"/><path class="cls-8" d="M124.35,236.28s-1.16,1.87,1.79,6.66c0,0-.77-3.37-1.79-6.66"/><path class="cls-8" d="M139.27,251s-1.15,1.87,1.8,6.66c0,0-.77-3.37-1.8-6.66"/><path class="cls-8" d="M139.27,237.59s-1.16,1.87,1.8,6.66c0,0-.77-3.36-1.8-6.66"/><path class="cls-8" d="M110.66,211s-1.6,1.26-.52,6c0,0,.39-3,.52-6"/><path class="cls-8" d="M112.64,231.71s-1.37,1.51.47,6c0,0-.11-3-.47-6"/><path class="cls-8" d="M150.22,245.24s-1.37,1.5.47,6c0,0-.11-3-.47-6"/><path class="cls-8" d="M115.41,218.82s-1.6,1.26-.53,6c0,0,.39-3,.53-6"/><path class="cls-8" d="M115.85,241.43s-.45,2,3.38,5c0,0-1.59-2.56-3.38-5"/><path class="cls-8" d="M134.91,240.91s-1.41,1.47.32,6c0,0,0-3-.32-6"/><path class="cls-8" d="M122.45,250.33s-.45,2,3.38,5c0,0-1.59-2.56-3.38-5"/><path class="cls-8" d="M115.42,253.33s-.45,2,3.38,5c0,0-1.59-2.56-3.38-5"/><path class="cls-8" d="M121.16,221.85s-1.23,1.62,1,5.93c0,0-.39-3-1-5.93"/><path class="cls-8" d="M135.4,229.88s-1.23,1.62,1,5.93c0,0-.4-3-1-5.93"/><path class="cls-8" d="M95,230.18s-1.6,1.25-.53,6c0,0,.39-3,.53-6"/><path class="cls-8" d="M101.55,224.18s-1.6,1.26-.53,6c0,0,.39-3,.53-6"/><path class="cls-8" d="M118.84,230s-1,1.76,1.75,5.76c0,0-.76-2.92-1.75-5.76"/><path class="cls-8" d="M128.39,232.35s-1,1.76,1.75,5.76c0,0-.75-2.92-1.75-5.76"/><path class="cls-8" d="M151,235.24s1.36.87,1.19,5.73c0,0-.69-2.83-1.19-5.73"/><path class="cls-8" d="M158.74,226.38s1.35.87,1.19,5.73c0,0-.69-2.84-1.19-5.73"/><path class="cls-8" d="M146.22,241.9s1.07,1.2-.41,5.83c0,0,.1-2.91.41-5.83"/><path class="cls-8" d="M163.43,252.41s1.27,1,.69,5.81c0,0-.44-2.88-.69-5.81"/><path class="cls-8" d="M164.23,239.39s.41,1.56-3,5c0,0,1.43-2.54,3-5"/><path class="cls-8" d="M164.21,211.24s1.07,1.2-.41,5.83c0,0,.11-2.91.41-5.83"/><path class="cls-8" d="M168.31,182.4s1.06,1.2-.41,5.83c0,0,.11-2.91.41-5.83"/><path class="cls-8" d="M167.07,195.57s1.07,1.21-.41,5.84c0,0,.11-2.92.41-5.84"/><path class="cls-8" d="M171.59,170.2s1.07,1.2-.42,5.83c0,0,.11-2.91.42-5.83"/><path class="cls-8" d="M161.38,160.5s1.44.73,1.76,5.57c0,0-1-2.75-1.76-5.57"/><path class="cls-8" d="M172.39,159.87s1.14,1.14,0,5.85c0,0-.07-2.91,0-5.85"/><path class="cls-8" d="M176.9,162.38s1.22-.1,3.44,3c0,0-1.76-1.42-3.44-3"/><path class="cls-8" d="M181.66,165.8s1.22-.1,3.44,3c0,0-1.76-1.41-3.44-3"/><path class="cls-8" d="M180.08,168.54s1.21.15,2.75,3.6c0,0-1.42-1.75-2.75-3.6"/><path class="cls-8" d="M185.74,172.15s1.22.16,2.75,3.6c0,0-1.44-1.75-2.75-3.6"/><path class="cls-8" d="M183.38,173.7s1.16.41,2,4.1c0,0-1-2-2-4.1"/><path class="cls-8" d="M188.17,178.42s1.16.4,2,4.1c0,0-1-2-2-4.1"/><path class="cls-8" d="M188.79,183.54s1.15.4,1.95,4.09c0,0-1-2-1.95-4.09"/><path class="cls-8" d="M193,182.85s1.16.4,2,4.1c0,0-1-2-2-4.1"/><path class="cls-8" d="M193.37,187.64s1.16.4,2,4.1c0,0-1-2-2-4.1"/><path class="cls-8" d="M197.09,193s1.22-.12,3.47,2.91c0,0-1.78-1.4-3.47-2.91"/><path class="cls-8" d="M200.19,197.15s1.2.25,2.47,3.81c0,0-1.29-1.86-2.47-3.81"/><path class="cls-8" d="M202.39,204s1.2.25,2.47,3.81c0,0-1.29-1.85-2.47-3.81"/><path class="cls-8" d="M203.62,209.28s1.06.61,1.13,4.39c0,0-.63-2.17-1.13-4.39"/><path class="cls-8" d="M205.41,213.68s1.06.61,1.14,4.39c0,0-.64-2.16-1.14-4.39"/><path class="cls-8" d="M206,220s1.06.62,1.13,4.4c0,0-.64-2.17-1.13-4.4"/><path class="cls-8" d="M206.65,228.27s1.06.61,1.13,4.39c0,0-.64-2.16-1.13-4.39"/><path class="cls-8" d="M209.4,233s1.06.61,1.13,4.38c0,0-.63-2.17-1.13-4.38"/><path class="cls-8" d="M208,238.79s1.05.61,1.13,4.39c0,0-.64-2.17-1.13-4.39"/><path class="cls-8" d="M212.27,242.78s1.05.62,1.13,4.39c0,0-.64-2.17-1.13-4.39"/><path class="cls-8" d="M210.89,248.07s1.06.62,1.13,4.39c0,0-.63-2.17-1.13-4.39"/><path class="cls-8" d="M209.4,254.08s1.06.61,1.13,4.39c0,0-.63-2.17-1.13-4.39"/><path class="cls-8" d="M212.83,255.79s1.06.62,1.13,4.39c0,0-.63-2.17-1.13-4.39"/><path class="cls-8" d="M167.34,153.36s1.46.69,1.89,5.53c0,0-1-2.72-1.89-5.53"/><path class="cls-8" d="M159.62,152.53s1.61.06,3.92,4.33c0,0-2-2.09-3.92-4.33"/><path class="cls-8" d="M172.68,151.86s1.6.06,3.92,4.34c0,0-2-2.1-3.92-4.34"/><path class="cls-8" d="M163.81,201.32s1.07,1.2-.4,5.83c0,0,.1-2.91.4-5.83"/><path class="cls-8" d="M144.84,252.4s1.07,1.21-.42,5.84c0,0,.12-2.92.42-5.84"/><path class="cls-8" d="M162.2,234s.82,1.39-1.53,5.65c0,0,.67-2.83,1.53-5.65"/><path class="cls-8" d="M156.76,254.87s.82,1.38-1.53,5.64c0,0,.68-2.84,1.53-5.64"/><path class="cls-8" d="M163.82,222.87s1.07,1.21-.41,5.84c0,0,.11-2.91.41-5.84"/><path class="cls-8" d="M94.29,243s-1.16,1.67,1.25,5.89c0,0-.51-3-1.25-5.89"/><path class="cls-8" d="M92.38,253.44s-1.76,1-1.35,5.87c0,0,.8-2.91,1.35-5.87"/><path class="cls-8" d="M101.84,247.55s-1.16,1.67,1.25,5.89c0,0-.51-3-1.25-5.89"/><path class="cls-8" d="M107.6,240.2s-1.21,1.63,1.07,5.92c0,0-.42-3-1.07-5.92"/><path class="cls-8" d="M106.56,168.72s-1.6,1.25-.52,6c0,0,.39-3,.52-6"/><path class="cls-8" d="M99.23,192.62s-1.6,1.25-.53,6c0,0,.39-3,.53-6"/><path class="cls-8" d="M97.89,208.74s-1.6,1.25-.53,6c0,0,.39-3,.53-6"/><path class="cls-8" d="M100.13,152.66s-1.6,1.25-.53,6c0,0,.39-3,.53-6"/><path class="cls-8" d="M90.64,166.26s-2.42,1.65-1.22,7.34c0,0,.79-3.68,1.22-7.34"/><path class="cls-8" d="M112.61,158.36s-2,.52-2.84,5.3c0,0,1.54-2.6,2.84-5.3"/><path class="cls-8" d="M85.45,147s-2.44,1.65-1.23,7.35c0,0,.8-3.68,1.23-7.35"/><path class="cls-8" d="M77.3,155.66s-1.6,1.26-.53,6c0,0,.39-3,.53-6"/><path class="cls-8" d="M77.75,168.34s-1.6,1.25-.53,6c0,0,.39-3,.53-6"/><path class="cls-8" d="M93.72,153.25s-2.74.9-3.44,7.37c0,0,1.89-3.62,3.44-7.37"/><path class="cls-8" d="M83.4,86.7s-1.85.84-1.92,5.7c0,0,1.09-2.81,1.92-5.7"/><path class="cls-8" d="M70.69,99.66s-1.57,1.31-.33,6c0,0,.29-3,.33-6"/><path class="cls-8" d="M104,81.82s-1.88.77-2.16,5.62c0,0,1.2-2.77,2.16-5.62"/><path class="cls-8" d="M145.19,90.38S143.3,91.15,143,96c0,0,1.21-2.77,2.17-5.62"/><path class="cls-8" d="M128.51,77.15S129.6,79,126.83,83c0,0,.72-3,1.68-5.82"/><path class="cls-8" d="M139.42,78.14s1.66,1.32.51,6c0,0-.39-3-.51-6"/><path class="cls-8" d="M177.42,101s1.67,1.31.51,6c0,0-.38-3-.51-6"/><path class="cls-8" d="M172.5,109s2.12.12,3.89,4.65c0,0-2.05-2.25-3.89-4.65"/><path class="cls-8" d="M182.81,107.58s2,.67,2.55,5.5c0,0-1.4-2.7-2.55-5.5"/><path class="cls-8" d="M153.88,112.94s.61,2-3,5.24c0,0,1.42-2.7,3-5.24"/><path class="cls-8" d="M160,111s.61,2-3,5.24c0,0,1.42-2.7,3-5.24"/><path class="cls-8" d="M151.07,97.6s1.53,1.48-.1,6.06c0,0-.08-3,.1-6.06"/><path class="cls-8" d="M148.2,59.32s2.12-.1,4.36,4.22c0,0-2.28-2-4.36-4.22"/><path class="cls-8" d="M152.62,68.46s1.87,1,1.57,5.85c0,0-.92-2.9-1.57-5.85"/><path class="cls-8" d="M175.47,84s1.88,1,1.58,5.86c0,0-.92-2.91-1.58-5.86"/><path class="cls-8" d="M166.09,110.71s1.17,1.77-1.39,5.9c0,0,.57-3,1.39-5.9"/><path class="cls-8" d="M160.55,65.89s2-.59,5.22,3.09c0,0-2.69-1.44-5.22-3.09"/><path class="cls-8" d="M158.6,74.51s2-.59,5.21,3.09c0,0-2.68-1.44-5.21-3.09"/><path class="cls-8" d="M167.07,73.93s2.13-.11,4.36,4.21c0,0-2.28-2-4.36-4.21"/><path class="cls-8" d="M145.14,66.75s1.66,1.32.51,6c0,0-.38-3-.51-6"/><path class="cls-8" d="M147.36,77.85s1.66,1.32.51,6c0,0-.38-3-.51-6"/><path class="cls-8" d="M96.82,93.76s-1.65,1.2-.74,6c0,0,.49-3,.74-6"/><path class="cls-8" d="M111.56,72.71s-1.75,1-1.33,5.87c0,0,.79-2.92,1.33-5.87"/><path class="cls-8" d="M137.23,67.06s-1.94.6-2.63,5.42c0,0,1.43-2.66,2.63-5.42"/><path class="cls-8" d="M180.9,90.42s-.82,1.87,2.37,5.53c0,0-1.07-2.82-2.37-5.53"/><path class="cls-8" d="M184.21,100.26s-.81,1.86,2.38,5.54c0,0-1.07-2.82-2.38-5.54"/><path class="cls-8" d="M122,68.45s-1.76,1-1.34,5.87c0,0,.79-2.91,1.34-5.87"/><path class="cls-8" d="M110,65s-2,0-4.22,4.29c0,0,2.2-2.06,4.22-4.29"/><path class="cls-8" d="M94.56,86.62s-1.75,1-1.33,5.87c0,0,.8-2.91,1.33-5.87"/><path class="cls-8" d="M109.88,86.55s-1.42,1.45.27,6c0,0,0-3-.27-6"/><path class="cls-8" d="M117.16,77.79s-1.42,1.46.28,6c0,0,0-3-.28-6"/><path class="cls-8" d="M133.09,86.13s-1.42,1.45.28,6c0,0,0-3-.28-6"/><path class="cls-8" d="M140.47,58.66s-1.42,1.46.28,6c0,0,0-3-.28-6"/><path class="cls-8" d="M130.26,61.38s-2,.44-3.08,5.17c0,0,1.66-2.52,3.08-5.17"/><path class="cls-8" d="M120.59,85.53s-1.67,1.16-.87,6c0,0,.56-3,.87-6"/><path class="cls-8" d="M68.87,111l-.17-.07c-1.7-.43-16.43-4.17-25.8-6.68,0,0-8.76-1.71-12.08-1.21,0,0-1.72,28.41,3.09,37.79s2.81,11.95,8.34,11.15c5.13-.74,24.45-1.35,28.42-8-2.08-23.43-1.8-33-1.8-33"/><path class="cls-8" d="M30.79,137.15c1.84,11.55,2.89,15.65,9.06,16.85s31.48-3,31.48-3c-.25-2.47-.46-4.8-.66-7-4,6.65-23.28,7.25-28.42,8-5.54.8-3.53-1.76-8.34-11.15S30.82,103.06,30.82,103l-.36.09c-4.58,3.76-1.52,22.45.32,34"/><path class="cls-8" d="M71.65,113.7s-19.2-3.74-25.94-7.53-9.76-1.26-9.89,8,10.75,6.75,10.75,6.75l24.37-5.22Z"/><path class="cls-8" d="M42.9,104.25c9.36,2.51,24.09,6.25,25.8,6.68C43.78,101,32.83,102.6,30.82,103c3.33-.5,12.08,1.2,12.08,1.2"/><path class="cls-8" d="M36.25,110s-8.86,26,4.14,39.57c0,0,24.06-.17,29.95-6.23,0,0-27.62,6.69-29.58,1.15s-4-6.61-4.51-34.48"/><path class="cls-8" d="M42.26,144.61c9.47,4.82,23.35-14.52,20.3-22.62s-5,.48-14-6.72-13,0-13,0c-.11,1.16-.25,2.57-.38,4.16.63,3.22-2.31,20.37,7.15,25.19"/><path class="cls-8" d="M41.22,148.3s22.33-1.24,29.12-4.92c0,0-1.72-22.92-1.42-27.17,0,0-1.63-1.68-6.36-2.24a16.81,16.81,0,0,1-7.06-2.17s-8.59-1.2-11.71-3.45-4.3-.71-5-.16c-1.35,1.11-2.73-.32-3.13,5,0,.53-.11,1.25-.2,2.1,0,0,4-7.19,13,0s11-1.38,14,6.72-10.83,27.44-20.3,22.62-6.52-22-7.15-25.19c-.71,9-1,23.55,6.11,28.88"/><path class="cls-8" d="M35.48,115.26l-.38,4.16s-2.58,24.69,10,25.94c0,0-7.92-7.52-2.51-16.48s5.77-16.71-1-16.82-6,1.43-6.19,3.2"/><path class="cls-8" d="M191.12,125.59h13.32s2.41,2.62,2,12.31-.86,10.64-2.68,12,4.39-20.17-2.83-21.29-9.79-3.05-9.79-3.05"/><path class="cls-8" d="M115,134.13s-4.33,4.38-1.71,9.09,7.25,5.67,10.19,2.65,4.49-6.82,2.64-9.52a14.26,14.26,0,0,0-5.59-4.22s-4.29.36-5.53,2"/><path class="cls-8" d="M116,135.63s-.95,4,2,2.74a1.57,1.57,0,0,0,.62-2.22,3.32,3.32,0,0,0-1.3-1s-1,.08-1.29.47"/><path class="cls-8" d="M153.33,147.34c-.06-.05-.42-7.24,4.39-6.62s6.38,3.39,6.95,6.34c0,0-7.34,3.85-11.33.28"/><path class="cls-8" d="M155.25,142.44s-.51,2.13,1.06,1.47a.84.84,0,0,0,.33-1.19,1.78,1.78,0,0,0-.7-.53s-.54,0-.69.25"/><path class="cls-8" d="M135.06,145.52s-10.75,3.61-2.24,10.48c0,0-5.65-5.22,2.24-10.48"/><path class="cls-8" d="M149.42,146.91s1,8.74-2.4,10.43c0,0,6.82-1.52,2.4-10.43"/><path class="cls-8" d="M135.93,148s-3.89.66-2.65,3.19,4.88,6.64,5.22,3.67-.79-5.92-2.57-6.86"/><path class="cls-8" d="M142.11,155.76s2.22-7.16,4-6.46,3.11,1.29.76,5-4.31,1.59-4.75,1.51"/><path class="cls-8" d="M140.87,160.5s.9,6.73,1.6,9.54c.66,2.63,1,13.85,0,15.81s2.09,4,2.13-3.85-1.18-11.7-1.18-11.7-2.31-8.56-2.55-9.8"/><path class="cls-8" d="M139.51,198.18A12.66,12.66,0,0,0,134.8,203a7.23,7.23,0,0,1,4.07-1.17s-4.22,2.56-4.07,5.34c0,0,.49-4.38,12.19-7.05s3.49-2.94,3.49-2.94Z"/><path class="cls-8" d="M108,189.84l1.85-.64a57.68,57.68,0,0,0,10.75,3.69c4.65.89,5.93,1.21,6.5,1.21s8.63-.68,14.26-1.14a146.48,146.48,0,0,0,15.7-2.84s3.84-3.09,3.55-6.13,1,.78,1,.78l-4.24,6.8-16.69,2.81-15.49.43s-10.35-1.93-10.91-2.33-4.49-2.65-6.26-2.65"/></g></g><path class="cls-9" d="M4.5,203.18c6,41.89,18.59,31.79,18.59,31.79s42-21,52.79,1.53C85.22,256,94.56,255,96.9,254.34L94,237.87S89.53,258.41,75.3,227.7c0,0-8.67-13.91-52.63,6.63,0,0-10.59,2.87-12.09-15.79s-5.67-23.36-5.67-23.36-2.71-33.83,17-42.75C12.33,154.8-.65,167.14,4.5,203.18"/><path class="cls-10" d="M94.1,231.38s-.18-.26-.52-.69a4.87,4.87,0,0,1-1.84,2.82S81,236.39,78.91,225.8s-20.14-7-31.21-2.82l0,0a49.58,49.58,0,0,1-10.38,4.2l.15.29c-29.06,9.95-22.78-14.55-22.78-14.55C-3,183.3,10.39,175.85,10.39,175.85h0c3.47-8.23,9-17.44,15.56-17.74,0,0,15.49-2,18.54,14.82s-11.32,20.3-11.32,20.3-3.61,1.05-1.53,5.71l.64,0c13-4.15,22.06-29.91,14.45-35.56s-24.82-10.91-24.82-10.91c-19.71,8.92-17,42.75-17,42.75s4.17,4.7,5.67,23.36,12.09,15.79,12.09,15.79c44-20.54,52.63-6.63,52.63-6.63C89.53,258.41,94,237.87,94,237.87l2.88,16.47a3.51,3.51,0,0,0,.56-.19Z"/><path class="cls-11" d="M78.91,225.8c2.08,10.59,12.83,7.71,12.83,7.71a4.87,4.87,0,0,0,1.84-2.82c-3-3.82-19.14-22-45.5-7.9-.14.07-.28.13-.42.21l0,0c11.07-4.14,29.12-7.77,31.21,2.82"/><path class="cls-9" d="M48.41,224.29s-1.77-.79-4,1.56c0,0,2.1-.69,4-1.56"/><path class="cls-9" d="M221,297.24s3.32-12.31-2.35-19.47-7.29-34.23-7.29-34.23-2.16-45.9-10.18-48.06S180.81,162,180.81,162l-1.64,5.56c-.17.62-.34,1.24-.5,1.89l.13.41c1.63,2.09,14.52,18.71,16.7,26.3,2.33,8.1,9.47,34.66,11.71,48.38,0,0-.08,16.29.8,25.51,0,0-.8,17.26-.08,23a54.72,54.72,0,0,1,.56,6.58s19.85,11.39,25.36,13.53a9.08,9.08,0,0,0,4.61-1.5l3.09-2.38,0,0c-10.4,4.64-20.59-12.06-20.59-12.06"/><path class="cls-12" d="M14.64,212.94s-6.28,24.5,22.78,14.55l-.15-.29C19,231.93,19.81,214.1,19.81,214.1S5,195.31,6.78,186.73a65.8,65.8,0,0,1,3.61-10.88h0S-3,183.3,14.64,212.94"/><path class="cls-9" d="M33.18,193.23s14.37-3.45,11.32-20.3S26,158.11,26,158.11c3-.14,6.15,1.56,9.43,6C49.78,183.71,33.81,187,31.95,191c-1.35,2.9-5.16,7.92-.3,8-2.08-4.65,1.53-5.71,1.53-5.71"/><path class="cls-11" d="M32.29,198.9a36.5,36.5,0,0,0,9.1-2.41c17.81-6.47,9-34.15,9-34.15s-15.19-7.77-21.95-9.93a12.4,12.4,0,0,0-6.54,0s17.2,5.26,24.82,10.91-1.47,31.41-14.45,35.56"/><path class="cls-10" d="M219.8,120.38c-5-2.56-24.6-1.36-24.6-1.36l-.12,0-11.37,34.78,1.66-4.25a13.07,13.07,0,0,0,8.78,3.73c5.19-.05,11.39,4.17,20.83-1.79.3-1.06.6-2.09.87-3.11,2.18-9.31,3.94-28,3.94-28"/><path class="cls-9" d="M192.52,154.63C210,159.3,215,151.51,215,151.51c-9.44,6-15.64,1.74-20.83,1.79a13.07,13.07,0,0,1-8.78-3.73l-1.66,4.25-.06.18v0a43.44,43.44,0,0,1,8.85.61"/><path class="cls-9" d="M193.3,121s17.38-2,24.28,1.39c0,0,.18,30.08-9.46,29.48s-10-2.08-10-2.08Z"/><path class="cls-10" d="M169.65,71.62c-6.26-9.23-18-16.1-18.14-16.22C139,53.52,102,67.22,88.46,92.05c-13.91,25.46,1,98.53,3.74,109.76s1.61,22.68,2.57,37.44,8.56,20.43,8.56,20.43c-8.87,9.63.43,48.46.43,48.46l7.81,4.6C101.18,309,76,325.49,90.49,329.32c9.62,2.56,22.21-2.6,29.57-6.33-1.17-5.21-3-14.29-3.19-21.2-.32-10.27,6.82-34.25,6.82-34.25s10.57.61,16.5-.59c13-2.64,20.73-19.39,20.73-19.39v.18s0,.07,0,.12,0,.06,0,.09a1.4,1.4,0,0,1,0,.18v.12c0,.08,0,.16,0,.25s0,.06,0,.09,0,.22,0,.34h0a27.81,27.81,0,0,1-.38,2.81h0a22.35,22.35,0,0,1-6.08,11.9h0c-.24.25-.51.49-.78.72l0,0a19.47,19.47,0,0,1-5,3.1h0c.44-.21,14.78,9.29,5.69,41.17,0,0-4.36,17.81,30,14.26l.84-.09,1-4.7c-3.37-7.22-24.55-8.83-24.55-8.83,7.06-20.38,7.54-59.69,7.54-59.69s-.8-56.17,15.09-96.77C195,125,196.31,114.31,196,110.33c-9.09-4-20.09-29.42-26.39-38.72"/><path class="cls-9" d="M87.43,115.06s4.48-26.94,38.14-25.9c0,0,23.75,5.14,28.68,10.37,0,0,3.32,15.51-.56,21.25l42.39-10.44s-.81,37.65-23.92,40.25c0,0,16.32-7,19-31.91l-40.54,5s2.88-19.79-3-22.47c0,0-40.56-11.87-60.18,13.81"/><path class="cls-9" d="M160,150.63s8.93,21.64,8.71,30.69S161,223.81,154,226.38s-13.1,2.7-16.75,0c0,0,12.09.26,17.12-7.22s8.77-26.1,8.77-26.1l3-7.27-2.72-12.09Z"/><path class="cls-13" d="M191.48,116.61l-39.15,5.45c2.88-8.58-1.93-21.66-1.93-21.66-31.45-12.92-49.91,2.09-59.93,9.87S95,145,95,145l28.17,9.48s-9.51,29.59-11,35.36,21.82,34,29.58,33.74,12.1-.44,14-3.58c4-8.43,10.54-29.32,10.4-34.23C166,180,160,150.63,160,150.63H171.9c21-2.73,19.57-34,19.57-34"/><path class="cls-14" d="M141.73,223.58c-7.76.26-31-28-29.58-33.74s11-35.36,11-35.36l-12.2,35.78c1.93,19.74,26.32,36.11,26.32,36.11s13.48.48,16.69-3.21a15.06,15.06,0,0,0,1.8-3.16c-1.89,3.14-6.24,3.32-14,3.59"/><path class="cls-10" d="M178.62,169.68l.18.22-.13-.41c0,.06,0,.13,0,.19"/><path class="cls-9" d="M178.62,169.32l0,.17c.16-.65.34-1.28.5-1.89Z"/><path class="cls-9" d="M160.9,247.94s0-.06,0-.09,0,.06,0,.09"/><path class="cls-9" d="M160.87,248.58s0-.06,0-.09,0,.06,0,.09"/><path class="cls-9" d="M184.22,322.94c-34.32,3.55-30-14.26-30-14.26,9.09-31.88-5.24-41.38-5.69-41.17h0a19.48,19.48,0,0,0,5-3.1l0,0c.27-.23.54-.47.78-.72h0a22.38,22.38,0,0,0,6.08-11.9h0a27.74,27.74,0,0,0,.37-2.81h0c0-.12,0-.23,0-.34s0-.06,0-.1,0-.17,0-.25v-.12a1.71,1.71,0,0,0,0-.18s0-.06,0-.09,0-.09,0-.12v-.18s-11.06,14.69-24.07,17.34l-13.16,2.65,1.65.39a50,50,0,0,0,14.21,1.55l2.27-.18c15.08,16.54,4.9,49.18,4.9,49.18.88.89,10.43,7.45,17.74,9.33l4.31.46a6,6,0,0,0,.9-.15c6.74-1.77,15.25-4.49,15.25-4.49l.15-.76-.84.09"/><polygon class="cls-10" points="183.65 154.03 183.67 154.03 183.65 154.01 183.65 154.03"/><polygon class="cls-9" points="183.65 154 183.65 154.01 183.71 153.82 183.65 154"/><path class="cls-15" d="M112.16,189.84s4.66,2.23,6.07,4.25,12.39,2,12.39,2l15.52-.89,16.08-2.58,3.51-7.84L161.44,191,146,193.71l-16,.94-11.1-2.14-5.05-2.7Z"/><path class="cls-9" d="M152.36,55.54A30.59,30.59,0,0,0,146.07,54c-19.1-2.4-51.36,18.13-65,28.88s-8,27.76-8,27.76c-1.1,11.66.69,29.55,3.63,48.45l0-.14c-5.12,1.44-5.93,5.21-17.88,17.81a74.41,74.41,0,0,0-16.45,28.72c-.08.48-16,40.44-16.82,42.49s-2.95,5.46-1.93,6.58a1.84,1.84,0,0,1,.53,2c-1.37,17.49-2.73,28.36-3.25,31.73s-4.37,21.58-6.5,27.4-7.58,16.12-7.58,16.12a34.47,34.47,0,0,0,16.38,1.24c3.42-.66,6.31-2.07,8-4.35a6.38,6.38,0,0,0,.6-.9c3.53-6.58,8.58-8.27,8.58-8.27-2.62-.21-2.46.16-10.27,6.32s-20.38,3.58-20.38,3.58l4.39-4.81c1.5-20.59,18-16,13.85-23.11S26.79,255,26.79,255c-4.66,2.14-.81-5.78-.81-5.78L38.13,224a93.39,93.39,0,0,0,9.47-23.64c3-12.94,10.43-17.27,19.9-30.59a25.19,25.19,0,0,1,4.89-5.41c4.75-2.83,2.92,1.1,2.92,1.1-4.74,3.64-7.25,14.71-7.25,14.71h0c7.61-11.3,10.21-11.4,10.21-11.4,6.32,36.91,15.81,74.27,15.81,74.27-1.44,18.94,6.26,66.44,6.26,66.44-9.15,1.44-25.68,18.94-25.68,18.94l26,5.93L121,327.14s-.41-1.62-1-4.15c-7.36,3.73-19.95,8.9-29.57,6.33C76,325.49,101.18,309,111.57,312.75l-7.81-4.6s-9.31-38.83-.43-48.46c0,0-7.59-5.67-8.56-20.43s5.47-31.95,2.69-43.17-22.91-78.57-9-104,52.31-39.18,63.9-36.51"/><path class="cls-14" d="M90.75,116.88S114,97.13,131.84,100s15.88,3.37,15.88,3.37,7,14.21,2.65,19.61c0,0,34.18-3.63,38.22-3.57,0,0,3.31,22.47-16.43,31.22,0,0,20.33,2.71,19.32-34l-39.15,5.45s3.53-5.45-1.93-21.66c0,0-17.7-8.24-32.8-4.16,0,0-13.53,1.87-21.42,9.71,0,0-8.7,3.11-9.13,11.21S87.33,131.88,95,145c0,0-10.12-22.81-4.2-28.13"/><path class="cls-14" d="M135.73,149s-.35,2.35,2.16,1.17,1.69-3.29,3.87-2.11.8,3.34,3.41,3.59,2.51-.22,1.34,2.58,1.29,1.11,1.5,1.07,3-3.52,3-3.52.53-.75.84-.37,2,1.43,1.83-1.54c0,0,1.69,7.68-4.44,7.92s-12.41-.2-13.9-3.73-1.44-5.57.35-5.06"/><path class="cls-15" d="M145,160.36A60.89,60.89,0,0,0,146.33,175s-1.47,9.42-.67,11.1,1.22,1.5,1.22,1.5l1.38-4.83s-.43-9.29-.48-9.21-1.75-8.08-1.75-8.08Z"/><path class="cls-15" d="M160,150.63s6.58,29.44,6.58,35.14c0,0-4.58,22.9-10.88,34.23,0,0,10.27-30.48,10.29-34.93s-6.58-17-6-34.45"/><path class="cls-11" d="M152.36,55.54c-.27-.06-.55-.1-.85-.14.19.11,9,8.72,16.45,17s20.14,37.23,28.08,37.94c-.12-1.82-.56-2.23-.56-2.23-10.42-26-26.31-46.63-43.13-52.56"/><path class="cls-9" d="M155.58,95.06s1.07-7.43,5.24-7.06,8.32,4.31,8.32,4.31l-1.55,4.22-4.65,1.55s-2.75-3.45-2.75-4.47l-1.34,5.54s2,5.88,2.23,5.91,5,2.88,5,2.88L174.7,105l2.59-4.65s.06,12.22-12.46,11.52l-8.4-3.68-1.5-7.73s-.56-3.44,2.09-4.75c0,0-.39,1.68.76,1.79,0,0-1.58-2.38,1.89-5.65l.05,0c3.55-3.27-3.24-.57-4.14,3.2"/><path class="cls-11" d="M152.93,86.19s5.6-3,6.93-3,8.25,2.18,10.43,6.24c3.78,7,1.61,11,1.61,11s-3.64,5.92-6.69,6.24c0,0,10.59-1.15,11.08-5.22s-.64-6-.64-6l-4.57-12.88s-4.61-7-9.11-5.13-8.34,5.15-9,8.73"/><path class="cls-9" d="M161.92,85.91h2.87L170.32,91s5.52,10.82-7.12,8.24l0-1.38,6.19-2-.46-4-3.69-2.31-3.31-3.17Z"/><path class="cls-16" d="M152.85,86.32S163.52,69,170.58,84s5.13,17.34,5.13,17.34-4.73,5.3-10.51,5.38c0,0-8.26-4.9-5-12,0,0,.32,8.91,9.63,2.09l-.33-5.24-7.62-5.59s-6.25,2.41-6.34,9.14c0,0,2-6.63,5.53-5.93l7.54,3.21-1.36,3.93s-6.49,2.29-6.9-3.44c0,0-8.66,10.56,6.26,15.32,0,0,8,1.51,10.64-7.75,0,0-5.61-41.27-26.15-14.52,0,0,.86,1.18,1.71.46"/><path class="cls-11" d="M87.64,114.15S83.91,127.62,95,145c0,0,24.1,7.12,28.17,9.47,0,0-11.18,33-12.2,35.78,0,0,2.19,18.88,26.32,36.11,0,0-29.85-16.31-30.49-33.75,0,0,8.67-28.86,12.73-34.75L93.49,146a38.47,38.47,0,0,1-5.85-31.82"/><path class="cls-11" d="M187,145.56a137.73,137.73,0,0,0-6.18,16.86c-3.34,10.88-6,19.75-9,43.33a325.35,325.35,0,0,0-2.75,41s.86,40.33-7.54,62.58c0,0,20.65.86,24.29,8.29,0,0-5.57-8-27.07-6.21,0,0,12.24-61.21,6.08-66.49a1.35,1.35,0,0,0-.25-.18c-6.73-3.85,5-41.65,5.54-46.62s-2.73-40.26,16.93-52.56"/><path class="cls-10" d="M227,293.12c1.44-5.61-5.21-16-4.89-21.42s-6.34-27.76-6.34-27.76-3.69-8.66-4.49-22.62-8-28.7-8-28.7c-5.06-6.82-18.91-27.72-21.9-32.26-.61,1.8-1.41,4.32-2.2,7.24l1.64-5.18s12.35,30.89,20.38,33.06,10.18,48.06,10.18,48.06,1.62,27.07,7.29,34.23S221,297.24,221,297.24s10.18,16.71,20.59,12.06c.28-.27.57-.56.85-.87-6.6-2.54-16.25-12.1-15.42-15.32"/><path class="cls-11" d="M229.56,290.72s-2.08-12.46-5.66-21c0,0-4.87-22.14-9.3-37.28s-1.88-20.49-10.76-40.5c0,0-14.15-24.92-21.44-34.47,0,0-.41,1.09-1,2.91,3,4.54,16.83,25.44,21.9,32.26,0,0,7.22,14.74,8,28.7s4.49,22.62,4.49,22.62,6.66,22.39,6.34,27.76,6.34,15.81,4.89,21.42c-.83,3.22,8.82,12.78,15.42,15.32a24.11,24.11,0,0,0,1.68-2s-7.23-10-14.56-15.75"/><path class="cls-10" d="M33.47,255.51c-.1-12.41,17.65-50,17.65-50l16.93-25.38s2.51-11.07,7.25-14.71c0,0,1.83-3.93-2.92-1.1a25.19,25.19,0,0,0-4.89,5.41C58,183.1,50.64,187.43,47.59,200.37A93.41,93.41,0,0,1,38.13,224L26,249.26s-3.85,7.92.81,5.78c0,0-3,39.42,1.12,46.54s-12.36,2.51-13.86,23.11l-4.39,4.82s12.57,2.56,20.38-3.58,7.65-6.53,10.27-6.32c-1.5-4.59-6.84-12.73-6.84-12.73s.11-38.94,0-51.35"/><path class="cls-12" d="M35.61,260.22c6.52-17.54,16.74-53,16.74-53a291,291,0,0,1,15.7-27.08h0L51.12,205.56s-17.76,37.55-17.65,50,0,51.36,0,51.36,5.35,8.13,6.85,12.72L38,306.76c0-5.78-2.38-46.54-2.38-46.54"/><path class="cls-11" d="M219.8,120.38s-1.76,18.71-3.94,28c5.07-18.61,5.14-29.87,5.14-29.87-7.73-2.3-24.28.25-25.8.49,0,0,19.63-1.2,24.6,1.36"/><path class="cls-11" d="M186.1,146.61a61.73,61.73,0,0,0,21.42,5.25s-13.07,4.22-22-3.81Z"/><path class="cls-14" d="M212.58,122.38a64.63,64.63,0,0,0-18.4.57s-.88,7.73-2.68,12.65c-1.64,4.5-4.28,9.15-5.24,11.62,0,0,5.94,3.65,9.71,3.81s11.63,2,14.44-.4,2.16-28.25,2.16-28.25m-4.68,27.55c-3.63,1-11.76,2.14-8.58-2.62s.13-6.42-4-8.61,0-13.11,0-13.11H208.6c2.56,3.07,2.94,23.38-.7,24.34"/><path class="cls-13" d="M195.27,125.59s-4.17,10.91,0,13.11,7.24,3.85,4,8.61,4.94,3.59,8.58,2.62,3.26-21.27.7-24.34Z"/><path class="cls-15" d="M160,140.95a6.46,6.46,0,0,0-3.3,7,4.25,4.25,0,0,0,2.57,2.24s.52.16-.8-.8-.84-1.38-.84-1.38,3.52,4.07,11.23-.92c0,0-10.83,2.31-11.21,0,0,0-.44-4.19,2.35-6.13"/><path class="cls-15" d="M130.92,139.05h-.22a16.21,16.21,0,0,1-2.21,5.05,9,9,0,0,0-2.14-3.27,59.69,59.69,0,0,1-5.8,2.33c-.3-.1-4-6.82-.82-9.61-1.45,1.08-4.81,4.06-4.34,7.66,0,0,1.15,4.68,4.09,5.83a11.31,11.31,0,0,0,5.56.64,12.2,12.2,0,0,1-5.95,2.14s13.48-.25,11.82-10.77"/><path class="cls-15" d="M119.56,133.65a2.4,2.4,0,0,1,.31-.18l-.31.18"/><path class="cls-9" d="M105.43,75.18s-1.89.76-2.17,5.62c0,0,1.2-2.77,2.17-5.62"/><path class="cls-10" d="M97,78.45s-2,.15-3.76,4.7c0,0,2-2.27,3.76-4.7"/><path class="cls-10" d="M103.74,70.28s-1.92-.67-5.33,2.8c0,0,2.73-1.29,5.33-2.8"/><path class="cls-10" d="M124,59.83s-2.08-.3-4.19,3.3c0,0,2.19-1.56,4.19-3.3"/><path class="cls-10" d="M85.63,81.55s-2,.16-3.76,4.71c0,0,2-2.28,3.76-4.71"/><path class="cls-10" d="M79.9,142.46s-1.8,1-1.58,5.81c0,0,.91-2.88,1.58-5.81"/><path class="cls-10" d="M87.69,162.9s-1.79,1-1.58,5.82c0,0,.91-2.88,1.58-5.82"/><path class="cls-10" d="M86,187s-1.33,1.54.63,6c0,0-.19-3-.63-6"/><path class="cls-10" d="M90.81,177.31s-1.67,1.17-.85,6c0,0,.55-3,.85-6"/><path class="cls-10" d="M90.27,196.63s-1.66,1.17-.85,6c0,0,.55-3,.85-6"/><path class="cls-9" d="M104.78,177.71s-1.66,1.17-.85,6c0,0,.55-3,.85-6"/><path class="cls-9" d="M65.59,177.81s-2-.31-4.72,3.72c0,0,2.45-1.76,4.72-3.72"/><path class="cls-9" d="M70.33,171.34s-2-.3-4.74,3.72c0,0,2.45-1.76,4.74-3.72"/><path class="cls-11" d="M64.17,183.67s-2,.35-3.3,5c0,0,1.76-2.45,3.3-5"/><path class="cls-9" d="M55.5,187.59s-2,.35-3.3,5c0,0,1.76-2.45,3.3-5"/><path class="cls-9" d="M60.46,190.1s-2,.34-3.3,5c0,0,1.76-2.45,3.3-5"/><path class="cls-9" d="M51.78,195.23s-1.87.81-2,5.67c0,0,1.14-2.79,2-5.67"/><path class="cls-11" d="M56.52,191.26s-1.87.81-2,5.67c0,0,1.14-2.8,2-5.67"/><path class="cls-9" d="M52.79,202.59s-1.86.81-2,5.67c0,0,1.14-2.8,2-5.67"/><path class="cls-11" d="M46.94,207.16s-1.87.82-2,5.67c0,0,1.14-2.79,2-5.67"/><path class="cls-9" d="M48.66,210.25s-1.86.81-2,5.67c0,0,1.13-2.79,2-5.67"/><path class="cls-9" d="M46.94,217.12s-1.68,1.15-.91,6c0,0,.57-3,.91-6"/><path class="cls-9" d="M41.19,220.84s-1.68,1.15-.9,5.95c0,0,.58-3,.9-5.95"/><path class="cls-9" d="M43.43,227.58s-1.75,1-1.35,5.87c0,0,.8-2.92,1.35-5.87"/><path class="cls-9" d="M37.68,228.28s-1.9.74-2.25,5.59c0,0,1.24-2.75,2.25-5.59"/><path class="cls-11" d="M38.91,233.22s-1.71,1.1-1.08,5.92c0,0,.66-2.95,1.08-5.92"/><path class="cls-11" d="M89.69,251.07s.14-2-4.13-4.38c0,0,2,2.28,4.13,4.38"/><path class="cls-10" d="M83.59,244.55s.35-1.91-2.47-3.57c0,0,1.16,1.88,2.47,3.57"/><path class="cls-11" d="M78.77,237.77s.35-1.91-2.47-3.57c0,0,1.16,1.88,2.47,3.57"/><path class="cls-9" d="M84.31,236.74s.35-1.91-2.47-3.56c0,0,1.16,1.88,2.47,3.56"/><path class="cls-11" d="M93,240.89s-1.54-1.18-4.3.58c0,0,2.2-.17,4.3-.58"/><path class="cls-9" d="M85,241s.12-1.93-2.88-3.25c0,0,1.37,1.73,2.88,3.25"/><path class="cls-9" d="M78.53,227.61s.12-1.94-2.88-3.24c0,0,1.37,1.72,2.88,3.24"/><path class="cls-10" d="M85.67,232.18s-.57-1.85-3.83-2c0,0,1.9,1.14,3.83,2"/><path class="cls-10" d="M90.1,232.78s.11-1.93-2.88-3.24c0,0,1.37,1.72,2.88,3.24"/><path class="cls-10" d="M82.56,226.71s.54-1.86-2.09-3.8c0,0,1,2,2.09,3.8"/><path class="cls-10" d="M86.06,228.27s.54-1.86-2.09-3.8c0,0,1,2,2.09,3.8"/><path class="cls-10" d="M80,222.07s-.56-1.86-3.82-2.07c0,0,1.88,1.15,3.82,2.07"/><path class="cls-11" d="M91.54,238.2s.12-1.93-2.88-3.24c0,0,1.37,1.72,2.88,3.24"/><path class="cls-11" d="M79.35,232.95s.35-1.91-2.47-3.57c0,0,1.16,1.88,2.47,3.57"/><path class="cls-11" d="M75.65,230.11s-.85-1.74-4.11-1.4c0,0,2,.82,4.11,1.4"/><path class="cls-11" d="M73.6,223.8s-.86-1.74-4.11-1.4c0,0,2.05.82,4.11,1.4"/><path class="cls-11" d="M62,222.72s-.86-1.74-4.1-1.4c0,0,2,.82,4.1,1.4"/><path class="cls-9" d="M54.39,222.12s-1.78-.79-4,1.55c0,0,2.1-.68,4-1.55"/><path class="cls-9" d="M28.71,231.29s-1.77-.79-4.05,1.55c0,0,2.1-.67,4.05-1.55"/><path class="cls-9" d="M23.07,232.05s-.81-1.76-4.07-1.5c0,0,2,.87,4.07,1.5"/><path class="cls-9" d="M13.28,227.53s.88-1.73-1.35-4.11c0,0,.57,2.13,1.35,4.11"/><path class="cls-9" d="M10.46,208.68s.88-1.73-1.35-4.11c0,0,.58,2.13,1.35,4.11"/><path class="cls-9" d="M6.59,196.85s1.29-1.45-.24-4.33c0,0,0,2.21.24,4.33"/><path class="cls-10" d="M6.21,204.56s1.3-1.45-.24-4.33c0,0,0,2.21.24,4.33"/><path class="cls-10" d="M8.85,211.31s.56-1.86-2-3.83c0,0,.94,2,2,3.83"/><path class="cls-10" d="M8.77,216.39s.57-1.86-2-3.83c0,0,.94,2,2,3.83"/><path class="cls-10" d="M10.18,224.52s-1.57-1.06-.82-4.24c0,0,.53,2.13.82,4.24"/><path class="cls-11" d="M10.35,203.11s.34-1.91-2.49-3.55c0,0,1.17,1.87,2.49,3.55"/><path class="cls-11" d="M17.23,213.09s.34-1.91-2.49-3.55c0,0,1.17,1.87,2.49,3.55"/><path class="cls-11" d="M16,218.7s1.35-1.4-.08-4.34c0,0-.07,2.21.08,4.34"/><path class="cls-11" d="M18.76,222.68s1.35-1.4-.09-4.33c0,0-.07,2.2.09,4.33"/><path class="cls-11" d="M19.86,226.94s.37-1.9-2.42-3.6c0,0,1.13,1.9,2.42,3.6"/><path class="cls-11" d="M27.36,229s-.88-1.72-4.12-1.33c0,0,2.06.79,4.12,1.33"/><path class="cls-11" d="M5.84,185.8s1.6-1.09.79-4.26c0,0-.51,2.15-.79,4.26"/><path class="cls-11" d="M3.76,191.17s.84-.7.16-3.07c0,0-.15,1.54-.16,3.07"/><path class="cls-9" d="M6.25,177.77s1.86-.59,2-3.85c0,0-1.13,1.9-2,3.85"/><path class="cls-9" d="M10.69,172.8s1.85-.59,2-3.85c0,0-1.12,1.9-2,3.85"/><path class="cls-11" d="M8.93,169.75s1.85-.59,2-3.85c0,0-1.12,1.9-2,3.85"/><path class="cls-10" d="M4.84,175.45s1.85-.58,2-3.85c0,0-1.12,1.9-2,3.85"/><path class="cls-9" d="M13.52,165.18s1.94.1,3.21-2.91c0,0-1.72,1.39-3.21,2.91"/><path class="cls-11" d="M17.14,161.15s1.94.09,3.22-2.91c0,0-1.72,1.39-3.22,2.91"/><path class="cls-9" d="M12.33,162.27s1.93.09,3.21-2.92c0,0-1.72,1.4-3.21,2.92"/><path class="cls-9" d="M21.77,158.24s.7-.9,3.93-.41c0,0-2,.28-3.93.41"/><path class="cls-9" d="M17.85,155.56s.7-.9,3.92-.41c0,0-2,.27-3.92.41"/><path class="cls-9" d="M24.79,155.45s1-.61,3.84.92c0,0-1.93-.39-3.84-.92"/><path class="cls-9" d="M21.81,153.29s1-.62,3.83.92c0,0-1.93-.39-3.83-.92"/><path class="cls-9" d="M28.29,153.81s1-.61,3.84.92c0,0-1.93-.39-3.84-.92"/><path class="cls-9" d="M31.27,157.84s1-.62,3.84.92c0,0-1.93-.38-3.84-.92"/><path class="cls-10" d="M35.57,157.4s1-.55,3.76,1.21c0,0-1.9-.54-3.76-1.21"/><path class="cls-11" d="M39.39,160.8s1.14-.13,3,2.54c0,0-1.55-1.22-3-2.54"/><path class="cls-9" d="M43.22,160.24s1.14-.12,3,2.54c0,0-1.54-1.21-3-2.54"/><path class="cls-9" d="M45.86,164.11s1.09.32,1.81,3.5c0,0-1-1.71-1.81-3.5"/><path class="cls-10" d="M48.3,163s1.1.33,1.82,3.51c0,0-1-1.72-1.82-3.51"/><path class="cls-9" d="M44.8,167.61s1,.54,1.05,3.8c0,0-.59-1.88-1.05-3.8"/><path class="cls-9" d="M49.93,167.76s1.09.32,1.81,3.5c0,0-1-1.72-1.81-3.5"/><path class="cls-9" d="M48.3,172.35s1.1.32,1.82,3.5c0,0-1-1.71-1.82-3.5"/><path class="cls-9" d="M46.29,173.49s.72.89-.49,3.91c0,0,.17-2,.49-3.91"/><path class="cls-10" d="M50.89,176.27s.73.88-.48,3.91c0,0,.17-2,.48-3.91"/><path class="cls-9" d="M51.06,183.67s.41,1.07-1.69,3.57c0,0,.78-1.81,1.69-3.57"/><path class="cls-11" d="M47,179.75s.41,1.07-1.69,3.57c0,0,.77-1.81,1.69-3.57"/><path class="cls-9" d="M47.83,185.45s.42,1.07-1.68,3.57c0,0,.77-1.81,1.68-3.57"/><path class="cls-10" d="M47.81,191.26s-.22,1.12-3.32,2.14c0,0,1.62-1.12,3.32-2.14"/><path class="cls-9" d="M43.85,189s-.22,1.12-3.32,2.14c0,0,1.62-1.13,3.32-2.14"/><path class="cls-10" d="M42.93,192s-.22,1.12-3.31,2.14c0,0,1.61-1.12,3.31-2.14"/><path class="cls-11" d="M36.18,194.07s-.22,1.12-3.31,2.14c0,0,1.61-1.13,3.31-2.14"/><path class="cls-9" d="M38.49,196.7s-.69.91-3.91.46c0,0,1.94-.3,3.91-.46"/><path class="cls-9" d="M71.66,220s-1.38-1.36-4.34,0c0,0,2.21.1,4.34,0"/><path class="cls-9" d="M64.68,218.82s-1.38-1.37-4.33,0c0,0,2.2.1,4.33,0"/><path class="cls-10" d="M67.71,225.42s-1.37-1.37-4.33,0c0,0,2.2.11,4.33,0"/><path class="cls-11" d="M57.25,225.42s-1.37-1.37-4.33,0c0,0,2.2.11,4.33,0"/><path class="cls-11" d="M16.53,231.73s.91-1.71-1.28-4.14c0,0,.53,2.14,1.28,4.14"/><path class="cls-11" d="M16.74,233.43s1.36,1.38,4.34,0c0,0-2.2-.13-4.34,0"/><path class="cls-11" d="M12.5,220.28s.91-1.71-1.28-4.14c0,0,.53,2.14,1.28,4.14"/><path class="cls-11" d="M12.25,215s1.33-1.42-.16-4.33c0,0,0,2.2.16,4.33"/><path class="cls-9" d="M34.08,237.54s-1.71,1.11-1.08,5.92c0,0,.67-2.94,1.08-5.92"/><path class="cls-11" d="M30.32,239.14s-1.67,1.16-.87,6c0,0,.56-3,.87-6"/><path class="cls-10" d="M41.52,214.48s-2,.51-2.87,5.29c0,0,1.55-2.59,2.87-5.29"/><path class="cls-10" d="M45.6,201.34s-2,.5-2.88,5.28c0,0,1.55-2.59,2.88-5.28"/><path class="cls-10" d="M59.68,178.7s-2-.25-4.63,3.85c0,0,2.4-1.83,4.63-3.85"/><path class="cls-9" d="M37.17,243.73s-1.71,1.1-1.08,5.92c0,0,.66-2.94,1.08-5.92"/><path class="cls-11" d="M30.39,250.8s-1.71,1.1-1.08,5.92c0,0,.66-2.94,1.08-5.92"/><path class="cls-9" d="M32.87,255.37s-1.71,1.1-1.08,5.92c0,0,.67-2.94,1.08-5.92"/><path class="cls-10" d="M91.89,212.16s-1.68,1.17-.85,6c0,0,.55-3,.85-6"/><path class="cls-10" d="M93.27,222.72s-1.66,1.17-.84,6c0,0,.55-3,.84-6"/><path class="cls-10" d="M85.73,173.86s-1.79.95-1.58,5.81c0,0,.91-2.88,1.58-5.81"/><path class="cls-10" d="M92.73,187.54s-1.05,1.74,1.64,5.79c0,0-.7-2.94-1.64-5.79"/><path class="cls-10" d="M94,203.39s-1.35,1.53.58,6c0,0-.17-3-.58-6"/><path class="cls-9" d="M102.49,163.94s-1.83,1.92.45,7.77c0,0-.06-3.9-.45-7.77"/><path class="cls-9" d="M93.16,91.51s-1.83.89-1.78,5.75c0,0,1-2.84,1.78-5.75"/><path class="cls-10" d="M78,111.78s-1.33,1.54.66,6c0,0-.21-3-.66-6"/><path class="cls-10" d="M77.48,130.47s-1.32,1.55.66,6c0,0-.2-3-.66-6"/><path class="cls-11" d="M86.05,110.18s-1.64,1.19-.74,6c0,0,.5-3,.74-6"/><path class="cls-10" d="M79.51,91.78s-1.57,1.29-.38,6c0,0,.32-3,.38-6"/><path class="cls-10" d="M83,122.86s-1.57,1.3-.37,6c0,0,.31-3,.37-6"/><path class="cls-10" d="M83.05,99.31s-1.6,1.26-.53,6c0,0,.39-3,.53-6"/><path class="cls-9" d="M86.5,136.46s-1.6,1.26-.52,6c0,0,.4-3,.52-6"/><path class="cls-11" d="M110.47,156.46s-1.6,1.26-.52,6c0,0,.39-3,.52-6"/><path class="cls-11" d="M98.8,182.65s-1.6,1.25-.53,6c0,0,.39-3,.53-6"/><path class="cls-11" d="M106.07,201.17s-1.6,1.25-.53,6c0,0,.39-3,.53-6"/><path class="cls-11" d="M108.18,213.09s-1.61,1.25-.53,6c0,0,.39-3,.53-6"/><path class="cls-11" d="M106.48,234.2s-1.79,1-1.53,5.83c0,0,.89-2.89,1.53-5.83"/><path class="cls-11" d="M163.46,247.33s1.38,1.49-.43,6c0,0,.09-3,.43-6"/><path class="cls-11" d="M114.44,252.14s-1.07,1.73,1.58,5.81c0,0-.67-2.94-1.58-5.81"/><path class="cls-11" d="M104.15,254.89s-.57,1.9,2.46,4.35c0,0-1.14-2.26-2.46-4.35"/><path class="cls-11" d="M100.81,217.89s-2.48.71-3.22,6.29c0,0,1.76-3.09,3.22-6.29"/><path class="cls-11" d="M113.32,224.5s-1.73,1.36-.64,6.87c0,0,.45-3.42.64-6.87"/><path class="cls-11" d="M161.16,218.41s1.74,1.36.64,6.87c0,0-.46-3.42-.64-6.87"/><path class="cls-11" d="M161.2,241s1.18,1.85-1.7,6.68c0,0,.72-3.37,1.7-6.68"/><path class="cls-11" d="M160.66,230s1.13,1.58-1.15,5.9c0,0,.46-3,1.15-5.9"/><path class="cls-11" d="M150.79,230.38s1.13,1.57-1.15,5.9c0,0,.46-3,1.15-5.9"/><path class="cls-11" d="M164.65,209.63s1.13,1.57-1.15,5.9c0,0,.46-3,1.15-5.9"/><path class="cls-11" d="M169.49,189.67s1.13,1.58-1.15,5.89c0,0,.45-3,1.15-5.89"/><path class="cls-11" d="M169.35,172.44s1.52,1.21.49,6c0,0-.36-3-.49-6"/><path class="cls-11" d="M171.2,162.8s1.52,1.21.49,6c0,0-.36-3-.49-6"/><path class="cls-9" d="M157.43,225.4s-1.64,1-1.14,5.9c0,0,.69-2.92,1.14-5.9"/><path class="cls-11" d="M136.06,247.9s-1.18,1.87,1.7,6.68c0,0-.72-3.37-1.7-6.68"/><path class="cls-11" d="M128.51,236.28s-1.16,1.87,1.8,6.66c0,0-.77-3.37-1.8-6.66"/><path class="cls-11" d="M143.43,251s-1.15,1.87,1.79,6.66c0,0-.77-3.37-1.79-6.66"/><path class="cls-11" d="M143.43,237.59s-1.16,1.87,1.79,6.66c0,0-.77-3.36-1.79-6.66"/><path class="cls-9" d="M114.82,211s-1.6,1.26-.52,6c0,0,.39-3,.52-6"/><path class="cls-9" d="M116.79,231.71s-1.37,1.51.47,6c0,0-.11-3-.47-6"/><path class="cls-9" d="M154.37,245.24s-1.37,1.5.47,6c0,0-.11-3-.47-6"/><path class="cls-9" d="M119.56,218.82s-1.6,1.26-.53,6c0,0,.39-3,.53-6"/><path class="cls-9" d="M120,241.43s-.45,2,3.38,5c0,0-1.59-2.56-3.38-5"/><path class="cls-9" d="M139.06,240.91s-1.41,1.47.32,6c0,0,0-3-.32-6"/><path class="cls-9" d="M126.6,250.33s-.45,2,3.38,5c0,0-1.59-2.56-3.38-5"/><path class="cls-9" d="M119.58,253.33s-.45,2,3.38,5c0,0-1.59-2.56-3.38-5"/><path class="cls-9" d="M125.31,221.85s-1.23,1.62,1,5.93c0,0-.39-3-1-5.93"/><path class="cls-9" d="M139.55,229.88s-1.23,1.62,1,5.93c0,0-.39-3-1-5.93"/><path class="cls-9" d="M99.2,230.18s-1.6,1.25-.53,6c0,0,.39-3,.53-6"/><path class="cls-9" d="M105.7,224.18s-1.6,1.26-.53,6c0,0,.39-3,.53-6"/><path class="cls-9" d="M123,230s-1,1.76,1.76,5.76c0,0-.76-2.92-1.76-5.76"/><path class="cls-9" d="M132.54,232.35s-1,1.76,1.75,5.76c0,0-.75-2.92-1.75-5.76"/><path class="cls-9" d="M155.12,235.24s1.36.87,1.19,5.73c0,0-.69-2.83-1.19-5.73"/><path class="cls-9" d="M162.89,226.38s1.35.87,1.19,5.73c0,0-.68-2.84-1.19-5.73"/><path class="cls-9" d="M150.37,241.9s1.07,1.2-.41,5.83c0,0,.11-2.91.41-5.83"/><path class="cls-10" d="M167.58,252.41s1.27,1,.69,5.81c0,0-.44-2.88-.69-5.81"/><path class="cls-10" d="M168.39,239.39s.4,1.56-3,5c0,0,1.43-2.54,3-5"/><path class="cls-9" d="M168.36,211.24s1.07,1.2-.41,5.83c0,0,.11-2.91.41-5.83"/><path class="cls-9" d="M172.47,182.4s1.06,1.2-.42,5.83c0,0,.11-2.91.42-5.83"/><path class="cls-9" d="M171.23,195.57s1.07,1.21-.41,5.84c0,0,.11-2.92.41-5.84"/><path class="cls-9" d="M175.75,170.2s1.07,1.2-.42,5.83c0,0,.11-2.91.42-5.83"/><path class="cls-9" d="M165.54,160.5s1.44.73,1.76,5.57c0,0-1-2.75-1.76-5.57"/><path class="cls-9" d="M176.54,159.87s1.14,1.14,0,5.85c0,0-.07-2.91,0-5.85"/><path class="cls-9" d="M181.05,162.38s1.22-.1,3.44,3c0,0-1.76-1.42-3.44-3"/><path class="cls-9" d="M185.81,165.8s1.22-.1,3.44,3c0,0-1.76-1.41-3.44-3"/><path class="cls-9" d="M184.23,168.54s1.21.15,2.75,3.6c0,0-1.42-1.75-2.75-3.6"/><path class="cls-9" d="M189.89,172.15s1.22.16,2.75,3.6c0,0-1.44-1.75-2.75-3.6"/><path class="cls-11" d="M187.53,173.7s1.16.41,2,4.1c0,0-1-2-2-4.1"/><path class="cls-9" d="M192.32,178.42s1.16.4,2,4.1c0,0-1-2-2-4.1"/><path class="cls-9" d="M192.94,183.54s1.15.4,2,4.09c0,0-1-2-2-4.09"/><path class="cls-9" d="M197.16,182.85s1.16.4,2,4.1c0,0-1-2-2-4.1"/><path class="cls-11" d="M197.53,187.64s1.16.4,2,4.1c0,0-1-2-2-4.1"/><path class="cls-9" d="M201.24,193s1.22-.12,3.48,2.91c0,0-1.78-1.4-3.48-2.91"/><path class="cls-9" d="M204.34,197.15s1.2.25,2.46,3.81c0,0-1.29-1.86-2.46-3.81"/><path class="cls-11" d="M206.54,204s1.2.25,2.47,3.81c0,0-1.29-1.85-2.47-3.81"/><path class="cls-9" d="M207.78,209.28s1.06.61,1.13,4.39c0,0-.63-2.17-1.13-4.39"/><path class="cls-9" d="M209.56,213.68s1.06.61,1.14,4.39c0,0-.64-2.16-1.14-4.39"/><path class="cls-9" d="M210.13,220s1.06.62,1.13,4.4c0,0-.64-2.17-1.13-4.4"/><path class="cls-9" d="M210.8,228.27s1.06.61,1.13,4.39c0,0-.64-2.16-1.13-4.39"/><path class="cls-9" d="M213.55,233s1.06.61,1.13,4.38c0,0-.63-2.17-1.13-4.38"/><path class="cls-11" d="M212.18,238.79s1.05.61,1.13,4.39c0,0-.64-2.17-1.13-4.39"/><path class="cls-9" d="M216.43,242.78s1.05.62,1.13,4.39c0,0-.64-2.17-1.13-4.39"/><path class="cls-9" d="M215,248.07s1.06.62,1.13,4.39c0,0-.63-2.17-1.13-4.39"/><path class="cls-11" d="M213.55,254.08s1.06.61,1.13,4.39c0,0-.63-2.17-1.13-4.39"/><path class="cls-9" d="M217,255.79s1.06.62,1.13,4.39c0,0-.63-2.17-1.13-4.39"/><path class="cls-9" d="M171.49,153.36s1.46.69,1.89,5.53c0,0-1-2.72-1.89-5.53"/><path class="cls-9" d="M163.77,152.53s1.62.06,3.92,4.33c0,0-2-2.09-3.92-4.33"/><path class="cls-9" d="M176.83,151.86s1.6.06,3.92,4.34c0,0-2-2.1-3.92-4.34"/><path class="cls-9" d="M168,201.32s1.07,1.2-.4,5.83c0,0,.1-2.91.4-5.83"/><path class="cls-9" d="M149,252.4s1.07,1.21-.42,5.84c0,0,.12-2.92.42-5.84"/><path class="cls-9" d="M166.35,234s.82,1.39-1.53,5.65c0,0,.67-2.83,1.53-5.65"/><path class="cls-9" d="M160.92,254.87s.82,1.38-1.53,5.64c0,0,.68-2.84,1.53-5.64"/><path class="cls-9" d="M168,222.87s1.07,1.21-.41,5.84c0,0,.11-2.91.41-5.84"/><path class="cls-9" d="M98.44,243s-1.16,1.67,1.25,5.89c0,0-.51-3-1.25-5.89"/><path class="cls-11" d="M96.54,253.44s-1.76,1-1.35,5.87c0,0,.8-2.91,1.35-5.87"/><path class="cls-9" d="M106,247.55s-1.16,1.67,1.26,5.89c0,0-.51-3-1.26-5.89"/><path class="cls-9" d="M111.75,240.2s-1.21,1.63,1.07,5.92c0,0-.41-3-1.07-5.92"/><path class="cls-11" d="M110.72,168.72s-1.6,1.25-.52,6c0,0,.39-3,.52-6"/><path class="cls-9" d="M103.39,192.62s-1.6,1.25-.53,6c0,0,.39-3,.53-6"/><path class="cls-9" d="M102,208.74s-1.6,1.25-.52,6c0,0,.38-3,.52-6"/><path class="cls-11" d="M104.28,152.66s-1.6,1.25-.53,6c0,0,.39-3,.53-6"/><path class="cls-11" d="M94.79,166.26s-2.42,1.65-1.22,7.34c0,0,.79-3.68,1.22-7.34"/><path class="cls-9" d="M116.77,158.36s-2,.52-2.84,5.3c0,0,1.53-2.6,2.84-5.3"/><path class="cls-11" d="M89.61,147s-2.44,1.65-1.23,7.35c0,0,.8-3.68,1.23-7.35"/><path class="cls-10" d="M81.45,155.66s-1.6,1.26-.53,6c0,0,.39-3,.53-6"/><path class="cls-10" d="M81.9,168.34s-1.6,1.25-.53,6c0,0,.39-3,.53-6"/><path class="cls-9" d="M97.87,153.25s-2.74.9-3.44,7.37c0,0,1.89-3.62,3.44-7.37"/><path class="cls-10" d="M87.55,86.7s-1.85.84-1.92,5.7c0,0,1.08-2.81,1.92-5.7"/><path class="cls-10" d="M74.84,99.66s-1.56,1.31-.33,6c0,0,.29-3,.33-6"/><path class="cls-9" d="M108.16,81.82s-1.88.77-2.16,5.62c0,0,1.2-2.77,2.16-5.62"/><path class="cls-11" d="M149.34,90.38s-1.88.76-2.16,5.62c0,0,1.21-2.77,2.16-5.62"/><path class="cls-9" d="M132.66,77.15S133.75,79,131,83c0,0,.72-3,1.68-5.82"/><path class="cls-11" d="M143.57,78.14s1.66,1.32.51,6c0,0-.39-3-.51-6"/><path class="cls-9" d="M181.57,101s1.67,1.31.51,6c0,0-.38-3-.51-6"/><path class="cls-11" d="M176.65,109s2.12.12,3.89,4.65c0,0-2.05-2.25-3.89-4.65"/><path class="cls-9" d="M187,107.58s2,.67,2.55,5.5c0,0-1.4-2.7-2.55-5.5"/><path class="cls-9" d="M158,112.94s.61,2-3,5.24c0,0,1.42-2.7,3-5.24"/><path class="cls-11" d="M164.18,111s.61,2-3,5.24c0,0,1.42-2.7,3-5.24"/><path class="cls-9" d="M155.23,97.6s1.53,1.48-.1,6.06c0,0-.07-3,.1-6.06"/><path class="cls-11" d="M152.36,59.32s2.12-.1,4.36,4.22c0,0-2.28-2-4.36-4.22"/><path class="cls-11" d="M156.77,68.46s1.87,1,1.57,5.85c0,0-.92-2.9-1.57-5.85"/><path class="cls-10" d="M179.62,84s1.88,1,1.58,5.86c0,0-.92-2.91-1.58-5.86"/><path class="cls-9" d="M170.24,110.71s1.18,1.77-1.39,5.9c0,0,.57-3,1.39-5.9"/><path class="cls-9" d="M164.71,65.89s2-.59,5.22,3.09c0,0-2.69-1.44-5.22-3.09"/><path class="cls-9" d="M162.76,74.51s2-.59,5.21,3.09c0,0-2.68-1.44-5.21-3.09"/><path class="cls-10" d="M171.22,73.93s2.12-.11,4.36,4.21c0,0-2.28-2-4.36-4.21"/><path class="cls-9" d="M149.29,66.75s1.66,1.32.51,6c0,0-.38-3-.51-6"/><path class="cls-9" d="M151.51,77.85s1.66,1.32.51,6c0,0-.38-3-.51-6"/><path class="cls-11" d="M101,93.76s-1.65,1.2-.74,6c0,0,.49-3,.74-6"/><path class="cls-11" d="M115.71,72.71s-1.75,1-1.33,5.87c0,0,.8-2.92,1.33-5.87"/><path class="cls-11" d="M141.38,67.06s-1.94.6-2.63,5.42c0,0,1.43-2.66,2.63-5.42"/><path class="cls-10" d="M185.05,90.42s-.82,1.87,2.37,5.53c0,0-1.08-2.82-2.37-5.53"/><path class="cls-10" d="M188.37,100.26s-.81,1.86,2.38,5.54c0,0-1.07-2.82-2.38-5.54"/><path class="cls-9" d="M126.15,68.45s-1.76,1-1.34,5.87c0,0,.79-2.91,1.34-5.87"/><path class="cls-10" d="M114.16,65s-2,0-4.22,4.29c0,0,2.2-2.06,4.22-4.29"/><path class="cls-11" d="M98.71,86.62s-1.75,1-1.33,5.87c0,0,.79-2.91,1.33-5.87"/><path class="cls-9" d="M114,86.55s-1.42,1.45.28,6c0,0,0-3-.28-6"/><path class="cls-11" d="M121.31,77.79s-1.42,1.46.28,6c0,0,0-3-.28-6"/><path class="cls-11" d="M137.25,86.13s-1.42,1.45.28,6c0,0,0-3-.28-6"/><path class="cls-9" d="M144.62,58.66s-1.42,1.46.28,6c0,0,0-3-.28-6"/><path class="cls-9" d="M134.41,61.38s-2,.44-3.08,5.17c0,0,1.66-2.52,3.08-5.17"/><path class="cls-11" d="M124.74,85.53s-1.68,1.16-.87,6c0,0,.56-3,.87-6"/><path class="cls-10" d="M73,111l-.17-.07c-1.7-.43-16.43-4.17-25.8-6.68,0,0-8.75-1.71-12.08-1.21,0,0-1.72,28.41,3.09,37.79s2.81,11.95,8.35,11.15c5.13-.74,24.45-1.35,28.42-8-2.08-23.43-1.8-33-1.8-33"/><path class="cls-9" d="M34.94,137.15C36.79,148.7,37.83,152.79,44,154s31.48-3,31.48-3c-.25-2.47-.46-4.8-.66-7-4,6.65-23.29,7.25-28.42,8-5.54.8-3.53-1.76-8.35-11.15S35,103.06,35,103l-.36.09c-4.57,3.76-1.52,22.45.32,34"/><path class="cls-9" d="M75.81,113.7s-19.2-3.74-25.94-7.53-9.76-1.26-9.89,8,10.75,6.75,10.75,6.75l24.37-5.22Z"/><path class="cls-11" d="M47.05,104.25c9.36,2.51,24.1,6.25,25.8,6.68C47.93,101,37,102.6,35,103c3.33-.5,12.08,1.2,12.08,1.2"/><path class="cls-11" d="M40.4,110s-8.86,26,4.14,39.57c0,0,24.06-.17,29.95-6.23,0,0-27.62,6.69-29.58,1.15s-4-6.61-4.51-34.48"/><path class="cls-13" d="M46.41,144.61c9.47,4.82,23.35-14.52,20.3-22.62s-5,.48-14-6.72-13,0-13,0c-.11,1.16-.25,2.57-.38,4.16.63,3.22-2.31,20.37,7.15,25.19"/><path class="cls-14" d="M45.37,148.3s22.33-1.24,29.12-4.92c0,0-1.72-22.92-1.42-27.17,0,0-1.63-1.68-6.36-2.24a16.79,16.79,0,0,1-7.06-2.17s-8.59-1.2-11.72-3.45-4.3-.71-5-.16c-1.35,1.11-2.73-.32-3.13,5,0,.53-.11,1.25-.2,2.1,0,0,4-7.19,13,0s11-1.38,14,6.72-10.83,27.44-20.3,22.62-6.52-22-7.15-25.19c-.71,9-1,23.55,6.11,28.88"/><path class="cls-15" d="M39.64,115.26l-.38,4.16s-2.58,24.69,10,25.94c0,0-7.92-7.52-2.51-16.48s5.77-16.71-1-16.82-6,1.43-6.19,3.2"/><path class="cls-15" d="M195.27,125.59h13.32s2.41,2.62,2,12.31-.86,10.64-2.68,12,4.39-20.17-2.83-21.29-9.79-3.05-9.79-3.05"/><path class="cls-17" d="M119.13,134.13s-4.33,4.38-1.71,9.09,7.25,5.67,10.19,2.65,4.49-6.82,2.65-9.52a14.26,14.26,0,0,0-5.59-4.22s-4.29.36-5.53,2"/><path class="cls-18" d="M120.11,135.63s-.95,4,2,2.74a1.57,1.57,0,0,0,.62-2.22,3.32,3.32,0,0,0-1.3-1s-1,.08-1.29.47"/><path class="cls-17" d="M157.48,147.34c-.06-.05-.42-7.24,4.39-6.62s6.39,3.39,6.95,6.34c0,0-7.34,3.85-11.33.28"/><path class="cls-18" d="M159.4,142.44s-.51,2.13,1.06,1.47a.84.84,0,0,0,.33-1.19,1.76,1.76,0,0,0-.7-.53s-.54,0-.69.25"/><path class="cls-19" d="M139.21,145.52S128.46,149.13,137,156c0,0-5.65-5.22,2.24-10.48"/><path class="cls-19" d="M153.58,146.91s1,8.74-2.4,10.43c0,0,6.82-1.52,2.4-10.43"/><path class="cls-17" d="M140.09,148s-3.89.66-2.65,3.19,4.87,6.64,5.22,3.67-.79-5.92-2.57-6.86"/><path class="cls-17" d="M146.27,155.76s2.22-7.16,4-6.46,3.11,1.29.76,5-4.31,1.59-4.75,1.51"/><path class="cls-19" d="M145,160.5s.9,6.73,1.6,9.54c.66,2.63,1,13.85,0,15.81s2.08,4,2.13-3.85-1.18-11.7-1.18-11.7-2.31-8.56-2.55-9.8"/><path class="cls-19" d="M143.66,198.18A12.66,12.66,0,0,0,139,203a7.22,7.22,0,0,1,4.06-1.17s-4.23,2.56-4.06,5.34c0,0,.48-4.38,12.19-7.05s3.48-2.94,3.48-2.94Z"/><path class="cls-19" d="M112.16,189.84l1.84-.64a57.76,57.76,0,0,0,10.75,3.69c4.66.89,5.94,1.21,6.5,1.21s8.63-.68,14.26-1.14a146.62,146.62,0,0,0,15.7-2.84s3.84-3.09,3.55-6.13,1,.78,1,.78l-4.24,6.8-16.69,2.81-15.49.43s-10.35-1.93-10.92-2.33-4.49-2.65-6.26-2.65"/></g></g></g></svg>