<?xml version="1.0" encoding="UTF-8"?>
<svg width="256px" height="256px" viewBox="0 0 256 256" version="1.1" xmlns="http://www.w3.org/2000/svg" xmlns:xlink="http://www.w3.org/1999/xlink">
    <!-- Generator: Sketch 50.2 (55047) - http://www.bohemiancoding.com/sketch -->
    <title>generate-changelog-stepicon</title>
    <desc>Created with Sketch.</desc>
    <defs>
        <linearGradient x1="0%" y1="100%" x2="100%" y2="0%" id="linearGradient-1">
            <stop stop-color="#0DD3C5" offset="0%"></stop>
            <stop stop-color="#0D83CD" offset="100%"></stop>
        </linearGradient>
        <linearGradient x1="132.409355%" y1="-11.0977103%" x2="-18.5997596%" y2="109.263393%" id="linearGradient-2">
            <stop stop-color="#FFFFFF" stop-opacity="0.399060236" offset="0%"></stop>
            <stop stop-color="#FFFFFF" offset="100%"></stop>
        </linearGradient>
        <linearGradient x1="-24.4959615%" y1="123.982136%" x2="96.7950856%" y2="6.14922306%" id="linearGradient-3">
            <stop stop-color="#FFFFFF" stop-opacity="0.399060236" offset="0%"></stop>
            <stop stop-color="#FFFFFF" offset="100%"></stop>
        </linearGradient>
    </defs>
    <g id="New-Icons" stroke="none" stroke-width="1" fill="none" fill-rule="evenodd">
        <g id="Generate-Changelog">
            <g id="generate-changelog-stepicon">
                <rect id="Rectangle-path" fill="url(#linearGradient-1)" fill-rule="nonzero" x="0" y="0" width="256" height="256"></rect>
                <path d="M69,37 L159.738281,37 L193,71.9585974 L193,211 C193,214.313708 190.313708,217 187,217 L69,217 C65.6862915,217 63,214.313708 63,211 L63,43 C63,39.6862915 65.6862915,37 69,37 Z" id="Rectangle-6" fill="url(#linearGradient-2)"></path>
                <path d="M158.731207,37.3828125 L192.784706,72.2668851 L164.731207,72.2668851 C161.417498,72.2668851 158.731207,69.5805936 158.731207,66.2668851 L158.731207,37.3828125 Z" id="Rectangle-6-Copy-2" fill="url(#linearGradient-3)"></path>
                <path d="M143.003318,144.681341 C126.777413,139.433231 113.076787,128.737915 104,114.804145 L104,130.853529 C109.825962,132.912711 114,138.468906 114,145 C114,153.284271 107.284271,160 99,160 C90.7157288,160 84,153.284271 84,145 C84,138.468906 88.1740381,132.912711 94,130.853529 L94,97.1464715 C88.1740381,95.0872894 84,89.5310941 84,83 C84,74.7157288 90.7157288,68 99,68 C107.284271,68 114,74.7157288 114,83 C114,88.7480489 110.766853,93.7409559 106.019925,96.259355 C112.671082,114.708589 127.698711,129.260519 146.635019,135.209966 C149.385743,132.019604 153.45702,130 158,130 C166.284271,130 173,136.715729 173,145 C173,153.284271 166.284271,160 158,160 C149.715729,160 143,153.284271 143,145 C143,144.893519 143.00111,144.787296 143.003318,144.681344 Z M99,150 C101.761424,150 104,147.761424 104,145 C104,142.238576 101.761424,140 99,140 C96.2385763,140 94,142.238576 94,145 C94,147.761424 96.2385763,150 99,150 Z M99,88 C101.761424,88 104,85.7614237 104,83 C104,80.2385763 101.761424,78 99,78 C96.2385763,78 94,80.2385763 94,83 C94,85.7614237 96.2385763,88 99,88 Z M158,150 C160.761424,150 163,147.761424 163,145 C163,142.238576 160.761424,140 158,140 C155.238576,140 153,142.238576 153,145 C153,147.761424 155.238576,150 158,150 Z" id="Combined-Shape" fill="#760FC3" style="mix-blend-mode: multiply;"></path>
                <text id="LOG" fill="#760FC3" style="mix-blend-mode: multiply;" font-family="TTNorms-Black, TT Norms" font-size="27" font-weight="700" letter-spacing="3">
                    <tspan x="95" y="199">LO</tspan>
                    <tspan x="139.745" y="199">G</tspan>
                </text>
            </g>
        </g>
    </g>
</svg>
