<?xml version="1.0" encoding="UTF-8" standalone="no"?>
<svg width="258px" height="258px" viewBox="0 0 258 258" version="1.1" xmlns="http://www.w3.org/2000/svg" xmlns:xlink="http://www.w3.org/1999/xlink" xmlns:sketch="http://www.bohemiancoding.com/sketch/ns">
    <!-- Generator: Sketch 3.3.3 (12072) - http://www.bohemiancoding.com/sketch -->
    <title>Rectangle 1 + Logo_appaloosa_horizontal</title>
    <desc>Created with Sketch.</desc>
    <defs></defs>
    <g id="Page-1" stroke="none" stroke-width="1" fill="none" fill-rule="evenodd" sketch:type="MSPage">
        <g id="Rectangle-1-+-Logo_appaloosa_horizontal" sketch:type="MSLayerGroup">
            <rect id="Rectangle-1" fill="#6CCAC6" sketch:type="MSShapeGroup" x="0" y="0" width="258" height="258"></rect>
            <g id="Logo_appaloosa_horizontal" transform="translate(72.000000, 9.000000)" fill="#FFFFFF" sketch:type="MSShapeGroup">
                <path d="M94.6205538,91.8831902 C94.1243077,91.9479755 74.8371692,131.933742 15.0542769,136.72638 C15.0542769,136.72638 37.5168,89.0017178 94.6205538,91.8831902" id="Fill-12"></path>
                <path d="M94.6205538,91.8831902 C94.1243077,91.9479755 74.8371692,131.933742 15.0542769,136.72638 C15.0498462,136.534969 46.8834462,98.9271166 94.6205538,91.8831902" id="Fill-13"></path>
                <path d="M25.3129846,136.467239 L17.2932923,64.5055215 L20.7847385,59.3079755 L27.7691077,135.200982 L25.3129846,136.467239" id="Fill-14"></path>
                <path d="M24.1196308,96.1398773 L35.9985231,78.918773 L32.7876923,31.1705521 L20.7227077,59.5523926" id="Fill-15"></path>
                <path d="M20.9545846,97.9155828 L5.99630769,83.2741104 L0,35.7923926 L17.28,61.3546012" id="Fill-16"></path>
                <path d="M38.1134769,133.283926 L27.6022154,34.2198773 L31.0951385,29.0223313 L40.5696,132.017669 L38.1134769,133.283926" id="Fill-17"></path>
                <path d="M34.4300308,65.8542331 L46.3074462,48.6331288 L43.0966154,0.884907975 L31.0331077,29.2667485" id="Fill-18"></path>
                <path d="M30.9046154,67.6299387 L15.9463385,52.9884663 L9.95003077,5.50674847 L27.2300308,31.0689571" id="Fill-19"></path>
                <path d="M51.9684923,128.117301 L43.9488,56.1570552 L47.4417231,50.9595092 L54.4246154,126.852515 L51.9684923,128.117301" id="Fill-20"></path>
                <path d="M50.7766154,87.791411 L62.6540308,70.5703067 L59.4432,22.8220859 L47.3796923,51.2039264" id="Fill-21"></path>
                <path d="M47.6115692,89.5671166 L32.6518154,74.9256442 L26.6555077,27.4439264 L43.9355077,53.006135" id="Fill-22"></path>
                <path d="M80.1127385,110.126135 L77.5222154,37.7683436 L81.3947077,32.846135 L82.4743385,107.677546 L80.1127385,110.126135" id="Fill-23"></path>
                <path d="M81.9529846,69.8238037 L95.0916923,53.5376687 L95.4786462,5.68490798 L81.3149538,33.086135" id="Fill-24"></path>
                <path d="M78.3049846,71.3315337 L64.4883692,55.6137423 L62.0765538,7.81840491 L77.3878154,34.5982822" id="Fill-25"></path>
                <path d="M67.4200615,119.976442 L67.1985231,51.6014724 L63.1266462,46.8397546 L64.7232,122.252761 L67.4200615,119.976442" id="Fill-26"></path>
                <path d="M64.0836923,86.2851534 L50.2892308,70.5482209 L47.9438769,22.7499387 L63.2167385,49.5519018" id="Fill-27"></path>
                <g id="Group-36" transform="translate(26.584615, 20.613497)">
                    <path d="M40.3790769,65.3801227 L53.5399385,49.1116564 L53.9918769,1.25742331 L39.7912615,28.6395092" id="Fill-28"></path>
                    <path d="M1.15052308,205.892025 L1.15052308,219.386503 L8.25747692,219.386503 L8.25747692,205.469448" id="Fill-30"></path>
                    <path d="M10.8952615,205.892025 L10.8952615,219.386503 L18.0022154,219.386503 L18.0022154,205.469448" id="Fill-31"></path>
                    <path d="M20.64,205.892025 L20.64,219.386503 L27.7469538,219.386503 L27.7469538,205.469448" id="Fill-32"></path>
                    <path d="M30.3847385,205.892025 L30.3847385,219.386503 L37.4916923,219.386503 L37.4916923,205.469448" id="Fill-33"></path>
                    <path d="M40.1309538,205.892025 L40.1309538,219.386503 L47.2379077,219.386503 L47.2379077,205.469448" id="Fill-34"></path>
                    <path d="M49.8756923,205.892025 L49.8756923,219.386503 L56.9826462,219.386503 L56.9826462,205.469448" id="Fill-35"></path>
                </g>
                <path d="M15.0542769,136.72638 L27.7351385,227.730552 L83.5672615,226.820613 L94.6205538,91.8831902 C94.6205538,91.8831902 71.9896615,131.265276 15.0542769,136.72638" id="Fill-37"></path>
                <path d="M94.5127385,93.202454 L21.6531692,181.728589 L27.7351385,227.730552 L83.5672615,226.820613 L94.5127385,93.202454" id="Fill-38"></path>
                <path d="M22.6427077,199.472393 C24.1270154,198.396074 63.3511385,177.703067 93.0328615,112.107975 L90.5147077,152.94773 C90.5147077,152.94773 80.0270769,190.331779 25.1165538,217.214724 L22.6427077,199.472393" id="Fill-39"></path>
                <path d="M89.7836308,147.729571 C89.7836308,150.920245 87.1901538,153.505767 83.9896615,153.505767 C80.7906462,153.505767 78.1971692,150.920245 78.1971692,147.729571 C78.1971692,144.540368 80.7906462,141.954847 83.9896615,141.954847 C87.1901538,141.954847 89.7836308,144.540368 89.7836308,147.729571" id="Fill-40"></path>
                <path d="M37.4798769,204.662577 C37.4798769,207.851779 34.8864,210.437301 31.6859077,210.437301 C28.4868923,210.437301 25.8934154,207.851779 25.8934154,204.662577 C25.8934154,201.471902 28.4868923,198.88638 31.6859077,198.88638 C34.8864,198.88638 37.4798769,201.471902 37.4798769,204.662577" id="Fill-41"></path>
            </g>
        </g>
    </g>
</svg>