<?xml version="1.0" ?><!DOCTYPE svg  PUBLIC '-//W3C//DTD SVG 1.1//EN'  'http://www.w3.org/Graphics/SVG/1.1/DTD/svg11.dtd'><svg height="2048px" style="shape-rendering:geometricPrecision; text-rendering:geometricPrecision; image-rendering:optimizeQuality; fill-rule:evenodd; clip-rule:evenodd" viewBox="0 0 2048 2048" width="2048px" xml:space="preserve" xmlns="http://www.w3.org/2000/svg" xmlns:xlink="http://www.w3.org/1999/xlink"><defs><style type="text/css">
   <![CDATA[
    .fil3 {fill:none}
    .fil0 {fill:#46AADE}
    .fil1 {fill:#FFFFFE}
    .fil2 {fill:#333333;fill-rule:nonzero}
   ]]>
  </style></defs><g id="Layer_x0020_1"><path class="fil0" d="M1023.98 1112.3l-406.544 -251.016 -22.0512 13.5721 -9.54686 5.87717 -8.76615 -7.00276 -15.6118 -12.4701 -283.462 227.275 -17.178 13.7728 18.4914 12.039 303.933 197.873 8.1626 0 16.0004 0 0 15.7311 0 110.734 417.477 249.693 418.356 -249.703 0 -112.044 0 -14.4118 16.0004 0 6.09449 0 303.351 -197.873 18.4748 -12.052 -17.1614 -13.7599 -283.459 -227.275 -15.6118 12.4701 -8.76615 7.00158 -9.54686 -5.87599 -22.0536 -13.5721 -406.583 251.016zm304.589 251.048l-277.349 -230.399 408.559 -252.236 273.058 218.936 -404.268 263.699zm-331.796 -230.379l-276.458 230.427 -405.139 -263.76 273.046 -218.923 408.551 252.256z"/><polygon class="fil0" points="1732.84,1099.65 1459.78,880.717 1051.22,1132.95 1328.57,1363.35 "/><polygon class="fil1" points="1023.98,1112.3 1430.56,861.288 1023.98,611.069 617.437,861.288 "/><polygon class="fil0" points="996.774,1132.97 588.224,880.717 315.177,1099.64 720.316,1363.4 "/><path class="fil2" d="M720.316 1363.4l276.458 -230.427 -408.551 -252.256 -273.046 218.923 405.139 263.76zm313.852 -220.113l-302.512 252.144 -9.03426 7.52953 -9.83977 -6.40512 -433.47 -282.206 -18.4914 -12.039 17.178 -13.7728 299.012 -239.742 8.78859 -7.04528 9.58702 5.91969 436.97 269.803 18.8303 11.6268 -17.0185 14.1862z"/><path class="fil2" d="M1051.22 1132.95l277.349 230.399 404.268 -263.699 -273.058 -218.936 -408.559 252.236zm266.035 262.426l-303.462 -252.091 -17.0528 -14.1673 18.8646 -11.6457 437.012 -269.803 9.5882 -5.91969 8.78741 7.04528 299.008 239.742 17.1614 13.7599 -18.4748 12.052 -432.558 282.153 -9.81497 6.40158 -9.05906 -7.52599z"/><polygon class="fil2" points="607.408,1312.22 607.408,1438.69 1024.89,1688.38 1443.24,1438.68 1443.24,1312.22 1475.24,1312.22 1475.24,1447.7 1475.24,1456.73 1467.43,1461.39 1033.06,1720.65 1024.87,1725.54 1016.69,1720.65 583.221,1461.39 575.408,1456.72 575.408,1447.7 575.408,1312.22 "/><path class="fil2" d="M315.222 623.712l272.96 218.021 408.521 -251.436 -276.386 -230.319 -405.095 263.733zm261.851 250.022l-299.012 -238.829 -17.2854 -13.8059 18.5362 -12.0685 433.47 -282.207 9.83859 -6.40512 9.03544 7.52953 302.512 252.09 17.0894 14.2429 -18.9012 11.6327 -436.97 268.945 -9.54686 5.87717 -8.76615 -7.00276z"/><path class="fil2" d="M1328.57 359.977l-277.279 230.34 408.529 251.417 272.975 -218.034 -404.226 -263.723zm-314.776 220.062l303.462 -252.09 9.06024 -7.52599 9.81379 6.40158 432.558 282.207 18.5185 12.0827 -17.2677 13.7917 -299.008 238.829 -8.76615 7.00158 -9.54686 -5.87599 -437.012 -268.945 -18.9331 -11.6516 17.1213 -14.224z"/><polygon class="fil0" points="588.182,841.733 996.704,590.298 720.317,359.979 315.222,623.712 "/><polygon class="fil0" points="1459.82,841.733 1732.8,623.699 1328.57,359.977 1051.29,590.317 "/></g><rect class="fil3" height="2048" width="2048"/></svg>