<svg xmlns="http://www.w3.org/2000/svg" width="256" height="256" viewBox="0 0 256 256">
  <defs>
    <linearGradient id="versionbox-stepicon-a" x1="50%" x2="50%" y1="100%" y2="0%">
      <stop offset="0%" stop-color="#2C34E5"/>
      <stop offset="100%" stop-color="#4B8BF6"/>
    </linearGradient>
  </defs>
  <g fill="none" fill-rule="evenodd">
    <rect width="256" height="256" fill="url(#versionbox-stepicon-a)"/>
    <g stroke="#FEFEFE" stroke-linejoin="round" stroke-width="8.739" transform="translate(55 54)">
      <path d="M114.029121,88.5391924 L130.067945,101.247879 C133.190785,103.722078 133.160693,108.472093 130.005533,110.906169 L80.8057618,148.868398 C76.4491664,152.229742 70.3740061,152.229742 66.0174107,148.868398 L16.8187542,110.906169 C13.6635939,108.472093 13.6335023,103.722078 16.756342,101.247879 L32.7461282,88.5782"/>
      <path d="M64.1518427,112.646913 L4.84240763,66.8820427 C-0.279851908,62.9300122 -0.328890076,55.2198748 4.74098779,51.2020885 L63.9980412,4.24692824 C69.5137206,-0.123041221 77.3107893,-0.123041221 82.8253542,4.24692824 L142.083522,51.2020885 C147.1534,55.2198748 147.103247,62.9300122 141.982102,66.8820427 L82.6715527,112.646913 C77.2160565,116.856394 69.6084534,116.856394 64.1518427,112.646913 Z"/>
    </g>
  </g>
</svg>
