<?xml version="1.0" encoding="utf-8"?>
<!-- Generator: Adobe Illustrator 19.1.0, SVG Export Plug-In . SVG Version: 6.00 Build 0)  -->
<svg version="1.1" id="Layer_1" xmlns="http://www.w3.org/2000/svg" xmlns:xlink="http://www.w3.org/1999/xlink" x="0px" y="0px"
	 viewBox="0 0 256 256" enable-background="new 0 0 256 256" xml:space="preserve">
<g>
	<rect y="0" fill="#05005F" width="256" height="256"/>
</g>
<g>
	<g>
		<g>
			<defs>
				<path id="SVGID_2_" d="M107.1,70.1h61.3c20.3,0,36.7,16.4,36.7,36.7v61.3c0,20.3-16.4,36.7-36.7,36.7h-61.3
					c-20.3,0-36.7-16.4-36.7-36.7v-61.3C70.4,86.6,86.8,70.1,107.1,70.1z"/>
			</defs>
			<use xlink:href="#SVGID_2_"  overflow="visible" fill="#3498DB"/>
			<clipPath id="SVGID_1_">
				<use xlink:href="#SVGID_2_"  overflow="visible"/>
			</clipPath>
			<polygon clip-path="url(#SVGID_1_)" fill="#3498DB" points="205,72 70,72 70,70 107.1,70 205,70 			"/>
			<rect x="70" y="72" clip-path="url(#SVGID_1_)" fill="#3498DB" width="135" height="1"/>
			<rect x="70" y="73" clip-path="url(#SVGID_1_)" fill="#3498DB" width="135" height="1"/>
			<rect x="70" y="74" clip-path="url(#SVGID_1_)" fill="#3498DB" width="135" height="2"/>
			<rect x="70" y="76" clip-path="url(#SVGID_1_)" fill="#3498DB" width="135" height="1"/>
			<rect x="70" y="77" clip-path="url(#SVGID_1_)" fill="#3498DB" width="135" height="2"/>
			<rect x="70" y="79" clip-path="url(#SVGID_1_)" fill="#3498DB" width="135" height="1"/>
			<rect x="70" y="80" clip-path="url(#SVGID_1_)" fill="#3498DB" width="135" height="2"/>
			<rect x="70" y="82" clip-path="url(#SVGID_1_)" fill="#3498DB" width="135" height="1"/>
			<rect x="70" y="83" clip-path="url(#SVGID_1_)" fill="#3498DB" width="135" height="2"/>
			<rect x="70" y="85" clip-path="url(#SVGID_1_)" fill="#3498DB" width="135" height="1"/>
			<rect x="70" y="86" clip-path="url(#SVGID_1_)" fill="#3498DB" width="135" height="2"/>
			<rect x="70" y="88" clip-path="url(#SVGID_1_)" fill="#3498DB" width="135" height="1"/>
			<rect x="70" y="89" clip-path="url(#SVGID_1_)" fill="#3498DB" width="135" height="1"/>
			<rect x="70" y="90" clip-path="url(#SVGID_1_)" fill="#3498DB" width="135" height="2"/>
			<rect x="70" y="92" clip-path="url(#SVGID_1_)" fill="#3498DB" width="135" height="1"/>
			<rect x="70" y="93" clip-path="url(#SVGID_1_)" fill="#3498DB" width="135" height="2"/>
			<rect x="70" y="95" clip-path="url(#SVGID_1_)" fill="#3498DB" width="135" height="1"/>
			<rect x="70" y="96" clip-path="url(#SVGID_1_)" fill="#3498DB" width="135" height="2"/>
			<rect x="70" y="98" clip-path="url(#SVGID_1_)" fill="#3498DB" width="135" height="1"/>
			<rect x="70" y="99" clip-path="url(#SVGID_1_)" fill="#3498DB" width="135" height="2"/>
			<rect x="70" y="101" clip-path="url(#SVGID_1_)" fill="#3498DB" width="135" height="1"/>
			<rect x="70" y="102" clip-path="url(#SVGID_1_)" fill="#3498DB" width="135" height="1"/>
			<rect x="70" y="103" clip-path="url(#SVGID_1_)" fill="#3498DB" width="135" height="2"/>
			<rect x="70" y="105" clip-path="url(#SVGID_1_)" fill="#3498DB" width="135" height="1"/>
			<rect x="70" y="106" clip-path="url(#SVGID_1_)" fill="#3498DB" width="135" height="2"/>
			<rect x="70" y="108" clip-path="url(#SVGID_1_)" fill="#3498DB" width="135" height="1"/>
			<rect x="70" y="109" clip-path="url(#SVGID_1_)" fill="#3498DB" width="135" height="2"/>
			<rect x="70" y="111" clip-path="url(#SVGID_1_)" fill="#3498DB" width="135" height="1"/>
			<rect x="70" y="112" clip-path="url(#SVGID_1_)" fill="#3498DB" width="135" height="2"/>
			<rect x="70" y="114" clip-path="url(#SVGID_1_)" fill="#3498DB" width="135" height="1"/>
			<rect x="70" y="115" clip-path="url(#SVGID_1_)" fill="#3498DB" width="135" height="1"/>
			<rect x="70" y="116" clip-path="url(#SVGID_1_)" fill="#3498DB" width="135" height="2"/>
			<rect x="70" y="118" clip-path="url(#SVGID_1_)" fill="#3498DB" width="135" height="1"/>
			<rect x="70" y="119" clip-path="url(#SVGID_1_)" fill="#3498DB" width="135" height="2"/>
			<rect x="70" y="121" clip-path="url(#SVGID_1_)" fill="#3498DB" width="135" height="1"/>
			<rect x="70" y="122" clip-path="url(#SVGID_1_)" fill="#3498DB" width="135" height="2"/>
			<rect x="70" y="124" clip-path="url(#SVGID_1_)" fill="#3498DB" width="135" height="1"/>
			<rect x="70" y="125" clip-path="url(#SVGID_1_)" fill="#3498DB" width="135" height="2"/>
			<rect x="70" y="127" clip-path="url(#SVGID_1_)" fill="#3498DB" width="135" height="1"/>
			<rect x="70" y="128" clip-path="url(#SVGID_1_)" fill="#3498DB" width="135" height="1"/>
			<rect x="70" y="129" clip-path="url(#SVGID_1_)" fill="#3498DB" width="135" height="2"/>
			<rect x="70" y="131" clip-path="url(#SVGID_1_)" fill="#3498DB" width="135" height="1"/>
			<rect x="70" y="132" clip-path="url(#SVGID_1_)" fill="#3498DB" width="135" height="2"/>
			<rect x="70" y="134" clip-path="url(#SVGID_1_)" fill="#3498DB" width="135" height="1"/>
			<rect x="70" y="135" clip-path="url(#SVGID_1_)" fill="#3498DB" width="135" height="2"/>
			<rect x="70" y="137" clip-path="url(#SVGID_1_)" fill="#3498DB" width="135" height="1"/>
			<rect x="70" y="138" clip-path="url(#SVGID_1_)" fill="#3498DB" width="135" height="2"/>
			<rect x="70" y="140" clip-path="url(#SVGID_1_)" fill="#3498DB" width="135" height="1"/>
			<rect x="70" y="141" clip-path="url(#SVGID_1_)" fill="#3498DB" width="135" height="2"/>
			<rect x="70" y="143" clip-path="url(#SVGID_1_)" fill="#3498DB" width="135" height="1"/>
			<rect x="70" y="144" clip-path="url(#SVGID_1_)" fill="#3498DB" width="135" height="1"/>
			<rect x="70" y="145" clip-path="url(#SVGID_1_)" fill="#3498DB" width="135" height="2"/>
			<rect x="70" y="147" clip-path="url(#SVGID_1_)" fill="#3498DB" width="135" height="1"/>
			<rect x="70" y="148" clip-path="url(#SVGID_1_)" fill="#3498DB" width="135" height="2"/>
			<rect x="70" y="150" clip-path="url(#SVGID_1_)" fill="#3498DB" width="135" height="1"/>
			<rect x="70" y="151" clip-path="url(#SVGID_1_)" fill="#3498DB" width="135" height="2"/>
			<rect x="70" y="153" clip-path="url(#SVGID_1_)" fill="#3498DB" width="135" height="1"/>
			<rect x="70" y="154" clip-path="url(#SVGID_1_)" fill="#3498DB" width="135" height="2"/>
			<rect x="70" y="156" clip-path="url(#SVGID_1_)" fill="#3498DB" width="135" height="1"/>
			<rect x="70" y="157" clip-path="url(#SVGID_1_)" fill="#3498DB" width="135" height="1"/>
			<rect x="70" y="158" clip-path="url(#SVGID_1_)" fill="#3498DB" width="135" height="2"/>
			<rect x="70" y="160" clip-path="url(#SVGID_1_)" fill="#3498DB" width="135" height="1"/>
			<rect x="70" y="161" clip-path="url(#SVGID_1_)" fill="#3498DB" width="135" height="2"/>
			<rect x="70" y="163" clip-path="url(#SVGID_1_)" fill="#3498DB" width="135" height="1"/>
			<rect x="70" y="164" clip-path="url(#SVGID_1_)" fill="#3498DB" width="135" height="2"/>
			<rect x="70" y="166" clip-path="url(#SVGID_1_)" fill="#3498DB" width="135" height="1"/>
			<rect x="70" y="167" clip-path="url(#SVGID_1_)" fill="#3498DB" width="135" height="2"/>
			<rect x="70" y="169" clip-path="url(#SVGID_1_)" fill="#3498DB" width="135" height="1"/>
			<rect x="70" y="170" clip-path="url(#SVGID_1_)" fill="#3498DB" width="135" height="1"/>
			<rect x="70" y="171" clip-path="url(#SVGID_1_)" fill="#3498DB" width="135" height="2"/>
			<rect x="70" y="173" clip-path="url(#SVGID_1_)" fill="#3498DB" width="135" height="1"/>
			<rect x="70" y="174" clip-path="url(#SVGID_1_)" fill="#3498DB" width="135" height="2"/>
			<rect x="70" y="176" clip-path="url(#SVGID_1_)" fill="#3498DB" width="135" height="1"/>
			<rect x="70" y="177" clip-path="url(#SVGID_1_)" fill="#3498DB" width="135" height="2"/>
			<rect x="70" y="179" clip-path="url(#SVGID_1_)" fill="#3498DB" width="135" height="1"/>
			<rect x="70" y="180" clip-path="url(#SVGID_1_)" fill="#3498DB" width="135" height="2"/>
			<rect x="70" y="182" clip-path="url(#SVGID_1_)" fill="#3498DB" width="135" height="1"/>
			<rect x="70" y="183" clip-path="url(#SVGID_1_)" fill="#3498DB" width="135" height="1"/>
			<rect x="70" y="184" clip-path="url(#SVGID_1_)" fill="#3498DB" width="135" height="2"/>
			<rect x="70" y="186" clip-path="url(#SVGID_1_)" fill="#3498DB" width="135" height="1"/>
			<rect x="70" y="187" clip-path="url(#SVGID_1_)" fill="#3498DB" width="135" height="2"/>
			<rect x="70" y="189" clip-path="url(#SVGID_1_)" fill="#3498DB" width="135" height="1"/>
			<rect x="70" y="190" clip-path="url(#SVGID_1_)" fill="#3498DB" width="135" height="2"/>
			<rect x="70" y="192" clip-path="url(#SVGID_1_)" fill="#3498DB" width="135" height="1"/>
			<rect x="70" y="193" clip-path="url(#SVGID_1_)" fill="#3498DB" width="135" height="2"/>
			<rect x="70" y="195" clip-path="url(#SVGID_1_)" fill="#3498DB" width="135" height="1"/>
			<rect x="70" y="196" clip-path="url(#SVGID_1_)" fill="#3498DB" width="135" height="2"/>
			<rect x="70" y="198" clip-path="url(#SVGID_1_)" fill="#3498DB" width="135" height="1"/>
			<rect x="70" y="199" clip-path="url(#SVGID_1_)" fill="#3498DB" width="135" height="1"/>
			<rect x="70" y="200" clip-path="url(#SVGID_1_)" fill="#3498DB" width="135" height="2"/>
			<rect x="70" y="202" clip-path="url(#SVGID_1_)" fill="#3498DB" width="135" height="1"/>
			<polygon clip-path="url(#SVGID_1_)" fill="#3498DB" points="205,205 168.3,205 70,205 70,203 205,203 			"/>
		</g>
	</g>
	<g>
		<circle fill="#FFFFFF" cx="160.6" cy="159.1" r="28.8"/>
	</g>
	<g>
		<circle fill="#FFFFFF" cx="107.8" cy="108.5" r="15.2"/>
	</g>
	<g>
		<g>
			<defs>
				<circle id="SVGID_4_" cx="63.9" cy="63.7" r="12.9"/>
			</defs>
			<use xlink:href="#SVGID_4_"  overflow="visible" fill="#3498DB"/>
			<clipPath id="SVGID_3_">
				<use xlink:href="#SVGID_4_"  overflow="visible"/>
			</clipPath>
			<polygon clip-path="url(#SVGID_3_)" fill="#3498DB" points="51,76 77,76 77,77 63.9,77 51,77 			"/>
			<rect x="51" y="75" clip-path="url(#SVGID_3_)" fill="#3498DB" width="26" height="1"/>
			<rect x="51" y="74" clip-path="url(#SVGID_3_)" fill="#3498DB" width="26" height="1"/>
			<rect x="51" y="73" clip-path="url(#SVGID_3_)" fill="#3498DB" width="26" height="1"/>
			<rect x="51" y="72" clip-path="url(#SVGID_3_)" fill="#3498DB" width="26" height="1"/>
			<rect x="51" y="71" clip-path="url(#SVGID_3_)" fill="#3498DB" width="26" height="1"/>
			<rect x="51" y="70" clip-path="url(#SVGID_3_)" fill="#3498DB" width="26" height="1"/>
			<rect x="51" y="69" clip-path="url(#SVGID_3_)" fill="#3498DB" width="26" height="1"/>
			<rect x="51" y="68" clip-path="url(#SVGID_3_)" fill="#3498DB" width="26" height="1"/>
			<rect x="51" y="67" clip-path="url(#SVGID_3_)" fill="#3498DB" width="26" height="1"/>
			<rect x="51" y="66" clip-path="url(#SVGID_3_)" fill="#3498DB" width="26" height="1"/>
			<rect x="51" y="65" clip-path="url(#SVGID_3_)" fill="#3498DB" width="26" height="1"/>
			<rect x="51" y="64" clip-path="url(#SVGID_3_)" fill="#3498DB" width="26" height="1"/>
			<rect x="51" y="63" clip-path="url(#SVGID_3_)" fill="#3498DB" width="26" height="1"/>
			<rect x="51" y="62" clip-path="url(#SVGID_3_)" fill="#3498DB" width="26" height="1"/>
			<rect x="51" y="61" clip-path="url(#SVGID_3_)" fill="#3498DB" width="26" height="1"/>
			<rect x="51" y="60" clip-path="url(#SVGID_3_)" fill="#3498DB" width="26" height="1"/>
			<rect x="51" y="59" clip-path="url(#SVGID_3_)" fill="#3498DB" width="26" height="1"/>
			<rect x="51" y="58" clip-path="url(#SVGID_3_)" fill="#3498DB" width="26" height="1"/>
			<rect x="51" y="57" clip-path="url(#SVGID_3_)" fill="#3498DB" width="26" height="1"/>
			<rect x="51" y="56" clip-path="url(#SVGID_3_)" fill="#3498DB" width="26" height="1"/>
			<rect x="51" y="55" clip-path="url(#SVGID_3_)" fill="#3498DB" width="26" height="1"/>
			<rect x="51" y="54" clip-path="url(#SVGID_3_)" fill="#3498DB" width="26" height="1"/>
			<rect x="51" y="53" clip-path="url(#SVGID_3_)" fill="#3498DB" width="26" height="1"/>
			<rect x="51" y="52" clip-path="url(#SVGID_3_)" fill="#3498DB" width="26" height="1"/>
			<rect x="51" y="51" clip-path="url(#SVGID_3_)" fill="#3498DB" width="26" height="1"/>
		</g>
	</g>
</g>
</svg>
