<?xml version="1.0" encoding="utf-8"?>
<!-- Generator: Adobe Adobe Illustrator 24.2.0, SVG Export Plug-In . SVG Version: 6.00 Build 0)  -->
<svg version="1.1" id="Layer_1" xmlns="http://www.w3.org/2000/svg" xmlns:xlink="http://www.w3.org/1999/xlink" x="0px" y="0px"
	 width="256px" height="256px" viewBox="0 0 256 256" style="enable-background:new 0 0 256 256;" xml:space="preserve">
<style type="text/css">
	.st0{fill:#EF961D;}
	.st1{fill:#ED1C24;}
	.st2{fill:#FFFFFF;}
</style>
<rect class="st0" width="256" height="256"/>
<g>
	<path class="st1" d="M163.27,91.96V43.91l-48.05,48.05H75.3L43.26,59.93v104.11c0,26.54,21.51,48.05,48.05,48.05h72.08V91.96
		H163.27z"/>
	<path class="st2" d="M78.48,108.36h49.7c11.43,0,20.7,9.27,20.7,20.7v0.01c0,11.43-9.27,20.7-20.7,20.7h-49.7
		c-11.43,0-20.7-9.27-20.7-20.7v-0.01C57.77,117.63,67.04,108.36,78.48,108.36z"/>
	<circle cx="126.43" cy="129.07" r="16.02"/>
	<path class="st1" d="M79.94,116.49c7.08,0,12.81,5.74,12.81,12.81s-5.74,12.81-12.81,12.81s-12.81-5.74-12.81-12.81
		S72.87,116.49,79.94,116.49 M79.94,113.29c-8.85,0-16.02,7.17-16.02,16.02s7.17,16.02,16.02,16.02s16.02-7.17,16.02-16.02
		S88.79,113.29,79.94,113.29z"/>
	<path class="st2" d="M110.5,161.96c-0.63-0.63-1.64-0.63-2.27,0c0,0,0,0,0,0l-4.91,4.91l-4.91-4.91c-0.63-0.63-1.64-0.63-2.27,0
		c-0.63,0.63-0.63,1.64,0,2.27l5.61,5.61v10.89c0,0.88,0.72,1.6,1.6,1.6s1.6-0.72,1.6-1.6v-10.89l5.61-5.61
		C111.18,163.58,111.15,162.57,110.5,161.96C110.5,161.96,110.5,161.96,110.5,161.96z"/>
	<path class="st2" d="M37.69,168.09h32.46c0.66,0,1.2-0.54,1.2-1.2s-0.54-1.2-1.2-1.2H37.69c-0.66,0-1.2,0.54-1.2,1.2
		S37.03,168.09,37.69,168.09z"/>
	<path class="st2" d="M76.27,171.49h-44.7c-0.66,0-1.2,0.54-1.2,1.2s0.54,1.2,1.2,1.2h44.7c0.66,0,1.2-0.54,1.2-1.2
		S76.94,171.49,76.27,171.49z"/>
	<path class="st2" d="M70.15,177.28H37.69c-0.66,0-1.2,0.54-1.2,1.2s0.54,1.2,1.2,1.2h32.46c0.66,0,1.2-0.54,1.2-1.2
		S70.81,177.28,70.15,177.28z"/>
	<path class="st2" d="M136.79,166.9h32.43c0.66,0,1.2-0.54,1.2-1.2c0-0.66-0.54-1.2-1.2-1.2h-32.43c-0.66,0-1.2,0.54-1.2,1.2
		C135.59,166.36,136.12,166.9,136.79,166.9z"/>
	<path class="st2" d="M175.36,170.29h-44.7c-0.66,0-1.2,0.54-1.2,1.2s0.54,1.2,1.2,1.2h44.7c0.66,0,1.2-0.54,1.2-1.2
		S176.03,170.29,175.36,170.29L175.36,170.29z"/>
	<path class="st2" d="M169.22,176.05h-32.43c-0.66,0-1.2,0.54-1.2,1.2s0.54,1.2,1.2,1.2h32.43c0.66,0,1.2-0.54,1.2-1.2
		S169.88,176.05,169.22,176.05z"/>
	<path class="st1" d="M222.35,123.69L222.35,123.69c-3.06-8.38-12.33-12.69-20.71-9.63c-8.38,3.06-12.69,12.33-9.63,20.71
		c0.1,0.27,0.2,0.53,0.31,0.79c9.73,27.37-4.56,57.44-31.92,67.18c-10.13,3.6-21.11,4.02-31.48,1.18
		c31.81,17.51,71.8,5.92,89.31-25.9C227.39,161.37,228.9,141.55,222.35,123.69z"/>
</g>
</svg>
