<svg id="Layer_1" data-name="Layer 1" xmlns="http://www.w3.org/2000/svg" viewBox="0 0 256 256"><defs><style>.cls-1{fill:#00b0ef;}.cls-2{fill:#fff;}</style></defs><title>Artboard 110</title><rect class="cls-1" width="256" height="256"/><path class="cls-2" d="M210.28,63.41A8.61,8.61,0,0,1,212,69q0,11.33-12.15,10.51L194.11,79q-9.69-.82-19.29-1.31t-20.11-.49h-7.39q-2,24.29-4.1,44.32l28.23-.49q6.07,0,8.13,2.13a8,8,0,0,1,2.05,5.75q0,5.58-3.28,8.78t-9.36,3.2H140.93l-1,7.06q-3.45,27.08-14.69,38.57T94.31,198a44,44,0,0,1-20.52-4.84Q64.44,188.32,60,181.43a12.1,12.1,0,0,1-1.81-6.73,12.51,12.51,0,0,1,1.89-6.89q1.89-3,4.68-3a6.69,6.69,0,0,1,3.86,1.31,26.06,26.06,0,0,1,4.84,5.09Q81.34,181.59,93,181.59q9.36,0,15.68-7.63t8.13-24l1-9H109.9a10.15,10.15,0,0,1-6.48-2.13,7.28,7.28,0,0,1-2.71-6.07q0-5.09,2.63-7.8t7.71-2.71q4.59,0,9-.16,2-18.05,4.27-43.83-17.73,1.64-25,5.75T92.18,96.07a19.36,19.36,0,0,0,3.28,10.67,5.29,5.29,0,0,1,1,3q0,3-3.28,5.17a12.91,12.91,0,0,1-7.39,2.22,11.33,11.33,0,0,1-7.55-2.63q-2-1.64-3.78-6.73A33.64,33.64,0,0,1,72.64,96.4q0-20.35,20.93-29.55t61.14-9.19a363,363,0,0,1,49.24,3Q208.55,61.27,210.28,63.41Z"/></svg>