<svg id="Layer_1" data-name="Layer 1" xmlns="http://www.w3.org/2000/svg" viewBox="0 0 256 256"><defs><style>.cls-1{fill:#181616;}.cls-2{fill:#fff;fill-rule:evenodd;}</style></defs><title>Artboard 103</title><rect class="cls-1" width="256" height="256"/><path class="cls-2" d="M128,52.67A77.25,77.25,0,0,0,103.59,203.2c3.86.71,5.27-1.68,5.27-3.72,0-1.83-.07-6.69-.1-13.14C87.27,191,82.73,176,82.73,176c-3.51-8.92-8.58-11.3-8.58-11.3-7-4.79.53-4.7.53-4.7,7.75.55,11.83,8,11.83,8,6.89,11.8,18.08,8.4,22.48,6.42.7-5,2.7-8.4,4.9-10.33-17.15-1.95-35.18-8.58-35.18-38.17a29.86,29.86,0,0,1,8-20.73c-.79-2-3.44-9.81.76-20.44,0,0,6.49-2.08,21.24,7.92a73.21,73.21,0,0,1,38.67,0c14.75-10,21.22-7.92,21.22-7.92,4.21,10.63,1.56,18.49.77,20.44a29.81,29.81,0,0,1,7.94,20.73c0,29.67-18.06,36.2-35.27,38.11,2.77,2.38,5.24,7.1,5.24,14.3,0,10.33-.09,18.66-.09,21.19,0,2.07,1.39,4.47,5.31,3.71A77.25,77.25,0,0,0,128,52.67Z"/></svg>