<?xml version="1.0" encoding="utf-8"?>
<!-- Generator: Adobe Illustrator 26.0.1, SVG Export Plug-In . SVG Version: 6.00 Build 0)  -->
<svg version="1.1" id="Layer_1" xmlns="http://www.w3.org/2000/svg" xmlns:xlink="http://www.w3.org/1999/xlink" x="0px" y="0px"
	 viewBox="0 0 256 256" style="enable-background:new 0 0 256 256;" xml:space="preserve">
<style type="text/css">
	.st0{fill:#003460;}
	.st1{fill-rule:evenodd;clip-rule:evenodd;fill:#00A3E2;}
	.st2{fill-rule:evenodd;clip-rule:evenodd;fill:#FFFFFF;}
</style>
<rect x="0" y="0" class="st0" width="256" height="256"/>
<g>
	
		<image style="overflow:visible;opacity:0.4;" width="256" height="257" xlink:href="C541E97E12AE9279.png"  transform="matrix(1 0 0 1 0 -0.5)">
	</image>
	<g>
		<g>
			<path class="st1" d="M142.2,149.2h-36.3c-2.4,0-4.8,1.4-5.9,3.5L77.1,196l-14.7-27.7c-3.5-6.4-3-10.4,0.5-17.1l20.3-37.9
				c0.6-1.3,1.9-2.1,3.5-2.1h29.5c4.6,0,6.7,1.3,9.8,6.9L142.2,149.2z"/>
			<path class="st2" d="M107.1,64.9L91.6,94.3h32.7c6.4,0,9.3,2.2,12.2,7.5l43.6,81.8l13.4-25.5c3.2-5.9,2.7-9.6-0.5-15.7L153,67.9
				c-3.4-6.2-6.7-8.3-14.1-8.3h-23.7C111.7,59.6,108.5,61.7,107.1,64.9z"/>
		</g>
	</g>
</g>
</svg>
