<svg xmlns="http://www.w3.org/2000/svg" width="256" height="256" viewBox="0 0 256 256">
  <defs>
    <linearGradient id="apt-get-install-stepicon-a" x1="50%" x2="50%" y1=".689%" y2="97.648%">
      <stop offset="0%" stop-color="#004F67"/>
      <stop offset="100%" stop-color="#022029"/>
    </linearGradient>
  </defs>
  <g fill="none">
    <rect width="256" height="256" fill="url(#apt-get-install-stepicon-a)"/>
    <g fill="#25E000" transform="translate(42 85)">
      <polygon points="0 0 30.3 0 30.3 9 13 9 13 77 30.3 77 30.3 86 0 86"/>
      <path d="M29.9,28.4 C32.233345,22.999973 34.8833185,19.1166785 37.85,16.75 C40.8166815,14.3833215 43.96665,13.2 47.3,13.2 C49.366677,13.2 51.166659,13.5833295 52.7,14.35 C54.233341,15.1166705 55.633327,15.9499955 56.9,16.85 C58.166673,17.7500045 59.3833275,18.566663 60.55,19.3 C61.7166725,20.033337 62.96666,20.4 64.3,20.4 C65.63334,20.4 66.899994,19.700007 68.1,18.3 C69.300006,16.899993 70.366662,14.933346 71.3,12.4 L81.5,17.2 C79.166655,22.600027 76.5166815,26.4833215 73.55,28.85 C70.5833185,31.2166785 67.43335,32.4 64.1,32.4 C61.966656,32.4 60.1500075,32.033337 58.65,31.3 C57.1499925,30.566663 55.766673,29.7500045 54.5,28.85 C53.233327,27.9499955 52.0166725,27.1166705 50.85,26.35 C49.6833275,25.5833295 48.43334,25.2 47.1,25.2 C45.76666,25.2 44.500006,25.899993 43.3,27.3 C42.099994,28.700007 41.033338,30.666654 40.1,33.2 L29.9,28.4 Z"/>
      <polygon points="101.2 77 101.2 9 84 9 84 0 114.3 0 114.3 86 84 86 84 77"/>
      <path d="M170,31.2 C167.599988,29.599992 165.366677,28.400004 163.3,27.6 C161.233323,26.799996 158.933346,26.4 156.4,26.4 C152.799982,26.4 151,27.466656 151,29.6 C151,30.533338 151.699993,31.33333 153.1,32 C154.500007,32.66667 156.233323,33.366663 158.3,34.1 C160.366677,34.833337 162.633321,35.666662 165.1,36.6 C167.566679,37.533338 169.833323,38.699993 171.9,40.1 C173.966677,41.500007 175.699993,43.2499895 177.1,45.35 C178.500007,47.4500105 179.2,49.999985 179.2,53 C179.2,57.200021 177.800014,60.866651 175,64 C172.199986,67.133349 167.966695,69.233328 162.3,70.3 L162.3,85.4 L151.1,85.4 L151.1,70.8 C147.899984,70.399998 144.566684,69.53334 141.1,68.2 C137.633316,66.86666 134.600013,65.066678 132,62.8 L139.4,51.2 C142.800017,53.20001 145.883319,54.699995 148.65,55.7 C151.416681,56.700005 154.266652,57.2 157.2,57.2 C160.933352,57.2 162.8,56.20001 162.8,54.2 C162.8,53.066661 162.100007,52.1166705 160.7,51.35 C159.299993,50.5833295 157.566677,49.8166705 155.5,49.05 C153.433323,48.2833295 151.166679,47.433338 148.7,46.5 C146.233321,45.566662 143.966677,44.3833405 141.9,42.95 C139.833323,41.5166595 138.100007,39.7500105 136.7,37.65 C135.299993,35.5499895 134.6,32.933349 134.6,29.8 C134.6,25.399978 136.049986,21.7500145 138.95,18.85 C141.850015,15.9499855 145.899974,14.033338 151.1,13.1 L151.1,0 L162.3,0 L162.3,12.9 C165.700017,13.433336 168.699987,14.4499925 171.3,15.95 C173.900013,17.4500075 176.266656,19.266656 178.4,21.4 L170,31.2 Z"/>
    </g>
  </g>
</svg>
