<?xml version="1.0" encoding="UTF-8"?>
<svg width="256px" height="256px" viewBox="0 0 256 256" version="1.1" xmlns="http://www.w3.org/2000/svg" xmlns:xlink="http://www.w3.org/1999/xlink" style="background: #FFFFFF;">
    <!-- Generator: Sketch 46.2 (44496) - http://www.bohemiancoding.com/sketch -->
    <title>Artboard</title>
    <desc>Created with Sketch.</desc>
    <defs>
        <rect id="path-1" x="0" y="0" width="196" height="196"></rect>
    </defs>
    <g id="Page-1" stroke="none" stroke-width="1" fill="none" fill-rule="evenodd">
        <g id="Artboard">
            <g id="iconfinder_android_317758" transform="translate(30.000000, 30.000000)">
                <mask id="mask-2" fill="white">
                    <use xlink:href="#path-1"></use>
                </mask>
                <g id="Mask"></g>
                <g id="Android_logo_2019" mask="url(#mask-2)">
                    <g transform="translate(2.000000, 86.000000)">
                        <g id="g80302" stroke-width="1" fill="none" fill-rule="evenodd" transform="translate(0.000000, 126.518519)">
                            <path d="M80.0430875,14.1130163 C73.3316027,14.1130163 66.4303814,19.4535856 66.4303814,28.8015176 C66.4303814,37.3473693 72.4981694,43.3835498 80.0430875,43.3835498 C86.2710589,43.3835498 89.0467918,39.2324537 89.0467918,39.2324537 L89.0467918,41.0419064 C89.0467918,41.8971439 89.8610819,42.851359 90.8689684,42.851359 L95.3708108,42.851359 L95.3708108,0.701815506 L89.0467918,0.701815506 L89.0467918,18.3173276 C89.0467918,18.3173276 86.2478023,14.1130163 80.0430875,14.1130163 Z M81.1696154,19.8588265 C86.6946082,19.8588265 89.5927644,24.6839109 89.5927644,28.799427 C89.5927644,33.3834459 86.1517352,37.7369108 81.1813314,37.7369302 C77.0263679,37.7369302 72.8643085,34.3953673 72.8643085,28.7389331 C72.8643085,23.6329831 76.4460075,19.8588265 81.1696154,19.8588265 L81.1696154,19.8588265 Z" id="path833" fill="#000000" fill-rule="nonzero"></path>
                            <path d="M179.941168,14.1130163 C173.229664,14.1130163 166.328443,19.4535856 166.328443,28.8015176 C166.328443,37.3473693 172.39623,43.3835498 179.941168,43.3835498 C186.16912,43.3835498 188.944843,39.2324537 188.944843,39.2324537 L188.944843,41.0419064 C188.944843,41.8971439 189.759133,42.851359 190.76702,42.851359 L195.268862,42.851359 L195.268862,0.701815506 L188.944843,0.701815506 L188.944843,18.3173276 C188.944843,18.3173276 186.145883,14.1130163 179.941168,14.1130163 L179.941168,14.1130163 Z M181.067676,19.8588265 C186.592669,19.8588265 189.490816,24.6839109 189.490816,28.799427 C189.490816,33.3834459 186.049816,37.7369108 181.079392,37.7369302 C176.924429,37.7369302 172.76237,34.3953673 172.76237,28.7389331 C172.76237,23.6329831 176.344088,19.8588265 181.067676,19.8588265 Z" id="path839" fill="#000000" fill-rule="nonzero"></path>
                            <ellipse id="path841" fill="#000000" fill-rule="nonzero" cx="158.186058" cy="4.53739516" rx="4.18272484" ry="4.1535175"></ellipse>
                        </g>
                        <path d="M145.044298,33.1213142 L161.216922,4.95180254 C162.129553,3.3726098 161.577734,1.36659359 160.028378,0.448947953 C158.479036,-0.468682855 156.46276,0.0648223942 155.571358,1.64402255 L139.186492,30.1763293 C126.685599,24.435717 112.61415,21.2346411 97.4814774,21.2346411 C82.3488194,21.2346411 68.2773632,24.435717 55.7764701,30.1763293 L39.3916043,1.64402255 C38.4789732,0.0648223942 36.4839264,-0.468682855 34.9133559,0.448947953 C33.342778,1.36659359 32.8121807,3.3726098 33.7248118,4.95180254 L49.8974432,33.1213142 C22.0092099,48.3157895 3.11991242,76.6987018 0,109.925926 L194.962963,109.925926 C191.843043,76.6987018 172.95374,48.3157895 145.044298,33.1213142 Z M52.7202214,82.3966236 C48.1995231,82.3966236 44.5490134,78.7047106 44.5490134,74.1805256 C44.5490134,69.6349805 48.2207517,65.9644202 52.7202214,65.9644202 C57.2409197,65.9644202 60.8914368,69.6563257 60.8914368,74.1805256 C60.9127465,78.7047106 57.2409197,82.3966236 52.7202214,82.3966236 Z M142.221512,82.3966236 C137.700821,82.3966236 134.050289,78.7047106 134.050289,74.1805256 C134.050289,69.6349805 137.722035,65.9644202 142.221512,65.9644202 C146.742218,65.9644202 150.39272,69.6563257 150.39272,74.1805256 C150.413956,78.7047106 146.742218,82.3966236 142.221512,82.3966236 Z" id="path80319" fill="#8DC700" fill-rule="nonzero"></path>
                    </g>
                </g>
                <g id="c4e06ce4fb288459a401fe71e9cf6aa2" mask="url(#mask-2)" fill-rule="nonzero" fill="#8DC700">
                    <g transform="translate(75.000000, 50.000000)" id="Shape">
                        <path d="M23.5,20 C21.565512,20 20,21.6020378 20,23.5816602 L20,34.4183398 C20,36.3979622 21.565512,38 23.5,38 C25.434488,38 27,36.3979622 27,34.4183398 L27,23.5816602 C27,21.6020378 25.4292169,20 23.5,20 Z"></path>
                        <path d="M20,13.5 C20,15.4319572 21.5680428,17 23.5,17 C25.4319572,17 27,15.4319572 27,13.5 C27,11.5680428 25.4319572,10 23.5,10 C21.5680428,10 20,11.5680428 20,13.5 Z"></path>
                        <path d="M46.9894536,17.1918367 C46.9578144,16.2367347 46.1826545,15.4726531 45.2229328,15.4726531 C44.2421183,15.4726531 43.4511388,16.2738776 43.4511388,17.2555102 C43.4511388,17.3404082 43.4669584,17.4146939 43.4775048,17.4942857 L43.4775048,34.882449 C43.4775048,39.1220408 40.0499271,42.5657143 35.8419163,42.5657143 L27.9848536,42.5657143 L23.513183,48.1053061 L18.9729608,42.5657143 L11.1633569,42.5657143 C6.95007293,42.5657143 3.52776843,39.1167347 3.52776843,34.882449 L3.52776843,11.2330612 C3.52776843,6.99346939 6.95534612,3.54979592 11.1633569,3.54979592 L35.8419163,3.54979592 C39.5858858,3.54979592 42.7972624,6.3355102 43.3667676,10.0497959 C43.3667676,10.0657143 43.3614944,10.0816327 43.3614944,10.097551 C43.3614944,11.0897959 44.1630203,11.8963265 45.149108,11.8963265 C46.1351958,11.8963265 46.9367216,11.0897959 46.9367216,10.097551 C46.9367216,9.95428571 46.9156289,9.81102041 46.8839897,9.67836735 L46.8892629,9.67836735 C46.1246494,4.16 41.3734994,0 35.8419163,0 L11.1633569,0 C5.00953663,0 0,5.04081633 0,11.2330612 L0,34.882449 C0,41.0746939 5.00953663,46.1155102 11.1633569,46.1155102 L17.311904,46.1155102 L21.0664198,50.6893878 C21.2298889,50.9069388 22.1157859,51.9893878 23.5290026,52 C23.5342758,52 23.5448222,52 23.5500954,52 C24.1934253,52 25.1267811,51.7771429 25.9335802,50.7371429 L29.6670033,46.1102041 L35.8366431,46.1102041 C41.9904634,46.1102041 47,41.0693878 47,34.8771429 L47,17.1918367"></path>
                    </g>
                </g>
                <g id="Group" mask="url(#mask-2)">
                    <g transform="translate(31.000000, 0.000000)">
                        <path d="M49.0283203,29.1582031 C49.6533234,29.1582031 50.2221654,29.0336927 50.7348633,28.784668 C51.2475612,28.5356433 51.6577133,28.1914084 51.965332,27.7519531 C52.2729508,27.3124978 52.4267578,26.8095731 52.4267578,26.2431641 L52.4267578,25.1005859 L49.1162109,25.3056641 C48.3251914,25.3642581 47.7099631,25.5644514 47.2705078,25.90625 C46.8310525,26.2480486 46.6113281,26.6972628 46.6113281,27.2539062 C46.6113281,27.8398467 46.8334939,28.3037092 47.277832,28.6455078 C47.7221702,28.9873064 48.3056604,29.1582031 49.0283203,29.1582031 Z M47.6220703,32.2490234 C46.6259716,32.2490234 45.7299844,32.0488301 44.934082,31.6484375 C44.1381796,31.2480449 43.5107445,30.6889684 43.0517578,29.9711914 C42.5927711,29.2534144 42.3632812,28.4257859 42.3632812,27.4882812 C42.3632812,26.0624929 42.8930611,24.9418986 43.9526367,24.1264648 C45.0122123,23.3110311 46.5185449,22.8496099 48.4716797,22.7421875 L52.4267578,22.5078125 L52.4267578,21.4677734 C52.4267578,20.7353479 52.1899438,20.1665059 51.7163086,19.7612305 C51.2426734,19.355955 50.60059,19.1533203 49.7900391,19.1533203 C48.9892538,19.1533203 48.3471704,19.3339826 47.8637695,19.6953125 C47.3803687,20.0566424 47.0849615,20.5253877 46.9775391,21.1015625 L43.0664062,21.1015625 C43.1445316,19.5781174 43.7963806,18.3403368 45.0219727,17.3881836 C46.2475647,16.4360304 47.9003802,15.9599609 49.9804688,15.9599609 C51.3183661,15.9599609 52.487788,16.1772439 53.4887695,16.6118164 C54.4897511,17.0463889 55.2636691,17.6567344 55.8105469,18.4428711 C56.3574246,19.2290078 56.6308594,20.1494088 56.6308594,21.2041016 L56.6308594,32 L52.5,32 L52.5,29.5976562 L52.4121094,29.5976562 C52.1191392,30.1542997 51.7211939,30.6303691 51.2182617,31.0258789 C50.7153295,31.4213887 50.1538117,31.72412 49.5336914,31.934082 C48.9135711,32.144044 48.2763705,32.2490234 47.6220703,32.2490234 Z M65.8154297,29.1582031 C66.4404328,29.1582031 67.0092748,29.0336927 67.5219727,28.784668 C68.0346705,28.5356433 68.4448227,28.1914084 68.7524414,27.7519531 C69.0600601,27.3124978 69.2138672,26.8095731 69.2138672,26.2431641 L69.2138672,25.1005859 L65.9033203,25.3056641 C65.1123007,25.3642581 64.4970725,25.5644514 64.0576172,25.90625 C63.6181619,26.2480486 63.3984375,26.6972628 63.3984375,27.2539062 C63.3984375,27.8398467 63.6206032,28.3037092 64.0649414,28.6455078 C64.5092796,28.9873064 65.0927698,29.1582031 65.8154297,29.1582031 Z M64.4091797,32.2490234 C63.413081,32.2490234 62.5170938,32.0488301 61.7211914,31.6484375 C60.925289,31.2480449 60.2978539,30.6889684 59.8388672,29.9711914 C59.3798805,29.2534144 59.1503906,28.4257859 59.1503906,27.4882812 C59.1503906,26.0624929 59.6801705,24.9418986 60.7397461,24.1264648 C61.7993217,23.3110311 63.3056543,22.8496099 65.2587891,22.7421875 L69.2138672,22.5078125 L69.2138672,21.4677734 C69.2138672,20.7353479 68.9770531,20.1665059 68.503418,19.7612305 C68.0297828,19.355955 67.3876994,19.1533203 66.5771484,19.1533203 C65.7763632,19.1533203 65.1342798,19.3339826 64.6508789,19.6953125 C64.1674781,20.0566424 63.8720708,20.5253877 63.7646484,21.1015625 L59.8535156,21.1015625 C59.931641,19.5781174 60.58349,18.3403368 61.809082,17.3881836 C63.0346741,16.4360304 64.6874896,15.9599609 66.7675781,15.9599609 C68.1054754,15.9599609 69.2748973,16.1772439 70.2758789,16.6118164 C71.2768605,17.0463889 72.0507785,17.6567344 72.5976562,18.4428711 C73.144534,19.2290078 73.4179688,20.1494088 73.4179688,21.2041016 L73.4179688,32 L69.2871094,32 L69.2871094,29.5976562 L69.1992188,29.5976562 C68.9062485,30.1542997 68.5083033,30.6303691 68.0053711,31.0258789 C67.5024389,31.4213887 66.9409211,31.72412 66.3208008,31.934082 C65.7006805,32.144044 65.0634798,32.2490234 64.4091797,32.2490234 Z M85.8691406,32.2490234 C84.7167911,32.2490234 83.7158246,31.9877956 82.8662109,31.465332 C82.0165973,30.9428685 81.3769553,30.2226608 80.9472656,29.3046875 L80.859375,29.3046875 L80.859375,32 L76.640625,32 L76.640625,10.8623047 L80.9179688,10.8623047 L80.9179688,19.0214844 L81.0058594,19.0214844 C81.435549,18.0937454 82.0727497,17.3662136 82.9174805,16.8388672 C83.7622113,16.3115208 84.7412054,16.0478516 85.8544922,16.0478516 C87.1728582,16.0478516 88.3105421,16.370114 89.2675781,17.0146484 C90.2246142,17.6591829 90.9594701,18.586908 91.472168,19.7978516 C91.9848658,21.0087951 92.2412109,22.4589759 92.2412109,24.1484375 C92.2412109,25.8281334 91.9848658,27.2734314 91.472168,28.484375 C90.9594701,29.6953186 90.2270555,30.625485 89.2749023,31.2749023 C88.3227491,31.9243197 87.1875066,32.2490234 85.8691406,32.2490234 Z M84.3896484,19.4755859 C83.7060513,19.4755859 83.1005886,19.6684551 82.5732422,20.0541992 C82.0458958,20.4399433 81.6357437,20.9843715 81.3427734,21.6875 C81.0498032,22.3906285 80.9033203,23.2109328 80.9033203,24.1484375 C80.9033203,25.0957079 81.0498032,25.9184535 81.3427734,26.6166992 C81.6357437,27.3149449 82.0434544,27.8544903 82.565918,28.2353516 C83.0883815,28.6162128 83.6962856,28.8066406 84.3896484,28.8066406 C85.1025426,28.8066406 85.7177708,28.6186542 86.2353516,28.2426758 C86.7529323,27.8666973 87.1533189,27.3295933 87.4365234,26.6313477 C87.719728,25.933102 87.8613281,25.1054735 87.8613281,24.1484375 C87.8613281,23.1914015 87.719728,22.363773 87.4365234,21.6655273 C87.1533189,20.9672817 86.7529323,20.4277363 86.2353516,20.046875 C85.7177708,19.6660137 85.1025426,19.4755859 84.3896484,19.4755859 Z" id="aab" stroke="none" fill="#8DC700" fill-rule="evenodd"></path>
                        <rect id="Rectangle" stroke="#8DC700" stroke-width="4" fill="none" x="2" y="2" width="131" height="39" rx="8"></rect>
                    </g>
                </g>
            </g>
        </g>
    </g>
</svg>