<?xml version="1.0" encoding="UTF-8"?>
<svg width="256px" height="256px" viewBox="0 0 256 256" version="1.1" xmlns="http://www.w3.org/2000/svg" xmlns:xlink="http://www.w3.org/1999/xlink">
    <!-- Generator: Sketch 56.2 (81672) - https://sketch.com -->
    <title>go-errcheck-stepicon</title>
    <desc>Created with Sketch.</desc>
    <defs>
        <linearGradient x1="50%" y1="0%" x2="50%" y2="100%" id="linearGradient-1">
            <stop stop-color="#F7FEFF" offset="0%"></stop>
            <stop stop-color="#D9F6FA" offset="100%"></stop>
        </linearGradient>
        <linearGradient x1="50%" y1="97.3990416%" x2="50%" y2="14.9880106%" id="linearGradient-2">
            <stop stop-color="#45DBED" stop-opacity="0.428243886" offset="0%"></stop>
            <stop stop-color="#45DBED" offset="100%"></stop>
        </linearGradient>
    </defs>
    <g id="New-Icons" stroke="none" stroke-width="1" fill="none" fill-rule="evenodd">
        <g id="Go-Errcheck">
            <g id="go-errcheck-stepicon">
                <g id="gopher">
                    <rect id="Rectangle" fill="url(#linearGradient-1)" x="0" y="0" width="256" height="256"></rect>
                    <path d="M101.142857,76.6190476 C100.353968,76.6190476 99.7142857,75.9793651 99.7142857,75.1904762 C99.7142857,74.4015873 100.353968,73.7619048 101.142857,73.7619048 C101.931746,73.7619048 102.571429,74.4015873 102.571429,75.1904762 C102.571429,75.9793651 101.931746,76.6190476 101.142857,76.6190476 M99,69 C96.2383598,69 94,71.2386243 94,74 C94,76.7613757 96.2383598,79 99,79 C101.761376,79 104,76.7613757 104,74 C104,71.2386243 101.761376,69 99,69" id="Fill-1" fill="#45DBED"></path>
                    <path d="M139.142857,74.6190476 C138.353968,74.6190476 137.714286,73.9793651 137.714286,73.1904762 C137.714286,72.4015873 138.353968,71.7619048 139.142857,71.7619048 C139.931746,71.7619048 140.571164,72.4015873 140.571164,73.1904762 C140.571164,73.9793651 139.931746,74.6190476 139.142857,74.6190476 M136.999735,67 C134.238624,67 132,69.2386243 132,72 C132,74.7616402 134.238624,77 136.999735,77 C139.761376,77 142,74.7616402 142,72 C142,69.2386243 139.761376,67 136.999735,67" id="Fill-3" fill="#45DBED"></path>
                    <path d="M167.272013,64.0045217 C167.899156,63.1596783 168.900783,62.6099159 170.032974,62.6099159 C171.933798,62.6099159 173.474616,64.1521987 173.474616,66.0542566 C173.474616,67.7218329 172.290527,69.1120712 170.717752,69.4298088 C169.73224,67.5220185 168.587212,65.736519 167.272013,64.0045217 L167.272013,64.0045217 Z M145.158648,85.9587135 C136.876857,85.9587135 130.163198,79.4691148 130.163198,71.4639843 C130.163198,63.4585809 136.876857,56.9692552 145.158648,56.9692552 C153.440439,56.9692552 160.154371,63.4585809 160.154371,71.4639843 C160.154371,79.4691148 153.440439,85.9587135 145.158648,85.9587135 L145.158648,85.9587135 Z M136.035566,98.4692207 C135.143744,98.5625765 134.402972,98.5841412 133.771458,98.5554793 C130.57838,98.4099861 130.188873,96.9687023 127.376834,96.8687951 C127.223872,96.8633357 127.066267,96.860606 126.898282,96.8633357 C123.952674,96.9146541 123.510996,98.2279148 120.975108,98.6804998 C120.178067,98.8227174 119.17644,98.8808601 117.822728,98.7869582 C114.656145,98.56749 113.511662,94.4914957 115.868094,91.7729834 C117.069391,90.3876585 118.534001,89.6318034 120.552551,89.2452773 C121.62383,90.6215941 124.036803,91.5819041 126.844199,91.5819041 C129.763585,91.5819041 132.25659,90.5437976 133.257397,89.0790383 C135.142925,89.4156108 136.554544,90.1127773 137.743822,91.3913707 C140.193943,94.0260812 139.19259,98.1394724 136.035566,98.4692207 L136.035566,98.4692207 Z M128.196272,108.915526 L128.196272,99.8714697 C131.008312,99.9713769 131.397818,101.412661 134.590897,101.558154 C134.681581,103.131282 134.798488,105.31723 134.915667,107.932832 C135.161499,113.419537 128.196272,112.191171 128.196272,108.915526 L128.196272,108.915526 Z M125.464811,108.915526 C125.464811,112.191171 118.499584,113.419537 118.745416,107.932832 C118.859591,105.386291 118.973493,103.246203 119.063085,101.683174 C121.598973,101.230589 122.040651,99.9173287 124.986259,99.8660103 C125.154244,99.8632806 125.311849,99.8660103 125.464811,99.8714697 L125.464811,108.915526 Z M92.5507007,73.1836979 C92.5507007,65.1782945 99.2646328,58.6889688 107.546424,58.6889688 C115.828488,58.6889688 122.542147,65.1782945 122.542147,73.1836979 C122.542147,81.1888284 115.828488,87.6784271 107.546424,87.6784271 C99.2646328,87.6784271 92.5507007,81.1888284 92.5507007,73.1836979 L92.5507007,73.1836979 Z M133.727482,85.4673667 C133.727482,85.9712701 133.55977,86.452517 133.257397,86.895275 C132.25659,88.3600342 129.763585,89.3981407 126.844199,89.3981407 C124.036803,89.3981407 121.62383,88.4378308 120.552551,87.061514 C120.173424,86.5739888 119.960916,86.0351452 119.960916,85.4673667 C119.960916,83.296433 123.042824,81.5365927 126.844199,81.5365927 C130.64612,81.5365927 133.727482,83.296433 133.727482,85.4673667 L133.727482,85.4673667 Z M84.9913812,67.4103736 C84.1935213,68.8404656 83.4524758,70.350811 82.7753465,71.9520554 C80.9051149,71.9168422 79.3987139,70.3912106 79.3987139,68.5109903 C79.3987139,66.6089325 80.9398045,65.0666496 82.8406285,65.0666496 C83.9550647,65.0666496 84.9430343,65.5992149 85.5720899,66.4216748 C85.3737858,66.7459636 85.1787594,67.074347 84.9913812,67.4103736 L84.9913812,67.4103736 Z M185.555869,129.306689 C183.507273,128.061944 179.71382,127.063418 176.264257,126.51502 C175.790622,116.321486 176.281738,111.688359 176.13342,100.054087 C176.006953,90.1534499 175.260718,82.8132754 173.591795,76.8387718 C179.535728,75.0505426 182.172681,69.4985973 181.257095,64.3118864 C180.266941,58.6996146 175.932931,54.5125214 167.452016,55.6518999 C164.511871,56.0468881 162.76319,56.9102935 161.773581,58.0936203 C153.634646,51.0706374 143.040672,48.5972525 127.704882,49.0522941 C114.407309,49.4470094 100.260797,51.7563391 91.0109759,59.9443597 C89.9784834,58.9461069 88.3008198,58.21673 85.6674179,57.8629603 C77.1862302,56.7235818 72.8522204,60.910948 71.8620656,66.5229468 C70.9066004,71.9381339 73.8210697,77.7534957 80.3309617,79.2657518 C79.0288741,84.3894065 78.2921989,90.3300617 78.2924721,97.3519527 C78.2932915,109.671654 80.7141858,115.785099 80.5683257,127.618367 C76.9141766,128.130732 72.6585597,129.189311 70.4438908,130.535056 C68.4398176,131.75305 68.7028573,135.339062 70.1286802,137.113097 C71.6334423,138.98622 73.3990589,138.88604 75.5309646,137.906076 C76.9302923,137.262684 78.6158771,135.829044 80.3566375,134.223159 C79.9051269,148.720072 80.0665563,163.120626 79.9474645,172.994785 C79.8379329,182.058495 83.9479629,190.111122 91.3772648,196.042496 C87.7944069,197.442562 84.893868,199.446437 83.2500745,202.366675 C80.5584925,207.149117 87.5930982,211.088353 91.2395992,207.771762 C94.2190773,205.061712 96.5708656,202.763301 101.689078,202.012632 C108.548597,204.834328 116.826291,206.430931 126.22962,206.430931 C139.959311,206.430931 150.117889,203.795948 157.555112,199.787923 C161.018059,201.427384 162.715116,203.759643 164.804684,206.461777 C167.819398,210.360614 175.309884,206.819914 173.120072,201.788251 C171.681684,198.482306 168.963334,195.740318 165.560206,194.09185 C171.121462,188.903228 174.074171,182.784869 175.395926,177.1958 C178.528912,163.950456 178.1181,154.244447 176.715495,133.965202 C178.070026,135.160539 179.359549,136.167527 180.468523,136.677436 C182.600974,137.657673 184.366318,137.757853 185.871353,135.88473 C187.297176,134.110695 187.560216,130.524137 185.555869,129.306689 L185.555869,129.306689 Z" id="Fill-5" fill="url(#linearGradient-2)"></path>
                </g>
                <polygon id="Path-2" fill="#0C5BD0" fill-rule="nonzero" style="mix-blend-mode: multiply;" points="206.928932 50.9289322 221.071068 65.0710678 93.5335707 192.608565 35.9289322 135.003926 50.0710678 120.861791 93.5335707 164.324294"></polygon>
            </g>
        </g>
    </g>
</svg>