<?xml version="1.0" encoding="UTF-8"?>
<svg width="256px" height="256px" viewBox="0 0 256 256" version="1.1" xmlns="http://www.w3.org/2000/svg" xmlns:xlink="http://www.w3.org/1999/xlink">
    <!-- Generator: Sketch 56.2 (81672) - https://sketch.com -->
    <title>wetransfer-stepicon</title>
    <desc>Created with Sketch.</desc>
    <g id="New-Icons" stroke="none" stroke-width="1" fill="none" fill-rule="evenodd">
        <g id="Wetransfer" fill-rule="nonzero">
            <g id="wetransfer-stepicon">
                <rect id="Rectangle-path-2" fill="#000000" x="0" y="0" width="256" height="256"></rect>
                <path d="M142.393939,127.181818 C142.393939,100.69697 161.393939,84.5757576 186.151515,84.5757576 C208.030303,84.5757576 223,95.5151515 223,111.060606 C223,126.030303 210.333333,135.242424 196.515152,135.242424 C188.454545,135.242424 183.272727,134.090909 179.242424,130.636364 C178.090909,130.060606 177.515152,130.060606 177.515152,131.787879 C177.515152,137.545455 179.818182,141.575758 183.272727,145.606061 C186.151515,148.484848 191.909091,150.787879 197.090909,150.787879 C202.848485,150.787879 207.454545,149.636364 212.060606,147.333333 C216.666667,145.030303 219.545455,146.181818 221.848485,149.636364 C224.727273,153.666667 221.272727,158.848485 217.818182,162.30303 C212.060606,168.060606 201.121212,172.666667 187.30303,172.666667 C159.090909,170.939394 142.969697,152.515152 142.393939,127.181818 L142.393939,127.181818 Z M85.3939394,145.030303 C87.6969697,145.030303 90,146.181818 91.1515152,149.636364 L99.2121212,162.30303 C102.090909,166.909091 104.969697,170.363636 110.151515,170.363636 C115.333333,170.363636 118.787879,168.060606 121.666667,161.727273 C125.121212,154.242424 129.151515,143.878788 132.030303,131.212121 C136.060606,116.242424 137.787879,107.606061 137.787879,100.69697 C137.787879,93.7878788 135.484848,89.1818182 127.424242,87.4545455 C116.484848,84.5757576 100.939394,84 85.3939394,84 C69.8484848,84 54.3030303,84.5757576 43.3636364,86.8787879 C35.3030303,88.6060606 33,92.6363636 33,100.121212 C33,107.606061 34.7272727,116.242424 38.1818182,130.636364 C41.6363636,143.878788 45.0909091,153.090909 48.5454545,161.151515 C51.4242424,167.484848 54.3030303,169.787879 59.4848485,169.787879 C64.6666667,169.787879 67.5454545,166.333333 70.4242424,161.727273 L78.4848485,149.060606 C80.7878788,146.757576 82.5151515,145.030303 85.3939394,145.030303 Z" id="Shape" fill="#FFFFFF"></path>
            </g>
        </g>
    </g>
</svg>