<?xml version="1.0" encoding="utf-8"?>
<!-- Generator: Adobe Illustrator 16.0.0, SVG Export Plug-In . SVG Version: 6.00 Build 0)  -->
<!DOCTYPE svg PUBLIC "-//W3C//DTD SVG 1.1//EN" "http://www.w3.org/Graphics/SVG/1.1/DTD/svg11.dtd">
<svg version="1.1" id="Layer_1" xmlns="http://www.w3.org/2000/svg" xmlns:xlink="http://www.w3.org/1999/xlink" x="0px" y="0px"
	 width="1200px" height="1200px" viewBox="0 0 1200 1200" enable-background="new 0 0 1200 1200" xml:space="preserve">
<g>
	<path fill-rule="evenodd" clip-rule="evenodd" fill="#385E91" d="M11.3,250.748c14.906-27.403,37.037-37.393,68.935-37.179
		c189.092,1.263,378.195,0.601,567.298,0.695c54.086,0.027,75.772,28.919,57.979,79.979
		c-41.827,120.034-84.546,239.76-127.475,359.407c-12.098,33.726-34.73,50.118-64.312,49.653
		c-29.995-0.475-50.432-17.146-62.051-51.653c-18.203-54.058-34.61-108.779-54.954-162.006
		c-5.049-13.209-20.926-28.016-34.273-30.951c-19.312-4.244-31.478,11.346-37.714,30.982
		c-17.267,54.35-35.649,108.344-53.939,162.36c-11.523,34.031-32.745,51.161-62.336,51.351
		c-29.682,0.192-51.754-16.155-63.834-49.96C101.894,533.903,59.753,414.172,17.32,294.542c-1.656-4.662-3.996-9.083-6.02-13.617
		C11.3,270.866,11.3,260.806,11.3,250.748z"/>
	<path fill-rule="evenodd" clip-rule="evenodd" fill="#385E91" d="M1188.277,461.998c-16.472,12.001-31.281,28.695-49.695,35.219
		c-96.558,34.212-194.221,52.528-292.481,2.094c-1.271,56.904,49.791,108.291,109.188,113.536
		c45.909,4.061,87.293-6.532,124.505-34.433c27.41-20.555,52.593-19.356,69.234,1.39c17.288,21.554,12.321,50.065-14.689,70.584
		c-84.646,64.292-177.618,72.704-272.255,29.352c-91.168-41.755-131.919-119.428-132.541-218.203
		c-0.806-128.392,75.449-227.884,188.407-247.757c127.551-22.437,234.158,48.157,263.919,174.639
		c1.545,6.557,4.244,12.843,6.408,19.255C1188.277,425.784,1188.277,443.891,1188.277,461.998z"/>
</g>
<g>
	<path fill="#385E91" d="M95.966,767.343v43.832h39.732v21.128H95.966v82.308c0,18.918,5.363,29.64,20.813,29.64
		c7.254,0,12.613-0.947,16.082-1.894l1.263,20.812c-5.363,2.212-13.876,3.786-24.598,3.786c-12.929,0-23.335-4.1-29.958-11.665
		c-7.884-8.202-10.722-21.761-10.722-39.736v-83.25H45.196v-21.128h23.651v-36.578L95.966,767.343z"/>
	<path fill="#385E91" d="M185.856,858.792c0-17.973-0.315-33.426-1.259-47.617h24.278l0.947,29.956h1.263
		c6.937-20.493,23.65-33.426,42.253-33.426c3.153,0,5.363,0.317,7.885,0.948v26.172c-2.838-0.628-5.679-0.942-9.459-0.942
		c-19.555,0-33.426,14.818-37.21,35.631c-0.632,3.785-1.263,8.201-1.263,12.928V963.8h-27.436V858.792z"/>
	<path fill="#385E91" d="M390.847,963.8l-2.206-19.234h-0.947c-8.517,11.98-24.914,22.704-46.67,22.704
		c-30.903,0-46.669-21.76-46.669-43.832c0-36.896,32.794-57.078,91.761-56.761v-3.154c0-12.613-3.469-35.319-34.685-35.319
		c-14.192,0-29.014,4.417-39.732,11.354l-6.31-18.292c12.616-8.196,30.904-13.56,50.142-13.56c46.67,0,58.02,31.852,58.02,62.44
		v57.076c0,13.243,0.631,26.174,2.525,36.578H390.847z M386.746,885.911c-30.273-0.632-64.646,4.732-64.646,34.372
		c0,17.976,11.985,26.489,26.176,26.489c19.866,0,32.479-12.613,36.895-25.542c0.943-2.837,1.575-5.993,1.575-8.832V885.911z"/>
	<path fill="#385E91" d="M477.279,852.485c0-15.766-0.316-28.693-1.259-41.311h24.594l1.579,25.229h0.631
		c7.565-14.507,25.225-28.698,50.454-28.698c21.125,0,53.923,12.617,53.923,64.963V963.8h-27.75V875.82
		c0-24.598-9.145-45.092-35.32-45.092c-18.289,0-32.479,12.928-37.211,28.379c-1.258,3.469-1.89,8.201-1.89,12.929V963.8h-27.751
		V852.485z"/>
	<path fill="#385E91" d="M667.458,935.419c8.201,5.363,22.708,11.037,36.579,11.037c20.182,0,29.646-10.091,29.646-22.704
		c0-13.243-7.885-20.497-28.383-28.066c-27.436-9.774-40.363-24.909-40.363-43.2c0-24.598,19.866-44.78,52.66-44.78
		c15.454,0,29.014,4.417,37.526,9.465l-6.938,20.181c-5.991-3.785-17.028-8.832-31.216-8.832c-16.401,0-25.545,9.461-25.545,20.814
		c0,12.611,9.144,18.289,29.014,25.855c26.488,10.091,40.048,23.334,40.048,46.042c0,26.805-20.813,45.724-57.077,45.724
		c-16.713,0-32.166-4.1-42.889-10.408L667.458,935.419z"/>
	<path fill="#385E91" d="M817.898,963.8V832.303h-21.441v-21.128h21.441v-7.25c0-21.443,4.731-40.994,17.659-53.295
		c10.406-10.091,24.281-14.188,37.211-14.188c9.773,0,18.29,2.206,23.649,4.411l-3.785,21.445c-4.1-1.895-9.773-3.47-17.658-3.47
		c-23.651,0-29.642,20.814-29.642,44.147v8.198h36.896v21.128h-36.896V963.8H817.898z"/>
	<path fill="#385E91" d="M937.438,892.533c0.625,37.526,24.592,52.977,52.344,52.977c19.867,0,31.852-3.47,42.253-7.882
		l4.731,19.867c-9.773,4.415-26.486,9.459-50.77,9.459c-46.984,0-75.051-30.903-75.051-76.942c0-46.038,27.117-82.307,71.582-82.307
		c49.821,0,63.066,43.833,63.066,71.899c0,5.675-0.626,10.09-0.943,12.929H937.438z M1018.791,872.668
		c0.317-17.661-7.248-45.097-38.468-45.097c-28.066,0-40.365,25.861-42.573,45.097H1018.791z"/>
	<path fill="#385E91" d="M1098.91,858.792c0-17.973-0.316-33.426-1.26-47.617h24.278l0.948,29.956h1.263
		c6.937-20.493,23.649-33.426,42.253-33.426c3.154,0,5.363,0.317,7.886,0.948v26.172c-2.837-0.628-5.68-0.942-9.459-0.942
		c-19.556,0-33.426,14.818-37.212,35.631c-0.631,3.785-1.263,8.201-1.263,12.928V963.8h-27.435V858.792z"/>
</g>
</svg>
