<svg id="Layer_1" data-name="Layer 1" xmlns="http://www.w3.org/2000/svg" viewBox="0 0 256 256"><defs><style>.cls-1{fill:#a4c439;}.cls-2{fill:#fff;}</style></defs><title>icon</title><rect class="cls-1" width="256" height="256"/><path class="cls-2" d="M164.08,215H91.92a12.22,12.22,0,0,1-12.2-12.2V53.21A12.22,12.22,0,0,1,91.92,41h72.15a12.22,12.22,0,0,1,12.2,12.2V202.79A12.22,12.22,0,0,1,164.08,215ZM91.92,44a9.21,9.21,0,0,0-9.2,9.2V202.79a9.21,9.21,0,0,0,9.2,9.2h72.15a9.21,9.21,0,0,0,9.2-9.2V53.21a9.21,9.21,0,0,0-9.2-9.2Z"/><path class="cls-2" d="M128,201.19a5.92,5.92,0,1,1,5.92-5.92A5.93,5.93,0,0,1,128,201.19Zm0-9.84a3.92,3.92,0,1,0,3.92,3.92A3.92,3.92,0,0,0,128,191.34Z"/><path class="cls-2" d="M137,55H119a1.5,1.5,0,1,1,0-3h18a1.5,1.5,0,0,1,0,3Z"/><path class="cls-2" d="M105,201.19a1,1,0,0,1-.5-.13l-8.3-4.79a1,1,0,0,1,0-1.73l8.3-4.79a1,1,0,0,1,1.5.87v9.58a1,1,0,0,1-1,1Zm-6.3-5.79,5.3,3.06v-6.12Z"/><path class="cls-2" d="M158.53,201.19h-5.78a3,3,0,0,1-2.94-2.94v-5.78a3,3,0,0,1,2.94-2.94h5.78a3,3,0,0,1,2.94,2.94v5.78A3,3,0,0,1,158.53,201.19Zm-5.78-9.67a1,1,0,0,0-.94.94v5.78a1,1,0,0,0,.94.94h5.78a1,1,0,0,0,.94-.94v-5.78a1,1,0,0,0-.94-.94Z"/><rect class="cls-2" x="112.99" y="75.97" width="72.04" height="3" transform="translate(-11.13 128.06) rotate(-45)"/><rect class="cls-2" x="144.7" y="83.09" width="34.89" height="3" transform="translate(-12.33 139.43) rotate(-45)"/></svg>