<svg xmlns="http://www.w3.org/2000/svg" xmlns:xlink="http://www.w3.org/1999/xlink" viewBox="0 0 256 256"><defs><clipPath id="a"><path d="M108.43,70.48c-.61.79-5.76,11.63-6.38,15.54a110,110,0,0,1,35.74-6.51c21.43,0,37.76,8.36,34.55,27.57C184,79.92,162.13,61,137.31,61a48.44,48.44,0,0,0-28.88,9.49" fill="none"/></clipPath><linearGradient id="b" x1="-248.91" y1="386.8" x2="-246.02" y2="386.8" gradientTransform="matrix(0, 25.58, 25.58, 0, -9750.68, 6410.8)" gradientUnits="userSpaceOnUse"><stop offset="0" stop-color="#92c452"/><stop offset="0.05" stop-color="#92c452"/><stop offset="0.16" stop-color="#a9cd51"/><stop offset="0.39" stop-color="#d5de4e"/><stop offset="0.5" stop-color="#e6e54d"/><stop offset="0.61" stop-color="#d6df4e"/><stop offset="0.82" stop-color="#aecf50"/><stop offset="0.95" stop-color="#92c452"/><stop offset="1" stop-color="#92c452"/></linearGradient><clipPath id="c"><path d="M164.36,118.25c-15.69,10.81-45.31,10.22-45.31,49.56,0,7.91,20,22.49,36.07,17.58.75-.53,2.33-1.44,2.48-1.6,10.66-11.21-4.87-31.26,8.74-43.58,16.88-15.29,23.68-44.05,2.24-66.28,8.53,18,6.73,36.78-4.22,44.32" fill="none"/></clipPath><linearGradient id="d" x1="-260.75" y1="378.65" x2="-257.86" y2="378.65" gradientTransform="matrix(39.2, 0, 0, -39.2, 10320.68, 14974.46)" gradientUnits="userSpaceOnUse"><stop offset="0" stop-color="#92c452"/><stop offset="0.13" stop-color="#92c452"/><stop offset="0.88" stop-color="#e6e54d"/><stop offset="1" stop-color="#e6e54d"/></linearGradient><clipPath id="e"><path d="M74.45,115.26c-3.68,18.64,4,56.2,26.48,73.88,6.42,5,15,7.44,23.82,7.45h.06c12.12,0,24.73-4.52,33-12.92-21.11,10.84-54.76-20.95-58.41-59.19-3.31-34.65,9.39-54.25,9.39-54.25-14.3,11-30.95,28-34.31,45" fill="none"/></clipPath><linearGradient id="f" x1="-266.65" y1="381.71" x2="-263.75" y2="381.71" gradientTransform="matrix(0, -43.99, -43.99, 0, 16903.88, -11529.09)" gradientUnits="userSpaceOnUse"><stop offset="0" stop-color="#e6e54d"/><stop offset="0.08" stop-color="#cddb4e"/><stop offset="0.18" stop-color="#b3d150"/><stop offset="0.29" stop-color="#a1ca51"/><stop offset="0.4" stop-color="#96c552"/><stop offset="0.53" stop-color="#92c452"/><stop offset="0.62" stop-color="#97c652"/><stop offset="0.73" stop-color="#a5cb51"/><stop offset="0.85" stop-color="#bcd54f"/><stop offset="0.97" stop-color="#dde14e"/><stop offset="1" stop-color="#e6e54d"/></linearGradient></defs><rect x="-6.59" y="-6.29" width="267.16" height="264.96" fill="#fff"/><g clip-path="url(#a)"><rect x="113.2" y="39.69" width="59.62" height="88.69" transform="translate(35.42 210.28) rotate(-80)" fill="url(#b)"/></g><g clip-path="url(#c)"><rect x="86.81" y="75.37" width="135.46" height="113.5" transform="translate(-30.51 216.34) rotate(-65)" fill="url(#d)"/></g><g clip-path="url(#e)"><rect x="51.78" y="59.16" width="124.98" height="148.5" transform="translate(-38.74 47.13) rotate(-20)" fill="url(#f)"/></g></svg>