<svg width="256" height="256" viewBox="0 0 256 256" fill="none" xmlns="http://www.w3.org/2000/svg">
<rect width="256" height="256" fill="white"/>
<path d="M169.093 65.4716C157.386 59.3763 144.123 58.3336 131.677 62.5442C119.231 66.7548 109.119 75.6973 103.207 87.7677C98.8902 96.5899 97.14 106.415 98.229 116.239C98.8124 121.493 103.402 125.302 108.497 124.701C113.592 124.099 117.287 119.367 116.703 114.114C116.042 108.059 117.131 101.923 119.815 96.4696C123.471 88.9707 129.772 83.4368 137.473 80.8302C145.212 78.2237 153.458 78.8653 160.692 82.6348C175.666 90.4544 181.694 109.382 174.11 124.821C170.454 132.32 164.154 137.854 156.453 140.46C150.657 142.425 144.551 142.546 138.795 140.861L156.258 114.996C159.175 110.665 158.164 104.69 153.925 101.643C149.724 98.5949 143.929 99.6777 140.973 104.049L98.5012 166.927L75.6318 144.992C71.8591 141.383 65.9862 141.623 62.4858 145.473C58.9854 149.363 59.2188 155.418 62.9525 159.027L101.535 196L127.788 157.142C133.894 159.829 140.39 161.192 146.924 161.192C152.058 161.192 157.23 160.35 162.248 158.666C174.694 154.455 184.806 145.513 190.718 133.443C202.93 108.58 193.246 78.0633 169.093 65.5117V65.4716Z" fill="#82BA40"/>
</svg>
