<?xml version="1.0" encoding="UTF-8"?>
<svg width="256px" height="256px" viewBox="0 0 256 256" version="1.1" xmlns="http://www.w3.org/2000/svg" xmlns:xlink="http://www.w3.org/1999/xlink">
    <!-- Generator: Sketch 50.2 (55047) - http://www.bohemiancoding.com/sketch -->
    <title>hipchat-stepicon</title>
    <desc>Created with Sketch.</desc>
    <defs>
        <linearGradient x1="49.9923722%" y1="107.31548%" x2="49.9923722%" y2="38.7491835%" id="linearGradient-1">
            <stop stop-color="#0052CC" offset="18%"></stop>
            <stop stop-color="#2684FF" offset="100%"></stop>
        </linearGradient>
    </defs>
    <g id="New-Icons" stroke="none" stroke-width="1" fill="none" fill-rule="evenodd">
        <g id="Hipchat" fill-rule="nonzero">
            <g id="hipchat-stepicon">
                <rect id="Rectangle-path" fill="#FFFFFF" x="0" y="0" width="256" height="256"></rect>
                <path d="M178.2746,179.206128 C178.2746,179.206128 178.940961,178.752146 180.035698,177.891969 C195.980778,165.514985 206,147.546853 206,127.54775 C206,90.2495405 171.087414,60 128.011899,60 C84.9363844,60 50,90.2495405 50,127.54775 C50,164.845959 84.9125858,195.143287 127.988101,195.143287 C133.488115,195.144102 138.976694,194.640237 144.385355,193.637978 L146.075057,193.327359 C157.046224,200.495496 172.991304,206.325581 186.9373,206.325581 C191.292449,206.325581 193.315332,202.765406 190.554691,199.157444 C186.342334,193.924703 180.535469,185.609664 178.2746,179.206128 Z M168.755149,149.673401 C164.114416,156.650388 149.716247,168.525603 128.107094,168.525603 L127.82151,168.525603 C106.188558,168.525603 91.790389,156.578707 87.1734554,149.673401 C86.2369566,148.620585 85.6251474,147.317367 85.412357,145.922076 C85.3401858,145.055118 85.625182,144.19636 86.2008636,143.546129 C86.7765453,142.895897 87.5925701,142.511053 88.4585812,142.48137 C89.219364,142.506491 89.9559733,142.755779 90.576659,143.198183 C101.149419,151.837351 114.356372,156.569366 127.988101,156.602601 C141.665471,156.771348 154.948997,152.006444 165.423341,143.174289 C165.98447,142.665564 166.713975,142.384518 167.470023,142.385794 C169.182586,142.385744 170.57457,143.772627 170.587643,145.491987 C170.387599,147.019922 169.779011,148.464906 168.826545,149.673401 L168.755149,149.673401 Z" id="Shape" fill="url(#linearGradient-1)"></path>
            </g>
        </g>
    </g>
</svg>