<?xml version="1.0" encoding="UTF-8"?>
<svg width="256px" height="256px" viewBox="0 0 256 256" version="1.1" xmlns="http://www.w3.org/2000/svg" xmlns:xlink="http://www.w3.org/1999/xlink">
    <!-- Generator: Sketch 50.2 (55047) - http://www.bohemiancoding.com/sketch -->
    <title>slack-stepicon</title>
    <desc>Created with Sketch.</desc>
    <defs></defs>
    <g id="New-Icons" stroke="none" stroke-width="1" fill="none" fill-rule="evenodd">
        <g id="Slack" fill-rule="nonzero">
            <g id="slack-stepicon">
                <rect id="Rectangle-path" fill="#FFFFFF" x="0" y="0" width="256" height="256"></rect>
                <g id="Slack_Mark" transform="translate(51.000000, 50.000000)">
                    <path d="M100.57561,10.2731707 C98.1658537,3.04390244 90.4292683,-0.887804878 83.2,1.39512195 C75.9707317,3.80487805 72.0390244,11.5414634 74.3219512,18.7707317 L109.960976,128.35122 C112.370732,135.073171 119.726829,138.878049 126.702439,136.84878 C134.058537,134.692683 138.497561,126.956098 136.087805,119.853659 C136.087805,119.6 100.57561,10.2731707 100.57561,10.2731707 Z" id="Shape" fill="#ECB32D"></path>
                    <path d="M45.404878,28.1560976 C42.995122,20.9268293 35.2585366,16.995122 28.0292683,19.2780488 C20.8,21.6878049 16.8682927,29.4243902 19.1512195,36.6536585 L54.7902439,146.234146 C57.2,152.956098 64.5560976,156.760976 71.5317073,154.731707 C78.8878049,152.57561 83.3268293,144.839024 80.9170732,137.736585 C80.9170732,137.482927 45.404878,28.1560976 45.404878,28.1560976 Z" id="Shape" fill="#63C1A0"></path>
                    <path d="M145.473171,100.956098 C152.702439,98.5463415 156.634146,90.8097561 154.35122,83.5804878 C151.941463,76.3512195 144.204878,72.4195122 136.97561,74.702439 L27.2682927,110.468293 C20.5463415,112.878049 16.7414634,120.234146 18.7707317,127.209756 C20.9268293,134.565854 28.6634146,139.004878 35.7658537,136.595122 C36.0195122,136.595122 145.473171,100.956098 145.473171,100.956098 Z" id="Shape" fill="#E01A59"></path>
                    <path d="M50.097561,132.029268 C57.2,129.746341 66.4585366,126.702439 76.3512195,123.531707 C74.0682927,116.429268 71.0243902,107.170732 67.8536585,97.2780488 L41.6,105.77561 L50.097561,132.029268 Z" id="Shape" fill="#331433"></path>
                    <path d="M105.395122,114.019512 C115.287805,110.84878 124.546341,107.804878 131.64878,105.521951 C129.365854,98.4195122 126.321951,89.1609756 123.15122,79.2682927 L96.897561,87.7658537 L105.395122,114.019512 Z" id="Shape" fill="#D62027"></path>
                    <path d="M127.463415,45.7853659 C134.692683,43.3756098 138.62439,35.6390244 136.341463,28.4097561 C133.931707,21.1804878 126.195122,17.2487805 118.965854,19.5317073 L9.38536585,55.1707317 C2.66341463,57.5804878 -1.14146341,64.9365854 0.887804878,71.9121951 C3.04390244,79.2682927 10.7804878,83.7073171 17.8829268,81.297561 C18.1365854,81.297561 127.463415,45.7853659 127.463415,45.7853659 Z" id="Shape" fill="#89D3DF"></path>
                    <path d="M32.2146341,76.7317073 C39.3170732,74.4487805 48.5756098,71.404878 58.4682927,68.2341463 C55.297561,58.3414634 52.2536585,49.0829268 49.9707317,41.9804878 L23.7170732,50.4780488 L32.2146341,76.7317073 Z" id="Shape" fill="#258B74"></path>
                    <path d="M87.3853659,58.8487805 C97.2780488,55.6780488 106.536585,52.6341463 113.639024,50.3512195 C110.468293,40.4585366 107.42439,31.2 105.141463,24.097561 L78.8878049,32.595122 L87.3853659,58.8487805 Z" id="Shape" fill="#819C3C"></path>
                </g>
            </g>
        </g>
    </g>
</svg>