<?xml version="1.0" encoding="utf-8"?>
<!-- Generator: Adobe Illustrator 19.1.0, SVG Export Plug-In . SVG Version: 6.00 Build 0)  -->
<svg version="1.1" id="Layer_1" xmlns="http://www.w3.org/2000/svg" xmlns:xlink="http://www.w3.org/1999/xlink" x="0px" y="0px"
	 viewBox="0 0 256 256" enable-background="new 0 0 256 256" xml:space="preserve">
<g>
	<rect x="0" y="0" fill="#FFFFFF" width="256" height="256"/>
	<path fill="#3DB890" d="M123.3,199.2L123.3,199.2c-6.5,2.2-13.5-1.3-15.7-7.7L73.2,90.1c-2.2-6.5,1.3-13.5,7.7-15.7l0,0
		c6.5-2.2,13.5,1.3,15.7,7.7L131,183.5C133.2,190,129.7,197,123.3,199.2z"/>
	<path fill="#E8A822" d="M175.1,181.5L175.1,181.5c-6.5,2.2-13.5-1.3-15.7-7.7L125,72.5c-2.2-6.5,1.3-13.5,7.7-15.7l0,0
		c6.5-2.2,13.5,1.3,15.7,7.7l34.4,101.3C185,172.3,181.6,179.3,175.1,181.5z"/>
	<path fill="#6FCADC" d="M56.8,123.3L56.8,123.3c-2.2-6.5,1.3-13.5,7.7-15.7l101.3-34.4c6.5-2.2,13.5,1.3,15.7,7.7v0
		c2.2,6.5-1.3,13.5-7.7,15.7L72.5,131C66,133.2,59,129.7,56.8,123.3z"/>
	<path fill="#DF1864" d="M74.5,175.1L74.5,175.1c-2.2-6.5,1.3-13.5,7.7-15.7L183.5,125c6.5-2.2,13.5,1.3,15.7,7.7l0,0
		c2.2,6.5-1.3,13.5-7.7,15.7L90.1,182.8C83.7,185,76.7,181.6,74.5,175.1z"/>
</g>
</svg>
