<?xml version="1.0" encoding="UTF-8"?>
<svg width="256px" height="256px" viewBox="0 0 256 256" version="1.1" xmlns="http://www.w3.org/2000/svg" xmlns:xlink="http://www.w3.org/1999/xlink">
    <!-- Generator: Sketch 56.2 (81672) - https://sketch.com -->
    <title>slack-stepicon</title>
    <desc>Created with Sketch.</desc>
    <g id="New-Icons" stroke="none" stroke-width="1" fill="none" fill-rule="evenodd">
        <g id="Slack" transform="translate(0.000000, 0.000000)" fill-rule="nonzero">
            <g id="slack-stepicon">
                <rect id="Rectangle-path" fill="#FFFFFF" x="0" y="0" width="256" height="256"></rect>
                <g id="Slack_Mark" transform="translate(30.000000, 30.000000)">
                    <g id="Group" transform="translate(0.000000, 103.000000)" fill="#E01E5A">
                        <path d="M41.6135593,20.8067797 C41.6135593,31.9983051 32.4711864,41.140678 21.279661,41.140678 C10.0881356,41.140678 0.945762712,31.9983051 0.945762712,20.8067797 C0.945762712,9.61525424 10.0881356,0.472881356 21.279661,0.472881356 L41.6135593,0.472881356 L41.6135593,20.8067797 Z" id="Path"></path>
                        <path d="M51.859322,20.8067797 C51.859322,9.61525424 61.0016949,0.472881356 72.1932203,0.472881356 C83.3847458,0.472881356 92.5271186,9.61525424 92.5271186,20.8067797 L92.5271186,71.720339 C92.5271186,82.9118644 83.3847458,92.0542373 72.1932203,92.0542373 C61.0016949,92.0542373 51.859322,82.9118644 51.859322,71.720339 L51.859322,20.8067797 Z" id="Path"></path>
                    </g>
                    <g id="Group" fill="#36C5F0">
                        <path d="M72.1932203,41.6135593 C61.0016949,41.6135593 51.859322,32.4711864 51.859322,21.279661 C51.859322,10.0881356 61.0016949,0.945762712 72.1932203,0.945762712 C83.3847458,0.945762712 92.5271186,10.0881356 92.5271186,21.279661 L92.5271186,41.6135593 L72.1932203,41.6135593 Z" id="Path"></path>
                        <path d="M72.1932203,51.859322 C83.3847458,51.859322 92.5271186,61.0016949 92.5271186,72.1932203 C92.5271186,83.3847458 83.3847458,92.5271186 72.1932203,92.5271186 L21.279661,92.5271186 C10.0881356,92.5271186 0.945762712,83.3847458 0.945762712,72.1932203 C0.945762712,61.0016949 10.0881356,51.859322 21.279661,51.859322 L72.1932203,51.859322 Z" id="Path"></path>
                    </g>
                    <g id="Group" transform="translate(103.000000, 0.000000)" fill="#2EB67D">
                        <path d="M51.3864407,72.1932203 C51.3864407,61.0016949 60.5288136,51.859322 71.720339,51.859322 C82.9118644,51.859322 92.0542373,61.0016949 92.0542373,72.1932203 C92.0542373,83.3847458 82.9118644,92.5271186 71.720339,92.5271186 L51.3864407,92.5271186 L51.3864407,72.1932203 Z" id="Path"></path>
                        <path d="M41.140678,72.1932203 C41.140678,83.3847458 31.9983051,92.5271186 20.8067797,92.5271186 C9.61525424,92.5271186 0.472881356,83.3847458 0.472881356,72.1932203 L0.472881356,21.279661 C0.472881356,10.0881356 9.61525424,0.945762712 20.8067797,0.945762712 C31.9983051,0.945762712 41.140678,10.0881356 41.140678,21.279661 L41.140678,72.1932203 Z" id="Path"></path>
                    </g>
                    <g id="Group" transform="translate(103.000000, 103.000000)" fill="#ECB22E">
                        <path d="M20.8067797,51.3864407 C31.9983051,51.3864407 41.140678,60.5288136 41.140678,71.720339 C41.140678,82.9118644 31.9983051,92.0542373 20.8067797,92.0542373 C9.61525424,92.0542373 0.472881356,82.9118644 0.472881356,71.720339 L0.472881356,51.3864407 L20.8067797,51.3864407 Z" id="Path"></path>
                        <path d="M20.8067797,41.140678 C9.61525424,41.140678 0.472881356,31.9983051 0.472881356,20.8067797 C0.472881356,9.61525424 9.61525424,0.472881356 20.8067797,0.472881356 L71.720339,0.472881356 C82.9118644,0.472881356 92.0542373,9.61525424 92.0542373,20.8067797 C92.0542373,31.9983051 82.9118644,41.140678 71.720339,41.140678 L20.8067797,41.140678 Z" id="Path"></path>
                    </g>
                </g>
            </g>
        </g>
    </g>
</svg>