<svg id="Layer_1" data-name="Layer 1" xmlns="http://www.w3.org/2000/svg" viewBox="0 0 256 256"><defs><style>.cls-1{fill:#a4c439;}.cls-2{fill:#75841e;}.cls-3{fill:#fff;}</style></defs><title>icon</title><rect class="cls-1" width="256" height="256"/><path class="cls-2" d="M128,108.21a2.49,2.49,0,0,1-1.72-.69l-24.56-23.3a2.5,2.5,0,1,1,3.44-3.63L128,102.26l22.83-21.67a2.5,2.5,0,1,1,3.44,3.63l-24.55,23.3A2.49,2.49,0,0,1,128,108.21Z"/><path class="cls-2" d="M128,106.21a2.5,2.5,0,0,1-2.5-2.5v-69a2.5,2.5,0,1,1,5,0v69A2.5,2.5,0,0,1,128,106.21Z"/><path class="cls-3" d="M79.09,179.14c11.42,2.49,16.69,6.66,16.69,14.56,0,8.85-7.32,14.56-17.49,14.56a30,30,0,0,1-20.93-8.2l3.59-4.24c5.34,4.83,10.46,7.25,17.56,7.25,6.88,0,11.42-3.59,11.42-8.78,0-4.83-2.56-7.54-13.32-9.81-11.78-2.56-17.2-6.37-17.2-14.86,0-8.2,7.1-14.05,16.83-14.05a26.73,26.73,0,0,1,18,6.29l-3.37,4.46a22.5,22.5,0,0,0-14.78-5.56c-6.66,0-10.9,3.66-10.9,8.34C65.18,174,67.82,176.72,79.09,179.14Z"/><path class="cls-3" d="M122.41,207.53H104.62V156.3h17.78c16.1,0,27.22,11,27.22,25.54S138.5,207.53,122.41,207.53Zm0-45.88h-12v40.54h12c13,0,21.22-8.78,21.22-20.2S135.36,161.65,122.41,161.65Z"/><path class="cls-3" d="M202.53,207.53h-7.25L175.6,182.72l-10.9,11.05v13.76h-5.78V156.3h5.78v30.59l29.42-30.59h7.46l-22,22.39Z"/><path class="cls-2" d="M194,133.32H62a2.5,2.5,0,0,1-2.5-2.5V92.72a2.5,2.5,0,0,1,5,0v35.59h127V92.72a2.5,2.5,0,1,1,5,0v38.09A2.5,2.5,0,0,1,194,133.32Z"/></svg>