<?xml version="1.0" encoding="UTF-8"?>
<svg xmlns="http://www.w3.org/2000/svg" xmlns:xlink="http://www.w3.org/1999/xlink" version="1.1" viewBox="0 0 256 256">
  <!-- Generator: Adobe Illustrator 30.2.1, SVG Export Plug-In . SVG Version: 2.1.1 Build 1)  -->
  <defs>
    <style>
      .st0 {
        fill: url(#linear-gradient);
      }

      .st1, .st2, .st3, .st4, .st5 {
        isolation: isolate;
      }

      .st2 {
        fill: url(#linear-gradient3);
      }

      .st2, .st3, .st4, .st5 {
        mix-blend-mode: multiply;
      }

      .st3 {
        fill: url(#linear-gradient4);
      }

      .st4 {
        fill: url(#linear-gradient5);
      }

      .st5 {
        fill: url(#linear-gradient2);
      }

      .st6 {
        fill: url(#linear-gradient1);
        fill-rule: evenodd;
      }
    </style>
    <linearGradient id="linear-gradient" x1="-167.8" y1="553.2" x2="-167.8" y2="552.2" gradientTransform="translate(43095 141628.8) scale(256 -256)" gradientUnits="userSpaceOnUse">
      <stop offset="0" stop-color="#54c3fa"/>
      <stop offset="1" stop-color="#1586f5"/>
    </linearGradient>
    <linearGradient id="linear-gradient1" x1="-166.1" y1="552.9" x2="-165.2" y2="551.9" gradientTransform="translate(-14368.8 121575) rotate(15) scale(104.9 -219)" gradientUnits="userSpaceOnUse">
      <stop offset="0" stop-color="#fff"/>
      <stop offset="1" stop-color="#fff" stop-opacity="0"/>
    </linearGradient>
    <linearGradient id="linear-gradient2" x1="61.5" y1="214" x2="98.8" y2="34.6" gradientUnits="userSpaceOnUse">
      <stop offset="0" stop-color="#135ea7" stop-opacity=".9"/>
      <stop offset="1" stop-color="#1e568f"/>
    </linearGradient>
    <linearGradient id="linear-gradient3" x1="172.4" y1="182.5" x2="195.1" y2="73.2" xlink:href="#linear-gradient2"/>
    <linearGradient id="linear-gradient4" x1="73.6" y1="156.8" x2="85.6" y2="98.8" xlink:href="#linear-gradient2"/>
    <linearGradient id="linear-gradient5" x1="177.6" y1="145.7" x2="184.6" y2="112.1" xlink:href="#linear-gradient2"/>
  </defs>
  <g class="st1">
    <g id="Layer_1">
      <rect class="st0" y="0" width="256" height="256"/>
      <path class="st6" d="M172.7,51.8c5.6,1.7,7.6,7.1,7.7,7.2l11.6,3.1c2.2-8.2,6.4-24,7.1-26.4l-11.6-3.1c-3.6,1.6-5.1,2.7-9.2,1.8-6.4-1.4-5.2-7.4-27.1-13.2s-45.2-1.2-58.9,7.8c2.8,0,4.3-.1,6.5-.6,14-3,26.2-1,33.3,8.9,8.2,11.5,5.5,32.3-4,61.5-8.3,25.5-18.5,52.8-39.9,121.3-1.5,4.8.9,11.2,10.9,13.9,7.4,2,13.9-2.1,15.1-6.9,7.6-28.5,18.4-79.7,28.7-124.3,7.2-31.1,10.4-56.8,29.7-51Z"/>
      <g>
        <path class="st5" d="M113.9,36.5H44.8c-6.9,0-12.5,5.2-12.5,11.6v159.7c0,6.4,5.6,11.6,12.5,11.6h69.1c6.9,0,12.5-5.2,12.5-11.6V48.1c0-6.4-5.6-11.6-12.5-11.6ZM117.4,201.9c0,4.2-3.4,7.6-7.6,7.6h-60.8c-4.2,0-7.6-3.4-7.6-7.6V53.1c0-4.2,3.4-7.6,7.6-7.6h8c.6,0,1.1.5,1.1,1.1v5.7c0,2.3,1.9,4.2,4.2,4.2h34.2c2.3,0,4.2-1.9,4.2-4.2v-6.1c.1-.4.5-.7,1-.7h8c4.2,0,7.6,3.4,7.6,7.6v148.9Z"/>
        <path class="st2" d="M219.5,117.5h-2.7c-.5,0-.9-.4-.9-.9v-2.4c0-7.6-4.1-14.3-10.2-17.9l-7.5-17.5c-2.1-4.9-7-8.1-12.3-8.1h-10c-5.3,0-10.2,3.2-12.3,8.1l-7.5,17.3c-6.4,3.6-10.7,10.4-10.7,18.2v30.9c0,7.9,4.4,14.7,10.8,18.3l7.2,16.9c2.1,4.9,7,8.1,12.3,8.1h10c5.3,0,10.2-3.2,12.3-8.1l7.5-17.3c6.2-3.6,10.3-10.3,10.3-18v-4.8c0-.5.4-.9.9-.9h2.7c2.3,0,4.1-1.8,4.1-4.1v-13.7c0-2.3-1.8-4.1-4.1-4.1ZM167.9,92l4.2-9.6c.7-1.5,2.2-2.5,3.9-2.5h10c1.7,0,3.2,1,3.9,2.6l4.1,9.6c.3.6-.2,1.3-.8,1.3h-24.4c-.7,0-1.1-.7-.8-1.3ZM193.8,167.4l-4.1,9.4c-.7,1.5-2.2,2.5-3.9,2.5h-10c-1.7,0-3.2-1-3.9-2.6l-4-9.4c-.3-.6.2-1.3.8-1.3h24.2c.7,0,1.1.7.8,1.3ZM206.8,145.1c0,6.5-5.3,11.8-11.8,11.8h-28.6c-6.5,0-11.8-5.3-11.8-11.8v-30.9c0-6.5,5.3-11.8,11.8-11.8h28.6c6.5,0,11.8,5.3,11.8,11.8v30.9Z"/>
        <path class="st3" d="M92,100h-25.3c-9,0-16.4,7.3-16.4,16.4v25.3c0,9,7.3,16.4,16.4,16.4h25.3c3.8,0,7.4-1.3,10.2-3.6l.2.2,2.6-2.6-.2-.2c2.2-2.8,3.6-6.3,3.6-10.2v-25.3c0-9-7.3-16.4-16.4-16.4ZM66.7,110h25.3c1.2,0,2.4.4,3.4,1l-8,8c-2.1-1.5-4.7-2.4-7.6-2.4s-5.6,1-7.8,2.6l-8.3-8.3c.9-.5,1.9-.7,3-.7ZM77.1,129.3l-3.4,3.4c-.5-1-.8-2.1-.8-3.2s.3-2.4.9-3.5l3.3,3.3ZM76.4,123.4c1-.6,2.2-.9,3.5-.9s2.3.3,3.2.8l-3.4,3.4-3.3-3.3ZM79.7,132l3.6,3.6c-1,.6-2.2.9-3.5.9s-2.6-.4-3.7-1l3.5-3.5ZM82.3,129.3l3.5-3.5c.7,1.1,1,2.3,1,3.7s-.3,2.4-.9,3.5l-3.6-3.6ZM60.4,141.7v-25.3c0-1.1.3-2.1.7-3l8.3,8.3c-1.6,2.2-2.6,4.9-2.6,7.8s.9,5.4,2.4,7.6l-8,8c-.6-1-1-2.1-1-3.4ZM92,148h-25.3c-.9,0-1.8-.2-2.6-.5l7.7-7.7c2.2,1.7,5,2.7,8,2.7s5.6-1,7.8-2.6l7.3,7.3c-.9.5-1.9.7-3,.7ZM98.4,141.7c0,1.1-.3,2.1-.7,3l-7.3-7.3c1.6-2.2,2.6-4.9,2.6-7.8s-1-5.8-2.7-8l7.7-7.7c.3.8.5,1.6.5,2.6v25.3Z"/>
        <path class="st4" d="M188.3,112.8h-14.7c-5.2,0-9.5,4.3-9.5,9.5v14.7c0,5.2,4.3,9.5,9.5,9.5h14.7c2.2,0,4.3-.8,5.9-2.1h.1c0,.1,1.5-1.4,1.5-1.4h-.1c1.3-1.7,2.1-3.8,2.1-6v-14.7c0-5.2-4.2-9.5-9.5-9.5ZM173.6,118.6h14.7c.7,0,1.4.2,2,.6l-4.6,4.6c-1.2-.9-2.8-1.4-4.4-1.4s-3.3.6-4.5,1.5l-4.8-4.8c.5-.3,1.1-.4,1.7-.4ZM179.6,129.8l-2,2c-.3-.6-.5-1.2-.5-1.9s.2-1.4.5-2l1.9,1.9ZM179.2,126.3c.6-.3,1.3-.5,2-.5s1.3.2,1.9.5l-2,2-1.9-1.9ZM181.1,131.3l2.1,2.1c-.6.3-1.3.5-2,.5s-1.5-.2-2.1-.6l2-2ZM182.6,129.8l2-2c.4.6.6,1.4.6,2.1s-.2,1.4-.5,2l-2.1-2.1ZM169.9,136.9v-14.7c0-.6.2-1.2.4-1.7l4.8,4.8c-.9,1.3-1.5,2.8-1.5,4.5s.5,3.2,1.4,4.4l-4.6,4.6c-.4-.6-.6-1.2-.6-2ZM188.3,140.6h-14.7c-.5,0-1-.1-1.5-.3l4.5-4.5c1.3,1,2.9,1.6,4.6,1.6s3.3-.6,4.5-1.5l4.3,4.3c-.5.3-1.1.4-1.7.4ZM192,136.9c0,.6-.2,1.2-.4,1.7l-4.3-4.3c.9-1.3,1.5-2.8,1.5-4.5s-.6-3.4-1.6-4.6l4.5-4.5c.2.5.3,1,.3,1.5v14.7Z"/>
      </g>
    </g>
  </g>
</svg>