<svg width="256" height="256" viewBox="0 0 256 256" fill="none" xmlns="http://www.w3.org/2000/svg">
<rect width="256" height="256" fill="url(#paint0_linear_5779_109)"/>
<path d="M86.1268 95.2483C86.1268 97.6119 86.3823 99.5284 86.8295 100.934C87.3405 102.339 87.9793 103.872 88.8737 105.533C89.1931 106.044 89.3208 106.555 89.3208 107.003C89.3208 107.641 88.9375 108.28 88.1071 108.919L84.0825 111.602C83.5076 111.985 82.9327 112.177 82.4216 112.177C81.7828 112.177 81.144 111.858 80.5052 111.283C79.6108 110.324 78.8443 109.302 78.2054 108.28C77.5666 107.194 76.9278 105.98 76.2251 104.511C71.2424 110.388 64.982 113.327 57.444 113.327C52.0779 113.327 47.7979 111.794 44.6677 108.727C41.5375 105.661 39.9404 101.573 39.9404 96.4621C39.9404 91.0321 41.8569 86.6243 45.7536 83.3025C49.6504 79.9806 54.8248 78.3197 61.4046 78.3197C63.5766 78.3197 65.8124 78.5114 68.1761 78.8308C70.5397 79.1502 72.9672 79.6612 75.5224 80.2362V75.5728C75.5224 70.7178 74.5003 67.3321 72.52 65.3518C70.4758 63.3714 67.0262 62.4132 62.1073 62.4132C59.8715 62.4132 57.5717 62.6687 55.2081 63.2437C52.8445 63.8186 50.5448 64.5213 48.3089 65.4157C47.2868 65.8628 46.5202 66.1183 46.0731 66.2461C45.6259 66.3739 45.3065 66.4378 45.0509 66.4378C44.1566 66.4378 43.7094 65.7989 43.7094 64.4574V61.3272C43.7094 60.3051 43.8372 59.5386 44.1566 59.0914C44.476 58.6442 45.0509 58.197 45.9453 57.7499C48.1811 56.6 50.8642 55.6418 53.9944 54.8752C57.1246 54.0447 60.4464 53.6615 63.9599 53.6615C71.5618 53.6615 77.1195 55.3863 80.6968 58.8359C84.2103 62.2855 85.999 67.5237 85.999 74.5507V95.2483H86.1268ZM60.1909 104.958C62.299 104.958 64.4709 104.575 66.7707 103.808C69.0704 103.042 71.1146 101.636 72.8394 99.72C73.8615 98.5063 74.6281 97.1648 75.0114 95.6316C75.3947 94.0985 75.6502 92.2459 75.6502 90.0739V87.3909C73.7976 86.9437 71.8173 86.5604 69.7731 86.3049C67.7289 86.0494 65.7486 85.9216 63.7682 85.9216C59.4882 85.9216 56.358 86.7521 54.2499 88.4769C52.1418 90.2017 51.1197 92.6292 51.1197 95.8233C51.1197 98.8257 51.8863 101.062 53.4833 102.595C55.0165 104.192 57.2523 104.958 60.1909 104.958ZM111.488 111.858C110.338 111.858 109.571 111.666 109.06 111.219C108.549 110.835 108.102 109.941 107.719 108.727L92.7065 59.3469C92.3233 58.0693 92.1316 57.2388 92.1316 56.7916C92.1316 55.7695 92.6427 55.1946 93.6648 55.1946H99.9252C101.139 55.1946 101.969 55.3863 102.417 55.8334C102.928 56.2167 103.311 57.1111 103.694 58.3248L114.426 100.614L124.392 58.3248C124.711 57.0472 125.094 56.2167 125.606 55.8334C126.117 55.4501 127.011 55.1946 128.161 55.1946H133.271C134.485 55.1946 135.316 55.3863 135.827 55.8334C136.338 56.2167 136.785 57.1111 137.04 58.3248L147.134 101.125L158.185 58.3248C158.568 57.0472 159.016 56.2167 159.463 55.8334C159.974 55.4501 160.804 55.1946 161.954 55.1946H167.895C168.917 55.1946 169.492 55.7057 169.492 56.7916C169.492 57.1111 169.428 57.4305 169.364 57.8138C169.3 58.197 169.173 58.7081 168.917 59.4108L153.522 108.791C153.138 110.069 152.691 110.899 152.18 111.283C151.669 111.666 150.839 111.921 149.753 111.921H144.259C143.045 111.921 142.215 111.73 141.704 111.283C141.193 110.835 140.745 110.005 140.49 108.727L130.588 67.5237L120.751 108.663C120.431 109.941 120.048 110.772 119.537 111.219C119.026 111.666 118.131 111.858 116.982 111.858H111.488ZM193.575 113.582C190.254 113.582 186.932 113.199 183.738 112.432C180.544 111.666 178.052 110.835 176.391 109.877C175.369 109.302 174.667 108.663 174.411 108.089C174.155 107.514 174.028 106.875 174.028 106.3V103.042C174.028 101.7 174.539 101.062 175.497 101.062C175.88 101.062 176.264 101.125 176.647 101.253C177.03 101.381 177.605 101.636 178.244 101.892C180.416 102.85 182.779 103.617 185.271 104.128C187.826 104.639 190.317 104.894 192.873 104.894C196.897 104.894 200.027 104.192 202.199 102.786C204.371 101.381 205.521 99.3367 205.521 96.7176C205.521 94.9289 204.946 93.4596 203.796 92.2459C202.647 91.0321 200.475 89.9462 197.344 88.9241L188.082 86.0494C183.418 84.5801 179.969 82.4081 177.861 79.5335C175.752 76.7227 174.667 73.5925 174.667 70.2706C174.667 67.5876 175.241 65.224 176.391 63.1798C177.541 61.1356 179.074 59.3469 180.991 57.9415C182.907 56.4722 185.079 55.3863 187.634 54.6197C190.19 53.8531 192.873 53.5337 195.684 53.5337C197.089 53.5337 198.558 53.5976 199.964 53.7892C201.433 53.9809 202.774 54.2364 204.116 54.4919C205.394 54.8113 206.607 55.1307 207.757 55.514C208.907 55.8973 209.801 56.2806 210.44 56.6639C211.334 57.1749 211.973 57.686 212.357 58.2609C212.74 58.772 212.932 59.4747 212.932 60.369V63.3714C212.932 64.713 212.42 65.4157 211.462 65.4157C210.951 65.4157 210.121 65.1601 209.035 64.6491C205.393 62.9882 201.305 62.1577 196.77 62.1577C193.128 62.1577 190.254 62.7326 188.273 63.9464C186.293 65.1601 185.271 67.0127 185.271 69.6318C185.271 71.4205 185.91 72.9537 187.187 74.1674C188.465 75.3812 190.829 76.5949 194.214 77.6809L203.285 80.5556C207.885 82.0248 211.207 84.0691 213.187 86.6882C215.167 89.3073 216.126 92.3098 216.126 95.6316C216.126 98.3785 215.551 100.87 214.465 103.042C213.315 105.214 211.782 107.13 209.801 108.663C207.821 110.26 205.457 111.41 202.71 112.241C199.836 113.135 196.833 113.582 193.575 113.582Z" fill="white"/>
<path fill-rule="evenodd" clip-rule="evenodd" d="M205.65 144.629C184.633 160.153 154.098 168.393 127.843 168.393C91.047 168.393 57.8925 154.786 32.8509 132.172C30.8706 130.384 32.6593 127.956 35.0229 129.362C62.1086 145.076 95.5187 154.595 130.079 154.595C153.395 154.595 179.012 149.74 202.584 139.774C206.098 138.177 209.1 142.074 205.65 144.629Z" fill="white"/>
<path fill-rule="evenodd" clip-rule="evenodd" d="M214.402 134.663C211.719 131.213 196.643 133.002 189.808 133.832C187.763 134.088 187.444 132.299 189.297 130.958C201.306 122.525 221.046 124.953 223.345 127.764C225.645 130.638 222.707 150.378 211.463 159.832C209.739 161.302 208.078 160.535 208.844 158.619C211.4 152.294 217.085 138.049 214.402 134.663Z" fill="white"/>
<g style="mix-blend-mode:multiply">
<path d="M209.666 152.246L200.209 161.724L178.187 139.656L178.188 197.194H164.812L164.812 139.656L142.791 161.724L133.334 152.246L171.5 114L209.666 152.246Z" fill="#005FBE"/>
<path d="M118 190.492V210.597C118 217.999 123.988 224 131.375 224H211.625C219.012 224 225 217.999 225 210.597V190.492H211.625V210.597H131.375V190.492H118Z" fill="#005FBE"/>
</g>
<defs>
<linearGradient id="paint0_linear_5779_109" x1="261" y1="-18" x2="-11.5" y2="279" gradientUnits="userSpaceOnUse">
<stop stop-color="#FF9900"/>
<stop offset="1" stop-color="#FFB766"/>
</linearGradient>
</defs>
</svg>
