<?xml version="1.0" encoding="UTF-8" standalone="no"?>
<!DOCTYPE svg PUBLIC "-//W3C//DTD SVG 1.1//EN" "http://www.w3.org/Graphics/SVG/1.1/DTD/svg11.dtd">
<svg width="100%" height="100%" viewBox="0 0 256 256" version="1.1" xmlns="http://www.w3.org/2000/svg" xmlns:xlink="http://www.w3.org/1999/xlink" xml:space="preserve" xmlns:serif="http://www.serif.com/" style="fill-rule:evenodd;clip-rule:evenodd;stroke-miterlimit:1.5;">
    <g id="Icon">
        <rect id="Background" x="0" y="0" width="256" height="256" style="fill:rgb(0,82,204);"/>
        <g id="Logo" transform="matrix(1,0,0,1,0.00620767,5.84521)">
            <g id="Step-transformation" serif:id="Step transformation" transform="matrix(1.41631,0,0,1.41631,-53.2936,-23.4629)">
                <g id="Moved-step" serif:id="Moved step" transform="matrix(0.706061,0,0,0.988486,37.6015,1.71975)">
                    <g id="Background1" serif:id="Background" transform="matrix(1.04722,0,0,1.03823,68.3967,39.1053)">
                        <path d="M121.88,67.895C121.88,67.045 120.922,66.354 119.741,66.354L66.725,66.354C65.544,66.354 64.586,67.045 64.586,67.895L64.586,103.34C64.586,104.191 65.544,104.881 66.725,104.881L119.741,104.881C120.922,104.881 121.88,104.191 121.88,103.34L121.88,67.895Z" style="fill:white;"/>
                        <path d="M119.797,66.355L119.851,66.356L119.906,66.359L119.96,66.362L120.014,66.367L120.067,66.372L120.12,66.378L120.172,66.386L120.224,66.394L120.276,66.403L120.327,66.413L120.377,66.424L120.427,66.435L120.477,66.448L120.525,66.461L120.574,66.476L120.621,66.491L120.668,66.506L120.715,66.523L120.761,66.541L120.806,66.559L120.85,66.578L120.894,66.597L120.937,66.618L120.979,66.639L121.021,66.661L121.062,66.683L121.102,66.706L121.141,66.73L121.179,66.755L121.217,66.78L121.254,66.806L121.289,66.832L121.324,66.86L121.358,66.887L121.392,66.915L121.424,66.944L121.455,66.974L121.486,67.004L121.515,67.034L121.543,67.065L121.571,67.097L121.597,67.129L121.622,67.161L121.646,67.194L121.669,67.228L121.691,67.262L121.712,67.296L121.732,67.331L121.75,67.366L121.768,67.401L121.784,67.437L121.799,67.474L121.813,67.511L121.826,67.548L121.837,67.585L121.847,67.623L121.856,67.661L121.863,67.699L121.869,67.738L121.874,67.777L121.878,67.816L121.88,67.856L121.88,67.895L121.88,103.34L121.88,103.38L121.878,103.42L121.874,103.459L121.869,103.498L121.863,103.537L121.856,103.575L121.847,103.613L121.837,103.651L121.826,103.688L121.813,103.725L121.799,103.762L121.784,103.798L121.768,103.834L121.75,103.87L121.732,103.905L121.712,103.94L121.691,103.974L121.669,104.008L121.646,104.042L121.622,104.075L121.597,104.107L121.571,104.139L121.543,104.171L121.515,104.202L121.486,104.232L121.455,104.262L121.424,104.292L121.392,104.32L121.358,104.349L121.324,104.376L121.289,104.403L121.254,104.43L121.217,104.456L121.179,104.481L121.141,104.506L121.102,104.529L121.062,104.553L121.021,104.575L120.979,104.597L120.937,104.618L120.894,104.639L120.85,104.658L120.806,104.677L120.761,104.695L120.715,104.713L120.668,104.729L120.621,104.745L120.574,104.76L120.525,104.775L120.477,104.788L120.427,104.8L120.377,104.812L120.327,104.823L120.276,104.833L120.224,104.842L120.172,104.85L120.12,104.857L120.067,104.864L120.014,104.869L119.96,104.874L119.906,104.877L119.851,104.879L119.797,104.881L119.741,104.881L66.725,104.881L66.67,104.881L66.615,104.879L66.56,104.877L66.506,104.874L66.453,104.869L66.399,104.864L66.346,104.857L66.294,104.85L66.242,104.842L66.19,104.833L66.139,104.823L66.089,104.812L66.039,104.8L65.99,104.788L65.941,104.775L65.893,104.76L65.845,104.745L65.798,104.729L65.751,104.713L65.706,104.695L65.66,104.677L65.616,104.658L65.572,104.639L65.529,104.618L65.487,104.597L65.445,104.575L65.405,104.553L65.365,104.529L65.325,104.506L65.287,104.481L65.249,104.456L65.213,104.43L65.177,104.403L65.142,104.376L65.108,104.349L65.074,104.32L65.042,104.292L65.011,104.262L64.981,104.232L64.951,104.202L64.923,104.171L64.896,104.139L64.869,104.107L64.844,104.075L64.82,104.042L64.797,104.008L64.775,103.974L64.754,103.94L64.734,103.905L64.716,103.87L64.698,103.834L64.682,103.798L64.667,103.762L64.653,103.725L64.641,103.688L64.629,103.651L64.619,103.613L64.61,103.575L64.603,103.537L64.597,103.498L64.592,103.459L64.589,103.42L64.586,103.38L64.586,103.34L64.586,67.895L64.586,67.856L64.589,67.816L64.592,67.777L64.597,67.738L64.603,67.699L64.61,67.661L64.619,67.623L64.629,67.585L64.641,67.548L64.653,67.511L64.667,67.474L64.682,67.437L64.698,67.401L64.716,67.366L64.734,67.331L64.754,67.296L64.775,67.262L64.797,67.228L64.82,67.194L64.844,67.161L64.869,67.129L64.896,67.097L64.923,67.065L64.951,67.034L64.981,67.004L65.011,66.974L65.042,66.944L65.074,66.915L65.108,66.887L65.142,66.86L65.177,66.832L65.213,66.806L65.249,66.78L65.287,66.755L65.325,66.73L65.365,66.706L65.405,66.683L65.445,66.661L65.487,66.639L65.529,66.618L65.572,66.597L65.616,66.578L65.66,66.559L65.706,66.541L65.751,66.523L65.798,66.506L65.845,66.491L65.893,66.476L65.941,66.461L65.99,66.448L66.039,66.435L66.089,66.424L66.139,66.413L66.19,66.403L66.242,66.394L66.294,66.386L66.346,66.378L66.399,66.372L66.453,66.367L66.506,66.362L66.56,66.359L66.615,66.356L66.67,66.355L66.725,66.354L119.741,66.354L119.797,66.355ZM66.737,67.73L66.718,67.731L66.712,67.731L66.705,67.731L66.699,67.731L66.694,67.732L66.688,67.732L66.682,67.733L66.677,67.734L66.672,67.735L66.667,67.736L66.662,67.737L66.657,67.738L66.652,67.739L66.647,67.74L66.642,67.741L66.637,67.743L66.632,67.744L66.627,67.746L66.622,67.748L66.618,67.75L66.613,67.751L66.608,67.754L66.603,67.756L66.599,67.758L66.594,67.76L66.589,67.763L66.585,67.765L66.58,67.768L66.576,67.77L66.572,67.773L66.567,67.776L66.563,67.779L66.559,67.782L66.555,67.785L66.551,67.788L66.547,67.791L66.544,67.795L66.54,67.798L66.537,67.801L66.534,67.805L66.531,67.808L66.528,67.811L66.525,67.815L66.522,67.818L66.52,67.822L66.517,67.825L66.515,67.829L66.513,67.832L66.511,67.836L66.509,67.839L66.507,67.843L66.506,67.846L66.504,67.85L66.503,67.854L66.502,67.857L66.5,67.861L66.499,67.865L66.498,67.869L66.498,67.873L66.497,67.877L66.496,67.882L66.496,67.886L66.496,67.891L66.496,67.904L66.496,103.332L66.496,103.345L66.496,103.354L66.498,103.367L66.502,103.378L66.506,103.389L66.511,103.4L66.517,103.411L66.525,103.421L66.534,103.431L66.544,103.441L66.555,103.451L66.567,103.46L66.58,103.468L66.594,103.476L66.608,103.482L66.622,103.488L66.637,103.493L66.652,103.497L66.667,103.5L66.682,103.503L66.699,103.505L66.712,103.505L66.718,103.505L66.737,103.506L119.729,103.506L119.748,103.505L119.754,103.505L119.761,103.505L119.767,103.505L119.772,103.504L119.778,103.503L119.784,103.503L119.789,103.502L119.794,103.501L119.799,103.5L119.805,103.499L119.809,103.498L119.814,103.497L119.819,103.496L119.824,103.495L119.829,103.493L119.834,103.492L119.839,103.49L119.844,103.488L119.849,103.486L119.853,103.484L119.858,103.482L119.863,103.48L119.867,103.478L119.872,103.476L119.877,103.473L119.881,103.471L119.886,103.468L119.89,103.465L119.895,103.463L119.899,103.46L119.903,103.457L119.907,103.454L119.911,103.451L119.915,103.448L119.919,103.444L119.922,103.441L119.926,103.438L119.929,103.435L119.932,103.431L119.936,103.428L119.938,103.424L119.941,103.421L119.944,103.418L119.946,103.414L119.949,103.411L119.951,103.407L119.953,103.404L119.955,103.4L119.957,103.397L119.959,103.393L119.96,103.389L119.962,103.386L119.963,103.382L119.965,103.378L119.966,103.375L119.967,103.371L119.968,103.367L119.968,103.363L119.969,103.359L119.97,103.354L119.97,103.35L119.97,103.345L119.971,103.332L119.971,67.904L119.97,67.891L119.97,67.886L119.97,67.881L119.969,67.877L119.968,67.873L119.968,67.869L119.967,67.865L119.966,67.861L119.965,67.857L119.963,67.854L119.962,67.85L119.96,67.846L119.959,67.843L119.957,67.839L119.955,67.836L119.953,67.832L119.951,67.829L119.949,67.825L119.946,67.822L119.944,67.818L119.941,67.815L119.938,67.811L119.935,67.808L119.932,67.805L119.929,67.801L119.926,67.798L119.922,67.795L119.919,67.791L119.915,67.788L119.911,67.785L119.907,67.782L119.903,67.779L119.899,67.776L119.895,67.773L119.89,67.77L119.886,67.768L119.881,67.765L119.877,67.763L119.872,67.76L119.867,67.758L119.863,67.756L119.858,67.754L119.853,67.751L119.849,67.75L119.844,67.748L119.839,67.746L119.834,67.744L119.829,67.743L119.824,67.741L119.819,67.74L119.814,67.739L119.809,67.738L119.805,67.737L119.799,67.736L119.794,67.735L119.789,67.734L119.784,67.733L119.778,67.732L119.772,67.732L119.767,67.731L119.761,67.731L119.755,67.731L119.748,67.731L119.729,67.73L66.737,67.73Z" style="fill:white;"/>
                    </g>
                    <g id="Description" transform="matrix(1.06791,0,0,2.28819,81.4384,74.5248)">
                        <path d="M103.561,21.271C103.561,21.05 103.024,20.871 102.363,20.871L56.066,20.871C55.405,20.871 54.868,21.05 54.868,21.271L54.868,30.461C54.868,30.681 55.405,30.86 56.066,30.86L102.363,30.86C103.024,30.86 103.561,30.681 103.561,30.461L103.561,21.271Z" style="fill:rgb(193,199,208);"/>
                    </g>
                    <g id="State" transform="matrix(1.88887,0,0,1.34919,-198.243,-12.6866)">
                        <circle cx="205.031" cy="94.743" r="1.588" style="fill:rgb(54,179,126);"/>
                    </g>
                    <g id="Summary" transform="matrix(0.862541,0,0,0.85807,92.7065,92.9446)">
                        <path d="M103.561,21.271C103.561,21.05 103.312,20.871 103.005,20.871L55.424,20.871C55.117,20.871 54.868,21.05 54.868,21.271L54.868,30.461C54.868,30.681 55.117,30.86 55.424,30.86L103.005,30.86C103.312,30.86 103.561,30.681 103.561,30.461L103.561,21.271Z" style="fill:rgb(23,43,77);"/>
                    </g>
                </g>
                <g id="Ghost-step" serif:id="Ghost step" transform="matrix(0.739401,0,0,1.02628,32.2331,40.3748)">
                    <path d="M121.88,67.895C121.88,67.045 120.922,66.354 119.741,66.354L66.725,66.354C65.544,66.354 64.586,67.045 64.586,67.895L64.586,103.34C64.586,104.191 65.544,104.881 66.725,104.881L119.741,104.881C120.922,104.881 121.88,104.191 121.88,103.34L121.88,67.895Z" style="fill:white;fill-opacity:0;"/>
                    <path d="M66.496,103.332L66.496,103.345L66.496,103.354L66.498,103.367L66.502,103.379L66.506,103.39L66.511,103.4L66.517,103.411L66.525,103.421L66.534,103.431L66.544,103.441L66.555,103.451L66.567,103.46L66.58,103.468L66.594,103.476L66.608,103.482L66.622,103.488L66.637,103.493L66.652,103.497L66.667,103.5L66.682,103.503L66.699,103.505L66.712,103.505L66.718,103.505L66.737,103.506L70.93,103.506L70.93,104.881L66.725,104.881L66.67,104.881L66.615,104.879L66.56,104.877L66.506,104.874L66.453,104.869L66.399,104.864L66.346,104.857L66.294,104.85L66.242,104.842L66.19,104.833L66.139,104.823L66.089,104.812L66.039,104.8L65.99,104.788L65.941,104.775L65.893,104.76L65.845,104.745L65.798,104.729L65.751,104.713L65.706,104.695L65.66,104.677L65.616,104.658L65.572,104.639L65.529,104.618L65.487,104.597L65.445,104.575L65.405,104.553L65.365,104.529L65.325,104.506L65.287,104.481L65.249,104.456L65.213,104.43L65.177,104.403L65.142,104.376L65.108,104.349L65.074,104.32L65.042,104.292L65.011,104.262L64.981,104.232L64.951,104.202L64.923,104.171L64.896,104.139L64.869,104.107L64.844,104.075L64.82,104.042L64.797,104.008L64.775,103.974L64.754,103.94L64.734,103.905L64.716,103.87L64.698,103.834L64.682,103.798L64.667,103.762L64.653,103.725L64.641,103.688L64.629,103.651L64.619,103.613L64.61,103.575L64.603,103.537L64.597,103.498L64.592,103.459L64.589,103.42L64.586,103.38L64.586,103.34L64.586,101.911L66.496,101.911L66.496,103.332ZM84.299,104.881L74.75,104.881L74.75,103.506L84.299,103.506L84.299,104.881ZM97.668,104.881L88.119,104.881L88.119,103.506L97.668,103.506L97.668,104.881ZM111.037,104.881L101.487,104.881L101.487,103.506L111.037,103.506L111.037,104.881ZM121.88,103.34L121.88,103.38L121.878,103.42L121.874,103.459L121.869,103.498L121.863,103.537L121.856,103.575L121.847,103.613L121.837,103.651L121.826,103.688L121.813,103.725L121.799,103.762L121.784,103.798L121.768,103.834L121.75,103.87L121.732,103.905L121.712,103.94L121.691,103.974L121.669,104.008L121.646,104.042L121.622,104.075L121.597,104.107L121.571,104.139L121.543,104.171L121.515,104.202L121.486,104.232L121.455,104.262L121.424,104.292L121.392,104.32L121.358,104.349L121.324,104.376L121.289,104.403L121.254,104.43L121.217,104.456L121.179,104.481L121.141,104.506L121.102,104.529L121.062,104.553L121.021,104.575L120.979,104.597L120.937,104.618L120.894,104.639L120.85,104.658L120.806,104.677L120.761,104.695L120.715,104.713L120.668,104.729L120.621,104.745L120.574,104.76L120.525,104.775L120.477,104.788L120.427,104.8L120.377,104.812L120.327,104.823L120.276,104.833L120.224,104.842L120.172,104.85L120.12,104.857L120.067,104.864L120.014,104.869L119.96,104.874L119.906,104.877L119.851,104.879L119.797,104.881L119.741,104.881L114.856,104.881L114.856,103.506L119.729,103.506L119.748,103.505L119.754,103.505L119.761,103.505L119.767,103.505L119.772,103.504L119.778,103.503L119.784,103.503L119.789,103.502L119.794,103.501L119.799,103.5L119.805,103.499L119.809,103.498L119.814,103.497L119.819,103.496L119.824,103.495L119.829,103.493L119.834,103.492L119.839,103.49L119.844,103.488L119.849,103.486L119.853,103.484L119.858,103.482L119.863,103.48L119.868,103.478L119.872,103.476L119.877,103.473L119.881,103.471L119.886,103.468L119.89,103.465L119.895,103.463L119.899,103.46L119.903,103.457L119.907,103.454L119.911,103.451L119.915,103.448L119.919,103.445L119.922,103.441L119.926,103.438L119.929,103.435L119.932,103.431L119.936,103.428L119.938,103.424L119.941,103.421L119.944,103.418L119.947,103.414L119.949,103.411L119.951,103.407L119.953,103.404L119.955,103.4L119.957,103.397L119.959,103.393L119.96,103.389L119.962,103.386L119.963,103.382L119.965,103.378L119.966,103.375L119.967,103.371L119.968,103.367L119.968,103.363L119.969,103.359L119.97,103.354L119.97,103.35L119.97,103.345L119.971,103.332L119.971,102.401L121.88,102.401L121.88,103.34ZM121.88,99.649L119.971,99.649L119.971,92.769L121.88,92.769L121.88,99.649ZM66.496,99.159L64.586,99.159L64.586,92.28L66.496,92.28L66.496,99.159ZM121.88,90.017L119.971,90.017L119.971,83.137L121.88,83.137L121.88,90.017ZM66.496,89.528L64.586,89.528L64.586,82.648L66.496,82.648L66.496,89.528ZM121.88,80.385L119.971,80.385L119.971,73.506L121.88,73.506L121.88,80.385ZM66.496,79.896L64.586,79.896L64.586,73.016L66.496,73.016L66.496,79.896ZM119.797,66.355L119.851,66.356L119.906,66.359L119.96,66.362L120.014,66.367L120.067,66.372L120.12,66.378L120.172,66.386L120.224,66.394L120.276,66.403L120.327,66.413L120.377,66.424L120.427,66.435L120.477,66.448L120.525,66.461L120.574,66.476L120.621,66.491L120.668,66.506L120.715,66.523L120.761,66.541L120.806,66.559L120.85,66.578L120.894,66.597L120.937,66.618L120.979,66.639L121.021,66.661L121.062,66.683L121.102,66.706L121.141,66.73L121.179,66.755L121.217,66.78L121.254,66.806L121.289,66.832L121.324,66.86L121.358,66.887L121.392,66.915L121.424,66.944L121.455,66.974L121.486,67.004L121.515,67.034L121.543,67.065L121.571,67.097L121.597,67.129L121.622,67.161L121.646,67.194L121.669,67.228L121.691,67.262L121.712,67.296L121.732,67.331L121.75,67.366L121.768,67.401L121.784,67.437L121.799,67.474L121.813,67.511L121.826,67.548L121.837,67.585L121.847,67.623L121.856,67.661L121.863,67.699L121.869,67.738L121.874,67.777L121.878,67.816L121.88,67.856L121.88,67.895L121.88,70.754L119.971,70.754L119.971,67.904L119.97,67.891L119.97,67.886L119.97,67.882L119.969,67.877L119.968,67.873L119.968,67.869L119.967,67.865L119.966,67.861L119.965,67.857L119.963,67.854L119.962,67.85L119.96,67.846L119.959,67.843L119.957,67.839L119.955,67.836L119.953,67.832L119.951,67.829L119.949,67.825L119.947,67.822L119.944,67.818L119.941,67.815L119.938,67.811L119.935,67.808L119.932,67.805L119.929,67.801L119.926,67.798L119.922,67.795L119.919,67.791L119.915,67.788L119.911,67.785L119.907,67.782L119.903,67.779L119.899,67.776L119.895,67.773L119.89,67.77L119.886,67.768L119.881,67.765L119.877,67.763L119.872,67.76L119.868,67.758L119.863,67.756L119.858,67.753L119.853,67.751L119.849,67.75L119.844,67.748L119.839,67.746L119.834,67.744L119.829,67.743L119.824,67.741L119.819,67.74L119.814,67.739L119.809,67.738L119.805,67.737L119.799,67.736L119.794,67.735L119.789,67.734L119.784,67.733L119.778,67.732L119.772,67.732L119.767,67.731L119.761,67.731L119.755,67.731L119.748,67.731L119.729,67.73L113.552,67.73L113.552,66.354L119.741,66.354L119.797,66.355ZM69.626,67.73L66.737,67.73L66.718,67.731L66.712,67.731L66.705,67.731L66.699,67.731L66.694,67.732L66.688,67.732L66.682,67.733L66.677,67.734L66.672,67.735L66.667,67.736L66.662,67.737L66.657,67.738L66.652,67.739L66.647,67.74L66.642,67.741L66.637,67.743L66.632,67.744L66.627,67.746L66.622,67.748L66.618,67.75L66.613,67.751L66.608,67.754L66.603,67.756L66.599,67.758L66.594,67.76L66.589,67.763L66.585,67.765L66.58,67.768L66.576,67.77L66.572,67.773L66.567,67.776L66.563,67.779L66.559,67.782L66.555,67.785L66.551,67.788L66.547,67.791L66.544,67.795L66.54,67.798L66.537,67.801L66.534,67.805L66.531,67.808L66.528,67.811L66.525,67.815L66.522,67.818L66.52,67.822L66.517,67.825L66.515,67.829L66.513,67.832L66.511,67.836L66.509,67.839L66.507,67.843L66.506,67.846L66.504,67.85L66.503,67.854L66.502,67.857L66.5,67.861L66.499,67.865L66.498,67.869L66.498,67.873L66.497,67.877L66.496,67.881L66.496,67.886L66.496,67.891L66.496,67.904L66.496,70.264L64.586,70.264L64.586,67.895L64.586,67.856L64.589,67.816L64.592,67.777L64.597,67.738L64.603,67.699L64.61,67.661L64.619,67.623L64.629,67.585L64.641,67.548L64.653,67.511L64.667,67.474L64.682,67.437L64.698,67.401L64.716,67.366L64.734,67.331L64.754,67.296L64.775,67.262L64.797,67.228L64.82,67.194L64.844,67.161L64.869,67.129L64.896,67.097L64.923,67.065L64.951,67.034L64.981,67.004L65.011,66.974L65.042,66.944L65.074,66.915L65.108,66.887L65.142,66.86L65.177,66.832L65.213,66.806L65.249,66.78L65.287,66.755L65.325,66.73L65.365,66.706L65.405,66.683L65.445,66.661L65.487,66.639L65.529,66.618L65.572,66.597L65.616,66.578L65.66,66.559L65.706,66.541L65.751,66.523L65.798,66.506L65.845,66.491L65.893,66.476L65.941,66.461L65.99,66.448L66.039,66.435L66.089,66.424L66.139,66.413L66.19,66.403L66.242,66.394L66.294,66.386L66.346,66.378L66.399,66.372L66.453,66.367L66.506,66.362L66.56,66.359L66.615,66.356L66.67,66.355L66.725,66.354L69.626,66.354L69.626,67.73ZM96.364,67.73L86.815,67.73L86.815,66.354L96.364,66.354L96.364,67.73ZM109.733,67.73L100.184,67.73L100.184,66.354L109.733,66.354L109.733,67.73ZM82.995,67.73L73.446,67.73L73.446,66.354L82.995,66.354L82.995,67.73Z" style="fill:white;"/>
                </g>
                <g id="Transformation-arrow" serif:id="Transformation arrow" transform="matrix(0.705349,0,-0.000487,0.941415,37.8037,-63.8029)">
                    <g transform="matrix(1.00101,-0,0.000517829,0.75,-0.198651,80.9867)">
                        <path d="M94.797,128.016L94.795,132.016L85.195,132.011L85.197,128.011L94.797,128.016Z" style="fill:white;"/>
                        <path d="M171.399,124.816L165.995,132.013L160.599,124.81L171.399,124.816Z" style="fill:white;"/>
                        <path d="M89.996,130.013C89.998,125.721 90.003,116.013 90.003,116.013L166.003,116.013C166.003,116.013 166,121.667 165.998,126.253" style="fill:none;stroke:white;stroke-width:4px;"/>
                    </g>
                </g>
                <g id="Column-line" serif:id="Column line" transform="matrix(-2728.27,0,0,0.806927,349345,-4.10414)">
                    <rect x="127.999" y="136.013" width="0.001" height="56" style="fill:white;"/>
                </g>
            </g>
            <g id="Jira-logo" serif:id="Jira logo" transform="matrix(0.901364,0,0,0.901364,65.9614,24.2885)">
                <g transform="matrix(0.63988,0,0,0.63988,0.295299,11.9272)">
                    <path d="M70.64,33.12L36.05,33.12C36.05,41.683 43.097,48.73 51.66,48.73L58,48.73L58,54.88C58,63.438 65.042,70.48 73.6,70.48C73.603,70.48 73.607,70.48 73.61,70.48L73.61,36.12C73.61,34.486 72.274,33.136 70.64,33.12Z" style="fill:white;fill-rule:nonzero;"/>
                </g>
                <g transform="matrix(0.63988,0,0,0.63988,0.295299,11.9272)">
                    <path d="M53,50.85L18.44,50.85C18.44,59.395 25.456,66.433 34,66.46L40.37,66.46L40.37,72.6C40.37,81.163 47.417,88.21 55.98,88.21C55.987,88.21 55.993,88.21 56,88.21L56,53.85C56,52.204 54.646,50.85 53,50.85Z" style="fill:url(#_Linear1);fill-rule:nonzero;"/>
                </g>
                <g transform="matrix(0.63988,0,0,0.63988,0.295299,11.9272)">
                    <path d="M35.4,68.58L0.82,68.58C0.82,77.143 7.867,84.19 16.43,84.19L22.8,84.19L22.8,90.33C22.8,98.89 29.84,105.935 38.4,105.94L38.4,71.58C38.4,69.934 37.046,68.58 35.4,68.58Z" style="fill:url(#_Linear2);fill-rule:nonzero;"/>
                </g>
                <g transform="matrix(0.63988,0,0,0.63988,0.295299,11.9272)">
                    <path d="M109.87,42.62L117.79,42.62L117.79,82.84C117.79,93.48 113.12,100.84 102.21,100.84C98.981,100.888 95.767,100.381 92.71,99.34L92.71,91.64C95.32,92.643 98.094,93.149 100.89,93.13C107.58,93.13 109.89,89.13 109.89,83.36L109.87,42.62Z" style="fill:white;fill-rule:nonzero;"/>
                </g>
                <g transform="matrix(0.63988,0,0,0.63988,0.295299,11.9272)">
                    <path d="M132.22,39.54C132.337,39.532 132.455,39.527 132.573,39.527C135.283,39.527 137.513,41.757 137.513,44.467C137.513,44.585 137.508,44.703 137.5,44.82C137.5,47.717 135.117,50.1 132.22,50.1C129.323,50.1 126.94,47.717 126.94,44.82C126.932,44.703 126.927,44.585 126.927,44.467C126.927,41.757 129.157,39.527 131.867,39.527C131.985,39.527 132.103,39.532 132.22,39.54ZM128.35,56.44L135.92,56.44L135.92,100.44L128.35,100.44L128.35,56.44Z" style="fill:white;fill-rule:nonzero;"/>
                </g>
                <g transform="matrix(0.63988,0,0,0.63988,0.295299,11.9272)">
                    <path d="M154.75,100.44L147.36,100.44L147.36,56.44L154.75,56.44L154.75,64.18C157.3,58.99 161.7,55.29 170.32,55.82L170.32,63.21C160.64,62.21 154.75,65.15 154.75,74.48L154.75,100.44Z" style="fill:white;fill-rule:nonzero;"/>
                </g>
                <g transform="matrix(0.63988,0,0,0.63988,0.295299,11.9272)">
                    <path d="M205.79,92.52C202.97,98.32 197.69,101.32 190.92,101.32C179.21,101.32 173.32,91.37 173.32,78.44C173.32,66.03 179.47,55.56 191.8,55.56C198.22,55.56 203.15,58.46 205.8,64.18L205.8,56.44L213.36,56.44L213.36,100.44L205.8,100.44L205.79,92.52ZM192.94,94.28C199.72,94.28 205.79,89.96 205.79,80.2L205.79,76.68C205.79,66.91 200.24,62.6 193.79,62.6C185.25,62.6 180.85,68.23 180.85,78.44C180.88,89 185.11,94.28 192.94,94.28Z" style="fill:white;fill-rule:nonzero;"/>
                </g>
            </g>
        </g>
    </g>
    <defs>
        <linearGradient id="_Linear1" x1="0" y1="0" x2="1" y2="0" gradientUnits="userSpaceOnUse" gradientTransform="matrix(-14.71,15.17,-15.17,-14.71,55.29,50.91)"><stop offset="0" style="stop-color:white;stop-opacity:0.4"/><stop offset="0.18" style="stop-color:white;stop-opacity:0.4"/><stop offset="1" style="stop-color:white;stop-opacity:1"/></linearGradient>
        <linearGradient id="_Linear2" x1="0" y1="0" x2="1" y2="0" gradientUnits="userSpaceOnUse" gradientTransform="matrix(-17.01,16.55,-16.55,-17.01,38.65,68.74)"><stop offset="0" style="stop-color:white;stop-opacity:0.4"/><stop offset="0.18" style="stop-color:white;stop-opacity:0.4"/><stop offset="1" style="stop-color:white;stop-opacity:1"/></linearGradient>
    </defs>
</svg>
