<svg viewBox="0 0 256 256" xmlns="http://www.w3.org/2000/svg" fill-rule="evenodd" clip-rule="evenodd" stroke-miterlimit="1.5"><path fill="#0052cc" d="M0 0h256v256H0z"/><g fill="#fff"><path d="M196 138.253a2.241 2.241 0 00-2.24-2.24h-55.52a2.241 2.241 0 00-2.24 2.24v51.52a2.24 2.24 0 002.24 2.24h55.52a2.24 2.24 0 002.24-2.24v-51.52z"/><path d="M193.819 136.014l.056.002.058.004.056.004.057.008.055.007.056.009.054.011.055.012.054.013.054.014.052.016.052.016.053.02.05.018.051.022.05.022.049.022.05.024.047.027.047.026.046.027.047.028.045.03.044.031.044.032.042.032.042.033.041.035.04.037.04.036.039.038.036.037.037.041.035.04.036.04.034.042.032.044.033.044.03.043.03.045.029.047.027.046.026.047.025.048.024.05.023.049.022.049.021.05.019.052.019.05.017.053.015.054.015.053.014.054.011.054.01.055.01.055.007.056.007.056.005.057.004.057.002.058V189.83l-.002.058-.004.057-.005.056-.007.057-.007.055-.01.056-.01.055-.011.054-.014.053-.015.054-.015.052-.017.053-.019.052-.019.051-.02.05-.023.05-.023.05-.024.05-.025.047-.026.047-.027.046-.03.047-.03.045-.03.043-.032.044-.032.044-.034.04-.036.042-.035.04-.037.039-.036.04-.04.037-.039.036-.04.037-.04.033-.043.035-.042.032-.044.032-.044.03-.045.03-.047.029-.046.027-.047.026-.048.026-.05.024-.048.023-.05.022-.05.022-.051.018-.053.018-.052.017-.052.016-.054.015-.054.013-.055.012-.054.01-.056.01-.055.007-.057.007-.056.005-.058.003-.056.003h-55.636l-.058-.003-.057-.003-.057-.005-.055-.007-.057-.007-.055-.01-.055-.01-.054-.012-.055-.013-.053-.015-.052-.016-.053-.017-.051-.018-.051-.018-.05-.022-.05-.022-.05-.023-.05-.024-.047-.026-.048-.026-.046-.027-.046-.028-.045-.03-.044-.031-.044-.032-.042-.032-.042-.035-.041-.033-.04-.037-.04-.036-.038-.038-.037-.04-.037-.038-.036-.04-.035-.042-.034-.04-.032-.044-.032-.044-.031-.043-.03-.045-.028-.047-.028-.046-.026-.047-.025-.048-.024-.05-.023-.049-.022-.05-.021-.05-.02-.05-.018-.053-.017-.053-.016-.052-.014-.054-.013-.053-.012-.054-.01-.055-.01-.056-.008-.055-.006-.057-.005-.056-.003-.057-.003-.058V138.196l.003-.058.003-.057.005-.057.006-.056.008-.056.01-.055.01-.055.012-.054.013-.054.014-.053.016-.054.017-.052.019-.051.019-.051.02-.051.023-.05.023-.049.024-.05.025-.047.026-.047.028-.046.029-.047.029-.045.031-.043.032-.044.032-.044.034-.042.035-.04.036-.04.037-.04.037-.038.038-.038.04-.036.04-.037.041-.035.042-.033.042-.032.044-.032.044-.03.045-.031.046-.028.046-.027.048-.026.048-.027.049-.024.05-.022.05-.022.05-.022.05-.019.052-.019.053-.016.052-.016.053-.014.055-.013.054-.012.055-.011.055-.01.057-.006.055-.008.057-.004.057-.004.058-.002.058-.001h55.52l.058.001zm-55.566 1.999l-.02.001h-.02l-.005.002h-.006l-.006.001-.006.002-.005.001-.005.001-.005.002-.006.001-.005.002-.005.001-.005.002-.006.003-.005.001-.005.003-.005.003-.004.003-.006.001-.005.005-.005.003-.004.002-.006.003-.005.005-.004.003-.005.004-.004.003-.005.004-.005.005-.004.004-.004.004-.004.005-.005.004-.004.004-.003.006-.004.005-.003.004-.003.006-.004.004-.003.004-.003.006-.003.005-.002.005-.003.005-.002.006-.002.004-.002.006-.003.004-.002.006v.004l-.003.006v.006l-.002.004-.002.006-.001.006-.001.006v.006l-.001.005-.001.008V189.793l.002.019.004.016.004.016.006.016.006.016.008.015.01.014.01.015.012.014.012.013.014.012.014.011.015.01.015.008.015.007.016.006.016.004.016.005.017.003h.02l.02.001h55.495l.02-.001H193.786l.006-.002.006-.001h.006l.005-.002.006-.001.005-.002.006-.001.004-.002.006-.001.005-.001.005-.002.005-.003.005-.001.006-.003.005-.003.005-.003.004-.003.006-.003.005-.003.004-.003.005-.003.006-.004.004-.003.005-.004.004-.005.005-.002.005-.005.004-.004.004-.005.004-.004.004-.004.005-.006.003-.004.004-.005.003-.004.003-.006.004-.004.002-.006.004-.004.003-.005.002-.006.003-.004.002-.006.002-.004.002-.006.002-.004.002-.006.001-.006.003-.004v-.006l.003-.006v-.004l.002-.006v-.012l.002-.006v-.02l.002-.019v-51.495l-.001-.02v-.014l-.001-.006-.001-.005v-.006l-.001-.006-.001-.006-.001-.006-.002-.004-.001-.006-.003-.006v-.004l-.003-.006-.002-.004-.002-.006-.002-.004-.002-.006-.003-.005-.002-.005-.003-.005-.004-.006-.003-.004-.003-.004-.003-.006-.003-.004-.004-.005-.003-.006-.005-.004-.004-.004-.004-.005-.004-.004-.004-.004-.005-.005-.005-.004-.004-.003-.005-.004-.004-.003-.006-.005-.005-.003-.004-.002-.005-.003-.006-.005-.004-.001-.005-.003-.005-.003-.006-.003-.005-.001-.005-.003-.005-.002-.005-.001-.006-.002-.004-.001-.006-.002-.005-.001-.006-.001-.005-.002-.006-.001h-.006l-.006-.002h-.02l-.02-.001h-55.494z"/></g><path d="M192 157.294a1.28 1.28 0 00-1.279-1.281H141.28a1.28 1.28 0 00-1.28 1.281v29.44a1.28 1.28 0 001.28 1.278h49.441a1.28 1.28 0 001.28-1.278v-29.44z" fill="#c1c7d0"/><circle cx="205.031" cy="94.743" r="1.588" fill="#36b37e" transform="translate(-198.275 -32.943) scale(1.88887)"/><path d="M182 140.494a.48.48 0 00-.48-.481h-41.04a.48.48 0 00-.48.48v11.04c0 .265.215.48.48.48h41.04a.48.48 0 00.48-.48v-11.04z" fill="#172b4d"/><g><path d="M120 138.253a2.241 2.241 0 00-2.24-2.24H62.24a2.241 2.241 0 00-2.24 2.24v51.52a2.24 2.24 0 002.24 2.24h55.52a2.24 2.24 0 002.24-2.24v-51.52z" fill="none"/><path d="M62 189.762v.032l.003.019.004.017.004.016.005.015.007.016.008.014.01.015.01.014.011.015.013.013.014.011.014.012.015.009.015.009.015.007.016.006.016.004.015.004.018.003h.02l.02.002h4.391v1.998h-4.461l-.058-.003-.057-.003-.057-.004-.055-.007-.057-.007-.055-.01-.055-.01-.054-.012-.055-.013-.053-.015-.053-.016-.052-.017-.051-.018-.052-.019-.05-.022-.05-.021-.05-.024-.049-.023-.047-.026-.048-.026-.046-.028-.046-.027-.045-.031-.044-.03-.044-.032-.042-.032-.042-.035-.042-.034-.04-.036-.04-.036-.037-.038-.038-.04-.036-.039-.036-.039-.035-.042-.034-.04-.032-.044-.032-.044-.031-.044-.03-.045-.028-.046-.028-.047-.026-.046-.025-.048-.025-.05-.023-.05-.022-.048-.02-.051-.02-.051-.018-.053-.017-.052-.016-.052-.014-.054-.013-.054-.012-.054-.011-.055-.01-.055-.007-.055-.006-.057-.005-.057-.003-.056-.004-.058v-2.136h2v2.066zm18.644 2.251h-10v-1.998h10v1.998zm14 0h-10v-1.998h10v1.998zm14.001 0H98.644v-1.998h10.001v1.998zm11.355-2.24v.059l-.002.058-.004.056-.006.057-.006.057-.007.055-.01.055-.01.055-.012.054-.013.054-.015.054-.016.052-.016.052-.02.053-.018.05-.021.052-.022.049-.023.05-.024.049-.025.048-.026.046-.028.047-.029.046-.03.045-.03.044-.032.044-.033.043-.033.04-.036.043-.035.04-.037.039-.037.039-.038.038-.04.036-.04.036-.04.034-.043.035-.043.032-.044.031-.044.031-.045.03-.046.028-.046.028-.047.026-.048.026-.05.023-.048.024-.05.021-.051.022-.05.02-.053.017-.052.017-.052.016-.054.015-.054.013-.055.011-.054.01-.056.01-.055.008-.057.007-.056.004-.058.003-.056.003h-5.175v-1.998h5.103l.02-.002h.02l.005-.001.007-.002h.006l.005-.001.005-.002.006-.001.006-.001.004-.002.005-.001.006-.002.005-.001.005-.003.005-.002.006-.003.005-.002.005-.003.004-.003.005-.003.006-.003.005-.003.004-.003.005-.004.005-.003.005-.005.004-.004.005-.003.004-.004.005-.005.004-.004.004-.004.004-.005.004-.004.004-.006.004-.004.003-.005.003-.005.004-.005.002-.006.003-.004.004-.004.003-.006.002-.004.002-.006.002-.005.002-.005.002-.005.002-.006.001-.005.002-.005.001-.006.003-.005v-.005l.002-.006v-.011l.002-.006v-.02l.002-.02v-1.352H120v1.364zm0-5.365h-2v-10h2v10zm-58-.712h-2v-9.999h2v10zm58-13.288h-2v-10h2v10zm-58-.71h-2v-10.001h2v10zm58-13.29h-2v-10h2v10zm-58-.711h-2v-10h2v10zm55.819-19.682l.056.001.058.004.056.005.057.007.055.007.056.009.054.012.055.011.054.013.054.015.052.016.052.016.053.019.05.019.051.021.05.022.049.022.049.025.048.026.047.026.046.028.046.027.045.03.044.031.044.032.043.032.042.034.041.035.04.036.04.036.038.038.037.038.037.04.035.04.036.04.033.043.033.043.032.044.03.044.03.045.03.046.027.047.026.046.025.048.024.05.023.049.022.05.021.05.019.051.019.051.016.052.016.054.015.054.013.054.012.053.01.056.01.055.007.055.006.057.006.056.004.057.002.058v4.213h-2v-4.175l-.001-.007-.001-.006v-.006l-.001-.006-.001-.005-.001-.006-.003-.005v-.005l-.003-.006v-.005l-.003-.005-.002-.005-.002-.006-.002-.004-.002-.006-.002-.004-.003-.006-.004-.004-.003-.006-.003-.004-.003-.005-.003-.006-.003-.004-.004-.004-.004-.006-.004-.005-.004-.004-.004-.004-.004-.005-.005-.004-.004-.004-.005-.005-.004-.003-.005-.004-.005-.003-.005-.004-.004-.003-.005-.003-.006-.004-.005-.003-.004-.002-.005-.003-.005-.003-.006-.002-.005-.002-.005-.003-.005-.001-.006-.002-.005-.001-.004-.002-.006-.001-.006-.002-.005-.001-.005-.001-.006-.002h-.007l-.005-.001h-.02l-.02-.002h-6.468v-2h6.481l.059.002zm-52.54 1.998h-3.026l-.02.002h-.02l-.005.001h-.006l-.007.002-.005.001-.005.001-.005.002-.005.001-.006.002-.005.001-.005.002-.005.001-.006.003-.005.002-.005.002-.005.003-.005.003-.005.002-.005.004-.005.003-.004.003-.006.003-.005.004-.004.003-.005.004-.005.003-.004.005-.005.004-.004.004-.004.005-.005.004-.004.004-.004.005-.003.006-.004.004-.003.004-.004.006-.003.005-.003.004-.003.006-.003.004-.002.006-.003.004-.002.006-.003.004-.002.006-.002.005-.002.005v.005l-.003.006-.001.005-.001.005-.002.006-.001.005-.001.006v.006l-.001.006-.001.006v3.464h-2v-3.501l.003-.058.003-.057.005-.056.006-.057.008-.055.009-.055.01-.056.013-.053.013-.054.014-.054.016-.054.017-.052.019-.05.018-.052.021-.05.022-.05.023-.05.025-.049.025-.048.026-.046.028-.047.028-.046.03-.045.031-.044.032-.044.032-.043.034-.042.035-.041.036-.04.036-.04.038-.038.038-.038.04-.036.04-.036.041-.035.042-.034.042-.032.044-.032.044-.03.045-.03.046-.028.046-.028.048-.026.047-.026.05-.025.049-.022.05-.022.05-.021.052-.02.051-.018.052-.016.053-.016.053-.015.055-.013.054-.011.055-.012.055-.009.057-.007.055-.007.057-.005.057-.004.058-.001.057-.002h3.038v2zm28 0h-10v-2h10v2zm14 0h-10v-2h10v2zm-28 0h-10v-2h10v2z" fill="#fff"/></g><g><path d="M94.797 128.016l-.002 4-9.6-.005.002-4 9.6.005zM171.4 124.816l-5.405 7.197-5.396-7.203 10.8.006z" fill="#fff"/><path d="M89.996 130.013l.007-14h76l-.005 10.24" fill="none" stroke="#fff" stroke-width="4"/></g><g><path fill="#fff" d="M129.655 132.013h-3.864v64h3.864z"/></g><g><path d="M106.976 59.987h-19.95c0 4.939 4.065 9.003 9.003 9.003h3.657v3.547c0 4.936 4.062 8.998 8.998 8.998h.005V61.717c0-.942-.77-1.72-1.713-1.73z" fill="#fff" fill-rule="nonzero"/><path d="M53 50.85H18.44c0 8.545 7.016 15.583 15.56 15.61h6.37v6.14c0 8.563 7.047 15.61 15.61 15.61H56V53.85c0-1.646-1.354-3-3-3z" fill="url(#_Linear1)" fill-rule="nonzero" transform="matrix(.57676 0 0 .57676 66.234 40.884)"/><path d="M35.4 68.58H.82c0 8.563 7.047 15.61 15.61 15.61h6.37v6.14c0 8.56 7.04 15.605 15.6 15.61V71.58c0-1.646-1.354-3-3-3z" fill="url(#_Linear2)" fill-rule="nonzero" transform="matrix(.57676 0 0 .57676 66.234 40.884)"/><path d="M129.603 65.466h4.568v23.198c0 6.136-2.694 10.381-8.986 10.381a16.25 16.25 0 01-5.48-.865v-4.44c1.506.578 3.106.87 4.719.859 3.858 0 5.19-2.307 5.19-5.635l-.011-23.498zM142.494 63.69a2.863 2.863 0 013.045 3.045 3.06 3.06 0 01-3.045 3.045 3.06 3.06 0 01-3.046-3.045 2.863 2.863 0 013.045-3.045zm-2.232 9.747h4.366v25.378h-4.366V73.437zM155.488 98.815h-4.262V73.437h4.262v4.464c1.47-2.993 4.009-5.127 8.98-4.822v4.263c-5.583-.577-8.98 1.119-8.98 6.5v14.973zM184.926 94.247c-1.626 3.345-4.672 5.075-8.576 5.075-6.754 0-10.151-5.739-10.151-13.196 0-7.158 3.547-13.196 10.658-13.196 3.703 0 6.547 1.672 8.075 4.971v-4.464h4.36v25.378h-4.36l-.006-4.568zm-7.411 1.015c3.91 0 7.411-2.492 7.411-8.121v-2.03c0-5.635-3.2-8.121-6.921-8.121-4.926 0-7.463 3.247-7.463 9.136.017 6.09 2.457 9.136 6.973 9.136z" fill="#fff" fill-rule="nonzero"/></g><defs><linearGradient id="_Linear1" x1="0" y1="0" x2="1" y2="0" gradientUnits="userSpaceOnUse" gradientTransform="rotate(134.12 16.87 37.155) scale(21.13)"><stop offset="0" stop-color="#fff" stop-opacity=".4"/><stop offset=".18" stop-color="#fff" stop-opacity=".4"/><stop offset="1" stop-color="#fff"/></linearGradient><linearGradient id="_Linear2" x1="0" y1="0" x2="1" y2="0" gradientUnits="userSpaceOnUse" gradientTransform="scale(-23.73) rotate(-44.22 -4.38 .556)"><stop offset="0" stop-color="#fff" stop-opacity=".4"/><stop offset=".18" stop-color="#fff" stop-opacity=".4"/><stop offset="1" stop-color="#fff"/></linearGradient></defs></svg>