<svg id="Layer_1" data-name="Layer 1" xmlns="http://www.w3.org/2000/svg" viewBox="0 0 256 256"><defs><style>.cls-1{fill:#41b7e9;}.cls-2{fill:#fff;}</style></defs><title>icon</title><rect class="cls-1" x="0.27" width="256" height="256"/><path class="cls-2" d="M211.25,97.14A28.12,28.12,0,0,0,202,92.9a165.56,165.56,0,0,0-20.11-3.15c-7.91-.88-15.87-1.14-23.82-1.33-26.09-.64-52.18-0.75-78.25.87-9,.56-18,1.37-26.72,3.88-3.12.9-6.15,2-8.57,4.27a5.88,5.88,0,0,0-1.72,3.91c-0.46,4.32,1.56,7.41,4.6,10,6.63,5.7,14.34,9.45,22.53,12.31,0.67,0.29,1.32.63,2,.87a155.61,155.61,0,0,0,32.35,7.71,176.67,176.67,0,0,0,54.94-1.21A148,148,0,0,0,182,125.11,74.3,74.3,0,0,0,194.22,120a52.5,52.5,0,0,0,12.41-7.31,21.25,21.25,0,0,0,5.35-5.37C213.93,104.24,213.64,98.77,211.25,97.14Zm-55.94,19.63a122.55,122.55,0,0,1-13.25,1.93c-7.44.62-14.88,0.42-22.32,0.44a106.82,106.82,0,0,1-16.88-1.71c-5.08-.8-10-2.46-15.05-3.65a50.14,50.14,0,0,1-16.42-7.21,2.73,2.73,0,0,0-.25-0.31c-3.12-2.88-3.06-3.34,1-4.89C77.3,99.45,82.7,99,88.06,98.6a680.92,680.92,0,0,1,75.13-.36,89.26,89.26,0,0,1,18.21,2.33,15.17,15.17,0,0,1,4.83,2c0.94,0.63,1.07,1.33.21,2.1-1,.93-2.12,1.81-3.18,2.72C174.52,112.24,165.05,114.87,155.31,116.77Z"/><path class="cls-2" d="M128.2,150.73c-18.77,0-37-2.91-54.55-9.79-6.41-2.52-12.59-5.52-17.87-10.05-2.74-2.35-4.89-5-4.49-9,0.25-2.5.69-2.86,2.7-1.52a77.48,77.48,0,0,0,18,8.51,172.14,172.14,0,0,0,31,7.44c4.27,0.64,8.55,1.18,12.82,1.68,3.28,0.38,6.65,0,10,.09a125.23,125.23,0,0,0,20.52-.85c18.33-2.31,36.22-6.39,52.66-15.32,1.12-.61,2.22-1.28,3.31-1.94,1.64-1,2.2-.78,2.46,1.1a8.21,8.21,0,0,1-1.85,7,31,31,0,0,1-6.63,5.55c-14.81,9.4-31.34,13.53-48.45,15.9A135.07,135.07,0,0,1,128.2,150.73Z"/><path class="cls-2" d="M200.55,139.27c-0.06-.8-0.08-1.61-0.2-2.4-0.21-1.34-.65-1.73-1.91-0.68-2.68,2.24-10.34,6-11.05,6.38a88.4,88.4,0,0,1-9.86,4.11,132.8,132.8,0,0,1-23.35,6,126.53,126.53,0,0,1-23.2,2.09c-6.92-.12-13.85.14-20.73-0.85-3.51-.5-7.12-0.56-10.53-1.42-5.64-1.42-11.41-2.28-17-4.2a129.18,129.18,0,0,1-17-6.86,53.17,53.17,0,0,1-8.39-5.22c-0.61-.48-1.45-1-1.64.22-0.47,3-1,6.12,1,8.87,3.68,5.06,9,8,14.42,10.71a97.18,97.18,0,0,0,15.78,6.06,127,127,0,0,0,29.56,5.48,137.13,137.13,0,0,0,17.91.26c6.56-.49,13.07-1,19.55-2.16a132.65,132.65,0,0,0,27.52-8.17A64.18,64.18,0,0,0,191.7,152c3.49-2.22,6.88-4.78,8.51-8.89A30.43,30.43,0,0,0,200.55,139.27Z"/></svg>