<?xml version="1.0" encoding="utf-8"?>
<!-- Generator: Adobe Illustrator 19.1.0, SVG Export Plug-In . SVG Version: 6.00 Build 0)  -->
<svg version="1.1" id="Layer_1" xmlns="http://www.w3.org/2000/svg" xmlns:xlink="http://www.w3.org/1999/xlink" x="0px" y="0px"
	 viewBox="0 0 256 256" enable-background="new 0 0 256 256" xml:space="preserve">
<g>
	<rect x="0.8" y="0" fill="#F6A81C" width="256" height="256"/>
	<g>
		<ellipse fill="none" stroke="#FFFFFF" stroke-width="4.7407" stroke-miterlimit="10" cx="128.5" cy="98.1" rx="54.8" ry="12.8"/>
		<path fill="none" stroke="#FFFFFF" stroke-width="4.7407" stroke-miterlimit="10" d="M73.7,98.1L89.2,197
			c0,5.1,17.6,13.9,39.2,13.9s39.2-8.9,39.2-13.9l15.6-98.8"/>
		<path fill="none" stroke="#FFFFFF" stroke-width="4.7407" stroke-miterlimit="10" d="M73.8,99.4c0-30.1,24.4-54.4,54.4-54.4
			s54.4,24.4,54.4,54.4"/>
		<circle fill="#FFFFFF" cx="74.4" cy="99.8" r="6.2"/>
		<circle fill="#FFFFFF" cx="183.2" cy="99.8" r="6.2"/>
		<path fill="#FFFFFF" d="M108,153.1c0.5-4.4,3.1-7.9,6.4-11.2c7.7-7.7,20.5-7.3,28.6,0.1l-7.9,7.9l22.1,5.9l-5.9-22l-5.3,5.3
			c-12-11.3-25.1-9.3-34.3-0.1c-3.9,3.9-6.4,8.3-7.2,13.3L108,153.1z"/>
		<path fill="#FFFFFF" d="M147.7,160c0,0,0,0.1,0,0.1c-0.8,3.9-2.7,7.6-5.8,10.4c-7.9,7.4-19.9,7.4-27.8-0.3l8.2-7.6l-21.8-6.7
			l5.1,22.3l5.5-5.1c7.8,7.7,23.9,9.4,33.5,0.5c3.5-3.3,5.8-7.4,6.8-11.8c0-0.2,0.1-0.4,0.1-0.6L147.7,160z"/>
	</g>
</g>
</svg>
