<?xml version="1.0" encoding="UTF-8"?>
<svg width="256px" height="256px" viewBox="0 0 256 256" version="1.1" xmlns="http://www.w3.org/2000/svg" xmlns:xlink="http://www.w3.org/1999/xlink">
    <!-- Generator: Sketch 56.2 (81672) - https://sketch.com -->
    <title>stamp-version-stepicon</title>
    <desc>Created with Sketch.</desc>
    <defs>
        <linearGradient x1="0%" y1="100%" x2="100%" y2="0%" id="linearGradient-1">
            <stop stop-color="#0DD3C5" offset="0%"></stop>
            <stop stop-color="#0D83CD" offset="100%"></stop>
        </linearGradient>
        <linearGradient x1="109.981919%" y1="31.9909189%" x2="-11.2823266%" y2="68.5378317%" id="linearGradient-2">
            <stop stop-color="#FFFFFF" stop-opacity="0.80151721" offset="0%"></stop>
            <stop stop-color="#FFFFFF" offset="100%"></stop>
        </linearGradient>
    </defs>
    <g id="New-Icons" stroke="none" stroke-width="1" fill="none" fill-rule="evenodd">
        <g id="Stamp-versions">
            <g id="stamp-version-stepicon">
                <rect id="Rectangle-path" fill="url(#linearGradient-1)" fill-rule="nonzero" x="0" y="0" width="256" height="256"></rect>
                <path d="M165.860282,203.003281 C157.330077,204.721885 141.997064,205.868121 124.5,205.868121 C97.7141896,205.868121 76,203.18183 76,199.868121 C76,196.554413 97.7141896,193.868121 124.5,193.868121 C127.434386,193.868121 130.307906,193.90036 133.098681,193.96213 C129.06013,192.048147 125.268681,190.037327 122,188.150153 C105.399521,178.565862 79.294482,158.898535 86.7529703,145.980054 L88.4590098,143.025107 C86.7434042,138.851932 86.7657228,135.177712 88.5733809,132.046756 L103.804642,105.665438 C109.829994,95.2292222 129.577168,100.959276 142.485289,106.154519 C143.504314,105.47148 144.522286,104.819283 145.517813,104.183161 C153.799759,98.8941546 160.951367,94.3255343 161.25486,76.8636142 C161.30249,74.1197352 161.577005,71.3290252 162.070458,68.5715745 C162.754511,64.7398885 163.678629,61.8500325 164.894909,59.7433739 C172.435111,46.6833606 189.079342,42.1263433 202,49.5860887 C214.919761,57.045316 219.295383,73.7381515 211.755181,86.7981648 C210.538377,88.9057307 208.497748,91.1509685 205.514704,93.6625889 C203.370565,95.469436 201.095411,97.0990278 198.753207,98.504827 C183.775904,107.499658 183.39554,115.978867 182.955052,125.797561 C182.902441,126.976867 182.846608,128.184554 182.764965,129.410001 C193.719659,137.990751 208.55689,152.229222 202.531538,162.665438 L187.300277,189.046756 C185.492095,192.178619 182.320388,194.034539 177.84851,194.635369 L176.142995,197.589409 C174.128639,201.078375 170.463957,202.693351 165.860282,203.003281 Z M112.724814,110.942519 L97.6030292,137.134219 C97.1744232,140.272659 106.893757,154.178898 132.933424,169.212907 C158.973092,184.246916 175.875915,185.710986 178.37958,183.770583 L193.501366,157.578883 C193.727111,155.84268 190.600985,149.778525 180.457402,141.055182 C180.325755,141.386837 180.165831,141.723942 180.017652,142.05936 C179.940269,142.234845 179.868946,142.410199 179.788347,142.585037 C179.670331,142.835046 179.538776,143.085706 179.410961,143.336107 C179.254634,143.646255 179.094192,143.955239 178.921633,144.264483 C178.800707,144.480151 178.675517,144.696987 178.547111,144.913175 C178.329958,145.278931 178.097994,145.643395 177.85855,146.008379 C177.741073,146.18491 177.628234,146.361698 177.505596,146.538877 C177.126458,147.08571 176.728395,147.630083 176.291436,148.171355 C174.418054,150.819203 167.742271,156.058106 147.331832,144.274134 C127.04166,132.559597 128.10674,124.187805 129.452615,121.195482 C129.702667,120.54267 129.976275,119.921603 130.260053,119.316086 C130.352849,119.118048 130.451104,118.929211 130.546817,118.736486 C130.741385,118.345593 130.941039,117.962475 131.149741,117.590629 C131.274333,117.36861 131.398252,117.149831 131.527032,116.935069 C131.708716,116.628673 131.898178,116.331606 132.090182,116.038426 C132.24208,115.80435 132.391436,115.566386 132.547895,115.340991 C132.660207,115.179624 132.778875,115.027975 132.894628,114.871014 C133.11274,114.569924 133.327712,114.259763 133.552627,113.975907 C120.927993,109.554014 114.11464,109.878398 112.724814,110.942519 Z" id="Combined-Shape" fill="#760FC3" style="mix-blend-mode: multiply;"></path>
                <path d="M53.15,157.05 L61.9,157.05 L61.9,206.05 L51.4,206.05 L51.4,170.35 L43,170.35 L43,163.7 C51.05,162.65 53.15,157.05 53.15,157.05 Z M70.6416665,201.5 C70.6416665,198.7 73.0916665,196.25 76.2416665,196.25 C79.3916665,196.25 81.8416665,198.7 81.8416665,201.5 C81.8416665,204.3 79.3916665,206.75 76.2416665,206.75 C73.0916665,206.75 70.6416665,204.3 70.6416665,201.5 Z M91.233333,157.05 L99.983333,157.05 L99.983333,206.05 L89.483333,206.05 L89.483333,170.35 L81.083333,170.35 L81.083333,163.7 C89.133333,162.65 91.233333,157.05 91.233333,157.05 Z M107.724999,201.5 C107.724999,198.7 110.174999,196.25 113.324999,196.25 C116.474999,196.25 118.924999,198.7 118.924999,201.5 C118.924999,204.3 116.474999,206.75 113.324999,206.75 C110.174999,206.75 107.724999,204.3 107.724999,201.5 Z M160.116666,206.05 L125.816666,206.05 C125.816666,182.95 149.266666,182.95 149.266666,172.1 C149.266666,168.25 146.816666,165.8 142.266666,165.8 C136.316666,165.8 134.566666,171.75 134.566666,171.75 L125.816666,167.55 C125.816666,167.55 129.316666,156 142.966666,156 C153.116666,156 160.116666,163 160.116666,171.75 C160.116666,185.05 144.716666,187.5 139.116666,196.25 L160.116666,196.25 L160.116666,206.05 Z" id="1.1.2" fill="url(#linearGradient-2)"></path>
            </g>
        </g>
    </g>
</svg>