<?xml version="1.0" encoding="UTF-8"?>
<svg width="166px" height="203px" viewBox="0 0 166 203" version="1.1" xmlns="http://www.w3.org/2000/svg" xmlns:xlink="http://www.w3.org/1999/xlink">
    <!-- Generator: Sketch 52.2 (67145) - http://www.bohemiancoding.com/sketch -->
    <title>Group 4</title>
    <desc>Created with Sketch.</desc>
    <g id="Page-2" stroke="none" stroke-width="1" fill="none" fill-rule="evenodd">
        <g id="Group-4">
            <g id="Group-3">
                <polygon id="Rectangle" fill="#7100FB" points="1.42108547e-14 0 130.853538 99.150569 83.2052916 132.923201 1.42108547e-14 75.0555296"></polygon>
                <polygon id="Rectangle" fill="#7000FB" points="0 66 130.853538 165.150569 83.2052916 198.923201 0 141.05553"></polygon>
            </g>
            <polygon id="Rectangle" fill="#300081" transform="translate(100.573231, 66.461601) scale(-1, 1) translate(-100.573231, -66.461601) " points="35.1464617 0 166 99.150569 118.351753 132.923201 35.1464617 75.0555296"></polygon>
            <polygon id="Rectangle" fill="#2E0080" transform="translate(100.573231, 132.461601) scale(-1, 1) translate(-100.573231, -132.461601) " points="35.1464617 66 166 165.150569 118.351753 198.923201 35.1464617 141.05553"></polygon>
            <polygon id="Rectangle" fill="#5000CD" transform="translate(84.492428, 98.886385) rotate(45.000000) translate(-84.492428, -98.886385) " points="57.6277139 73.2510993 119.385296 63.9935176 110.627714 125.251099 49.5995606 133.779253"></polygon>
            <polygon id="Rectangle" fill="#4E00CC" transform="translate(84.419197, 164.444627) rotate(45.000000) translate(-84.419197, -164.444627) " points="58.1400444 139.498466 118.726503 128.862634 111.140044 191.498466 50.1118911 200.02662"></polygon>
        </g>
    </g>
</svg>