<?xml version="1.0" encoding="utf-8"?>
<!-- Generator: Adobe Illustrator 19.1.0, SVG Export Plug-In . SVG Version: 6.00 Build 0)  -->
<svg version="1.1" id="Layer_1" xmlns="http://www.w3.org/2000/svg" xmlns:xlink="http://www.w3.org/1999/xlink" x="0px" y="0px"
	 viewBox="0 0 256 256" enable-background="new 0 0 256 256" xml:space="preserve">
<rect x="0" fill="#E12529" width="256" height="256"/>
<g>
	<path fill="#FFFFFF" d="M128,64.1c-35.3,0-63.9,28.6-63.9,63.9s28.6,63.9,63.9,63.9c35.3,0,63.9-28.6,63.9-63.9
		S163.3,64.1,128,64.1z M128,175c-26,0-47-21.1-47-47c0-26,21.1-47,47-47c26,0,47,21.1,47,47C175,154,154,175,128,175z"/>
	<circle fill="#FFFFFF" cx="143.9" cy="112.1" r="13.3"/>
	<circle fill="#FFFFFF" cx="143.9" cy="143.9" r="13.3"/>
	<circle fill="#FFFFFF" cx="112.1" cy="143.9" r="13.3"/>
	<circle fill="#FFFFFF" cx="112.1" cy="112.1" r="13.3"/>
</g>
</svg>
