<?xml version="1.0" encoding="UTF-8"?><svg xmlns="http://www.w3.org/2000/svg" xmlns:xlink="http://www.w3.org/1999/xlink" viewBox="0 0 400 400"><defs><style>.cls-1{fill:url(#linear-gradient);}.cls-2{fill:#0d83cd;}.cls-3{fill:#054ab0;mix-blend-mode:multiply;}.cls-4{fill:url(#linear-gradient-2);}.cls-5{isolation:isolate;}</style><linearGradient id="linear-gradient" x1="-9.06" y1="-6.34" x2="463.22" y2="465.94" gradientUnits="userSpaceOnUse"><stop offset="0" stop-color="#65b5ff"/><stop offset=".21" stop-color="#81c0ff"/><stop offset=".56" stop-color="#aad1ff"/><stop offset=".83" stop-color="#c3dcff"/><stop offset="1" stop-color="#cde0ff"/></linearGradient><linearGradient id="linear-gradient-2" x1="312.65" y1="232.96" x2="95.48" y2="107.58" gradientUnits="userSpaceOnUse"><stop offset="0" stop-color="#fff" stop-opacity="0"/><stop offset=".16" stop-color="#fff" stop-opacity=".18"/><stop offset=".47" stop-color="#fff" stop-opacity=".53"/><stop offset=".72" stop-color="#fff" stop-opacity=".78"/><stop offset=".91" stop-color="#fff" stop-opacity=".94"/><stop offset="1" stop-color="#fff"/></linearGradient></defs><g class="cls-5"><g id="Layer_1"><rect class="cls-1" x="-9.06" y="-6.34" width="416.19" height="416.19"/><path class="cls-4" d="M298.6,143.99c.12-1.73,.21-3.48,.21-5.24,0-40.62-32.93-73.54-73.54-73.54-27.77,0-51.93,15.39-64.45,38.11-7.32-5.78-16.56-9.24-26.62-9.24-23.75,0-43.01,19.26-43.01,43.01,0,5.5,1.05,10.76,2.93,15.6h-2.93c-20.79,0-37.64,16.85-37.64,37.64s16.85,37.64,37.64,37.64h199.9c23.38,0,42.33-18.95,42.33-42.33,0-20.81-15.02-38.1-34.82-41.65Z"/><rect class="cls-2" x="147.1" y="183.86" width="94.68" height="17.43" rx="2.02" ry="2.02"/><rect class="cls-2" x="147.1" y="156.91" width="94.68" height="17.43" rx="2.02" ry="2.02"/><rect class="cls-2" x="147.1" y="129.97" width="94.68" height="17.43" rx="2.02" ry="2.02"/><path class="cls-3" d="M297.84,199.99l13.28-11.18c1.09-.92,1.23-2.54,.31-3.63l-11.16-13.25c-.92-1.09-2.54-1.23-3.63-.31l-26.4,22.23c-.12,.07-.23,.14-.34,.23l-13.25,11.16c-.55,.47-.86,1.11-.91,1.78-.06,.67,.13,1.36,.59,1.91l11.16,13.25c.09,.11,.19,.2,.29,.29l22.23,26.4c.92,1.09,2.54,1.23,3.63,.31l13.25-11.16c1.09-.92,1.23-2.54,.31-3.63l-13.29-15.78c26.18,3.8,46.36,26.39,46.36,53.61,0,29.86-24.28,54.15-54.13,54.18-28.34,.03-52.2-22.15-54.1-50.42-1.02-15.11,4.12-29.57,14.25-40.52,.64-.69,.63-1.76-.04-2.43l-11.08-10.9c-.69-.68-1.81-.67-2.47,.04-13.4,14.28-20.46,33.06-19.74,52.81,1.42,38.65,33.29,69.8,71.96,70.41,40.89,.64,74.35-32.43,74.35-73.17,0-36.36-26.65-66.59-61.44-72.23Z"/></g></g></svg>