<svg xmlns="http://www.w3.org/2000/svg" width="256" height="256" viewBox="0 0 256 256">
  <defs>
    <linearGradient id="set-android-manifest-values-a" x1="50%" x2="50%" y1="0%" y2="100%">
      <stop offset="0%" stop-color="#53A906"/>
      <stop offset="100%" stop-color="#A4C639"/>
    </linearGradient>
    <linearGradient id="set-android-manifest-values-b" x1="92.985%" x2="14.218%" y1="-11.098%" y2="109.263%">
      <stop offset="0%" stop-color="#FFF" stop-opacity=".399"/>
      <stop offset="100%" stop-color="#FFF"/>
    </linearGradient>
    <linearGradient id="set-android-manifest-values-c" x1="253.832%" x2="17.426%" y1="25.871%" y2="55.25%">
      <stop offset="0%" stop-color="#0DD3C5"/>
      <stop offset="61.124%" stop-color="#0DC0C7"/>
      <stop offset="100%" stop-color="#0D83CD"/>
    </linearGradient>
    <linearGradient id="set-android-manifest-values-d" x1="24.038%" x2="74.592%" y1="-146.466%" y2="149.7%">
      <stop offset="0%" stop-color="#0DD3C5"/>
      <stop offset="8.751%" stop-color="#0DC0C7"/>
      <stop offset="100%" stop-color="#0D83CD"/>
    </linearGradient>
    <linearGradient id="set-android-manifest-values-e" x1="-20.991%" x2="94.593%" y1="123.982%" y2="6.149%">
      <stop offset="0%" stop-color="#FFF" stop-opacity=".399"/>
      <stop offset="100%" stop-color="#FFF"/>
    </linearGradient>
  </defs>
  <g fill="none" fill-rule="evenodd">
    <rect width="256" height="256" fill="url(#set-android-manifest-values-a)"/>
    <path fill="url(#set-android-manifest-values-b)" d="M69,37 L159.738281,37 L193,71.9585974 L193,211 C193,214.313708 190.313708,217 187,217 L69,217 C65.6862915,217 63,214.313708 63,211 L63,43 C63,39.6862915 65.6862915,37 69,37 Z"/>
    <path fill="url(#set-android-manifest-values-c)" fill-rule="nonzero" d="M96.28,188.875 L91.69,194.68 L87.1,188.875 L87.1,199 L81.025,199 L81.025,180.1 L86.425,180.1 L91.69,186.85 L96.955,180.1 L102.355,180.1 L102.355,199 L96.28,199 L96.28,188.875 Z M116.210909,190.765 L114.860909,186.04 L113.510909,190.765 L116.210909,190.765 Z M117.560909,195.355 L112.160909,195.355 L111.080909,199 L104.600909,199 L111.485909,180.1 L118.235909,180.1 L125.120909,199 L118.640909,199 L117.560909,195.355 Z M139.651818,180.1 L145.726818,180.1 L145.726818,199 L140.596818,199 L133.441818,189.82 L133.441818,199 L127.366818,199 L127.366818,180.1 L132.496818,180.1 L139.651818,189.28 L139.651818,180.1 Z M150.267727,199 L150.267727,180.1 L156.342727,180.1 L156.342727,199 L150.267727,199 Z M160.883636,180.1 L176.003636,180.1 L176.003636,185.365 L166.958636,185.365 L166.958636,187.795 L173.843636,187.795 L173.843636,193.06 L166.958636,193.06 L166.958636,199 L160.883636,199 L160.883636,180.1 Z" style="mix-blend-mode:multiply"/>
    <path fill="url(#set-android-manifest-values-d)" fill-rule="nonzero" d="M135.384615,86.9538462 C145.261538,88.9846154 150.153846,95.0769231 150.153846,95.0769231 L141.846154,103.846154 C141.846154,103.846154 137.230769,98.3076923 129.846154,98.3076923 C124.307692,98.3076923 121.076923,101.538462 121.076923,105.230769 C121.076923,117.230769 152.923077,110.307692 152.923077,133.384615 C152.923077,143.076923 146.646154,150.830769 135.384615,153.046154 L135.384615,162 L123.384615,162 L123.384615,153.323077 C110.553846,151.476923 104,143.076923 104,143.076923 L112.307692,134.769231 C112.307692,134.769231 117.846154,141.692308 127.538462,141.692308 C134.461538,141.692308 138.153846,138 138.153846,133.384615 C138.153846,121.384615 106.307692,128.307692 106.307692,105.230769 C106.307692,96.5538462 112.769231,88.8 123.384615,86.8615385 L123.384615,78 L135.384615,78 L135.384615,86.9538462 Z" style="mix-blend-mode:multiply"/>
    <path fill="url(#set-android-manifest-values-e)" d="M158.731207,37.3828125 L192.784706,72.2668851 L164.731207,72.2668851 C161.417498,72.2668851 158.731207,69.5805936 158.731207,66.2668851 L158.731207,37.3828125 Z"/>
  </g>
</svg>
