<?xml version="1.0" encoding="utf-8"?>
<!-- Generator: Adobe Illustrator 19.1.0, SVG Export Plug-In . SVG Version: 6.00 Build 0)  -->
<svg version="1.1" id="Layer_1" xmlns="http://www.w3.org/2000/svg" xmlns:xlink="http://www.w3.org/1999/xlink" x="0px" y="0px"
	 viewBox="0 0 256 256" enable-background="new 0 0 256 256" xml:space="preserve">
<rect x="0" y="0" fill="#A4C439" width="256" height="256"/>
<g>
	<g>
		<path fill="#91A82F" d="M182.1,201.7H73.9c-4.1,0-7.4-3.3-7.4-7.4V55.7c0-4.1,3.3-7.4,7.4-7.4h86.8c2.2,0,4.4,1,5.8,2.8l21.4,26.7
			c1,1.3,1.6,2.9,1.6,4.6v111.8C189.5,198.4,186.2,201.7,182.1,201.7z"/>
		<path fill="#FFFFFF" d="M182.1,203.4H73.9c-5.1,0-9.2-4.1-9.2-9.2V55.7c0-5.1,4.1-9.2,9.2-9.2h86.8c2.8,0,5.4,1.3,7.2,3.4
			l21.4,26.7c1.3,1.6,2,3.7,2,5.7v111.8C191.2,199.3,187.1,203.4,182.1,203.4z M73.9,50.1c-3.1,0-5.6,2.5-5.6,5.6v138.5
			c0,3.1,2.5,5.6,5.6,5.6h108.2c3.1,0,5.6-2.5,5.6-5.6V82.4c0-1.3-0.4-2.5-1.2-3.5l-21.4-26.7c-1.1-1.3-2.7-2.1-4.4-2.1H73.9z"/>
	</g>
	<g>
		<path fill="#FFFFFF" d="M187.4,84h-21.6c-3.8,0-6.9-3.1-6.9-6.9V48.3c0-1,0.8-1.8,1.8-1.8c1,0,1.8,0.8,1.8,1.8v28.7
			c0,1.8,1.5,3.3,3.3,3.3h21.6c1,0,1.8,0.8,1.8,1.8S188.4,84,187.4,84z"/>
	</g>
</g>
<g>
	<g>
		<path fill="#FFFFFF" d="M144.3,155.9h-33.6c-2.6,0-4.7-2.1-4.7-4.7v-28.6c0-2.6,2.1-4.7,4.7-4.7h33.6c2.6,0,4.7,2.1,4.7,4.7v28.6
			C149,153.8,146.9,155.9,144.3,155.9z M112,149.9h31v-26h-31V149.9z"/>
	</g>
	<g>
		<path fill="#FFFFFF" d="M140,123.9c-1.7,0-3-1.3-3-3v-10.3c0-5-4-9-9-9c-5.2,0-10,4.3-10,9.1v10.2c0,1.7-1.3,3-3,3s-3-1.3-3-3
			v-10.2c0-8,7.5-15.1,16-15.1c8.3,0,15,6.7,15,15v10.3C143,122.6,141.7,123.9,140,123.9z"/>
	</g>
</g>
</svg>
