<svg xmlns="http://www.w3.org/2000/svg" width="256" height="256" viewBox="0 0 256 256">
  <defs>
    <linearGradient id="sign-apk-stepicon-a" x1="50%" x2="50%" y1="0%" y2="100%">
      <stop offset="0%" stop-color="#53A906"/>
      <stop offset="100%" stop-color="#A4C639"/>
    </linearGradient>
    <linearGradient id="sign-apk-stepicon-b" x1="50%" x2="50%" y1="100%" y2="0%">
      <stop offset="0%" stop-color="#FFF" stop-opacity=".7"/>
      <stop offset="100%" stop-color="#FFF"/>
    </linearGradient>
    <linearGradient id="sign-apk-stepicon-c" x1="-26.536%" x2="122.497%" y1="19.366%" y2="65.546%">
      <stop offset="0%" stop-color="#0DD3C5"/>
      <stop offset="8.751%" stop-color="#0DC0C7"/>
      <stop offset="100%" stop-color="#0D83CD"/>
    </linearGradient>
  </defs>
  <g fill="none" fill-rule="evenodd">
    <rect width="256" height="256" fill="url(#sign-apk-stepicon-a)"/>
    <path fill="url(#sign-apk-stepicon-b)" d="M106.306993,65.4772727 C112.515065,62.8181818 118.723138,61.9318182 125.818078,61.9318182 C132.026151,61.9318182 137.347356,62.8181818 142.668562,64.5909091 L156.858442,50.4090909 C160.405912,46.8636364 165.727118,46.8636364 169.274588,50.4090909 C172.822058,53.9545455 172.822058,59.2727273 169.274588,62.8181818 L158.632177,73.4545455 C171.048323,83.2045455 179.030131,98.2727273 179.030131,115.113636 L72.6060262,115.113636 C72.6060262,99.1590909 79.7009665,84.9772727 91.2302445,75.2272727 L78.8140989,62.8181818 C75.2666288,59.2727273 75.2666288,53.9545455 78.8140989,50.4090909 C82.3615691,46.8636364 87.6827743,46.8636364 91.2302445,50.4090909 L106.306993,65.4772727 Z M90.3433769,168.295455 L81.4747015,168.295455 C76.1534963,168.295455 72.6060262,164.75 72.6060262,159.431818 L72.6060262,123.977273 L179.030131,123.977273 L179.030131,159.431818 C179.030131,159.431818 179.030131,159.431818 179.030131,159.431818 C179.030131,164.75 175.482661,168.295455 170.161455,168.295455 L161.29278,168.295455 L161.29278,194.886364 C161.29278,199.318182 157.74531,203.75 152.424105,203.75 C147.102899,203.75 143.555429,200.204545 143.555429,194.886364 L143.555429,168.295455 L108.080728,168.295455 L108.080728,194.886364 C108.080728,199.318182 104.533258,203.75 99.2120523,203.75 C93.8908471,203.75 90.3433769,200.204545 90.3433769,194.886364 L90.3433769,168.295455 Z M205.636157,123.977273 L205.636157,160.318182 C205.636157,164.75 202.088687,169.181818 196.767482,169.181818 C191.446276,169.181818 187.898806,165.636364 187.898806,160.318182 L187.898806,123.977273 C187.898806,119.545455 191.446276,115.113636 196.767482,115.113636 C202.088687,115.113636 205.636157,118.659091 205.636157,123.977273 Z M54.8686754,115.113636 C60.1898806,115.113636 63.7373508,118.659091 63.7373508,123.977273 L63.7373508,159.431818 C63.7373508,163.863636 60.1898806,168.295455 54.8686754,168.295455 C49.5474702,168.295455 46,164.75 46,159.431818 L46,123.977273 C46,118.659091 49.5474702,115.113636 54.8686754,115.113636 Z M152.424105,106.25 C157.74531,106.25 161.29278,102.704545 161.29278,97.3863636 C161.29278,92.9545455 157.74531,88.5227273 152.424105,88.5227273 C147.102899,88.5227273 143.555429,92.9545455 143.555429,97.3863636 C143.555429,102.704545 147.102899,106.25 152.424105,106.25 Z M99.2120523,106.25 C104.533258,106.25 108.080728,102.704545 108.080728,97.3863636 C108.080728,92.9545455 104.533258,88.5227273 99.2120523,88.5227273 C93.8908471,88.5227273 90.3433769,92.9545455 90.3433769,97.3863636 C90.3433769,102.704545 93.8908471,106.25 99.2120523,106.25 Z"/>
    <path fill="url(#sign-apk-stepicon-c)" d="M143,30 L143,17 C143,10.372583 148.372583,5 155,5 L183,5 C189.627417,5 195,10.372583 195,17 L195,65 C195,71.627417 189.627417,77 183,77 L155,77 C148.372583,77 143,71.627417 143,65 L143,50 L0,50 L0,30 L18,30 L18,1.13686838e-13 L38,1.13686838e-13 L38,30 L48,30 L48,-1.13686838e-13 L68,-1.13686838e-13 L68,30 L143,30 Z M163,25 L163,57 L175,57 L175,25 L163,25 Z" transform="scale(-1 1) rotate(-45 88.368 349.616)" style="mix-blend-mode:multiply"/>
  </g>
</svg>
