<svg id="Layer_1" data-name="Layer 1" xmlns="http://www.w3.org/2000/svg" viewBox="0 0 256 256"><defs><style>.cls-1{fill:#4d4d4d;}.cls-2{fill:#fff;}</style></defs><title>Artboard 99</title><rect class="cls-1" width="256" height="256"/><path class="cls-2" d="M170.53,65.83A12,12,0,0,0,160.33,60H95.67a11.64,11.64,0,0,0-10.2,5.83l-32.4,56.32a11.86,11.86,0,0,0,0,11.81l32.4,56.22A12,12,0,0,0,95.67,196h64.66a11.64,11.64,0,0,0,10.2-5.83l32.4-56.32a11.7,11.7,0,0,0,0-11.73ZM160.48,161a1.43,1.43,0,0,1-1.2,2h-11.1c-.45,0-1.05-.06-1.2-.51l-18.9-33.78c-.15-.15-.15-.24-.15-.54,0,.15-.15.48-.15.63l-18.9,33.68a1.3,1.3,0,0,1-1.2.53H96.57a1.32,1.32,0,0,1-1.2-2l18.45-33L95.37,95c-.45-.9-.15-2,.9-2h11.4a1.43,1.43,0,0,1,1.2.66l18.9,33.86c.15.15.15.28.15.58,0-.15.15-.46.15-.61L147,93.67a1.43,1.43,0,0,1,1.2-.67h11.1a1.32,1.32,0,0,1,1.2,2L142,128Z"/></svg>