<svg width="256px" height="256px" viewBox="0 0 256 256" version="1.1" xmlns="http://www.w3.org/2000/svg" xmlns:xlink="http://www.w3.org/1999/xlink">
    <defs>
        <linearGradient x1="50%" y1="0%" x2="50%" y2="100%" id="linearGradient-kpwntgodf--1">
            <stop stop-color="#53A906" offset="0%"></stop>
            <stop stop-color="#A4C639" offset="100%"></stop>
        </linearGradient>
        <linearGradient x1="50%" y1="33.1830019%" x2="50%" y2="132.410038%" id="linearGradient-kpwntgodf--2">
            <stop stop-color="#FFFFFF" offset="0%"></stop>
            <stop stop-color="#92C02E" offset="100%"></stop>
        </linearGradient>
    </defs>
    <g id="Page-1" stroke="none" stroke-width="1" fill="none" fill-rule="evenodd">
        <g id="icon" fill-rule="nonzero">
            <rect id="Rectangle" fill="url(#linearGradient-kpwntgodf--1)" x="0" y="0" width="256" height="256"></rect>
            <path d="M197.992525,102.178714 C197.991645,96.5558169 193.516028,91.9986599 187.994723,92 C182.473858,91.9955254 177.998681,96.5607425 178,102.184087 L178.007036,144.820394 C178.006596,150.449112 182.480014,154.998209 188.004837,155 C193.525703,154.999104 197.998681,150.449112 198,144.815916 L197.992525,102.178714 Z M82,94.0152671 L82.0158385,160.272023 C82.0108607,166.298916 86.9235128,171.163268 92.994186,171.164615 L100.469508,171.167758 L100.478106,193.789486 C100.476749,199.420783 105.090732,204 110.75956,204 C116.445131,204 121.050969,199.417191 121.052326,193.782302 L121.046896,171.165064 L134.937718,171.16237 L134.943601,193.7832 C134.942244,199.411802 139.558942,203.998204 145.228675,203.989223 C150.913793,203.992816 155.522346,199.410006 155.521441,193.774219 L155.515106,171.159675 L163.016675,171.153838 C169.072414,171.156083 173.998642,166.284547 174,160.257654 L173.988687,94 L82,94.0152671 Z M149.003724,74 C146.796268,74.0023248 144.999534,72.2156012 145,70.0044203 C145.007459,67.8146484 146.793937,66.0074466 149.005589,66 C151.200924,66.0060504 153.001854,67.8127867 153,70.0067474 C153.005117,72.2132742 151.210248,74.0004631 149.003724,74 Z M106.989512,74 C104.791295,73.9948769 103.000466,72.2092336 103,70.0034938 C103.000932,67.8061372 104.787566,65.9995357 106.993241,66 C109.20684,65.9981385 110.997203,67.8061372 111,70.0025623 C111.000932,72.2064392 109.206374,73.9986028 106.989512,74 Z M150.560576,54.1472365 L157.688845,41.1043483 C158.069313,40.4229732 157.82001,39.5548275 157.130047,39.170035 C156.435143,38.8009944 155.575834,39.051672 155.208393,39.7379977 L148.008252,52.9168008 C141.948168,50.216053 135.169372,48.6998358 127.995285,48.7079367 C120.840064,48.7020861 114.063065,50.2115525 108.029484,52.8969986 L100.821707,39.7528493 C100.44618,39.0593228 99.5841759,38.8086452 98.9036461,39.1862368 C98.2096404,39.5602281 97.9562947,40.4297239 98.3408053,41.1097489 L105.472668,54.142736 C91.4600424,61.3835844 81.992817,75.1708546 81.9999959,91 L173.999996,90.990549 C174.002695,75.1636538 164.552539,61.4051868 150.560576,54.1472365 Z M67.9960429,92 C62.4754661,91.9973154 58.001319,96.5633958 58,102.180879 L58.0074745,144.815988 C58.0087935,150.452727 62.4846993,155.000896 68.0057158,155 C73.5298101,155 78.0048364,150.449592 77.9991206,144.816436 L78,102.175058 C77.9978016,96.5589179 73.5170594,91.9964198 67.9960429,92 Z" id="Fill-10" fill="url(#linearGradient-kpwntgodf--2)"></path>
            <g id="id" transform="translate(100.176000, 103.592000)" fill="#1A6B02" opacity="0.865482875">
                <path d="M10.224,8.424 L10.224,0 L0,0 L0,8.424 L10.224,8.424 Z M0,14.184 L0,51.408 L10.224,51.408 L10.224,14.184 L0,14.184 Z" id="Shape"></path>
                <path d="M44.712,32.688 C44.712,34.224 44.568,35.712 44.28,37.152 C43.992,38.592 43.512,39.876 42.84,41.004 C42.168,42.132 41.268,43.032 40.14,43.704 C39.012,44.376 37.608,44.712 35.928,44.712 C34.344,44.712 32.988,44.364 31.86,43.668 C30.732,42.972 29.796,42.06 29.052,40.932 C28.308,39.804 27.768,38.52 27.432,37.08 C27.096,35.64 26.928,34.2 26.928,32.76 C26.928,31.224 27.084,29.748 27.396,28.332 C27.708,26.916 28.212,25.656 28.908,24.552 C29.604,23.448 30.528,22.56 31.68,21.888 C32.832,21.216 34.248,20.88 35.928,20.88 C37.608,20.88 39,21.216 40.104,21.888 C41.208,22.56 42.108,23.436 42.804,24.516 C43.5,25.596 43.992,26.844 44.28,28.26 C44.568,29.676 44.712,31.152 44.712,32.688 Z M44.856,46.656 L44.856,51.408 L54.576,51.408 L54.576,0 L44.352,0 L44.352,18.72 L44.208,18.72 C43.056,16.896 41.484,15.516 39.492,14.58 C37.5,13.644 35.4,13.176 33.192,13.176 C30.456,13.176 28.056,13.716 25.992,14.796 C23.928,15.876 22.212,17.304 20.844,19.08 C19.476,20.856 18.444,22.908 17.748,25.236 C17.052,27.564 16.704,29.976 16.704,32.472 C16.704,35.064 17.052,37.56 17.748,39.96 C18.444,42.36 19.476,44.484 20.844,46.332 C22.212,48.18 23.952,49.644 26.064,50.724 C28.176,51.804 30.624,52.344 33.408,52.344 C35.856,52.344 38.052,51.9 39.996,51.012 C41.94,50.124 43.512,48.672 44.712,46.656 L44.856,46.656 Z" id="Shape"></path>
            </g>
        </g>
    </g>
</svg>